<svg width="181" height="311" viewBox="0 0 181 311" fill="none" xmlns="http://www.w3.org/2000/svg">
    <path
        d="M164.946 310.133H99.2104C98.3831 306.213 96.4838 302.724 94.7772 299.159C94.5789 298.469 94.4887 297.724 94.1673 297.097C89.9802 288.924 88.8781 280.235 89.7915 271.206C89.8216 270.903 90.0582 270.62 90.2018 270.327C90.4356 270.524 90.7802 270.674 90.8855 270.924C91.706 272.93 92.4211 274.984 93.2894 276.97C94.81 280.447 95.8876 284.31 100.195 285.56L102.569 288.098L102.979 287.74C101.52 285.655 100.062 283.57 98.6033 281.485L96.0681 273.32C95.9696 272.91 95.8999 272.5 95.7686 272.106C90.5505 256.441 89.5933 240.548 93.4207 224.458C95.6223 215.203 98.1425 206.067 97.8321 196.364C97.5982 189.077 95.4049 182.416 92.9189 175.751C89.8845 166.837 87.3274 157.818 86.7763 148.342C86.5576 144.576 86.44 140.843 87.8088 136.958C88.5335 139.627 89.1625 141.953 89.7929 144.278C93.2471 152.182 92.6878 151.039 100.049 149.249C101.214 148.966 102.394 148.734 103.575 148.52C112.475 146.902 113.264 147.388 110.526 138C110.928 136.737 109.086 135.457 110.552 134.2L112.73 138.933C115.986 147.228 120.203 155.425 121.13 164.23C123.045 182.46 128.063 199.257 139.454 213.848C139.863 214.587 140.273 215.328 140.685 216.07L141.003 216.719L142.669 220.541C143.258 218.785 142.54 217.188 142.05 215.569C141.999 215.4 141.776 215.281 141.639 215.137C141.582 215.011 141.526 214.886 141.468 214.758C140.149 212.877 145.258 213.254 142.897 210.897C143.756 210.77 144.645 210.686 145.359 211.627C145.572 211.91 146.123 211.937 146.52 212.081L146.429 210.67L142.003 206.902C139.294 206.556 139.752 204.695 140.106 202.905C140.337 201.734 141.087 200.436 140.79 199.427C139.149 193.727 142.841 192.464 147.043 191.527C150.188 191.1 153.334 190.689 156.466 190.235C157.026 190.154 157.56 189.901 158.107 189.727C157.611 189.502 157.109 189.071 156.618 189.083C153.112 189.18 149.626 186.467 146.105 188.984C140.089 188.795 136.751 184.441 138.884 179.386C139.829 177.144 141.152 175.064 142.302 172.911C143.607 172.901 144.775 172.528 145.744 171.624C146.81 171.67 147.795 171.463 148.59 170.693L149.517 170.381C150.214 170.412 150.921 170.276 150.677 169.402C150.45 168.588 149.699 168.834 149.088 169.019C141.818 171.216 140.631 167.574 141.366 161.594C141.869 157.485 142.606 153.403 143.239 149.31L145.139 140.498C145.794 139.966 146.2 140.606 146.695 140.829C148.311 143.266 149.96 145.684 151.54 148.145C157.731 157.799 162.244 168.428 169.018 177.769C172.974 183.225 177.359 188.718 177.924 195.802C178.373 201.399 175.481 206.446 174.344 211.801C170.695 228.992 167.186 246.222 163.15 263.324C159.405 279.178 158.225 294.766 164.946 310.133ZM117.548 162.176C116.591 161.877 116.18 161.68 115.756 161.629C110.348 160.916 105.797 163.407 101.173 165.595C100.928 165.71 100.847 166.173 100.69 166.474C101.123 166.474 101.624 166.621 101.984 166.456C106.443 164.43 111.077 163.091 115.981 162.745C116.336 162.716 116.678 162.5 117.548 162.182V162.176ZM107.046 172.677C111.329 173.162 115.075 171.75 118.532 169.385C118.765 169.227 118.795 168.774 118.918 168.458C118.584 168.45 118.2 168.328 117.925 168.458C114.379 170.047 110.957 171.952 107.046 172.682V172.677ZM96.801 222.553C98.4638 227.93 101.861 230.726 105.368 233.431L96.801 222.553ZM108.698 291.942C111.993 291.472 115.125 291.041 118.259 290.551C118.597 290.499 118.881 290.112 119.19 289.881C118.941 289.755 118.677 289.497 118.448 289.526C115.201 289.912 111.959 290.329 108.72 290.776C108.416 290.817 108.147 291.116 107.861 291.295L108.698 291.942ZM104.661 169.628C107.315 168.899 110.02 168.166 112.713 167.392C112.93 167.33 113.067 166.982 113.242 166.768C112.975 166.652 112.67 166.385 112.449 166.443C109.743 167.127 107.046 167.846 104.357 168.599C104.122 168.666 103.961 168.998 103.764 169.208L104.661 169.628ZM155.225 177.866C150.962 177.896 147.986 178.735 145.34 180.667C145.126 180.823 145.026 181.134 144.875 181.374C144.998 181.445 145.148 181.605 145.238 181.573C148.258 180.46 151.271 179.336 155.225 177.861V177.866ZM99.2816 214.101C99.0081 214.237 98.751 214.318 98.7578 214.36C98.818 214.758 98.8221 215.217 99.0313 215.53C99.8709 216.778 100.686 218.063 101.694 219.168C102.33 219.866 103.108 221.486 103.931 220.771C104.72 220.087 103.073 219.337 102.563 218.583C101.53 217.053 100.389 215.594 99.2816 214.101ZM142.493 200.482C142.415 200.661 142.338 200.841 142.261 201.02C144.586 201.999 146.911 202.985 149.256 203.93C149.36 203.972 149.803 203.57 149.767 203.489C149.631 203.134 149.458 202.616 149.177 202.524C146.968 201.796 144.728 201.152 142.493 200.482Z"
        fill="#D49C77" />
    <path
        d="M139.446 213.852C128.054 199.261 123.037 182.464 121.122 164.234C120.195 155.425 115.978 147.228 112.722 138.937C112.48 137.179 111.722 135.532 110.544 134.204L109.912 132.937C109.776 132.372 109.588 131.75 108.88 131.964C108.751 132.003 108.917 133.016 108.947 133.579L109.304 134.795C109.209 135.152 109.114 135.507 108.996 135.953C108.401 134.53 107.88 133.281 107.355 132.031C107.492 130.438 105.465 129.504 106.124 127.635L109.652 130.096C110.302 130.904 111.096 131.636 111.579 132.534C116.847 142.353 120.437 152.805 123.202 163.568C123.366 164.208 123.49 165.049 123.941 165.398C129.411 169.637 137.083 166.902 138.689 160.214C142.973 142.358 147.258 124.503 151.543 106.648C157.685 81.1129 163.833 55.5806 169.986 30.0506C171.255 24.7709 168.893 20.6426 164.033 19.5145C139.177 13.7494 114.32 7.98563 89.4609 2.22325C82.8466 0.691724 80.2498 1.8732 77.1895 7.70121L75.8945 8.75276L77.1649 4.49592C79.5251 0.475652 83.3908 -0.854864 89.3966 0.530349C113.786 6.18242 138.168 11.8641 162.541 17.5755C171.458 19.669 173.268 23.6017 170.797 33.7563C164.589 59.2877 158.53 84.8547 152.404 110.405C150.514 118.291 148.646 126.183 146.661 134.046C146.215 135.815 146.387 137.118 147.573 138.618C156.145 149.4 161.228 162.317 168.86 173.682C171.014 176.89 173.16 180.103 175.298 183.321C177.759 188.72 181.251 193.86 179.114 200.331C178.482 202.245 178.24 204.287 177.821 206.269C175.001 219.397 172.136 232.524 169.377 245.672C167.109 256.468 164.591 267.232 162.88 278.12C161.161 289.088 163.205 299.797 167.145 310.134H164.946C158.225 294.767 159.405 279.18 163.145 263.333C167.181 246.23 170.689 229 174.339 211.809C175.475 206.453 178.367 201.405 177.919 195.81C177.351 188.727 172.969 183.229 169.013 177.778C162.239 168.437 157.726 157.813 151.534 148.153C149.955 145.692 148.306 143.274 146.689 140.838L145.693 139.647L145.133 140.507L142.934 149.325C142.82 149.834 142.759 150.363 142.583 150.849C140.387 156.882 141.413 164.285 134.98 168.545C134.243 169.033 132.449 169.457 133.476 171.07C134.409 172.543 135.851 172.882 137.441 172.181C141.172 170.54 145.236 170.391 149.137 169.54C149.374 169.489 149.66 169.662 149.922 169.729L149.512 170.389L148.585 170.701L145.739 171.632L142.297 172.919C138.906 173.666 135.323 174.125 134.104 178.223C131.977 181.63 132.82 186.092 130.187 189.611C129.979 187.054 130.744 182.116 131.691 179.472C133.469 174.485 131.492 170.166 126.447 168.169C125.137 167.65 123.819 167.281 124.294 169.666C124.704 171.717 124.832 173.811 125.114 175.882C125.464 178.45 125.921 180.839 129.194 178.1C129.499 177.846 130.045 177.88 130.479 177.78C130.238 178.199 130.068 178.676 129.746 179.023C128.057 180.871 126.015 182.585 127.011 185.52C127.997 188.423 129.091 191.291 130.127 194.176C130.424 194.996 130.85 195.353 131.778 194.955C134.976 193.581 138.205 192.26 141.41 190.919L146.082 189.294L150.782 188.087L149.106 189.466H157.108C152.956 190.482 149.45 189.84 146.365 191.459C141.761 193.1 137.163 194.747 132.554 196.36C131.436 196.751 131.578 197.335 132.073 198.137C134.335 201.797 136.585 205.463 138.824 209.136L140.075 211.029C140.087 211.125 140.101 211.221 140.113 211.315C140.417 212.056 140.721 212.797 141.026 213.537L141.46 214.768C141.518 214.895 141.574 215.021 141.631 215.147C141.563 215.732 141.991 216.514 140.997 216.729C140.892 216.513 140.785 216.295 140.678 216.079C140.736 215.072 140.186 214.41 139.446 213.852Z"
        fill="#25170E" />
    <path
        d="M92.911 175.75C95.397 182.416 97.5903 189.075 97.8242 196.362C98.1346 206.071 95.6144 215.201 93.4128 224.456C89.584 240.547 90.5412 256.439 95.7607 272.105C95.8974 272.498 95.9617 272.914 96.0602 273.319C96.5907 276.139 96.8082 279.055 98.5954 281.484C98.1852 283.461 97.7462 281.008 97.325 281.491L96.655 280.272C94.2647 275.664 92.6265 270.78 91.2933 265.777C91.1866 265.38 90.8995 265.031 90.6957 264.659C90.4892 264.923 90.1487 265.163 90.0968 265.455C88.1222 277.176 88.6391 288.564 94.7761 299.154C96.4827 302.719 98.3821 306.207 99.2094 310.128H96.6933C96.0615 305.723 93.7232 302.001 91.7322 298.18C85.159 285.568 86.1093 272.472 88.9837 259.234C89.692 255.966 88.8811 252.777 88.635 249.554C87.7557 237.997 90.4509 226.855 92.6717 215.666C92.9096 214.47 93.034 213.838 91.6584 213.524C91.0362 213.387 90.4591 212.908 89.9395 212.487C89.0411 211.761 88.2042 210.958 87.3414 210.188C87.4084 211.471 87.3934 212.766 87.5602 214.038C88.0183 217.53 88.0538 220.928 86.0642 224.057C83.8763 227.491 80.9719 229.774 76.7424 229.747C72.2886 229.718 71.2303 225.899 69.6536 222.892C67.329 218.452 65.2436 213.883 63.1446 209.328C62.7651 208.478 62.6234 207.54 62.7344 206.615C63.1337 203.714 63.723 200.839 64.2057 197.95C64.8156 194.31 66.6767 190.749 60.6121 189.104C55.7577 187.788 55.5663 181.649 59.5879 177.632L60.8063 177.092C60.7256 177.624 60.6955 178.17 60.556 178.685C60.2702 179.73 59.9256 180.76 59.6057 181.796C57.5996 184.394 59.406 186.068 61.2835 187.285C64.739 189.525 68.4735 189.257 72.1724 187.72C77.3933 185.508 81.1072 181.487 84.6817 177.297C85.0359 176.74 85.4379 176.203 85.7374 175.618C86.6399 173.854 86.6249 173.841 87.2922 174.55C87.4686 175.596 88.1468 176.001 89.0821 175.674C90.2513 175.264 89.4076 174.496 89.2476 173.89C89.0274 173.054 88.7403 172.238 88.4818 171.413C86.8792 170.259 88.2001 167.118 85.3559 166.808C85.386 166.593 85.3559 166.231 85.4557 166.183C87.7803 165.155 87.2334 163.135 86.6235 161.617C84.7433 156.968 84.8458 152.135 84.7091 147.279C84.5901 142.965 85.0099 138.652 85.9589 134.441C87.1677 130.917 89.0712 127.962 92.5896 126.329C93.1885 126.192 93.834 126.162 94.3782 125.911C97.4563 124.488 100.564 124.298 103.7 125.637C104.11 125.811 104.367 126.321 104.694 126.684C104.228 126.672 103.719 126.78 103.303 126.63C101.329 125.915 99.3666 125.417 97.3278 126.367C90.9008 127.844 87.8774 132.306 86.6891 138.438C85.6348 143.876 86.216 149.269 87.0009 154.657C88.0689 161.941 89.5621 169.108 92.911 175.75ZM78.4572 217.605C78.3642 216.606 78.2069 215.638 77.2059 215.089V215.082C77.236 214.389 77.0692 213.852 76.22 213.886C75.2218 213.287 74.2714 213.18 73.4263 214.159L70.9034 215.728L69.2242 216.97L71.2043 214.127L71.1961 214.133L72.8466 213.16C72.6866 213.067 72.5293 212.896 72.3693 212.895C71.0402 212.88 69.7124 212.895 68.3832 212.904C67.8363 212.095 66.9119 211.568 66.1953 212.152C65.5116 212.699 66.2541 213.395 66.849 213.83L67.1225 214.514C66.9857 215.64 67.7488 216.291 68.4434 216.967L68.4352 216.957C68.3764 218.233 69.3924 218.811 69.8861 219.587C70.8433 219.404 68.9056 217.631 70.928 218.251L72.208 222.603C72.5074 223.681 72.208 225.448 74.3193 224.421L74.9606 223.891C75.9178 225.107 73.8667 224.972 74.0827 225.857C74.1921 227.35 75.2409 227.738 76.4675 227.763C80.5972 227.845 83.0791 225.502 84.7474 222.011C86.2092 218.367 85.9931 214.665 84.9812 210.988C84.1006 207.791 83.0668 204.727 79.774 209.484C79.3542 210.09 78.598 210.533 77.9088 210.868C76.5851 211.511 76.3267 212.214 77.5232 213.216L78.1932 214.447L78.1796 214.432L79.7275 217.601C79.629 218.091 79.8807 218.761 79.0698 218.884L78.4572 217.605ZM89.7549 209.137L89.7481 209.129C90.7258 210.19 91.5914 211.59 93.2009 211.453C93.6507 211.418 94.2716 210.18 94.3577 209.44C94.9471 204.41 95.5077 199.376 95.2534 194.284C95.1659 192.543 94.2962 192.233 92.9356 192.506C91.1442 192.87 89.4363 193.418 87.9923 194.684C84.7104 197.567 85.2109 201.772 84.2127 205.432C84.0048 206.194 84.6229 207.504 85.7073 207.769C86.7206 208.018 86.9913 206.894 87.4945 206.28C89.0931 204.329 90.6684 202.357 93.194 199.224C92.3599 201.446 91.9278 202.233 91.7801 203.064C91.4027 205.197 88.8442 206.591 89.7549 209.137ZM73.4181 210.686C76.6029 209.829 79.3761 208.133 81.0184 205.344C84.0117 200.258 84.4602 194.378 85.6075 188.724C85.6909 188.313 86.004 187.943 86.2105 187.555C86.4047 187.929 86.819 188.345 86.7575 188.675C85.9986 192.914 87.3783 193.068 90.2308 190.548C90.265 190.518 90.3306 190.522 90.3812 190.511C91.4218 190.395 92.2956 188.903 93.5536 190.21C93.7916 190.458 94.9211 190.376 94.772 189.554C94.5273 188.17 94.0035 186.835 93.596 185.48C92.0919 178.096 88.0319 175.982 82.4637 183.217C80.4742 185.79 77.9184 187.87 74.9948 189.295C73.652 189.706 72.2818 190.038 70.9732 190.534C69.8177 190.973 68.3217 190.213 67.4397 191.554L71.1865 192.476C74.8375 195.296 73.3197 202.293 68.639 204.339C67.0281 205.041 65.1889 205.75 64.7349 207.589C64.4368 208.8 65.8494 209.432 66.7957 210.068C68.8577 211.825 71.1126 211.578 73.4181 210.686ZM71.6405 197.586C71.6172 197.25 71.7048 196.474 71.4901 195.796C70.9814 194.188 69.7274 193.41 68.1016 193.198C67.4356 193.112 67.0445 193.362 66.8927 194.087C66.1981 197.407 65.4446 200.716 64.7636 204.039C64.6966 204.369 64.2591 205.122 65.0823 205.123C67.2948 205.125 71.6172 200.352 71.6391 197.586H71.6405Z"
        fill="#24170F" />
    <path
        d="M59.6035 181.798C59.9235 180.761 60.2681 179.732 60.5539 178.687C60.6906 178.171 60.7235 177.626 60.8041 177.094L59.5858 177.634L62.6912 173.161C63.111 174.44 59.9563 175.136 62.1155 176.699C61.8201 177.496 61.5252 178.294 61.2308 179.093C62.0512 178.878 62.8826 178.683 63.6922 178.445C66.0318 177.753 66.8701 175.725 67.6728 173.755C67.9777 173.007 68.8761 171.991 68.0215 171.356C67.5538 171.009 66.4134 171.571 65.5765 171.723C65.5669 171.303 66.5105 170.713 65.5532 170.492C63.9041 170.119 62.5449 170.995 61.198 171.78C61.6478 171.883 62.0348 171.753 62.4287 171.708C63.5226 171.583 63.7099 172.028 62.9442 172.874C62.6474 171.363 61.5508 172.287 60.997 172.402C55.3658 173.577 49.7621 174.89 44.1392 176.112C37.0846 177.646 32.9262 174.7 31.262 167.623C24.2325 137.722 17.1309 107.841 9.95738 77.9807C6.7521 64.547 3.41966 51.1434 0.278659 37.6947C-0.988955 32.2659 2.17393 27.3473 7.61632 25.9785C29.829 20.3902 52.0471 14.8211 74.2707 9.27114C76.7006 8.65989 75.4466 5.63375 77.1587 4.48511L75.8979 8.74603L77.1929 7.69448C76.7266 9.93981 76.3218 12.207 75.7871 14.4305C69.7021 39.7499 63.6037 65.0662 57.4922 90.3793C53.8457 105.476 50.1659 120.563 46.4529 135.641C44.4469 143.783 46.2546 147.181 53.8494 149.116C63.271 151.52 72.72 153.797 82.1266 156.272C84.588 156.92 84.8765 156.272 84.6249 153.947C83.9111 147.384 83.4516 140.797 85.9609 134.438C85.0119 138.649 84.5921 142.962 84.711 147.277C84.8478 152.133 84.7411 156.964 86.6255 161.615C87.2394 163.132 87.7782 165.152 85.4577 166.18C85.3524 166.228 85.3879 166.591 85.3578 166.805C88.2021 167.116 86.8812 170.257 88.4838 171.411C87.1423 172.095 88.0284 173.63 87.2941 174.548C86.6268 173.843 86.6419 173.852 85.7393 175.616C85.4399 176.201 85.0379 176.737 84.6837 177.295C85.3907 174.86 86.2412 172.456 86.7526 169.98C87.0945 168.322 86.6159 167.08 84.3514 167.667C82.2838 168.203 80.0823 168.247 78.0407 168.851C74.0751 170.027 68.3483 168.896 68.3702 175.731C66.788 179.703 62.5996 179.883 59.6035 181.798ZM41.9486 174.843C44.0325 174.384 47.2269 173.685 50.4185 172.972C61.6123 170.475 72.8052 167.971 83.9972 165.461C84.8327 165.274 86.3397 165.771 85.9841 164.08C85.5739 162.123 86.5037 159.193 83.9795 158.506C73.1644 155.566 62.2468 153.007 51.3975 150.185C47.7998 149.25 45.456 146.969 44.3648 143.191C43.1109 138.847 45.0485 135.042 45.9579 131.121C49.2835 116.701 52.9086 102.35 56.3942 87.9657C59.1591 76.5531 61.9022 65.1359 64.6234 53.7142C67.7494 40.6688 70.9136 27.6303 73.8727 14.5467C74.0519 13.7604 76.0606 10.8095 73.0195 11.4016C65.0541 12.9632 57.2173 15.1853 49.3313 17.1544C36.3407 20.3952 23.3692 23.6839 10.3703 26.8755C3.56187 28.5465 0.60821 31.8667 1.81155 37.6085C3.30343 44.7356 5.25066 51.7656 7.01602 58.8339C9.41177 68.4374 11.9019 78.0094 14.2019 87.6253C16.6879 97.974 18.9442 108.373 21.3919 118.729C25.0703 134.301 28.9935 149.816 32.4818 165.43C34.1309 172.814 36.9957 174.734 41.9486 174.847V174.843Z"
        fill="#2F160F" />
    <path
        d="M62.1158 176.703C59.9552 175.14 63.1113 174.444 62.6915 173.165L62.9513 172.882C63.7171 172.036 63.527 171.591 62.4358 171.716C62.0406 171.761 61.6536 171.891 61.2051 171.788C62.5506 171.003 63.9112 170.127 65.5604 170.5C66.5176 170.718 65.574 171.307 65.5836 171.731L62.1158 176.703Z"
        fill="#24170F" />
    <path
        d="M177.824 206.275C178.243 204.292 178.486 202.249 179.117 200.336C181.255 193.866 177.764 188.725 175.301 183.327C180.492 189.282 181.565 199.04 177.824 206.275Z"
        fill="#A7A5A0" />
    <path
        d="M134.099 178.219C135.33 174.117 138.902 173.661 142.293 172.915C141.142 175.069 139.818 177.154 138.874 179.39C136.741 184.449 140.081 188.799 146.096 188.988C146.08 189.088 146.075 189.189 146.081 189.29C144.246 188.709 143.072 190.57 141.393 190.562C139.315 191.463 136.944 191.39 134.966 192.804C133.972 193.514 131.95 194.128 131.256 193.615C130.087 192.751 130.231 191.171 131.165 189.561C133.16 186.109 133.42 182.083 134.099 178.219Z"
        fill="#B9805F" />
    <path
        d="M97.3296 126.371C99.3685 125.414 101.331 125.919 103.305 126.634C103.716 126.784 104.23 126.676 104.696 126.689C104.369 126.33 104.108 125.815 103.702 125.641C100.566 124.304 97.4582 124.494 94.3801 125.915C93.8331 126.166 93.1904 126.199 92.5915 126.333C99.2181 122.653 105.679 124.074 109.656 130.088L106.128 127.627C105.473 129.496 107.495 130.43 107.358 132.023C104.239 127.394 96.5365 127.329 91.9775 131.886C89.0744 134.791 89.5339 142.473 92.9073 147.416C93.1111 148.473 93.375 149.31 94.8218 148.875C97.7371 148.003 100.688 147.252 103.624 146.451C104.976 146.352 106.327 146.251 107.68 146.156C109.608 146.019 110.815 145.596 110.054 143.094C108.946 139.463 108.231 135.71 107.349 132.018C107.87 133.267 108.391 134.516 108.99 135.939C109.107 135.494 109.203 135.138 109.297 134.783L110.512 137.991C113.247 147.378 112.46 146.893 103.561 148.51C102.38 148.725 101.199 148.956 100.034 149.239C92.6749 151.029 93.2342 152.172 89.7786 144.268C89.5886 143.191 89.4846 142.09 89.192 141.041C87.8246 136.134 88.8146 132.219 93.5336 129.566C96.341 127.988 99.2769 127.104 103.062 127.214C100.854 125.893 99.0581 126.438 97.3296 126.371Z"
        fill="#392012" />
    <path
        d="M140.105 211.308C140.093 211.214 140.079 211.118 140.067 211.023L138.816 209.129C136.568 205.461 134.317 201.795 132.065 198.13C131.57 197.33 131.427 196.747 132.546 196.353C137.16 194.741 141.758 193.089 146.357 191.452L147.027 191.528C142.818 192.465 139.137 193.729 140.774 199.428C141.064 200.437 140.314 201.735 140.09 202.907C139.736 204.697 139.278 206.558 141.987 206.904L141.501 207.216C142.958 208.649 144.346 210.164 145.911 211.466C146.39 211.864 146.305 210.999 146.413 210.671L146.503 212.082C146.107 211.939 145.556 211.911 145.342 211.628C144.63 210.688 143.741 210.771 142.881 210.898C145.241 213.256 140.132 212.878 141.452 214.76L141.017 213.529C140.714 212.791 140.41 212.051 140.105 211.308Z"
        fill="#BC8463" />
    <path
        d="M149.512 170.387L149.922 169.726C149.659 169.659 149.375 169.487 149.137 169.537C145.231 170.388 141.172 170.538 137.441 172.178C135.844 172.879 134.401 172.54 133.476 171.067C132.453 169.454 134.247 169.03 134.98 168.542C141.407 164.282 140.387 156.879 142.583 150.846C142.759 150.36 142.819 149.831 142.934 149.323C143.034 149.323 143.134 149.323 143.234 149.316C142.601 153.408 141.866 157.49 141.36 161.599C140.626 167.579 141.813 171.222 149.082 169.025C149.693 168.84 150.45 168.594 150.671 169.407C150.916 170.281 150.209 170.418 149.512 170.387Z"
        fill="#AE795D" />
    <path
        d="M94.7762 299.159C88.6391 288.563 88.1222 277.182 90.0968 265.46C90.146 265.169 90.4893 264.928 90.6957 264.664C90.8995 265.036 91.1867 265.385 91.2933 265.783C92.6266 270.782 94.2648 275.667 96.655 280.278L97.3251 281.496L100.184 285.564C95.8811 284.314 94.7994 280.451 93.2788 276.974C92.4105 274.988 91.6981 272.935 90.8749 270.929C90.7723 270.678 90.4277 270.528 90.1912 270.331C90.0544 270.624 89.8151 270.907 89.7809 271.21C88.8716 280.235 89.9737 288.928 94.1567 297.101C94.4945 297.723 94.5779 298.469 94.7762 299.159Z"
        fill="#AE7D60" />
    <path
        d="M97.329 126.372C99.0575 126.439 100.853 125.893 103.072 127.222C99.2913 127.12 96.3513 127.996 93.544 129.574C88.8249 132.227 87.8322 136.138 89.2024 141.05C89.495 142.098 89.5989 143.199 89.789 144.277C89.1586 141.952 88.5296 139.627 87.8048 136.957C86.4374 140.842 86.5536 144.575 86.7724 148.341C87.3194 157.817 89.8806 166.835 92.915 175.75C89.5661 169.108 88.0688 161.939 87.0076 154.661C86.2227 149.273 85.6402 143.88 86.6958 138.442C87.8787 132.31 90.898 127.848 97.329 126.372Z"
        fill="#AE8D74" />
    <path
        d="M117.547 162.182C116.678 162.5 116.336 162.717 115.98 162.742C111.077 163.088 106.442 164.427 101.983 166.454C101.623 166.618 101.123 166.473 100.689 166.472C100.847 166.171 100.927 165.707 101.172 165.592C105.797 163.413 110.348 160.916 115.756 161.627C116.184 161.685 116.593 161.882 117.547 162.182Z"
        fill="#4E2D1B" />
    <path
        d="M107.045 172.682C110.956 171.951 114.378 170.047 117.923 168.457C118.196 168.334 118.582 168.457 118.916 168.457C118.793 168.773 118.762 169.226 118.53 169.384C115.075 171.755 111.328 173.168 107.045 172.682Z"
        fill="#5F3B25" />
    <path d="M96.8008 222.558L105.368 233.436C101.856 230.731 98.4608 227.935 96.8008 222.558Z" fill="#784D32" />
    <path
        d="M147.034 191.531L146.364 191.455C149.453 189.836 152.955 190.478 157.106 189.462H149.104L150.78 188.083L146.081 189.29C146.075 189.189 146.08 189.088 146.096 188.988C149.617 186.472 153.102 189.185 156.608 189.088C157.099 189.075 157.601 189.506 158.098 189.732C157.551 189.905 157.016 190.158 156.457 190.239C153.32 190.693 150.176 191.105 147.034 191.531Z"
        fill="#7A5540" />
    <path
        d="M108.7 291.948L107.863 291.301C108.149 291.122 108.418 290.822 108.722 290.781C111.962 290.334 115.205 289.918 118.45 289.531C118.68 289.503 118.944 289.761 119.192 289.887C118.883 290.118 118.599 290.505 118.261 290.557C115.133 291.046 111.998 291.477 108.7 291.948Z"
        fill="#936546" />
    <path
        d="M104.661 169.628L103.764 169.208C103.961 168.999 104.122 168.661 104.357 168.599C107.046 167.85 109.743 167.131 112.448 166.443C112.67 166.385 112.975 166.652 113.241 166.768C113.066 166.983 112.93 167.33 112.712 167.392C110.02 168.16 107.315 168.893 104.661 169.628Z"
        fill="#734B2F" />
    <path
        d="M155.225 177.861C151.272 179.335 148.258 180.459 145.243 181.568C145.158 181.599 145.002 181.439 144.879 181.368C145.031 181.129 145.131 180.821 145.344 180.661C147.986 178.729 150.963 177.891 155.225 177.861Z"
        fill="#7F5337" />
    <path
        d="M99.2815 214.101C100.384 215.594 101.524 217.053 102.563 218.582C103.075 219.337 104.721 220.086 103.931 220.77C103.11 221.485 102.33 219.865 101.694 219.167C100.686 218.062 99.8709 216.777 99.0313 215.528C98.8207 215.215 98.8166 214.757 98.7578 214.359C98.7565 214.318 99.0081 214.236 99.2815 214.101Z"
        fill="#895C40" />
    <path
        d="M142.493 200.482C144.724 201.152 146.964 201.797 149.177 202.524C149.459 202.616 149.636 203.134 149.768 203.489C149.796 203.57 149.357 203.972 149.256 203.93C146.915 202.985 144.589 201.999 142.262 201.02C142.342 200.841 142.419 200.668 142.493 200.482Z"
        fill="#815337" />
    <path
        d="M100.184 285.56L97.3242 281.492C97.7454 281.009 98.1816 283.463 98.5946 281.485C100.053 283.571 101.512 285.656 102.97 287.74L102.56 288.098L100.184 285.56Z"
        fill="#784E36" />
    <path
        d="M146.412 210.674C146.304 211.002 146.389 211.866 145.91 211.468C144.344 210.167 142.956 208.652 141.5 207.218L141.985 206.907L146.412 210.674Z"
        fill="#744A30" />
    <path
        d="M140.988 216.724C141.982 216.51 141.554 215.727 141.623 215.141C141.76 215.285 141.984 215.404 142.033 215.573C142.524 217.193 143.242 218.79 142.652 220.545L140.988 216.724Z"
        fill="#77513B" />
    <path
        d="M110.516 137.999L109.302 134.791L108.945 133.574C108.999 133.233 109.051 132.89 109.104 132.552L109.911 132.931L110.542 134.199C109.077 135.455 110.919 136.735 110.516 137.999Z"
        fill="#806956" />
    <path d="M143.233 149.316C143.133 149.322 143.033 149.325 142.934 149.323L145.132 140.504L143.233 149.316Z"
        fill="#72594A" />
    <path d="M98.5977 281.484C96.8105 279.055 96.5931 276.139 96.0625 273.319L98.5977 281.484Z" fill="#784E36" />
    <path d="M110.541 134.2C111.719 135.527 112.477 137.174 112.719 138.933L110.541 134.2Z" fill="#806956" />
    <path d="M142.297 172.909L145.739 171.623C144.769 172.531 143.601 172.909 142.297 172.909Z" fill="#B9805F" />
    <path d="M145.738 171.629L148.584 170.698C147.785 171.468 146.804 171.679 145.738 171.629Z" fill="#B9805F" />
    <path d="M145.133 140.501L145.692 139.641L146.689 140.832C146.194 140.612 145.788 139.972 145.133 140.501Z"
        fill="#72594A" />
    <path
        d="M139.445 213.852C140.185 214.41 140.735 215.072 140.676 216.074C140.265 215.333 139.855 214.592 139.445 213.852Z"
        fill="#77513B" />
    <path
        d="M109.656 130.089C105.68 124.073 99.2187 122.655 92.5921 126.334C89.0737 127.967 87.1703 130.922 85.9614 134.446C83.4522 140.805 83.9103 147.396 84.6255 153.955C84.8771 156.268 84.5899 156.923 82.1271 156.28C72.726 153.805 63.2716 151.528 53.8499 149.124C46.2552 147.187 44.4515 143.791 46.4507 135.651C50.1583 120.57 53.8381 105.482 57.49 90.3887C63.6098 65.0774 69.7081 39.7612 75.785 14.4399C76.3196 12.2109 76.7244 9.9492 77.1907 7.70387C80.251 1.87586 82.8478 0.694384 89.4621 2.22591C114.32 7.98009 139.178 13.7438 164.034 19.5171C168.898 20.6453 171.257 24.7736 169.988 30.0533C163.85 55.5869 157.702 81.1193 151.544 106.65C147.25 124.503 142.965 142.359 138.69 160.217C137.084 166.91 129.417 169.634 123.942 165.401C123.491 165.052 123.368 164.211 123.204 163.571C120.441 152.808 116.85 142.355 111.58 132.537C111.1 131.629 110.306 130.898 109.656 130.089Z"
        fill="#DAAC3C" />
    <path
        d="M134.099 178.219C133.415 182.084 133.16 186.109 131.159 189.561C130.225 191.171 130.082 192.751 131.251 193.615C131.944 194.128 133.966 193.514 134.961 192.804C136.939 191.39 139.31 191.463 141.388 190.562C141.388 190.679 141.397 190.797 141.403 190.914C138.19 192.256 134.976 193.577 131.77 194.951C130.843 195.349 130.417 194.998 130.12 194.172C129.083 191.286 127.989 188.419 127.003 185.516C126.007 182.581 128.048 180.866 129.738 179.019C130.056 178.672 130.231 178.199 130.471 177.776C130.038 177.876 129.492 177.842 129.187 178.096C125.914 180.831 125.457 178.446 125.107 175.878C124.824 173.806 124.697 171.707 124.286 169.662C123.812 167.277 125.13 167.646 126.44 168.164C131.485 170.162 133.462 174.481 131.684 179.468C130.741 182.112 129.976 187.05 130.18 189.607C132.815 186.087 131.973 181.625 134.099 178.219Z"
        fill="#AB795C" />
    <path
        d="M141.406 190.914C141.406 190.797 141.396 190.679 141.391 190.562C143.07 190.57 144.243 188.709 146.078 189.29L141.406 190.914Z"
        fill="#7A5540" />
    <path
        d="M109.911 132.931L109.104 132.552C109.051 132.893 108.999 133.236 108.945 133.574C108.915 133.01 108.75 131.997 108.878 131.959C109.587 131.75 109.773 132.366 109.911 132.931Z"
        fill="#392012" />
    <path
        d="M140.105 211.308C140.409 212.05 140.713 212.79 141.018 213.53C140.714 212.791 140.41 212.05 140.105 211.308Z"
        fill="#77513B" />
    <path
        d="M59.6028 181.798C62.5989 179.883 66.7873 179.699 68.3653 175.734C69.4306 170.912 72.9326 171.744 76.3156 172.316C76.7764 172.392 77.2263 172.548 77.683 172.589C81.181 172.942 82.0848 175.162 80.1444 178.171C77.8731 181.699 75.4186 185.036 72.1613 187.721C68.4693 189.258 64.728 189.526 61.2724 187.287C59.4032 186.074 57.5968 184.407 59.6028 181.798Z"
        fill="#D49D79" />
    <path
        d="M90.38 190.511C90.3294 190.522 90.2638 190.518 90.2296 190.548C87.3772 193.068 85.9974 192.912 86.7563 188.675C86.8151 188.345 86.4008 187.929 86.2094 187.555C86.0029 187.943 85.6897 188.311 85.6063 188.724C84.4618 194.374 84.0133 200.262 81.024 205.342C79.3831 208.132 76.6086 209.828 73.4238 210.685C78.1319 207.741 79.8686 203.22 80.2473 197.94C80.4552 195.046 77.1815 189.752 75.0019 189.611V189.295C77.922 187.869 80.4744 185.789 82.4612 183.217C88.0294 175.982 92.0907 178.1 93.5935 185.48C93.6742 187.89 91.6422 188.956 90.38 190.511Z"
        fill="#AE7A5D" />
    <path
        d="M74.999 189.611C77.1787 189.748 80.4524 195.046 80.2445 197.94C79.8657 203.22 78.1291 207.741 73.421 210.685C71.1689 210.95 68.929 211.095 66.7985 210.067C65.8523 209.431 64.4397 208.799 64.7378 207.588C65.1918 205.748 67.031 205.04 68.6418 204.337C73.3226 202.286 74.8404 195.294 71.1894 192.475L69.4555 191.455L74.999 189.611Z"
        fill="#D39E7B" />
    <path
        d="M89.7541 209.137C88.8434 206.591 91.3951 205.197 91.7793 203.066C91.927 202.231 92.3591 201.448 93.1932 199.226C90.6676 202.359 89.0909 204.33 87.4938 206.282C86.9905 206.896 86.7198 208.02 85.7065 207.771C84.6208 207.506 84.0041 206.196 84.2119 205.434C85.2101 201.773 84.7069 197.568 87.9915 194.686C89.4355 193.42 91.1366 192.871 92.9348 192.508C94.2954 192.234 95.1651 192.549 95.2526 194.285C95.5069 199.378 94.9463 204.404 94.3569 209.442C94.2708 210.182 93.65 211.419 93.2001 211.455C91.5906 211.583 90.725 210.186 89.7473 209.13C91.1886 208.985 91.9625 212.308 93.3108 210.336C94.32 208.862 94.0233 206.476 94.2339 204.488C94.2872 203.989 94.1135 203.411 93.3655 203.45C92.9703 203.47 92.5738 203.487 92.1786 203.506C92.7775 205.988 90.7031 207.32 89.7541 209.137ZM94.1942 201.656C93.8934 201.39 93.6322 201.122 93.6048 201.144C93.2979 201.393 93.017 201.672 92.7666 201.977C92.7351 202.014 93.0059 202.372 93.0209 202.364C93.3669 202.179 93.6978 201.966 94.1942 201.656Z"
        fill="#A6765B" />
    <path
        d="M72.1691 187.726C75.4263 185.04 77.8809 181.709 80.1522 178.176C82.0899 175.167 81.186 172.946 77.6908 172.594C77.2286 172.547 76.7787 172.391 76.3234 172.32C72.9404 171.754 69.4383 170.921 68.3731 175.739C68.3512 168.902 74.074 170.035 78.0436 168.859C80.0852 168.255 82.2827 168.211 84.3543 167.675C86.6174 167.088 87.0974 168.33 86.7556 169.989C86.2441 172.464 85.3881 174.868 84.6866 177.303C81.104 181.493 77.39 185.513 72.1691 187.726Z"
        fill="#B17D60" />
    <path
        d="M77.5137 213.194C76.3172 212.192 76.5756 211.489 77.8993 210.846C78.583 210.511 79.3447 210.068 79.7645 209.463C83.0573 204.712 84.0911 207.776 84.9717 210.967C85.9836 214.644 86.2024 218.351 84.7379 221.99C84.932 220.622 84.1909 219.99 83.0436 219.408C80.76 218.25 80.8557 220.796 79.7276 221.384C80.3306 220.118 80.7996 218.853 79.7276 217.589C79.5457 216.359 79.0917 215.265 78.1728 214.404L78.1865 214.419L77.5137 213.194Z"
        fill="#AE775B" />
    <path
        d="M70.9004 215.72L73.4233 214.151L76.217 213.878L77.2029 215.076V215.083L78.4541 217.599C78.6583 218.024 78.8616 218.449 79.064 218.873C79.3635 221.916 76.1992 222.103 74.9507 223.87L74.3094 224.4C72.7669 224.771 72.8996 223.191 72.1981 222.583L70.9182 218.23C70.9109 217.395 70.9049 216.559 70.9004 215.72Z"
        fill="#D7A380" />
    <path
        d="M71.6373 197.586C71.6154 200.353 67.2929 205.125 65.0736 205.124C64.2531 205.124 64.6879 204.369 64.7549 204.039C65.4387 200.716 66.1894 197.407 66.884 194.087C67.0358 193.362 67.431 193.112 68.0929 193.198C69.7187 193.41 70.9727 194.188 71.4814 195.796C71.7015 196.475 71.614 197.25 71.6373 197.586Z"
        fill="#D19E7B" />
    <path
        d="M79.7266 221.391C80.8616 220.803 80.759 218.256 83.0426 219.415C84.1927 219.997 84.9311 220.633 84.7369 221.996C83.0686 225.487 80.5867 227.83 76.4571 227.748C75.2264 227.723 74.1817 227.338 74.0723 225.842L79.7266 221.391Z"
        fill="#D19C7A" />
    <path
        d="M67.1122 214.499C67.021 214.273 66.9298 214.045 66.8387 213.815C66.5365 212.147 67.6851 212.897 68.3798 212.889C69.0539 213.901 70.9629 212.088 71.1926 214.12L71.2008 214.113C69.1319 214.678 69.7869 216.583 69.4136 218.163L68.4249 216.933L68.4331 216.942L67.1122 214.499Z"
        fill="#C09479" />
    <path
        d="M79.7258 221.391L74.0715 225.842C73.85 224.957 75.9107 225.092 74.9494 223.875C76.1978 222.108 79.3621 221.921 79.0626 218.879C79.8735 218.756 79.6219 218.085 79.7204 217.596C80.7979 218.855 80.3289 220.124 79.7258 221.391Z"
        fill="#4F3120" />
    <path
        d="M90.3809 190.511C91.643 188.956 93.6695 187.89 93.5957 185.48C94.0059 186.835 94.5269 188.17 94.7717 189.554C94.918 190.374 93.7912 190.458 93.5533 190.21C92.2953 188.908 91.4215 190.395 90.3809 190.511Z"
        fill="#644637" />
    <path
        d="M87.2891 174.55C88.0234 173.633 87.1373 172.1 88.4787 171.414C88.7372 172.234 89.0257 173.054 89.2445 173.89C89.4045 174.496 90.2482 175.268 89.079 175.674C88.1437 176.007 87.4655 175.602 87.2891 174.55Z"
        fill="#806153" />
    <path
        d="M75 189.611L69.4523 191.456L71.1862 192.476L67.4395 191.554C68.3214 190.213 69.8174 190.973 70.9729 190.534C72.2815 190.038 73.6517 189.702 74.9945 189.295L75 189.611Z"
        fill="#8B6B55" />
    <path
        d="M68.4243 216.941L69.413 218.171C69.7863 216.591 69.1313 214.686 71.2002 214.121L69.2202 216.964L70.8994 215.722C70.9049 216.56 70.9108 217.399 70.9172 218.238C68.8947 217.619 70.831 219.391 69.8752 219.574C69.3843 218.796 68.3655 218.218 68.4243 216.941Z"
        fill="#4F3120" />
    <path
        d="M66.7949 210.068C68.9254 211.096 71.1707 210.951 73.4174 210.686C71.1119 211.578 68.857 211.825 66.7949 210.068Z"
        fill="#AE7A5D" />
    <path
        d="M71.1917 214.125C70.962 212.095 69.0531 213.908 68.3789 212.895C69.7081 212.888 71.0358 212.87 72.365 212.885C72.525 212.885 72.6822 213.057 72.8422 213.15L71.1917 214.125Z"
        fill="#4F3120" />
    <path
        d="M68.3778 212.896C67.6831 212.904 66.5345 212.153 66.8367 213.822C66.2432 213.387 65.5034 212.695 66.1844 212.144C66.9105 211.56 67.8308 212.086 68.3778 212.896Z"
        fill="#4F3120" />
    <path d="M78.1699 214.417C79.0888 215.282 79.5374 216.375 79.7247 217.601L78.1699 214.417Z" fill="#4F3120" />
    <path
        d="M72.1973 222.588C72.8988 223.197 72.7661 224.776 74.3086 224.406C72.2055 225.433 72.4967 223.666 72.1973 222.588Z"
        fill="#4F3120" />
    <path d="M67.1129 214.499L68.4338 216.952C67.7392 216.271 66.9802 215.626 67.1129 214.499Z" fill="#4F3120" />
    <path d="M76.2155 213.881L73.4219 214.154C74.267 213.175 75.2132 213.282 76.2155 213.881Z" fill="#4F3120" />
    <path d="M78.4543 217.602L77.2031 215.085C78.2041 215.634 78.3586 216.602 78.4543 217.602Z" fill="#4F3120" />
    <path d="M77.2008 215.078L76.2148 213.88C77.0668 213.849 77.2309 214.385 77.2008 215.078Z" fill="#4F3120" />
    <path
        d="M79.0669 218.88C78.8627 218.456 78.6594 218.031 78.457 217.605C78.6612 218.031 78.8645 218.456 79.0669 218.88Z"
        fill="#4F3120" />
    <path
        d="M41.948 174.847C36.9951 174.734 34.1304 172.814 32.4812 165.43C28.9929 149.816 25.0697 134.301 21.3913 118.729C18.9436 108.373 16.6874 97.9739 14.2014 87.6252C11.9013 78.0094 9.41122 68.4373 7.01547 58.8434C5.25011 51.7751 3.30288 44.7451 1.811 37.618C0.60766 31.8748 3.56132 28.556 10.3698 26.885C23.3686 23.6934 36.3511 20.4047 49.3308 17.1639C57.2168 15.1948 65.0563 12.9727 73.0189 11.4111C76.0614 10.8135 74.0513 13.7644 73.8722 14.5562C70.913 27.6398 67.7488 40.6742 64.6228 53.7237C61.888 65.1418 59.1449 76.5589 56.3936 87.9752C52.908 102.359 49.2829 116.711 45.9573 131.13C45.0535 135.052 43.1103 138.856 44.3643 143.201C45.4582 146.979 47.7993 149.26 51.397 150.195C62.2462 153.016 73.1638 155.576 83.9789 158.516C86.5032 159.2 85.572 162.133 85.9836 164.089C86.3391 165.781 84.8322 165.283 83.9967 165.471C72.8056 167.984 61.6127 170.488 50.4179 172.982C47.2263 173.689 44.0361 174.388 41.948 174.847Z"
        fill="#B43A37" />
    <path
        d="M62.1156 176.703L65.582 171.727C66.4189 171.575 67.5594 171.013 68.027 171.36C68.8817 171.995 67.9833 173.011 67.6783 173.759C66.8756 175.729 66.0374 177.757 63.6977 178.449C62.8773 178.69 62.0568 178.882 61.2363 179.097C61.5299 178.299 61.823 177.5 62.1156 176.703Z"
        fill="#CD9E80" />
    <path
        d="M107.358 132.023C108.24 135.722 108.955 139.47 110.062 143.099C110.824 145.602 109.617 146.024 107.689 146.161C106.336 146.257 104.985 146.358 103.633 146.456C105.304 146.143 106.984 145.868 108.64 145.491C109.085 145.391 109.819 144.944 109.8 144.712C109.715 143.698 109.406 142.703 109.146 141.703C109.135 141.662 108.762 141.642 108.617 141.721C104.788 143.812 100.686 144.443 96.3567 144.349C94.6173 144.312 92.2544 144.383 92.9121 147.416C89.5386 142.473 89.0833 134.791 91.9822 131.886C96.5413 127.326 104.244 127.392 107.363 132.023H107.358Z"
        fill="#D59E7A" />
    <path
        d="M92.9115 147.426C92.2537 144.393 94.6167 144.322 96.3561 144.359C100.689 144.453 104.786 143.821 108.616 141.731C108.761 141.651 109.135 141.672 109.146 141.713C109.406 142.707 109.715 143.702 109.799 144.721C109.818 144.956 109.084 145.405 108.64 145.501C106.984 145.878 105.303 146.153 103.632 146.466C100.696 147.267 97.7454 148.018 94.83 148.89C93.3791 149.32 93.1152 148.483 92.9115 147.426Z"
        fill="#DBB398" />
    <path
        d="M89.7549 209.137C90.7039 207.32 92.7783 205.992 92.1793 203.504C92.5745 203.485 92.9711 203.469 93.3663 203.448C94.1143 203.41 94.2879 203.987 94.2346 204.486C94.024 206.474 94.3208 208.862 93.3116 210.335C91.9633 212.307 91.1893 208.984 89.748 209.129L89.7549 209.137Z"
        fill="#B08063" />
    <path
        d="M94.1938 201.656C93.6974 201.966 93.3734 202.179 93.0206 202.364C93.0055 202.372 92.7348 202.014 92.7662 201.977C93.0166 201.672 93.2975 201.393 93.6045 201.144C93.6318 201.122 93.893 201.39 94.1938 201.656Z"
        fill="#B08063" />
</svg>