<svg width="96" height="48" viewBox="0 0 96 48" fill="none" xmlns="http://www.w3.org/2000/svg">
<path d="M0 22.0952H8H44.1905V27.4286V37.3333C44.1905 43.2244 39.4149 48 33.5238 48H10.6667C4.77562 48 0 43.2244 0 37.3333V22.0952Z" fill="#E70027"/>
<path d="M51.8095 22.0952H44.1904V27.4286H51.8095V22.0952Z" fill="#E70027"/>
<path d="M24.7619 0L0 22.0952H8L28.1905 3.80952L24.7619 0Z" fill="#E70027"/>
<path d="M96 22.0952H88H51.8096V27.4286V37.3333C51.8096 43.2244 56.5852 48 62.4762 48H85.3334C91.2244 48 96 43.2244 96 37.3333V22.0952Z" fill="#E70027"/>
<path d="M44.1904 22.0952H51.8095V27.4286H44.1904V22.0952Z" fill="#E70027"/>
<path d="M71.2381 0L96 22.0952H88L67.8096 3.80952L71.2381 0Z" fill="#E70027"/>
<path d="M71.5672 32.7046L64 32.7118L72.6141 39.2879L73.9055 38.3014L68.6842 34.3129L71.0705 34.3058L71.5672 32.7046Z" fill="#31D06A"/>
<path d="M76.2474 32.7069L73.9031 25.1429L70.6162 35.7882L71.9076 36.775L73.9023 30.3215L74.6459 32.7054L76.2474 32.7069Z" fill="#31D06A"/>
<path d="M77.6926 37.3881L83.81 32.7061L73.1646 32.7092L72.6709 34.3055L79.125 34.3055L77.1989 35.7861L77.6926 37.3881Z" fill="#31D06A"/>
<path d="M73.9033 40.2786L80.029 44.9491L76.7368 34.3057L75.1406 34.3055L77.1346 40.7589L75.2001 39.2901L73.9033 40.2786Z" fill="#31D06A"/>
<path d="M70.1183 37.3839L67.7861 44.9525L76.3972 38.3714L75.9035 36.7749L70.6821 40.7633L71.4136 38.375L70.1183 37.3839Z" fill="#31D06A"/>
<path d="M19.7574 32.7046L12.1904 32.7118L20.8043 39.2879L22.096 38.3014L16.8747 34.3129L19.2611 34.3058L19.7574 32.7046Z" fill="#31D06A"/>
<path d="M24.4382 32.7069L22.0934 25.1429L18.8066 35.7882L20.0981 36.775L22.0926 30.3215L22.8364 32.7054L24.4382 32.7069Z" fill="#31D06A"/>
<path d="M25.8824 37.3881L32.0001 32.7061L21.355 32.7092L20.8613 34.3055L27.3153 34.3055L25.3888 35.7861L25.8824 37.3881Z" fill="#31D06A"/>
<path d="M22.0938 40.2786L28.2195 44.9491L24.9272 34.3057L23.3306 34.3055L25.325 40.7589L23.3904 39.2901L22.0938 40.2786Z" fill="#31D06A"/>
<path d="M18.3084 37.3839L15.9766 44.9525L24.587 38.3714L24.0939 36.7749L18.8724 40.7633L19.6034 38.375L18.3084 37.3839Z" fill="#31D06A"/>
</svg>
