<svg width="311" height="117" viewBox="0 0 311 117" fill="none" xmlns="http://www.w3.org/2000/svg">
<g clip-path="url(#clip0_1683:10088)">
<path d="M181.102 11.06L217.382 0L310.222 30.85L275.702 54.28L181.102 11.06Z" fill="white"/>
<path d="M310.222 30.8516L274.452 106.012H243.262L263.582 15.3516L310.222 30.8516Z" fill="white"/>
<g style="mix-blend-mode:multiply" opacity="0.3">
<path d="M256.79 45.6416L263.58 15.3516L235.02 35.6916L256.79 45.6416Z" fill="#676767"/>
</g>
<path d="M34.8301 83.6106L32.9401 91.3506C30.6401 100.681 24.3901 106.011 14.8601 106.011C5.3301 106.011 1.7101 100.681 4.0101 91.3506L11.4801 61.0406C13.7801 51.7206 20.0301 46.3906 29.5601 46.3906C39.0901 46.3906 42.7101 51.7206 40.4101 61.0406L39.0201 66.7106H29.8201L31.3601 60.4606C32.3601 56.3006 30.8401 54.7106 27.7501 54.7106C24.6601 54.7106 22.3301 56.3006 21.3101 60.4606L13.5501 91.9306C12.5501 96.1006 14.0901 97.6006 17.1801 97.6006C20.2701 97.6006 22.5801 96.1006 23.6001 91.9306L25.6601 83.6106H34.8301Z" fill="white"/>
<path d="M64.1905 105.341H54.4005L55.3305 94.7708H43.4205L39.1405 105.341H30.2305L54.4705 47.0508H68.6805L64.1905 105.341ZM46.6105 86.8508H55.9405L58.6105 57.3808H58.4405L46.6105 86.8508Z" fill="white"/>
<path d="M74.2886 47.0508H104.289L102.239 55.3808H92.0786L79.7686 105.381H70.0586L82.3786 55.3808H72.2286L74.2886 47.0508Z" fill="white"/>
<path d="M102.18 105.341H92.4805L106.84 47.0508H116.55L110.39 72.0508H121.39L127.55 47.0508H137.43L123.07 105.341H113.19L119.34 80.3408H108.34L102.18 105.341Z" fill="white"/>
<path d="M145.008 71.6208H158.328L156.268 79.9408H142.938L138.738 97.0108H155.498L153.498 105.341H126.988L141.358 47.0508H167.818L165.818 55.3808H149.008L145.008 71.6208Z" fill="white"/>
<path d="M171.6 47.0508H186.94C196.65 47.0508 200.16 52.1308 197.86 61.4608L190.59 90.9308C188.29 100.261 182.28 105.341 172.59 105.341H157.23L171.6 47.0508ZM179.25 55.3808L168.94 97.0108H174.41C177.5 97.0108 179.72 95.5108 180.75 91.3508L188.22 61.0408C189.22 56.8808 187.76 55.3808 184.67 55.3808H179.25Z" fill="white"/>
<path d="M205.36 47.0508H215.06L200.7 105.341H191L205.36 47.0508Z" fill="white"/>
<path d="M233.49 46.3906C242.92 46.3906 246.49 51.7206 244.16 61.0406L243.71 62.8706H234.54L235.13 60.4606C236.13 56.3006 234.78 54.7106 231.7 54.7106C228.62 54.7106 226.46 56.3006 225.43 60.4606C224.4 64.6206 225.55 67.8706 230.6 73.1206C237.05 79.8606 238.42 84.6906 236.78 91.3506C234.48 100.681 228.23 106.011 218.7 106.011C209.17 106.011 205.55 100.681 207.85 91.3506L208.73 87.7706H217.94L216.94 91.9306C215.94 96.1006 217.48 97.6006 220.57 97.6006C223.66 97.6006 225.97 96.1006 227 91.9306C228.03 87.7606 226.88 84.5206 221.82 79.2806C215.37 72.5306 214 67.7006 215.64 61.0406C217.88 51.7206 224.05 46.3906 233.49 46.3906Z" fill="white"/>
<path d="M3.94002 115.799C3.4664 115.987 2.95925 116.075 2.45002 116.059C2.12106 116.08 1.79137 116.03 1.48348 115.913C1.17558 115.795 0.896753 115.612 0.666039 115.376C0.435325 115.141 0.258166 114.858 0.146672 114.548C0.0351776 114.238 -0.00802293 113.907 0.0200202 113.579C0.0043624 113.025 0.117192 112.475 0.349671 111.972C0.58215 111.469 0.92796 111.026 1.36002 110.679C1.96931 110.209 2.72093 109.962 3.49002 109.979C3.91973 109.96 4.34694 110.053 4.73002 110.249L4.44002 111.069C4.10408 110.918 3.73805 110.846 3.37002 110.859C2.83592 110.877 2.32703 111.09 1.94002 111.459C1.66862 111.725 1.45556 112.045 1.31439 112.398C1.17322 112.751 1.10703 113.129 1.12002 113.509C1.08984 113.734 1.11004 113.962 1.17916 114.179C1.24827 114.395 1.36457 114.593 1.51963 114.758C1.67469 114.924 1.86463 115.053 2.0757 115.136C2.28677 115.219 2.51368 115.254 2.74002 115.239C3.13106 115.244 3.51906 115.169 3.88002 115.019L3.94002 115.799Z" fill="white"/>
<path d="M11.2401 112.461C11.27 113.493 10.9134 114.499 10.2401 115.281C9.9789 115.546 9.6674 115.756 9.32394 115.898C8.98048 116.041 8.61199 116.113 8.24013 116.111C7.91967 116.125 7.60005 116.069 7.30329 115.947C7.00653 115.825 6.73968 115.641 6.52109 115.406C6.30251 115.171 6.13738 114.892 6.03709 114.587C5.9368 114.283 5.90372 113.96 5.94013 113.641C5.90122 112.602 6.25868 111.587 6.94013 110.801C7.47505 110.279 8.19229 109.984 8.94013 109.981C9.2634 109.96 9.58728 110.011 9.88824 110.131C10.1892 110.251 10.4596 110.437 10.6799 110.674C10.9002 110.912 11.0648 111.195 11.1617 111.504C11.2586 111.814 11.2854 112.14 11.2401 112.461V112.461ZM7.74013 111.381C7.22449 112.013 6.94515 112.805 6.95013 113.621C6.95013 114.521 7.34013 115.251 8.30013 115.251C8.50982 115.25 8.71695 115.205 8.90814 115.119C9.09933 115.033 9.27034 114.907 9.41013 114.751C9.9229 114.114 10.1986 113.319 10.1901 112.501C10.1901 111.721 9.92013 110.881 8.87013 110.881C8.66069 110.879 8.45293 110.919 8.25894 110.998C8.06495 111.077 7.88859 111.193 7.74013 111.341V111.381Z" fill="white"/>
<path d="M14.9384 110.079L14.2984 113.509C14.2539 113.747 14.2304 113.987 14.2284 114.229C14.2136 114.36 14.2275 114.492 14.2693 114.617C14.311 114.741 14.3796 114.855 14.4702 114.951C14.5607 115.046 14.671 115.12 14.7934 115.168C14.9158 115.217 15.0472 115.237 15.1784 115.229C15.8784 115.229 16.3584 114.739 16.5784 113.539L17.2184 110.099H18.2184L17.5284 113.459C17.1984 115.239 16.3984 116.029 14.9984 116.029C14.754 116.055 14.507 116.025 14.2755 115.942C14.0441 115.86 13.8343 115.726 13.6615 115.551C13.4886 115.376 13.3573 115.165 13.2772 114.933C13.197 114.701 13.1701 114.453 13.1984 114.209C13.2012 113.934 13.228 113.66 13.2784 113.389L13.8984 110.039L14.9384 110.079Z" fill="white"/>
<path d="M20.61 110.17C21.0734 110.071 21.5463 110.024 22.02 110.03C22.5258 110.006 23.0261 110.143 23.45 110.42C23.6216 110.537 23.7611 110.696 23.8554 110.881C23.9498 111.066 23.9961 111.272 23.99 111.48C23.9869 111.868 23.8558 112.244 23.6171 112.549C23.3784 112.855 23.0455 113.073 22.67 113.17V113.17C23.04 113.32 23.21 113.73 23.26 114.29C23.2796 114.845 23.3465 115.397 23.46 115.94H22.46C22.3825 115.473 22.3324 115.002 22.31 114.53C22.31 113.78 22 113.53 21.48 113.53H20.94L20.5 115.96H19.5L20.61 110.17ZM21.11 112.76H21.67C21.8285 112.774 21.9882 112.755 22.1392 112.705C22.2902 112.655 22.4294 112.574 22.5483 112.468C22.6671 112.363 22.7632 112.234 22.8306 112.09C22.8979 111.945 22.9351 111.789 22.94 111.63C22.94 111.09 22.52 110.85 21.94 110.85C21.7651 110.84 21.5898 110.857 21.42 110.9L21.11 112.76Z" fill="white"/>
<path d="M25.7119 114.811C26.0965 115.058 26.545 115.186 27.0019 115.181C27.5519 115.181 28.0619 114.881 28.0619 114.311C28.0619 113.921 27.8119 113.661 27.2519 113.361C26.935 113.237 26.6588 113.027 26.454 112.755C26.2492 112.483 26.1239 112.16 26.0919 111.821C26.1016 111.56 26.1646 111.304 26.2769 111.067C26.3893 110.831 26.5486 110.621 26.7452 110.449C26.9419 110.276 27.1716 110.146 27.4203 110.066C27.6691 109.985 27.9316 109.957 28.1919 109.981C28.6376 109.966 29.0794 110.069 29.4719 110.281L29.1419 111.121C28.8357 110.952 28.4918 110.862 28.1419 110.861C27.5119 110.861 27.1419 111.241 27.1419 111.631C27.1419 112.021 27.4719 112.271 28.0019 112.631C28.3207 112.752 28.5964 112.965 28.794 113.243C28.9916 113.52 29.1023 113.85 29.1119 114.191C29.0955 114.458 29.026 114.718 28.9074 114.957C28.7888 115.197 28.6235 115.41 28.4212 115.584C28.219 115.758 27.9839 115.89 27.7298 115.972C27.4758 116.054 27.2078 116.084 26.9419 116.061C26.4047 116.088 25.8729 115.944 25.4219 115.651L25.7119 114.811Z" fill="white"/>
<path d="M34.5014 113.348H32.4414L32.1214 115.108H34.4314L34.2714 115.968H30.9414L32.0214 110.078H35.2014L35.0314 110.938H32.8814L32.6014 112.458H34.6614L34.5014 113.348Z" fill="white"/>
<path d="M36.6403 114.811C37.0211 115.058 37.4665 115.187 37.9203 115.181C38.4803 115.181 38.9803 114.881 38.9803 114.311C38.9803 113.921 38.7403 113.661 38.1803 113.361C37.8634 113.237 37.5873 113.027 37.3825 112.755C37.1777 112.483 37.0523 112.16 37.0203 111.821C37.03 111.56 37.093 111.304 37.2054 111.067C37.3177 110.831 37.4771 110.621 37.6737 110.449C37.8703 110.276 38.1 110.146 38.3488 110.066C38.5975 109.985 38.8601 109.957 39.1203 109.981C39.5629 109.966 40.0015 110.069 40.3903 110.281L40.0703 111.121C39.7631 110.955 39.4198 110.865 39.0703 110.861C38.4403 110.861 38.0703 111.241 38.0703 111.631C38.0703 112.021 38.3903 112.271 38.9303 112.631C39.2476 112.754 39.5219 112.968 39.7192 113.245C39.9165 113.522 40.0281 113.851 40.0403 114.191C40.0295 114.465 39.9627 114.733 39.8439 114.98C39.7251 115.227 39.5568 115.447 39.3496 115.626C39.1424 115.805 38.9007 115.939 38.6393 116.021C38.378 116.103 38.1026 116.13 37.8303 116.101C37.2965 116.126 36.7682 115.983 36.3203 115.691L36.6403 114.811Z" fill="white"/>
<path d="M45.8005 110.17C46.2639 110.072 46.7368 110.025 47.2105 110.03C47.7164 110.005 48.2172 110.142 48.6405 110.42C48.8146 110.536 48.9565 110.694 49.0527 110.879C49.149 111.064 49.1964 111.271 49.1905 111.48C49.1851 111.869 49.0519 112.245 48.8116 112.55C48.5712 112.856 48.237 113.074 47.8605 113.17V113.17C48.2405 113.32 48.4005 113.73 48.4505 114.29C48.4754 114.844 48.5423 115.396 48.6505 115.94H47.6505C47.5621 115.475 47.5087 115.004 47.4905 114.53C47.4905 113.78 47.1905 113.53 46.6605 113.53H46.1805L45.7305 115.96H44.7305L45.8005 110.17ZM46.3005 112.76H46.8605C47.0206 112.777 47.1824 112.76 47.3358 112.711C47.4891 112.663 47.6308 112.583 47.7519 112.477C47.873 112.37 47.9709 112.241 48.0394 112.095C48.108 111.949 48.1458 111.791 48.1505 111.63C48.1505 111.09 47.7405 110.85 47.1505 110.85C46.9723 110.84 46.7936 110.857 46.6205 110.9L46.3005 112.76Z" fill="white"/>
<path d="M52.1784 114.288L51.3984 115.968H50.3984L53.2684 110.078H54.4984L55.2284 115.968H54.2284L53.9384 114.288H52.1784ZM53.9384 113.458L53.7784 111.998C53.7784 111.678 53.7184 111.228 53.6884 110.878C53.5284 111.228 53.3784 111.638 53.2184 111.998L52.4984 113.458H53.9384Z" fill="white"/>
<path d="M58.2016 110.17C58.6546 110.07 59.1177 110.023 59.5816 110.03C60.1011 110.006 60.6142 110.153 61.0416 110.45C61.2175 110.588 61.3575 110.766 61.4498 110.97C61.5421 111.174 61.5838 111.397 61.5716 111.62C61.5742 111.925 61.5103 112.227 61.3842 112.505C61.2581 112.783 61.073 113.031 60.8416 113.23C60.3237 113.61 59.6939 113.807 59.0516 113.79C58.8706 113.786 58.6902 113.769 58.5116 113.74L58.1016 115.97H57.1016L58.2016 110.17ZM58.6616 112.9C58.8321 112.938 59.0068 112.955 59.1816 112.95C59.3562 112.965 59.532 112.944 59.6982 112.888C59.8644 112.833 60.0174 112.744 60.1477 112.626C60.278 112.509 60.3829 112.366 60.4558 112.207C60.5287 112.048 60.5681 111.875 60.5716 111.7C60.5716 111.08 60.1416 110.85 59.5716 110.85C59.3895 110.841 59.2073 110.862 59.0316 110.91L58.6616 112.9Z" fill="white"/>
<path d="M65.0414 110.078L63.9414 115.968H62.9414L64.0214 110.078H65.0414Z" fill="white"/>
<path d="M67.5014 110.16C68.0002 110.074 68.5053 110.031 69.0114 110.03C69.3909 110.004 69.7718 110.054 70.1322 110.176C70.4926 110.298 70.8253 110.489 71.1114 110.74C71.3355 110.966 71.5093 111.237 71.6213 111.536C71.7333 111.834 71.7811 112.152 71.7614 112.47C71.7752 112.983 71.6787 113.493 71.4786 113.966C71.2785 114.439 70.9794 114.863 70.6014 115.21C69.8408 115.797 68.8897 116.082 67.9314 116.01C67.4334 116.009 66.9359 115.979 66.4414 115.92L67.5014 110.16ZM67.5814 115.16C67.7911 115.176 68.0017 115.176 68.2114 115.16C68.5465 115.177 68.8813 115.12 69.1922 114.994C69.5032 114.868 69.7828 114.676 70.0114 114.43C70.4841 113.874 70.7273 113.159 70.6914 112.43C70.7169 112.203 70.6899 111.974 70.6125 111.759C70.5352 111.544 70.4095 111.35 70.2452 111.191C70.0809 111.033 69.8824 110.914 69.665 110.845C69.4477 110.775 69.2172 110.756 68.9914 110.79C68.7799 110.787 68.5686 110.807 68.3614 110.85L67.5814 115.16Z" fill="white"/>
<path d="M76.9402 113.348H74.8802L74.5602 115.108H76.8702L76.7102 115.968H73.4102L74.4902 110.078H77.6702L77.5002 110.938H75.3202L75.0402 112.488H77.1002L76.9402 113.348Z" fill="white"/>
<path d="M79.0209 114.811C79.4061 115.057 79.8542 115.185 80.3109 115.181C80.8709 115.181 81.3709 114.881 81.3709 114.311C81.3709 113.921 81.1309 113.661 80.5709 113.361C80.2541 113.237 79.9779 113.027 79.7731 112.755C79.5683 112.483 79.4429 112.16 79.4109 111.821C79.4207 111.56 79.4836 111.304 79.596 111.067C79.7083 110.831 79.8677 110.621 80.0643 110.449C80.2609 110.276 80.4906 110.146 80.7394 110.066C80.9882 109.985 81.2507 109.957 81.5109 109.981C81.9535 109.966 82.3922 110.069 82.7809 110.281L82.4609 111.121C82.1537 110.955 81.8104 110.865 81.4609 110.861C80.8309 110.861 80.4609 111.241 80.4609 111.631C80.4609 112.021 80.7809 112.271 81.3209 112.631C81.6382 112.754 81.9125 112.968 82.1098 113.245C82.3071 113.522 82.4187 113.851 82.4309 114.191C82.4202 114.465 82.3533 114.733 82.2345 114.98C82.1157 115.227 81.9475 115.447 81.7403 115.626C81.5331 115.805 81.2913 115.939 81.03 116.021C80.7686 116.103 80.4933 116.13 80.2209 116.101C79.6871 116.126 79.1589 115.983 78.7109 115.691L79.0209 114.811Z" fill="white"/>
<path d="M89.9389 112.641C89.9334 112.545 89.9475 112.449 89.9801 112.359C90.0127 112.269 90.0633 112.186 90.1287 112.116C90.1941 112.046 90.273 111.99 90.3607 111.951C90.4484 111.913 90.543 111.892 90.6389 111.891C90.7216 111.889 90.8037 111.905 90.88 111.937C90.9562 111.969 91.0248 112.017 91.0814 112.077C91.138 112.137 91.1813 112.209 91.2084 112.287C91.2355 112.365 91.2459 112.448 91.2389 112.531C91.2429 112.626 91.2275 112.722 91.1937 112.812C91.1598 112.901 91.1081 112.983 91.0418 113.052C90.9755 113.121 90.8958 113.176 90.8077 113.214C90.7195 113.252 90.6247 113.271 90.5289 113.271C90.4479 113.271 90.3678 113.254 90.2934 113.222C90.2191 113.19 90.1522 113.143 90.0969 113.084C90.0415 113.025 89.9989 112.955 89.9717 112.879C89.9446 112.803 89.9334 112.722 89.9389 112.641V112.641Z" fill="white"/>
<path d="M99.9414 110.078H100.941L100.011 115.078H102.261L102.101 115.968H98.9414L99.9414 110.078Z" fill="white"/>
<path d="M106.201 110.078L105.121 115.968H104.121L105.211 110.078H106.201Z" fill="white"/>
<path d="M108.788 115.968L108.078 110.078H109.078L109.408 113.318C109.478 113.928 109.508 114.408 109.538 114.908C109.744 114.353 109.978 113.809 110.238 113.278L111.768 110.078H112.938L109.938 115.968H108.788Z" fill="white"/>
<path d="M114.859 110.17C115.322 110.072 115.795 110.025 116.269 110.03C116.775 110.005 117.276 110.142 117.699 110.42C117.873 110.536 118.015 110.694 118.111 110.879C118.208 111.064 118.255 111.271 118.249 111.48C118.244 111.869 118.111 112.245 117.87 112.55C117.63 112.856 117.296 113.074 116.919 113.17V113.17C117.299 113.32 117.459 113.73 117.509 114.29C117.534 114.844 117.601 115.396 117.709 115.94H116.709C116.621 115.475 116.567 115.004 116.549 114.53C116.549 113.78 116.249 113.53 115.719 113.53H115.239L114.789 115.96H113.789L114.859 110.17ZM115.359 112.76H115.939C116.099 112.777 116.261 112.76 116.414 112.711C116.568 112.663 116.709 112.583 116.83 112.477C116.952 112.37 117.049 112.241 117.118 112.095C117.187 111.949 117.224 111.791 117.229 111.63C117.229 111.09 116.819 110.85 116.229 110.85C116.051 110.84 115.872 110.857 115.699 110.9L115.359 112.76Z" fill="white"/>
<path d="M121.24 114.288L120.46 115.968H119.41L122.28 110.078H123.52L124.24 115.968H123.24L123.08 114.288H121.24ZM122.94 113.458L122.78 111.998C122.78 111.678 122.72 111.228 122.7 110.878C122.55 111.228 122.39 111.638 122.23 111.998L121.54 113.458H122.94Z" fill="white"/>
<path d="M128.252 110.078L127.172 115.968H126.172L127.262 110.078H128.252Z" fill="white"/>
<path d="M129.82 114.811C130.205 115.058 130.653 115.186 131.11 115.181C131.66 115.181 132.17 114.881 132.17 114.311C132.17 113.921 131.92 113.661 131.36 113.361C131.043 113.237 130.767 113.027 130.562 112.755C130.357 112.483 130.232 112.16 130.2 111.821C130.21 111.56 130.273 111.304 130.385 111.067C130.497 110.831 130.657 110.621 130.853 110.449C131.05 110.276 131.28 110.146 131.528 110.066C131.777 109.985 132.04 109.957 132.3 109.981C132.746 109.966 133.188 110.069 133.58 110.281L133.25 111.121C132.943 110.953 132.6 110.864 132.25 110.861C131.62 110.861 131.25 111.241 131.25 111.631C131.25 112.021 131.58 112.271 132.11 112.631C132.429 112.752 132.704 112.965 132.902 113.243C133.1 113.52 133.21 113.85 133.22 114.191C133.209 114.464 133.143 114.732 133.024 114.978C132.906 115.224 132.739 115.443 132.533 115.622C132.327 115.801 132.086 115.935 131.826 116.018C131.566 116.1 131.292 116.129 131.02 116.101C130.483 116.128 129.951 115.984 129.5 115.691L129.82 114.811Z" fill="white"/>
<path d="M140.561 112.46C140.592 113.492 140.235 114.498 139.561 115.28C139.299 115.543 138.987 115.752 138.644 115.895C138.301 116.037 137.932 116.11 137.561 116.11C137.248 116.115 136.938 116.055 136.65 115.932C136.363 115.81 136.104 115.628 135.892 115.398C135.679 115.169 135.518 114.897 135.418 114.601C135.318 114.305 135.281 113.991 135.311 113.68C135.291 112.631 135.674 111.615 136.381 110.84C136.913 110.313 137.632 110.019 138.381 110.02C138.69 110.017 138.997 110.081 139.28 110.207C139.563 110.332 139.816 110.516 140.022 110.747C140.228 110.978 140.383 111.25 140.476 111.545C140.569 111.841 140.598 112.152 140.561 112.46V112.46ZM137.071 111.38C136.555 112.012 136.276 112.804 136.281 113.62C136.281 114.52 136.671 115.25 137.631 115.25C137.84 115.248 138.047 115.202 138.238 115.116C138.429 115.03 138.601 114.905 138.741 114.75C139.246 114.109 139.518 113.315 139.511 112.5C139.511 111.72 139.251 110.88 138.201 110.88C137.991 110.878 137.784 110.917 137.59 110.996C137.396 111.075 137.219 111.192 137.071 111.34V111.38Z" fill="white"/>
<path d="M142.16 115.97L143.24 110.08H144.38L145.38 112.82C145.589 113.423 145.762 114.037 145.9 114.66V114.66C145.944 113.989 146.03 113.321 146.16 112.66L146.63 110.07H147.57L146.48 115.96H145.48L144.48 113.17C144.26 112.549 144.08 111.914 143.94 111.27V111.27C143.88 111.83 143.76 112.56 143.61 113.43L143.14 115.95L142.16 115.97Z" fill="white"/>
<path d="M155.32 113.348H153.32L152.99 115.108H155.3L155.14 115.968H151.84L152.93 110.078H156.1L155.94 110.938H153.76L153.47 112.488H155.53L155.32 113.348Z" fill="white"/>
<path d="M160.211 115.97L159.761 114.66C159.631 114.29 159.531 113.98 159.421 113.66C159.231 113.96 159.051 114.27 158.801 114.66L157.961 115.95H156.781L158.961 112.95L157.961 110.07H158.941L159.371 111.37C159.481 111.73 159.571 111.99 159.651 112.31C159.851 111.96 160.021 111.67 160.211 111.31L161.071 110.02H162.251L160.111 112.91L161.231 115.91L160.211 115.97Z" fill="white"/>
<path d="M164.27 110.17C164.723 110.07 165.186 110.023 165.65 110.03C166.169 110.005 166.683 110.152 167.11 110.45C167.286 110.588 167.426 110.767 167.518 110.97C167.61 111.174 167.652 111.397 167.64 111.62C167.642 111.925 167.578 112.228 167.452 112.506C167.326 112.784 167.141 113.031 166.91 113.23C166.393 113.612 165.762 113.809 165.12 113.79C164.939 113.786 164.758 113.769 164.58 113.74L164.18 115.97H163.18L164.27 110.17ZM164.74 112.9C164.907 112.939 165.078 112.955 165.25 112.95C165.425 112.965 165.601 112.944 165.768 112.889C165.935 112.833 166.088 112.744 166.219 112.627C166.35 112.51 166.456 112.368 166.53 112.208C166.604 112.049 166.645 111.876 166.65 111.7C166.65 111.08 166.21 110.85 165.65 110.85C165.468 110.842 165.286 110.863 165.11 110.91L164.74 112.9Z" fill="white"/>
<path d="M170.121 110.172C170.585 110.073 171.058 110.026 171.531 110.032C172.034 110.026 172.527 110.176 172.941 110.462C173.113 110.579 173.252 110.737 173.347 110.923C173.441 111.108 173.487 111.314 173.481 111.522C173.476 111.909 173.345 112.284 173.106 112.589C172.868 112.895 172.536 113.113 172.161 113.212V113.212C172.531 113.362 172.691 113.772 172.741 114.332C172.763 114.887 172.833 115.439 172.951 115.982H171.951C171.874 115.515 171.82 115.044 171.791 114.572C171.791 113.822 171.491 113.572 170.961 113.572H170.481L170.031 116.002H169.031L170.121 110.172ZM170.621 112.762H171.181C171.341 112.778 171.503 112.762 171.657 112.713C171.81 112.664 171.952 112.584 172.073 112.478C172.194 112.372 172.292 112.242 172.36 112.096C172.429 111.951 172.467 111.793 172.471 111.632C172.471 111.092 172.061 110.852 171.471 110.852C171.293 110.841 171.114 110.858 170.941 110.902L170.621 112.762Z" fill="white"/>
<path d="M178.57 113.348H176.57L176.25 115.108H178.56L178.39 115.968H175.09L176.18 110.078H179.35L179.19 110.938H176.94L176.65 112.488H178.71L178.57 113.348Z" fill="white"/>
<path d="M180.712 114.808C181.097 115.055 181.545 115.184 182.002 115.178C182.552 115.178 183.062 114.878 183.062 114.308C183.062 113.918 182.822 113.658 182.262 113.358C181.943 113.236 181.664 113.028 181.457 112.755C181.25 112.483 181.124 112.159 181.092 111.818C181.101 111.556 181.165 111.299 181.278 111.062C181.391 110.825 181.551 110.614 181.749 110.442C181.946 110.269 182.177 110.139 182.427 110.059C182.677 109.98 182.941 109.952 183.202 109.978C183.644 109.964 184.083 110.068 184.472 110.278L184.152 111.118C183.844 110.952 183.501 110.863 183.152 110.858C182.532 110.858 182.152 111.238 182.152 111.628C182.152 112.018 182.472 112.268 183.012 112.628C183.329 112.751 183.603 112.965 183.801 113.242C183.998 113.519 184.11 113.848 184.122 114.188C184.106 114.456 184.036 114.717 183.917 114.957C183.797 115.197 183.631 115.41 183.428 115.585C183.224 115.759 182.988 115.891 182.733 115.972C182.478 116.054 182.209 116.083 181.942 116.058C181.405 116.081 180.874 115.938 180.422 115.648L180.712 114.808Z" fill="white"/>
<path d="M186.148 114.808C186.533 115.055 186.981 115.184 187.438 115.178C187.988 115.178 188.498 114.878 188.498 114.308C188.498 113.918 188.248 113.658 187.688 113.358C187.371 113.234 187.095 113.024 186.89 112.752C186.685 112.481 186.56 112.157 186.528 111.818C186.538 111.556 186.601 111.299 186.714 111.062C186.827 110.825 186.987 110.614 187.185 110.442C187.383 110.269 187.614 110.139 187.864 110.059C188.113 109.98 188.377 109.952 188.638 109.978C189.081 109.964 189.519 110.068 189.908 110.278L189.588 111.118C189.281 110.952 188.938 110.863 188.588 110.858C187.958 110.858 187.588 111.238 187.588 111.628C187.588 112.018 187.908 112.268 188.438 112.628C188.757 112.749 189.033 112.962 189.23 113.24C189.428 113.517 189.539 113.848 189.548 114.188C189.537 114.461 189.471 114.729 189.352 114.975C189.234 115.221 189.067 115.44 188.861 115.619C188.655 115.798 188.414 115.932 188.154 116.015C187.894 116.097 187.62 116.126 187.348 116.098C186.811 116.123 186.28 115.979 185.828 115.688L186.148 114.808Z" fill="white"/>
<path d="M199.862 112.641C199.856 112.546 199.87 112.451 199.902 112.361C199.934 112.272 199.984 112.19 200.048 112.12C200.112 112.05 200.19 111.994 200.276 111.954C200.363 111.915 200.457 111.893 200.552 111.891C200.634 111.889 200.716 111.905 200.793 111.937C200.869 111.969 200.938 112.017 200.994 112.077C201.051 112.137 201.094 112.209 201.121 112.287C201.148 112.365 201.159 112.448 201.152 112.531C201.157 112.626 201.143 112.721 201.11 112.811C201.077 112.901 201.027 112.982 200.961 113.052C200.896 113.121 200.817 113.176 200.729 113.214C200.641 113.252 200.547 113.271 200.452 113.271C200.37 113.272 200.289 113.257 200.214 113.225C200.139 113.194 200.072 113.147 200.016 113.087C199.96 113.028 199.918 112.957 199.891 112.88C199.865 112.804 199.855 112.722 199.862 112.641Z" fill="white"/>
<path d="M212.989 115.799C212.516 115.987 212.008 116.075 211.499 116.059C211.169 116.082 210.839 116.033 210.529 115.916C210.22 115.799 209.94 115.616 209.708 115.381C209.477 115.145 209.299 114.862 209.186 114.551C209.074 114.24 209.031 113.908 209.059 113.579C209.043 113.024 209.157 112.473 209.391 111.969C209.626 111.466 209.974 111.024 210.409 110.679C211.015 110.211 211.763 109.964 212.529 109.979C212.962 109.96 213.393 110.053 213.779 110.249L213.489 111.069C213.153 110.918 212.787 110.846 212.419 110.859C211.868 110.865 211.339 111.079 210.939 111.459C210.666 111.725 210.452 112.044 210.309 112.397C210.166 112.75 210.098 113.129 210.109 113.509C210.079 113.734 210.099 113.963 210.168 114.179C210.237 114.395 210.354 114.593 210.509 114.758C210.664 114.924 210.854 115.053 211.065 115.136C211.276 115.219 211.503 115.254 211.729 115.239C212.123 115.244 212.515 115.17 212.879 115.019L212.989 115.799Z" fill="white"/>
<path d="M220.311 112.46C220.341 113.491 219.984 114.497 219.311 115.28C219.049 115.543 218.737 115.752 218.394 115.895C218.051 116.037 217.682 116.11 217.311 116.11C216.998 116.115 216.688 116.055 216.4 115.932C216.113 115.81 215.854 115.628 215.642 115.398C215.429 115.169 215.268 114.897 215.168 114.601C215.068 114.305 215.031 113.991 215.061 113.68C215.041 112.631 215.424 111.615 216.131 110.84C216.666 110.317 217.383 110.023 218.131 110.02C218.44 110.017 218.747 110.081 219.03 110.207C219.313 110.332 219.566 110.516 219.772 110.747C219.978 110.978 220.133 111.25 220.226 111.545C220.319 111.841 220.348 112.152 220.311 112.46V112.46ZM216.811 111.38C216.295 112.012 216.016 112.804 216.021 113.62C216.021 114.52 216.411 115.25 217.371 115.25C217.58 115.248 217.788 115.203 217.979 115.117C218.17 115.031 218.341 114.906 218.481 114.75C218.986 114.109 219.258 113.315 219.251 112.5C219.251 111.72 218.991 110.88 217.941 110.88C217.731 110.878 217.524 110.917 217.33 110.996C217.136 111.075 216.959 111.192 216.811 111.34V111.38Z" fill="white"/>
<path d="M223.941 110.078L223.301 113.508C223.256 113.746 223.233 113.987 223.231 114.228C223.214 114.358 223.227 114.49 223.267 114.615C223.308 114.74 223.376 114.854 223.465 114.95C223.555 115.045 223.665 115.12 223.787 115.168C223.909 115.216 224.04 115.237 224.171 115.228C224.881 115.228 225.361 114.738 225.581 113.538L226.221 110.098H227.221L226.581 113.518C226.251 115.298 225.461 116.088 224.061 116.088C223.816 116.114 223.569 116.084 223.338 116.001C223.107 115.919 222.897 115.785 222.724 115.61C222.551 115.436 222.42 115.224 222.34 114.992C222.26 114.76 222.233 114.512 222.261 114.268C222.264 113.993 222.29 113.719 222.341 113.448L222.951 110.098L223.941 110.078Z" fill="white"/>
<path d="M229.679 110.17C230.139 110.072 230.609 110.025 231.079 110.03C231.588 110.005 232.092 110.142 232.519 110.42C232.691 110.537 232.83 110.696 232.925 110.881C233.019 111.066 233.065 111.272 233.059 111.48C233.056 111.868 232.925 112.244 232.686 112.549C232.448 112.855 232.115 113.073 231.739 113.17V113.17C232.109 113.32 232.269 113.73 232.329 114.29C232.344 114.845 232.411 115.398 232.529 115.94H231.529C231.452 115.474 231.402 115.003 231.379 114.53C231.379 113.78 231.069 113.53 230.549 113.53H230.059L229.609 115.96H228.609L229.679 110.17ZM230.179 112.76H230.739C230.899 112.777 231.061 112.76 231.215 112.711C231.368 112.663 231.51 112.583 231.631 112.477C231.752 112.37 231.85 112.241 231.918 112.095C231.987 111.949 232.025 111.791 232.029 111.63C232.029 111.09 231.609 110.85 231.029 110.85C230.851 110.84 230.672 110.857 230.499 110.9L230.179 112.76Z" fill="white"/>
<path d="M234.781 114.811C235.166 115.058 235.614 115.186 236.071 115.181C236.621 115.181 237.131 114.881 237.131 114.311C237.131 113.921 236.881 113.661 236.321 113.361C236.004 113.237 235.728 113.027 235.523 112.755C235.318 112.483 235.193 112.16 235.161 111.821C235.171 111.56 235.234 111.304 235.346 111.067C235.458 110.831 235.618 110.621 235.814 110.449C236.011 110.276 236.241 110.146 236.489 110.066C236.738 109.985 237.001 109.957 237.261 109.981C237.704 109.966 238.142 110.069 238.531 110.281L238.211 111.121C237.904 110.953 237.561 110.864 237.211 110.861C236.581 110.861 236.211 111.241 236.211 111.631C236.211 112.021 236.541 112.271 237.071 112.631C237.39 112.752 237.665 112.965 237.863 113.243C238.061 113.52 238.171 113.85 238.181 114.191C238.17 114.464 238.103 114.732 237.985 114.978C237.867 115.224 237.7 115.443 237.494 115.622C237.288 115.801 237.047 115.935 236.787 116.018C236.527 116.1 236.252 116.129 235.981 116.101C235.444 116.128 234.912 115.984 234.461 115.691L234.781 114.811Z" fill="white"/>
<path d="M242.102 110.078L241.012 115.968H240.012L241.102 110.078H242.102Z" fill="white"/>
<path d="M247.01 113.348H244.94L244.62 115.108H246.94L246.78 115.968H243.48L244.56 110.078H247.74L247.57 110.938H245.39L245.1 112.488H247.17L247.01 113.348Z" fill="white"/>
<path d="M250.051 110.17C250.515 110.072 250.988 110.025 251.461 110.03C251.989 110.006 252.509 110.157 252.941 110.46C253.115 110.575 253.257 110.733 253.354 110.919C253.45 111.104 253.497 111.311 253.491 111.52C253.486 111.908 253.353 112.285 253.112 112.59C252.872 112.895 252.538 113.113 252.161 113.21C252.541 113.36 252.701 113.77 252.751 114.33C252.776 114.884 252.843 115.436 252.951 115.98H251.951C251.863 115.514 251.809 115.043 251.791 114.57C251.791 113.82 251.491 113.57 250.961 113.57H250.481L250.031 116H249.031L250.051 110.17ZM250.551 112.76H251.111C251.271 112.776 251.433 112.76 251.587 112.711C251.74 112.662 251.882 112.582 252.003 112.476C252.124 112.37 252.222 112.24 252.29 112.095C252.359 111.949 252.397 111.791 252.401 111.63C252.401 111.09 251.991 110.85 251.401 110.85C251.223 110.84 251.044 110.857 250.871 110.9L250.551 112.76Z" fill="white"/>
<path d="M258.939 110.078H259.939L259.019 115.078H261.259L261.099 115.968H257.859L258.939 110.078Z" fill="white"/>
<path d="M264.129 110.078H265.129L264.209 115.078H266.459L266.299 115.968H263.059L264.129 110.078Z" fill="white"/>
<path d="M269.361 110.16C269.86 110.074 270.365 110.031 270.871 110.03C271.25 110.004 271.631 110.054 271.992 110.176C272.352 110.298 272.685 110.489 272.971 110.74C273.195 110.966 273.369 111.237 273.481 111.536C273.593 111.834 273.64 112.152 273.621 112.47C273.635 112.983 273.538 113.493 273.338 113.966C273.138 114.439 272.839 114.863 272.461 115.21C271.7 115.797 270.749 116.082 269.791 116.01C269.293 116.009 268.795 115.979 268.301 115.92L269.361 110.16ZM269.441 115.16C269.651 115.176 269.861 115.176 270.071 115.16C270.407 115.176 270.743 115.119 271.056 114.993C271.368 114.867 271.649 114.675 271.881 114.43C272.346 113.871 272.585 113.157 272.551 112.43C272.576 112.204 272.549 111.976 272.472 111.762C272.395 111.548 272.271 111.354 272.108 111.196C271.944 111.038 271.747 110.919 271.531 110.848C271.315 110.778 271.086 110.758 270.861 110.79C270.646 110.787 270.431 110.807 270.221 110.85L269.441 115.16Z" fill="white"/>
</g>
<defs>
<clipPath id="clip0_1683:10088">
<rect width="310.22" height="116.07" fill="white"/>
</clipPath>
</defs>
</svg>
