<svg width="180" height="180" viewBox="0 0 180 180" fill="none" xmlns="http://www.w3.org/2000/svg">
<path d="M180 89.5C180 138.929 139.929 179 90.5 179C41.0705 179 1 138.929 1 89.5C1 40.0705 41.0705 0 90.5 0C139.929 0 180 40.0705 180 89.5ZM35.702 89.5C35.702 119.764 60.2359 144.298 90.5 144.298C120.764 144.298 145.298 119.764 145.298 89.5C145.298 59.2359 120.764 34.702 90.5 34.702C60.2359 34.702 35.702 59.2359 35.702 89.5Z" fill="#FA8480"/>
<path d="M158.815 101.558L166.611 102.355L160.564 97.818L160.666 96.8438L167.419 93.6439L159.726 92.8402L159.943 90.7574L171.701 91.9857L171.513 93.783L163.232 97.6383L170.546 103.038L170.359 104.835L158.599 103.624L158.815 101.558Z" fill="white"/>
<path d="M165.687 111.815C165.315 113.091 164.724 113.974 163.912 114.464C163.108 114.969 162.09 115.042 160.858 114.682L155.783 113.203L156.341 111.29L157.395 111.597C157.089 111.239 156.901 110.797 156.831 110.272C156.769 109.761 156.832 109.182 157.021 108.533C157.21 107.885 157.484 107.349 157.842 106.925C158.21 106.505 158.629 106.217 159.097 106.06C159.572 105.917 160.059 105.918 160.556 106.063C161.334 106.29 161.872 106.757 162.17 107.466C162.475 108.188 162.447 109.171 162.085 110.414L161.433 112.651L161.562 112.689C162.168 112.865 162.686 112.817 163.117 112.544C163.546 112.282 163.864 111.794 164.072 111.081C164.213 110.594 164.278 110.091 164.265 109.571C164.249 109.063 164.154 108.607 163.978 108.204L165.685 107.839C165.898 108.394 166.004 109.017 166.002 109.708C166 110.399 165.895 111.102 165.687 111.815ZM158.374 109.385C158.226 109.893 158.209 110.375 158.322 110.83C158.443 111.299 158.697 111.678 159.082 111.966L160.087 112.259L160.696 110.167C161.037 109 160.823 108.304 160.056 108.081C159.688 107.974 159.354 108.034 159.053 108.263C158.751 108.492 158.525 108.866 158.374 109.385Z" fill="white"/>
<path d="M162.9 128.151L151.51 122.928L152.355 121.086L153.414 121.571C153.17 121.076 153.059 120.548 153.081 119.988C153.098 119.438 153.235 118.882 153.493 118.319C153.855 117.531 154.355 116.9 154.994 116.425C155.628 115.96 156.344 115.694 157.143 115.627C157.952 115.564 158.771 115.723 159.6 116.103C160.429 116.484 161.079 116.998 161.549 117.647C162.019 118.297 162.285 119.013 162.347 119.797C162.404 120.591 162.252 121.382 161.89 122.17C161.641 122.712 161.322 123.167 160.931 123.532C160.54 123.898 160.088 124.155 159.574 124.304L163.78 126.232L162.9 128.151ZM155.03 119.303C154.819 119.763 154.731 120.225 154.767 120.687C154.813 121.154 154.981 121.584 155.271 121.977C155.562 122.371 155.963 122.685 156.474 122.919C156.986 123.154 157.486 123.253 157.973 123.216C158.461 123.18 158.891 123.024 159.265 122.75C159.649 122.48 159.946 122.115 160.157 121.654C160.369 121.194 160.451 120.73 160.405 120.263C160.369 119.801 160.206 119.373 159.916 118.979C159.626 118.586 159.225 118.272 158.713 118.038C158.201 117.803 157.702 117.704 157.214 117.74C156.727 117.777 156.291 117.93 155.907 118.2C155.534 118.475 155.241 118.842 155.03 119.303Z" fill="white"/>
<path d="M149.572 134.257C149.449 134.177 149.281 134.054 149.067 133.887L152.931 127.959C152.307 127.7 151.688 127.68 151.075 127.899C150.466 128.133 149.949 128.576 149.525 129.227C148.984 130.057 148.811 130.919 149.008 131.813L147.301 132.051C147.116 131.447 147.09 130.818 147.22 130.164C147.351 129.51 147.628 128.857 148.053 128.207C148.594 127.377 149.235 126.753 149.977 126.336C150.719 125.92 151.496 125.727 152.309 125.76C153.124 125.807 153.905 126.074 154.65 126.56C155.385 127.039 155.938 127.635 156.308 128.346C156.68 129.073 156.838 129.841 156.781 130.651C156.724 131.46 156.452 132.237 155.967 132.982C155.487 133.718 154.895 134.266 154.19 134.626C153.488 135.002 152.735 135.156 151.932 135.09C151.132 135.039 150.345 134.761 149.572 134.257ZM154.552 132.06C154.921 131.494 155.065 130.903 154.983 130.285C154.905 129.683 154.616 129.158 154.114 128.711L151.32 132.998C151.916 133.279 152.51 133.337 153.102 133.171C153.694 133.006 154.177 132.635 154.552 132.06Z" fill="white"/>
<path d="M145.485 145.823C144.866 146.446 144.179 146.866 143.423 147.084C142.66 147.31 141.891 147.317 141.118 147.104C140.345 146.892 139.635 146.465 138.988 145.822C138.341 145.18 137.904 144.469 137.679 143.69C137.461 142.918 137.462 142.15 137.682 141.385C137.895 140.628 138.31 139.938 138.929 139.314C139.365 138.875 139.841 138.547 140.358 138.33C140.867 138.121 141.396 138.043 141.946 138.097L141.119 137.276L142.534 135.85L151.427 144.679L149.94 146.177L146.668 142.928C146.694 143.462 146.608 143.972 146.411 144.458C146.206 144.952 145.897 145.407 145.485 145.823ZM140.378 140.42C139.83 140.971 139.566 141.605 139.584 142.321C139.595 143.046 139.9 143.705 140.499 144.3C141.098 144.895 141.76 145.195 142.485 145.201C143.201 145.214 143.833 144.945 144.381 144.394C144.738 144.034 144.975 143.627 145.093 143.173C145.219 142.727 145.213 142.269 145.076 141.8C144.939 141.331 144.67 140.898 144.271 140.501C143.871 140.104 143.437 139.839 142.966 139.706C142.496 139.572 142.034 139.566 141.581 139.687C141.136 139.816 140.735 140.06 140.378 140.42Z" fill="white"/>
<path d="M133.421 155.719L130.877 145.408C130.597 144.39 130.561 143.554 130.77 142.899C130.973 142.236 131.392 141.662 132.028 141.178C132.386 140.905 132.784 140.694 133.222 140.544C133.66 140.395 134.07 140.337 134.451 140.373L134.72 142.121C134.443 142.091 134.163 142.114 133.88 142.188C133.587 142.269 133.329 142.394 133.105 142.565C132.81 142.79 132.626 143.05 132.554 143.346C132.473 143.648 132.488 144.04 132.599 144.521L132.693 144.895L141.308 149.713L139.561 151.043L133.263 147.455L135.033 154.491L133.421 155.719Z" fill="white"/>
<path d="M125.159 160.39C123.968 160.979 122.918 161.141 122.007 160.876C121.092 160.625 120.349 159.925 119.78 158.775L117.435 154.038L119.221 153.153L119.708 154.137C119.765 153.669 119.963 153.232 120.302 152.825C120.636 152.434 121.105 152.088 121.711 151.789C122.316 151.489 122.896 151.328 123.45 151.305C124.009 151.292 124.504 151.405 124.936 151.643C125.363 151.896 125.692 152.255 125.922 152.719C126.281 153.446 126.301 154.158 125.981 154.857C125.656 155.571 124.913 156.215 123.753 156.789L121.664 157.823L121.724 157.944C122.004 158.509 122.39 158.858 122.883 158.991C123.366 159.129 123.94 159.033 124.606 158.703C125.06 158.479 125.475 158.186 125.849 157.825C126.212 157.469 126.483 157.089 126.661 156.687L128.085 157.697C127.821 158.23 127.434 158.73 126.923 159.196C126.413 159.662 125.825 160.06 125.159 160.39ZM121.999 153.361C121.525 153.596 121.159 153.909 120.9 154.301C120.637 154.707 120.529 155.15 120.578 155.629L121.042 156.567L122.995 155.6C124.085 155.061 124.452 154.433 124.097 153.717C123.928 153.373 123.657 153.168 123.284 153.102C122.912 153.035 122.484 153.121 121.999 153.361Z" fill="white"/>
<path d="M113.766 164.995C112.685 165.35 111.715 165.319 110.856 164.903C109.996 164.486 109.362 163.657 108.954 162.417L107.34 157.507L109.346 156.848L110.875 161.501C111.121 162.25 111.482 162.753 111.958 163.011C112.438 163.28 113.004 163.308 113.656 163.093C114.394 162.851 114.903 162.434 115.183 161.845C115.467 161.265 115.472 160.559 115.198 159.724L113.774 155.393L115.779 154.733L118.595 163.301L116.686 163.928L116.322 162.821C116.121 163.326 115.802 163.763 115.366 164.131C114.93 164.5 114.397 164.787 113.766 164.995Z" fill="white"/>
<path d="M98.9762 171.668L96.959 159.3L98.9591 158.974L99.1467 160.124C99.4223 159.646 99.7985 159.259 100.275 158.965C100.741 158.672 101.279 158.476 101.89 158.376C102.746 158.237 103.549 158.299 104.3 158.565C105.039 158.832 105.659 159.278 106.161 159.904C106.664 160.541 106.989 161.309 107.136 162.209C107.282 163.109 107.218 163.935 106.941 164.688C106.664 165.44 106.218 166.06 105.602 166.549C104.975 167.039 104.233 167.354 103.377 167.493C102.788 167.589 102.233 167.577 101.712 167.457C101.19 167.337 100.725 167.105 100.315 166.761L101.06 171.328L98.9762 171.668ZM101.931 160.2C101.431 160.282 100.999 160.466 100.635 160.754C100.273 161.052 100.01 161.432 99.8458 161.892C99.6813 162.353 99.6444 162.861 99.735 163.416C99.8256 163.972 100.022 164.442 100.324 164.826C100.627 165.21 100.996 165.481 101.432 165.638C101.87 165.806 102.339 165.849 102.839 165.767C103.339 165.686 103.77 165.496 104.132 165.197C104.496 164.91 104.76 164.536 104.925 164.075C105.089 163.615 105.126 163.107 105.035 162.552C104.945 161.996 104.748 161.526 104.446 161.142C104.144 160.758 103.774 160.482 103.336 160.313C102.899 160.156 102.431 160.119 101.931 160.2Z" fill="white"/>
<path d="M86.5299 170.381C87.4193 170.395 87.8714 169.917 87.8864 168.949L87.8947 168.409L85.4124 168.371L85.4385 166.682L87.8532 166.719L87.9654 159.458L90.0761 159.491L89.964 166.752L91.45 166.775L91.4239 168.463L89.9379 168.44L89.9291 169.015C89.9141 169.983 89.621 170.738 89.0496 171.281C88.478 171.835 87.68 172.105 86.6556 172.089C85.845 172.076 85.2115 171.903 84.755 171.57L85.3705 169.991C85.7269 170.245 86.1134 170.374 86.5299 170.381Z" fill="white"/>
<path d="M80.9996 158.77C81.9042 158.886 82.6945 159.186 83.3704 159.669C84.0464 160.153 84.5467 160.768 84.8714 161.513C85.1835 162.268 85.2831 163.086 85.1703 163.969C85.0575 164.851 84.7558 165.613 84.2653 166.254C83.7635 166.893 83.1247 167.362 82.3488 167.66C81.573 167.958 80.7327 168.049 79.8281 167.934C78.9123 167.817 78.1165 167.516 77.4406 167.033C76.7646 166.549 76.2699 165.935 75.9564 165.191C75.6317 164.446 75.5257 163.632 75.6385 162.75C75.7513 161.868 76.0593 161.101 76.5625 160.451C77.053 159.81 77.6863 159.34 78.4621 159.042C79.238 158.744 80.0839 158.653 80.9996 158.77ZM80.7705 160.563C79.9999 160.464 79.3305 160.64 78.7622 161.089C78.194 161.539 77.8563 162.182 77.7493 163.02C77.6422 163.858 77.8071 164.565 78.2439 165.143C78.6808 165.721 79.2845 166.06 80.0551 166.158C80.8257 166.257 81.4951 166.081 82.0634 165.632C82.6204 165.181 82.9525 164.536 83.0596 163.699C83.1667 162.861 83.0074 162.154 82.5817 161.578C82.1448 161 81.541 160.661 80.7705 160.563Z" fill="white"/>
<path d="M71.3104 164.873C70.4907 165.643 69.3382 165.841 67.853 165.469L68.3417 163.52C68.5082 163.596 68.6625 163.652 68.8045 163.688C69.6017 163.888 70.283 163.809 70.8485 163.452C71.4113 163.105 71.8022 162.495 72.0212 161.622L73.0849 157.379L75.1326 157.892L72.9394 166.64L70.9901 166.151L71.3104 164.873Z" fill="white"/>
<path d="M59.8327 153.182C60.1398 153.092 60.4789 153.07 60.8502 153.117C61.2112 153.16 61.5731 153.258 61.936 153.412C62.8485 153.798 63.4528 154.334 63.7487 155.022C64.0447 155.709 63.9997 156.509 63.6138 157.422L61.923 161.419L63.2918 161.998L62.6339 163.554L61.2651 162.975L60.4625 164.872L58.5183 164.05L59.3209 162.152L57.0966 161.212L57.7545 159.656L59.9788 160.597L61.6498 156.646C61.8208 156.242 61.8539 155.889 61.749 155.588C61.6397 155.297 61.3984 155.073 61.0251 154.915C60.5896 154.731 60.1784 154.691 59.7916 154.797L59.8327 153.182Z" fill="white"/>
<path d="M50.1981 157.726C49.2127 157.158 48.5882 156.415 48.3246 155.497C48.0609 154.578 48.255 153.553 48.9068 152.422L51.486 147.943L53.3153 148.997L50.871 153.241C50.4777 153.924 50.3437 154.529 50.469 155.056C50.5886 155.592 50.9461 156.032 51.5412 156.375C52.2144 156.763 52.8641 156.864 53.4904 156.679C54.111 156.504 54.6405 156.036 55.0787 155.275L57.3544 151.323L59.1838 152.377L52.9298 163.236L51.1005 162.182L53.3762 158.231C52.8883 158.379 52.3771 158.409 51.8425 158.322C51.2926 158.239 50.7444 158.04 50.1981 157.726Z" fill="white"/>
<path d="M40.6787 145.192C40.769 145.077 40.9065 144.92 41.091 144.722L46.6577 149.09C46.9704 148.491 47.0446 147.877 46.8805 147.247C46.7005 146.619 46.305 146.065 45.6938 145.586C44.9144 144.974 44.0707 144.727 43.1627 144.845L43.0754 143.123C43.6931 142.993 44.322 143.021 44.962 143.208C45.6021 143.396 46.2277 143.729 46.8388 144.209C47.6183 144.821 48.1831 145.514 48.5332 146.29C48.8834 147.066 49.0068 147.857 48.9036 148.663C48.7846 149.471 48.4505 150.225 47.9014 150.925C47.3592 151.616 46.7177 152.114 45.9768 152.42C45.22 152.728 44.441 152.818 43.6397 152.69C42.8384 152.562 42.088 152.223 41.3882 151.674C40.6974 151.132 40.2034 150.494 39.9064 149.76C39.5936 149.028 39.5056 148.265 39.6423 147.47C39.7633 146.678 40.1087 145.919 40.6787 145.192ZM42.4308 150.346C42.9623 150.763 43.5391 150.958 44.1613 150.931C44.7677 150.906 45.3158 150.663 45.8056 150.203L41.7801 147.044C41.4478 147.614 41.3381 148.2 41.451 148.804C41.564 149.408 41.8906 149.922 42.4308 150.346Z" fill="white"/>
<path d="M37.0912 134.723C37.7022 135.43 38.1016 136.193 38.2893 137.013C38.4771 137.833 38.4431 138.629 38.1873 139.4C37.9231 140.179 37.4545 140.859 36.7815 141.441C36.1086 142.023 35.3718 142.384 34.5713 142.525C33.7708 142.667 32.9822 142.589 32.2055 142.293C31.4215 141.989 30.7202 141.479 30.1018 140.763C29.5202 140.09 29.1486 139.385 28.9868 138.646C28.8177 137.9 28.8782 137.178 29.1685 136.48L30.9441 137.089C30.7983 137.557 30.7775 138.006 30.8819 138.437C30.9703 138.867 31.1655 139.256 31.4673 139.605C31.9826 140.202 32.6056 140.526 33.336 140.579C34.058 140.64 34.7427 140.391 35.3901 139.831C36.0375 139.272 36.3915 138.631 36.452 137.909C36.4967 137.186 36.2577 136.522 35.735 135.917C35.4332 135.568 35.0804 135.315 34.6768 135.157C34.2573 134.999 33.8053 134.958 33.3208 135.035L32.9762 133.19C33.7155 133.012 34.4466 133.057 35.1694 133.325C35.8763 133.592 36.5169 134.058 37.0912 134.723Z" fill="white"/>
<path d="M31.8734 127.685C32.3714 128.449 32.6552 129.245 32.7247 130.073C32.7942 130.901 32.6503 131.68 32.293 132.411C31.9201 133.138 31.3611 133.744 30.616 134.229C29.8709 134.715 29.0953 134.979 28.2891 135.02C27.4769 135.053 26.7059 134.87 25.9761 134.472C25.2464 134.074 24.6325 133.493 24.1345 132.729C23.6304 131.956 23.3436 131.155 23.2741 130.327C23.2045 129.498 23.3515 128.724 23.715 128.003C24.0723 127.273 24.6235 126.665 25.3686 126.179C26.1137 125.694 26.8971 125.432 27.7188 125.393C28.5249 125.352 29.2929 125.53 30.0226 125.928C30.7524 126.326 31.3693 126.911 31.8734 127.685ZM30.3596 128.671C29.9354 128.021 29.368 127.624 28.6575 127.483C27.947 127.341 27.238 127.501 26.5306 127.962C25.8232 128.423 25.3909 129.007 25.2337 129.715C25.0765 130.422 25.21 131.101 25.6342 131.752C26.0584 132.402 26.6258 132.799 27.3363 132.94C28.0407 133.072 28.7466 132.908 29.454 132.447C30.1614 131.986 30.5968 131.406 30.7601 130.708C30.9173 130.001 30.7838 129.322 30.3596 128.671Z" fill="white"/>
<path d="M15.8736 116.171C15.4424 115.119 15.4082 114.16 15.771 113.293C16.1233 112.431 16.9089 111.75 18.1278 111.251L22.9097 109.291L23.7102 111.244L19.1784 113.101C18.4491 113.4 17.9684 113.786 17.7361 114.258C17.4934 114.735 17.4958 115.275 17.7435 115.88C18.0124 116.536 18.4468 116.972 19.0466 117.189C19.636 117.41 20.3318 117.356 21.1339 117.027L25.3688 115.292L26.1693 117.245L21.6375 119.102C20.9083 119.401 20.4275 119.787 20.1952 120.259C19.9525 120.736 19.955 121.276 20.2026 121.88C20.4759 122.547 20.9072 122.991 21.4965 123.212C22.0816 123.422 22.7805 123.361 23.5931 123.028L27.828 121.292L28.6285 123.246L20.2837 126.666L19.5216 124.806L20.5843 124.37C20.0811 124.212 19.6345 123.938 19.2445 123.551C18.8544 123.163 18.542 122.683 18.3072 122.11C18.051 121.485 17.9445 120.883 17.9878 120.306C18.0163 119.722 18.2021 119.196 18.5452 118.727C17.9668 118.562 17.4468 118.258 16.9851 117.815C16.5131 117.376 16.1426 116.828 15.8736 116.171Z" fill="white"/>
<path d="M11.7944 97.764C11.6286 96.639 11.8258 95.6995 12.3861 94.9455C12.9353 94.1931 13.8614 93.7208 15.1646 93.5287L20.2772 92.7751L20.585 94.8636L15.7398 95.5778C14.9601 95.6927 14.4008 95.9516 14.0619 96.3543C13.7118 96.7587 13.5843 97.2839 13.6796 97.93C13.783 98.6317 14.0998 99.1597 14.63 99.514C15.1491 99.87 15.8375 99.9847 16.6951 99.8583L21.2229 99.1909L21.5307 101.279L16.6855 101.994C15.9058 102.108 15.3465 102.367 15.0076 102.77C14.6575 103.174 14.5301 103.7 14.6253 104.346C14.7304 105.059 15.0424 105.593 15.5615 105.949C16.0789 106.294 16.772 106.402 17.6408 106.274L22.1686 105.607L22.4765 107.695L13.5546 109.01L13.2615 107.022L14.3976 106.855C13.9474 106.579 13.5795 106.207 13.294 105.737C13.0085 105.267 12.8206 104.726 12.7303 104.113C12.6317 103.445 12.6728 102.835 12.8535 102.285C13.0214 101.726 13.3282 101.259 13.7739 100.886C13.2519 100.588 12.8202 100.168 12.4786 99.6263C12.1259 99.0865 11.8978 98.4657 11.7944 97.764Z" fill="white"/>
<path d="M11.9279 81.5883L20.9349 82.0406L20.8341 84.0477L19.6871 83.9901C20.075 84.3478 20.3687 84.7853 20.5682 85.3026C20.7564 85.8193 20.8359 86.37 20.8065 86.9548C20.7461 88.1579 20.3667 89.0915 19.6682 89.7553C18.9591 90.4074 17.9467 90.7004 16.6311 90.6343L11.4867 90.376L11.5926 88.2677L16.4502 88.5116C17.2598 88.5522 17.8761 88.4028 18.299 88.0633C18.7112 87.712 18.9342 87.199 18.9681 86.5243C19.0059 85.7709 18.8053 85.1633 18.3663 84.7017C17.9166 84.2282 17.2532 83.9694 16.3761 83.9254L11.822 83.6967L11.9279 81.5883Z" fill="white"/>
<path d="M13.2921 73.2202C13.5222 72.1066 14.032 71.2807 14.8215 70.7426C15.611 70.2044 16.6452 70.0674 17.9242 70.3317L22.9851 71.3774L22.558 73.4447L17.7617 72.4537C16.9899 72.2943 16.3734 72.3566 15.9124 72.6407C15.4403 72.9226 15.1347 73.3998 14.9957 74.0723C14.8386 74.8331 14.9459 75.4819 15.3179 76.0186C15.6788 76.553 16.2893 76.9091 17.1493 77.0868L21.6148 78.0095L21.1877 80.0768L12.3559 78.252L12.7626 76.2839L13.9037 76.5197C13.5664 76.0936 13.3465 75.5998 13.2441 75.0383C13.1417 74.4768 13.1577 73.8708 13.2921 73.2202Z" fill="white"/>
<path d="M15.0334 66.9444L15.6775 64.9341L24.2658 67.6855L23.6218 69.6959L15.0334 66.9444ZM13.9428 65.4778C13.826 65.8423 13.6155 66.1118 13.3113 66.2863C12.9964 66.4573 12.6674 66.4879 12.3243 66.378C11.9812 66.268 11.7366 66.0537 11.5904 65.735C11.4336 65.4128 11.4135 65.0694 11.5303 64.7049C11.6471 64.3403 11.8576 64.0708 12.1617 63.8964C12.4552 63.7185 12.7681 63.6827 13.1005 63.7892C13.4543 63.9026 13.715 64.1221 13.8826 64.4477C14.0429 64.7591 14.063 65.1025 13.9428 65.4778Z" fill="white"/>
<path d="M26.5701 60.4372C26.6637 60.7433 26.689 61.0822 26.6462 61.454C26.6076 61.8154 26.5136 62.1784 26.3642 62.543C25.9885 63.4598 25.4585 64.07 24.7744 64.3737C24.0902 64.6774 23.2898 64.6413 22.373 64.2656L18.3569 62.6198L17.7933 63.995L16.2306 63.3546L16.7942 61.9794L14.8877 61.1981L15.6882 59.2447L17.5947 60.026L18.5105 57.7914L20.0732 58.4318L19.1574 60.6664L23.1266 62.2931C23.5329 62.4596 23.886 62.4887 24.1859 62.3804C24.4754 62.2678 24.697 62.024 24.8507 61.649C25.03 61.2114 25.0648 60.7999 24.9551 60.4142L26.5701 60.4372Z" fill="white"/>
<path d="M23.4538 48.1771L30.0088 56.5325C30.6821 57.3457 31.0579 58.0937 31.1361 58.7764C31.2242 59.4644 31.0777 60.1599 30.6968 60.8626C30.4822 61.2586 30.2059 61.6147 29.868 61.9309C29.5301 62.2472 29.1802 62.4674 28.8185 62.5915L27.8549 61.1087C28.1197 61.0217 28.366 60.8863 28.5938 60.7024C28.8269 60.5086 29.0105 60.288 29.1446 60.0405C29.3217 59.7139 29.3824 59.401 29.3268 59.1019C29.2766 58.793 29.1018 58.4421 28.8024 58.0493L28.5631 57.7467L18.7297 56.8925L19.776 54.9623L26.9927 55.6469L22.4881 49.9588L23.4538 48.1771Z" fill="white"/>
<path d="M29.3752 45.7922L32.229 42.1282L33.6146 43.2075L30.7608 46.8715L29.3752 45.7922Z" fill="white"/>
<path d="M42.8492 30.8154C43.4812 30.5457 44.1081 30.4751 44.73 30.6036C45.3444 30.7236 45.8966 31.063 46.3866 31.6216C47.0621 32.3919 47.2893 33.2485 47.0679 34.1914C46.8392 35.1258 46.1577 36.0904 45.0234 37.0852L40.6049 40.9603L32.81 32.0725L36.9746 28.4201C38.0242 27.4995 39.0144 26.9979 39.9453 26.9153C40.8688 26.8242 41.646 27.1384 42.277 27.8579C42.6631 28.2981 42.903 28.7765 42.9968 29.2933C43.0906 29.81 43.0414 30.3174 42.8492 30.8154ZM35.5964 31.92L37.7456 34.3705L40.0818 32.3215C40.6574 31.8167 41.0085 31.3291 41.135 30.8587C41.2626 30.3724 41.152 29.9304 40.8031 29.5325C40.4467 29.1262 40.0229 28.9588 39.5315 29.0304C39.0412 29.086 38.5082 29.3662 37.9326 29.871L35.5964 31.92ZM43.786 35.8792C45.0642 34.7582 45.3283 33.7702 44.5785 32.9153C43.8287 32.0604 42.8148 32.1934 41.5366 33.3144L38.8703 35.6529L41.1197 38.2176L43.786 35.8792Z" fill="white"/>
<path d="M42.794 22.9582L44.5324 21.7605L51.642 32.0794L49.9037 33.2771L42.794 22.9582Z" fill="white"/>
<path d="M51.9692 21.216C53.1325 20.5743 54.1748 20.3658 55.0959 20.5906C56.0216 20.8 56.7943 21.4667 57.4143 22.5905L59.9675 27.219L58.2226 28.1816L57.6924 27.2204C57.656 27.6905 57.4775 28.1361 57.1569 28.5573C56.8407 28.9631 56.3869 29.3292 55.7954 29.6555C55.2039 29.9818 54.6319 30.1687 54.0796 30.2163C53.5217 30.254 53.0217 30.1633 52.5795 29.9444C52.1417 29.7101 51.7977 29.3663 51.5475 28.9128C51.156 28.203 51.1045 27.492 51.3932 26.7799C51.6862 26.0525 52.3996 25.3761 53.5333 24.7507L55.574 23.625L55.5088 23.5067C55.2042 22.9546 54.8028 22.6231 54.3045 22.5123C53.816 22.396 53.2464 22.5173 52.5958 22.8762C52.1522 23.121 51.7515 23.432 51.3939 23.8093C51.0461 24.1811 50.7923 24.5718 50.6325 24.9815L49.1656 24.0355C49.4057 23.4916 49.7703 22.9755 50.2595 22.487C50.7487 21.9986 51.3186 21.5749 51.9692 21.216ZM55.4376 28.0978C55.9009 27.8422 56.2529 27.513 56.4936 27.1102C56.7387 26.6921 56.8265 26.2451 56.7568 25.7692L56.2511 24.8523L54.3435 25.9046C53.2788 26.4919 52.9395 27.1356 53.3256 27.8355C53.5105 28.1707 53.7904 28.3635 54.1653 28.4138C54.5403 28.4641 54.9644 28.3588 55.4376 28.0978Z" fill="white"/>
<path d="M62.922 16.1846C63.7442 15.8761 64.5441 15.7804 65.3215 15.8975C66.1096 16.0107 66.8107 16.3248 67.4249 16.8399C68.039 17.355 68.5063 18.0395 68.8267 18.8933C69.1471 19.7472 69.2474 20.5754 69.1276 21.3779C69.0039 22.1699 68.6825 22.8677 68.1634 23.4713C67.6549 24.071 66.9895 24.5251 66.1673 24.8336C65.5875 25.0511 65.0176 25.1507 64.4576 25.1324C63.9081 25.1101 63.3948 24.96 62.9177 24.682L63.3271 25.773L61.4455 26.4791L57.0433 14.7467L59.0197 14.0051L60.6394 18.3217C60.8383 17.8262 61.1288 17.3986 61.5109 17.0387C61.9035 16.675 62.3739 16.3902 62.922 16.1846ZM65.3111 23.2248C66.0385 22.9519 66.5431 22.486 66.8249 21.827C67.1173 21.1642 67.1152 20.4374 66.8186 19.6468C66.5219 18.8562 66.0455 18.3075 65.3892 18.0006C64.7434 17.6897 64.0569 17.6708 63.3295 17.9437C62.8552 18.1217 62.4698 18.3925 62.1734 18.7563C61.873 19.1095 61.6873 19.5279 61.6162 20.0115C61.5451 20.4952 61.6085 21.0005 61.8063 21.5276C62.004 22.0546 62.2887 22.4769 62.6604 22.7944C63.0321 23.1119 63.4492 23.3102 63.9117 23.3891C64.3703 23.4576 64.8368 23.4028 65.3111 23.2248Z" fill="white"/>
<path d="M68.773 10.7401L70.8187 10.219L73.9123 22.3622L71.8666 22.8833L68.773 10.7401Z" fill="white"/>
<path d="M77.9209 12.2913C79.2345 12.0925 80.2844 12.2582 81.0706 12.7883C81.8663 13.3055 82.3601 14.1987 82.5522 15.4678L83.3431 20.6943L81.3727 20.9924L81.2085 19.9071C81.0114 20.3354 80.6895 20.6916 80.2428 20.9755C79.8056 21.2467 79.253 21.4328 78.5851 21.5338C77.9172 21.6349 77.3159 21.612 76.7813 21.4652C76.2449 21.3072 75.8073 21.0489 75.4684 20.6903C75.1389 20.3188 74.9354 19.8771 74.8579 19.365C74.7366 18.5635 74.9347 17.8787 75.4523 17.3108C75.9793 16.73 76.8829 16.3427 78.1631 16.149L80.4674 15.8003L80.4472 15.6667C80.3529 15.0433 80.0912 14.5933 79.6622 14.3166C79.2443 14.0382 78.668 13.9546 77.9333 14.0658C77.4323 14.1416 76.9487 14.2945 76.4825 14.5245C76.0274 14.7528 75.6539 15.0313 75.3621 15.3602L74.3139 13.9645C74.7276 13.5375 75.2485 13.1797 75.8766 12.891C76.5048 12.6024 77.1862 12.4025 77.9209 12.2913ZM78.7893 19.9486C79.3125 19.8694 79.7568 19.6826 80.1222 19.3882C80.497 19.081 80.7342 18.6921 80.8338 18.2215L80.6772 17.1863L78.5231 17.5122C77.3208 17.6942 76.7795 18.1803 76.8991 18.9707C76.9564 19.3492 77.1522 19.627 77.4864 19.8042C77.8207 19.9813 78.255 20.0295 78.7893 19.9486Z" fill="white"/>
<path d="M94.9425 20.7974C93.7511 20.7283 92.687 20.4073 91.7503 19.8342C90.8255 19.2506 90.1145 18.482 89.6171 17.5284C89.131 16.5755 88.9215 15.5201 88.9886 14.3624C89.0556 13.2047 89.3913 12.181 89.9954 11.2912C90.5996 10.4014 91.3943 9.72572 92.3797 9.26404C93.3769 8.79177 94.4713 8.59015 95.6627 8.65919C96.6294 8.71519 97.5019 8.93492 98.2804 9.31836C99.0589 9.70179 99.705 10.2298 100.219 10.9024L98.7252 12.1523C97.9244 11.1811 96.9001 10.6594 95.6525 10.5871C94.8432 10.5402 94.1078 10.678 93.4463 11.0006C92.7855 11.3119 92.2569 11.7719 91.8608 12.3804C91.4647 12.989 91.2435 13.6924 91.1972 14.4904C91.151 15.2884 91.2895 16.0126 91.6127 16.6629C91.9359 17.3131 92.4074 17.8367 93.0272 18.2335C93.6477 18.619 94.3626 18.8353 95.1719 18.8822C96.4195 18.9545 97.4975 18.5489 98.4058 17.6655L99.7439 19.0963C99.156 19.7051 98.4476 20.1546 97.6188 20.4449C96.8012 20.7359 95.9091 20.8534 94.9425 20.7974Z" fill="white"/>
<path d="M104.76 22.13C103.869 21.9386 103.107 21.5736 102.474 21.0347C101.841 20.4959 101.394 19.8415 101.133 19.0716C100.886 18.2931 100.855 17.4689 101.042 16.5993C101.228 15.7297 101.593 14.9961 102.136 14.3986C102.69 13.8035 103.366 13.3901 104.164 13.1584C104.962 12.9266 105.807 12.9064 106.699 13.0978C107.601 13.2915 108.369 13.6577 109.002 14.1966C109.635 14.7354 110.076 15.3886 110.326 16.1561C110.587 16.926 110.624 17.7458 110.437 18.6155C110.251 19.4851 109.879 20.223 109.323 20.8291C108.78 21.4266 108.11 21.8412 107.312 22.0729C106.514 22.3047 105.663 22.3237 104.76 22.13ZM105.14 20.3632C105.899 20.5262 106.581 20.4076 107.185 20.0075C107.789 19.6075 108.18 18.9946 108.357 18.169C108.534 17.3434 108.429 16.6242 108.042 16.0116C107.656 15.3989 107.083 15.0111 106.323 14.8481C105.564 14.6851 104.882 14.8036 104.278 15.2037C103.685 15.6061 103.3 16.2201 103.122 17.0458C102.945 17.8714 103.044 18.5893 103.42 19.1997C103.807 19.8123 104.38 20.2002 105.14 20.3632Z" fill="white"/>
<path d="M118.343 16.5593C119.408 16.9588 120.145 17.5901 120.555 18.4533C120.964 19.3165 120.94 20.3595 120.481 21.5823L118.666 26.4207L116.689 25.6791L118.41 21.0937C118.686 20.3558 118.72 19.7371 118.511 19.2376C118.305 18.7276 117.881 18.352 117.238 18.1107C116.511 17.8378 115.853 17.8436 115.265 18.1281C114.682 18.4021 114.235 18.9502 113.927 19.7724L112.325 24.0416L110.349 23.3L113.517 14.8565L115.398 15.5625L114.989 16.6535C115.462 16.3861 115.984 16.2452 116.555 16.2308C117.125 16.2164 117.721 16.3259 118.343 16.5593Z" fill="white"/>
<path d="M128.489 19.2158C127.698 18.8094 127.081 19.0369 126.638 19.8981L126.391 20.3788L128.6 21.5132L127.828 23.0154L125.68 21.9119L122.362 28.3715L120.484 27.407L123.802 20.9474L122.48 20.2684L123.252 18.7661L124.574 19.4452L124.836 18.9344C125.278 18.0731 125.876 17.5257 126.629 17.2922C127.387 17.0487 128.222 17.161 129.133 17.6291C129.854 17.9995 130.345 18.4354 130.607 18.9367L129.355 20.0787C129.148 19.6938 128.859 19.4061 128.489 19.2158Z" fill="white"/>
<path d="M134.72 30.7786C134.639 30.9006 134.514 31.068 134.347 31.2809L128.447 27.3735C128.183 27.9957 128.159 28.614 128.373 29.2285C128.603 29.8399 129.041 30.36 129.689 30.789C130.515 31.3361 131.376 31.5146 132.272 31.3246L132.497 33.0336C131.892 33.2134 131.263 33.2356 130.609 33.1001C129.956 32.9647 129.306 32.6825 128.658 32.2535C127.832 31.7064 127.214 31.0603 126.802 30.3153C126.391 29.5702 126.205 28.7916 126.243 27.9796C126.296 27.1645 126.569 26.3861 127.06 25.6446C127.545 24.9124 128.144 24.3641 128.858 23.9998C129.588 23.6322 130.357 23.48 131.166 23.5432C131.975 23.6063 132.75 23.8835 133.492 24.3746C134.224 24.8595 134.768 25.4559 135.123 26.1637C135.493 26.8683 135.642 27.6219 135.57 28.4247C135.513 29.2242 135.23 30.0089 134.72 30.7786ZM132.559 25.7826C131.996 25.4096 131.406 25.2615 130.788 25.3383C130.185 25.4119 129.658 25.6976 129.207 26.1955L133.473 29.0212C133.759 28.427 133.821 27.8335 133.66 27.2407C133.499 26.6479 133.132 26.1618 132.559 25.7826Z" fill="white"/>
<path d="M139.842 30.8964C140.917 30.5667 142.039 30.896 143.209 31.8846L141.911 33.4193C141.796 33.2773 141.682 33.159 141.57 33.0645C140.942 32.5339 140.296 32.3044 139.631 32.3761C138.973 32.4393 138.353 32.8147 137.772 33.5026L134.948 36.843L133.336 35.4801L139.158 28.593L140.693 29.8904L139.842 30.8964Z" fill="white"/>
<path d="M147.037 42.5057C146.931 42.6062 146.771 42.7409 146.559 42.91L141.703 37.7631C141.305 38.309 141.14 38.9055 141.209 39.5527C141.294 40.2002 141.603 40.8066 142.136 41.3716C142.816 42.0923 143.613 42.4619 144.529 42.4806L144.36 44.196C143.729 44.2334 143.112 44.1119 142.506 43.8315C141.901 43.5511 141.332 43.1283 140.799 42.5633C140.119 41.8426 139.664 41.0728 139.433 40.2537C139.202 39.4345 139.197 38.634 139.419 37.8519C139.657 37.0704 140.099 36.3744 140.746 35.764C141.385 35.1613 142.093 34.7638 142.871 34.5714C143.665 34.3794 144.449 34.4062 145.222 34.6517C145.996 34.8972 146.688 35.3434 147.298 35.9903C147.901 36.6291 148.294 37.3335 148.479 38.1034C148.68 38.8739 148.653 39.6417 148.4 40.4069C148.163 41.1725 147.708 41.8721 147.037 42.5057ZM146.07 37.1493C145.606 36.658 145.065 36.3794 144.445 36.3136C143.842 36.2483 143.264 36.4067 142.711 36.7888L146.223 40.5108C146.636 39.9972 146.832 39.4334 146.81 38.8195C146.788 38.2056 146.541 37.6489 146.07 37.1493Z" fill="white"/>
<path d="M154.997 45.5176C155.649 46.4492 155.899 47.3868 155.749 48.3304C155.599 49.2739 154.988 50.1201 153.918 50.869L149.684 53.832L148.474 52.1025L152.487 49.2944C153.132 48.8425 153.51 48.3513 153.62 47.821C153.739 47.2842 153.602 46.7345 153.208 46.1718C152.762 45.5353 152.217 45.1682 151.571 45.0703C150.935 44.966 150.257 45.1656 149.537 45.6692L145.801 48.2837L144.591 46.5541L151.98 41.3832L153.132 43.0298L152.177 43.6979C152.719 43.745 153.229 43.924 153.707 44.2349C154.186 44.5458 154.616 44.9733 154.997 45.5176Z" fill="white"/>
<path d="M152.303 59.1134C151.879 58.2805 151.674 57.4437 151.688 56.6027C151.702 55.7617 151.926 54.9972 152.359 54.3094C152.802 53.6164 153.42 53.0681 154.213 52.6647C155.006 52.2612 155.807 52.0868 156.619 52.1414C157.43 52.196 158.177 52.46 158.86 52.9335C159.548 53.417 160.107 54.0801 160.536 54.923C160.939 55.7156 161.131 56.4897 161.111 57.2451C161.097 58.0106 160.865 58.697 160.416 59.3045L158.838 58.2886C159.092 57.8689 159.219 57.4374 159.221 56.9943C159.238 56.5561 159.142 56.1313 158.933 55.72C158.575 55.0176 158.048 54.5531 157.352 54.3265C156.665 54.0947 155.941 54.1729 155.178 54.5611C154.416 54.9492 153.918 55.4865 153.687 56.1729C153.47 56.8643 153.543 57.5662 153.906 58.2786C154.115 58.69 154.397 59.0203 154.751 59.2695C155.121 59.5237 155.55 59.6717 156.038 59.7135L155.931 61.5873C155.171 61.5827 154.472 61.3637 153.834 60.9302C153.212 60.5016 152.701 59.896 152.303 59.1134Z" fill="white"/>
<path d="M161.496 69.9094C161.358 69.9577 161.157 70.0158 160.895 70.0838L158.559 63.4043C157.973 63.7405 157.579 64.218 157.378 64.837C157.192 65.4629 157.227 66.1424 157.483 66.8758C157.81 67.811 158.388 68.4737 159.216 68.8639L158.362 70.3613C157.771 70.1385 157.257 69.7757 156.818 69.273C156.38 68.7702 156.033 68.1522 155.776 67.4189C155.449 66.4836 155.347 65.595 155.47 64.7528C155.593 63.9107 155.915 63.1778 156.437 62.5541C156.973 61.9374 157.66 61.4822 158.5 61.1886C159.329 60.8987 160.138 60.8245 160.927 60.966C161.73 61.1145 162.435 61.4584 163.041 61.9979C163.647 62.5374 164.097 63.2269 164.391 64.0665C164.68 64.8954 164.753 65.6991 164.607 66.4775C164.477 67.2627 164.14 67.9531 163.596 68.5486C163.068 69.151 162.367 69.6046 161.496 69.9094ZM162.796 64.624C162.573 63.9863 162.193 63.5112 161.654 63.1986C161.129 62.893 160.537 62.802 159.877 62.9256L161.566 67.7559C162.152 67.4553 162.561 67.0202 162.791 66.4507C163.021 65.8812 163.023 65.2723 162.796 64.624Z" fill="white"/>
<path d="M163.795 75.185L164.561 79.7658L162.828 80.0552L162.063 75.4744L163.795 75.185Z" fill="white"/>
</svg>
