<svg width="91" height="91" viewBox="0 0 91 91" fill="none" xmlns="http://www.w3.org/2000/svg">
<path d="M45.5247 0.524567L55.9957 13.298L71.975 9.1188L72.9382 25.6075L88.3222 31.6188L79.4097 45.5246L88.3222 59.4303L72.9382 65.4417L71.975 81.9303L55.9957 77.7511L45.5247 90.5246L35.0536 77.7511L19.0743 81.9303L18.1111 65.4417L2.72712 59.4303L11.6397 45.5246L2.72712 31.6188L18.1111 25.6075L19.0743 9.1188L35.0536 13.298L45.5247 0.524567Z" fill="#F6C5C5"/>
<path d="M33.7235 34.4136V36.4156H37.7405V38.4046H33.7235V41.5246H31.1495V32.4246H38.2865V34.4136H33.7235ZM41.5994 35.3236C41.8507 35.0029 42.1757 34.7646 42.5744 34.6086C42.9817 34.4439 43.4454 34.3616 43.9654 34.3616V36.5846C43.74 36.5586 43.5537 36.5456 43.4064 36.5456C42.8777 36.5456 42.4617 36.6886 42.1584 36.9746C41.8637 37.2606 41.7164 37.6982 41.7164 38.2876V41.5246H39.2464V34.4786H41.5994V35.3236ZM52.1232 38.0146C52.1232 38.0319 52.1102 38.2356 52.0842 38.6256H46.9622C47.0662 38.9896 47.2655 39.2712 47.5602 39.4706C47.8635 39.6612 48.2405 39.7566 48.6912 39.7566C49.0292 39.7566 49.3195 39.7089 49.5622 39.6136C49.8135 39.5182 50.0648 39.3622 50.3162 39.1456L51.6162 40.4976C50.9315 41.2602 49.9305 41.6416 48.6132 41.6416C47.7898 41.6416 47.0662 41.4856 46.4422 41.1736C45.8182 40.8616 45.3328 40.4282 44.9862 39.8736C44.6482 39.3189 44.4792 38.6906 44.4792 37.9886C44.4792 37.2952 44.6438 36.6756 44.9732 36.1296C45.3112 35.5749 45.7748 35.1416 46.3642 34.8296C46.9535 34.5176 47.6165 34.3616 48.3532 34.3616C49.0552 34.3616 49.6922 34.5089 50.2642 34.8036C50.8362 35.0896 51.2868 35.5099 51.6162 36.0646C51.9542 36.6106 52.1232 37.2606 52.1232 38.0146ZM48.3662 36.1166C47.9848 36.1166 47.6642 36.2249 47.4042 36.4416C47.1528 36.6582 46.9925 36.9529 46.9232 37.3256H49.8092C49.7398 36.9529 49.5752 36.6582 49.3152 36.4416C49.0638 36.2249 48.7475 36.1166 48.3662 36.1166ZM60.464 38.0146C60.464 38.0319 60.451 38.2356 60.425 38.6256H55.303C55.407 38.9896 55.6063 39.2712 55.901 39.4706C56.2043 39.6612 56.5813 39.7566 57.032 39.7566C57.37 39.7566 57.6603 39.7089 57.903 39.6136C58.1543 39.5182 58.4057 39.3622 58.657 39.1456L59.957 40.4976C59.2723 41.2602 58.2713 41.6416 56.954 41.6416C56.1307 41.6416 55.407 41.4856 54.783 41.1736C54.159 40.8616 53.6737 40.4282 53.327 39.8736C52.989 39.3189 52.82 38.6906 52.82 37.9886C52.82 37.2952 52.9847 36.6756 53.314 36.1296C53.652 35.5749 54.1157 35.1416 54.705 34.8296C55.2943 34.5176 55.9573 34.3616 56.694 34.3616C57.396 34.3616 58.033 34.5089 58.605 34.8036C59.177 35.0896 59.6277 35.5099 59.957 36.0646C60.295 36.6106 60.464 37.2606 60.464 38.0146ZM56.707 36.1166C56.3257 36.1166 56.005 36.2249 55.745 36.4416C55.4937 36.6582 55.3333 36.9529 55.264 37.3256H58.15C58.0807 36.9529 57.916 36.6582 57.656 36.4416C57.4047 36.2249 57.0883 36.1166 56.707 36.1166ZM31.892 55.5356V57.5246H24.586V48.4246H31.723V50.4136H27.134V51.9476H31.177V53.8716H27.134V55.5356H31.892ZM40.601 50.4786L37.689 57.5246H35.141L32.242 50.4786H34.777L36.467 54.7816L38.248 50.4786H40.601ZM48.2511 54.0146C48.2511 54.0319 48.2381 54.2356 48.2121 54.6256H43.0901C43.1941 54.9896 43.3934 55.2712 43.6881 55.4706C43.9914 55.6612 44.3684 55.7566 44.8191 55.7566C45.1571 55.7566 45.4474 55.7089 45.6901 55.6136C45.9414 55.5182 46.1928 55.3622 46.4441 55.1456L47.7441 56.4976C47.0594 57.2602 46.0584 57.6416 44.7411 57.6416C43.9178 57.6416 43.1941 57.4856 42.5701 57.1736C41.9461 56.8616 41.4608 56.4282 41.1141 55.8736C40.7761 55.3189 40.6071 54.6906 40.6071 53.9886C40.6071 53.2952 40.7718 52.6756 41.1011 52.1296C41.4391 51.5749 41.9028 51.1416 42.4921 50.8296C43.0814 50.5176 43.7444 50.3616 44.4811 50.3616C45.1831 50.3616 45.8201 50.5089 46.3921 50.8036C46.9641 51.0896 47.4148 51.5099 47.7441 52.0646C48.0821 52.6106 48.2511 53.2606 48.2511 54.0146ZM44.4941 52.1166C44.1128 52.1166 43.7921 52.2249 43.5321 52.4416C43.2808 52.6582 43.1204 52.9529 43.0511 53.3256H45.9371C45.8678 52.9529 45.7031 52.6582 45.4431 52.4416C45.1918 52.2249 44.8754 52.1166 44.4941 52.1166ZM53.9789 50.3616C54.8543 50.3616 55.5563 50.6216 56.0849 51.1416C56.6223 51.6616 56.8909 52.4459 56.8909 53.4946V57.5246H54.4209V53.8976C54.4209 52.9356 54.0353 52.4546 53.2639 52.4546C52.8393 52.4546 52.4969 52.5932 52.2369 52.8706C51.9856 53.1479 51.8599 53.5639 51.8599 54.1186V57.5246H49.3899V50.4786H51.7429V51.2456C52.0203 50.9596 52.3496 50.7429 52.7309 50.5956C53.1123 50.4396 53.5283 50.3616 53.9789 50.3616ZM63.3037 57.2386C63.0957 57.3686 62.84 57.4682 62.5367 57.5376C62.242 57.6069 61.9257 57.6416 61.5877 57.6416C60.669 57.6416 59.9627 57.4162 59.4687 56.9656C58.9747 56.5149 58.7277 55.8432 58.7277 54.9506V52.5846H57.7007V50.7386H58.7277V48.9056H61.1977V50.7386H62.8097V52.5846H61.1977V54.9246C61.1977 55.1759 61.2627 55.3752 61.3927 55.5226C61.5313 55.6612 61.7133 55.7306 61.9387 55.7306C62.2247 55.7306 62.476 55.6569 62.6927 55.5096L63.3037 57.2386ZM63.9571 48.4246H66.8951L66.4011 54.2096H64.4381L63.9571 48.4246ZM65.4261 57.6416C64.9928 57.6416 64.6375 57.5116 64.3601 57.2516C64.0828 56.9829 63.9441 56.6579 63.9441 56.2766C63.9441 55.8866 64.0828 55.5659 64.3601 55.3146C64.6375 55.0632 64.9928 54.9376 65.4261 54.9376C65.8595 54.9376 66.2105 55.0632 66.4791 55.3146C66.7565 55.5659 66.8951 55.8866 66.8951 56.2766C66.8951 56.6579 66.7565 56.9829 66.4791 57.2516C66.2018 57.5116 65.8508 57.6416 65.4261 57.6416Z" fill="#161616"/>
</svg>
