<svg width="111" height="48" viewBox="0 0 111 48" fill="none" xmlns="http://www.w3.org/2000/svg">
<path fill-rule="evenodd" clip-rule="evenodd" d="M53.8356 0.0977104C53.4764 0.15203 52.9375 0.22028 52.6382 0.24934C52.3389 0.27846 51.6408 0.36614 51.0871 0.44424L49.3182 0.693621C48.8991 0.752671 48.2991 0.83801 47.9848 0.88329C47.2151 0.99421 45.9521 1.16843 45.6172 1.20985C45.4676 1.22835 45.1614 1.27723 44.9369 1.31837C44.7124 1.35958 44.1369 1.44513 43.6579 1.50859C43.179 1.572 42.5422 1.6605 42.2428 1.70523C41.9435 1.74997 41.5026 1.81055 41.2632 1.83983C41.0237 1.86911 40.5951 1.92947 40.3107 1.97399C40.0263 2.01846 39.3528 2.11517 38.814 2.18886C37.2817 2.3984 37.1838 2.41696 36.0057 2.7218C34.8391 3.02365 34.0961 3.42896 33.7051 3.97676C33.5545 4.18782 33.347 4.88203 33.3446 5.18289C33.3438 5.2727 33.4192 5.80275 33.5121 6.3608C33.6592 7.2449 33.6731 7.4131 33.6201 7.6684C33.5117 8.1907 33.2665 8.4574 32.7727 8.5904C32.3425 8.7062 32.1983 8.7961 32.1122 9.0021C32.0025 9.2646 32.0529 9.506 32.2586 9.7031C32.4115 9.8496 32.4573 9.8619 32.8884 9.8729C33.456 9.8875 33.6853 9.9899 33.9183 10.3333C34.1131 10.6204 34.191 10.9413 34.273 11.7957C34.3352 12.4442 34.4955 13.1491 34.6284 13.3585C34.6704 13.4248 34.7048 13.5114 34.7048 13.551C34.7048 13.6598 35.1916 14.1096 35.4476 14.2375C35.5718 14.2995 35.847 14.3983 36.0592 14.4571C36.2714 14.5159 36.4661 14.5771 36.492 14.5931C36.5179 14.6091 36.5688 14.8863 36.605 15.2091C36.6413 15.5318 36.7097 16.0164 36.757 16.2858C36.8331 16.7199 36.8641 16.7958 37.0295 16.9525C37.1746 17.09 37.2635 17.1294 37.4287 17.1294C37.7309 17.1294 37.8756 17.0197 38.5171 16.3047C38.8301 15.9559 39.3571 15.3677 39.6883 14.9978C40.3501 14.2585 40.3815 14.2406 41.1543 14.1611C41.4753 14.128 42.231 14.019 43.5763 13.8116C43.9505 13.754 44.3791 13.6924 44.5287 13.6749C44.7902 13.6442 45.3577 13.5644 47.0595 13.3187C47.4936 13.256 48.0202 13.1842 48.2297 13.159C48.89 13.0798 49.8407 12.9396 50.4612 12.8299C51.1145 12.7144 52.1706 12.5615 53.3201 12.416L54.0564 12.3228L54.3814 12.5307C54.5601 12.645 54.8044 12.805 54.9241 12.8861C55.6825 13.3999 57.2133 14.2992 57.3293 14.2992C57.732 14.2992 58.0781 13.9382 58.0337 13.5645C57.9794 13.1089 57.7756 11.7103 57.7517 11.6298C57.7355 11.5751 57.8044 11.4989 57.9488 11.4121C58.3603 11.1648 58.698 10.8755 58.8744 10.619C59.2088 10.133 59.329 9.446 59.1992 8.7618C59.0484 7.9669 58.9758 7.1557 59.0295 6.8655C59.1214 6.3685 59.4591 6.04 59.9785 5.94263C60.3954 5.86441 60.6332 5.49236 60.5011 5.12477C60.4072 4.86341 60.2067 4.75685 59.7716 4.73703C59.2697 4.71412 59.0902 4.65028 58.8483 4.4083C58.5947 4.15468 58.4607 3.71551 58.3791 2.86979C58.2474 1.50565 57.9707 0.903 57.2539 0.4192C56.6692 0.0245602 55.2202 -0.11167 53.8356 0.0977104ZM56.9144 2.897C56.8451 2.03843 56.6319 1.61489 56.1173 1.31331C55.9185 1.19684 55.797 1.17093 55.3746 1.15493C54.8368 1.13458 54.2803 1.17904 53.4002 1.31277C53.1008 1.35821 52.3171 1.45858 51.6585 1.53575C51 1.61298 50.2285 1.7116 49.9441 1.75493C49.6597 1.7983 49.1209 1.87053 48.7467 1.91548C47.7196 2.03876 45.9601 2.27676 43.9028 2.57066C43.349 2.6498 42.5653 2.75903 42.1612 2.81351C40.4488 3.04411 38.1344 3.41432 36.8275 3.66664C35.8355 3.85816 35.2769 4.15342 34.9713 4.64778C34.8492 4.84534 34.8486 4.85557 34.9135 5.64105C34.9495 6.0775 35.0153 6.5549 35.0596 6.7019C35.1871 7.1241 35.1656 7.7626 35.0123 8.1067C34.8934 8.3737 34.4993 8.8075 34.2476 8.9484C34.1322 9.013 34.174 9.1288 34.3127 9.1288C34.4921 9.1288 34.9922 9.4287 35.1928 9.6566C35.4666 9.9677 35.6181 10.4097 35.6848 11.0928C35.7923 12.1917 35.9424 12.7496 36.1944 12.9863C36.3721 13.1533 36.9329 13.4284 37.0959 13.4286C37.2723 13.4289 37.5568 13.6001 37.6714 13.7752C37.7457 13.8885 37.9141 14.8629 37.9155 15.1882C37.9158 15.2431 37.937 15.2798 37.9627 15.2698C38.0214 15.2471 38.4904 14.6911 38.9379 14.1139C39.1257 13.8716 39.3904 13.5587 39.5261 13.4187C39.8063 13.1293 39.8951 13.1015 40.9775 12.9637C41.3442 12.917 41.684 12.8671 41.7328 12.8527C41.7815 12.8384 42.1978 12.7789 42.658 12.7205C43.1182 12.6622 43.6416 12.5908 43.8212 12.5619C44.0008 12.5329 44.6253 12.4451 45.2091 12.3666C45.7928 12.2882 46.4296 12.1998 46.6241 12.1702C47.2758 12.0711 48.4389 11.901 49.3999 11.7643L51.1143 11.52C51.5333 11.4603 52.1824 11.3753 52.5566 11.3312C52.9307 11.2871 53.4573 11.2169 53.7267 11.1753L54.2166 11.0994L54.7064 11.4302C54.9758 11.6122 55.4656 11.9386 55.7949 12.1557C56.1242 12.3727 56.4232 12.5764 56.4593 12.6083C56.5246 12.6661 56.6385 12.688 56.6385 12.6428C56.6385 12.6298 56.6033 12.4518 56.5603 12.2473C56.5172 12.0428 56.4654 11.6914 56.445 11.4664C56.4095 11.0745 56.4142 11.0499 56.5569 10.8803C56.6388 10.7829 56.7826 10.6643 56.8763 10.6168C57.1515 10.4771 57.5058 10.1662 57.6499 9.938C57.8182 9.6715 57.8609 9.3566 57.7854 8.9383C57.5596 7.6863 57.4951 7.0837 57.5556 6.7915C57.6375 6.3956 57.927 5.97218 58.266 5.75252C58.4167 5.65493 58.5289 5.55718 58.5154 5.5353C58.5019 5.51348 58.3846 5.46885 58.2547 5.43619C57.9808 5.36718 57.4608 4.98696 57.3143 4.74852C57.0951 4.39176 56.9994 3.9484 56.9144 2.897Z" fill="white"/>
<path d="M76.3215 19.7741L76.3469 27.9632L81.0435 23.9667C86.0917 19.671 86.4682 19.3699 87.0134 19.1912C87.4444 19.0499 88.3053 19.1131 88.6869 19.3139C89.8541 19.9283 90.1944 21.7099 89.3349 22.7063C89.175 22.8918 87.6919 24.1145 86.0394 25.4234C84.3869 26.7322 83.0348 27.8333 83.0348 27.8702C83.0348 27.9072 83.6227 28.6289 84.3412 29.474C85.0597 30.3191 86.4935 32.0049 87.5272 33.2201C89.6808 35.7519 90.0026 36.2623 90.0026 37.1456C90.0026 38.2762 89.3396 39.1306 88.2902 39.3524C87.6957 39.478 87.1513 39.3737 86.5548 39.0201C86.2868 38.8612 85.2438 37.6483 82.9334 34.8088C81.1487 32.6153 79.6471 30.7665 79.5967 30.7004C79.5265 30.6083 79.1399 30.8662 77.9464 31.8012L76.3879 33.0223L76.342 35.369C76.2965 37.6991 76.2944 37.7195 76.0429 38.2407C75.7396 38.8694 75.3149 39.1881 74.5714 39.3453C73.665 39.5369 72.8278 39.2494 72.299 38.5653L72.2627 38.5187C72.2368 38.4858 72.2125 38.4549 72.1898 38.423C71.878 37.9854 71.8517 37.3446 71.8497 28.4123C71.8495 27.5884 71.8496 26.6939 71.8496 25.7225V24.6391C71.8496 12.059 71.8529 11.8162 72.0328 11.327C72.0462 11.2905 72.0605 11.2545 72.0755 11.219C72.3008 10.6871 72.7021 10.2793 73.1807 10.1009C73.2413 10.0784 73.3071 10.0586 73.3768 10.0416C73.8646 9.92251 74.5442 9.94001 74.9769 10.0954C75.0402 10.1182 75.1014 10.1436 75.1604 10.1717C75.574 10.3683 75.8851 10.6968 76.1018 11.165C76.1982 11.3733 76.2469 11.4949 76.2745 12.5798C76.3022 13.6647 76.3089 15.7128 76.3215 19.7741Z" fill="white"/>
<path fill-rule="evenodd" clip-rule="evenodd" d="M34.277 39.5943C36.5032 39.7742 38.8094 39.3891 40.6318 38.4448C41.5124 37.9885 41.9717 37.6538 42.7518 36.8994C43.3993 36.2733 43.7569 35.7222 43.8567 35.1887C43.8764 35.0834 43.8861 34.9788 43.886 34.8744C43.8844 33.5512 43.1258 32.7777 41.8237 32.7721C41.0565 32.7687 40.6179 32.9932 39.9061 33.7532C37.6565 36.1552 33.301 36.2224 31.0016 33.8905C30.205 33.0826 29.4983 31.7588 29.4939 31.0661L29.4925 30.8562H36.2664C37.0562 30.8562 37.7561 30.8559 38.377 30.8551C42.5094 30.8498 43.1454 30.8219 43.5089 30.7023C44.1077 30.5055 44.6306 30.0488 44.9057 29.4824C45.0016 29.2848 45.0556 29.1416 45.0853 28.9237C45.115 28.7058 45.1203 28.4131 45.1188 27.9167C45.1118 25.5483 44.2103 23.4328 42.4862 21.7405C40.1656 19.4628 36.9197 18.4748 33.3698 18.966C31.0823 19.2826 29.064 20.2659 27.5603 21.7966C26.0994 23.2836 25.2421 25.0489 24.8534 27.3699C24.6692 28.4699 24.721 30.7032 24.9558 31.7894C25.6164 34.8436 27.4852 37.2311 30.2504 38.5535C31.4614 39.1327 32.8528 39.4793 34.277 39.5943ZM29.4696 27.2165H40.7892L40.7291 26.9601C40.7227 26.9329 40.7151 26.9041 40.7063 26.8739C40.5508 26.3382 40.0326 25.358 39.6388 24.8683C39.1185 24.2213 38.2012 23.5901 37.2855 23.2491C36.6931 23.0284 36.4328 22.9888 35.406 22.9634C34.7505 22.947 34.1316 22.9537 34.0308 22.9784C33.2385 23.1713 32.9538 23.2639 32.4722 23.485C31.0666 24.1303 29.7814 25.6294 29.528 26.9191L29.4696 27.2165Z" fill="white"/>
<path fill-rule="evenodd" clip-rule="evenodd" d="M67.6199 24.927C66.3373 21.6892 63.5102 19.543 59.7568 18.9577C58.0473 18.691 55.6889 18.9193 54.1801 19.4974C50.5416 20.8914 48.2833 23.81 47.9894 27.4985C47.869 29.008 48.275 29.9987 49.2313 30.5298L49.7356 30.8097L63.7194 30.8609L63.6595 31.1153C63.4032 32.2036 62.9178 33.08 62.1181 33.8988C61.0109 35.0322 59.6269 35.5592 57.7577 35.5592C55.872 35.5592 54.5634 35.0537 53.3226 33.8461C52.4773 33.0235 52.1579 32.8286 51.5304 32.753C51.0069 32.6898 50.2731 32.9078 49.8824 33.2425C49.4698 33.5959 49.2001 34.3385 49.2562 34.9674C49.3147 35.624 49.4953 35.9828 50.0908 36.6253C51.3394 37.9724 53.0398 38.9067 55.0989 39.3772C56.2922 39.6499 59.1472 39.669 60.3248 39.4123C64.3911 38.5258 67.1215 35.9599 68.0887 32.1163C68.3304 31.1552 68.3468 30.9706 68.3439 29.2232C68.3404 27.1293 68.228 26.462 67.6199 24.927ZM56.0114 23.182C54.8306 23.6125 53.9609 24.2203 53.3533 25.0395C52.9732 25.5519 52.5211 26.4678 52.4053 26.9601L52.345 27.2168H63.6999L63.6521 27.0068C63.6259 26.8912 63.4444 26.4535 63.2489 26.0339C62.6389 24.7251 61.36 23.6269 59.9581 23.208C59.0699 22.9426 59.0022 22.9354 57.7119 22.9671C56.8104 22.9894 56.3961 23.0417 56.0114 23.182Z" fill="white"/>
<path d="M99.3537 18.9211C95.7437 19.3374 93.2935 21.0882 92.6229 23.7306C92.5298 24.0975 92.4774 24.7031 92.4774 25.4123C92.4774 27.207 92.873 28.3453 93.8341 29.3159C95.066 30.5598 97.4347 31.2297 100.602 31.2297C102.836 31.2297 104.314 31.4643 105.046 31.935C105.514 32.2353 105.684 32.571 105.669 33.1968C105.668 33.2231 105.667 33.2499 105.666 33.2772C105.665 33.298 105.664 33.3191 105.663 33.3405C105.643 33.6593 105.574 33.9203 105.437 34.1525C105.27 34.4372 105 34.6786 104.591 34.9302C104.105 35.2293 103.629 35.401 102.928 35.4896C102.477 35.5466 101.932 35.5693 101.233 35.5693C98.9787 35.5693 97.6637 35.239 96.1757 34.2989C94.9038 33.4951 94.7864 33.4498 94.0966 33.4965C93.5949 33.5306 93.3944 33.5929 93.0931 33.8084C92.2797 34.3903 91.9886 35.7346 92.4815 36.6327C92.9537 37.4931 94.9541 38.6875 96.6487 39.1209C99.2497 39.786 103.111 39.805 105.359 39.1637C106.531 38.8294 107.501 38.3259 108.255 37.6697C109.513 36.5759 110.172 35.0579 110.172 33.1917C110.172 33.1095 110.171 33.0282 110.17 32.9478C110.144 31.7608 109.924 30.7891 109.493 29.998C109.019 29.1299 108.289 28.4793 107.278 28.0004C105.913 27.3538 104.726 27.1513 101.6 27.0324C99.0117 26.9338 98.4187 26.8547 97.7407 26.5166C96.3827 25.8406 96.8767 23.9743 98.5897 23.3071C99.2407 23.0537 100.487 22.8305 101.251 22.8305C102.816 22.8305 104.283 23.2573 105.609 24.0994C106.891 24.9128 107.545 24.9927 108.419 24.4427C109.437 23.8018 109.639 22.2162 108.825 21.2486C108.425 20.7724 107.228 20.0191 106.282 19.6476C104.516 18.9545 101.661 18.655 99.3537 18.9211Z" fill="white"/>
<path fill-rule="evenodd" clip-rule="evenodd" d="M7.7807 18.9641C5.43241 19.3124 3.28642 20.5704 1.93357 22.3917C0.529191 24.2825 -0.199399 27.2188 0.0474909 29.993C0.466941 34.706 3.07849 37.8363 7.3513 38.7475C8.2505 38.9392 10.3659 38.9695 11.3337 38.8045C12.4106 38.621 13.4103 38.2628 14.2942 37.7487C14.8159 37.4453 15.2971 37.0877 15.7302 36.6795L16.4077 36.0407L16.358 37.4847C16.3374 38.0833 16.3029 38.5654 16.2548 38.9257C16.226 39.1419 16.1923 39.3144 16.1538 39.442C15.6367 41.1609 14.3085 42.4177 12.4396 42.9565C11.5111 43.2243 8.8091 43.1998 7.8295 42.9148C6.8697 42.6356 6.0785 42.2303 5.32157 41.63C4.35635 40.8647 4.04591 40.7167 3.409 40.7182C2.10758 40.7214 1.34405 41.4833 1.34818 42.7746C1.35075 43.5743 1.55465 44.0494 2.15956 44.6652C3.81524 46.3505 6.7662 47.3003 10.3768 47.3101C11.0912 47.312 11.7309 47.2847 12.3211 47.2234C13.602 47.0905 14.6498 46.7976 15.7226 46.2955C17.9542 45.2511 19.5633 43.4365 20.3122 41.1193L20.3524 40.995C20.4226 40.779 20.4821 40.5958 20.5326 40.4102C20.5821 40.2283 20.6231 40.044 20.6571 39.8242C20.8044 38.8721 20.8213 37.2527 20.8408 32.2651L20.8486 30.2136C20.8661 25.5766 20.8591 22.8058 20.8253 21.5704C20.814 21.1586 20.7998 20.9174 20.7825 20.8345C20.5717 19.826 19.8636 19.2061 18.8266 19.1222C18.0924 19.063 17.6075 19.2035 17.1392 19.6116C16.707 19.9881 16.3819 20.7368 16.3819 21.3555V21.74L15.8089 21.1833C15.4938 20.8771 15.0503 20.4981 14.8234 20.3411C13.0037 19.0824 10.4071 18.5747 7.7807 18.9641ZM16.0771 26.8827C16.2486 27.4138 16.3028 27.6893 16.3205 28.3411C16.3245 28.4888 16.3266 28.656 16.3278 28.8498C16.3309 29.3629 16.3241 29.6952 16.2938 29.9738C16.2865 30.041 16.2778 30.1051 16.2676 30.1679C16.236 30.3616 16.1896 30.5424 16.1226 30.7629C15.3963 33.1551 13.5199 34.55 10.7654 34.7453C7.8516 34.9519 5.4954 33.349 4.77405 30.6696C4.54851 29.8318 4.54851 27.961 4.77405 27.1233C5.08993 25.9499 5.69074 24.9929 6.5334 24.2939C7.1816 23.7561 7.973 23.371 8.8879 23.1574C9.614 22.9879 11.4457 23.0353 12.2104 23.2434C14.1055 23.7591 15.4895 25.0617 16.0771 26.8827Z" fill="white"/>
<path fill-rule="evenodd" clip-rule="evenodd" d="M53.8356 0.0977104C53.4763 0.15203 52.9375 0.22028 52.6382 0.24934C52.3388 0.27846 51.6408 0.36614 51.087 0.44424L49.3182 0.693621C48.8991 0.752671 48.2991 0.83801 47.9848 0.88329C47.2151 0.99421 45.9521 1.16843 45.6172 1.20985C45.4676 1.22835 45.1614 1.27723 44.9369 1.31837C44.7124 1.35958 44.1368 1.44513 43.6579 1.50859C43.1789 1.572 42.5422 1.6605 42.2428 1.70523C41.9435 1.74997 41.5026 1.81055 41.2631 1.83983C41.0237 1.86911 40.5951 1.92947 40.3107 1.97399C40.0263 2.01846 39.3528 2.11517 38.814 2.18886C37.2817 2.3984 37.1838 2.41696 36.0057 2.7218C34.839 3.02365 34.0961 3.42896 33.7051 3.97676C33.5545 4.18782 33.3469 4.88203 33.3445 5.18289C33.3438 5.2727 33.4192 5.80275 33.5121 6.3608C33.6592 7.2449 33.6731 7.4131 33.6201 7.6684C33.5116 8.1907 33.2664 8.4574 32.7727 8.5904C32.3425 8.7062 32.1982 8.7961 32.1122 9.0021C32.0025 9.2646 32.0529 9.506 32.2586 9.7031C32.4115 9.8496 32.4572 9.8619 32.8884 9.8729C33.456 9.8875 33.6853 9.9899 33.9183 10.3333C34.1131 10.6204 34.191 10.9413 34.2729 11.7957C34.3352 12.4442 34.4955 13.1491 34.6283 13.3585C34.6704 13.4248 34.7048 13.5114 34.7048 13.551C34.7048 13.6598 35.1915 14.1096 35.4476 14.2375C35.5718 14.2995 35.8469 14.3983 36.0592 14.4571C36.2714 14.5159 36.4661 14.5771 36.492 14.5931C36.5179 14.6091 36.5687 14.8863 36.605 15.2091C36.6413 15.5318 36.7097 16.0164 36.7569 16.2858C36.8331 16.7199 36.8641 16.7958 37.0295 16.9525C37.1746 17.09 37.2635 17.1294 37.4287 17.1294C37.7308 17.1294 37.8756 17.0197 38.5171 16.3047C38.83 15.9559 39.3571 15.3677 39.6883 14.9977C40.35 14.2585 40.3814 14.2406 41.1543 14.1611C41.4752 14.128 42.231 14.019 43.5763 13.8116C43.9504 13.754 44.379 13.6924 44.5287 13.6749C44.7902 13.6442 45.3577 13.5644 47.0595 13.3187C47.4936 13.256 48.0201 13.1842 48.2297 13.159C48.89 13.0798 49.8406 12.9396 50.4611 12.8299C51.1145 12.7144 52.1705 12.5615 53.3201 12.416L54.0564 12.3228L54.3814 12.5307C54.5601 12.645 54.8043 12.805 54.9241 12.8861C55.6824 13.3999 57.2132 14.2992 57.3293 14.2992C57.732 14.2992 58.0781 13.9382 58.0336 13.5645C57.9794 13.1089 57.7756 11.7103 57.7517 11.6298C57.7354 11.5751 57.8043 11.4989 57.9488 11.4121C58.3603 11.1648 58.698 10.8755 58.8744 10.619C59.2088 10.133 59.3289 9.446 59.1992 8.7618C59.0484 7.9669 58.9758 7.1557 59.0295 6.8655C59.1213 6.3685 59.4591 6.04 59.9785 5.94263C60.3954 5.86441 60.6331 5.49236 60.5011 5.12477C60.4072 4.86341 60.2067 4.75685 59.7716 4.73703C59.2697 4.71412 59.0902 4.65028 58.8483 4.4083C58.5947 4.15468 58.4607 3.71551 58.3791 2.86979C58.2474 1.50565 57.9707 0.903 57.2538 0.4192C56.6691 0.0245602 55.2202 -0.11167 53.8356 0.0977104ZM56.9144 2.897C56.8451 2.03843 56.6319 1.61489 56.1172 1.31331C55.9185 1.19684 55.797 1.17093 55.3746 1.15493C54.8368 1.13458 54.2803 1.17904 53.4001 1.31277C53.1008 1.35821 52.3171 1.45858 51.6585 1.53575C51 1.61298 50.2285 1.7116 49.9441 1.75493C49.6597 1.7983 49.1209 1.87053 48.7467 1.91548C47.7195 2.03876 45.9601 2.27676 43.9028 2.57066C43.349 2.6498 42.5653 2.75903 42.1612 2.81351C40.4488 3.04411 38.1344 3.41432 36.8274 3.66664C35.8355 3.85816 35.2768 4.15342 34.9713 4.64778C34.8492 4.84534 34.8486 4.85557 34.9134 5.64105C34.9495 6.0775 35.0153 6.5549 35.0596 6.7019C35.187 7.1241 35.1655 7.7626 35.0123 8.1067C34.8934 8.3737 34.4992 8.8075 34.2475 8.9484C34.1321 9.013 34.1739 9.1288 34.3127 9.1288C34.4921 9.1288 34.9921 9.4287 35.1927 9.6566C35.4666 9.9677 35.618 10.4097 35.6848 11.0928C35.7922 12.1917 35.9424 12.7496 36.1943 12.9863C36.3721 13.1533 36.9329 13.4284 37.0959 13.4286C37.2723 13.4289 37.5567 13.6001 37.6714 13.7752C37.7457 13.8885 37.914 14.8629 37.9155 15.1882C37.9157 15.2431 37.937 15.2798 37.9627 15.2698C38.0214 15.2471 38.4904 14.6911 38.9378 14.1139C39.1257 13.8716 39.3904 13.5587 39.526 13.4187C39.8063 13.1293 39.895 13.1015 40.9775 12.9637C41.3441 12.917 41.684 12.8671 41.7327 12.8527C41.7814 12.8384 42.1978 12.7789 42.658 12.7205C43.1181 12.6622 43.6416 12.5908 43.8212 12.5619C44.0008 12.5329 44.6253 12.4451 45.209 12.3666C45.7927 12.2882 46.4295 12.1998 46.6241 12.1702C47.2757 12.0711 48.4389 11.901 49.3998 11.7643L51.1142 11.52C51.5333 11.4603 52.1824 11.3753 52.5565 11.3312C52.9307 11.2871 53.4573 11.2169 53.7267 11.1753L54.2165 11.0994L54.7064 11.4302C54.9758 11.6122 55.4656 11.9386 55.7949 12.1557C56.1242 12.3727 56.4232 12.5764 56.4593 12.6083C56.5246 12.6661 56.6385 12.688 56.6385 12.6428C56.6385 12.6298 56.6033 12.4518 56.5603 12.2473C56.5172 12.0428 56.4654 11.6914 56.445 11.4664C56.4095 11.0745 56.4141 11.0499 56.5569 10.8803C56.6388 10.7829 56.7826 10.6643 56.8763 10.6168C57.1515 10.4771 57.5058 10.1662 57.6499 9.938C57.8182 9.6715 57.8608 9.3565 57.7854 8.9383C57.5596 7.6863 57.495 7.0837 57.5556 6.7915C57.6375 6.3956 57.927 5.97218 58.2659 5.75252C58.4166 5.65493 58.5289 5.55718 58.5154 5.5353C58.5019 5.51348 58.3846 5.46885 58.2547 5.43619C57.9808 5.36718 57.4607 4.98696 57.3142 4.74852C57.0951 4.39176 56.9993 3.9484 56.9144 2.897Z" fill="url(#paint0_linear)"/>
<path d="M59.0154 7.27341C58.5484 7.52031 58.0879 7.77361 57.6338 8.03341C57.6725 8.28911 57.723 8.58811 57.7861 8.93781C57.8615 9.35611 57.8188 9.67101 57.6505 9.93761C57.5065 10.1658 57.1521 10.4766 56.8769 10.6163C56.7832 10.6638 56.6395 10.7824 56.5576 10.8798C56.4148 11.0494 56.4101 11.074 56.4457 11.4659C56.466 11.6909 56.5179 12.0423 56.5609 12.2468C56.6039 12.4513 56.6391 12.6293 56.6391 12.6423C56.6391 12.6875 56.5253 12.6657 56.46 12.6079C56.4238 12.5759 56.1248 12.3722 55.7955 12.1552C55.4663 11.9381 54.9764 11.6117 54.707 11.4297L54.2172 11.0989L53.7274 11.1748C53.4826 11.2126 53.0257 11.274 52.6636 11.318C52.0465 11.7866 51.4456 12.2682 50.8613 12.7622C51.5068 12.6579 52.3826 12.5342 53.3207 12.4155L54.0571 12.3223L54.382 12.5302C54.5608 12.6445 54.805 12.8045 54.9247 12.8856C55.6831 13.3994 57.2139 14.2988 57.3299 14.2988C57.7326 14.2988 58.0788 13.9377 58.0343 13.564C57.98 13.1085 57.7762 11.7098 57.7523 11.6293C57.7361 11.5746 57.805 11.4984 57.9495 11.4116C58.3609 11.1643 58.6986 10.875 58.8751 10.6185C59.2094 10.1326 59.3296 9.44551 59.1998 8.76131C59.0962 8.21491 59.0295 7.66071 59.0154 7.27341Z" fill="url(#paint1_linear)"/>
<path fill-rule="evenodd" clip-rule="evenodd" d="M37.8451 5.88202C37.7895 5.92565 37.7682 5.96995 37.7759 6.02629C37.7787 6.04689 37.8767 6.72209 37.9936 7.52669C38.1828 8.82849 38.2673 9.34499 38.3402 9.64359L38.3624 9.73429L38.4575 9.74749C38.581 9.76469 38.822 9.74179 38.9786 9.69799C39.4539 9.56499 39.9709 9.23379 40.3694 8.80679C40.5321 8.63249 40.7527 8.32639 40.8504 8.13939C40.9539 7.94109 41.0447 7.66649 41.0621 7.49919C41.0804 7.32249 41.0352 7.05299 40.9667 6.92999C40.9036 6.81679 40.7788 6.71719 40.6529 6.67959C40.5608 6.65219 40.5392 6.65169 40.3811 6.67429C40.1851 6.70239 40.057 6.75129 39.8317 6.88399C39.4165 7.12859 38.9439 7.58349 38.6766 7.99579C38.6263 8.07329 38.5806 8.13739 38.575 8.13819C38.5695 8.13899 38.5232 7.87639 38.4722 7.55469C38.2901 6.40519 38.2023 5.90277 38.1802 5.88266C38.1044 5.81364 37.9327 5.81331 37.8451 5.88202ZM47.3501 4.53889C47.256 4.60297 47.2489 4.50768 47.4565 5.97156C47.6864 7.59279 47.8215 8.37669 47.875 8.40019C47.9292 8.42399 48.0998 8.42199 48.2857 8.39519C48.6083 8.34879 48.8928 8.23019 49.2427 7.99629C49.5706 7.77699 49.8066 7.56239 50.0367 7.27369C50.4212 6.79169 50.6105 6.28759 50.5544 5.89537C50.4756 5.34508 50.0603 5.17758 49.4828 5.46317C49.202 5.60198 48.8239 5.89452 48.5536 6.18199C48.4315 6.31169 48.1986 6.61139 48.1189 6.74109L48.0693 6.82179L48.0073 6.45209C47.9731 6.24879 47.8911 5.74726 47.825 5.33761C47.7446 4.83902 47.6977 4.58252 47.6831 4.56173C47.6311 4.48723 47.4448 4.47447 47.3501 4.53889ZM41.1546 5.43127C41.122 5.45352 41.0838 5.49389 41.0697 5.521L41.0441 5.57029L41.1512 6.20489C41.2591 6.84469 41.3296 7.25879 41.5528 8.56519L41.6748 9.27929L41.719 9.30539C41.8466 9.38079 42.043 9.34179 42.0682 9.23609C42.0792 9.18989 42.0774 9.17849 41.8344 7.74869C41.7649 7.33949 41.6646 6.74689 41.6116 6.43179C41.4866 5.68894 41.4414 5.44303 41.4269 5.42705C41.3707 5.36514 41.2486 5.36703 41.1546 5.43127ZM50.6455 4.10002C50.6155 4.12308 50.579 4.16652 50.5643 4.19656C50.5398 4.24689 50.54 4.2635 50.5672 4.40919C50.5834 4.49611 50.6383 4.81502 50.6893 5.11787C50.8321 5.96515 50.9541 6.68099 51.0386 7.16739C51.0809 7.41079 51.1258 7.68319 51.1384 7.77279L51.1613 7.93569L51.2119 7.96739C51.3065 8.02669 51.4386 8.02569 51.5124 7.96519C51.5925 7.89939 51.616 8.07869 51.2386 5.87855C51.1923 5.60856 51.1052 5.09757 51.0452 4.743L50.936 4.09833L50.8878 4.06816C50.8239 4.02809 50.7217 4.04154 50.6455 4.10002ZM43.814 6.22349C43.2037 6.41169 42.5933 7.04909 42.3404 7.76229C42.2243 8.08959 42.1936 8.38139 42.248 8.63989C42.2941 8.85859 42.3182 8.91089 42.408 8.98629C42.5483 9.10419 42.7053 9.13499 43.0233 9.10689C43.4204 9.07179 43.7597 8.92519 44.0514 8.66259C44.1837 8.54359 44.3834 8.28779 44.4634 8.13479C44.4965 8.07169 44.5279 8.01899 44.5333 8.01779C44.5387 8.01649 44.5707 8.19549 44.6044 8.41569L44.6658 8.81589L44.717 8.87139C44.8147 8.97709 44.9111 8.99429 45.0151 8.92459C45.05 8.90119 45.09 8.85999 45.104 8.83309C45.1281 8.78669 45.1276 8.77699 45.0937 8.64919C45.0347 8.42659 45.0152 8.32209 44.8991 7.60739C44.7627 6.76739 44.7252 6.62709 44.5769 6.40209C44.4883 6.26749 44.4026 6.20349 44.2879 6.18629C44.2066 6.17409 43.8947 6.19859 43.814 6.22349ZM53.275 4.89946C53.0423 4.97061 52.7264 5.17508 52.4964 5.40342C52.0478 5.84882 51.7532 6.43989 51.7173 6.96629C51.7034 7.16989 51.7721 7.49999 51.85 7.60369C51.9436 7.72829 52.1401 7.79139 52.4037 7.78149C52.8412 7.76499 53.2108 7.62089 53.5256 7.34389C53.6853 7.20339 53.8767 6.96299 53.9697 6.78579C54.0044 6.71969 54.028 6.68959 54.0368 6.70019C54.0443 6.70919 54.0723 6.87819 54.0991 7.07569C54.1539 7.47929 54.1682 7.52089 54.2759 7.59169C54.3842 7.66279 54.477 7.64369 54.5704 7.53109L54.6307 7.45839L54.6017 7.36349C54.5514 7.19879 54.4762 6.80809 54.4248 6.44409C54.3584 5.97302 54.2732 5.53743 54.2138 5.36488C54.0998 5.03349 53.97 4.87896 53.7815 4.84993C53.6904 4.83592 53.3853 4.86574 53.275 4.89946ZM44.0996 6.63229C44.4234 6.67499 44.4424 7.24359 44.141 7.86939C43.9424 8.28169 43.5916 8.63749 43.271 8.75179C43.075 8.82159 42.8968 8.80439 42.7767 8.70399C42.6842 8.62659 42.6536 8.56619 42.6332 8.42099C42.6131 8.27769 42.6328 8.13569 42.7007 7.93489C42.8265 7.56249 43.147 7.11089 43.4478 6.88249C43.6836 6.70339 43.9279 6.60959 44.0996 6.63229ZM53.6491 5.3129C53.8648 5.38856 53.9131 5.73764 53.7717 6.19929C53.6564 6.57599 53.4247 6.93949 53.1416 7.18809C52.9746 7.33479 52.7764 7.43619 52.6095 7.46039C52.4543 7.48289 52.2706 7.40519 52.19 7.28279C51.9425 6.90729 52.3946 5.92129 53.0057 5.50413C53.2603 5.33031 53.4976 5.25977 53.6491 5.3129ZM40.4839 7.17559C40.5567 7.19489 40.6103 7.23529 40.6537 7.30359C40.7034 7.38189 40.7037 7.39259 40.6592 7.55479C40.5462 7.96729 40.2696 8.37969 39.8622 8.74329C39.5077 9.05969 38.9837 9.34039 38.8072 9.30849L38.7499 9.29809L38.7416 9.17549C38.7191 8.84449 38.8643 8.46689 39.1733 8.05319C39.4453 7.68909 39.766 7.40089 40.0525 7.26309C40.1035 7.23859 40.1549 7.21389 40.1667 7.20819C40.216 7.18439 40.4332 7.16209 40.4839 7.17559ZM49.9797 5.84278C50.0977 5.87369 50.1768 5.96608 50.1799 6.07649C50.1824 6.16749 50.0779 6.47149 49.9886 6.63309C49.7722 7.02469 49.4194 7.40079 49.0165 7.66929C48.7312 7.85939 48.4472 7.98509 48.3196 7.97769C48.257 7.97409 48.2502 7.96389 48.2385 7.85539C48.2165 7.65129 48.2784 7.39069 48.4135 7.11849C48.4968 6.95069 48.731 6.61769 48.8762 6.46049C49.0903 6.22889 49.381 6.00239 49.5818 5.91079C49.7122 5.85133 49.8938 5.82027 49.9797 5.84278Z" fill="#AB04DE"/>
<path d="M72.0328 11.327C72.2476 10.7425 72.6701 10.2912 73.1807 10.101C73.6653 9.9204 74.4824 9.9179 74.9768 10.0954C75.4832 10.2773 75.8541 10.6299 76.1018 11.165C76.2946 11.5815 76.2963 11.6515 76.3214 19.7741L76.3468 27.9632L81.0435 23.9667C86.0917 19.671 86.4681 19.3699 87.0133 19.1912C87.4443 19.0499 88.3052 19.1131 88.6868 19.3139C89.854 19.9284 90.1943 21.7099 89.3349 22.7063C89.1749 22.8918 87.6919 24.1145 86.0393 25.4234C84.3869 26.7322 83.0347 27.8333 83.0347 27.8702C83.0347 27.9072 83.6227 28.6289 84.3412 29.474C85.0597 30.3192 86.4934 32.005 87.5271 33.2201C89.6807 35.7519 90.0025 36.2623 90.0025 37.1456C90.0025 38.2762 89.3396 39.1306 88.2902 39.3524C87.6956 39.478 87.1512 39.3737 86.5548 39.0201C86.2868 38.8612 85.2438 37.6483 82.9333 34.8088C81.1487 32.6153 79.6471 30.7665 79.5967 30.7004C79.5265 30.6083 79.1398 30.8662 77.9464 31.8012L76.3878 33.0223L76.342 35.369C76.2965 37.6991 76.2943 37.7195 76.0428 38.2407C75.7395 38.8694 75.3149 39.1881 74.5713 39.3453C73.665 39.5369 72.8277 39.2494 72.299 38.5653L72.2626 38.5187C72.2368 38.4858 72.2124 38.4549 72.1897 38.423C71.8492 37.9451 71.8493 37.2246 71.8496 25.7219V24.6391C71.8496 12.059 71.8529 11.8163 72.0328 11.327Z" fill="url(#paint2_linear)"/>
<path d="M92.6228 23.7306C93.2935 21.0882 95.7437 19.3374 99.3537 18.9211C101.661 18.655 104.516 18.9545 106.282 19.6476C107.228 20.0191 108.425 20.7724 108.825 21.2486C109.639 22.2162 109.437 23.8018 108.419 24.4427C107.545 24.9927 106.891 24.9128 105.609 24.0994C104.282 23.2573 102.816 22.8305 101.251 22.8305C100.486 22.8305 99.2407 23.0537 98.5897 23.3071C96.8767 23.9743 96.3827 25.8406 97.7407 26.5166C98.4187 26.8547 99.0117 26.9338 101.6 27.0324C104.726 27.1514 105.913 27.3538 107.278 28.0004C109.273 28.9451 110.172 30.5584 110.172 33.1918C110.172 36.1777 108.484 38.2722 105.359 39.1637C103.111 39.805 99.2497 39.786 96.6487 39.1209C94.954 38.6875 92.9536 37.4932 92.4815 36.6327C91.9886 35.7347 92.2797 34.3903 93.0931 33.8084C93.3943 33.5929 93.5948 33.5306 94.0965 33.4966C94.7863 33.4498 94.9038 33.4952 96.1757 34.299C97.6637 35.239 98.9787 35.5693 101.233 35.5693C103.018 35.5693 103.793 35.4219 104.591 34.9303C105.333 34.4735 105.618 34.0502 105.663 33.3406C105.708 32.6208 105.548 32.2576 105.046 31.935C104.314 31.4643 102.836 31.2297 100.602 31.2297C97.4347 31.2297 95.066 30.5598 93.834 29.3159C92.8729 28.3453 92.4773 27.207 92.4773 25.4123C92.4773 24.7031 92.5298 24.0975 92.6228 23.7306Z" fill="url(#paint3_linear)"/>
<path fill-rule="evenodd" clip-rule="evenodd" d="M1.93357 22.3919C3.28642 20.5706 5.43241 19.3125 7.7807 18.9643C10.4071 18.5748 13.0037 19.0825 14.8234 20.3413C15.0503 20.4982 15.4938 20.8772 15.8089 21.1834L16.3819 21.7402V21.3556C16.3819 20.737 16.707 19.9882 17.1392 19.6117C17.6075 19.2036 18.0924 19.0631 18.8266 19.1224C19.8636 19.2063 20.5717 19.8261 20.7825 20.8347C20.8517 21.1662 20.8719 24.0311 20.8486 30.2137L20.8457 30.968C20.8184 38.2655 20.8143 39.3756 20.5326 40.4102C20.4821 40.5958 20.4226 40.779 20.3524 40.995L20.3122 41.1193C19.5633 43.4365 17.9542 45.2511 15.7226 46.2955C14.1555 47.029 12.6415 47.3163 10.3768 47.3102C6.7662 47.3004 3.81524 46.3507 2.15956 44.6653C1.55465 44.0495 1.35075 43.5745 1.34818 42.7748C1.34405 41.4835 2.10758 40.7216 3.409 40.7184C4.04591 40.7168 4.35635 40.8648 5.32157 41.6302C6.0785 42.2304 6.8697 42.6357 7.8295 42.915C8.8091 43.2 11.5111 43.2244 12.4396 42.9567C14.3085 42.4178 15.6367 41.161 16.1538 39.4422C16.2563 39.1017 16.3251 38.4428 16.358 37.4848L16.4077 36.0407L15.7302 36.6795C14.5634 37.7794 13.0462 38.5128 11.3337 38.8047C10.3659 38.9697 8.2505 38.9394 7.3513 38.7477C3.07849 37.8364 0.466941 34.7062 0.0474909 29.9931C-0.199399 27.219 0.529191 24.2826 1.93357 22.3919ZM16.0771 26.8828C15.4895 25.0619 14.1055 23.7593 12.2104 23.2435C11.4457 23.0354 9.614 22.988 8.8879 23.1575C6.7836 23.6489 5.33294 25.0474 4.77405 27.1234C4.54851 27.9612 4.54851 29.8319 4.77405 30.6697C5.4954 33.3491 7.8516 34.9521 10.7654 34.7455C13.5199 34.5501 15.3963 33.1552 16.1226 30.763C16.3012 30.175 16.3339 29.8692 16.3278 28.8499C16.3214 27.8012 16.2874 27.5344 16.0771 26.8828Z" fill="url(#paint4_linear)"/>
<path d="M12.3213 47.2236C13.6022 47.0906 14.6501 46.7976 15.7229 46.2955C17.9545 45.2511 19.5636 43.4364 20.3124 41.1193L20.3527 40.995C20.4229 40.7789 20.4823 40.5958 20.5329 40.4102C20.8146 39.3756 20.8187 38.2655 20.846 30.968L20.8489 30.2137C20.8722 24.0311 20.852 21.1661 20.7828 20.8346C20.6405 20.1541 20.2718 19.6505 19.7284 19.3691C18.4553 22.7955 17.3128 26.3645 16.2941 29.9737C16.2643 30.2485 16.2116 30.471 16.1229 30.763C16.0603 30.9691 15.9892 31.1678 15.9097 31.3589C15.3292 33.4865 14.7913 35.6234 14.2945 37.7488C14.8161 37.4454 15.2974 37.0877 15.7305 36.6795L16.408 36.0407L16.3583 37.4848C16.3254 38.4428 16.2566 39.1017 16.1541 39.4422C15.711 40.915 14.6724 42.0485 13.2084 42.6819C12.8915 44.2133 12.596 45.7299 12.3213 47.2236Z" fill="url(#paint5_linear)"/>
<path fill-rule="evenodd" clip-rule="evenodd" d="M33.3698 18.966C31.0823 19.2825 29.064 20.2659 27.5603 21.7966C26.0994 23.2836 25.2421 25.0488 24.8534 27.3699C24.6692 28.4698 24.721 30.7032 24.9559 31.7894C25.6164 34.8436 27.4852 37.2311 30.2504 38.5535C33.3543 40.0379 37.6436 39.9929 40.6319 38.4445C41.5125 37.9882 41.9717 37.6535 42.7518 36.8991C43.5272 36.1495 43.8868 35.5073 43.886 34.8741C43.8844 33.5509 43.1258 32.7777 41.8237 32.7721C41.0565 32.7687 40.6179 32.9931 39.9061 33.7532C37.6565 36.1552 33.301 36.2224 31.0016 33.8905C30.205 33.0826 29.4983 31.7587 29.4939 31.0661L29.4925 30.8561H36.2664C42.312 30.8561 43.0908 30.8396 43.5089 30.702C44.1077 30.5052 44.6306 30.0485 44.9057 29.4821C45.0976 29.0869 45.1218 28.9093 45.1188 27.9164C45.1119 25.548 44.2103 23.4327 42.4862 21.7405C40.1656 19.4627 36.9197 18.4748 33.3698 18.966ZM37.2855 23.2491C38.2012 23.5901 39.1185 24.2212 39.6388 24.8683C40.0548 25.3856 40.6097 26.45 40.7291 26.9598L40.7893 27.2165H29.4696L29.528 26.9191C29.7814 25.6293 31.0666 24.1303 32.4722 23.4849C32.9538 23.2638 33.2385 23.1713 34.0308 22.9784C34.1316 22.9537 34.7505 22.947 35.406 22.9633C36.4328 22.9888 36.6931 23.0284 37.2855 23.2491Z" fill="url(#paint6_linear)"/>
<path d="M105.669 33.1969C106.937 32.136 108.214 31.0681 109.493 29.998C109.954 30.8427 110.172 31.8932 110.172 33.1917C110.172 36.1776 108.484 38.2722 105.359 39.1636C103.531 39.6851 100.636 39.77 98.2197 39.4259C99.7607 38.1375 101.335 36.822 102.928 35.4896C103.629 35.401 104.105 35.2293 104.591 34.9303C105.333 34.4734 105.618 34.0501 105.663 33.3406C105.666 33.291 105.668 33.2431 105.669 33.1969Z" fill="#00DDBC"/>
<path fill-rule="evenodd" clip-rule="evenodd" d="M53.8356 0.0977104C53.4763 0.15203 52.9375 0.22028 52.6382 0.24934C52.3388 0.27846 51.6408 0.36614 51.087 0.44424L49.3182 0.693621C48.8991 0.752671 48.2991 0.83801 47.9848 0.88329C47.2151 0.99421 45.9521 1.16843 45.6172 1.20985C45.4676 1.22835 45.1614 1.27723 44.9369 1.31837C44.7124 1.35958 44.1368 1.44513 43.6579 1.50859C43.1789 1.572 42.5422 1.6605 42.2428 1.70523C41.9435 1.74997 41.5026 1.81055 41.2631 1.83983C41.0237 1.86911 40.5951 1.92947 40.3107 1.97399C40.0263 2.01846 39.3528 2.11517 38.814 2.18886C37.2817 2.3984 37.1838 2.41696 36.0057 2.7218C34.839 3.02365 34.0961 3.42896 33.7051 3.97676C33.5545 4.18782 33.3469 4.88203 33.3445 5.18289C33.3438 5.2727 33.4192 5.80275 33.5121 6.3608C33.6592 7.2449 33.6731 7.4131 33.6201 7.6684C33.5116 8.1907 33.2664 8.4574 32.7727 8.5904C32.3425 8.7062 32.1982 8.7961 32.1122 9.0021C32.0025 9.2646 32.0529 9.506 32.2586 9.7031C32.4115 9.8496 32.4572 9.8619 32.8884 9.8729C33.456 9.8875 33.6853 9.9899 33.9183 10.3333C34.1131 10.6204 34.191 10.9413 34.2729 11.7957C34.3352 12.4442 34.4955 13.1491 34.6283 13.3585C34.6704 13.4248 34.7048 13.5114 34.7048 13.551C34.7048 13.6598 35.1915 14.1096 35.4476 14.2375C35.5718 14.2995 35.8469 14.3983 36.0592 14.4571C36.2714 14.5159 36.4661 14.5771 36.492 14.5931C36.5179 14.6091 36.5687 14.8863 36.605 15.2091C36.6413 15.5318 36.7097 16.0164 36.7569 16.2858C36.8331 16.7199 36.8641 16.7958 37.0295 16.9525C37.1746 17.09 37.2635 17.1294 37.4287 17.1294C37.7308 17.1294 37.8756 17.0197 38.5171 16.3047C38.83 15.9559 39.3571 15.3677 39.6883 14.9977C40.35 14.2585 40.3814 14.2406 41.1543 14.1611C41.4752 14.128 42.231 14.019 43.5763 13.8116C43.9504 13.754 44.379 13.6924 44.5287 13.6749C44.7902 13.6442 45.3577 13.5644 47.0595 13.3187C47.4936 13.256 48.0201 13.1842 48.2297 13.159C48.89 13.0798 49.8406 12.9396 50.4611 12.8299C51.1145 12.7144 52.1705 12.5615 53.3201 12.416L54.0564 12.3228L54.3814 12.5307C54.5601 12.645 54.8043 12.805 54.9241 12.8861C55.6824 13.3999 57.2132 14.2992 57.3293 14.2992C57.732 14.2992 58.0781 13.9382 58.0336 13.5645C57.9794 13.1089 57.7756 11.7103 57.7517 11.6298C57.7354 11.5751 57.8043 11.4989 57.9488 11.4121C58.3603 11.1648 58.698 10.8755 58.8744 10.619C59.2088 10.133 59.3289 9.446 59.1992 8.7618C59.0484 7.9669 58.9758 7.1557 59.0295 6.8655C59.1213 6.3685 59.4591 6.04 59.9785 5.94263C60.3954 5.86441 60.6331 5.49236 60.5011 5.12477C60.4072 4.86341 60.2067 4.75685 59.7716 4.73703C59.2697 4.71412 59.0902 4.65028 58.8483 4.4083C58.5947 4.15468 58.4607 3.71551 58.3791 2.86979C58.2474 1.50565 57.9707 0.903 57.2538 0.4192C56.6691 0.0245602 55.2202 -0.11167 53.8356 0.0977104ZM56.9144 2.897C56.8451 2.03843 56.6319 1.61489 56.1172 1.31331C55.9185 1.19684 55.797 1.17093 55.3746 1.15493C54.8368 1.13458 54.2803 1.17904 53.4001 1.31277C53.1008 1.35821 52.3171 1.45858 51.6585 1.53575C51 1.61298 50.2285 1.7116 49.9441 1.75493C49.6597 1.7983 49.1209 1.87053 48.7467 1.91548C47.7195 2.03876 45.9601 2.27676 43.9028 2.57066C43.349 2.6498 42.5653 2.75903 42.1612 2.81351C40.4488 3.04411 38.1344 3.41432 36.8274 3.66664C35.8355 3.85816 35.2768 4.15342 34.9713 4.64778C34.8492 4.84534 34.8486 4.85557 34.9134 5.64105C34.9495 6.0775 35.0153 6.5549 35.0596 6.7019C35.187 7.1241 35.1655 7.7626 35.0123 8.1067C34.8934 8.3737 34.4992 8.8075 34.2475 8.9484C34.1321 9.013 34.1739 9.1288 34.3127 9.1288C34.4921 9.1288 34.9921 9.4287 35.1927 9.6566C35.4666 9.9677 35.618 10.4097 35.6848 11.0928C35.7922 12.1917 35.9424 12.7496 36.1943 12.9863C36.3721 13.1533 36.9329 13.4284 37.0959 13.4286C37.2723 13.4289 37.5567 13.6001 37.6714 13.7752C37.7457 13.8885 37.914 14.8629 37.9155 15.1882C37.9157 15.2431 37.937 15.2798 37.9627 15.2698C38.0214 15.2471 38.4904 14.6911 38.9378 14.1139C39.1257 13.8716 39.3904 13.5587 39.526 13.4187C39.8063 13.1293 39.895 13.1015 40.9775 12.9637C41.3441 12.917 41.684 12.8671 41.7327 12.8527C41.7814 12.8384 42.1978 12.7789 42.658 12.7205C43.1181 12.6622 43.6416 12.5908 43.8212 12.5619C44.0008 12.5329 44.6253 12.4451 45.209 12.3666C45.7927 12.2882 46.4295 12.1998 46.6241 12.1702C47.2757 12.0711 48.4389 11.901 49.3998 11.7643L51.1142 11.52C51.5333 11.4603 52.1824 11.3753 52.5565 11.3312C52.9307 11.2871 53.4573 11.2169 53.7267 11.1753L54.2165 11.0994L54.7064 11.4302C54.9758 11.6122 55.4656 11.9386 55.7949 12.1557C56.1242 12.3727 56.4232 12.5764 56.4593 12.6083C56.5246 12.6661 56.6385 12.688 56.6385 12.6428C56.6385 12.6298 56.6033 12.4518 56.5603 12.2473C56.5172 12.0428 56.4654 11.6914 56.445 11.4664C56.4095 11.0745 56.4141 11.0499 56.5569 10.8803C56.6388 10.7829 56.7826 10.6643 56.8763 10.6168C57.1515 10.4771 57.5058 10.1662 57.6499 9.938C57.8182 9.6715 57.8608 9.3565 57.7854 8.9383C57.5596 7.6863 57.495 7.0837 57.5556 6.7915C57.6375 6.3956 57.927 5.97218 58.2659 5.75252C58.4166 5.65493 58.5289 5.55718 58.5154 5.5353C58.5019 5.51348 58.3846 5.46885 58.2547 5.43619C57.9808 5.36718 57.4607 4.98696 57.3142 4.74852C57.0951 4.39176 56.9993 3.9484 56.9144 2.897Z" fill="url(#paint7_linear)"/>
<path d="M59.0154 7.27341C58.5484 7.52031 58.0879 7.77361 57.6338 8.03341C57.6725 8.28911 57.723 8.58811 57.7861 8.93781C57.8615 9.35611 57.8188 9.67101 57.6505 9.93761C57.5065 10.1658 57.1521 10.4766 56.8769 10.6163C56.7832 10.6638 56.6395 10.7824 56.5576 10.8798C56.4148 11.0494 56.4101 11.074 56.4457 11.4659C56.466 11.6909 56.5179 12.0423 56.5609 12.2468C56.6039 12.4513 56.6391 12.6293 56.6391 12.6423C56.6391 12.6875 56.5253 12.6657 56.46 12.6079C56.4238 12.5759 56.1248 12.3722 55.7955 12.1552C55.4663 11.9381 54.9764 11.6117 54.707 11.4297L54.2172 11.0989L53.7274 11.1748C53.4826 11.2126 53.0257 11.274 52.6636 11.318C52.0465 11.7866 51.4456 12.2682 50.8613 12.7622C51.5068 12.6579 52.3826 12.5342 53.3207 12.4155L54.0571 12.3223L54.382 12.5302C54.5608 12.6445 54.805 12.8045 54.9247 12.8856C55.6831 13.3994 57.2139 14.2988 57.3299 14.2988C57.7326 14.2988 58.0788 13.9377 58.0343 13.564C57.98 13.1085 57.7762 11.7098 57.7523 11.6293C57.7361 11.5746 57.805 11.4984 57.9495 11.4116C58.3609 11.1643 58.6986 10.875 58.8751 10.6185C59.2094 10.1326 59.3296 9.44551 59.1998 8.76131C59.0962 8.21491 59.0295 7.66071 59.0154 7.27341Z" fill="url(#paint8_linear)"/>
<path d="M72.0328 11.327C72.2476 10.7425 72.6701 10.2912 73.1807 10.101C73.6653 9.9204 74.4824 9.9179 74.9768 10.0954C75.4832 10.2773 75.8541 10.6299 76.1018 11.165C76.2946 11.5815 76.2963 11.6515 76.3214 19.7741L76.3468 27.9632L81.0435 23.9667C86.0917 19.671 86.4681 19.3699 87.0133 19.1912C87.4443 19.0499 88.3052 19.1131 88.6868 19.3139C89.854 19.9284 90.1943 21.7099 89.3349 22.7063C89.1749 22.8918 87.6919 24.1145 86.0393 25.4234C84.3869 26.7322 83.0347 27.8333 83.0347 27.8702C83.0347 27.9072 83.6227 28.6289 84.3412 29.474C85.0597 30.3192 86.4934 32.005 87.5271 33.2201C89.6807 35.7519 90.0025 36.2623 90.0025 37.1456C90.0025 38.2762 89.3396 39.1306 88.2902 39.3524C87.6956 39.478 87.1512 39.3737 86.5548 39.0201C86.2868 38.8612 85.2438 37.6483 82.9333 34.8088C81.1487 32.6153 79.6471 30.7665 79.5967 30.7004C79.5265 30.6083 79.1398 30.8662 77.9464 31.8012L76.3878 33.0223L76.342 35.369C76.2965 37.6991 76.2943 37.7195 76.0428 38.2407C75.7395 38.8694 75.3149 39.1881 74.5713 39.3453C73.665 39.5369 72.8277 39.2494 72.299 38.5653L72.2626 38.5187C72.2368 38.4858 72.2124 38.4549 72.1897 38.423C71.8492 37.9451 71.8493 37.2246 71.8496 25.7219V24.6391C71.8496 12.059 71.8529 11.8163 72.0328 11.327Z" fill="url(#paint9_linear)"/>
<path d="M92.6228 23.7306C93.2935 21.0882 95.7437 19.3374 99.3537 18.9211C101.661 18.655 104.516 18.9545 106.282 19.6476C107.228 20.0191 108.425 20.7724 108.825 21.2486C109.639 22.2162 109.437 23.8018 108.419 24.4427C107.545 24.9927 106.891 24.9128 105.609 24.0994C104.282 23.2573 102.816 22.8305 101.251 22.8305C100.486 22.8305 99.2407 23.0537 98.5897 23.3071C96.8767 23.9743 96.3827 25.8406 97.7407 26.5166C98.4187 26.8547 99.0117 26.9338 101.6 27.0324C104.726 27.1514 105.913 27.3538 107.278 28.0004C109.273 28.9451 110.172 30.5584 110.172 33.1918C110.172 36.1777 108.484 38.2722 105.359 39.1637C103.111 39.805 99.2497 39.786 96.6487 39.1209C94.954 38.6875 92.9536 37.4932 92.4815 36.6327C91.9886 35.7347 92.2797 34.3903 93.0931 33.8084C93.3943 33.5929 93.5948 33.5306 94.0965 33.4966C94.7863 33.4498 94.9038 33.4952 96.1757 34.299C97.6637 35.239 98.9787 35.5693 101.233 35.5693C103.018 35.5693 103.793 35.4219 104.591 34.9303C105.333 34.4735 105.618 34.0502 105.663 33.3406C105.708 32.6208 105.548 32.2576 105.046 31.935C104.314 31.4643 102.836 31.2297 100.602 31.2297C97.4347 31.2297 95.066 30.5598 93.834 29.3159C92.8729 28.3453 92.4773 27.207 92.4773 25.4123C92.4773 24.7031 92.5298 24.0975 92.6228 23.7306Z" fill="url(#paint10_linear)"/>
<path fill-rule="evenodd" clip-rule="evenodd" d="M1.93357 22.3919C3.28642 20.5706 5.43241 19.3125 7.7807 18.9643C10.4071 18.5748 13.0037 19.0825 14.8234 20.3413C15.0503 20.4982 15.4938 20.8772 15.8089 21.1834L16.3819 21.7402V21.3556C16.3819 20.737 16.707 19.9882 17.1392 19.6117C17.6075 19.2036 18.0924 19.0631 18.8266 19.1224C19.8636 19.2063 20.5717 19.8261 20.7825 20.8347C20.8517 21.1662 20.8719 24.0311 20.8486 30.2137L20.8457 30.968C20.8184 38.2655 20.8143 39.3756 20.5326 40.4102C20.4821 40.5958 20.4226 40.779 20.3524 40.995L20.3122 41.1193C19.5633 43.4365 17.9542 45.2511 15.7226 46.2955C14.1555 47.029 12.6415 47.3163 10.3768 47.3102C6.7662 47.3004 3.81524 46.3507 2.15956 44.6653C1.55465 44.0495 1.35075 43.5745 1.34818 42.7748C1.34405 41.4835 2.10758 40.7216 3.409 40.7184C4.04591 40.7168 4.35635 40.8648 5.32157 41.6302C6.0785 42.2304 6.8697 42.6357 7.8295 42.915C8.8091 43.2 11.5111 43.2244 12.4396 42.9567C14.3085 42.4178 15.6367 41.161 16.1538 39.4422C16.2563 39.1017 16.3251 38.4428 16.358 37.4848L16.4077 36.0407L15.7302 36.6795C14.5634 37.7794 13.0462 38.5128 11.3337 38.8047C10.3659 38.9697 8.2505 38.9394 7.3513 38.7477C3.07849 37.8364 0.466941 34.7062 0.0474909 29.9931C-0.199399 27.219 0.529191 24.2826 1.93357 22.3919ZM16.0771 26.8828C15.4895 25.0619 14.1055 23.7593 12.2104 23.2435C11.4457 23.0354 9.614 22.988 8.8879 23.1575C6.7836 23.6489 5.33294 25.0474 4.77405 27.1234C4.54851 27.9612 4.54851 29.8319 4.77405 30.6697C5.4954 33.3491 7.8516 34.9521 10.7654 34.7455C13.5199 34.5501 15.3963 33.1552 16.1226 30.763C16.3012 30.175 16.3339 29.8692 16.3278 28.8499C16.3214 27.8012 16.2874 27.5344 16.0771 26.8828Z" fill="url(#paint11_linear)"/>
<path d="M12.3213 47.2236C13.6022 47.0906 14.6501 46.7976 15.7229 46.2955C17.9545 45.2511 19.5636 43.4364 20.3124 41.1193L20.3527 40.995C20.4229 40.7789 20.4823 40.5958 20.5329 40.4102C20.8146 39.3756 20.8187 38.2655 20.846 30.968L20.8489 30.2137C20.8722 24.0311 20.852 21.1661 20.7828 20.8346C20.6405 20.1541 20.2718 19.6505 19.7284 19.3691C18.4553 22.7955 17.3128 26.3645 16.2941 29.9737C16.2643 30.2485 16.2116 30.471 16.1229 30.763C16.0603 30.9691 15.9892 31.1678 15.9097 31.3589C15.3292 33.4865 14.7913 35.6234 14.2945 37.7488C14.8161 37.4454 15.2974 37.0877 15.7305 36.6795L16.408 36.0407L16.3583 37.4848C16.3254 38.4428 16.2566 39.1017 16.1541 39.4422C15.711 40.915 14.6724 42.0485 13.2084 42.6819C12.8915 44.2133 12.596 45.7299 12.3213 47.2236Z" fill="url(#paint12_linear)"/>
<path fill-rule="evenodd" clip-rule="evenodd" d="M33.3698 18.966C31.0823 19.2825 29.064 20.2659 27.5603 21.7966C26.0994 23.2836 25.2421 25.0488 24.8534 27.3699C24.6692 28.4698 24.721 30.7032 24.9559 31.7894C25.6164 34.8436 27.4852 37.2311 30.2504 38.5535C33.3543 40.0379 37.6436 39.9929 40.6319 38.4445C41.5125 37.9882 41.9717 37.6535 42.7518 36.8991C43.5272 36.1495 43.8868 35.5073 43.886 34.8741C43.8844 33.5509 43.1258 32.7777 41.8237 32.7721C41.0565 32.7687 40.6179 32.9931 39.9061 33.7532C37.6565 36.1552 33.301 36.2224 31.0016 33.8905C30.205 33.0826 29.4983 31.7587 29.4939 31.0661L29.4925 30.8561H36.2664C42.312 30.8561 43.0908 30.8396 43.5089 30.702C44.1077 30.5052 44.6306 30.0485 44.9057 29.4821C45.0976 29.0869 45.1218 28.9093 45.1188 27.9164C45.1119 25.548 44.2103 23.4327 42.4862 21.7405C40.1656 19.4627 36.9197 18.4748 33.3698 18.966ZM37.2855 23.2491C38.2012 23.5901 39.1185 24.2212 39.6388 24.8683C40.0548 25.3856 40.6097 26.45 40.7291 26.9598L40.7893 27.2165H29.4696L29.528 26.9191C29.7814 25.6293 31.0666 24.1303 32.4722 23.4849C32.9538 23.2638 33.2385 23.1713 34.0308 22.9784C34.1316 22.9537 34.7505 22.947 35.406 22.9633C36.4328 22.9888 36.6931 23.0284 37.2855 23.2491Z" fill="url(#paint13_linear)"/>
<path d="M105.669 33.1969C106.937 32.136 108.214 31.0681 109.493 29.998C109.954 30.8427 110.172 31.8932 110.172 33.1917C110.172 36.1776 108.484 38.2722 105.359 39.1636C103.531 39.6851 100.636 39.77 98.2197 39.4259C99.7607 38.1375 101.335 36.822 102.928 35.4896C103.629 35.401 104.105 35.2293 104.591 34.9303C105.333 34.4734 105.618 34.0501 105.663 33.3406C105.666 33.291 105.668 33.2431 105.669 33.1969Z" fill="#00DDBC"/>
<path d="M44.4209 42.2197H45.5368C45.6759 42.2197 45.8044 42.2363 45.9223 42.2696C46.0433 42.3029 46.1461 42.3528 46.2308 42.4193C46.3185 42.4828 46.3866 42.566 46.4349 42.6688C46.4863 42.7686 46.5121 42.8865 46.5121 43.0226C46.5121 43.2071 46.4606 43.3583 46.3578 43.4762C46.255 43.5911 46.1219 43.6758 45.9586 43.7302V43.7393C46.0554 43.7454 46.1461 43.7711 46.2308 43.8164C46.3155 43.8588 46.3881 43.9162 46.4485 43.9888C46.5121 44.0584 46.5619 44.14 46.5982 44.2337C46.6345 44.3275 46.6527 44.4288 46.6527 44.5377C46.6527 44.6828 46.6224 44.8114 46.5619 44.9232C46.5045 45.0321 46.4244 45.1244 46.3215 45.2C46.2187 45.2756 46.0993 45.333 45.9632 45.3723C45.8271 45.4116 45.6804 45.4313 45.5232 45.4313H44.4209V42.2197ZM44.8563 43.5533H45.4506C45.5322 43.5533 45.6094 43.5458 45.6819 43.5306C45.7545 43.5125 45.818 43.4838 45.8725 43.4445C45.9269 43.4051 45.9692 43.3552 45.9995 43.2948C46.0327 43.2343 46.0494 43.1602 46.0494 43.0725C46.0494 42.9455 46.0085 42.8351 45.9269 42.7413C45.8452 42.6476 45.7167 42.6007 45.5413 42.6007H44.8563V43.5533ZM44.8563 45.0503H45.4959C45.5625 45.0503 45.6351 45.0442 45.7137 45.0321C45.7953 45.017 45.8709 44.9898 45.9405 44.9505C46.01 44.9081 46.069 44.8522 46.1174 44.7826C46.1658 44.7131 46.19 44.6208 46.19 44.5059C46.19 44.3154 46.128 44.1733 46.004 44.0795C45.88 43.9827 45.7122 43.9344 45.5005 43.9344H44.8563V45.0503Z" fill="#3C5A9A"/>
<path d="M46.915 43.2812H47.3868L48.0264 44.9595H48.0355L48.6433 43.2812H49.0833L48.0627 45.894C48.0264 45.9877 47.9886 46.0724 47.9493 46.148C47.91 46.2266 47.8631 46.2932 47.8087 46.3476C47.7542 46.402 47.6877 46.4444 47.6091 46.4746C47.5335 46.5049 47.4397 46.52 47.3278 46.52C47.2673 46.52 47.2054 46.5154 47.1418 46.5064C47.0814 46.5003 47.0224 46.4852 46.9649 46.461L47.0148 46.089C47.0965 46.1223 47.1781 46.1389 47.2598 46.1389C47.3233 46.1389 47.3762 46.1299 47.4186 46.1117C47.4639 46.0966 47.5017 46.0724 47.532 46.0391C47.5652 46.0089 47.5924 45.9726 47.6136 45.9303C47.6348 45.8879 47.6559 45.8396 47.6771 45.7851L47.8087 45.4449L46.915 43.2812Z" fill="#3C5A9A"/>
<path d="M49.85 45.1319H50.4851C50.7301 45.1319 50.9417 45.0956 51.1202 45.023C51.3016 44.9474 51.4513 44.8492 51.5692 44.7282C51.6902 44.6042 51.7794 44.4651 51.8369 44.3109C51.8943 44.1536 51.9231 43.9918 51.9231 43.8255C51.9231 43.6592 51.8943 43.4989 51.8369 43.3447C51.7794 43.1874 51.6902 43.0483 51.5692 42.9273C51.4513 42.8033 51.3016 42.7051 51.1202 42.6325C50.9417 42.5569 50.7301 42.5191 50.4851 42.5191H49.85V45.1319ZM49.5234 42.2197H50.5894C50.789 42.2197 50.9886 42.253 51.1882 42.3195C51.3908 42.386 51.5723 42.4873 51.7326 42.6234C51.8959 42.7565 52.0274 42.9243 52.1272 43.1269C52.227 43.3265 52.2769 43.5594 52.2769 43.8255C52.2769 44.0946 52.227 44.329 52.1272 44.5286C52.0274 44.7282 51.8959 44.896 51.7326 45.0321C51.5723 45.1652 51.3908 45.265 51.1882 45.3315C50.9886 45.398 50.789 45.4313 50.5894 45.4313H49.5234V42.2197Z" fill="#3C5A9A"/>
<path d="M54.473 44.2065C54.473 44.0039 54.4125 43.8406 54.2915 43.7166C54.1705 43.5896 54.0012 43.5261 53.7835 43.5261C53.6867 43.5261 53.5929 43.5458 53.5022 43.5851C53.4115 43.6214 53.3314 43.6713 53.2618 43.7348C53.1953 43.7983 53.1408 43.8709 53.0985 43.9525C53.0592 44.0342 53.0395 44.1188 53.0395 44.2065H54.473ZM53.0305 44.4515C53.0395 44.5573 53.0652 44.6571 53.1076 44.7509C53.1499 44.8446 53.2059 44.9263 53.2754 44.9958C53.345 45.0624 53.4251 45.1153 53.5158 45.1546C53.6065 45.1939 53.7048 45.2136 53.8107 45.2136C53.971 45.2136 54.1085 45.1773 54.2235 45.1047C54.3414 45.0291 54.4306 44.9429 54.4911 44.8461L54.7224 45.0367C54.5954 45.1969 54.4548 45.3118 54.3006 45.3814C54.1494 45.451 53.9861 45.4857 53.8107 45.4857C53.6534 45.4857 53.5067 45.4585 53.3707 45.4041C53.2376 45.3466 53.1227 45.268 53.0259 45.1682C52.9291 45.0684 52.852 44.9505 52.7946 44.8144C52.7401 44.6783 52.7129 44.5301 52.7129 44.3698C52.7129 44.2096 52.7401 44.0614 52.7946 43.9253C52.849 43.7892 52.9246 43.6713 53.0214 43.5715C53.1182 43.4717 53.2316 43.3946 53.3616 43.3401C53.4916 43.2827 53.6323 43.2539 53.7835 43.2539C53.9437 43.2539 54.0874 43.2827 54.2144 43.3401C54.3414 43.3976 54.4472 43.4747 54.5319 43.5715C54.6196 43.6652 54.6862 43.7771 54.7315 43.9071C54.7769 44.0342 54.7996 44.1702 54.7996 44.3154V44.4515H53.0305Z" fill="#3C5A9A"/>
<path d="M56.2776 45.4313H55.9419L55.0801 43.3084H55.4384L56.1143 45.0956H56.1234L56.7993 43.3084H57.1395L56.2776 45.4313Z" fill="#3C5A9A"/>
<path d="M59.1819 44.2065C59.1819 44.0039 59.1214 43.8406 59.0004 43.7166C58.8795 43.5896 58.7101 43.5261 58.4924 43.5261C58.3956 43.5261 58.3019 43.5458 58.2111 43.5851C58.1204 43.6214 58.0403 43.6713 57.9707 43.7348C57.9042 43.7983 57.8498 43.8709 57.8074 43.9525C57.7681 44.0342 57.7485 44.1188 57.7485 44.2065H59.1819ZM57.7394 44.4515C57.7485 44.5573 57.7742 44.6571 57.8165 44.7509C57.8588 44.8446 57.9148 44.9263 57.9843 44.9958C58.0539 45.0624 58.134 45.1153 58.2248 45.1546C58.3155 45.1939 58.4138 45.2136 58.5196 45.2136C58.6799 45.2136 58.8175 45.1773 58.9324 45.1047C59.0503 45.0291 59.1395 44.9429 59.2 44.8461L59.4314 45.0367C59.3044 45.1969 59.1637 45.3118 59.0095 45.3814C58.8583 45.451 58.695 45.4857 58.5196 45.4857C58.3624 45.4857 58.2157 45.4585 58.0796 45.4041C57.9465 45.3466 57.8316 45.268 57.7348 45.1682C57.6381 45.0684 57.561 44.9505 57.5035 44.8144C57.4491 44.6783 57.4219 44.5301 57.4219 44.3698C57.4219 44.2096 57.4491 44.0614 57.5035 43.9253C57.5579 43.7892 57.6335 43.6713 57.7303 43.5715C57.8271 43.4717 57.9405 43.3946 58.0705 43.3401C58.2006 43.2827 58.3412 43.2539 58.4924 43.2539C58.6527 43.2539 58.7963 43.2827 58.9233 43.3401C59.0503 43.3976 59.1562 43.4747 59.2409 43.5715C59.3286 43.6652 59.3951 43.7771 59.4404 43.9071C59.4858 44.0342 59.5085 44.1702 59.5085 44.3154V44.4515H57.7394Z" fill="#3C5A9A"/>
<path d="M60.4194 45.4313H60.1201V42.002H60.4194V45.4313Z" fill="#3C5A9A"/>
<path d="M62.9601 44.3698C62.9601 44.2519 62.9404 44.1415 62.9011 44.0387C62.8648 43.9359 62.8119 43.8467 62.7423 43.7711C62.6728 43.6955 62.5881 43.6365 62.4883 43.5941C62.3915 43.5488 62.2811 43.5261 62.1572 43.5261C62.0332 43.5261 61.9213 43.5488 61.8215 43.5941C61.7247 43.6365 61.6415 43.6955 61.572 43.7711C61.5055 43.8467 61.4525 43.9359 61.4132 44.0387C61.3769 44.1415 61.3588 44.2519 61.3588 44.3698C61.3588 44.4878 61.3769 44.5982 61.4132 44.701C61.4525 44.8038 61.5055 44.893 61.572 44.9686C61.6415 45.0442 61.7247 45.1047 61.8215 45.1501C61.9213 45.1924 62.0332 45.2136 62.1572 45.2136C62.2811 45.2136 62.3915 45.1924 62.4883 45.1501C62.5881 45.1047 62.6728 45.0442 62.7423 44.9686C62.8119 44.893 62.8648 44.8038 62.9011 44.701C62.9404 44.5982 62.9601 44.4878 62.9601 44.3698ZM63.2867 44.3698C63.2867 44.5301 63.2579 44.6783 63.2005 44.8144C63.146 44.9505 63.0689 45.0684 62.9691 45.1682C62.8693 45.268 62.7499 45.3466 62.6108 45.4041C62.4747 45.4585 62.3235 45.4857 62.1572 45.4857C61.9939 45.4857 61.8426 45.4585 61.7035 45.4041C61.5675 45.3466 61.4495 45.268 61.3497 45.1682C61.2499 45.0684 61.1713 44.9505 61.1138 44.8144C61.0594 44.6783 61.0322 44.5301 61.0322 44.3698C61.0322 44.2096 61.0594 44.0614 61.1138 43.9253C61.1713 43.7892 61.2499 43.6713 61.3497 43.5715C61.4495 43.4717 61.5675 43.3946 61.7035 43.3401C61.8426 43.2827 61.9939 43.2539 62.1572 43.2539C62.3235 43.2539 62.4747 43.2827 62.6108 43.3401C62.7499 43.3946 62.8693 43.4717 62.9691 43.5715C63.0689 43.6713 63.146 43.7892 63.2005 43.9253C63.2579 44.0614 63.2867 44.2096 63.2867 44.3698Z" fill="#3C5A9A"/>
<path d="M65.767 44.3698C65.767 44.2519 65.7474 44.1415 65.708 44.0387C65.6718 43.9359 65.6188 43.8467 65.5493 43.7711C65.4797 43.6955 65.3951 43.6365 65.2953 43.5941C65.1985 43.5488 65.0881 43.5261 64.9641 43.5261C64.8401 43.5261 64.7267 43.5488 64.6239 43.5941C64.5211 43.6365 64.4319 43.6955 64.3563 43.7711C64.2807 43.8467 64.2217 43.9359 64.1794 44.0387C64.137 44.1415 64.1159 44.2519 64.1159 44.3698C64.1159 44.4878 64.137 44.5982 64.1794 44.701C64.2217 44.8038 64.2807 44.893 64.3563 44.9686C64.4319 45.0442 64.5211 45.1047 64.6239 45.1501C64.7267 45.1924 64.8401 45.2136 64.9641 45.2136C65.0881 45.2136 65.1985 45.1924 65.2953 45.1501C65.3951 45.1047 65.4797 45.0442 65.5493 44.9686C65.6188 44.893 65.6718 44.8038 65.708 44.701C65.7474 44.5982 65.767 44.4878 65.767 44.3698ZM63.8301 43.3084H64.1295V43.6622H64.1385C64.1869 43.5896 64.2444 43.5276 64.3109 43.4762C64.3774 43.4248 64.447 43.3825 64.5196 43.3492C64.5921 43.3159 64.6662 43.2917 64.7418 43.2766C64.8205 43.2615 64.8946 43.2539 64.9641 43.2539C65.1304 43.2539 65.2816 43.2827 65.4177 43.3401C65.5568 43.3946 65.6763 43.4717 65.7761 43.5715C65.8759 43.6713 65.953 43.7892 66.0074 43.9253C66.0649 44.0614 66.0936 44.2096 66.0936 44.3698C66.0936 44.5301 66.0649 44.6783 66.0074 44.8144C65.953 44.9505 65.8759 45.0684 65.7761 45.1682C65.6763 45.268 65.5568 45.3466 65.4177 45.4041C65.2816 45.4585 65.1304 45.4857 64.9641 45.4857C64.8946 45.4857 64.8205 45.4782 64.7418 45.4631C64.6662 45.4479 64.5921 45.4237 64.5196 45.3905C64.447 45.3572 64.3774 45.3149 64.3109 45.2635C64.2444 45.212 64.1869 45.1501 64.1385 45.0775H64.1295V46.7377H63.8301V43.3084Z" fill="#3C5A9A"/>
<path d="M68.2541 44.2065C68.2541 44.0039 68.1936 43.8406 68.0727 43.7166C67.9517 43.5896 67.7824 43.5261 67.5646 43.5261C67.4679 43.5261 67.3741 43.5458 67.2834 43.5851C67.1927 43.6214 67.1125 43.6713 67.043 43.7348C66.9764 43.7983 66.922 43.8709 66.8797 43.9525C66.8404 44.0342 66.8207 44.1188 66.8207 44.2065H68.2541ZM66.8116 44.4515C66.8207 44.5573 66.8464 44.6571 66.8887 44.7509C66.9311 44.8446 66.987 44.9263 67.0566 44.9958C67.1261 45.0624 67.2063 45.1153 67.297 45.1546C67.3877 45.1939 67.486 45.2136 67.5918 45.2136C67.7521 45.2136 67.8897 45.1773 68.0046 45.1047C68.1226 45.0291 68.2118 44.9429 68.2723 44.8461L68.5036 45.0367C68.3766 45.1969 68.236 45.3118 68.0818 45.3814C67.9305 45.451 67.7672 45.4857 67.5918 45.4857C67.4346 45.4857 67.2879 45.4585 67.1518 45.4041C67.0188 45.3466 66.9039 45.268 66.8071 45.1682C66.7103 45.0684 66.6332 44.9505 66.5757 44.8144C66.5213 44.6783 66.4941 44.5301 66.4941 44.3698C66.4941 44.2096 66.5213 44.0614 66.5757 43.9253C66.6302 43.7892 66.7058 43.6713 66.8026 43.5715C66.8993 43.4717 67.0127 43.3946 67.1428 43.3401C67.2728 43.2827 67.4134 43.2539 67.5646 43.2539C67.7249 43.2539 67.8686 43.2827 67.9956 43.3401C68.1226 43.3976 68.2284 43.4747 68.3131 43.5715C68.4008 43.6652 68.4673 43.7771 68.5127 43.9071C68.558 44.0342 68.5807 44.1702 68.5807 44.3154V44.4515H66.8116Z" fill="#3C5A9A"/>
<path d="M69.1558 43.9707C69.1558 43.8769 69.1528 43.7816 69.1467 43.6849C69.1437 43.5881 69.1407 43.4626 69.1377 43.3084H69.4325V43.703H69.4416C69.4627 43.6456 69.493 43.5911 69.5323 43.5397C69.5716 43.4853 69.6185 43.4369 69.6729 43.3946C69.7304 43.3522 69.7954 43.319 69.868 43.2948C69.9436 43.2675 70.0283 43.2539 70.122 43.2539C70.2067 43.2539 70.2808 43.263 70.3443 43.2812L70.2853 43.576C70.246 43.5609 70.1885 43.5533 70.1129 43.5533C69.998 43.5533 69.8997 43.576 69.8181 43.6214C69.7364 43.6637 69.6684 43.7196 69.614 43.7892C69.5595 43.8557 69.5187 43.9283 69.4915 44.0069C69.4673 44.0856 69.4552 44.1612 69.4552 44.2337V45.4313H69.1558V43.9707Z" fill="#3C5A9A"/>
<path d="M74.6466 44.9232C74.5921 45.0049 74.5241 45.082 74.4424 45.1546C74.3638 45.2272 74.2731 45.2907 74.1703 45.3451C74.0674 45.3965 73.9556 45.4373 73.8346 45.4676C73.7166 45.4978 73.5911 45.5129 73.4581 45.5129C73.2192 45.5129 72.9969 45.4706 72.7913 45.3859C72.5887 45.3013 72.4117 45.1848 72.2605 45.0367C72.1124 44.8854 71.9959 44.707 71.9113 44.5014C71.8266 44.2957 71.7842 44.0704 71.7842 43.8255C71.7842 43.5805 71.8266 43.3552 71.9113 43.1496C71.9959 42.944 72.1124 42.7671 72.2605 42.6189C72.4117 42.4677 72.5887 42.3497 72.7913 42.2651C72.9969 42.1804 73.2192 42.138 73.4581 42.138C73.6577 42.138 73.8573 42.1774 74.0569 42.256C74.2564 42.3346 74.4273 42.4646 74.5694 42.6461L74.2837 42.8593C74.2504 42.8079 74.205 42.7565 74.1476 42.7051C74.0901 42.6536 74.0236 42.6083 73.948 42.569C73.8754 42.5297 73.7968 42.4979 73.7121 42.4737C73.6274 42.4495 73.5428 42.4374 73.4581 42.4374C73.2524 42.4374 73.068 42.4752 72.9047 42.5508C72.7414 42.6264 72.6023 42.7277 72.4873 42.8548C72.3754 42.9818 72.2893 43.1299 72.2288 43.2993C72.1683 43.4656 72.1381 43.641 72.1381 43.8255C72.1381 44.01 72.1683 44.1869 72.2288 44.3562C72.2893 44.5226 72.3754 44.6692 72.4873 44.7962C72.6023 44.9232 72.7414 45.0246 72.9047 45.1002C73.068 45.1758 73.2524 45.2136 73.4581 45.2136C73.5428 45.2136 73.6259 45.206 73.7076 45.1909C73.7922 45.1758 73.8739 45.1501 73.9525 45.1138C74.0342 45.0775 74.1098 45.0291 74.1793 44.9686C74.2519 44.9051 74.3184 44.8265 74.3789 44.7327L74.6466 44.9232Z" fill="#3C5A9A"/>
<path d="M75.5224 42.4919C75.5224 42.5554 75.4997 42.6083 75.4544 42.6506C75.409 42.6899 75.3591 42.7096 75.3047 42.7096C75.2502 42.7096 75.2003 42.6899 75.155 42.6506C75.1096 42.6083 75.0869 42.5554 75.0869 42.4919C75.0869 42.4284 75.1096 42.3769 75.155 42.3376C75.2003 42.2953 75.2502 42.2741 75.3047 42.2741C75.3591 42.2741 75.409 42.2953 75.4544 42.3376C75.4997 42.3769 75.5224 42.4284 75.5224 42.4919ZM75.4544 45.4313H75.155V43.3084H75.4544V45.4313Z" fill="#3C5A9A"/>
<path d="M76.2085 43.9707C76.2085 43.8769 76.2055 43.7816 76.1995 43.6849C76.1964 43.5881 76.1934 43.4626 76.1904 43.3084H76.4852V43.703H76.4943C76.5155 43.6456 76.5457 43.5911 76.585 43.5397C76.6243 43.4853 76.6712 43.4369 76.7257 43.3946C76.7831 43.3522 76.8481 43.319 76.9207 43.2948C76.9963 43.2675 77.081 43.2539 77.1747 43.2539C77.2594 43.2539 77.3335 43.263 77.397 43.2812L77.338 43.576C77.2987 43.5609 77.2413 43.5533 77.1657 43.5533C77.0507 43.5533 76.9525 43.576 76.8708 43.6214C76.7892 43.6637 76.7211 43.7196 76.6667 43.7892C76.6122 43.8557 76.5714 43.9283 76.5442 44.0069C76.52 44.0856 76.5079 44.1612 76.5079 44.2337V45.4313H76.2085V43.9707Z" fill="#3C5A9A"/>
<path d="M79.1498 43.8073C79.0984 43.7287 79.0258 43.6622 78.9321 43.6078C78.8414 43.5533 78.737 43.5261 78.6191 43.5261C78.4951 43.5231 78.3832 43.5427 78.2834 43.5851C78.1866 43.6274 78.1035 43.6864 78.0339 43.762C77.9644 43.8376 77.9114 43.9283 77.8752 44.0342C77.8389 44.137 77.8207 44.2489 77.8207 44.3698C77.8207 44.4908 77.8389 44.6042 77.8752 44.71C77.9114 44.8129 77.9644 44.9021 78.0339 44.9777C78.1035 45.0533 78.1866 45.1123 78.2834 45.1546C78.3832 45.1969 78.4951 45.2166 78.6191 45.2136C78.737 45.2136 78.8414 45.1863 78.9321 45.1319C79.0258 45.0775 79.0984 45.0109 79.1498 44.9323L79.3948 45.1183C79.2889 45.2423 79.1695 45.3345 79.0364 45.395C78.9034 45.4525 78.7642 45.4827 78.6191 45.4857C78.4467 45.4888 78.291 45.4631 78.1519 45.4086C78.0128 45.3512 77.8933 45.2725 77.7935 45.1727C77.6967 45.0729 77.6226 44.955 77.5712 44.8189C77.5198 44.6798 77.4941 44.5301 77.4941 44.3698C77.4941 44.2096 77.5198 44.0614 77.5712 43.9253C77.6226 43.7862 77.6967 43.6667 77.7935 43.5669C77.8933 43.4671 78.0128 43.39 78.1519 43.3356C78.291 43.2781 78.4467 43.2509 78.6191 43.2539C78.7642 43.257 78.9034 43.2887 79.0364 43.3492C79.1695 43.4067 79.2889 43.4974 79.3948 43.6214L79.1498 43.8073Z" fill="#3C5A9A"/>
<path d="M80.1588 45.4313H79.8594V42.002H80.1588V45.4313Z" fill="#3C5A9A"/>
<path d="M82.5325 44.2065C82.5325 44.0039 82.4721 43.8406 82.3511 43.7166C82.2301 43.5896 82.0608 43.5261 81.843 43.5261C81.7463 43.5261 81.6525 43.5458 81.5618 43.5851C81.4711 43.6214 81.3909 43.6713 81.3214 43.7348C81.2549 43.7983 81.2004 43.8709 81.1581 43.9525C81.1188 44.0342 81.0991 44.1188 81.0991 44.2065H82.5325ZM81.09 44.4515C81.0991 44.5573 81.1248 44.6571 81.1672 44.7509C81.2095 44.8446 81.2654 44.9263 81.335 44.9958C81.4045 45.0624 81.4847 45.1153 81.5754 45.1546C81.6661 45.1939 81.7644 45.2136 81.8703 45.2136C82.0305 45.2136 82.1681 45.1773 82.2831 45.1047C82.401 45.0291 82.4902 44.9429 82.5507 44.8461L82.782 45.0367C82.655 45.1969 82.5144 45.3118 82.3602 45.3814C82.209 45.451 82.0457 45.4857 81.8703 45.4857C81.713 45.4857 81.5663 45.4585 81.4303 45.4041C81.2972 45.3466 81.1823 45.268 81.0855 45.1682C80.9887 45.0684 80.9116 44.9505 80.8542 44.8144C80.7997 44.6783 80.7725 44.5301 80.7725 44.3698C80.7725 44.2096 80.7997 44.0614 80.8542 43.9253C80.9086 43.7892 80.9842 43.6713 81.081 43.5715C81.1777 43.4717 81.2911 43.3946 81.4212 43.3401C81.5512 43.2827 81.6918 43.2539 81.843 43.2539C82.0033 43.2539 82.147 43.2827 82.274 43.3401C82.401 43.3976 82.5068 43.4747 82.5915 43.5715C82.6792 43.6652 82.7457 43.7771 82.7911 43.9071C82.8365 44.0342 82.8591 44.1702 82.8591 44.3154V44.4515H81.09Z" fill="#3C5A9A"/>
<path d="M84.5264 43.8119C84.4811 43.7242 84.4206 43.6546 84.345 43.6032C84.2694 43.5518 84.1771 43.5261 84.0683 43.5261C84.0169 43.5261 83.9639 43.5322 83.9095 43.5443C83.8581 43.5563 83.8112 43.576 83.7689 43.6032C83.7266 43.6274 83.6918 43.6592 83.6646 43.6985C83.6404 43.7378 83.6283 43.7862 83.6283 43.8436C83.6283 43.9434 83.663 44.016 83.7326 44.0614C83.8022 44.1067 83.9065 44.146 84.0456 44.1793L84.3495 44.2519C84.4977 44.2852 84.6202 44.3532 84.7169 44.456C84.8167 44.5558 84.8666 44.6813 84.8666 44.8325C84.8666 44.9474 84.8425 45.0472 84.7941 45.1319C84.7487 45.2136 84.6867 45.2816 84.6081 45.336C84.5325 45.3874 84.4448 45.4252 84.345 45.4494C84.2452 45.4736 84.1439 45.4857 84.0411 45.4857C83.8778 45.4857 83.725 45.4555 83.5829 45.395C83.4438 45.3315 83.3243 45.2241 83.2246 45.0729L83.4831 44.896C83.5436 44.9928 83.6192 45.0699 83.7099 45.1274C83.8037 45.1848 83.9141 45.2136 84.0411 45.2136C84.1015 45.2136 84.162 45.2075 84.2225 45.1954C84.283 45.1803 84.3359 45.1591 84.3813 45.1319C84.4297 45.1017 84.4675 45.0639 84.4947 45.0185C84.5249 44.9731 84.54 44.9202 84.54 44.8597C84.54 44.7539 84.5007 44.6783 84.4221 44.6329C84.3435 44.5845 84.2482 44.5467 84.1363 44.5195L83.846 44.4515C83.8097 44.4424 83.7598 44.4273 83.6963 44.4061C83.6358 44.385 83.5753 44.3532 83.5149 44.3109C83.4574 44.2685 83.4075 44.2141 83.3652 44.1476C83.3228 44.078 83.3017 43.9933 83.3017 43.8935C83.3017 43.7847 83.3228 43.6894 83.3652 43.6078C83.4105 43.5261 83.4695 43.4596 83.5421 43.4082C83.6177 43.3568 83.7024 43.319 83.7961 43.2948C83.8899 43.2675 83.9866 43.2539 84.0864 43.2539C84.2346 43.2539 84.3722 43.2827 84.4992 43.3401C84.6262 43.3976 84.7245 43.4959 84.7941 43.635L84.5264 43.8119Z" fill="#3C5A9A"/>
<path d="M89.3486 44.9232C89.2942 45.0049 89.2261 45.082 89.1445 45.1546C89.0658 45.2272 88.9751 45.2907 88.8723 45.3451C88.7695 45.3965 88.6576 45.4373 88.5366 45.4676C88.4187 45.4978 88.2932 45.5129 88.1601 45.5129C87.9212 45.5129 87.6989 45.4706 87.4933 45.3859C87.2907 45.3013 87.1138 45.1848 86.9626 45.0367C86.8144 44.8854 86.698 44.707 86.6133 44.5014C86.5286 44.2957 86.4863 44.0704 86.4863 43.8255C86.4863 43.5805 86.5286 43.3552 86.6133 43.1496C86.698 42.944 86.8144 42.7671 86.9626 42.6189C87.1138 42.4677 87.2907 42.3497 87.4933 42.2651C87.6989 42.1804 87.9212 42.138 88.1601 42.138C88.3597 42.138 88.5593 42.1774 88.7589 42.256C88.9585 42.3346 89.1293 42.4646 89.2715 42.6461L88.9857 42.8593C88.9524 42.8079 88.9071 42.7565 88.8496 42.7051C88.7922 42.6536 88.7256 42.6083 88.65 42.569C88.5774 42.5297 88.4988 42.4979 88.4141 42.4737C88.3295 42.4495 88.2448 42.4374 88.1601 42.4374C87.9545 42.4374 87.77 42.4752 87.6067 42.5508C87.4434 42.6264 87.3043 42.7277 87.1894 42.8548C87.0775 42.9818 86.9913 43.1299 86.9308 43.2993C86.8703 43.4656 86.8401 43.641 86.8401 43.8255C86.8401 44.01 86.8703 44.1869 86.9308 44.3562C86.9913 44.5226 87.0775 44.6692 87.1894 44.7962C87.3043 44.9232 87.4434 45.0246 87.6067 45.1002C87.77 45.1758 87.9545 45.2136 88.1601 45.2136C88.2448 45.2136 88.328 45.206 88.4096 45.1909C88.4943 45.1758 88.5759 45.1501 88.6546 45.1138C88.7362 45.0775 88.8118 45.0291 88.8814 44.9686C88.9539 44.9051 89.0205 44.8265 89.081 44.7327L89.3486 44.9232Z" fill="#6EC6DE"/>
<path d="M90.9962 44.3744C90.9206 44.3744 90.8253 44.3789 90.7104 44.388C90.5985 44.394 90.4896 44.4122 90.3838 44.4424C90.281 44.4696 90.1918 44.5135 90.1162 44.574C90.0436 44.6344 90.0073 44.7176 90.0073 44.8235C90.0073 44.893 90.0209 44.9535 90.0481 45.0049C90.0784 45.0533 90.1177 45.0941 90.1661 45.1274C90.2145 45.1576 90.2674 45.1803 90.3248 45.1954C90.3853 45.2075 90.4458 45.2136 90.5063 45.2136C90.6151 45.2136 90.7089 45.1954 90.7875 45.1591C90.8692 45.1228 90.9372 45.0745 90.9917 45.014C91.0461 44.9505 91.0854 44.8779 91.1096 44.7962C91.1368 44.7116 91.1504 44.6223 91.1504 44.5286V44.3744H90.9962ZM91.1504 44.1294V44.075C91.1504 43.7091 90.969 43.5261 90.6061 43.5261C90.3581 43.5261 90.1419 43.6093 89.9574 43.7756L89.776 43.5624C89.9755 43.3568 90.2749 43.2539 90.6741 43.2539C90.7769 43.2539 90.8752 43.2691 90.969 43.2993C91.0657 43.3295 91.1489 43.3764 91.2185 43.4399C91.288 43.5004 91.344 43.5775 91.3863 43.6713C91.4286 43.765 91.4498 43.8769 91.4498 44.0069V44.955C91.4498 45.0367 91.4528 45.1228 91.4589 45.2136C91.468 45.3013 91.477 45.3738 91.4861 45.4313H91.1958C91.1867 45.3799 91.1791 45.3239 91.1731 45.2635C91.1701 45.203 91.1686 45.144 91.1686 45.0865H91.1595C91.0718 45.2287 90.9675 45.3315 90.8465 45.395C90.7286 45.4555 90.5834 45.4857 90.411 45.4857C90.3173 45.4857 90.2265 45.4721 90.1389 45.4449C90.0512 45.4207 89.9725 45.3829 89.903 45.3315C89.8364 45.2771 89.782 45.212 89.7397 45.1364C89.7004 45.0578 89.6807 44.9671 89.6807 44.8643C89.6807 44.6919 89.7245 44.5573 89.8122 44.4606C89.903 44.3608 90.0149 44.2867 90.1479 44.2383C90.284 44.1899 90.4277 44.1597 90.5789 44.1476C90.7331 44.1355 90.8737 44.1294 91.0007 44.1294H91.1504Z" fill="#6EC6DE"/>
<path d="M93.2667 43.8119C93.2213 43.7242 93.1608 43.6546 93.0852 43.6032C93.0096 43.5518 92.9174 43.5261 92.8085 43.5261C92.7571 43.5261 92.7042 43.5322 92.6498 43.5443C92.5984 43.5563 92.5515 43.576 92.5091 43.6032C92.4668 43.6274 92.432 43.6592 92.4048 43.6985C92.3806 43.7378 92.3685 43.7862 92.3685 43.8436C92.3685 43.9434 92.4033 44.016 92.4729 44.0614C92.5424 44.1067 92.6467 44.146 92.7859 44.1793L93.0898 44.2519C93.238 44.2852 93.3604 44.3532 93.4572 44.456C93.557 44.5558 93.6069 44.6813 93.6069 44.8325C93.6069 44.9474 93.5827 45.0472 93.5343 45.1319C93.489 45.2136 93.427 45.2816 93.3483 45.336C93.2727 45.3874 93.185 45.4252 93.0852 45.4494C92.9854 45.4736 92.8841 45.4857 92.7813 45.4857C92.618 45.4857 92.4653 45.4555 92.3232 45.395C92.1841 45.3315 92.0646 45.2241 91.9648 45.0729L92.2234 44.896C92.2838 44.9928 92.3595 45.0699 92.4502 45.1274C92.5439 45.1848 92.6543 45.2136 92.7813 45.2136C92.8418 45.2136 92.9023 45.2075 92.9628 45.1954C93.0232 45.1803 93.0762 45.1591 93.1215 45.1319C93.1699 45.1017 93.2077 45.0639 93.2349 45.0185C93.2652 44.9731 93.2803 44.9202 93.2803 44.8597C93.2803 44.7539 93.241 44.6783 93.1624 44.6329C93.0837 44.5845 92.9885 44.5467 92.8766 44.5195L92.5863 44.4515C92.55 44.4424 92.5001 44.4273 92.4366 44.4061C92.3761 44.385 92.3156 44.3532 92.2551 44.3109C92.1977 44.2685 92.1478 44.2141 92.1054 44.1476C92.0631 44.078 92.0419 43.9933 92.0419 43.8935C92.0419 43.7847 92.0631 43.6894 92.1054 43.6078C92.1508 43.5261 92.2098 43.4596 92.2823 43.4082C92.3579 43.3568 92.4426 43.319 92.5364 43.2948C92.6301 43.2675 92.7269 43.2539 92.8267 43.2539C92.9749 43.2539 93.1125 43.2827 93.2395 43.3401C93.3665 43.3976 93.4648 43.4959 93.5343 43.635L93.2667 43.8119Z" fill="#6EC6DE"/>
<path d="M95.2794 44.3744C95.2038 44.3744 95.1085 44.3789 94.9936 44.388C94.8817 44.394 94.7728 44.4122 94.667 44.4424C94.5641 44.4696 94.4749 44.5135 94.3993 44.574C94.3268 44.6344 94.2905 44.7176 94.2905 44.8235C94.2905 44.893 94.3041 44.9535 94.3313 45.0049C94.3615 45.0533 94.4009 45.0941 94.4492 45.1274C94.4976 45.1576 94.5505 45.1803 94.608 45.1954C94.6685 45.2075 94.729 45.2136 94.7894 45.2136C94.8983 45.2136 94.9921 45.1954 95.0707 45.1591C95.1523 45.1228 95.2204 45.0745 95.2748 45.014C95.3293 44.9505 95.3686 44.8779 95.3928 44.7962C95.42 44.7116 95.4336 44.6223 95.4336 44.5286V44.3744H95.2794ZM95.4336 44.1294V44.075C95.4336 43.7091 95.2521 43.5261 94.8892 43.5261C94.6413 43.5261 94.425 43.6093 94.2406 43.7756L94.0591 43.5624C94.2587 43.3568 94.5581 43.2539 94.9573 43.2539C95.0601 43.2539 95.1584 43.2691 95.2521 43.2993C95.3489 43.3295 95.4321 43.3764 95.5016 43.4399C95.5712 43.5004 95.6271 43.5775 95.6695 43.6713C95.7118 43.765 95.733 43.8769 95.733 44.0069V44.955C95.733 45.0367 95.736 45.1228 95.742 45.2136C95.7511 45.3013 95.7602 45.3738 95.7693 45.4313H95.4789C95.4699 45.3799 95.4623 45.3239 95.4563 45.2635C95.4532 45.203 95.4517 45.144 95.4517 45.0865H95.4427C95.355 45.2287 95.2506 45.3315 95.1297 45.395C95.0117 45.4555 94.8666 45.4857 94.6942 45.4857C94.6004 45.4857 94.5097 45.4721 94.422 45.4449C94.3343 45.4207 94.2557 45.3829 94.1861 45.3315C94.1196 45.2771 94.0652 45.212 94.0228 45.1364C93.9835 45.0578 93.9639 44.9671 93.9639 44.8643C93.9639 44.6919 94.0077 44.5573 94.0954 44.4606C94.1861 44.3608 94.298 44.2867 94.4311 44.2383C94.5672 44.1899 94.7108 44.1597 94.862 44.1476C95.0163 44.1355 95.1569 44.1294 95.2839 44.1294H95.4336Z" fill="#6EC6DE"/>
<path d="M98.3618 44.3698C98.3618 44.2519 98.3428 44.1415 98.3028 44.0387C98.2668 43.9359 98.2138 43.8467 98.1438 43.7711C98.0748 43.6955 97.9898 43.6365 97.8898 43.5941C97.7938 43.5488 97.6828 43.5261 97.5588 43.5261C97.4348 43.5261 97.3218 43.5488 97.2188 43.5941C97.1158 43.6365 97.0268 43.6955 96.9508 43.7711C96.8758 43.8467 96.8168 43.9359 96.7748 44.0387C96.7318 44.1415 96.7108 44.2519 96.7108 44.3698C96.7108 44.4878 96.7318 44.5982 96.7748 44.701C96.8168 44.8038 96.8758 44.893 96.9508 44.9686C97.0268 45.0442 97.1158 45.1047 97.2188 45.1501C97.3218 45.1924 97.4348 45.2136 97.5588 45.2136C97.6828 45.2136 97.7938 45.1924 97.8898 45.1501C97.9898 45.1047 98.0748 45.0442 98.1438 44.9686C98.2138 44.893 98.2668 44.8038 98.3028 44.701C98.3428 44.5982 98.3618 44.4878 98.3618 44.3698ZM96.4248 42.002H96.7248V43.6622H96.7338C96.7818 43.5896 96.8398 43.5276 96.9058 43.4762C96.9728 43.4248 97.0418 43.3825 97.1148 43.3492C97.1868 43.3159 97.2608 43.2917 97.3368 43.2766C97.4158 43.2615 97.4898 43.2539 97.5588 43.2539C97.7258 43.2539 97.8768 43.2827 98.0128 43.3401C98.1518 43.3946 98.2718 43.4717 98.3708 43.5715C98.4708 43.6713 98.5478 43.7892 98.6028 43.9253C98.6598 44.0614 98.6888 44.2096 98.6888 44.3698C98.6888 44.5301 98.6598 44.6783 98.6028 44.8144C98.5478 44.9505 98.4708 45.0684 98.3708 45.1682C98.2718 45.268 98.1518 45.3466 98.0128 45.4041C97.8768 45.4585 97.7258 45.4857 97.5588 45.4857C97.4898 45.4857 97.4158 45.4782 97.3368 45.4631C97.2608 45.4479 97.1868 45.4237 97.1148 45.3905C97.0418 45.3572 96.9728 45.3149 96.9058 45.2635C96.8398 45.212 96.7818 45.1501 96.7338 45.0775H96.7248V45.4313H96.4248V42.002Z" fill="#6EC6DE"/>
<path d="M99.5656 45.4313H99.2656V42.002H99.5656V45.4313Z" fill="#6EC6DE"/>
<path d="M101.495 44.3744C101.419 44.3744 101.324 44.3789 101.209 44.388C101.097 44.394 100.988 44.4122 100.882 44.4424C100.78 44.4696 100.69 44.5135 100.615 44.574C100.542 44.6344 100.506 44.7176 100.506 44.8235C100.506 44.893 100.519 44.9535 100.547 45.0049C100.577 45.0533 100.616 45.0941 100.665 45.1274C100.713 45.1576 100.766 45.1803 100.823 45.1954C100.884 45.2075 100.944 45.2136 101.005 45.2136C101.114 45.2136 101.207 45.1954 101.286 45.1591C101.368 45.1228 101.436 45.0745 101.49 45.014C101.545 44.9505 101.584 44.8779 101.608 44.7962C101.635 44.7116 101.649 44.6223 101.649 44.5286V44.3744H101.495ZM101.649 44.1294V44.075C101.649 43.7091 101.468 43.5261 101.105 43.5261C100.857 43.5261 100.64 43.6093 100.456 43.7756L100.275 43.5624C100.474 43.3568 100.773 43.2539 101.173 43.2539C101.275 43.2539 101.374 43.2691 101.468 43.2993C101.564 43.3295 101.647 43.3764 101.717 43.4399C101.787 43.5004 101.843 43.5775 101.885 43.6713C101.927 43.765 101.948 43.8769 101.948 44.0069V44.955C101.948 45.0367 101.951 45.1228 101.957 45.2136C101.967 45.3013 101.976 45.3738 101.985 45.4313H101.694C101.685 45.3799 101.678 45.3239 101.672 45.2635C101.669 45.203 101.667 45.144 101.667 45.0865H101.658C101.57 45.2287 101.466 45.3315 101.345 45.395C101.227 45.4555 101.082 45.4857 100.91 45.4857C100.816 45.4857 100.725 45.4721 100.637 45.4449C100.55 45.4207 100.471 45.3829 100.402 45.3315C100.335 45.2771 100.281 45.212 100.238 45.1364C100.199 45.0578 100.179 44.9671 100.179 44.8643C100.179 44.6919 100.223 44.5573 100.311 44.4606C100.402 44.3608 100.513 44.2867 100.646 44.2383C100.783 44.1899 100.926 44.1597 101.077 44.1476C101.232 44.1355 101.372 44.1294 101.499 44.1294H101.649Z" fill="#6EC6DE"/>
<path d="M102.926 43.3084C102.932 43.3658 102.935 43.4233 102.935 43.4807C102.938 43.5352 102.94 43.5911 102.94 43.6486H102.949C102.982 43.5911 103.024 43.5382 103.076 43.4898C103.127 43.4414 103.185 43.4006 103.248 43.3673C103.312 43.3311 103.378 43.3038 103.448 43.2857C103.52 43.2645 103.591 43.2539 103.661 43.2539C103.933 43.2539 104.134 43.3265 104.264 43.4717C104.394 43.6138 104.459 43.8179 104.459 44.0841V45.4313H104.16V44.2564C104.16 44.0205 104.119 43.8406 104.038 43.7166C103.956 43.5896 103.805 43.5261 103.584 43.5261C103.569 43.5261 103.526 43.5322 103.457 43.5443C103.387 43.5563 103.313 43.5896 103.235 43.644C103.159 43.6985 103.091 43.7801 103.03 43.889C102.97 43.9979 102.94 44.1491 102.94 44.3426V45.4313H102.64V43.7756C102.64 43.7181 102.637 43.6456 102.631 43.5579C102.628 43.4702 102.624 43.387 102.618 43.3084H102.926Z" fill="#6EC6DE"/>
<path d="M106.708 43.8073C106.656 43.7287 106.584 43.6622 106.49 43.6078C106.399 43.5533 106.295 43.5261 106.177 43.5261C106.053 43.5231 105.941 43.5427 105.841 43.5851C105.745 43.6274 105.661 43.6864 105.592 43.762C105.522 43.8376 105.469 43.9283 105.433 44.0342C105.397 44.137 105.379 44.2489 105.379 44.3698C105.379 44.4908 105.397 44.6042 105.433 44.71C105.469 44.8129 105.522 44.9021 105.592 44.9777C105.661 45.0533 105.745 45.1123 105.841 45.1546C105.941 45.1969 106.053 45.2166 106.177 45.2136C106.295 45.2136 106.399 45.1863 106.49 45.1319C106.584 45.0775 106.656 45.0109 106.708 44.9323L106.953 45.1183C106.847 45.2423 106.727 45.3345 106.594 45.395C106.461 45.4525 106.322 45.4827 106.177 45.4857C106.005 45.4888 105.849 45.4631 105.71 45.4086C105.571 45.3512 105.451 45.2725 105.351 45.1727C105.255 45.0729 105.181 44.955 105.129 44.8189C105.078 44.6798 105.052 44.5301 105.052 44.3698C105.052 44.2096 105.078 44.0614 105.129 43.9253C105.181 43.7862 105.255 43.6667 105.351 43.5669C105.451 43.4671 105.571 43.39 105.71 43.3356C105.849 43.2781 106.005 43.2509 106.177 43.2539C106.322 43.257 106.461 43.2887 106.594 43.3492C106.727 43.4067 106.847 43.4974 106.953 43.6214L106.708 43.8073Z" fill="#6EC6DE"/>
<path d="M108.556 44.3744C108.48 44.3744 108.385 44.3789 108.27 44.388C108.158 44.394 108.049 44.4122 107.944 44.4424C107.841 44.4696 107.752 44.5135 107.676 44.574C107.603 44.6344 107.567 44.7176 107.567 44.8235C107.567 44.893 107.581 44.9535 107.608 45.0049C107.638 45.0533 107.677 45.0941 107.726 45.1274C107.774 45.1576 107.827 45.1803 107.885 45.1954C107.945 45.2075 108.006 45.2136 108.066 45.2136C108.175 45.2136 108.269 45.1954 108.347 45.1591C108.429 45.1228 108.497 45.0745 108.551 45.014C108.606 44.9505 108.645 44.8779 108.669 44.7962C108.697 44.7116 108.71 44.6223 108.71 44.5286V44.3744H108.556ZM108.71 44.1294V44.075C108.71 43.7091 108.529 43.5261 108.166 43.5261C107.918 43.5261 107.702 43.6093 107.517 43.7756L107.336 43.5624C107.535 43.3568 107.835 43.2539 108.234 43.2539C108.337 43.2539 108.435 43.2691 108.529 43.2993C108.625 43.3295 108.709 43.3764 108.778 43.4399C108.848 43.5004 108.904 43.5775 108.946 43.6713C108.988 43.765 109.01 43.8769 109.01 44.0069V44.955C109.01 45.0367 109.013 45.1228 109.019 45.2136C109.028 45.3013 109.037 45.3738 109.046 45.4313H108.756C108.746 45.3799 108.739 45.3239 108.733 45.2635C108.73 45.203 108.728 45.144 108.728 45.0865H108.719C108.632 45.2287 108.527 45.3315 108.406 45.395C108.288 45.4555 108.143 45.4857 107.971 45.4857C107.877 45.4857 107.786 45.4721 107.699 45.4449C107.611 45.4207 107.532 45.3829 107.463 45.3315C107.396 45.2771 107.342 45.212 107.299 45.1364C107.26 45.0578 107.24 44.9671 107.24 44.8643C107.24 44.6919 107.284 44.5573 107.372 44.4606C107.463 44.3608 107.575 44.2867 107.708 44.2383C107.844 44.1899 107.987 44.1597 108.139 44.1476C108.293 44.1355 108.433 44.1294 108.56 44.1294H108.71Z" fill="#6EC6DE"/>
<path d="M76.3336 23.6735C74.8204 25.2421 73.3189 26.8272 71.8498 28.4123C71.8496 27.5884 71.8496 26.6939 71.8496 25.7225L71.8497 24.6391C71.8497 12.059 71.853 11.8163 72.0328 11.327C72.2477 10.7425 72.6702 10.2912 73.1808 10.101C73.6654 9.9204 74.4825 9.9179 74.9769 10.0954C75.4833 10.2773 75.8542 10.6299 76.1019 11.165C76.2947 11.5815 76.2964 11.6515 76.3215 19.7741L76.3336 23.6735Z" fill="url(#paint14_linear)"/>
<path d="M34.2773 39.5944C36.5034 39.7742 38.8097 39.3891 40.6321 38.4448C41.5127 37.9885 41.9719 37.6538 42.752 36.8994C43.5274 36.1498 43.887 35.5076 43.8862 34.8744C43.8847 33.5512 43.126 32.778 41.8239 32.7724C41.0567 32.769 40.6181 32.9934 39.9063 33.7535C38.9035 34.8242 37.4823 35.431 36.0112 35.5681C35.3915 36.9099 34.814 38.2545 34.2773 39.5944Z" fill="url(#paint15_linear)"/>
<path d="M38.377 30.8553C42.5093 30.85 43.1454 30.8219 43.5089 30.7023C44.1077 30.5055 44.6307 30.0488 44.9057 29.4824C45.0976 29.0872 45.1218 28.9096 45.1189 27.9167C45.1133 26.0353 44.5432 24.3136 43.4448 22.8368C42.4794 24.1547 41.5672 25.5034 40.7064 26.8739C40.7151 26.9041 40.7228 26.9329 40.7291 26.9601L40.7893 27.2168H40.4923C39.7487 28.4156 39.044 29.6305 38.377 30.8553Z" fill="url(#paint16_linear)"/>
<path fill-rule="evenodd" clip-rule="evenodd" d="M67.6198 24.927C66.3372 21.6892 63.5101 19.543 59.7568 18.9577C58.0472 18.691 55.6889 18.9193 54.1801 19.4974C50.5415 20.8914 48.2833 23.81 47.9894 27.4985C47.869 29.008 48.2749 29.9988 49.2313 30.5298L49.7355 30.8097L63.7194 30.8609L63.6595 31.1153C63.4031 32.2036 62.9178 33.08 62.118 33.8988C61.0109 35.0322 59.6269 35.5592 57.7577 35.5592C55.872 35.5592 54.5634 35.0537 53.3226 33.8461C52.4773 33.0235 52.1578 32.8286 51.5304 32.753C51.0069 32.6898 50.273 32.9078 49.8824 33.2425C49.4697 33.5959 49.2001 34.3385 49.2561 34.9674C49.3146 35.6241 49.4952 35.9828 50.0908 36.6253C51.3393 37.9724 53.0397 38.9067 55.0989 39.3772C56.2921 39.6499 59.1472 39.669 60.3247 39.4123C64.391 38.5258 67.1215 35.9599 68.0886 32.1163C68.3304 31.1552 68.3467 30.9706 68.3439 29.2232C68.3404 27.1293 68.228 26.462 67.6198 24.927ZM56.0113 23.182C54.8305 23.6125 53.9609 24.2203 53.3533 25.0395C52.9732 25.552 52.5211 26.4678 52.4053 26.9601L52.345 27.2168H63.6998L63.6521 27.0068C63.6258 26.8912 63.4444 26.4535 63.2488 26.0339C62.6389 24.7251 61.3599 23.6269 59.958 23.208C59.0699 22.9426 59.0022 22.9354 57.7118 22.9672C56.8103 22.9894 56.396 23.0417 56.0113 23.182Z" fill="url(#paint17_linear)"/>
<defs>
<linearGradient id="paint0_linear" x1="33.4511" y1="5.98402" x2="37.5855" y2="12.9704" gradientUnits="userSpaceOnUse">
<stop stop-color="#9C0AD0"/>
<stop offset="1" stop-color="#AA04DA"/>
</linearGradient>
<linearGradient id="paint1_linear" x1="50.2008" y1="4.20807" x2="76.5105" y2="28.8735" gradientUnits="userSpaceOnUse">
<stop stop-color="#0694E1"/>
<stop offset="1" stop-color="#1F5EBF"/>
</linearGradient>
<linearGradient id="paint2_linear" x1="83.645" y1="21.8144" x2="92.1104" y2="28.8372" gradientUnits="userSpaceOnUse">
<stop stop-color="#00A3EB"/>
<stop offset="0.840341" stop-color="#0095E1"/>
<stop offset="1" stop-color="#008EDB"/>
</linearGradient>
<linearGradient id="paint3_linear" x1="83.6444" y1="21.8144" x2="92.1098" y2="28.8372" gradientUnits="userSpaceOnUse">
<stop stop-color="#00A3EB"/>
<stop offset="0.840341" stop-color="#0095E1"/>
<stop offset="1" stop-color="#008EDB"/>
</linearGradient>
<linearGradient id="paint4_linear" x1="3.32057" y1="29.8111" x2="10.7748" y2="39.2347" gradientUnits="userSpaceOnUse">
<stop stop-color="#D81479"/>
<stop offset="1" stop-color="#D40D8F"/>
</linearGradient>
<linearGradient id="paint5_linear" x1="15.4535" y1="22.9803" x2="24.3087" y2="38.4204" gradientUnits="userSpaceOnUse">
<stop stop-color="#9C0AD0"/>
<stop offset="1" stop-color="#AA04DA"/>
</linearGradient>
<linearGradient id="paint6_linear" x1="32.1036" y1="24.0776" x2="36.6067" y2="30.7518" gradientUnits="userSpaceOnUse">
<stop stop-color="#9C0AD0"/>
<stop offset="1" stop-color="#A305D0"/>
</linearGradient>
<linearGradient id="paint7_linear" x1="33.4511" y1="5.98402" x2="37.5855" y2="12.9704" gradientUnits="userSpaceOnUse">
<stop stop-color="#9C0AD0"/>
<stop offset="1" stop-color="#AA04DA"/>
</linearGradient>
<linearGradient id="paint8_linear" x1="50.2008" y1="4.20807" x2="76.5105" y2="28.8735" gradientUnits="userSpaceOnUse">
<stop stop-color="#0694E1"/>
<stop offset="1" stop-color="#1F5EBF"/>
</linearGradient>
<linearGradient id="paint9_linear" x1="83.645" y1="21.8144" x2="92.1104" y2="28.8372" gradientUnits="userSpaceOnUse">
<stop stop-color="#00A3EB"/>
<stop offset="0.840341" stop-color="#0095E1"/>
<stop offset="1" stop-color="#008EDB"/>
</linearGradient>
<linearGradient id="paint10_linear" x1="83.6444" y1="21.8144" x2="92.1098" y2="28.8372" gradientUnits="userSpaceOnUse">
<stop stop-color="#00A3EB"/>
<stop offset="0.840341" stop-color="#0095E1"/>
<stop offset="1" stop-color="#008EDB"/>
</linearGradient>
<linearGradient id="paint11_linear" x1="3.32057" y1="29.8111" x2="10.7748" y2="39.2347" gradientUnits="userSpaceOnUse">
<stop stop-color="#D81479"/>
<stop offset="1" stop-color="#D40D8F"/>
</linearGradient>
<linearGradient id="paint12_linear" x1="15.4535" y1="22.9803" x2="24.3087" y2="38.4204" gradientUnits="userSpaceOnUse">
<stop stop-color="#9C0AD0"/>
<stop offset="1" stop-color="#AA04DA"/>
</linearGradient>
<linearGradient id="paint13_linear" x1="32.1036" y1="24.0776" x2="36.6067" y2="30.7518" gradientUnits="userSpaceOnUse">
<stop stop-color="#9C0AD0"/>
<stop offset="1" stop-color="#A305D0"/>
</linearGradient>
<linearGradient id="paint14_linear" x1="47.7331" y1="8.8707" x2="76.5106" y2="28.8739" gradientUnits="userSpaceOnUse">
<stop stop-color="#0694E1"/>
<stop offset="1" stop-color="#1F5EBF"/>
</linearGradient>
<linearGradient id="paint15_linear" x1="47.7331" y1="8.87071" x2="76.5106" y2="28.8739" gradientUnits="userSpaceOnUse">
<stop stop-color="#0694E1"/>
<stop offset="1" stop-color="#1F5EBF"/>
</linearGradient>
<linearGradient id="paint16_linear" x1="47.7328" y1="8.87069" x2="76.5104" y2="28.8739" gradientUnits="userSpaceOnUse">
<stop stop-color="#0694E1"/>
<stop offset="1" stop-color="#1F5EBF"/>
</linearGradient>
<linearGradient id="paint17_linear" x1="47.7325" y1="8.87072" x2="76.51" y2="28.8739" gradientUnits="userSpaceOnUse">
<stop stop-color="#0694E1"/>
<stop offset="1" stop-color="#1F5EBF"/>
</linearGradient>
</defs>
</svg>
