<svg width="291" height="48" viewBox="0 0 291 48" fill="none" xmlns="http://www.w3.org/2000/svg">
<path fill-rule="evenodd" clip-rule="evenodd" d="M0 24.1094H24.1094V0C10.7941 0 0 10.7941 0 24.1094Z" fill="#E6E6E6"/>
<path fill-rule="evenodd" clip-rule="evenodd" d="M24 9V24H39C39 15.7158 32.2842 9 24 9Z" fill="#CDCDCD"/>
<path fill-rule="evenodd" clip-rule="evenodd" d="M48 24H24V48C37.2548 48 48 37.2548 48 24Z" fill="#E6E6E6"/>
<path fill-rule="evenodd" clip-rule="evenodd" d="M24 48V24H0C0 37.2548 10.7452 48 24 48Z" fill="white"/>
<path fill-rule="evenodd" clip-rule="evenodd" d="M67.5604 28.102C68.5444 29.0468 69.7254 29.5192 71.1427 29.5192C72.5992 29.5192 73.8196 29.0468 74.8036 28.102C75.8271 27.1573 76.339 26.0156 76.339 24.6378C76.339 23.26 75.8271 22.079 74.8036 21.1342C73.8196 20.1501 72.5992 19.6777 71.1427 19.6777C69.7254 19.6777 68.5444 20.1501 67.5604 21.1342C66.5762 22.079 66.1038 23.26 66.1038 24.6378C66.1038 26.0156 66.5762 27.1573 67.5604 28.102ZM63.0333 17.3551C64.9228 15.3474 67.2847 14.3633 70.0798 14.3633C73.0716 14.3633 75.3942 15.5836 75.9846 17.3157V14.7176H81.8502V31.2512C81.8502 35.8572 81.1022 38.8489 78.3859 40.9354C76.4571 42.4706 74.0558 43.2186 71.182 43.2186C67.3241 43.2186 64.0962 42.2737 61.4586 40.4236L64.2536 36.172C66.2613 37.4317 68.2689 38.0617 70.3554 38.0617C72.048 38.0617 73.4258 37.7073 74.41 37.0381C75.5517 36.2507 76.1422 34.7943 76.1422 32.7079V32.2748C75.3155 33.6919 72.9535 34.6762 70.0798 34.6762C67.2847 34.6762 64.9228 33.7313 63.0333 31.8025C61.1831 29.8735 60.2383 27.4722 60.2383 24.6378C60.2383 21.7641 61.1831 19.3234 63.0333 17.3551Z" fill="white"/>
<path fill-rule="evenodd" clip-rule="evenodd" d="M98.9871 22.3625C98.9871 20.5123 97.0581 19.0559 94.6961 19.0559C92.1374 19.0559 90.051 20.5123 89.8935 22.3625H98.9871ZM83.9492 24.6064C83.9492 21.4966 84.9727 18.9772 86.9804 17.0875C88.9881 15.1587 91.5862 14.2139 94.6961 14.2139C97.7273 14.2139 100.168 15.198 102.058 17.1269C103.947 19.0559 104.892 21.4179 104.892 24.2915C104.892 24.9607 104.853 25.5906 104.813 26.1811H89.8148C89.9329 28.543 91.9799 30.0783 95.0898 30.0783C96.94 30.0783 98.5539 29.4484 99.9318 28.1494L103.357 31.4168C101.034 33.8181 98.1604 35.0384 94.8142 35.0384C91.5469 35.0384 88.9487 34.0936 86.941 32.2434C84.9334 30.3539 83.9492 27.8739 83.9492 24.7639V24.6064Z" fill="white"/>
<path fill-rule="evenodd" clip-rule="evenodd" d="M107.059 34.5626V14.7221H112.924V17.2022C113.672 15.4701 115.68 14.2891 118.081 14.2891C120.758 14.2891 122.569 15.352 123.474 17.4383C124.576 15.352 126.781 14.2891 130.088 14.2891C134.615 14.2891 137.134 17.3596 137.134 22.5166V34.5626H131.269V23.2252C131.269 20.9026 130.206 19.4854 128.316 19.4854C126.387 19.4854 125.009 21.0994 125.009 23.422V34.5626H119.144V23.2252C119.144 20.9026 118.081 19.4854 116.192 19.4854C114.302 19.4854 112.924 21.0994 112.924 23.422V34.5626H107.059Z" fill="white"/>
<path fill-rule="evenodd" clip-rule="evenodd" d="M146.514 28.3429C147.498 29.3271 148.718 29.8388 150.175 29.8388C151.631 29.8388 152.852 29.3271 153.836 28.3429C154.82 27.3194 155.332 26.099 155.332 24.6425C155.332 23.1859 154.82 21.9656 153.836 20.9814C152.852 19.9579 151.631 19.4462 150.175 19.4462C148.718 19.4462 147.498 19.9579 146.514 20.9814C145.53 21.9656 145.018 23.1859 145.018 24.6425C145.018 26.099 145.53 27.3587 146.514 28.3429ZM157.969 17.2023C160.134 19.21 161.197 21.69 161.197 24.6425C161.197 27.5949 160.134 30.075 157.969 32.122C155.804 34.1297 153.206 35.1531 150.175 35.1531C147.104 35.1531 144.506 34.1297 142.341 32.122C140.215 30.075 139.152 27.5949 139.152 24.6425C139.152 21.69 140.215 19.21 142.341 17.2023C144.506 15.1554 147.104 14.1318 150.175 14.1318C153.206 14.1318 155.804 15.1554 157.969 17.2023Z" fill="white"/>
<path fill-rule="evenodd" clip-rule="evenodd" d="M169.881 28.102C170.865 29.0468 172.046 29.5192 173.463 29.5192C174.92 29.5192 176.14 29.0468 177.124 28.102C178.147 27.1573 178.659 26.0156 178.659 24.6378C178.659 23.26 178.147 22.079 177.124 21.1342C176.14 20.1501 174.92 19.6777 173.463 19.6777C172.046 19.6777 170.865 20.1501 169.881 21.1342C168.897 22.079 168.424 23.26 168.424 24.6378C168.424 26.0156 168.897 27.1573 169.881 28.102ZM165.354 17.3551C167.243 15.3474 169.605 14.3633 172.4 14.3633C175.392 14.3633 177.715 15.5836 178.305 17.3157V14.7176H184.17V31.2512C184.17 35.8572 183.423 38.8489 180.706 40.9354C178.777 42.4706 176.376 43.2186 173.502 43.2186C169.644 43.2186 166.416 42.2737 163.779 40.4236L166.574 36.172C168.582 37.4317 170.589 38.0617 172.676 38.0617C174.368 38.0617 175.746 37.7073 176.73 37.0381C177.872 36.2507 178.462 34.7943 178.462 32.7079V32.2748C177.636 33.6919 175.274 34.6762 172.4 34.6762C169.605 34.6762 167.243 33.7313 165.354 31.8025C163.503 29.8735 162.559 27.4722 162.559 24.6378C162.559 21.7641 163.503 19.3234 165.354 17.3551Z" fill="white"/>
<path fill-rule="evenodd" clip-rule="evenodd" d="M187.168 34.5626V14.7221H193.033V17.4383C193.939 15.4308 196.065 14.2891 198.781 14.2891C199.175 14.2891 199.686 14.3284 200.316 14.4072V19.9184C199.726 19.8003 199.056 19.7216 198.348 19.7216C195.002 19.7216 193.033 21.6112 193.033 24.8785V34.5626H187.168Z" fill="white"/>
<path fill-rule="evenodd" clip-rule="evenodd" d="M215.163 28.1808C216.187 27.1966 216.698 26.0156 216.698 24.6378C216.698 23.26 216.187 22.079 215.163 21.1342C214.179 20.1502 212.959 19.6777 211.502 19.6777C210.085 19.6777 208.904 20.1502 207.92 21.1342C206.936 22.079 206.463 23.26 206.463 24.6378C206.463 26.0156 206.936 27.1966 207.92 28.1808C208.904 29.1256 210.085 29.598 211.502 29.598C212.959 29.598 214.179 29.1256 215.163 28.1808ZM216.344 17.3157V14.7176H222.21V34.5581H216.344V31.9599C215.754 33.692 213.431 34.9124 210.439 34.9124C207.644 34.9124 205.282 33.9282 203.393 31.9599C201.542 29.9522 200.598 27.5115 200.598 24.6378C200.598 21.7641 201.542 19.3234 203.393 17.3551C205.282 15.3474 207.644 14.3633 210.439 14.3633C213.431 14.3633 215.754 15.5836 216.344 17.3157Z" fill="white"/>
<path fill-rule="evenodd" clip-rule="evenodd" d="M239.563 28.1808C240.547 27.1966 241.02 26.0156 241.02 24.6378C241.02 23.26 240.547 22.079 239.563 21.1342C238.579 20.1502 237.398 19.6777 235.981 19.6777C234.524 19.6777 233.304 20.1502 232.281 21.1342C231.296 22.079 230.785 23.26 230.785 24.6378C230.785 26.0156 231.296 27.1966 232.281 28.1808C233.304 29.1256 234.524 29.598 235.981 29.598C237.398 29.598 238.579 29.1256 239.563 28.1808ZM225.273 42.1557V14.7176H231.139V17.3157C231.729 15.5836 234.052 14.3633 237.044 14.3633C239.839 14.3633 242.201 15.3474 244.051 17.3551C245.941 19.3234 246.885 21.7641 246.885 24.6378C246.885 27.5115 245.941 29.9522 244.051 31.9599C242.201 33.9282 239.839 34.9124 237.044 34.9124C234.052 34.9124 231.729 33.692 231.139 31.9599V42.1557H225.273Z" fill="white"/>
<path fill-rule="evenodd" clip-rule="evenodd" d="M249.094 34.5759V7.1377H254.959V17.1367C255.747 15.4047 257.872 14.3023 260.51 14.3023C265.194 14.3023 267.871 17.3729 267.871 22.5298V34.5759H262.006V23.2384C262.006 20.9158 260.785 19.4986 258.62 19.4986C256.455 19.4986 254.959 21.1127 254.959 23.4353V34.5759H249.094Z" fill="white"/>
<path fill-rule="evenodd" clip-rule="evenodd" d="M276.474 34.9087L268.168 14.7139H274.27L279.545 27.941L284.898 14.7139H291L279.309 42.1914H273.286L276.474 34.9087Z" fill="white"/>
</svg>
