<svg width="28" height="28" viewBox="0 0 28 28" fill="none" xmlns="http://www.w3.org/2000/svg">
<path d="M24.4366 1.75011H3.55461C3.32005 1.74749 3.08726 1.79113 2.86958 1.87852C2.65189 1.9659 2.45357 2.09533 2.28597 2.2594C2.11836 2.42347 1.98476 2.61895 1.89279 2.83468C1.80082 3.0504 1.7523 3.28214 1.75 3.51662V24.4835C1.75 25.4571 2.56307 26.25 3.55461 26.25H24.4366C25.4391 26.25 26.25 25.4571 26.25 24.4835V3.51662C26.2419 3.04262 26.0468 2.59102 25.7071 2.26016C25.3675 1.9293 24.9108 1.74597 24.4366 1.75011ZM9.01252 22.6267H5.37686V10.9395H9.01252V22.6267ZM7.19028 9.34479C6.65058 9.3146 6.14291 9.079 5.77152 8.68639C5.40013 8.29377 5.19319 7.77392 5.19319 7.23357C5.19319 6.69321 5.40013 6.17336 5.77152 5.78075C6.14291 5.38813 6.65058 5.15254 7.19028 5.12234C7.72655 5.157 8.22952 5.39439 8.59705 5.7863C8.96458 6.17822 9.16911 6.69527 9.16911 7.23247C9.16911 7.76966 8.96458 8.28671 8.59705 8.67863C8.22952 9.07054 7.72655 9.30793 7.19028 9.34259V9.34479ZM22.6253 22.6267H18.9897V16.9439C18.9897 15.5915 18.961 13.8426 17.1035 13.8426C15.2086 13.8426 14.9221 15.3205 14.9221 16.8448V22.6267H11.2931V10.9395H14.7745V12.5342H14.8274C15.3143 11.6157 16.4976 10.651 18.2647 10.651C21.9445 10.651 22.6231 13.0672 22.6231 16.2236V22.6267H22.6253Z" fill="white"/>
</svg>
