<svg width="28" height="28" viewBox="0 0 28 28" fill="none" xmlns="http://www.w3.org/2000/svg">
<path fill-rule="evenodd" clip-rule="evenodd" d="M13.5945 3.22503C16.9545 3.22503 17.3508 3.23149 18.6819 3.29395C19.9096 3.34565 20.5773 3.55888 21.0188 3.72472C21.6111 3.95519 22.0246 4.22872 22.4662 4.66811C22.9056 5.10965 23.1791 5.52534 23.4096 6.11549C23.5862 6.55703 23.7886 7.22688 23.8403 8.45242C23.905 9.77488 23.9114 10.1798 23.9114 13.5398C23.9114 16.8998 23.9028 17.2961 23.8403 18.6272C23.7886 19.8549 23.5776 20.5226 23.4096 20.9641C23.2078 21.5113 22.8853 22.006 22.4662 22.4115C22.0607 22.8307 21.566 23.1531 21.0188 23.3549C20.5794 23.5315 19.9074 23.734 18.6819 23.7856C17.3594 23.8481 16.9545 23.8567 13.5945 23.8567C10.2345 23.8567 9.83818 23.8481 8.5071 23.7856C7.27941 23.734 6.61172 23.5207 6.17018 23.3549C5.62377 23.1528 5.12983 22.8304 4.72495 22.4115C4.30579 22.006 3.98335 21.5113 3.78157 20.9641C3.60495 20.5247 3.40033 19.8527 3.34864 18.6272C3.28618 17.3047 3.27757 16.8998 3.27757 13.5398C3.27757 10.1798 3.28618 9.78349 3.34864 8.45242C3.40033 7.22472 3.61356 6.55703 3.77941 6.11549C4.00987 5.52534 4.28341 5.10965 4.72495 4.66811C5.16433 4.22872 5.58003 3.95519 6.17018 3.72472C6.61172 3.55026 7.28157 3.34565 8.5071 3.29395C9.83818 3.23149 10.2345 3.22288 13.5945 3.22288V3.22503ZM13.5945 0.957031C10.1742 0.957031 9.74987 0.974262 8.41018 1.03672C7.07049 1.09703 6.15295 1.30811 5.35603 1.61826C4.51493 1.93276 3.75371 2.4292 3.1268 3.07211C2.4311 3.76995 2.00033 4.47426 1.67295 5.30349C1.36495 6.10688 1.15387 7.02442 1.09141 8.35549C1.02895 9.69519 1.01172 10.1281 1.01172 13.5398C1.01172 16.9623 1.02895 17.3844 1.09141 18.7241C1.15387 20.0681 1.36495 20.9813 1.67295 21.7761C1.98956 22.6053 2.42249 23.301 3.12895 24.0075C3.82464 24.7032 4.52895 25.1361 5.35818 25.4613C6.16157 25.7693 7.0791 25.9826 8.41018 26.0429C9.74987 26.1053 10.1828 26.1226 13.5945 26.1226C17.0083 26.1226 17.4391 26.1053 18.7788 26.0429C20.1206 25.9826 21.0382 25.7693 21.8308 25.4613C22.6727 25.1471 23.4346 24.6507 24.0622 24.0075C24.7665 23.301 25.1908 22.6053 25.516 21.7761C25.8262 20.9727 26.0373 20.0573 26.0976 18.7241C26.1622 17.3844 26.1773 16.9515 26.1773 13.5398C26.1773 10.1195 26.16 9.69519 26.0976 8.35549C26.0373 7.01365 25.8262 6.09826 25.516 5.30349C25.2018 4.46163 24.7054 3.69965 24.0622 3.07211C23.4323 2.43176 22.671 1.93573 21.8308 1.61826C21.0274 1.31026 20.112 1.09703 18.7788 1.03672C17.4477 0.963493 17.017 0.957031 13.5945 0.957031Z" fill="white"/>
<path fill-rule="evenodd" clip-rule="evenodd" d="M13.6004 7.08203C12.7516 7.08203 11.9111 7.24922 11.1269 7.57405C10.3427 7.89888 9.6301 8.37499 9.02989 8.9752C8.42968 9.57541 7.95357 10.288 7.62874 11.0722C7.30391 11.8564 7.13672 12.6969 7.13672 13.5457C7.13672 14.3945 7.30391 15.2351 7.62874 16.0193C7.95357 16.8035 8.42968 17.516 9.02989 18.1162C9.6301 18.7165 10.3427 19.1926 11.1269 19.5174C11.9111 19.8422 12.7516 20.0094 13.6004 20.0094C15.3147 20.0094 16.9588 19.3284 18.1709 18.1162C19.3831 16.9041 20.0641 15.26 20.0641 13.5457C20.0641 11.8314 19.3831 10.1874 18.1709 8.9752C16.9588 7.76303 15.3147 7.08203 13.6004 7.08203V7.08203ZM13.6004 17.735C12.4874 17.7352 11.4198 17.2934 10.6325 16.5065C9.84528 15.7197 9.40285 14.6523 9.40257 13.5393C9.40228 12.4262 9.84417 11.3586 10.631 10.5714C11.4179 9.78413 12.4852 9.3417 13.5983 9.34142C14.7113 9.34113 15.7789 9.78301 16.5661 10.5699C17.3534 11.3567 17.7958 12.4241 17.7961 13.5371C17.7964 14.6502 17.3545 15.7177 16.5677 16.505C15.7808 17.2922 14.7135 17.7347 13.6004 17.735V17.735Z" fill="white"/>
<path d="M20.3101 8.9698C21.4996 8.9698 22.4639 8.00549 22.4639 6.81595C22.4639 5.62642 21.4996 4.66211 20.3101 4.66211C19.1206 4.66211 18.1562 5.62642 18.1562 6.81595C18.1562 8.00549 19.1206 8.9698 20.3101 8.9698Z" fill="white"/>
</svg>
