<svg width="28" height="28" viewBox="0 0 28 28" fill="none" xmlns="http://www.w3.org/2000/svg">
<path fill-rule="evenodd" clip-rule="evenodd" d="M8.95241 23.7985C18.4424 23.7985 23.6324 15.9305 23.6324 9.11854C23.6324 8.89654 23.6324 8.66654 23.6264 8.45454C24.6381 7.72161 25.5117 6.81487 26.2064 5.77654C25.2645 6.19518 24.2644 6.46829 23.2404 6.58654C24.3124 5.94854 25.1244 4.94254 25.5084 3.73054C24.5084 4.31854 23.4124 4.74454 22.2344 4.98254C21.4577 4.15281 20.4286 3.60287 19.3071 3.41817C18.1856 3.23348 17.0345 3.42438 16.0327 3.9612C15.0309 4.49803 14.2345 5.35072 13.7671 6.38678C13.2998 7.42284 13.1877 8.58425 13.4484 9.69054C11.396 9.58877 9.38802 9.05564 7.55542 8.1259C5.72282 7.19616 4.1067 5.89068 2.81241 4.29454C2.35564 5.08049 2.11547 5.97351 2.11641 6.88254C2.11641 8.66654 3.02441 10.2565 4.41641 11.1725C3.59844 11.1488 2.79808 10.9293 2.08241 10.5325V10.6025C2.08241 13.1065 3.86041 15.1785 6.22641 15.6625C5.78292 15.7819 5.32567 15.8424 4.86641 15.8425C4.53041 15.8425 4.21241 15.8085 3.89241 15.7425C4.21889 16.7689 4.85891 17.667 5.72245 18.3106C6.58599 18.9543 7.62958 19.3109 8.70641 19.3305C7.63538 20.1701 6.40929 20.7902 5.09832 21.1553C3.78735 21.5205 2.41724 21.6235 1.06641 21.4585C3.41018 22.9921 6.15151 23.8062 8.95241 23.8005" fill="white"/>
</svg>
