<svg width="75" height="48" viewBox="0 0 75 48" fill="none" xmlns="http://www.w3.org/2000/svg">
<g clip-path="url(#clip0)">
<path d="M0 0H74.3226V31.7125H0V0Z" fill="white"/>
<path d="M19.8821 18.9794V18.9414C19.8821 18.0627 19.6653 17.3791 19.2294 16.8898C18.7936 16.3881 18.1967 15.9925 17.4372 15.7038C17.6741 15.5783 17.8916 15.4281 18.0906 15.2524C18.302 15.0767 18.4823 14.8761 18.6325 14.6501C18.7936 14.4116 18.9182 14.1476 19.0049 13.8596C19.1048 13.5709 19.1543 13.2379 19.1543 12.8617V12.8238C19.1543 11.7825 18.7688 10.9541 17.9977 10.3394C17.239 9.72466 16.1869 9.4173 14.8429 9.4173H8.77783V22.5933H14.9923C15.727 22.5933 16.392 22.5174 16.9897 22.3672C17.599 22.2163 18.1154 21.991 18.5381 21.6898C18.9597 21.4045 19.3005 21.0152 19.5275 20.5595C19.7644 20.1081 19.8821 19.5817 19.8821 18.9794ZM16.2991 13.351C16.2991 13.8403 16.1125 14.1979 15.7386 14.424C15.3654 14.6377 14.8614 14.7438 14.2274 14.7438H11.5773V11.9582H14.414C15.0233 11.9582 15.4901 12.0774 15.8137 12.3159C16.1373 12.5419 16.2991 12.8741 16.2991 13.3138V13.351ZM17.0269 18.6217C17.0269 19.111 16.8465 19.4749 16.4849 19.7133C16.1249 19.9394 15.6271 20.0516 14.9923 20.0516H11.5773V17.153H14.8986C15.6457 17.153 16.1869 17.2847 16.5229 17.5479C16.8589 17.7995 17.0261 18.144 17.0261 18.5838V18.6217H17.0269ZM24.9151 22.5933V8.85214H22.0785V22.5933H24.9151ZM36.1835 22.5933V16.7381C36.1835 15.3709 35.8289 14.304 35.1198 13.5383C34.4106 12.7734 33.2787 12.3902 31.7234 12.3902C30.8772 12.3902 30.1556 12.4661 29.558 12.6163C28.9611 12.7665 28.3889 12.9616 27.8408 13.2L28.5507 15.3832C28.9753 15.2184 29.412 15.0864 29.8568 14.9884C30.3345 14.882 30.8229 14.8314 31.3123 14.8374C32.0214 14.8374 32.5572 14.9946 32.918 15.3081C33.2787 15.6217 33.4591 16.0792 33.4591 16.6816V16.8519C33.0933 16.7248 32.719 16.6239 32.3389 16.5499C31.9021 16.469 31.4584 16.4311 31.0142 16.4369C30.4165 16.4369 29.8692 16.5066 29.3714 16.6444C28.9152 16.7563 28.4846 16.9542 28.1025 17.2274C27.7541 17.4906 27.48 17.8235 27.2818 18.2261C27.0821 18.6271 26.983 19.104 26.983 19.656V19.6939C26.983 20.1956 27.0697 20.6408 27.2439 21.0302C27.4305 21.4065 27.6798 21.727 27.9902 21.9902C28.3014 22.2534 28.6622 22.4547 29.0733 22.5925C29.5096 22.7198 29.9621 22.7832 30.4165 22.7807C31.1133 22.7807 31.7048 22.6676 32.1894 22.4416C32.6635 22.212 33.0884 21.8925 33.4405 21.5009V22.5925H36.1835V22.5933ZM33.4963 19.0359C33.4963 19.5623 33.2911 19.9889 32.88 20.3156C32.4821 20.6416 31.9471 20.8049 31.2751 20.8049C30.8152 20.8049 30.4413 20.6981 30.1556 20.4852C29.8692 20.2715 29.726 19.9703 29.726 19.5817V19.5438C29.726 19.0916 29.9001 18.7463 30.2485 18.5087C30.5969 18.2702 31.0769 18.151 31.6862 18.151C32.0346 18.151 32.3574 18.1889 32.6563 18.264C32.9675 18.3259 33.2478 18.4142 33.4963 18.5272V19.0359ZM49.1327 17.5672V17.5293C49.1327 16.6893 49.0018 15.9484 48.7409 15.3089C48.4916 14.6563 48.1556 14.1105 47.7329 13.6707C47.3268 13.231 46.8303 12.8845 46.2774 12.655C45.7392 12.4308 45.1619 12.3156 44.5789 12.3159C43.8318 12.3159 43.2101 12.473 42.7123 12.7866C42.2238 13.0907 41.7991 13.487 41.462 13.9533V8.85214H38.6245V22.5933H41.4612V21.2749C41.7972 21.6759 42.2075 22.0274 42.6921 22.3285C43.1907 22.6305 43.8186 22.7807 44.5781 22.7807C45.175 22.7807 45.7471 22.6676 46.2945 22.4416C46.8402 22.2172 47.3308 21.877 47.7321 21.4444C48.1549 20.9923 48.4909 20.4465 48.7401 19.8062C49.001 19.1536 49.1319 18.4072 49.1319 17.5665L49.1327 17.5672ZM46.2952 17.5672C46.2952 17.9938 46.2271 18.377 46.0901 18.7154C45.9662 19.0545 45.792 19.3494 45.5675 19.6003C45.3438 19.8387 45.0829 20.0269 44.784 20.1654C44.4976 20.2901 44.1863 20.3528 43.8511 20.3528C43.5151 20.3528 43.1977 20.2909 42.8989 20.1647C42.6124 20.0269 42.3569 19.8387 42.134 19.5995C41.914 19.3344 41.7376 19.0359 41.6114 18.7154C41.484 18.3461 41.4209 17.9578 41.4248 17.5672V17.5293C41.4248 17.1159 41.4867 16.7396 41.6106 16.4005C41.7476 16.049 41.9218 15.7541 42.134 15.5156C42.3577 15.2648 42.6124 15.0767 42.8989 14.9505C43.1973 14.8126 43.5224 14.742 43.8511 14.7438C44.1863 14.7438 44.4976 14.8134 44.784 14.9512C45.0829 15.0767 45.3438 15.2648 45.5675 15.5164C45.792 15.7541 45.9662 16.049 46.0901 16.4005C46.2271 16.7389 46.2952 17.1159 46.2952 17.5293V17.568V17.5672ZM54.1866 22.5933V8.85214H51.35V22.5933H54.1866ZM65.455 22.5933V16.7381C65.455 15.3709 65.1004 14.304 64.3912 13.5383C63.6821 12.7734 62.5494 12.3902 60.9941 12.3902C60.1479 12.3902 59.4263 12.4661 58.8294 12.6163C58.2318 12.7665 57.6604 12.9616 57.1123 13.2L57.8214 15.3832C58.2463 15.2184 58.6832 15.0864 59.1283 14.9884C59.606 14.882 60.0944 14.8314 60.5838 14.8374C61.2929 14.8374 61.8279 14.9946 62.1887 15.3081C62.5494 15.6217 62.7306 16.0792 62.7306 16.6816V16.8519C62.3648 16.7248 61.9904 16.6239 61.6103 16.5499C61.1733 16.4689 60.7294 16.4311 60.2849 16.4369C59.688 16.4369 59.1407 16.5066 58.6429 16.6444C58.1864 16.7563 57.7555 16.9541 57.3732 17.2274C57.0248 17.4906 56.7515 17.8235 56.5525 18.2261C56.3536 18.6271 56.2537 19.104 56.2537 19.656V19.6939C56.2537 20.1956 56.3412 20.6408 56.5154 21.0302C56.7012 21.4065 56.9505 21.727 57.2617 21.9902C57.5729 22.2534 57.9337 22.4547 58.344 22.5925C58.7806 22.7199 59.2333 22.7833 59.688 22.7807C60.3848 22.7807 60.9755 22.6676 61.4609 22.4416C61.9347 22.2119 62.3593 21.8925 62.7112 21.5009V22.5925H65.455V22.5933ZM62.7678 19.0359C62.7678 19.5623 62.5618 19.9889 62.1515 20.3156C61.7536 20.6416 61.2186 20.8049 60.5466 20.8049C60.086 20.8049 59.7128 20.6981 59.4263 20.4852C59.1399 20.2715 58.9974 19.9703 58.9974 19.5817V19.5438C58.9974 19.0916 59.1716 18.7463 59.52 18.5087C59.8684 18.2702 60.3476 18.151 60.9569 18.151C61.3053 18.151 61.6289 18.1889 61.9278 18.264C62.2382 18.3259 62.5185 18.4142 62.7678 18.5272V19.0359Z" fill="#1C1C1C"/>
<path d="M34.9409 31.7125H0L34.9409 48V31.7125ZM44.5347 43.2101L44.0516 42.7324C43.7419 43.032 43.4253 43.2666 43.1032 43.4354C42.7812 43.5979 42.3964 43.6792 41.9497 43.6792C41.6044 43.6819 41.2624 43.6115 40.9463 43.4725C40.6455 43.3311 40.3742 43.1341 40.1466 42.8919C39.9182 42.6393 39.7387 42.3466 39.617 42.0287C39.4912 41.6866 39.4283 41.3247 39.4312 40.9603C39.4312 40.5786 39.4932 40.2256 39.617 39.9004C39.7471 39.569 39.9236 39.281 40.1466 39.0379C40.3728 38.7963 40.6446 38.6019 40.9463 38.4658C41.256 38.3288 41.5905 38.2599 41.9505 38.2599C42.3964 38.2599 42.7781 38.3443 43.0939 38.513C43.416 38.6818 43.7164 38.897 43.9959 39.1595L44.4975 38.616C44.3408 38.4634 44.1731 38.3223 43.9959 38.1941C43.8208 38.0619 43.6302 37.9517 43.4284 37.8658C43.2143 37.7691 42.9899 37.6968 42.7595 37.6506C42.4962 37.5979 42.2282 37.5727 41.9597 37.5755C41.4821 37.5755 41.0423 37.6661 40.6397 37.8465C40.2456 38.0156 39.8909 38.2651 39.5984 38.5788C39.3066 38.8847 39.0774 39.2447 38.9102 39.6565C38.7474 40.0782 38.6655 40.5268 38.6686 40.9788C38.6686 41.4542 38.7492 41.8978 38.9102 42.3105C39.0774 42.7231 39.3066 43.0823 39.5984 43.3881C39.893 43.6903 40.2435 43.9322 40.6305 44.1004C41.0407 44.2784 41.4839 44.368 41.9311 44.3636C42.4447 44.3728 42.9536 44.2637 43.4183 44.0447C43.6297 43.9448 43.8255 43.8263 44.0052 43.6885C44.191 43.5445 44.3675 43.385 44.5347 43.2101ZM51.9886 40.9603C51.9913 40.5173 51.9093 40.078 51.7471 39.6658C51.5992 39.2649 51.3713 38.8983 51.0774 38.5881C50.7814 38.2721 50.4239 38.02 50.0268 37.8472C49.6021 37.6615 49.1425 37.5688 48.679 37.5755C48.1835 37.5755 47.7306 37.6684 47.3218 37.8565C46.9123 38.0377 46.5631 38.2847 46.2712 38.5974C45.9776 38.9134 45.7472 39.2826 45.5923 39.6852C45.4302 40.0968 45.3482 40.5357 45.3507 40.9781C45.3507 41.4348 45.4281 41.8692 45.583 42.2818C45.744 42.6883 45.9701 43.0483 46.2619 43.3603C46.553 43.6668 46.8999 43.9099 47.3032 44.0919C47.7314 44.277 48.1939 44.3696 48.6604 44.3636C49.1269 44.3696 49.5893 44.277 50.0175 44.0919C50.4271 43.9045 50.7763 43.6545 51.0681 43.3409C51.36 43.0289 51.5861 42.6697 51.7471 42.2632C51.9087 41.8479 51.9906 41.4059 51.9886 40.9603ZM51.2261 40.9788C51.2261 41.3536 51.161 41.7066 51.031 42.0387C50.9071 42.3639 50.7337 42.648 50.5107 42.8919C50.2833 43.1384 50.008 43.336 49.7017 43.4725C49.392 43.6103 49.0514 43.6792 48.679 43.6792C48.3234 43.6826 47.9713 43.6089 47.647 43.4632C47.0254 43.1777 46.5412 42.6591 46.2991 42.0194C46.1739 41.6804 46.1109 41.3216 46.1133 40.9603C46.1133 40.5848 46.1752 40.2348 46.2991 39.9097C46.4292 39.5783 46.6057 39.2911 46.8286 39.0472C47.0524 38.8029 47.3248 38.608 47.6284 38.4751C47.9528 38.3297 48.3049 38.2563 48.6604 38.2599C49.032 38.2599 49.3726 38.3319 49.6823 38.4751C49.9997 38.6191 50.2715 38.8127 50.5014 39.0565C50.7306 39.3004 50.9071 39.5884 51.031 39.919C51.161 40.2503 51.2261 40.6041 51.2261 40.9788ZM58.3254 42.9476L54.2253 37.6878H53.5378V44.2514H54.2532V38.8692L58.4555 44.2514H59.0415V37.6878H58.3254V42.9476ZM65.5587 37.6878H60.8826V44.2514H61.6173V41.3915H65.1406V40.7164H61.6173V38.3721H65.5587V37.6878Z" fill="white"/>
<path d="M0 31.7125H34.9394V37.4075L0 31.7125Z" fill="black" fill-opacity="0.53"/>
</g>
<defs>
<clipPath id="clip0">
<rect width="74.3226" height="48" fill="white"/>
</clipPath>
</defs>
</svg>
