<svg width="182" height="137" viewBox="0 0 182 137" fill="none" xmlns="http://www.w3.org/2000/svg">
<g clip-path="url(#clip0_533_5252)">
<path d="M93.363 3.43387C92.951 3.32517 92.611 3.06247 92.398 2.69559L91.266 0.734375L89.957 2.99907L90.437 3.82792C90.781 4.42127 91.262 4.90137 91.841 5.23655C92.131 5.40413 92.444 5.53549 92.774 5.62155C93.177 5.73025 93.594 5.76649 93.997 5.74385V3.4701C93.789 3.50181 93.572 3.49276 93.359 3.43387H93.363Z" fill="#1E1007" fill-opacity="0.1"/>
<path d="M89.9609 -1.53021V2.99916L92.2799 -1.02292L90.6229 -2.68066L89.9609 -1.53021Z" fill="#1E1007" fill-opacity="0.1"/>
<path d="M94.002 40.7967V36.2674L91.2659 31.5342L89.9609 33.7989L94.002 40.7967Z" fill="#1E1007" fill-opacity="0.1"/>
<path d="M91.266 31.5342L92.398 29.5729C92.611 29.206 92.951 28.9433 93.359 28.8346C93.572 28.7757 93.789 28.7667 93.997 28.7984V26.5292C93.925 26.5292 93.848 26.5156 93.775 26.5156C93.44 26.5156 93.105 26.5609 92.774 26.647C91.782 26.9142 90.949 27.5483 90.437 28.4406L89.957 29.2695V33.7988L91.266 31.5342Z" fill="#1E1007" fill-opacity="0.1"/>
<path d="M89.9609 59.1533H92.226L94.002 58.1297V55.5117L89.9609 57.8444V59.1533Z" fill="#1E1007" fill-opacity="0.1"/>
<path d="M90.528 77.9193L89.9609 78.2454L94.002 80.5781V77.9646L92.226 76.9365L90.528 77.9193Z" fill="#1E1007" fill-opacity="0.1"/>
<path d="M93.363 107.256C92.951 107.147 92.611 106.884 92.398 106.517L91.266 104.556L89.957 106.821L90.437 107.65C90.781 108.243 91.262 108.723 91.841 109.058C92.131 109.226 92.444 109.357 92.774 109.443C93.177 109.552 93.594 109.588 93.997 109.566V107.292C93.789 107.324 93.572 107.315 93.359 107.256H93.363Z" fill="#1E1007" fill-opacity="0.1"/>
<path d="M89.9609 102.292V106.821L92.2799 102.803L90.6229 101.146L89.9609 102.292Z" fill="#1E1007" fill-opacity="0.1"/>
<path d="M94.0021 99.8233V95.2939L90.623 101.146L92.2801 102.803L94.0021 99.8233Z" fill="#1E1007" fill-opacity="0.1"/>
<path d="M90.528 77.9193L92.226 76.9365H89.9609V78.2454L90.528 77.9193Z" fill="#1E1007" fill-opacity="0.1"/>
<path d="M89.9658 60.4669L94.0008 62.795V60.1816L92.2258 59.1533L89.9658 60.4669Z" fill="#1E1007" fill-opacity="0.1"/>
<path d="M94.002 75.9128V73.2949L89.9609 75.6275V76.9368H92.226L94.002 75.9128Z" fill="#1E1007" fill-opacity="0.1"/>
<path d="M89.9609 60.4624L90.528 60.1363L92.226 59.1533H89.9609V60.4624Z" fill="#1E1007" fill-opacity="0.1"/>
<path d="M94.002 144.623V140.094L91.2659 135.356L89.9609 137.621L94.002 144.623Z" fill="#1E1007" fill-opacity="0.1"/>
<path d="M91.266 135.356L92.398 133.395C92.611 133.028 92.951 132.765 93.359 132.656C93.572 132.597 93.789 132.588 93.997 132.62V130.351C93.925 130.351 93.848 130.337 93.775 130.337C93.44 130.337 93.105 130.383 92.774 130.469C91.782 130.736 90.949 131.37 90.437 132.262L89.957 133.091V137.62L91.266 135.356Z" fill="#1E1007" fill-opacity="0.1"/>
<path d="M-6.52213 -7.44629C-7.28813 -7.17453 -8.04011 -6.88012 -8.78711 -6.56307V1.23196C-8.78711 2.60435 -8.04912 3.88163 -6.86212 4.56556L-2.22012 7.24693L-0.521118 6.26407L0.0448914 5.93796L-5.73013 2.60434C-6.21913 2.32352 -6.52213 1.79813 -6.52213 1.23196V-7.44629Z" fill="#1E1007" fill-opacity="0.1"/>
<path d="M8.52298 -7.95703C7.99798 -7.34103 7.49098 -6.70692 7.00098 -6.05922L10.897 0.689519C11.581 1.87621 12.858 2.6145 14.23 2.6145H19.588L20.571 0.91599L20.897 0.34982H14.23C13.664 0.34982 13.139 0.0463533 12.858 -0.44282L8.87698 -7.34103L8.52298 -7.95703Z" fill="#1E1007" fill-opacity="0.1"/>
<path d="M-2.22021 7.24385H2.30878L6.95178 4.56247C8.13878 3.87853 8.8768 2.60125 8.8768 1.22885V-2.81585L6.61179 -6.73828V1.22885C6.61179 1.79502 6.30879 2.32044 5.81979 2.60126L-0.522217 6.26097L-2.22021 7.23932V7.24385Z" fill="#1E1007" fill-opacity="0.1"/>
<path d="M20.5768 0.910502L19.5938 2.60901L23.5168 0.344325L26.1978 -4.29826C26.8818 -5.48495 26.8818 -6.96151 26.1978 -8.1482L24.1778 -11.6494L20.2558 -13.9141L24.2368 -7.01587C24.5178 -6.52671 24.5178 -5.91976 24.2368 -5.43059L20.5768 0.910502Z" fill="#1E1007" fill-opacity="0.1"/>
<path d="M75.97 9.56637L77.103 11.5276C77.316 11.8945 77.37 12.3202 77.261 12.7324C77.153 13.1446 76.89 13.4843 76.523 13.6971L74.562 14.8295L76.827 16.1385L77.655 15.6583C78.249 15.3141 78.729 14.834 79.064 14.2542C79.232 13.9644 79.363 13.6518 79.449 13.3212C79.716 12.3293 79.58 11.2921 79.064 10.3998L76.265 5.54883C75.508 5.75264 74.757 5.95195 74 6.15577L74.661 7.30621L75.97 9.5709V9.56637Z" fill="#1E1007" fill-opacity="0.1"/>
<path d="M72.0182 -1.81149L68.7112 -3.72288L68.0952 -4.07617L74.0022 6.15112C74.7582 5.9473 75.5102 5.74801 76.2662 5.54419L72.0182 -1.81149Z" fill="#1E1007" fill-opacity="0.1"/>
<path d="M53.8339 -7.33691L51.5688 -3.4145V1.94827C51.5688 3.32066 52.3078 4.59792 53.4938 5.28186L56.9948 7.30196H61.5248L54.6269 3.32066C54.1369 3.03983 53.8339 2.51444 53.8339 1.94827V-7.33691Z" fill="#1E1007" fill-opacity="0.1"/>
<path d="M72.2979 16.1344H76.8269L72.8049 13.8154L71.1479 15.4731L72.2979 16.1344Z" fill="#1E1007" fill-opacity="0.1"/>
<path d="M65.4489 9.56641H61.631H60.9189L71.1479 15.4729L72.8049 13.8152L65.4489 9.56641Z" fill="#1E1007" fill-opacity="0.1"/>
<path d="M47.9199 15.5686L46.9419 13.8701V16.1348H48.2459L47.9199 15.5686Z" fill="#1E1007" fill-opacity="0.1"/>
<path d="M83.3929 -8.37945L88.6519 0.733615L89.9609 -1.53078L83.0029 -13.5791C82.5139 -12.9314 82.0119 -12.2974 81.4819 -11.6814L83.3929 -8.37492V-8.37945Z" fill="#1E1007" fill-opacity="0.1"/>
<path d="M72.0161 -1.81111L81.1241 3.44747V0.834043L69.0721 -6.12305C68.9721 -5.31683 68.8501 -4.51513 68.7051 -3.72249L72.0111 -1.81111H72.0161Z" fill="#1E1007" fill-opacity="0.1"/>
<path d="M87.521 2.69562C87.309 3.06249 86.969 3.3252 86.561 3.43391C86.149 3.54261 85.723 3.48825 85.356 3.27537L83.395 2.14304V4.75647L84.224 5.23657C84.817 5.5808 85.474 5.75294 86.145 5.75294C86.48 5.75294 86.815 5.70763 87.145 5.62157C88.137 5.35435 88.971 4.72024 89.483 3.82795L89.963 2.99909V-1.53027L87.521 2.69562Z" fill="#1E1007" fill-opacity="0.1"/>
<path d="M61.631 9.56648C61.359 8.80102 61.065 8.0491 60.748 7.30176H52.953C51.58 7.30176 50.303 8.04004 49.619 9.22674L46.938 13.8694L47.92 15.5684L48.246 16.1346L51.58 10.3591C51.861 9.86989 52.387 9.56643 52.953 9.56643L60.919 9.56648H61.631Z" fill="#1E1007" fill-opacity="0.1"/>
<path d="M65.4491 9.56648L75.9701 9.56663L74.6611 7.30176H60.7471C61.0641 8.0491 61.3591 8.80102 61.6311 9.56648H65.4491Z" fill="#1E1007" fill-opacity="0.1"/>
<path d="M81.1288 5.71694C81.1288 6.13816 80.9658 6.53675 80.6668 6.83569C80.3678 7.13462 79.9698 7.30222 79.5438 7.30222H77.2788L78.5878 9.56689H79.5438C80.2278 9.56689 80.8848 9.39025 81.4648 9.05507C81.7538 8.88748 82.0218 8.68365 82.2658 8.43907C82.9948 7.70984 83.3938 6.7451 83.3938 5.71694V0.118652C82.6378 -0.0851746 81.8858 -0.284454 81.1288 -0.488281V5.71694Z" fill="#1E1007" fill-opacity="0.1"/>
<path d="M83.3929 -8.37951L81.4819 -11.6858L81.1289 -12.3018V-0.493706C81.8849 -0.289887 82.6369 -0.0905991 83.3929 0.11322V-8.37951Z" fill="#1E1007" fill-opacity="0.1"/>
<path d="M-6.86212 9.92438C-8.04912 10.6083 -8.78711 11.8856 -8.78711 13.258V16.1341H-6.52213V13.258C-6.52213 12.6918 -6.21913 12.1664 -5.73013 11.8856L2.30988 7.24753L-2.22012 7.24707L-6.86212 9.92892V9.92438Z" fill="#1E1007" fill-opacity="0.1"/>
<path d="M8.87723 13.2581C8.87723 11.8857 8.13921 10.6084 6.95221 9.92443L2.3092 7.24316L0.0541992 8.55657L5.82022 11.8857C6.30922 12.1665 6.61322 12.6919 6.61322 13.2581V16.1342H8.87723V13.2581Z" fill="#1E1007" fill-opacity="0.1"/>
<path d="M18.784 8.54676L23.521 0.348633L19.599 2.6133L16.827 7.41442C15.273 10.1048 14.499 13.1168 14.499 16.1334H16.764C16.764 13.5109 17.439 10.8839 18.788 8.54676H18.784Z" fill="#1E1007" fill-opacity="0.1"/>
<path d="M29.0639 2.60941C34.4669 2.60941 39.5039 5.51725 42.2029 10.1961L45.6319 16.1296H46.9409V13.8649L44.1689 9.06374C41.0659 3.6874 35.2779 0.344727 29.0679 0.344727H23.5199L22.2109 2.60941H29.0639Z" fill="#1E1007" fill-opacity="0.1"/>
<path d="M23.5198 31.919L19.5978 29.6543H14.2348C12.8618 29.6543 11.5848 30.3926 10.9008 31.5793L8.88086 35.0805V39.6098L12.8618 32.7116C13.1428 32.2225 13.6688 31.919 14.2348 31.919H23.5198Z" fill="#1E1007" fill-opacity="0.1"/>
<path d="M-2.39304 54.6069C-2.60504 54.9738 -2.94503 55.2365 -3.35303 55.3452C-3.76503 55.4539 -4.19104 55.3995 -4.55804 55.1866L-6.51904 54.0543V56.6677L-5.69003 57.1478C-5.09703 57.4921 -4.44004 57.6642 -3.76904 57.6642C-3.43404 57.6642 -3.09904 57.6189 -2.76804 57.5328C-1.77704 57.2656 -0.94303 56.6315 -0.43103 55.7392L2.36798 50.8883L0.709961 49.2305L0.0489807 50.381L-2.39304 54.6069Z" fill="#1E1007" fill-opacity="0.1"/>
<path d="M6.61295 43.5372V39.0078L0.710938 49.2306L2.36893 50.8883L6.61295 43.5372Z" fill="#1E1007" fill-opacity="0.1"/>
<path d="M0.61087 26.0037L2.30988 25.0254H-2.22012L-6.86212 27.7068C-8.04912 28.3907 -8.78711 29.6725 -8.78711 31.0404V35.0851L-6.52213 39.0075V31.0404C-6.52213 30.4742 -6.21913 29.9488 -5.73013 29.668L0.61087 26.0083V26.0037Z" fill="#1E1007" fill-opacity="0.1"/>
<path d="M-6.52213 96.376C-7.28813 96.6478 -8.04011 96.9422 -8.78711 97.2593V105.055C-8.78711 106.427 -8.04912 107.704 -6.86212 108.388L-2.22012 111.07L-0.521118 110.087L0.0448914 109.761L-5.73013 106.427C-6.21913 106.146 -6.52213 105.621 -6.52213 105.055V97.0872V96.376Z" fill="#1E1007" fill-opacity="0.1"/>
<path d="M8.52298 95.8652C7.99798 96.4812 7.49098 97.1153 7.00098 97.763L10.897 104.511C11.581 105.698 12.858 106.436 14.23 106.436H19.588L20.571 104.738L20.897 104.172H14.23C13.664 104.172 13.139 103.868 12.858 103.379L8.87698 96.4812L8.52298 95.8652Z" fill="#1E1007" fill-opacity="0.1"/>
<path d="M6.61682 92.5577L1.35883 83.4492L0.0498047 85.7139L7.00681 97.762C7.49581 97.1143 7.99881 96.4802 8.52881 95.8642L6.61682 92.5577Z" fill="#1E1007" fill-opacity="0.1"/>
<path d="M-6.52106 82.0371L-4.56006 80.9048C-4.19306 80.6919 -3.76807 80.6374 -3.35507 80.7461C-2.94307 80.8548 -2.60305 81.1176 -2.39105 81.4845L-1.25806 83.4457L0.0509338 81.181L-0.429047 80.3522C-0.774047 79.7588 -1.25408 79.2787 -1.83408 78.9435C-2.12308 78.776 -2.43606 78.6446 -2.76706 78.5586C-3.75806 78.2913 -4.79605 78.4272 -5.68805 78.9435L-10.5391 81.7427C-10.3351 82.4991 -10.1361 83.251 -9.93207 84.0074L-8.78207 83.3461L-6.51706 82.0371H-6.52106Z" fill="#1E1007" fill-opacity="0.1"/>
<path d="M21.2971 87.8975C21.1481 88.6946 21.0262 89.4963 20.9312 90.298L27.6791 94.1933C28.8661 94.8772 30.3431 94.8772 31.5291 94.1933L36.1721 91.5119V88.8985L30.3972 92.232C29.9082 92.5129 29.3012 92.5129 28.8122 92.232L21.9131 88.2508L21.2971 87.8975Z" fill="#1E1007" fill-opacity="0.1"/>
<path d="M17.9898 85.9901L8.88086 80.7314V83.3448L20.9338 90.3019C21.0328 89.4957 21.1558 88.6941 21.3008 87.9015L17.9938 85.9901H17.9898Z" fill="#1E1007" fill-opacity="0.1"/>
<path d="M2.48706 81.4841C2.70006 81.1172 3.04005 80.8545 3.44705 80.7458C3.85905 80.6371 4.28507 80.6914 4.65207 80.9043L6.61307 82.0367V79.4232L5.78406 78.9431C5.19106 78.5989 4.53407 78.4268 3.86407 78.4268C3.52907 78.4268 3.19407 78.472 2.86307 78.5581C1.87107 78.8253 1.03806 79.464 0.526062 80.3517L-2.27295 85.2027L-0.615936 86.8604L0.046051 85.7099L2.48706 81.4841Z" fill="#1E1007" fill-opacity="0.1"/>
<path d="M28.376 74.6125C28.647 75.3779 28.942 76.1298 29.259 76.8772H37.054C38.426 76.8772 39.703 76.1389 40.387 74.9522L43.069 70.3096L42.086 68.6111L41.76 68.0449L38.426 73.8199C38.145 74.309 37.62 74.6125 37.054 74.6125H29.087H28.376Z" fill="#1E1007" fill-opacity="0.1"/>
<path d="M24.5571 74.6123H14.0361L15.3451 76.8769L29.2591 76.8771C28.9421 76.1297 28.6471 75.3778 28.3761 74.6124L24.5571 74.6123Z" fill="#1E1007" fill-opacity="0.1"/>
<path d="M-2.22021 111.065H2.30878L6.95178 108.384C8.13878 107.7 8.8768 106.423 8.8768 105.05V101.006L6.61179 97.083V105.05C6.61179 105.617 6.30879 106.142 5.81979 106.423L-0.522217 110.082L-2.22021 111.065Z" fill="#1E1007" fill-opacity="0.1"/>
<path d="M8.8768 78.4622C8.8768 78.041 9.03978 77.6424 9.33878 77.3435C9.63778 77.0445 10.0368 76.8769 10.4628 76.8769H12.7268L11.4178 74.6123H10.4628C9.7788 74.6123 9.12178 74.7889 8.54178 75.1241C8.25178 75.2917 7.98478 75.4955 7.74078 75.7401C7.01078 76.4693 6.61279 77.4341 6.61279 78.4622V84.0605C7.36879 84.2643 8.1208 84.4636 8.8768 84.6674V78.4622Z" fill="#1E1007" fill-opacity="0.1"/>
<path d="M6.61719 92.5581L8.52917 95.8646L8.88217 96.4803V84.6723C8.12517 84.4685 7.37319 84.2692 6.61719 84.0654V92.5581Z" fill="#1E1007" fill-opacity="0.1"/>
<path d="M27.8643 59.5666C28.4803 60.092 29.1142 60.5993 29.7622 61.0885L36.5112 57.1932C37.6972 56.5093 38.4362 55.232 38.4362 53.8596V48.5014L36.7372 47.5185L36.1712 47.1924V53.8596C36.1712 54.4258 35.8682 54.9512 35.3782 55.232L28.4803 59.2133L27.8643 59.5666Z" fill="#1E1007" fill-opacity="0.1"/>
<path d="M15.4512 66.7363L17.7152 68.0453L29.7632 61.0882C29.1162 60.5991 28.4822 60.0963 27.8662 59.5664L15.4512 66.7363Z" fill="#1E1007" fill-opacity="0.1"/>
<path d="M20.5768 104.737L19.5938 106.436L23.5168 104.171L26.1978 99.5289C26.8818 98.3423 26.8818 96.8657 26.1978 95.679L24.1778 92.1778L20.2558 89.9131L24.2368 96.8113C24.5178 97.3005 24.5178 97.9074 24.2368 98.3966L20.5768 104.737Z" fill="#1E1007" fill-opacity="0.1"/>
<path d="M14.036 74.6127L12.9031 72.6519C12.6901 72.285 12.636 71.8592 12.744 71.4471C12.853 71.0349 13.116 70.6952 13.483 70.4823L15.444 69.35L13.179 68.041L12.35 68.5211C11.757 68.8653 11.277 69.3454 10.942 69.9252C10.774 70.2151 10.643 70.5276 10.557 70.8582C10.289 71.8502 10.425 72.8874 10.942 73.7797L13.741 78.6306C14.497 78.4268 15.249 78.2275 16.005 78.0237L15.344 76.8732L14.035 74.6085L14.036 74.6127Z" fill="#1E1007" fill-opacity="0.1"/>
<path d="M17.9902 85.9904L21.2962 87.9023L21.9122 88.2556L16.0062 78.0283C15.2492 78.2321 14.4982 78.4314 13.7412 78.6352L17.9902 85.9904Z" fill="#1E1007" fill-opacity="0.1"/>
<path d="M19.9019 46.7933C20.6989 46.9427 21.5008 47.065 22.3018 47.1602L26.1978 40.4114C26.8808 39.2247 26.8808 37.7482 26.1978 36.5615L23.5158 31.9189H20.9029L24.2358 37.6938C24.5168 38.183 24.5168 38.7899 24.2358 39.2791L20.2549 46.1773L19.9019 46.7933Z" fill="#1E1007" fill-opacity="0.1"/>
<path d="M17.99 50.1047L12.731 59.2132H15.344L22.302 47.1608C21.496 47.0611 20.694 46.9388 19.902 46.7939L17.99 50.1001V50.1047Z" fill="#1E1007" fill-opacity="0.1"/>
<path d="M36.171 91.5159L38.436 87.5935V82.2307C38.436 80.8583 37.698 79.581 36.511 78.8971L33.01 76.877H28.481L35.379 80.8583C35.868 81.1391 36.171 81.6645 36.171 82.2307V91.5159Z" fill="#1E1007" fill-opacity="0.1"/>
<path d="M13.4828 65.6037C13.1158 65.3908 12.8528 65.0511 12.7438 64.6435C12.6358 64.2313 12.6898 63.8055 12.9028 63.4387L14.0348 61.4775H11.4218L10.9418 62.3063C10.5978 62.8997 10.4248 63.5565 10.4248 64.2268C10.4248 64.562 10.4708 64.8971 10.5568 65.2278C10.8238 66.2197 11.4578 67.0531 12.3498 67.5649L17.2008 70.3641L18.8588 68.7063L17.7088 68.045L13.4828 65.6037Z" fill="#1E1007" fill-opacity="0.1"/>
<path d="M24.5572 74.6122L28.3762 74.6123H29.0872L18.8592 68.7061L17.2012 70.3639L24.5572 74.6122Z" fill="#1E1007" fill-opacity="0.1"/>
<path d="M6.61194 39.7137C7.37694 39.4419 8.12895 39.1475 8.87595 38.8305V31.0354C8.87595 29.663 8.13793 28.3858 6.95093 27.7018L2.30893 25.0205L0.609924 26.0033L0.0439453 26.3294L5.81894 29.663C6.30794 29.9439 6.61194 30.4693 6.61194 31.0354V39.7137Z" fill="#1E1007" fill-opacity="0.1"/>
<path d="M6.61279 43.5367V54.0582L8.8768 52.7492V38.835C8.1298 39.1521 7.37779 39.4465 6.61279 39.7183V43.5367Z" fill="#1E1007" fill-opacity="0.1"/>
<path d="M42.0859 68.6112L43.0689 70.3097V65.7804L40.3879 61.1378C39.7039 59.9511 38.4259 59.2129 37.0539 59.2129H33.0089L29.0869 61.4775H37.0539C37.6199 61.4775 38.1459 61.781 38.4259 62.2702L41.7599 68.045L42.0859 68.6112Z" fill="#1E1007" fill-opacity="0.1"/>
<path d="M12.7312 59.2133L10.4672 59.2132C10.0412 59.2132 9.64718 59.0502 9.34818 58.7512C9.04918 58.4523 8.88217 58.0537 8.88217 57.628V55.3633L6.61719 56.6723V57.628C6.61719 58.3119 6.79418 58.9687 7.12918 59.5484C7.29618 59.8383 7.50018 60.1055 7.74518 60.3501C8.47418 61.0793 9.43919 61.4779 10.4672 61.4779H16.0652C16.2692 60.7215 16.4682 59.9696 16.6722 59.2132L15.3442 59.2133H12.7312Z" fill="#1E1007" fill-opacity="0.1"/>
<path d="M24.556 61.4775L27.863 59.5661L28.479 59.2129H16.671C16.467 59.9693 16.267 60.7211 16.064 61.4775H24.556Z" fill="#1E1007" fill-opacity="0.1"/>
<path d="M-6.52209 43.5366L-1.2641 52.6496L0.0449219 50.385L-6.91208 38.3369C-7.40108 38.9846 -7.90408 39.6187 -8.43408 40.2347L-6.5231 43.5411L-6.52209 43.5366Z" fill="#1E1007" fill-opacity="0.1"/>
<path d="M36.7371 47.5184L38.4361 48.5013L36.1711 44.5791L31.5281 41.8977C30.3421 41.2138 28.8651 41.2138 27.6791 41.8977L24.1771 43.9178L21.9131 47.8402L28.8111 43.8589C29.3001 43.5781 29.9071 43.5781 30.3961 43.8589L36.1711 47.1923L36.7371 47.5184Z" fill="#1E1007" fill-opacity="0.1"/>
<path d="M6.61203 54.0543L4.65103 55.1866C4.28403 55.3995 3.85804 55.4538 3.44604 55.3451C3.03404 55.2364 2.69402 54.9737 2.48102 54.6069L1.34903 52.6456L0.0400391 54.9103L0.52002 55.7392C0.86402 56.3325 1.34404 56.8127 1.92404 57.1478C2.21404 57.3154 2.52603 57.4468 2.85703 57.5328C3.84903 57.8 4.88602 57.6642 5.77902 57.1478L10.629 54.3487C10.426 53.5923 10.226 52.8404 10.023 52.084L8.87204 52.7453L6.60703 54.0543H6.61203Z" fill="#1E1007" fill-opacity="0.1"/>
<path d="M17.9898 50.1047L19.9019 46.7986L20.2549 46.1826L10.0269 52.0889C10.2309 52.8453 10.4309 53.5971 10.6339 54.3535L17.9898 50.1047Z" fill="#1E1007" fill-opacity="0.1"/>
<path d="M69.4289 83.2688L70.4119 81.5703L66.4899 83.8349L63.8079 88.4775C63.1239 89.6642 63.1239 91.1408 63.8079 92.3275L65.8279 95.8287L69.7509 98.0933L65.7689 91.1951C65.4889 90.706 65.4889 90.099 65.7689 89.6099L69.4289 83.2688Z" fill="#1E1007" fill-opacity="0.1"/>
<path d="M75.97 113.389L77.103 115.35C77.316 115.717 77.37 116.142 77.261 116.555C77.153 116.967 76.89 117.306 76.523 117.519L74.562 118.652L76.827 119.961L77.655 119.481C78.249 119.136 78.729 118.656 79.064 118.076C79.232 117.787 79.363 117.474 79.449 117.143C79.716 116.151 79.58 115.114 79.064 114.222L76.265 109.371C75.508 109.575 74.757 109.774 74 109.978L74.661 111.128L75.97 113.393V113.389Z" fill="#1E1007" fill-opacity="0.1"/>
<path d="M72.0182 102.015L68.7112 100.104L68.0952 99.751L74.0022 109.978C74.7582 109.774 75.5102 109.575 76.2662 109.371L72.0182 102.015Z" fill="#1E1007" fill-opacity="0.1"/>
<path d="M53.8339 96.4844L51.5688 100.407V105.77C51.5688 107.142 52.3078 108.42 53.4938 109.104L56.9948 111.124H61.5248L54.6269 107.142C54.1369 106.862 53.8339 106.336 53.8339 105.77V96.4844Z" fill="#1E1007" fill-opacity="0.1"/>
<path d="M72.2979 119.956H76.8269L72.8049 117.637L71.1479 119.295L72.2979 119.956Z" fill="#1E1007" fill-opacity="0.1"/>
<path d="M65.4489 113.389H61.631H60.9189L71.1479 119.295L72.8049 117.637L65.4489 113.389Z" fill="#1E1007" fill-opacity="0.1"/>
<path d="M47.9199 119.39L46.9419 117.691V119.956H48.2459L47.9199 119.39Z" fill="#1E1007" fill-opacity="0.1"/>
<path d="M81.4829 92.1369C82.0079 91.5209 82.5159 90.8868 83.0049 90.2391L79.1099 83.4904C78.4259 82.3037 77.1479 81.5654 75.7759 81.5654H70.4179L69.4349 83.2639L69.1089 83.8301H75.7759C76.3419 83.8301 76.8679 84.1335 77.1479 84.6227L81.1299 91.5209L81.4829 92.1369Z" fill="#1E1007" fill-opacity="0.1"/>
<path d="M83.3929 95.4474L88.6519 104.556L89.9609 102.292L83.0029 90.2432C82.5139 90.8909 82.0119 91.525 81.4819 92.141L83.3929 95.4474Z" fill="#1E1007" fill-opacity="0.1"/>
<path d="M68.7109 100.104C68.8609 99.3069 68.9829 98.5048 69.0779 97.7031L62.3289 93.8078C61.1429 93.1239 59.6659 93.1239 58.4789 93.8078L53.8369 96.4892V99.1026L59.6119 95.769C60.1009 95.4882 60.7079 95.4882 61.1969 95.769L68.0949 99.7508L68.7109 100.104Z" fill="#1E1007" fill-opacity="0.1"/>
<path d="M72.0161 102.015L81.1241 107.274V104.66L69.0721 97.7031C68.9721 98.5094 68.8501 99.3111 68.7051 100.104L72.0111 102.015H72.0161Z" fill="#1E1007" fill-opacity="0.1"/>
<path d="M87.521 106.517C87.309 106.884 86.969 107.147 86.561 107.256C86.149 107.364 85.723 107.31 85.356 107.097L83.395 105.965V108.578L84.224 109.058C84.817 109.403 85.474 109.575 86.145 109.575C86.48 109.575 86.815 109.529 87.145 109.443C88.137 109.176 88.971 108.542 89.483 107.65L89.963 106.821V102.292L87.521 106.517Z" fill="#1E1007" fill-opacity="0.1"/>
<path d="M61.631 113.389C61.359 112.623 61.065 111.871 60.748 111.124H52.953C51.58 111.124 50.303 111.862 49.619 113.049L46.938 117.691L47.92 119.39L48.246 119.956L51.58 114.181C51.861 113.692 52.387 113.388 52.953 113.388L60.919 113.389H61.631Z" fill="#1E1007" fill-opacity="0.1"/>
<path d="M65.4491 113.389H75.9701L74.6611 111.124H60.7471C61.0641 111.871 61.3591 112.623 61.6311 113.389H65.4491Z" fill="#1E1007" fill-opacity="0.1"/>
<path d="M87.6959 76.9365L83.0539 79.6178C81.8669 80.3018 81.1289 81.579 81.1289 82.9514V86.9961L83.3929 90.9186V82.9514C83.3929 82.3853 83.6969 81.8599 84.1859 81.579L89.9609 78.2454V76.9365H87.6959Z" fill="#1E1007" fill-opacity="0.1"/>
<path d="M81.1288 109.539C81.1288 109.965 80.9658 110.359 80.6668 110.658C80.3678 110.956 79.9698 111.124 79.5438 111.124H77.2788L78.5878 113.389H79.5438C80.2278 113.389 80.8848 113.212 81.4648 112.877C81.7538 112.709 82.0218 112.506 82.2658 112.261C82.9948 111.532 83.3938 110.567 83.3938 109.539V103.941C82.6378 103.737 81.8858 103.537 81.1288 103.334V109.539Z" fill="#1E1007" fill-opacity="0.1"/>
<path d="M83.3929 95.4475L81.4819 92.1411L81.1289 91.5254V103.334C81.8859 103.537 82.6379 103.737 83.3939 103.941L83.3929 95.4475Z" fill="#1E1007" fill-opacity="0.1"/>
<path d="M83.3929 44.4648C82.6279 44.7366 81.8759 45.031 81.1289 45.348V53.143C81.1289 54.5154 81.8669 55.7927 83.0539 56.4766L87.6959 59.158L89.3949 58.1751L89.9609 57.849L84.1859 54.5154C83.6969 54.2346 83.3929 53.7092 83.3929 53.143V44.4648Z" fill="#1E1007" fill-opacity="0.1"/>
<path d="M81.1289 45.349C81.8759 45.032 82.6279 44.7376 83.3929 44.4658V30.126L81.1289 31.435V45.349Z" fill="#1E1007" fill-opacity="0.1"/>
<path d="M46.9419 18.3985L49.6229 23.041C50.3069 24.2277 51.5849 24.966 52.9569 24.966H57.0019L60.9239 22.7014H52.9569C52.3909 22.7014 51.8649 22.3979 51.5849 21.9087L48.2509 16.1338L46.9419 16.1344V18.3985Z" fill="#1E1007" fill-opacity="0.1"/>
<path d="M79.5439 24.9659C79.9649 24.9659 80.3639 25.129 80.6629 25.4279C80.9619 25.7268 81.1289 26.1254 81.1289 26.5512V28.8159L83.3939 27.5069V26.5512C83.3939 25.8673 83.2169 25.2105 82.8819 24.6307C82.7149 24.3408 82.5109 24.0736 82.2659 23.829C81.5369 23.0998 80.5719 22.7012 79.5439 22.7012H73.9459C73.7419 23.4576 73.5429 24.2095 73.3389 24.9659H79.5439Z" fill="#1E1007" fill-opacity="0.1"/>
<path d="M65.4469 22.7012L62.1409 24.6126L61.5249 24.9659H73.3329C73.5369 24.2095 73.7359 23.4576 73.9399 22.7012H65.4469Z" fill="#1E1007" fill-opacity="0.1"/>
<path d="M53.2679 36.6665L51.5688 35.6836L53.8339 39.606L58.4768 42.2874C59.6628 42.9713 61.1398 42.9713 62.3268 42.2874L65.8279 40.2673L68.0919 36.3449L61.1938 40.3262C60.7048 40.607 60.0979 40.607 59.6089 40.3262L53.2679 36.6665Z" fill="#1E1007" fill-opacity="0.1"/>
<path d="M81.1299 31.4301L85.3549 28.9887C85.7219 28.7758 86.1479 28.7215 86.5599 28.8302C86.9679 28.9389 87.3119 29.2016 87.5249 29.5685L88.657 31.5297L89.9659 29.265L89.4859 28.4361C89.1419 27.8428 88.6619 27.3627 88.0819 27.0275C87.7919 26.8599 87.4799 26.7286 87.1489 26.6425C86.1569 26.3753 85.1199 26.5112 84.2279 27.0275L79.377 29.8266C79.581 30.5831 79.7799 31.3349 79.9839 32.0913L81.1339 31.4301H81.1299Z" fill="#1E1007" fill-opacity="0.1"/>
<path d="M69.751 37.9972L79.978 32.0909C79.774 31.3345 79.575 30.5826 79.371 29.8262L72.015 34.0748L70.104 37.3812L69.751 37.9972Z" fill="#1E1007" fill-opacity="0.1"/>
<path d="M75.7708 54.5249C77.1428 54.5249 78.4209 53.7866 79.1039 52.5999L81.1248 49.0987V44.5693L77.1429 51.4676C76.8619 51.9567 76.3368 52.2602 75.7708 52.2602H66.4858L70.4078 54.5249H75.7708Z" fill="#1E1007" fill-opacity="0.1"/>
<path d="M89.9622 33.7989V29.2695L87.6392 33.2916L89.2971 34.9493L89.9622 33.7989Z" fill="#1E1007" fill-opacity="0.1"/>
<path d="M83.395 45.172L89.297 34.9497L87.639 33.292L83.395 40.6427V45.172Z" fill="#1E1007" fill-opacity="0.1"/>
<path d="M89.3958 58.1757L87.6968 59.1541L89.9608 59.1536V57.8447L89.3958 58.1757Z" fill="#1E1007" fill-opacity="0.1"/>
<path d="M62.1408 24.6133C61.5248 24.0879 60.8909 23.581 60.2429 23.0918L53.4938 26.9871C52.3078 27.671 51.5688 28.9483 51.5688 30.3207V35.6789L53.2679 36.6618L53.8339 36.9879V30.3207C53.8339 29.7545 54.1369 29.2291 54.6269 28.9483L61.5248 24.9666L62.1408 24.6133Z" fill="#1E1007" fill-opacity="0.1"/>
<path d="M74.5571 17.4427L72.2931 16.1338L60.2451 23.0909C60.8921 23.58 61.5261 24.0828 62.1421 24.6127L74.5571 17.4427Z" fill="#1E1007" fill-opacity="0.1"/>
<path d="M69.1029 52.2608L65.7689 46.4858C65.4889 45.9967 65.4889 45.3897 65.7689 44.9006L69.7509 38.0024L70.1039 37.3864C69.3069 37.2369 68.5049 37.1146 67.7029 37.0195L63.8079 43.7682C63.1239 44.9549 63.1239 46.4315 63.8079 47.6182L66.4899 52.2608H69.1029Z" fill="#1E1007" fill-opacity="0.1"/>
<path d="M72.0151 34.0747L77.2751 24.9658H74.6611L67.7031 37.0191C68.5101 37.1187 69.3111 37.241 70.1041 37.386L72.0161 34.0789L72.0151 34.0747Z" fill="#1E1007" fill-opacity="0.1"/>
<path d="M76.5219 18.5751C76.8889 18.788 77.1519 19.1277 77.2609 19.5353C77.3689 19.9475 77.3149 20.3732 77.1019 20.7401L75.9699 22.7014H78.5829L79.0629 21.8725C79.4079 21.2791 79.5799 20.6224 79.5799 19.952C79.5799 19.6169 79.5339 19.2817 79.4479 18.951C79.1809 17.9591 78.5469 17.1257 77.6549 16.6139L76.8259 16.1338H72.2969L76.5219 18.5751Z" fill="#1E1007" fill-opacity="0.1"/>
<path d="M6.95178 22.344C8.13878 21.6601 8.8768 20.3828 8.8768 19.0104V16.1348H6.61279L6.61179 19.0104C6.61179 19.5766 6.30879 20.102 5.81979 20.3828L-2.22021 25.0209L2.30878 25.0211L6.95178 22.3395V22.344Z" fill="#1E1007" fill-opacity="0.1"/>
<path d="M-8.78711 19.0105C-8.78711 20.3829 -8.04912 21.6602 -6.86212 22.3441L-2.22012 25.0256L0.0358887 23.712L-5.73013 20.3829C-6.21913 20.1021 -6.52213 19.5767 -6.52213 19.0105V16.1348H-8.78711V19.0105Z" fill="#1E1007" fill-opacity="0.1"/>
<path d="M83.0539 61.8348C81.8669 62.5187 81.1289 63.796 81.1289 65.1684V70.9207C81.1289 72.2931 81.8669 73.5703 83.0539 74.2543L87.6959 76.9359L89.9519 75.6222L84.1859 72.2931C83.6969 72.0123 83.3929 71.4868 83.3929 70.9207V65.1684C83.3929 64.6022 83.6969 64.0768 84.1859 63.796L89.9609 60.4624V59.1533L87.6959 59.1534L83.0539 61.8348Z" fill="#1E1007" fill-opacity="0.1"/>
<path d="M89.9608 75.627L87.6968 76.9365L89.9608 76.9363V75.627Z" fill="#1E1007" fill-opacity="0.1"/>
<path d="M-6.86212 113.746C-8.04912 114.43 -8.78711 115.708 -8.78711 117.08V119.956H-6.52213V117.08C-6.52213 116.514 -6.21913 115.988 -5.73013 115.708L2.30988 111.07H-2.22012L-6.86212 113.751V113.746Z" fill="#1E1007" fill-opacity="0.1"/>
<path d="M8.87723 117.08C8.87723 115.708 8.13921 114.43 6.95221 113.746L2.3092 111.065L0.0541992 112.379L5.82022 115.708C6.30922 115.988 6.61322 116.514 6.61322 117.08V119.956H8.87723V117.08Z" fill="#1E1007" fill-opacity="0.1"/>
<path d="M36.1719 96.8787C36.1719 98.2511 36.9099 99.5284 38.0969 100.212L43.0789 103.089C44.2659 103.772 45.7429 103.772 46.9289 103.089L51.5719 100.407L51.5629 97.7981L45.7969 101.127C45.3079 101.408 44.7009 101.408 44.2119 101.127L39.2289 98.2511C38.7399 97.9703 38.4369 97.4403 38.4369 96.8787L38.4359 87.5938L36.1709 91.5161L36.1719 96.8787Z" fill="#1E1007" fill-opacity="0.1"/>
<path d="M51.571 98.4464L51.572 100.407L53.836 96.4852V91.127C53.836 89.7546 53.098 88.4773 51.911 87.7934L46.929 84.9172C45.742 84.2333 44.265 84.2333 43.079 84.9172L38.436 87.5986L38.445 90.2075L44.211 86.8784C44.7 86.5976 45.307 86.5976 45.796 86.8784L50.779 89.7546C51.268 90.0354 51.571 90.5653 51.571 91.127V98.4509V98.4464Z" fill="#1E1007" fill-opacity="0.1"/>
<path d="M43.0789 51.1775C44.2659 51.8614 45.7429 51.8614 46.9289 51.1775L51.9109 48.3013C53.0979 47.6174 53.8359 46.3401 53.8359 44.9677V39.6095L51.5719 38.3096V44.9677C51.5719 45.5339 51.2679 46.0593 50.7789 46.3401L45.7969 49.2162C45.3079 49.4971 44.7009 49.4971 44.2119 49.2162L37.8709 45.5565L36.1719 44.5737L38.4369 48.4961L43.0789 51.1775Z" fill="#1E1007" fill-opacity="0.1"/>
<path d="M53.8359 39.605L51.5719 35.6826L46.9289 33.0012C45.7429 32.3173 44.2659 32.3173 43.0789 33.0012L38.0969 35.8773C36.9099 36.5613 36.1719 37.8431 36.1719 39.2109V44.5692L38.4369 45.8691V39.2109C38.4369 38.6448 38.7399 38.1194 39.2289 37.8385L44.2119 34.9624C44.7009 34.6816 45.3079 34.6816 45.7969 34.9624L52.1379 38.6221L53.8359 39.605Z" fill="#1E1007" fill-opacity="0.1"/>
<path d="M18.784 112.369L23.521 104.171L19.599 106.436L16.827 111.237C15.273 113.927 14.499 116.939 14.499 119.956H16.764C16.764 117.334 17.439 114.706 18.788 112.369H18.784Z" fill="#1E1007" fill-opacity="0.1"/>
<path d="M29.0639 106.436C34.4669 106.436 39.5039 109.344 42.2029 114.023L45.6319 119.956H46.9409V117.691L44.1689 112.89C41.0659 107.514 35.2779 104.171 29.0679 104.171H23.5199L22.2109 106.436H29.0639Z" fill="#1E1007" fill-opacity="0.1"/>
<path d="M45.8399 75.1108C48.9419 80.4871 54.7309 83.8298 60.9399 83.8298H66.4889L67.7979 81.5651H60.9449C55.5409 81.5651 50.5049 78.6573 47.8049 73.9784L44.3769 68.045L43.0679 65.7803V70.3097L45.8399 75.1108Z" fill="#1E1007" fill-opacity="0.1"/>
<path d="M71.2228 60.4578C73.9228 65.1366 73.9228 70.9523 71.2228 75.6311L66.4858 83.8293L70.4078 81.5646L73.1798 76.7635C76.2868 71.3871 76.2868 64.7018 73.1798 59.3255L70.4078 54.5246L67.7949 54.5244L71.2228 60.4578Z" fill="#1E1007" fill-opacity="0.1"/>
<path d="M47.8009 62.112C50.5049 57.4332 55.5369 54.5253 60.9399 54.5253H70.4069L66.4839 52.2607H60.9399C54.7309 52.2607 48.9419 55.5988 45.8399 60.9797L43.0679 65.7808L44.3769 68.0455L47.8049 62.112H47.8009Z" fill="#1E1007" fill-opacity="0.1"/>
<path d="M23.5208 31.9186H29.0648C35.2748 31.9186 41.0637 28.5804 44.1657 23.1996L46.9377 18.3985L45.6288 16.1338L42.1998 22.0672C39.4958 26.746 34.4638 29.6539 29.0608 29.6539H19.5938L23.5157 31.9189L23.5208 31.9186Z" fill="#1E1007" fill-opacity="0.1"/>
<path d="M45.6318 16.1338L46.9418 18.3985L46.9369 16.1338H45.6318Z" fill="#1E1007" fill-opacity="0.1"/>
<path d="M18.7822 23.7204C17.4332 21.3788 16.7581 18.7563 16.7581 16.1338H14.4932C14.4932 19.1503 15.2672 22.1624 16.8212 24.8528L19.5931 29.6539H22.2061L18.7782 23.7204H18.7822Z" fill="#1E1007" fill-opacity="0.1"/>
<path d="M23.5198 135.745L19.5978 133.481H14.2348C12.8618 133.481 11.5848 134.219 10.9008 135.406L8.88086 138.907V143.436L12.8618 136.538C13.1428 136.049 13.6688 135.745 14.2348 135.745H23.5198Z" fill="#1E1007" fill-opacity="0.1"/>
<path d="M0.61087 129.83L2.30988 128.852H-2.22012L-6.86212 131.533C-8.04912 132.217 -8.78711 133.494 -8.78711 134.867V138.911L-6.52213 142.834V134.867C-6.52213 134.301 -6.21913 133.775 -5.73013 133.494L0.61087 129.835V129.83Z" fill="#1E1007" fill-opacity="0.1"/>
<path d="M19.9019 150.615C20.6989 150.765 21.5008 150.887 22.3018 150.982L26.1978 144.233C26.8808 143.047 26.8808 141.57 26.1978 140.384L23.5158 135.741H20.9029L24.2358 141.516C24.5168 142.005 24.5168 142.612 24.2358 143.101L20.2549 149.999L19.9019 150.615Z" fill="#1E1007" fill-opacity="0.1"/>
<path d="M6.61194 143.536C7.37694 143.264 8.12895 142.97 8.87595 142.653V134.858C8.87595 133.485 8.13793 132.208 6.95093 131.524L2.30893 128.843L0.609924 129.826L0.0439453 130.152L5.81894 133.485C6.30794 133.766 6.61194 134.291 6.61194 134.858V143.536Z" fill="#1E1007" fill-opacity="0.1"/>
<path d="M81.1289 149.171C81.8759 148.854 82.6279 148.559 83.3929 148.288V133.947L81.1289 135.256V149.171Z" fill="#1E1007" fill-opacity="0.1"/>
<path d="M46.9419 122.221L49.6229 126.863C50.3069 128.05 51.5849 128.788 52.9569 128.788H57.0019L60.9239 126.524H52.9569C52.3909 126.524 51.8649 126.22 51.5849 125.731L48.2509 119.956H46.9419V122.221Z" fill="#1E1007" fill-opacity="0.1"/>
<path d="M79.5439 128.788C79.9649 128.788 80.3639 128.951 80.6629 129.25C80.9619 129.549 81.1289 129.948 81.1289 130.373V132.638L83.3939 131.329V130.373C83.3939 129.69 83.2169 129.033 82.8819 128.453C82.7149 128.163 82.5109 127.896 82.2659 127.651C81.5369 126.922 80.5719 126.524 79.5439 126.524H73.9459C73.7419 127.28 73.5429 128.032 73.3389 128.788H79.5439Z" fill="#1E1007" fill-opacity="0.1"/>
<path d="M65.4469 126.524L62.1409 128.435L61.5249 128.788H73.3329C73.5369 128.032 73.7359 127.28 73.9399 126.524H65.4469Z" fill="#1E1007" fill-opacity="0.1"/>
<path d="M81.1299 135.256L85.3549 132.815C85.7219 132.602 86.1479 132.548 86.5599 132.656C86.9679 132.765 87.3119 133.028 87.5249 133.395L88.657 135.356L89.9659 133.091L89.4859 132.262C89.1419 131.669 88.6619 131.189 88.0819 130.854C87.7919 130.686 87.4799 130.555 87.1489 130.469C86.1569 130.201 85.1199 130.337 84.2279 130.854L79.377 133.653C79.581 134.409 79.7799 135.161 79.9839 135.917L81.1339 135.256H81.1299Z" fill="#1E1007" fill-opacity="0.1"/>
<path d="M69.751 141.824L79.978 135.917C79.774 135.161 79.575 134.409 79.371 133.653L72.015 137.901L70.104 141.208L69.751 141.824Z" fill="#1E1007" fill-opacity="0.1"/>
<path d="M89.9622 137.621V133.091L87.6392 137.113L89.2971 138.771L89.9622 137.621Z" fill="#1E1007" fill-opacity="0.1"/>
<path d="M62.1408 128.435C61.5248 127.91 60.8909 127.402 60.2429 126.913L53.4938 130.808C52.3078 131.492 51.5688 132.77 51.5688 134.142V139.5L53.2679 140.483L53.8339 140.809V134.142C53.8339 133.576 54.1369 133.05 54.6269 132.77L61.5248 128.788L62.1408 128.435Z" fill="#1E1007" fill-opacity="0.1"/>
<path d="M74.5571 121.265L72.2931 119.956L60.2451 126.913C60.8921 127.402 61.5261 127.905 62.1421 128.435L74.5571 121.265Z" fill="#1E1007" fill-opacity="0.1"/>
<path d="M72.0151 137.901L77.2751 128.793H74.6611L67.7041 140.845C68.5101 140.945 69.3121 141.067 70.1051 141.212L72.0161 137.906L72.0151 137.901Z" fill="#1E1007" fill-opacity="0.1"/>
<path d="M76.5219 122.397C76.8889 122.61 77.1519 122.95 77.2609 123.358C77.3689 123.77 77.3149 124.196 77.1019 124.562L75.9699 126.524H78.5829L79.0629 125.695C79.4079 125.101 79.5799 124.445 79.5799 123.774C79.5799 123.439 79.5339 123.104 79.4479 122.773C79.1809 121.781 78.5469 120.948 77.6549 120.436L76.8259 119.956H72.2969L76.5219 122.397Z" fill="#1E1007" fill-opacity="0.1"/>
<path d="M6.95178 126.166C8.13878 125.482 8.8768 124.205 8.8768 122.832V119.956H6.61279L6.61179 122.832C6.61179 123.398 6.30879 123.924 5.81979 124.205L-2.22021 128.843H2.30878L6.95178 126.161V126.166Z" fill="#1E1007" fill-opacity="0.1"/>
<path d="M-8.78711 122.832C-8.78711 124.205 -8.04912 125.482 -6.86212 126.166L-2.22012 128.847L0.0358887 127.534L-5.73013 124.205C-6.21913 123.924 -6.52213 123.398 -6.52213 122.832V119.956H-8.78711V122.832Z" fill="#1E1007" fill-opacity="0.1"/>
<path d="M53.8359 143.427L51.5719 139.505L46.9289 136.824C45.7429 136.14 44.2659 136.14 43.0789 136.824L38.0969 139.7C36.9099 140.384 36.1719 141.665 36.1719 143.033V148.391L38.4369 149.691V143.033C38.4369 142.467 38.7399 141.942 39.2289 141.661L44.2119 138.785C44.7009 138.504 45.3079 138.504 45.7969 138.785L52.1379 142.444L53.8359 143.427Z" fill="#1E1007" fill-opacity="0.1"/>
<path d="M29.0648 135.745C35.2748 135.745 41.0637 132.407 44.1657 127.026L46.9377 122.225L45.6288 119.961L42.1998 125.894C39.4958 130.573 34.4638 133.481 29.0608 133.481H19.5938L23.5168 135.745H29.0648Z" fill="#1E1007" fill-opacity="0.1"/>
<path d="M45.6318 119.956L46.9418 122.221L46.9369 119.956H45.6318Z" fill="#1E1007" fill-opacity="0.1"/>
<path d="M18.7822 127.543C17.4332 125.201 16.7581 122.579 16.7581 119.956H14.4932C14.4932 122.973 15.2672 125.985 16.8212 128.675L19.5931 133.476H22.2061L18.7782 127.543H18.7822Z" fill="#1E1007" fill-opacity="0.1"/>
<path d="M160.029 -14.5247C159.232 -14.6742 158.431 -14.7965 157.629 -14.8916L153.734 -8.14283C153.05 -6.95614 153.05 -5.47957 153.734 -4.29288L156.415 0.34971H159.028L155.695 -5.42521C155.414 -5.91438 155.414 -6.52132 155.695 -7.0105L159.676 -13.9087L160.029 -14.5247Z" fill="#1E1007" fill-opacity="0.1"/>
<path d="M173.315 -7.44531C172.55 -7.17354 171.798 -6.87914 171.051 -6.56208V1.23295C171.051 2.60534 171.789 3.88261 172.976 4.56655L177.618 7.24792L179.317 6.26507L179.883 5.93895L174.108 2.60533C173.619 2.32451 173.315 1.79912 173.315 1.23295V-7.44531Z" fill="#1E1007" fill-opacity="0.1"/>
<path d="M156.412 0.345142L160.334 2.60982H165.697C167.069 2.60982 168.347 1.87153 169.031 0.684841L171.051 -2.81635V-7.3457L167.069 -0.447499C166.789 0.0416676 166.263 0.345142 165.697 0.345142H156.412Z" fill="#1E1007" fill-opacity="0.1"/>
<path d="M177.617 7.24287H182.146L186.789 4.56149C187.975 3.87755 188.714 2.60028 188.714 1.22788V-2.81683L186.449 -6.73926V1.22788C186.449 1.79405 186.146 2.31946 185.656 2.60028L179.315 6.25999L177.617 7.23833V7.24287Z" fill="#1E1007" fill-opacity="0.1"/>
<path d="M98.8031 -13.0801C98.0551 -12.763 97.3031 -12.4686 96.5381 -12.1968L96.5371 -8.37864V2.14305L98.8021 0.834073L98.8031 -13.0801Z" fill="#1E1007" fill-opacity="0.1"/>
<path d="M132.988 13.8694L130.306 9.22674C129.622 8.04005 128.34 7.30176 126.973 7.30176H122.928L119.005 9.56644H126.973C127.539 9.56644 128.064 9.86991 128.345 10.3591L131.679 16.134H132.988V13.8694Z" fill="#1E1007" fill-opacity="0.1"/>
<path d="M100.387 7.30209C99.9661 7.30209 99.5671 7.13904 99.2681 6.84009C98.9701 6.54116 98.8021 6.14258 98.8021 5.71683V3.45215L96.5371 4.76112V5.71683C96.5371 6.40075 96.7141 7.05751 97.0491 7.63727C97.2171 7.92714 97.4211 8.19437 97.6651 8.43895C98.3941 9.16818 99.3591 9.56678 100.387 9.56678H105.986C106.189 8.81038 106.389 8.0585 106.592 7.30209H100.387Z" fill="#1E1007" fill-opacity="0.1"/>
<path d="M118.401 7.30176L106.592 7.30196C106.389 8.05837 106.189 8.81025 105.986 9.56665L114.479 9.56644L117.785 7.65506L118.401 7.30176Z" fill="#1E1007" fill-opacity="0.1"/>
<path d="M98.8019 0.833786L96.5369 2.14276L94.5769 3.2751C94.2099 3.48798 93.7839 3.54234 93.3719 3.43363C92.9599 3.32492 92.6199 3.06222 92.4069 2.69535L91.3159 0.802079V4.85132C91.4829 4.99173 91.6599 5.12308 91.8499 5.23178C92.1399 5.39937 92.4529 5.53073 92.7829 5.61679C93.7749 5.88402 94.8119 5.74813 95.7049 5.23178L100.556 2.43264C100.352 1.67624 100.152 0.92437 99.9489 0.167969L98.7979 0.829255L98.8019 0.833786Z" fill="#1E1007" fill-opacity="0.1"/>
<path d="M110.174 -5.7334L99.9468 0.17288C100.151 0.929281 100.35 1.68116 100.554 2.43756L107.91 -1.81098L109.821 -5.11741L110.174 -5.7334Z" fill="#1E1007" fill-opacity="0.1"/>
<path d="M91.3159 0.666192L92.2889 -1.02326L91.3159 -1.99707V0.666192Z" fill="#1E1007" fill-opacity="0.1"/>
<path d="M117.79 7.65546C118.406 8.18086 119.04 8.68814 119.687 9.17732L126.436 5.28207C127.623 4.59814 128.361 3.32086 128.361 1.94846V-3.40977L126.663 -4.39263L126.096 -4.71875V1.94846C126.096 2.51463 125.793 3.04004 125.304 3.32086L118.406 7.30217L117.79 7.65546Z" fill="#1E1007" fill-opacity="0.1"/>
<path d="M119.683 9.17712C119.035 8.68794 118.401 8.1852 117.785 7.65527L114.479 9.56665L105.37 14.8252L107.635 16.1342L119.683 9.17712Z" fill="#1E1007" fill-opacity="0.1"/>
<path d="M112.223 -4.75031C111.416 -4.84996 110.615 -4.97224 109.822 -5.11719L102.653 7.29761H105.266L112.224 -4.755L112.223 -4.75031Z" fill="#1E1007" fill-opacity="0.1"/>
<path d="M105.37 14.8247L103.408 13.6927C103.041 13.4798 102.779 13.1401 102.67 12.7324C102.561 12.3203 102.616 11.8945 102.828 11.5276L103.961 9.56641H101.347L100.867 10.3953C100.523 10.9886 100.351 11.6454 100.351 12.3157C100.351 12.6509 100.396 12.9861 100.482 13.3167C100.749 14.3087 101.384 15.1421 102.276 15.6539L103.105 16.134L107.635 16.1337L105.37 14.8247Z" fill="#1E1007" fill-opacity="0.1"/>
<path d="M172.976 9.9249C171.789 10.6088 171.051 11.8861 171.051 13.2585V16.1346H173.315V13.2585C173.315 12.6923 173.619 12.1669 174.108 11.8861L182.147 7.24805L177.618 7.24823L172.976 9.92944V9.9249Z" fill="#1E1007" fill-opacity="0.1"/>
<path d="M188.714 13.2584C188.714 11.8861 187.976 10.6088 186.789 9.92486L182.146 7.24316L179.891 8.557L185.657 11.8861C186.146 12.1669 186.449 12.6923 186.449 13.2584V16.1346H188.714V13.2584Z" fill="#1E1007" fill-opacity="0.1"/>
<path d="M134.299 16.1344L137.728 10.201C140.432 5.52213 145.464 2.61429 150.867 2.61429H160.334L156.411 0.349609H150.867C144.658 0.349609 138.869 3.68774 135.767 9.06862L132.995 13.8698L133.824 15.3056L134.304 16.1344H134.299Z" fill="#1E1007" fill-opacity="0.1"/>
<path d="M133.819 15.3059L132.99 13.8701V16.1348L134.299 16.1345L133.819 15.3059Z" fill="#1E1007" fill-opacity="0.1"/>
<path d="M161.144 8.54775C162.494 10.8895 163.169 13.512 163.169 16.1345H165.434C165.434 13.1179 164.659 10.1059 163.105 7.41541L160.334 2.61426L157.72 2.6143L161.149 8.54775H161.144Z" fill="#1E1007" fill-opacity="0.1"/>
<path d="M158.631 48.1925C158.78 47.3953 158.902 46.5936 158.998 45.7919L152.249 41.8967C151.062 41.2128 149.586 41.2128 148.399 41.8967L143.756 44.5781V47.1915L149.531 43.8579C150.02 43.5771 150.627 43.5771 151.116 43.8579L158.015 47.8392L158.631 48.1925Z" fill="#1E1007" fill-opacity="0.1"/>
<path d="M161.935 50.105L171.044 55.3635V52.7501L158.991 45.793C158.892 46.5992 158.769 47.4009 158.624 48.1936L161.931 50.105H161.935Z" fill="#1E1007" fill-opacity="0.1"/>
<path d="M177.441 54.6069C177.228 54.9738 176.888 55.2365 176.481 55.3452C176.068 55.4539 175.643 55.3995 175.276 55.1866L173.315 54.0543V56.6677L174.144 57.1478C174.737 57.4921 175.394 57.6642 176.064 57.6642C176.399 57.6642 176.734 57.6189 177.065 57.5328C178.057 57.2656 178.89 56.6315 179.402 55.7392L182.201 50.8883L180.543 49.2305L179.882 50.381L177.441 54.6069Z" fill="#1E1007" fill-opacity="0.1"/>
<path d="M186.448 43.5371V39.7144V39.0078L180.542 49.2305L182.2 50.8883L186.448 43.5371Z" fill="#1E1007" fill-opacity="0.1"/>
<path d="M151.551 61.4775C151.279 60.7121 150.984 59.9602 150.667 59.2129H142.872C141.5 59.2129 140.223 59.9512 139.539 61.1378L136.857 65.7804L137.84 67.4789L138.166 68.0451L141.5 62.2702C141.781 61.781 142.306 61.4775 142.872 61.4775H151.551Z" fill="#1E1007" fill-opacity="0.1"/>
<path d="M165.891 61.4775L164.582 59.2129H150.667C150.984 59.9602 151.279 60.7121 151.551 61.4775H165.891Z" fill="#1E1007" fill-opacity="0.1"/>
<path d="M180.449 26.0037L182.147 25.0254H177.618L172.976 27.7068C171.789 28.3907 171.051 29.6725 171.051 31.0404V35.0851L173.315 39.0075V31.0404C173.315 30.4742 173.619 29.9488 174.108 29.668L180.449 26.0083V26.0037Z" fill="#1E1007" fill-opacity="0.1"/>
<path d="M171.05 55.3634V57.6282C171.05 58.0494 170.887 58.4479 170.588 58.7468C170.289 59.0458 169.891 59.2134 169.47 59.2134H167.205L168.514 61.4781H169.47C170.153 61.4781 170.81 61.3015 171.39 60.9663C171.68 60.7987 171.947 60.5949 172.192 60.3503C172.921 59.6211 173.319 58.6563 173.319 57.6282V52.0299C172.563 51.8261 171.811 51.6268 171.055 51.4229V55.3634H171.05Z" fill="#1E1007" fill-opacity="0.1"/>
<path d="M173.315 43.5367L171.404 40.2303L171.051 39.6143V51.4223C171.807 51.6262 172.559 51.8255 173.315 52.0293V43.5367Z" fill="#1E1007" fill-opacity="0.1"/>
<path d="M152.064 76.5248C151.448 75.9994 150.814 75.4921 150.166 75.0029L143.417 78.8981C142.23 79.5821 141.492 80.8594 141.492 82.2317V87.59L143.191 88.5728L143.757 88.899V82.2317C143.757 81.6656 144.06 81.1402 144.549 80.8594L151.448 76.878L152.064 76.5248Z" fill="#1E1007" fill-opacity="0.1"/>
<path d="M152.062 76.5248L164.477 69.3548L162.212 68.0459L150.164 75.0029C150.812 75.4921 151.446 75.9949 152.062 76.5248Z" fill="#1E1007" fill-opacity="0.1"/>
<path d="M159.351 31.3529L160.334 29.6543L156.412 31.919L153.73 36.5616C153.046 37.7483 153.046 39.2249 153.73 40.4116L155.75 43.9128L159.673 46.1774L155.691 39.2792C155.411 38.79 155.411 38.1831 155.691 37.6939L159.351 31.3529Z" fill="#1E1007" fill-opacity="0.1"/>
<path d="M165.891 61.4773L167.023 63.4387C167.236 63.8056 167.29 64.2314 167.182 64.6436C167.073 65.0557 166.81 65.3954 166.443 65.6083L164.482 66.7406L166.747 68.0496L167.576 67.5695C168.169 67.2253 168.649 66.7452 168.984 66.1654C169.152 65.8755 169.283 65.563 169.369 65.2324C169.637 64.2404 169.501 63.2032 168.984 62.3109L166.185 57.46C165.429 57.6638 164.677 57.8631 163.92 58.0669L164.582 59.2174L165.891 61.4821V61.4773Z" fill="#1E1007" fill-opacity="0.1"/>
<path d="M161.936 50.1045L158.63 48.1931L158.014 47.8398L163.92 58.067C164.677 57.8632 165.429 57.6639 166.185 57.4601L161.936 50.1045Z" fill="#1E1007" fill-opacity="0.1"/>
<path d="M160.029 89.2966C159.232 89.1471 158.431 89.0248 157.629 88.9297L153.734 95.6785C153.05 96.8651 153.05 98.3417 153.734 99.5284L156.415 104.171H159.028L155.695 98.3961C155.414 97.9069 155.414 97.3 155.695 96.8108L159.676 89.9126L160.029 89.2966Z" fill="#1E1007" fill-opacity="0.1"/>
<path d="M161.935 85.9903L167.194 76.8818H164.581L157.624 88.9344C158.43 89.034 159.231 89.1563 160.024 89.3013L161.935 85.9948V85.9903Z" fill="#1E1007" fill-opacity="0.1"/>
<path d="M143.757 44.5742L141.492 48.4966V53.8594C141.492 55.2318 142.23 56.5091 143.417 57.193L146.918 59.2131H151.448L144.549 55.2318C144.06 54.9509 143.757 54.4256 143.757 53.8594V44.5742Z" fill="#1E1007" fill-opacity="0.1"/>
<path d="M166.443 70.487C166.81 70.6999 167.073 71.0395 167.182 71.4472C167.29 71.8594 167.236 72.2851 167.023 72.652L165.891 74.6132H168.504L168.984 73.7843C169.329 73.191 169.501 72.5342 169.501 71.8639C169.501 71.5287 169.455 71.1935 169.369 70.8629C169.102 69.871 168.468 69.0376 167.576 68.5257L162.725 65.7266L161.067 67.3844L162.218 68.0456L166.443 70.487Z" fill="#1E1007" fill-opacity="0.1"/>
<path d="M155.367 61.4775H150.838L161.065 67.3838L162.723 65.726L155.367 61.4775Z" fill="#1E1007" fill-opacity="0.1"/>
<path d="M173.315 96.377C172.55 96.6487 171.798 96.9431 171.051 97.2602V105.055C171.051 106.427 171.789 107.705 172.976 108.389L177.618 111.07L179.317 110.087L179.883 109.761L174.108 106.427C173.619 106.147 173.315 105.621 173.315 105.055V97.0881V96.377Z" fill="#1E1007" fill-opacity="0.1"/>
<path d="M173.315 92.5577V82.0361L171.051 83.345V97.2597C171.798 96.9426 172.55 96.6482 173.315 96.3765V92.5577Z" fill="#1E1007" fill-opacity="0.1"/>
<path d="M137.84 67.4788L136.857 65.7803V70.3096L139.539 74.9522C140.223 76.1389 141.5 76.8771 142.872 76.8771H146.917L150.839 74.6125H142.872C142.306 74.6125 141.781 74.309 141.5 73.8198L138.166 68.045L137.84 67.4788Z" fill="#1E1007" fill-opacity="0.1"/>
<path d="M169.464 76.878C169.886 76.878 170.284 77.041 170.583 77.34C170.882 77.6389 171.05 78.0375 171.05 78.4632V80.7279L173.314 79.4189V78.4632C173.314 77.7793 173.138 77.1226 172.803 76.5428C172.635 76.2529 172.431 75.9857 172.187 75.7411C171.457 75.0119 170.493 74.6133 169.464 74.6133H163.866C163.662 75.3697 163.463 76.1216 163.259 76.878H169.464Z" fill="#1E1007" fill-opacity="0.1"/>
<path d="M155.37 74.6133L152.064 76.5249L151.448 76.8781L163.256 76.878C163.46 76.1216 163.659 75.3697 163.863 74.6133H155.37Z" fill="#1E1007" fill-opacity="0.1"/>
<path d="M186.449 92.5577L181.191 83.4492L179.882 85.7139L186.839 97.7622C187.328 97.1145 187.831 96.4804 188.361 95.8644L186.449 92.5577Z" fill="#1E1007" fill-opacity="0.1"/>
<path d="M143.191 88.5766L141.492 87.5938L143.757 91.5161L148.399 94.1975C149.586 94.8815 151.063 94.8815 152.249 94.1975L155.751 92.1774L158.015 88.2551L151.117 92.2364C150.628 92.5172 150.021 92.5172 149.532 92.2364L143.191 88.5766Z" fill="#1E1007" fill-opacity="0.1"/>
<path d="M173.313 82.0371L175.274 80.9048C175.641 80.6919 176.067 80.6375 176.479 80.7462C176.891 80.8549 177.231 81.1176 177.444 81.4845L178.576 83.4457L179.885 81.181L179.405 80.3522C179.061 79.7588 178.581 79.2787 178.001 78.9435C177.711 78.776 177.398 78.6446 177.068 78.5585C176.076 78.2913 175.039 78.4272 174.146 78.9435L169.295 81.7427C169.499 82.4991 169.698 83.251 169.902 84.0074L171.053 83.3461L173.317 82.0371H173.313Z" fill="#1E1007" fill-opacity="0.1"/>
<path d="M161.937 85.9908L160.026 89.2972L159.673 89.9132L169.9 84.0069C169.696 83.2505 169.497 82.4986 169.293 81.7422L161.937 85.9908Z" fill="#1E1007" fill-opacity="0.1"/>
<path d="M156.412 104.172L160.334 106.436H165.697C167.069 106.436 168.347 105.698 169.031 104.511L171.051 101.01V96.4805L167.069 103.379C166.789 103.868 166.263 104.172 165.697 104.172H156.412Z" fill="#1E1007" fill-opacity="0.1"/>
<path d="M182.323 81.4841C182.536 81.1172 182.875 80.8545 183.283 80.7458C183.695 80.6371 184.121 80.6914 184.488 80.9043L186.449 82.0367V79.4232L185.62 78.9431C185.027 78.5989 184.37 78.4268 183.7 78.4268C183.365 78.4268 183.029 78.4721 182.699 78.5581C181.707 78.8253 180.874 79.464 180.362 80.3518L177.563 85.2027L179.22 86.8604L179.882 85.71L182.323 81.4841Z" fill="#1E1007" fill-opacity="0.1"/>
<path d="M173.315 92.5575V96.3764V97.0874L179.22 86.8598L177.563 85.2021L173.315 92.5575Z" fill="#1E1007" fill-opacity="0.1"/>
<path d="M177.617 111.065H182.146L186.789 108.384C187.975 107.7 188.714 106.423 188.714 105.05V101.006L186.449 97.083V105.05C186.449 105.616 186.146 106.142 185.656 106.423L179.315 110.082L177.617 111.065Z" fill="#1E1007" fill-opacity="0.1"/>
<path d="M186.448 39.7148C187.214 39.443 187.967 39.1485 188.714 38.8315V31.0365C188.714 29.6641 187.976 28.3868 186.789 27.7029L182.146 25.0215L180.448 26.0043L179.882 26.3304L185.657 29.6641C186.146 29.9449 186.449 30.4703 186.449 31.0365V39.0036L186.448 39.7148Z" fill="#1E1007" fill-opacity="0.1"/>
<path d="M171.402 40.2259C171.928 39.6099 172.435 38.9758 172.924 38.3281L169.029 31.5793C168.345 30.3926 167.068 29.6543 165.695 29.6543H160.337L159.354 31.3529L159.028 31.919H165.695C166.262 31.919 166.787 32.2225 167.068 32.7116L171.049 39.6099L171.402 40.2259Z" fill="#1E1007" fill-opacity="0.1"/>
<path d="M173.315 43.5365L178.574 52.6496L179.883 50.385L172.925 38.3369C172.436 38.9846 171.934 39.6187 171.404 40.2347L173.315 43.5411V43.5365Z" fill="#1E1007" fill-opacity="0.1"/>
<path d="M186.45 54.0543L184.489 55.1866C184.122 55.3995 183.697 55.4539 183.284 55.3452C182.872 55.2365 182.532 54.9738 182.32 54.6069L181.187 52.6457L179.878 54.9103L180.358 55.7392C180.703 56.3326 181.183 56.8127 181.762 57.1479C182.052 57.3154 182.365 57.4468 182.696 57.5328C183.687 57.8001 184.725 57.6642 185.617 57.1479L190.468 54.3487C190.264 53.5923 190.065 52.8404 189.861 52.084L188.711 52.7453L186.446 54.0543H186.45Z" fill="#1E1007" fill-opacity="0.1"/>
<path d="M110.497 52.8265L109.514 54.5251L113.436 52.2604L116.118 47.6178C116.802 46.4311 116.802 44.9544 116.118 43.7677L114.098 40.2667L110.175 38.002L114.156 44.9002C114.437 45.3894 114.437 45.9963 114.156 46.4854L110.497 52.8265Z" fill="#1E1007" fill-opacity="0.1"/>
<path d="M105.264 24.9666L103.955 22.702L102.823 20.7408C102.61 20.3739 102.556 19.9481 102.665 19.5359C102.773 19.1283 103.036 18.7841 103.403 18.5712L105.364 17.4388L103.099 16.1299L102.271 16.61C101.677 16.9542 101.197 17.4343 100.862 18.0141C100.694 18.304 100.563 18.6165 100.477 18.9471C100.21 19.9391 100.346 20.9763 100.862 21.8685L103.661 26.7195C104.417 26.5157 105.169 26.3164 105.926 26.1126L105.264 24.9621V24.9666Z" fill="#1E1007" fill-opacity="0.1"/>
<path d="M111.832 36.3403L105.926 26.1133C105.169 26.3171 104.417 26.5164 103.661 26.7202L107.909 34.0756L111.216 35.987L111.832 36.3403Z" fill="#1E1007" fill-opacity="0.1"/>
<path d="M126.091 39.6056L128.355 35.6832V30.3205C128.355 28.9481 127.617 27.6708 126.431 26.9869L122.929 24.9668H118.4L125.298 28.9481C125.787 29.2289 126.091 29.7543 126.091 30.3205V39.6056Z" fill="#1E1007" fill-opacity="0.1"/>
<path d="M107.633 16.1348H103.103L107.121 18.4538L108.779 16.7961L107.633 16.1348Z" fill="#1E1007" fill-opacity="0.1"/>
<path d="M119.008 22.7012L108.781 16.7949L107.123 18.4527L114.478 22.7012H119.008Z" fill="#1E1007" fill-opacity="0.1"/>
<path d="M132.007 16.701L132.99 18.3995V16.135L131.681 16.1348L132.007 16.701Z" fill="#1E1007" fill-opacity="0.1"/>
<path d="M98.4439 43.9531C97.9179 44.5691 97.4109 45.2032 96.9219 45.8509L100.817 52.5996C101.501 53.7863 102.778 54.5246 104.151 54.5246H109.509L110.492 52.8261L110.818 52.2599H104.151C103.584 52.2599 103.059 51.9564 102.778 51.4673L98.7969 44.5691L98.4439 43.9531Z" fill="#1E1007" fill-opacity="0.1"/>
<path d="M98.4441 43.9533L91.3101 31.6064V36.1358L96.9221 45.8511C97.4111 45.2034 97.9141 44.5693 98.4441 43.9533Z" fill="#1E1007" fill-opacity="0.1"/>
<path d="M111.221 35.9863C111.072 36.7835 110.949 37.5852 110.854 38.3869L117.603 42.2821C118.79 42.9661 120.266 42.9661 121.453 42.2821L126.095 39.6008V36.9873L120.321 40.3209C119.831 40.6017 119.224 40.6017 118.735 40.3209L111.837 36.3396L111.221 35.9863Z" fill="#1E1007" fill-opacity="0.1"/>
<path d="M110.849 38.3869C110.949 37.5807 111.071 36.7787 111.216 35.9861L107.909 34.0747L98.8008 28.8164V31.4299L110.854 38.3869H110.849Z" fill="#1E1007" fill-opacity="0.1"/>
<path d="M93.3718 28.8346C93.7838 28.7259 94.2098 28.7803 94.5768 28.9932L96.5378 30.1255V27.5121L95.7088 27.032C95.1158 26.6877 94.4588 26.5156 93.7878 26.5156C93.4528 26.5156 93.1178 26.5609 92.7868 26.647C92.2388 26.7964 91.7408 27.0591 91.3198 27.4124V31.4662L92.4108 29.5729C92.6238 29.206 92.9638 28.9433 93.3718 28.8346Z" fill="#1E1007" fill-opacity="0.1"/>
<path d="M118.3 22.7024C118.572 23.4678 118.866 24.2197 119.183 24.967H126.978C128.351 24.967 129.628 24.2287 130.312 23.042L132.993 18.3995L132.01 16.701L131.684 16.1348L128.351 21.9097C128.07 22.3989 127.545 22.7024 126.978 22.7024H118.3Z" fill="#1E1007" fill-opacity="0.1"/>
<path d="M119.178 24.9667C118.861 24.2194 118.567 23.4675 118.295 22.7021L103.955 22.7025L105.264 24.9671L119.178 24.9667Z" fill="#1E1007" fill-opacity="0.1"/>
<path d="M92.2349 59.154L96.8779 56.4726C98.0639 55.7887 98.8029 54.5069 98.8029 53.139V49.0943L96.5379 45.1719V53.139C96.5379 53.7052 96.2349 54.2306 95.7449 54.5114L91.3159 57.066V59.1495H92.2349V59.154Z" fill="#1E1007" fill-opacity="0.1"/>
<path d="M98.8011 31.4306V28.8171L98.8021 26.552C98.8021 26.1262 98.9651 25.7322 99.2641 25.4333C99.5631 25.1343 99.9611 24.9667 100.387 24.9667H102.652L101.343 22.7021H100.387C99.7031 22.7021 99.0471 22.8787 98.4671 23.2138C98.1771 23.3814 97.9101 23.5853 97.6651 23.8298C96.9361 24.5591 96.5371 25.5238 96.5371 26.552V32.1504C97.2941 32.3542 98.0461 32.5534 98.8021 32.7572L98.8011 31.4306Z" fill="#1E1007" fill-opacity="0.1"/>
<path d="M98.8021 44.5657V32.7573C98.0461 32.5535 97.2941 32.3542 96.5371 32.1504V40.6433L98.4491 43.9497L98.8021 44.5657Z" fill="#1E1007" fill-opacity="0.1"/>
<path d="M96.5379 91.6248C97.3029 91.3531 98.0549 91.0587 98.8029 90.7416V82.9466C98.8029 81.5742 98.0639 80.2969 96.8779 79.613L92.2349 76.9316L91.3159 77.4616V79.0151L95.7449 81.5697C96.2349 81.8505 96.5379 82.3759 96.5379 82.9421V91.6248Z" fill="#1E1007" fill-opacity="0.1"/>
<path d="M98.8021 90.7471C98.0551 91.0642 97.3031 91.3586 96.5371 91.6304V95.4486V105.97L98.8021 104.661V90.7471Z" fill="#1E1007" fill-opacity="0.1"/>
<path d="M132.988 117.692L130.306 113.049C129.622 111.863 128.34 111.124 126.973 111.124H122.928L119.005 113.389H126.973C127.539 113.389 128.064 113.692 128.345 114.182L131.679 119.956H132.988V117.692Z" fill="#1E1007" fill-opacity="0.1"/>
<path d="M100.387 111.124C99.9661 111.124 99.5671 110.961 99.2681 110.662C98.9701 110.363 98.8021 109.964 98.8021 109.539V107.274L96.5371 108.583V109.539C96.5371 110.223 96.7141 110.879 97.0491 111.459C97.2171 111.749 97.4211 112.016 97.6651 112.261C98.3941 112.99 99.3591 113.389 100.387 113.389H105.986C106.189 112.632 106.389 111.88 106.592 111.124H100.387Z" fill="#1E1007" fill-opacity="0.1"/>
<path d="M118.401 111.124H106.592C106.389 111.88 106.189 112.632 105.986 113.389H114.479L117.785 111.477L118.401 111.124Z" fill="#1E1007" fill-opacity="0.1"/>
<path d="M126.658 99.4288L128.356 100.412L126.091 96.4893L121.449 93.8078C120.262 93.1239 118.786 93.1239 117.599 93.8078L114.098 95.828L111.833 99.7505L118.731 95.7691C119.22 95.4883 119.827 95.4883 120.316 95.7691L126.658 99.4288Z" fill="#1E1007" fill-opacity="0.1"/>
<path d="M98.8019 104.661L96.5369 105.97L94.5769 107.102C94.2099 107.315 93.7839 107.369 93.3719 107.26C92.9599 107.152 92.6199 106.889 92.4069 106.522L91.3159 104.629V108.678C91.4829 108.819 91.6599 108.95 91.8499 109.059C92.1399 109.226 92.4529 109.358 92.7829 109.444C93.7749 109.711 94.8119 109.575 95.7049 109.059L100.556 106.259C100.352 105.503 100.152 104.751 99.9489 103.995L98.7979 104.656L98.8019 104.661Z" fill="#1E1007" fill-opacity="0.1"/>
<path d="M110.174 98.0928L99.9468 103.999C100.151 104.756 100.35 105.508 100.554 106.264L107.91 102.015L109.821 98.7088L110.174 98.0928Z" fill="#1E1007" fill-opacity="0.1"/>
<path d="M113.44 83.8349L109.518 81.5703H104.155C102.783 81.5703 101.505 82.3085 100.821 83.4952L98.8008 86.9964V91.5258L102.783 84.6275C103.064 84.1384 103.589 83.8349 104.155 83.8349H113.44Z" fill="#1E1007" fill-opacity="0.1"/>
<path d="M91.3159 104.488L92.2889 102.804L91.3159 101.83V104.488Z" fill="#1E1007" fill-opacity="0.1"/>
<path d="M96.5379 90.9189L91.3159 99.9595V101.83L92.2889 102.804L96.5369 95.4481L96.5379 91.6252V90.9189Z" fill="#1E1007" fill-opacity="0.1"/>
<path d="M92.2349 76.9365H91.3159V77.4664L92.2349 76.9365Z" fill="#1E1007" fill-opacity="0.1"/>
<path d="M117.79 111.482C118.406 112.007 119.04 112.514 119.687 113.003L126.436 109.108C127.623 108.424 128.361 107.147 128.361 105.775V100.416L126.663 99.4335L126.096 99.1074V105.775C126.096 106.341 125.793 106.866 125.304 107.147L118.406 111.128L117.79 111.482Z" fill="#1E1007" fill-opacity="0.1"/>
<path d="M119.683 112.999C119.035 112.51 118.401 112.007 117.785 111.477L114.479 113.389L105.37 118.647L107.635 119.956L119.683 112.999Z" fill="#1E1007" fill-opacity="0.1"/>
<path d="M109.822 98.7045C110.619 98.854 111.421 98.9763 112.223 99.0714L116.118 92.3227C116.802 91.136 116.802 89.6594 116.118 88.4727L113.436 83.8301H110.823L114.157 89.6051C114.437 90.0942 114.437 90.7012 114.157 91.1903L110.175 98.0885L109.822 98.7045Z" fill="#1E1007" fill-opacity="0.1"/>
<path d="M112.224 99.0759C111.417 98.9762 110.616 98.8539 109.823 98.709L102.653 111.124H105.266L112.223 99.0716L112.224 99.0759Z" fill="#1E1007" fill-opacity="0.1"/>
<path d="M103.408 117.519C103.041 117.307 102.779 116.967 102.67 116.559C102.561 116.147 102.616 115.721 102.828 115.354L103.961 113.393H101.347L100.867 114.222C100.523 114.815 100.351 115.472 100.351 116.143C100.351 116.478 100.396 116.813 100.482 117.143C100.749 118.135 101.384 118.969 102.276 119.481L103.105 119.961H107.634L103.408 117.519Z" fill="#1E1007" fill-opacity="0.1"/>
<path d="M186.789 22.3444C187.975 21.6605 188.714 20.3832 188.714 19.0108V16.1348H186.449V19.0108C186.449 19.577 186.146 20.1024 185.656 20.3832L177.617 25.0213L182.146 25.0215L186.789 22.3399V22.3444Z" fill="#1E1007" fill-opacity="0.1"/>
<path d="M171.051 19.0109C171.051 20.3833 171.789 21.6606 172.976 22.3445L177.618 25.0258L179.874 23.7124L174.108 20.3833C173.619 20.1025 173.315 19.5771 173.315 19.0109V16.1348H171.051V19.0109Z" fill="#1E1007" fill-opacity="0.1"/>
<path d="M143.755 39.212C143.755 37.8396 143.017 36.5623 141.83 35.8784L136.848 33.0022C135.661 32.3183 134.185 32.3183 132.998 33.0022L128.355 35.6836L128.365 38.2925L134.13 34.9634C134.62 34.6826 135.227 34.6826 135.716 34.9634L140.698 37.8396C141.187 38.1204 141.491 38.6503 141.491 39.212V48.4972L143.755 44.5747V39.212Z" fill="#1E1007" fill-opacity="0.1"/>
<path d="M128.356 37.6437L128.355 35.6826L126.091 39.605V44.9631C126.091 46.3355 126.83 47.6128 128.016 48.2967L132.999 51.1729C134.185 51.8568 135.662 51.8568 136.849 51.1729L141.491 48.4915L141.482 45.8826L135.716 49.2117C135.227 49.4925 134.62 49.4925 134.131 49.2117L129.149 46.3355C128.66 46.0547 128.356 45.5248 128.356 44.9631V37.6392V37.6437Z" fill="#1E1007" fill-opacity="0.1"/>
<path d="M96.8779 74.2553C98.0639 73.5713 98.8029 72.2896 98.8029 70.9217V65.1694C98.8029 63.797 98.0639 62.5197 96.8779 61.8358L92.2349 59.1543L91.3159 59.6889V61.2379L95.7449 63.7925C96.2349 64.0733 96.5379 64.5987 96.5379 65.1649V70.9171C96.5379 71.4833 96.2349 72.0087 95.7449 72.2895L91.3159 74.8441V76.9276H92.2349L96.8779 74.2462V74.2553Z" fill="#1E1007" fill-opacity="0.1"/>
<path d="M92.2349 59.1543L91.3159 59.1544V59.6843L92.2349 59.1543Z" fill="#1E1007" fill-opacity="0.1"/>
<path d="M136.849 84.9133C135.662 84.2294 134.185 84.2294 132.999 84.9133L128.016 87.7894C126.83 88.4734 126.091 89.7552 126.091 91.1231V96.4813L128.356 97.7812V91.1231C128.356 90.5569 128.66 90.0315 129.149 89.7507L134.131 86.8745C134.62 86.5937 135.227 86.5937 135.716 86.8745L143.757 91.5167L141.492 87.5943L136.849 84.9133Z" fill="#1E1007" fill-opacity="0.1"/>
<path d="M132.999 103.089C134.185 103.773 135.662 103.773 136.849 103.089L141.831 100.213C143.018 99.5286 143.756 98.2513 143.756 96.8789V91.5207L141.491 90.2207V96.8789C141.491 97.445 141.188 97.9704 140.699 98.2513L135.716 101.128C135.227 101.409 134.62 101.409 134.131 101.128L127.79 97.4677L126.091 96.4848L128.356 100.408L132.999 103.089Z" fill="#1E1007" fill-opacity="0.1"/>
<path d="M172.976 113.746C171.789 114.43 171.051 115.708 171.051 117.08V119.956H173.315V117.08C173.315 116.514 173.619 115.989 174.108 115.708L182.147 111.07H177.618L172.976 113.751V113.746Z" fill="#1E1007" fill-opacity="0.1"/>
<path d="M188.714 117.08C188.714 115.708 187.976 114.43 186.789 113.747L182.146 111.065L179.891 112.379L185.657 115.708C186.146 115.989 186.449 116.514 186.449 117.08V119.956H188.714V117.08Z" fill="#1E1007" fill-opacity="0.1"/>
<path d="M163.106 24.8538C164.66 22.1634 165.434 19.1513 165.434 16.1348H163.169C163.169 18.7573 162.495 21.3798 161.145 23.7214L156.412 31.9196L160.334 29.6549L163.106 24.8538Z" fill="#1E1007" fill-opacity="0.1"/>
<path d="M157.715 29.6549H150.862C145.458 29.6549 140.422 26.7471 137.722 22.0682L134.293 16.1348H132.984V18.3995L135.756 23.2006C138.859 28.5769 144.648 31.9196 150.857 31.9196H156.406L157.235 30.4838L157.71 29.6549H157.715Z" fill="#1E1007" fill-opacity="0.1"/>
<path d="M134.09 60.9797C130.988 55.6033 125.199 52.2607 118.989 52.2607H113.441L112.132 54.5254H118.985C124.388 54.5254 129.425 57.4332 132.124 62.112L136.858 70.3147V65.7853L134.086 60.9842L134.09 60.9797Z" fill="#1E1007" fill-opacity="0.1"/>
<path d="M108.704 75.6321C106.004 70.9533 106.004 65.1376 108.704 60.4588L112.132 54.5254L113.441 52.2607L109.518 54.5252L106.747 59.3265C103.64 64.7028 103.64 71.3881 106.747 76.7645L109.519 81.5656H112.132L108.704 75.6321Z" fill="#1E1007" fill-opacity="0.1"/>
<path d="M135.553 68.0459L132.124 73.9793C129.42 78.6581 124.388 81.566 118.984 81.566L109.519 81.5659L113.44 83.8307H118.984C125.194 83.8307 130.983 80.4925 134.085 75.1117L136.857 70.3103L136.028 68.8747L135.548 68.0459H135.553Z" fill="#1E1007" fill-opacity="0.1"/>
<path d="M134.299 119.956L137.728 114.023C140.432 109.344 145.464 106.436 150.867 106.436H160.334L156.412 104.172H150.867C144.658 104.172 138.869 107.51 135.767 112.891L132.995 117.692L133.824 119.127L134.304 119.956H134.299Z" fill="#1E1007" fill-opacity="0.1"/>
<path d="M133.819 119.127L132.99 117.692V119.956H134.299L133.819 119.127Z" fill="#1E1007" fill-opacity="0.1"/>
<path d="M161.144 112.37C162.494 114.711 163.169 117.334 163.169 119.956H165.434C165.434 116.94 164.659 113.928 163.105 111.237L160.334 106.436H157.72L161.149 112.37H161.144Z" fill="#1E1007" fill-opacity="0.1"/>
<path d="M180.449 129.83L182.147 128.852H177.618L172.976 131.533C171.789 132.217 171.051 133.494 171.051 134.867V138.912L173.315 142.834V134.867C173.315 134.301 173.619 133.775 174.108 133.494L180.449 129.835V129.83Z" fill="#1E1007" fill-opacity="0.1"/>
<path d="M159.351 135.179L160.334 133.481L156.412 135.745L153.73 140.388C153.046 141.575 153.046 143.051 153.73 144.238L155.75 147.739L159.673 150.004L155.691 143.106C155.411 142.617 155.411 142.01 155.691 141.52L159.351 135.179Z" fill="#1E1007" fill-opacity="0.1"/>
<path d="M186.448 143.536C187.214 143.264 187.967 142.97 188.714 142.653V134.858C188.714 133.485 187.976 132.208 186.789 131.524L182.146 128.843L180.448 129.825L179.882 130.152L185.657 133.485C186.146 133.766 186.449 134.291 186.449 134.858V142.825L186.448 143.536Z" fill="#1E1007" fill-opacity="0.1"/>
<path d="M171.402 144.048C171.928 143.432 172.435 142.798 172.924 142.15L169.029 135.402C168.345 134.215 167.068 133.477 165.695 133.477H160.337L159.354 135.175L159.028 135.741H165.695C166.262 135.741 166.787 136.045 167.068 136.534L171.049 143.432L171.402 144.048Z" fill="#1E1007" fill-opacity="0.1"/>
<path d="M105.264 128.789L103.955 126.524L102.823 124.563C102.61 124.196 102.556 123.77 102.665 123.358C102.773 122.946 103.036 122.606 103.403 122.393L105.364 121.261L103.099 119.952L102.271 120.432C101.677 120.776 101.197 121.256 100.862 121.836C100.694 122.126 100.563 122.439 100.477 122.769C100.21 123.761 100.346 124.798 100.862 125.691L103.661 130.542C104.417 130.338 105.169 130.138 105.926 129.935L105.264 128.784V128.789Z" fill="#1E1007" fill-opacity="0.1"/>
<path d="M111.832 140.166L105.925 129.939C105.169 130.143 104.417 130.342 103.661 130.546L107.909 137.901L111.216 139.813L111.832 140.166Z" fill="#1E1007" fill-opacity="0.1"/>
<path d="M126.091 143.427L128.355 139.505V134.142C128.355 132.77 127.617 131.493 126.431 130.809L122.929 128.789H118.4L125.298 132.77C125.787 133.051 126.091 133.576 126.091 134.142V143.427Z" fill="#1E1007" fill-opacity="0.1"/>
<path d="M107.633 119.956H103.103L107.121 122.28L108.779 120.622L107.633 119.956Z" fill="#1E1007" fill-opacity="0.1"/>
<path d="M119.008 126.524L108.781 120.622L107.123 122.28L114.478 126.524H119.008Z" fill="#1E1007" fill-opacity="0.1"/>
<path d="M132.007 120.523L132.99 122.221V119.956H131.681L132.007 120.523Z" fill="#1E1007" fill-opacity="0.1"/>
<path d="M98.4441 147.776L91.3101 135.428V139.958L96.9221 149.673C97.4111 149.026 97.9141 148.392 98.4441 147.776Z" fill="#1E1007" fill-opacity="0.1"/>
<path d="M110.849 142.214C110.949 141.407 111.071 140.605 111.216 139.813L107.909 137.901L98.8008 132.643V135.256L110.854 142.214H110.849Z" fill="#1E1007" fill-opacity="0.1"/>
<path d="M93.3718 132.657C93.7838 132.548 94.2098 132.602 94.5768 132.815L96.5378 133.948V131.334L95.7088 130.854C95.1158 130.51 94.4588 130.338 93.7878 130.338C93.4528 130.338 93.1178 130.383 92.7868 130.469C92.2388 130.618 91.7408 130.881 91.3198 131.234V135.288L92.4108 133.395C92.6238 133.028 92.9638 132.765 93.3718 132.657Z" fill="#1E1007" fill-opacity="0.1"/>
<path d="M118.3 126.524C118.572 127.289 118.866 128.041 119.183 128.789H126.978C128.351 128.789 129.628 128.05 130.312 126.864L132.993 122.221L132.01 120.523L131.684 119.956L128.351 125.731C128.07 126.22 127.545 126.524 126.978 126.524H118.3Z" fill="#1E1007" fill-opacity="0.1"/>
<path d="M119.178 128.789C118.861 128.041 118.567 127.289 118.295 126.524H103.955L105.264 128.789H119.178Z" fill="#1E1007" fill-opacity="0.1"/>
<path d="M98.8011 135.256V132.643L98.8021 130.378C98.8021 129.952 98.9651 129.558 99.2641 129.259C99.5631 128.961 99.9611 128.793 100.387 128.793H102.652L101.343 126.528H100.387C99.7031 126.528 99.0471 126.705 98.4671 127.04C98.1771 127.208 97.9101 127.411 97.6651 127.656C96.9361 128.385 96.5371 129.35 96.5371 130.378V135.977C97.2941 136.18 98.0461 136.38 98.8021 136.583L98.8011 135.256Z" fill="#1E1007" fill-opacity="0.1"/>
<path d="M98.8021 148.392V136.583C98.0461 136.38 97.2941 136.18 96.5371 135.977V144.469L98.4491 147.776L98.8021 148.392Z" fill="#1E1007" fill-opacity="0.1"/>
<path d="M186.789 126.166C187.975 125.482 188.714 124.205 188.714 122.833V119.956H186.449V122.833C186.449 123.399 186.146 123.924 185.656 124.205L177.617 128.843H182.146L186.789 126.162V126.166Z" fill="#1E1007" fill-opacity="0.1"/>
<path d="M171.051 122.833C171.051 124.205 171.789 125.482 172.976 126.166L177.618 128.848L179.874 127.534L174.108 124.205C173.619 123.924 173.315 123.399 173.315 122.833V119.956H171.051V122.833Z" fill="#1E1007" fill-opacity="0.1"/>
<path d="M143.755 143.038C143.755 141.665 143.017 140.388 141.83 139.704L136.848 136.828C135.661 136.144 134.185 136.144 132.998 136.828L128.356 139.509L128.365 142.118L134.13 138.789C134.62 138.508 135.227 138.508 135.716 138.789L140.698 141.665C141.187 141.946 141.491 142.476 141.491 143.038V152.323L143.756 148.401L143.755 143.038Z" fill="#1E1007" fill-opacity="0.1"/>
<path d="M163.106 128.675C164.66 125.985 165.434 122.973 165.434 119.956H163.169C163.169 122.579 162.495 125.201 161.145 127.543L156.412 135.741L160.334 133.477L163.106 128.675Z" fill="#1E1007" fill-opacity="0.1"/>
<path d="M157.715 133.481H150.862C145.458 133.481 140.422 130.573 137.722 125.894L134.293 119.961H132.984V122.226L135.756 127.027C138.859 132.403 144.648 135.746 150.857 135.746H156.406L157.235 134.31L157.71 133.481H157.715Z" fill="#1E1007" fill-opacity="0.1"/>
</g>
<defs>
<clipPath id="clip0_533_5252">
<rect width="182" height="137" fill="white"/>
</clipPath>
</defs>
</svg>
