<svg width="120" height="53" viewBox="0 0 120 53" fill="none" xmlns="http://www.w3.org/2000/svg">
<path d="M114.3 30.6C111.9 29.8 109.4 29.4 109.4 27.4C109.4 25.5 110.7 24.6 113.4 24.6C114.8 24.6 116.1 24.8 117.4 25.2C118.081 24.4298 118.439 23.4272 118.4 22.4C116.713 21.6155 114.855 21.2714 113 21.4C108 21.4 105.7 23.8 105.7 27.5C105.7 31.2 108.6 32.5 111.2 33.4C113.5 34 115.6 34.5 115.6 36.7C115.6 38.8 114.3 39.5 111.9 39.5C110.091 39.4543 108.301 39.1166 106.6 38.5C106.243 38.909 105.971 39.3847 105.799 39.8997C105.627 40.4147 105.56 40.9586 105.6 41.5C107.62 42.4895 109.851 42.9701 112.1 42.9C117.1 42.9 119.5 40.5 119.5 36.6C119.5 32.6 116.8 31.5 114.3 30.6V30.6ZM39.6999 21.4C38.6298 21.2954 37.5509 21.4708 36.5691 21.9091C35.5873 22.3474 34.7364 23.0335 34.0999 23.9V13.1C33.4512 12.911 32.7732 12.8432 32.0999 12.9C31.42 12.8681 30.7405 12.9701 30.0999 13.2V42.2C30.7405 42.4299 31.42 42.5319 32.0999 42.5C32.7794 42.5245 33.4575 42.4228 34.0999 42.2V40.3C34.7248 41.1848 35.5707 41.8905 36.5532 42.3466C37.5358 42.8028 38.6207 42.9936 39.6999 42.9C44.1999 42.9 46.9999 40 46.9999 32C46.9999 24 44.1999 21.2 39.6999 21.2V21.4ZM38.3999 39.5C35.5999 39.5 34.0999 37.2 34.0999 34.5V29.5C34.0999 26.8 35.5999 24.5 38.3999 24.5C41.3999 24.5 42.9999 26.1 42.9999 32C42.9999 37.9 41.4999 39.5 38.3999 39.5ZM94.2999 21.3C89.0999 21.3 85.6999 24.4 85.6999 31.9C85.6999 39 88.4999 42.8 94.4999 42.8C96.7551 42.8852 98.9842 42.2931 100.9 41.1C100.848 40.0329 100.381 39.0283 99.5999 38.3C98.1854 39.0527 96.6019 39.4314 94.9999 39.4C91.7999 39.4 89.9999 37.9 89.5999 33.2H101.6C101.8 31.9 102 30.6 102 29.2C102 24 98.9999 21.2 94.2999 21.2V21.3ZM97.9999 30.5H89.6999C89.9999 26.1 91.6999 24.5 94.1999 24.5C97.1999 24.5 98.0999 26.5 98.0999 28.7C98.0999 29.3 98.0999 29.9 97.8999 30.5H97.9999ZM80.8999 39.5C78.0999 39.5 76.9999 38.5 76.9999 35V24.7H81.9999C82.1848 24.2208 82.2862 23.7135 82.2999 23.2C82.3345 22.6916 82.2664 22.1815 82.0999 21.7H77.0999V17.4C75.7152 17.2305 74.3128 17.511 73.0999 18.2V21.8H70.0999C69.9043 22.276 69.8025 22.7854 69.7999 23.3C69.7999 23.8 69.8999 24.3 70.0999 24.7H73.0999V35.3C73.0999 40.3 75.0999 43 79.7999 43C80.746 42.9804 81.6862 42.8461 82.5999 42.6C82.7999 42.2 82.7999 41.6 82.7999 41.2C82.7774 40.6876 82.6762 40.1817 82.4999 39.7L80.8999 39.8V39.5ZM64.3999 22L60.4999 34L59.2999 38.7H58.9999C58.6305 37.106 58.163 35.5363 57.5999 34L53.1999 22C52.5492 21.8213 51.873 21.7537 51.1999 21.8C50.5268 21.7592 49.8515 21.8267 49.1999 22L56.4999 42.2C56.8999 42.4 57.3999 42.5 57.7999 42.5L56.9999 44.9C55.7999 48.6 54.9999 49.1 53.1999 49.1C52.5955 49.082 51.9935 49.0151 51.3999 48.9C51.1755 49.4023 51.0727 49.9505 51.0999 50.5C51.0999 51 51.0999 51.5 51.3999 52C52.0684 52.2646 52.7809 52.4003 53.4999 52.4C57.6999 52.4 59.0999 49.9 60.4999 45.6L67.9999 22C67.4212 21.7986 66.8125 21.6972 66.1999 21.7C65.5199 21.6655 64.8398 21.7675 64.1999 22H64.3999ZM14.1999 42.8C10.9429 42.7434 7.80934 41.5447 5.3461 39.4132C2.88285 37.2817 1.24643 34.3528 0.722506 31.1378C0.198577 27.9228 0.82042 24.6259 2.47948 21.8226C4.13854 19.0193 6.72944 16.8878 9.79988 15.8C9.91064 15.7532 10.0297 15.7292 10.1499 15.7292C10.2701 15.7292 10.3891 15.7532 10.4999 15.8C10.69 15.912 10.8323 16.0899 10.8999 16.3C10.9664 16.5388 10.9418 16.7938 10.831 17.0156C10.7201 17.2373 10.5308 17.4099 10.2999 17.5C7.56602 18.3963 5.24516 20.2449 3.76019 22.7091C2.27522 25.1732 1.72499 28.0889 2.20975 30.9248C2.69452 33.7607 4.18202 36.328 6.4012 38.159C8.62039 39.99 11.4235 40.9627 14.2999 40.9C17.2268 41.0242 20.098 40.0733 22.3723 38.2267C24.6466 36.3802 26.1669 33.7654 26.6465 30.8754C27.1261 27.9854 26.532 25.0197 24.9761 22.5375C23.4202 20.0553 21.01 18.228 18.1999 17.4C17.5999 17.4 6.79988 13.3 6.79988 7.3C6.79988 7 6.99988 6.8 7.19988 6.6C7.29988 6.5 10.2999 4.1 16.1999 8.8C17.1999 6 20.0999 -0.2 25.5999 0.5C25.7864 0.541747 25.9548 0.641781 26.0806 0.785613C26.2065 0.929444 26.2833 1.10961 26.2999 1.3C26.5273 3.61847 26.1275 5.95545 25.1423 8.06648C24.1572 10.1775 22.6229 11.985 20.6999 13.3C20.4956 13.4295 20.2514 13.4806 20.0124 13.4438C19.7734 13.407 19.5558 13.2849 19.3999 13.1C19.2966 12.9058 19.2603 12.683 19.2964 12.4661C19.3326 12.2492 19.4392 12.0502 19.5999 11.9C22.6999 9.7 24.5999 6.1 24.5999 2.3C19.7999 2.3 17.5999 10.5 17.4999 10.5C17.4634 10.6563 17.3898 10.8014 17.2854 10.9233C17.1809 11.0451 17.0487 11.14 16.8999 11.2C16.7448 11.2413 16.5821 11.2447 16.4255 11.2099C16.2688 11.1751 16.1228 11.1031 15.9999 11C11.9999 7.4 9.59988 7.6 8.69988 7.8C9.29988 11.5 15.9999 14.8 18.6999 15.8C21.7775 16.8913 24.3726 19.0312 26.0303 21.8446C27.6879 24.6579 28.3021 27.965 27.7653 31.1859C27.2285 34.4068 25.5749 37.3359 23.0944 39.4596C20.614 41.5832 17.465 42.7658 14.1999 42.8" fill="white"/>
<path fill-rule="evenodd" clip-rule="evenodd" d="M14.5997 28.1999H14.1997H14.0997C14.0693 28.2175 14.0348 28.2267 13.9997 28.2267C13.9646 28.2267 13.9301 28.2175 13.8997 28.1999L10.8997 20.1999C10.6997 19.7999 11.0997 19.5999 11.0997 19.5999C13.2046 18.8684 15.4948 18.8684 17.5997 19.5999C17.6646 19.6865 17.6997 19.7917 17.6997 19.8999C17.6997 20.0081 17.6646 20.1134 17.5997 20.1999L14.5997 28.1999ZM15.0997 28.5999L14.8997 28.2999H14.7997V28.1999L18.1997 20.2999C18.2997 19.8999 18.7997 19.9999 18.7997 19.9999C20.7655 20.9956 22.3475 22.6127 23.2997 24.5999C23.3406 24.7077 23.3431 24.8262 23.3066 24.9356C23.2702 25.0449 23.1971 25.1383 23.0997 25.1999L15.976 28.3051L23.0997 25.5999C23.4997 25.3999 23.6997 25.8999 23.6997 25.8999C24.4085 28.0086 24.4085 30.2912 23.6997 32.3999C23.5997 32.4999 23.3997 32.5999 23.1997 32.4999L15.2997 29.3999V28.9999L15.1997 28.7999C15.1821 28.7695 15.1729 28.735 15.1729 28.6999C15.1729 28.6648 15.1821 28.6303 15.1997 28.5999H15.0997ZM14.7997 29.9999L15.1997 29.6999L15.0997 29.5999C15.1301 29.5824 15.1646 29.5731 15.1997 29.5731C15.2348 29.5731 15.2693 29.5824 15.2997 29.5999L23.0997 32.9999C23.4997 33.0999 23.2997 33.5999 23.2997 33.5999C22.3592 35.6201 20.7771 37.2726 18.7997 38.2999C18.6954 38.3085 18.5911 38.2842 18.5014 38.2304C18.4117 38.1765 18.3412 38.096 18.2997 37.9999L14.7997 29.9999ZM14.7997 29.9999C14.7693 29.9824 14.7348 29.9731 14.6997 29.9731C14.6646 29.9731 14.6301 29.9824 14.5997 29.9999H14.3997H13.9997L10.9997 38.0999C10.9997 38.0999 10.7997 38.3999 11.0997 38.5999C13.1729 39.3162 15.4265 39.3162 17.4997 38.5999C17.4997 38.5999 17.8997 38.3999 17.7997 37.9999L14.7997 29.9999ZM13.4997 29.5999L13.6997 29.8999H13.8997C13.9172 29.9303 13.9265 29.9648 13.9265 29.9999C13.9265 30.035 13.9172 30.0695 13.8997 30.0999L10.4997 37.9999C10.2997 38.3999 9.79969 38.1999 9.79969 38.1999C7.83383 37.2043 6.25189 35.5872 5.29969 33.5999C5.29111 33.4957 5.31544 33.3914 5.36926 33.3017C5.42308 33.212 5.50367 33.1414 5.59969 33.0999L13.3997 29.5999H13.4997ZM13.3997 28.8999V29.2999V29.3999C13.4172 29.4303 13.4265 29.4648 13.4265 29.4999C13.4265 29.535 13.4172 29.5695 13.3997 29.5999L5.39969 32.5999C5.09969 32.7999 4.79969 32.3999 4.79969 32.3999C4.09086 30.2912 4.09086 28.0086 4.79969 25.8999C4.85526 25.8224 4.93187 25.7623 5.02046 25.7269C5.10906 25.6914 5.20595 25.6821 5.29969 25.6999L13.2997 28.8999H13.3997ZM13.7997 28.2999L13.4997 28.5999C13.4669 28.6084 13.4325 28.6084 13.3997 28.5999L5.49969 25.1999C5.19969 25.0999 5.29969 24.5999 5.29969 24.5999C6.27748 22.5968 7.89653 20.9777 9.89969 19.9999C10.0039 19.9914 10.1083 20.0157 10.1979 20.0695C10.2876 20.1233 10.3582 20.2039 10.3997 20.2999L13.7997 28.2999Z" fill="white"/>
</svg>
