<svg width="231" height="31" viewBox="0 0 231 31" fill="none" xmlns="http://www.w3.org/2000/svg">
<path fill-rule="evenodd" clip-rule="evenodd" d="M172.201 0.349073H167.31V30.6564H190.291L193.404 25.705H172.201V0.349073ZM105.123 1.84928L87.1838 30.6564H93.1144L98.5258 21.9535H110.09L113.13 17.0037H101.565L107.866 7.02576L122.618 30.6564H128.547L110.46 1.77457C109.349 -0.101185 106.383 -0.101183 105.123 1.84928ZM139.889 5.29078H160.46L163.493 0.343994L139.741 0.357712C131.475 0.357712 126.035 7.13807 126.035 15.502C126.035 23.8654 131.475 30.6473 139.741 30.6473L159.834 30.6234L162.98 25.7137H139.889C134.316 25.7137 131.059 21.1419 131.059 15.502C131.059 9.86303 134.316 5.29078 139.889 5.29078ZM34.9125 0.357712H13.7112C5.4464 0.357712 0.00634766 7.13808 0.00634766 15.5025C0.00634766 23.8654 5.4464 30.6473 13.7112 30.6473H34.9125C43.1777 30.6473 48.6173 23.8654 48.6173 15.5025C48.6173 7.13808 43.1777 0.357712 34.9125 0.357712ZM34.9125 25.7137H13.7112C8.13855 25.7137 4.88145 21.1419 4.88145 15.5025C4.88145 9.86303 8.13906 5.29078 13.7112 5.29078H34.9125C40.4851 5.29078 43.7427 9.86303 43.7427 15.5025C43.7427 21.1419 40.4851 25.7137 34.9125 25.7137ZM198.789 17.9032H224.696L227.811 12.9518H198.789C199.637 8.56458 202.697 5.29129 207.387 5.29129H227.958L230.994 0.344498L207.239 0.358224C198.973 0.358224 193.536 7.13859 193.536 15.5025C193.536 23.8659 198.973 30.6478 207.239 30.6478L227.332 30.6239L230.478 25.7142H207.387C202.631 25.7137 199.584 22.385 198.789 17.9032ZM76.498 18.3423C81.4047 18.3423 85.3824 14.3169 85.3824 9.35076C85.3824 4.38517 81.4047 0.360255 76.498 0.360255L51.553 0.349585V30.6569H57.0387V5.29383H76.498C78.7126 5.29383 80.5078 7.11063 80.5078 9.35127C80.5078 11.5924 78.7126 13.4092 76.498 13.4092H60.8939L78.4961 30.6224H85.5783L72.9767 18.353L76.498 18.3423Z" fill="white"/>
</svg>
