<svg width="387" height="53" viewBox="0 0 387 53" fill="none" xmlns="http://www.w3.org/2000/svg">
<path d="M18.5427 15.6085L21.3151 19.9991L8.27661 27.6321L21.3151 35.1241L18.4422 39.6556L2.79199 29.9079V25.3965L18.5427 15.6085ZM46.9144 32.1233C46.9144 33.8553 46.4589 35.386 45.5483 36.7152C44.6508 38.0444 43.3585 39.0851 41.6709 39.8369C39.9833 40.5889 37.9542 40.9647 35.5836 40.9647C32.9583 40.9647 30.7552 40.5821 28.9739 39.8168C27.206 39.0381 25.7394 38.0781 24.5742 36.9367L27.9091 33.231C28.9403 34.1307 30.0789 34.8288 31.3245 35.3255C32.5701 35.8089 33.9362 36.0506 35.4229 36.0506C36.8023 36.0506 37.9206 35.7553 38.7779 35.1644C39.635 34.5602 40.0637 33.7143 40.0637 32.6268C40.0637 31.6064 39.7021 30.8076 38.9788 30.2301C38.2689 29.6528 36.9429 29.0688 35.001 28.4779C31.7464 27.4845 29.4292 26.3164 28.0498 24.9736C26.6836 23.6176 26.0006 21.8788 26.0006 19.7574C26.0006 18.0522 26.4692 16.5954 27.4069 15.387C28.3577 14.1786 29.6301 13.2589 31.224 12.6278C32.8177 11.9833 34.5723 11.6611 36.4876 11.6611C38.6438 11.6611 40.5459 11.9766 42.1932 12.6077C43.8406 13.2253 45.267 14.1115 46.4725 15.2662L43.3585 18.8511C42.4208 18.0589 41.4097 17.4748 40.3249 17.0989C39.24 16.7095 38.135 16.5148 37.01 16.5148C35.7509 16.5148 34.7398 16.7498 33.9764 17.2197C33.2129 17.6762 32.8312 18.3543 32.8312 19.2539C32.8312 19.8447 32.9985 20.3414 33.3335 20.7442C33.6682 21.147 34.2509 21.5296 35.0813 21.8922C35.9116 22.2413 37.0635 22.6509 38.5368 23.1207C40.2912 23.6579 41.7914 24.3024 43.037 25.0541C44.296 25.7927 45.2535 26.7258 45.9099 27.8536C46.5795 28.9814 46.9144 30.4048 46.9144 32.1233ZM70.2034 39.0313C69.3729 39.5685 68.3684 40.0249 67.1898 40.4008C66.0111 40.7769 64.6851 40.9647 63.212 40.9647C60.426 40.9647 58.3567 40.2533 57.0041 38.8299C55.6513 37.3934 54.975 35.4464 54.975 32.9893V23.2818H50.4949V18.8914H54.975V14.2592L61.3235 13.4938V18.8914H68.1944L67.5716 23.2818H61.3235V32.9893C61.3235 34.0501 61.5646 34.8087 62.0468 35.2651C62.5289 35.7218 63.2989 35.9499 64.3571 35.9499C65.107 35.9499 65.7901 35.8627 66.4063 35.6881C67.0357 35.5002 67.5982 35.2651 68.0939 34.9832L70.2034 39.0313ZM93.0501 34.1171C93.0501 34.9227 93.1573 35.5068 93.3716 35.8693C93.5993 36.2318 93.9609 36.5072 94.4564 36.6951L93.1506 40.8842C91.8917 40.7633 90.8269 40.4882 89.9562 40.0584C89.0991 39.6154 88.4228 38.9507 87.9271 38.0646C87.1102 39.0449 86.0655 39.7765 84.7931 40.2598C83.5208 40.7298 82.2215 40.9647 80.8956 40.9647C78.6992 40.9647 76.9446 40.3404 75.632 39.0917C74.3329 37.8297 73.6832 36.2117 73.6832 34.238C73.6832 31.9153 74.5873 30.1228 76.3954 28.8606C78.217 27.5986 80.775 26.9674 84.0698 26.9674H86.9427V26.1618C86.9427 23.9734 85.5364 22.879 82.7238 22.879C82.0407 22.879 81.1635 22.9797 80.092 23.1811C79.0206 23.3692 77.9491 23.6443 76.8775 24.0069L75.411 19.7775C76.7906 19.2539 78.2236 18.8578 79.7103 18.5893C81.2105 18.3207 82.5497 18.1865 83.7283 18.1865C86.9025 18.1865 89.2465 18.8377 90.7598 20.14C92.2867 21.4289 93.0501 23.2954 93.0501 25.7389V34.1171ZM83.0854 36.4131C83.7685 36.4131 84.4852 36.2117 85.235 35.8089C85.9851 35.3927 86.5544 34.8087 86.9427 34.0567V30.5926H85.3757C83.6078 30.5926 82.3087 30.868 81.4782 31.4184C80.6479 31.9556 80.2326 32.7476 80.2326 33.7949C80.2326 34.6141 80.4804 35.2585 80.9759 35.7283C81.485 36.185 82.1881 36.4131 83.0854 36.4131ZM118.388 39.0313C117.558 39.5685 116.553 40.0249 115.375 40.4008C114.196 40.7769 112.87 40.9647 111.397 40.9647C108.611 40.9647 106.542 40.2533 105.189 38.8299C103.836 37.3934 103.16 35.4464 103.16 32.9893V23.2818H98.6798V18.8914H103.16V14.2592L109.508 13.4938V18.8914H116.379L115.756 23.2818H109.508V32.9893C109.508 34.0501 109.749 34.8087 110.232 35.2651C110.714 35.7218 111.484 35.9499 112.542 35.9499C113.292 35.9499 113.975 35.8627 114.591 35.6881C115.221 35.5002 115.783 35.2651 116.279 34.9832L118.388 39.0313ZM128.779 31.4385C128.994 33.1841 129.563 34.4394 130.487 35.2047C131.411 35.9567 132.55 36.3325 133.902 36.3325C134.88 36.3325 135.824 36.1714 136.735 35.8492C137.646 35.5269 138.523 35.0974 139.367 34.5602L141.918 38.0243C140.914 38.8837 139.695 39.5886 138.262 40.139C136.842 40.6896 135.221 40.9647 133.4 40.9647C130.962 40.9647 128.92 40.4814 127.273 39.5147C125.625 38.5346 124.386 37.192 123.556 35.4867C122.725 33.7815 122.31 31.8212 122.31 29.6058C122.31 27.4979 122.712 25.5846 123.516 23.8659C124.319 22.1338 125.491 20.7577 127.031 19.7372C128.585 18.7034 130.48 18.1865 132.717 18.1865C134.753 18.1865 136.514 18.6228 138.001 19.4956C139.501 20.3683 140.659 21.6238 141.476 23.2617C142.307 24.8998 142.722 26.8667 142.722 29.1627C142.722 29.5252 142.709 29.9147 142.682 30.3308C142.668 30.7472 142.642 31.1163 142.601 31.4385H128.779ZM132.717 22.4561C131.579 22.4561 130.661 22.8657 129.965 23.6846C129.268 24.5038 128.846 25.8129 128.699 27.6119H136.534C136.521 26.0546 136.219 24.8059 135.63 23.8659C135.041 22.9261 134.07 22.4561 132.717 22.4561ZM167.759 26.3028C167.759 29.2568 167.337 31.8347 166.493 34.0366C165.649 36.2253 164.397 37.9304 162.736 39.1521C161.089 40.3605 159.046 40.9647 156.609 40.9647C154.184 40.9647 152.142 40.3741 150.481 39.1924C148.82 37.9976 147.568 36.3058 146.724 34.1171C145.88 31.9287 145.459 29.3238 145.459 26.3028C145.459 23.349 145.88 20.7778 146.724 18.5893C147.568 16.4007 148.82 14.7022 150.481 13.4938C152.142 12.272 154.184 11.6611 156.609 11.6611C159.046 11.6611 161.089 12.2519 162.736 13.4334C164.397 14.615 165.649 16.3 166.493 18.4886C167.337 20.6771 167.759 23.2818 167.759 26.3028ZM161.008 26.3028C161.008 22.8657 160.667 20.3683 159.984 18.8108C159.301 17.2533 158.176 16.4746 156.609 16.4746C155.042 16.4746 153.917 17.26 153.233 18.8309C152.55 20.3884 152.209 22.879 152.209 26.3028C152.209 29.7402 152.557 32.2375 153.254 33.7949C153.95 35.3525 155.068 36.1311 156.609 36.1311C158.216 36.1311 159.347 35.3457 160.004 33.7748C160.673 32.1905 161.008 29.6999 161.008 26.3028ZM185.04 9.72766C186.594 9.72766 187.967 9.85522 189.159 10.1103C190.351 10.352 191.416 10.6742 192.353 11.077L190.605 15.2259C189.869 14.9439 189.112 14.7425 188.335 14.6217C187.558 14.4874 186.788 14.4203 186.025 14.4203C184.766 14.4203 183.862 14.6485 183.313 15.105C182.777 15.5615 182.509 16.3202 182.509 17.3809V20.2407H189.46L188.757 24.6513H182.509V40.28H176.201V24.6513H171.721V20.2407H176.201V17.1392C176.201 15.7294 176.536 14.4673 177.205 13.3529C177.875 12.2384 178.866 11.359 180.179 10.7145C181.491 10.0566 183.112 9.72766 185.04 9.72766ZM215.823 26.182C215.823 29.0151 215.449 31.3514 214.698 33.1907C213.962 35.0302 212.957 36.4669 211.684 37.5007C210.412 38.5212 208.966 39.2395 207.345 39.6556C205.738 40.072 204.07 40.28 202.343 40.28H194.829V12.366H201.86C203.642 12.366 205.363 12.554 207.024 12.9299C208.698 13.2924 210.191 13.9705 211.504 14.9641C212.83 15.9442 213.881 17.3406 214.658 19.1532C215.434 20.9524 215.823 23.2954 215.823 26.182ZM208.992 26.182C208.992 23.6713 208.718 21.7713 208.169 20.4824C207.633 19.1935 206.896 18.3207 205.959 17.8642C205.035 17.3943 203.99 17.1593 202.825 17.1593H201.418V35.5068H202.825C204.044 35.5068 205.115 35.245 206.039 34.7213C206.963 34.1843 207.687 33.2378 208.209 31.8816C208.731 30.5256 208.992 28.6257 208.992 26.182ZM225.149 31.4385C225.365 33.1841 225.933 34.4394 226.858 35.2047C227.782 35.9567 228.919 36.3325 230.273 36.3325C231.25 36.3325 232.195 36.1714 233.105 35.8492C234.016 35.5269 234.894 35.0974 235.737 34.5602L238.288 38.0243C237.283 38.8837 236.065 39.5886 234.631 40.139C233.212 40.6896 231.593 40.9647 229.77 40.9647C227.333 40.9647 225.291 40.4814 223.643 39.5147C221.996 38.5346 220.757 37.192 219.925 35.4867C219.096 33.7815 218.68 31.8212 218.68 29.6058C218.68 27.4979 219.082 25.5846 219.885 23.8659C220.689 22.1338 221.86 20.7577 223.402 19.7372C224.954 18.7034 226.851 18.1865 229.087 18.1865C231.123 18.1865 232.885 18.6228 234.371 19.4956C235.871 20.3683 237.03 21.6238 237.846 23.2617C238.677 24.8998 239.091 26.8667 239.091 29.1627C239.091 29.5252 239.079 29.9147 239.051 30.3308C239.039 30.7472 239.011 31.1163 238.971 31.4385H225.149ZM229.087 22.4561C227.949 22.4561 227.031 22.8657 226.335 23.6846C225.637 24.5038 225.217 25.8129 225.069 27.6119H232.904C232.891 26.0546 232.589 24.8059 232.001 23.8659C231.411 22.9261 230.44 22.4561 229.087 22.4561ZM263.868 18.8914L256.756 40.28H249.282L242.09 18.8914H248.94L253.1 35.4061L257.439 18.8914H263.868ZM272.591 36.4735C272.591 35.6546 272.792 34.9094 273.194 34.238C273.596 33.5532 274.137 33.0094 274.82 32.6066C275.503 32.1905 276.254 31.9823 277.07 31.9823C277.901 31.9823 278.652 32.1905 279.32 32.6066C280.004 33.0094 280.547 33.5532 280.949 34.238C281.351 34.9094 281.551 35.6546 281.551 36.4735C281.551 37.2791 281.351 38.0243 280.949 38.7091C280.547 39.3938 280.004 39.9376 279.32 40.3404C278.652 40.7568 277.901 40.9647 277.07 40.9647C276.254 40.9647 275.503 40.7568 274.82 40.3404C274.137 39.9376 273.596 39.3938 273.194 38.7091C272.792 38.0243 272.591 37.2791 272.591 36.4735ZM307.692 18.1865C309.206 18.1865 310.325 18.6832 311.048 19.6768C311.784 20.657 312.152 22.2481 312.152 24.4499V40.28H306.709V25.175C306.709 24.4232 306.635 23.8928 306.487 23.5839C306.353 23.2752 306.072 23.1207 305.643 23.1207C305.309 23.1207 304.96 23.2214 304.598 23.4228C304.251 23.6108 303.862 23.9734 303.433 24.5104V40.28H298.973V25.175C298.973 24.4232 298.901 23.8928 298.753 23.5839C298.62 23.2752 298.338 23.1207 297.909 23.1207C297.575 23.1207 297.226 23.2214 296.864 23.4228C296.516 23.6108 296.128 23.9734 295.699 24.5104V40.28H290.173V18.8914H294.834L295.257 20.9658C295.928 20.0528 296.602 19.3613 297.285 18.8914C297.968 18.4214 298.78 18.1865 299.717 18.1865C300.521 18.1865 301.204 18.3946 301.766 18.8108C302.342 19.2136 302.75 19.8514 302.991 20.7241C303.634 19.9722 304.344 19.3613 305.12 18.8914C305.899 18.4214 306.755 18.1865 307.692 18.1865ZM333.976 34.1171C333.976 34.9227 334.082 35.5068 334.298 35.8693C334.524 36.2318 334.886 36.5072 335.383 36.6951L334.076 40.8842C332.817 40.7633 331.752 40.4882 330.882 40.0584C330.024 39.6154 329.347 38.9507 328.852 38.0646C328.036 39.0449 326.991 39.7765 325.718 40.2598C324.445 40.7298 323.147 40.9647 321.821 40.9647C319.623 40.9647 317.87 40.3404 316.557 39.0917C315.259 37.8297 314.609 36.2117 314.609 34.238C314.609 31.9153 315.512 30.1228 317.32 28.8606C319.141 27.5986 321.7 26.9674 324.995 26.9674H327.869V26.1618C327.869 23.9734 326.463 22.879 323.65 22.879C322.967 22.879 322.089 22.9797 321.017 23.1811C319.945 23.3692 318.875 23.6443 317.803 24.0069L316.337 19.7775C317.716 19.2539 319.15 18.8578 320.636 18.5893C322.136 18.3207 323.474 18.1865 324.654 18.1865C327.829 18.1865 330.172 18.8377 331.686 20.14C333.213 21.4289 333.976 23.2954 333.976 25.7389V34.1171ZM324.012 36.4131C324.695 36.4131 325.409 36.2117 326.16 35.8089C326.911 35.3927 327.48 34.8087 327.869 34.0567V30.5926H326.302C324.534 30.5926 323.233 30.868 322.404 31.4184C321.573 31.9556 321.159 32.7476 321.159 33.7949C321.159 34.6141 321.406 35.2585 321.901 35.7283C322.411 36.185 323.113 36.4131 324.012 36.4131ZM343.402 44.7913L338.44 42.5155L355.335 7.37128L360.258 9.6471L343.402 44.7913ZM367.193 15.6085L382.903 25.3562V29.9079L367.254 39.6556L364.38 35.3255L377.439 27.6321L364.38 20.1803L367.193 15.6085Z" fill="#E70027"/>
<path d="M46.9142 32.1233C46.9142 33.8553 46.4587 35.386 45.5481 36.7152C44.6506 38.0444 43.3582 39.0851 41.6707 39.8369C39.9831 40.5889 37.954 40.9647 35.5833 40.9647C32.9581 40.9647 30.7549 40.5821 28.9737 39.8168C27.2057 39.0381 25.7392 38.0781 24.5739 36.9367L27.9089 33.231C28.9401 34.1307 30.0786 34.8288 31.3242 35.3255C32.5698 35.8089 33.936 36.0506 35.4226 36.0506C36.8021 36.0506 37.9204 35.7553 38.7777 35.1644C39.6348 34.5602 40.0634 33.7143 40.0634 32.6268C40.0634 31.6064 39.7018 30.8076 38.9786 30.2301C38.2687 29.6528 36.9427 29.0688 35.0007 28.4779C31.7461 27.4845 29.429 26.3164 28.0495 24.9736C26.6834 23.6176 26.0003 21.8788 26.0003 19.7574C26.0003 18.0522 26.469 16.5954 27.4066 15.387C28.3574 14.1786 29.6299 13.2589 31.2238 12.6278C32.8175 11.9833 34.5721 11.6611 36.4874 11.6611C38.6436 11.6611 40.5456 11.9766 42.193 12.6077C43.8404 13.2253 45.2668 14.1115 46.4722 15.2662L43.3582 18.8511C42.4206 18.0589 41.4095 17.4748 40.3246 17.0989C39.2398 16.7095 38.1348 16.5148 37.0097 16.5148C35.7506 16.5148 34.7396 16.7498 33.9761 17.2197C33.2127 17.6762 32.831 18.3543 32.831 19.2539C32.831 19.8447 32.9983 20.3414 33.3332 20.7442C33.668 21.147 34.2506 21.5296 35.0811 21.8922C35.9113 22.2413 37.0632 22.6509 38.5366 23.1207C40.291 23.6579 41.7912 24.3024 43.0368 25.0541C44.2957 25.7927 45.2533 26.7258 45.9097 27.8536C46.5792 28.9814 46.9142 30.4048 46.9142 32.1233ZM70.2031 39.0313C69.3727 39.5685 68.3682 40.0249 67.1896 40.4008C66.0108 40.7769 64.6849 40.9647 63.2118 40.9647C60.4258 40.9647 58.3565 40.2533 57.0039 38.8299C55.6511 37.3934 54.9748 35.4464 54.9748 32.9893V23.2818H50.4947V18.8914H54.9748V14.2592L61.3233 13.4938V18.8914H68.1941L67.5713 23.2818H61.3233V32.9893C61.3233 34.0501 61.5644 34.8087 62.0465 35.2651C62.5287 35.7218 63.2987 35.9499 64.3569 35.9499C65.1068 35.9499 65.7899 35.8627 66.4061 35.6881C67.0354 35.5002 67.598 35.2651 68.0937 34.9832L70.2031 39.0313ZM93.0499 34.1171C93.0499 34.9227 93.1571 35.5068 93.3713 35.8693C93.5991 36.2318 93.9607 36.5072 94.4562 36.6951L93.1503 40.8842C91.8914 40.7633 90.8266 40.4882 89.956 40.0584C89.0989 39.6154 88.4226 38.9507 87.9269 38.0646C87.11 39.0449 86.0653 39.7765 84.7928 40.2598C83.5206 40.7298 82.2213 40.9647 80.8953 40.9647C78.699 40.9647 76.9443 40.3404 75.6317 39.0917C74.3326 37.8297 73.683 36.2117 73.683 34.238C73.683 31.9153 74.587 30.1228 76.3951 28.8606C78.2168 27.5986 80.7748 26.9674 84.0696 26.9674H86.9425V26.1618C86.9425 23.9734 85.5362 22.879 82.7235 22.879C82.0405 22.879 81.1633 22.9797 80.0917 23.1811C79.0204 23.3692 77.9489 23.6443 76.8773 24.0069L75.4107 19.7775C76.7904 19.2539 78.2233 18.8578 79.71 18.5893C81.2102 18.3207 82.5495 18.1865 83.7281 18.1865C86.9023 18.1865 89.2463 18.8377 90.7596 20.14C92.2865 21.4289 93.0499 23.2954 93.0499 25.7389V34.1171ZM83.0852 36.4131C83.7682 36.4131 84.4849 36.2117 85.2348 35.8089C85.9849 35.3927 86.5542 34.8087 86.9425 34.0567V30.5926H85.3754C83.6075 30.5926 82.3084 30.868 81.478 31.4184C80.6477 31.9556 80.2324 32.7476 80.2324 33.7949C80.2324 34.6141 80.4802 35.2585 80.9757 35.7283C81.4847 36.185 82.1879 36.4131 83.0852 36.4131ZM118.388 39.0313C117.558 39.5685 116.553 40.0249 115.374 40.4008C114.196 40.7769 112.87 40.9647 111.397 40.9647C108.611 40.9647 106.542 40.2533 105.189 38.8299C103.836 37.3934 103.16 35.4464 103.16 32.9893V23.2818H98.6796V18.8914H103.16V14.2592L109.508 13.4938V18.8914H116.379L115.756 23.2818H109.508V32.9893C109.508 34.0501 109.749 34.8087 110.231 35.2651C110.714 35.7218 111.484 35.9499 112.542 35.9499C113.292 35.9499 113.975 35.8627 114.591 35.6881C115.221 35.5002 115.783 35.2651 116.279 34.9832L118.388 39.0313ZM128.779 31.4385C128.993 33.1841 129.563 34.4394 130.487 35.2047C131.411 35.9567 132.549 36.3325 133.902 36.3325C134.88 36.3325 135.824 36.1714 136.735 35.8492C137.646 35.5269 138.523 35.0974 139.367 34.5602L141.918 38.0243C140.914 38.8837 139.695 39.5886 138.262 40.139C136.842 40.6896 135.221 40.9647 133.4 40.9647C130.962 40.9647 128.92 40.4814 127.272 39.5147C125.625 38.5346 124.386 37.192 123.556 35.4867C122.725 33.7815 122.31 31.8212 122.31 29.6058C122.31 27.4979 122.712 25.5846 123.515 23.8659C124.319 22.1338 125.491 20.7577 127.031 19.7372C128.585 18.7034 130.48 18.1865 132.717 18.1865C134.753 18.1865 136.514 18.6228 138 19.4956C139.5 20.3683 140.659 21.6238 141.476 23.2617C142.307 24.8998 142.722 26.8667 142.722 29.1627C142.722 29.5252 142.708 29.9147 142.681 30.3308C142.668 30.7472 142.641 31.1163 142.601 31.4385H128.779ZM132.717 22.4561C131.578 22.4561 130.661 22.8657 129.964 23.6846C129.268 24.5038 128.846 25.8129 128.699 27.6119H136.534C136.521 26.0546 136.219 24.8059 135.63 23.8659C135.04 22.9261 134.07 22.4561 132.717 22.4561ZM167.758 26.3028C167.758 29.2568 167.337 31.8347 166.493 34.0366C165.649 36.2253 164.397 37.9304 162.736 39.1521C161.089 40.3605 159.046 40.9647 156.608 40.9647C154.184 40.9647 152.142 40.3741 150.481 39.1924C148.82 37.9976 147.568 36.3058 146.724 34.1171C145.88 31.9287 145.458 29.3238 145.458 26.3028C145.458 23.349 145.88 20.7778 146.724 18.5893C147.568 16.4007 148.82 14.7022 150.481 13.4938C152.142 12.272 154.184 11.6611 156.608 11.6611C159.046 11.6611 161.089 12.2519 162.736 13.4334C164.397 14.615 165.649 16.3 166.493 18.4886C167.337 20.6771 167.758 23.2818 167.758 26.3028ZM161.008 26.3028C161.008 22.8657 160.667 20.3683 159.984 18.8108C159.3 17.2533 158.175 16.4746 156.608 16.4746C155.041 16.4746 153.916 17.26 153.233 18.8309C152.55 20.3884 152.209 22.879 152.209 26.3028C152.209 29.7402 152.557 32.2375 153.253 33.7949C153.95 35.3525 155.068 36.1311 156.608 36.1311C158.216 36.1311 159.347 35.3457 160.004 33.7748C160.673 32.1905 161.008 29.6999 161.008 26.3028ZM185.04 9.72766C186.594 9.72766 187.967 9.85522 189.159 10.1103C190.351 10.352 191.416 10.6742 192.353 11.077L190.605 15.2259C189.869 14.9439 189.112 14.7425 188.335 14.6217C187.558 14.4874 186.788 14.4203 186.025 14.4203C184.766 14.4203 183.862 14.6485 183.312 15.105C182.777 15.5615 182.509 16.3202 182.509 17.3809V20.2407H189.46L188.757 24.6513H182.509V40.28H176.201V24.6513H171.72V20.2407H176.201V17.1392C176.201 15.7294 176.536 14.4673 177.205 13.3529C177.875 12.2384 178.866 11.359 180.178 10.7145C181.491 10.0566 183.112 9.72766 185.04 9.72766ZM215.823 26.182C215.823 29.0151 215.448 31.3514 214.698 33.1907C213.962 35.0302 212.957 36.4669 211.684 37.5007C210.412 38.5212 208.965 39.2395 207.345 39.6556C205.737 40.072 204.07 40.28 202.342 40.28H194.829V12.366H201.86C203.642 12.366 205.363 12.554 207.023 12.9299C208.698 13.2924 210.191 13.9705 211.504 14.9641C212.83 15.9442 213.881 17.3406 214.657 19.1532C215.433 20.9524 215.823 23.2954 215.823 26.182ZM208.992 26.182C208.992 23.6713 208.718 21.7713 208.168 20.4824C207.633 19.1935 206.896 18.3207 205.959 17.8642C205.034 17.3943 203.99 17.1593 202.824 17.1593H201.418V35.5068H202.824C204.043 35.5068 205.115 35.245 206.039 34.7213C206.963 34.1843 207.686 33.2378 208.209 31.8816C208.731 30.5256 208.992 28.6257 208.992 26.182ZM225.149 31.4385C225.364 33.1841 225.933 34.4394 226.857 35.2047C227.782 35.9567 228.919 36.3325 230.273 36.3325C231.25 36.3325 232.195 36.1714 233.104 35.8492C234.016 35.5269 234.893 35.0974 235.737 34.5602L238.288 38.0243C237.283 38.8837 236.065 39.5886 234.631 40.139C233.212 40.6896 231.592 40.9647 229.769 40.9647C227.333 40.9647 225.29 40.4814 223.643 39.5147C221.996 38.5346 220.756 37.192 219.925 35.4867C219.096 33.7815 218.68 31.8212 218.68 29.6058C218.68 27.4979 219.081 25.5846 219.885 23.8659C220.689 22.1338 221.86 20.7577 223.402 19.7372C224.954 18.7034 226.851 18.1865 229.086 18.1865C231.123 18.1865 232.884 18.6228 234.371 19.4956C235.87 20.3683 237.029 21.6238 237.846 23.2617C238.677 24.8998 239.091 26.8667 239.091 29.1627C239.091 29.5252 239.079 29.9147 239.051 30.3308C239.038 30.7472 239.011 31.1163 238.971 31.4385H225.149ZM229.086 22.4561C227.949 22.4561 227.031 22.8657 226.335 23.6846C225.637 24.5038 225.216 25.8129 225.068 27.6119H232.903C232.891 26.0546 232.588 24.8059 232 23.8659C231.41 22.9261 230.44 22.4561 229.086 22.4561ZM263.868 18.8914L256.756 40.28H249.282L242.09 18.8914H248.94L253.099 35.4061L257.439 18.8914H263.868ZM272.591 36.4735C272.591 35.6546 272.792 34.9094 273.194 34.238C273.596 33.5532 274.137 33.0094 274.82 32.6066C275.503 32.1905 276.254 31.9823 277.07 31.9823C277.901 31.9823 278.652 32.1905 279.32 32.6066C280.003 33.0094 280.547 33.5532 280.949 34.238C281.35 34.9094 281.551 35.6546 281.551 36.4735C281.551 37.2791 281.35 38.0243 280.949 38.7091C280.547 39.3938 280.003 39.9376 279.32 40.3404C278.652 40.7568 277.901 40.9647 277.07 40.9647C276.254 40.9647 275.503 40.7568 274.82 40.3404C274.137 39.9376 273.596 39.3938 273.194 38.7091C272.792 38.0243 272.591 37.2791 272.591 36.4735ZM307.692 18.1865C309.206 18.1865 310.325 18.6832 311.048 19.6768C311.784 20.657 312.152 22.2481 312.152 24.4499V40.28H306.708V25.175C306.708 24.4232 306.634 23.8928 306.486 23.5839C306.353 23.2752 306.072 23.1207 305.643 23.1207C305.308 23.1207 304.959 23.2214 304.598 23.4228C304.251 23.6108 303.862 23.9734 303.433 24.5104V40.28H298.973V25.175C298.973 24.4232 298.901 23.8928 298.753 23.5839C298.619 23.2752 298.338 23.1207 297.909 23.1207C297.575 23.1207 297.226 23.2214 296.864 23.4228C296.515 23.6108 296.128 23.9734 295.699 24.5104V40.28H290.173V18.8914H294.834L295.257 20.9658C295.927 20.0528 296.602 19.3613 297.285 18.8914C297.968 18.4214 298.78 18.1865 299.717 18.1865C300.521 18.1865 301.204 18.3946 301.766 18.8108C302.341 19.2136 302.75 19.8514 302.991 20.7241C303.634 19.9722 304.344 19.3613 305.12 18.8914C305.898 18.4214 306.755 18.1865 307.692 18.1865ZM333.976 34.1171C333.976 34.9227 334.082 35.5068 334.297 35.8693C334.524 36.2318 334.885 36.5072 335.382 36.6951L334.075 40.8842C332.817 40.7633 331.751 40.4882 330.882 40.0584C330.024 39.6154 329.347 38.9507 328.852 38.0646C328.036 39.0449 326.991 39.7765 325.718 40.2598C324.445 40.7298 323.146 40.9647 321.82 40.9647C319.623 40.9647 317.87 40.3404 316.557 39.0917C315.258 37.8297 314.609 36.2117 314.609 34.238C314.609 31.9153 315.512 30.1228 317.32 28.8606C319.141 27.5986 321.7 26.9674 324.995 26.9674H327.869V26.1618C327.869 23.9734 326.462 22.879 323.65 22.879C322.967 22.879 322.089 22.9797 321.017 23.1811C319.945 23.3692 318.875 23.6443 317.802 24.0069L316.337 19.7775C317.716 19.2539 319.149 18.8578 320.636 18.5893C322.135 18.3207 323.474 18.1865 324.654 18.1865C327.828 18.1865 330.172 18.8377 331.686 20.14C333.213 21.4289 333.976 23.2954 333.976 25.7389V34.1171ZM324.011 36.4131C324.694 36.4131 325.409 36.2117 326.16 35.8089C326.911 35.3927 327.479 34.8087 327.869 34.0567V30.5926H326.302C324.534 30.5926 323.233 30.868 322.404 31.4184C321.573 31.9556 321.158 32.7476 321.158 33.7949C321.158 34.6141 321.406 35.2585 321.901 35.7283C322.41 36.185 323.113 36.4131 324.011 36.4131Z" fill="#31D06A"/>
</svg>
