<svg width="190" height="239" viewBox="0 0 190 239" fill="none" xmlns="http://www.w3.org/2000/svg">
<g style="mix-blend-mode:multiply">
<path d="M189.209 153.287C189.209 153.287 187.63 153.747 187.532 151.25C186.48 151.119 186.117 150.725 186.084 149.938C186.052 149.15 185.986 146.817 182.662 145.469C182.005 145.009 182.564 144.714 181.74 144.287C180.917 143.86 176.641 141.692 175.853 139.952C175.591 137.882 185.13 122.739 185.13 107.628C185.13 92.517 176.578 86.6049 176.578 86.6049C176.578 86.6049 183.025 76.8807 178.814 64.9257C174.604 52.9683 159.998 54.6758 159.998 54.6758C159.998 54.6758 168.945 35.7552 149.341 26.2949C140.763 22.1558 131.959 25.2345 124.768 30.009C116.448 10.9226 97.4982 8.93472 95 0C92.4995 8.93472 73.5523 10.9226 65.2296 30.009C58.0391 25.2345 49.2345 22.1558 40.6568 26.2949C21.0524 35.7552 29.9996 54.6758 29.9996 54.6758C29.9996 54.6758 15.394 52.9683 11.1835 64.9257C6.97301 76.883 13.4197 86.6049 13.4197 86.6049C13.4197 86.6049 4.86778 92.517 4.86778 107.628C4.86778 122.739 14.4068 137.882 14.1449 139.952C13.3542 141.692 9.07825 143.86 8.25721 144.287C7.43383 144.714 7.99522 145.009 7.33558 145.469C4.01398 146.817 3.94849 149.148 3.9134 149.938C3.87831 150.727 3.51808 151.119 2.46547 151.25C2.36722 153.747 0.788293 153.287 0.788293 153.287L0.18007 219.421C0.0808889 230.205 8.79562 239 19.5802 239H170.419C181.204 239 189.919 230.204 189.819 219.42L189.209 153.287Z" fill="#CC9B80" fill-opacity="0.19"/>
</g>
</svg>
