<svg fill="none" height="358" viewBox="0 0 117 358" width="117" xmlns="http://www.w3.org/2000/svg"><path clip-rule="evenodd" d="m7.1881 12.6087c-.04096.5012-.09902 1.1973-.12903 1.547-.06975.8148.17332 2.8156.47216 3.8846.64467 2.3063 2.16853 3.9953 4.49797 4.9851.679.2886 1.6034.5773 2.054.6416.6597.0939.8436.1777.9431.4292.1815.4587.6327.7945 1.0147.7552.3106-.032.3631.0295.7359.8619.2374.5302.3428.971.2581 1.079-.3889.4955-.6171 2.2714-.4814 3.7452.1492 1.618.6034 2.9809 1.5149 4.5451.2594.4452.4639.8799.4542.966-.0096.0861.1233.5121.2953.9465.1719.4344.5073 1.3439.7452 2.021.496 1.4116 1.1532 2.3502 2.1091 3.0121.9655.6686 1.9756 1.8425 2.3785 2.7639.3242.7415.4149 1.3526.7136 4.8106.1407 1.6276.3441 2.0659 1.3671 2.9451 1.9569 1.6815 2.6808 3.0289 2.6643 4.9586-.0053.6154.0586 1.7677.142 2.5608.1203 1.1433.0795 1.7497-.1971 2.9281l-.3487 1.4862 1.017.753c.5596.4141 1.6176 1.0774 2.3514 1.474 1.0613.5736 1.3491.6743 1.407.4923.0599-.1882.0823-.1772.1265.0621.0608.3297.3212.4983 2.412 1.563 1.5863.8076 3.7537 2.3913 4.8058 3.5116.9679 1.0304 1.7076 2.7125 2.7565 6.2678.2846.9643.8385 2.7182 1.2309 3.8973l.7136 2.1441-.8262.9908c-2.2552 2.7047-4.8754 4.0182-7.9922 4.0063-.6113-.0023-2.3813-.1972-2.8832-.3173-6.2895-1.5055-14.2642-2.1768-20.7443-1.7463-2.1507.143-5.01336.7595-5.84934 1.2599-.31809.1904-.37523.3249-.41565.9798-.12297 1.9868-1.0632 4.76-2.71341 8.0022-.96717 1.9004-1.21984 2.5019-.85562 2.0387.19936-.2538 2.00476-.9818 3.21318-1.2958 1.80527-.4692 5.13574-.7087 7.76164-.5583 2.2884.1311 5.562.5045 5.7366.6543.0522.0447.2315.0764.3983.0703.2801-.0102 1.5809.2805 3.9023.8719 1.1136.2838 3.5784 1.1338 3.774 1.3018.5892.505 5.657 2.845 8.0532 3.718 2.5895.944 6.1135 1.867 7.7284 2.025.2447.024.9515.093 1.5708.154 3.4355.34 6.7945.086 10.0203-.756 1.8645-.487 3.8365-1.318 5.8703-2.474l1.0942-.622 1.375.234c2.6173.447 5.0287.408 7.5047-.121 1.22-.261 3.7743-1.202 5.085-1.873.6712-.344 1.4873-.757 1.8133-.918s.6277-.3376.6703-.3919c.0428-.0544.726-.5387 1.5185-1.0764.8228-.5583 1.534-1.1396 1.6582-1.3551.1195-.2075.2355-.3218.2576-.2541.0466.1424.8177-.4802 2.2913-1.8496.8765-.8146 2.256-2.5273 8.9186-11.0733l7.8815-10.1098.974-1.9925c2.42-4.9512 3.533-9.1167 3.581-13.3971.03-2.7563-.452-5.4994-1.335-7.5965-.38-.9023-.276-.9642.653-.3877.839.5213 1.852.7195 3.208.6275 1.57-.1065 2.834-.4974 4.233-1.3088 1.468-.8516 2.25-1.5654 3.295-3.0052.778-1.0734.9-1.3249 1.131-2.3449.679-2.9909-.661-6.6818-2.978-8.2074-1.193-.7851-1.866-.9575-3.394-.8687-1.671.0972-3.584 1.4682-3.834 2.7484-.402 2.0654 1.993 3.6509 3.619 2.3947.687-.5309 1.093-.4423 1.627.3548.427.6372.649 2.0995.402 2.6457-.084.1853-.455.6626-.826 1.0606-1.086 1.1687-2.973 1.9415-4.125 1.6901-.364-.0795-.583-.2529-1.209-.9552-1.1-1.2345-1.934-3.2102-2.117-5.0147-.157-1.5498-.1-2.2911.443-5.7924.692-4.4683.788-5.551.728-8.1737-.138-6.0293-1.267-10.735-3.633-15.1522-2.3552-4.39526-5.6348-7.63809-9.6619-9.55348-1.8481-.87898-4.8603-1.756295-6.1048-1.778047-.2708-.004589-.8322-.036777-1.2478-.0713379-1.6647-.138631-4.5174.2470559-6.7891.9174849-2.2942.67712-5.5248 2.55279-7.9453 4.61282-2.9849 2.54052-4.4539 4.45246-5.6439 7.34636-.9592 2.3324-1.2961 4.1694-1.2161 6.6298.0676 2.0799.2633 3.065 1.2342 6.2114.1581.5126.1515.5541-.0473.2932-.5299-.696-2.1138-2.4826-2.5316-2.8557-.429-.3829-.4777-.3864-1.033-.0753-.3204.1796-.6888.3672-.8185.4169-.1297.0496-.4283.1895-.6637.3107-.2353.1214-1.1548.3014-2.0434.4001-.8885.0987-2.1555.2616-2.8155.3619-1.6461.25-2.1801.0649-4.2121-1.4599-1.9213-1.4416-1.6838-1.3947-5.1097-1.0087-3.1614.3563-3.5979.2314-6.0794-1.74l-1.8503-1.4701-1.4682-.2196c-1.6827-.2516-4.6043-.8927-5.4076-1.1868-1.768-.6471-4.7398-.2464-6.3924.862-.3832.2572-.5851.265-1.2651.0498-.7775-.2463-.8141-.2738-.9455-.7124-.116-.3871-.2093-.4828-.6174-.6338-.4413-.1632-.5126-.2606-.8701-1.1886-.3763-.9766-1.9204-3.3228-2.5303-3.8447-.6105-.5225-2.8838-1.4757-3.7345-1.566-1.3336-.1414-2.8137-.0215-4.18265.3388-1.08461.2854-2.12661.6577-2.19578.7843-.01198.0219-.05521.4499-.09617.951zm64.8209-2.72436c.4449-.36923.9348-.78282 1.0886-.91913.6148-.5449 1.0296-.84119 2.0469-1.46242 5.0123-3.06028 9.7699-3.42438 14.8605-1.13723 1.203.54032 1.466.72243 3.2038 2.21744 1.6977 1.4603 1.9865 1.7631 2.7936 2.9295 2.1794 3.1501 3.5095 6.5711 4.1126 10.5776.583 3.8695.499 7.0043-.3254 12.201-.2697 1.6994-.5034 3.4295-.5195 3.8448-.0635 1.6424.0803 3.662.331 4.6495.1452.5712.3047 1.2002.3548 1.3978.0811.319-.1029.1937-1.6408-1.1186-2.8255-2.4111-6.5095-4.5088-9.8002-5.5806-2.5971-.846-6.4068-1.5977-10.2946-2.0316-.9634-.1076-1.7806-.2201-1.8157-.2502-.035-.0301.3463-.1638.8475-.2972 1.8744-.4988 3.2434-1.468 4.7024-3.3293 2.0167-2.5726 2.4492-5.4037 1.2427-8.1355-1.1178-2.5315-3.2268-3.9255-5.8835-3.889-1.2863.0177-2.0643.3423-2.6016 1.0856-.3505.4849-.4721.8129-.4993 1.3472-.0426.8348.1187 1.2128.792 1.8562.5922.5659.9324.6572 2.1619.58 1.1271-.0705 1.6677.2946 1.9578 1.3228.2973 1.0541.0557 1.828-.9298 2.9783-1.3076 1.526-2.6433 1.9516-4.3453 1.3847-1.1382-.3791-2.8904-1.8342-3.8815-3.2234-.7808-1.0945-2.0226-3.8411-2.178-4.8173-.3059-1.9227-.3642-2.5458-.3214-3.4391.0257-.5364.07-1.005.0983-1.041.0283-.0361.0897-.3848.1362-.7749.0719-.6009.7764-2.4285 1.4097-3.6567.3078-.5968 2.0617-2.5765 2.8963-3.26926z" fill="#e2def0" fill-rule="evenodd"/><path d="m15.1991 93.3818c-7.85949.3155-12.5752 1.1829-12.5752 3.2332v260.469" stroke="#e2def0" stroke-width="5"/></svg>