<svg fill="none" height="55" viewBox="0 0 44 55" width="44" xmlns="http://www.w3.org/2000/svg"><g fill="#e2def0"><path clip-rule="evenodd" d="m.00000043.20076c.00208816.188396.45666257 4.4049.78337757 7.26762.080796.70669.229372 2.18832.330412 3.29252.10103 1.1042.25138 2.622.3341 3.3728.18135 1.6471 1.00954 9.7712 1.44902 14.214.1746 1.7667.38759 3.7543.4732 4.4168.08562.6625.33748 3.2283.55979 5.7017s.47674 4.9307.56541 5.4607c.08882.5301.34422 2.9874.56781 5.4608.22344 2.4734.43804 4.5878.47675 4.6986.05606.1602 3.38923.1931 16.25333.1607l16.1829-.041.1923-1.5258c.1057-.8392.31-2.899.4537-4.5774.144-1.6784.3653-3.8827.4919-4.8986.1267-1.0159.3766-3.3648.5553-5.2198.2978-3.0911 1.0418-10.3355 1.4433-14.0535.0906-.8391.2738-2.7544.4071-4.2561.1331-1.5017.3509-3.5977.4839-4.6577.133-1.0601.4241-3.7704.6467-6.02292.2227-2.25256.5063-4.999.6305-6.1032.124-1.10419.2303-2.206296.2363-2.449299l.0107-.441681h-21.7649c-17.30598 0-21.76450584.0411132-21.76289957.20076zm41.98689957 1.22048c.0463.07501-.0168 1.06886-.1407 2.20839-.1236 1.13969-.3476 3.44526-.4977 5.12364-.1501 1.67833-.3226 3.10733-.3833 3.17543-.0107.0119-.3531.0231-.9652.0336-.3938.0067-.8993.013-1.5.019-1.7962.018-4.4433.0328-7.5.044-1.119.0041-2.2929.0077-3.5.0108-.658.0016-1.3258.0032-2 .0046-.497.001-.9975.0019-1.5.0027-2.5069.0042-5.0651.0062-7.5.0059-.7838-.0001-1.5548-.0005-2.3072-.0011-1.111-.0009-2.1815-.0023-3.1928-.0043-.8826-.0018-1.72008-.004-2.5-.0066-2.23955-.0076-4.00446-.0189-5-.0342-.56889-.0087-.88655-.0188-.898-.0302-.0182-.0183-.07899-.4763-.16389-1.212-.0979-.84836-.22785-2.06605-.36152-3.40494-.24978-2.4999-.49602-4.82072-.5471-5.15736s-.05092-.67986.00032-.7629c.11838-.19129 40.33889-.20558 40.45709-.01446z" fill-rule="evenodd"/><path d="m38.5 11.9813c-1.7962.018-4.4433.0328-7.5.044 3.2-2.77977 6.3333-1.1876 7.5-.044z"/><path d="m40.9652 11.9287c-.1551-1.5607-1.7652-4.53131-6.9652-3.9287-6.5.75327-7.5 4.0387-8.5 4.0407.6742-.0014 1.342-.003 2-.0046 3.3333-1.8706 10.5-4.50404 12.5-.0738.6121-.0105.9545-.0217.9652-.0336z"/><path d="m25.5 12.0407c-1-.9339-3.6-2.64942-6-2.0407-2.4.6087-4.5381 1.6191-5.3072 2.0482.7524.0006 1.5234.001 2.3072.0011 2-.9875 6.3-2.37113 7.5-.0059z"/><path d="m14.1928 12.0482c-.3229-.0002-3.1928-5.0482-7.6928-5.0482-3.6 0-4.20793 2.50726-4.06189 3.7609.0849.7357.14569 1.1937.16389 1.212.466-1.1577 1.798-3.4729 3.398-3.4729s4 2.3626 5 3.5439c1.0113.002 2.0818.0034 3.1928.0043z"/><path d="m8.5 12.0373c-2.23955-.0076-4.00446-.0189-5-.0342 1.6-2.79747 4-1.1428 5 .0342z"/></g></svg>