<svg fill="none" height="156" viewBox="0 0 192 156" width="192" xmlns="http://www.w3.org/2000/svg"><g fill="#e2def0"><circle cx="4.4585" cy="4.58887" r="4.01465"/><circle cx="22.8112" cy="4.58887" r="4.01465"/><circle cx="41.1639" cy="4.58887" r="4.01465"/><circle cx="59.5165" cy="4.58887" r="4.01465"/><circle cx="77.8692" cy="4.58887" r="4.01465"/><circle cx="96.2219" cy="4.58887" r="4.01465"/><circle cx="114.575" cy="4.58887" r="4.01465"/><circle cx="132.927" cy="4.58887" r="4.01465"/><circle cx="151.28" cy="4.58887" r="4.01465"/><circle cx="169.633" cy="4.58887" r="4.01465"/><circle cx="187.985" cy="4.58887" r="4.01465"/><circle cx="4.4585" cy="22.9417" r="4.01465"/><circle cx="22.8112" cy="22.9417" r="4.01465"/><circle cx="41.1639" cy="22.9417" r="4.01465"/><circle cx="59.5165" cy="22.9417" r="4.01465"/><circle cx="77.8692" cy="22.9417" r="4.01465"/><circle cx="96.2219" cy="22.9417" r="4.01465"/><circle cx="114.575" cy="22.9417" r="4.01465"/><circle cx="132.927" cy="22.9417" r="4.01465"/><circle cx="151.28" cy="22.9417" r="4.01465"/><circle cx="169.633" cy="22.9417" r="4.01465"/><circle cx="187.985" cy="22.9417" r="4.01465"/><circle cx="4.4585" cy="41.2942" r="4.01465"/><circle cx="22.8112" cy="41.2942" r="4.01465"/><circle cx="41.1639" cy="41.2942" r="4.01465"/><circle cx="59.5165" cy="41.2942" r="4.01465"/><circle cx="77.8692" cy="41.2942" r="4.01465"/><circle cx="96.2219" cy="41.2942" r="4.01465"/><circle cx="114.575" cy="41.2942" r="4.01465"/><circle cx="132.927" cy="41.2942" r="4.01465"/><circle cx="151.28" cy="41.2942" r="4.01465"/><circle cx="169.633" cy="41.2942" r="4.01465"/><circle cx="187.985" cy="41.2942" r="4.01465"/><circle cx="4.4585" cy="59.647" r="4.01465"/><circle cx="22.8112" cy="59.647" r="4.01465"/><circle cx="41.1639" cy="59.647" r="4.01465"/><circle cx="59.5165" cy="59.647" r="4.01465"/><circle cx="77.8692" cy="59.647" r="4.01465"/><circle cx="96.2219" cy="59.647" r="4.01465"/><circle cx="114.575" cy="59.647" r="4.01465"/><circle cx="132.927" cy="59.647" r="4.01465"/><circle cx="151.28" cy="59.647" r="4.01465"/><circle cx="169.633" cy="59.647" r="4.01465"/><circle cx="187.985" cy="59.647" r="4.01465"/><circle cx="4.4585" cy="77.9995" r="4.01465"/><circle cx="22.8112" cy="77.9995" r="4.01465"/><circle cx="41.1639" cy="77.9995" r="4.01465"/><circle cx="59.5165" cy="77.9995" r="4.01465"/><circle cx="77.8692" cy="77.9995" r="4.01465"/><circle cx="96.2219" cy="77.9995" r="4.01465"/><circle cx="114.575" cy="77.9995" r="4.01465"/><circle cx="132.927" cy="77.9995" r="4.01465"/><circle cx="151.28" cy="77.9995" r="4.01465"/><circle cx="169.633" cy="77.9995" r="4.01465"/><circle cx="187.985" cy="77.9995" r="4.01465"/><circle cx="4.4585" cy="96.3523" r="4.01465"/><circle cx="22.8112" cy="96.3523" r="4.01465"/><circle cx="41.1639" cy="96.3523" r="4.01465"/><circle cx="59.5165" cy="96.3523" r="4.01465"/><circle cx="77.8692" cy="96.3523" r="4.01465"/><circle cx="96.2219" cy="96.3523" r="4.01465"/><circle cx="114.575" cy="96.3523" r="4.01465"/><circle cx="132.927" cy="96.3523" r="4.01465"/><circle cx="151.28" cy="96.3523" r="4.01465"/><circle cx="169.633" cy="96.3523" r="4.01465"/><circle cx="187.985" cy="96.3523" r="4.01465"/><circle cx="4.4585" cy="114.705" r="4.01465"/><circle cx="22.8112" cy="114.705" r="4.01465"/><circle cx="41.1639" cy="114.705" r="4.01465"/><circle cx="59.5165" cy="114.705" r="4.01465"/><circle cx="77.8692" cy="114.705" r="4.01465"/><circle cx="96.2219" cy="114.705" r="4.01465"/><circle cx="114.575" cy="114.705" r="4.01465"/><circle cx="132.927" cy="114.705" r="4.01465"/><circle cx="151.28" cy="114.705" r="4.01465"/><circle cx="169.633" cy="114.705" r="4.01465"/><circle cx="187.985" cy="114.705" r="4.01465"/><circle cx="4.4585" cy="133.058" r="4.01465"/><circle cx="22.8112" cy="133.058" r="4.01465"/><circle cx="41.1639" cy="133.058" r="4.01465"/><circle cx="59.5165" cy="133.058" r="4.01465"/><circle cx="77.8692" cy="133.058" r="4.01465"/><circle cx="96.2219" cy="133.058" r="4.01465"/><circle cx="114.575" cy="133.058" r="4.01465"/><circle cx="132.927" cy="133.058" r="4.01465"/><circle cx="151.28" cy="133.058" r="4.01465"/><circle cx="169.633" cy="133.058" r="4.01465"/><circle cx="187.985" cy="133.058" r="4.01465"/><circle cx="4.4585" cy="151.41" r="4.01465"/><circle cx="22.8112" cy="151.41" r="4.01465"/><circle cx="41.1639" cy="151.41" r="4.01465"/><circle cx="59.5165" cy="151.41" r="4.01465"/><circle cx="77.8692" cy="151.41" r="4.01465"/><circle cx="96.2219" cy="151.41" r="4.01465"/><circle cx="114.575" cy="151.41" r="4.01465"/><circle cx="132.927" cy="151.41" r="4.01465"/><circle cx="151.28" cy="151.41" r="4.01465"/><circle cx="169.633" cy="151.41" r="4.01465"/><circle cx="187.985" cy="151.41" r="4.01465"/></g></svg>