<svg fill="none" height="374" viewBox="0 0 610 374" width="610" xmlns="http://www.w3.org/2000/svg"><ellipse cx="305" cy="348.5" fill="#f9f6ff" rx="305" ry="25.5"/><g fill="#301b8b" opacity=".54"><g opacity=".54"><path d="m83.6997 38.0524c-1.7817.0563-3.5526-.3057-5.1688-1.0567-1.6171-.7511-3.0348-1.8707-4.1411-3.2691-1.4381-1.9791-2.4339-4.2447-2.9178-6.6428-.4848-2.3982-.4462-4.8727.1112-7.2543.8421-3.6583 2.8356-6.4067 5.6034-7.7421 12.3101-5.93248 18.1844 2.7774 20.1295 6.7743 3.4839 7.1614-2.8064 15.2326-5.8066 17.1004-2.3797 1.3568-5.07 2.0768-7.8098 2.0903zm-5.1969-23.2263c-1.9355.9677-3.329 2.9516-3.9677 5.6905-.4501 1.9404-.483 3.9542-.096 5.9072.3872 1.954 1.1847 3.8033 2.3412 5.4253.8206 1.0413 1.8764 1.8726 3.0812 2.4261 1.2048.5528 2.5231.813 3.8479.7578h.0872c2.1483-.0126 4.2589-.5679 6.1356-1.616 1.8174-1.3928 3.2604-3.2151 4.2001-5.3036.9678-2.0516 1.829-5.0807.4645-7.8969-2.3615-4.8388-7.0648-9.7356-16.094-5.3904z" opacity=".54"/><path d="m88.3354 34.7041s1.3356 5.0033 2.7872 5.5647c1.6065.6289 6.7744-3.2807 6.1163-4.6744-.6581-1.3935-4.0259-4.7226-4.0259-4.7226z" opacity=".54"/><path d="m90.8709 34.8396c-.2555.0019-.508-.061-.7326-.1829-.2254-.1219-.4162-.2991-.5545-.5138l-6.0775-9.5615c-.1221-.1675-.2081-.3583-.2536-.5605-.0446-.2022-.0483-.4113-.0098-.6144.0378-.2032.1182-.3968.2333-.5682.1161-.1722.2662-.3174.4404-.4297.1741-.1112.3697-.1857.5739-.2196.2041-.0329.4133-.0242.6144.0252.2004.0503.3891.1413.5537.267.1644.1259.301.2835.4026.4645l6.0871 9.5616c.2148.3407.2865.752.1994 1.1459-.0871.3928-.3251.7354-.6639.9542-.2438.1509-.5255.2313-.8129.2322z" opacity=".54"/><path d="m87.4063 20.6036c.5855.5864.9832 1.3325 1.1439 2.1455.1616.8129.0784 1.6548-.2392 2.4203-.3173.7646-.8545 1.4187-1.5434 1.8785-.6892.4606-1.4991.7065-2.3276.7065-.8284 0-1.6383-.2459-2.3274-.7065-.689-.4598-1.2261-1.1139-1.5437-1.8785-.3174-.7655-.4005-1.6074-.2389-2.4203.1607-.813.5584-1.5591 1.1438-2.1455.3891-.391.8508-.7018 1.3597-.9136.5091-.212 1.0549-.3213 1.6065-.3213.5518 0 1.0976.1093 1.6066.3213.5089.2118.9706.5226 1.3597.9136z" opacity=".54"/></g><path d="m221.761 64.5984c-.869-.004-1.735-.1172-2.574-.3388-2.041-.6105-3.885-1.7448-5.35-3.2903-1.466-1.5456-2.501-3.4472-3.003-5.5163-.474-1.9676-.517-4.0152-.126-6.0012.391-1.9857 1.208-3.8642 2.391-5.5055 1.165-1.6423 2.681-3.0059 4.437-3.9921 1.755-.9852 3.706-1.5688 5.715-1.708 2.004-.121 3.989.4605 5.608 1.6441 1.622 1.1835 2.781 2.8946 3.276 4.8399.517 1.6383.416 3.4085-.282 4.9762-.7 1.5687-1.948 2.8278-3.511 3.5401-.551.2807-1.163.4171-1.782.3968-.075.8265-.376 1.617-.871 2.284-.495.6667-1.162 1.1844-1.932 1.4969-.769.3127-1.61.4075-2.429.2749-.82-.1324-1.588-.4876-2.218-1.0266-1.936-1.8293-1.936-5.2648-.969-7.7422.375-1.1555 1.091-2.1697 2.057-2.9082.965-.7384 2.129-1.1653 3.345-1.2241.442 0 .867.1751 1.183.4867.314.3115.495.7344.5 1.1777.014.1219.014.2459 0 .3678.305.18.544.45.687.7742.203.4549.376.9.542 1.3259.164.4258.348.8807.502 1.1904.817-.3989 1.462-1.0782 1.818-1.9134.355-.8351.397-1.7711.118-2.6352-.284-1.1845-.974-2.2316-1.949-2.9623-.976-.7298-2.177-1.0956-3.392-1.0346-1.52.092-3.001.5255-4.331 1.2678-1.33.7422-2.478 1.774-3.354 3.0194-.888 1.2466-1.502 2.6672-1.803 4.1681-.301 1.5021-.28 3.0495.061 4.5418.344 1.4913 1.072 2.8655 2.116 3.9853 1.042 1.1197 2.363 1.9451 3.827 2.3923 2.7.7162 5.439-.2709 7.926-2.8356.154-.1597.337-.2874.54-.3755.203-.089.421-.1364.643-.1403.222-.0038.442.0359.649.1162.205.0813.394.2023.553.3562.16.1539.288.3377.375.5408.09.2023.137.4211.141.6427s-.036.4423-.117.6483c-.081.2062-.201.394-.355.5537-1.086 1.2445-2.412 2.2539-3.904 2.9661-1.488.7123-3.108 1.113-4.758 1.1759zm.967-16.1519c-.655.4131-1.151 1.0373-1.402 1.7709-.63 1.6064-.445 3.4453.155 4.0163.244.2321.681.2127 1.305-.0582.766-.3386.649-3.2323 0-5.3614-.037-.1201-.067-.2429-.086-.3676z" opacity=".54"/><g opacity=".54"><path d="m299.511 116.635c-.212-.048-.436-.116-.658-.184-3.667-1.18-6.775-5.429-5.661-11.255.881-4.587 3.339-8.2452 6.551-9.7742 1.057-.5236 2.227-.784 3.405-.7588 1.18.0251 2.337.3349 3.37.9039.35.2265.602.5758.705.9794.104.4026.051.8302-.147 1.1971-.197.3657-.526.6445-.921.779-.394.1346-.823.1161-1.205-.0523-.57-.3232-1.211-.5002-1.868-.5138-.654-.0135-1.303.1364-1.887.4365-2.235 1.0645-4.045 3.8712-4.731 7.4132-.757 3.929 1.151 6.774 3.435 7.481 1.934.619 3.725-.31 4.741-2.517.088-.204.215-.388.374-.542.16-.155.349-.275.555-.355.207-.08.429-.117.651-.109.222.007.439.059.64.153.201.093.382.226.531.391.148.164.263.357.336.567.074.21.102.432.087.653-.013.222-.073.438-.173.636-1.355 2.923-4.316 5.332-8.13 4.471z" opacity=".54"/><path d="m316.041 94.483-.911.2516-.366.0969c-.145-.426-.281-.8517-.416-1.2775-.117-.2101-.301-.3736-.525-.4626-.222-.089-.47-.0969-.698-.0243-.228.0736-.425.2235-.555.426-.13.2011-.186.4421-.158.6803.135.4063.252.8129.367 1.2193l-1.654.4645c-1.471.3967-1.095 2.9033.465 2.6711l1.81-.2613c.114.3774.24.7646.395 1.1516.069.1501.169.2825.297.3881.126.1065.275.1819.435.2223.159.042.325.046.487.014s.314-.0999.446-.1985c.128-.0591.233-.1569.301-.2807.22-.5226.241-1.1081.058-1.6452l.841-.1161c2.391-.3484 1.77-3.9292-.619-3.3195z" opacity=".54"/><path d="m326.008 92.5861-.908.2515-.369.0969c-.135-.426-.28-.8517-.416-1.2774-.116-.2102-.301-.3737-.525-.4627-.222-.089-.468-.0969-.698-.0242-.227.0735-.425.2235-.553.4259-.131.2013-.188.4421-.16.6803.136.4064.252.8129.369 1.2193l-1.656.4645c-1.461.3968-1.093 2.9033.475 2.6711l1.809-.2613c.117.3872.243.7646.397 1.1516.068.1501.168.2826.294.3881.124.1056.273.1819.431.2226.16.0415.325.0455.485.0135.162-.032.314-.0997.446-.1983.128-.0609.235-.1588.309-.2807.214-.5245.231-1.109.048-1.6452l.841-.1161c2.392-.3484 1.773-3.9679-.619-3.3194z" opacity=".54"/></g><g opacity=".54"><path d="m260.906 250.11c-.254-.002-.502-.07-.724-.196-.22-.124-.405-.304-.538-.521-.132-.218-.205-.464-.215-.718-.009-.254.047-.506.162-.734l9.678-18.735c.18-.349.493-.611.867-.731.374-.119.781-.083 1.131.097.35.181.611.493.732.868.118.374.082.78-.098 1.13l-9.678 18.737c-.126.239-.316.44-.547.581-.232.143-.497.218-.77.222z" opacity=".54"/><path d="m255.74 246.229c-.271 0-.536-.075-.769-.215-.232-.139-.422-.34-.548-.579l-5.488-10.5c-.171-.333-.209-.717-.107-1.078.104-.359.339-.666.66-.858l10.346-6.156c.335-.199.737-.257 1.117-.161.379.096.704.34.905.675.2.337.258.739.162 1.118-.096.38-.34.705-.675.904l-9.127 5.43 4.839 9.253c.181.348.217.754.098 1.13-.117.376-.378.689-.726.871-.213.109-.448.166-.687.166z" opacity=".54"/><path d="m269.143 251.397c-.343-.002-.672-.121-.935-.337-.266-.216-.446-.517-.514-.852s-.015-.683.145-.986c.16-.301.418-.538.734-.672l10.644-4.46-3.871-10.956c-.083-.188-.128-.389-.128-.594-.002-.205.039-.408.122-.598.081-.187.199-.356.35-.497.15-.139.329-.246.523-.314.194-.066.399-.092.604-.075.205.015.402.073.583.171s.339.231.465.393c.128.162.218.348.269.547l4.364 12.28c.127.357.11.749-.043 1.093-.152.346-.431.619-.779.766l-11.952 5.004c-.186.068-.384.096-.581.087z" opacity=".54"/></g><g opacity=".54"><path d="m38.2147 197.976c-.9463-1.699-2.1077-3.27-3.4549-4.675l-3.1549 2.816c-1.7323-1.091-3.7493-1.648-5.797-1.595-.0551-1.391-.243-2.772-.5612-4.124-2.4502-.03-4.8273.835-6.6872 2.429.4291 1.034 1.0169 1.994 1.7419 2.846.1065.135.2322.262.3387.397l-.2322.145c-2.9033 1.936-4.3937 3.949-4.9937 5.932-.8904-.155-1.7807-.32-2.6807-.456-.2057-.058-.4234-.058-.6291 0-.1913.091-.3454.245-.4355.437-.2419.689-.2419 1.439 0 2.128.2226.969.4355 1.994.6581 2.991.1162.523.3097 1.142.8323 1.296.3981.059.8033-.039 1.1323-.271.4258-.222.871-.425 1.3065-.628.1948.627.4275 1.24.6968 1.838.8256 1.836 2.1248 3.42 3.7646 4.587l-2.2549 1.877 1.6162.834c1.7 1.068 3.6383 1.701 5.6419 1.838.3547-.984.6235-1.998.8034-3.029 1.1357-.128 2.2435-.438 3.2807-.92 1.4911-.681 2.7667-1.759 3.6872-3.116.7025.411 1.352.904 1.9356 1.472.0299.039.0696.073.1151.096.0455.02.0958.032.1462.03.0871 0 .1354-.098.1838-.175l1.287-2.139c.666-1.078 1.1527-2.258 1.4421-3.494-1.0645-.28-2.0516-.638-3.1163-.967.3136-2.013.2585-4.066-.1644-6.058 1.2387-.502 2.4117-1.151 3.4936-1.936.0561-.032.1035-.079.1355-.135.0068-.049.0028-.096-.0098-.143-.0135-.047-.0367-.091-.0677-.128zm-11.4002 11.352c-.5133.246-1.072.386-1.6411.404-.5691.021-1.1366-.075-1.6663-.284-.5298-.209-1.0107-.527-1.4124-.929-.4018-.405-.7158-.886-.9224-1.417-.6387-1.462-1.2676-3.823 1.8195-5.808 2.5355-1.644 5.3614-.28 6.0001 1.084.6388 1.366.8226 5.586-2.1774 6.95z" opacity=".54"/><path d="m56.041 205.563c-.4848-.875-1.0838-1.682-1.7807-2.4l-1.6162 1.443c-.8893-.55-1.9171-.828-2.9613-.804-.0291-.715-.1258-1.424-.2903-2.12-1.2591-.015-2.4803.429-3.4357 1.249.2228.533.5227 1.027.8905 1.471l.1838.204c-.0456.018-.0871.045-.1257.077-1.1992.668-2.1118 1.751-2.5647 3.048l-1.3839-.241c-.1055-.025-.2139-.025-.3192 0-.1007.041-.1801.12-.2228.222-.1257.353-.1257.739 0 1.093l.3388 1.539c.058.271.1645.59.4258.668.2043.032.4122-.015.5808-.136l.6772-.329c.1028.329.2217.653.3583.967.4229.946 1.0915 1.763 1.9355 2.363l-1.1614.967.8323.425c.8749.555 1.8716.886 2.9033.969.1829-.506.3193-1.029.4064-1.558.5864-.067 1.1574-.227 1.6936-.476.783-.342 1.4535-.899 1.9355-1.605.3524.211.6775.463.9678.755 0 0 .0871.077.1354.068.0224-.006.0416-.017.0591-.032.0164-.015.0301-.034.0378-.055l.6677-1.104c.3358-.555.5846-1.159.7354-1.791-.5418-.145-1.0546-.339-1.6064-.512.1627-1.039.1366-2.098-.0774-3.127.6369-.248 1.2408-.574 1.8001-.967.0271-.019.0474-.047.058-.077.0079-.019.0126-.038.0126-.056 0-.019-.0029-.04-.0106-.057-.0067-.019-.0175-.034-.031-.049-.0145-.013-.0299-.024-.0484-.032zm-5.8066 5.806c-.2652.128-.5534.199-.8477.209-.2933.011-.5866-.04-.8594-.149-.273-.109-.5207-.274-.7268-.485-.2052-.211-.3659-.461-.4693-.736-.1453-.257-.2352-.543-.2642-.837-.0301-.295.0019-.593.0928-.873.091-.282.2391-.544.4346-.764.1964-.222.4364-.4.7045-.526.4848-.333 1.081-.46 1.6597-.356.5778.105 1.0916.436 1.4274.918.2613.736.3774 2.931-1.1805 3.629z" opacity=".54"/></g><g opacity=".54"><path d="m332.687 156.014c-.95-1.699-2.111-3.269-3.456-4.675l-3.155 2.816c-1.723-1.064-3.721-1.606-5.747-1.558-.057-1.388-.245-2.769-.563-4.122-2.449-.026-4.824.838-6.686 2.429.427 1.033 1.014 1.994 1.742 2.845.105.135.222.271.339.397l-.234.145c-2.903 1.935-4.402 3.958-4.993 5.932-.899-.155-1.791-.319-2.681-.455-.205-.053-.423-.053-.628 0-.192.091-.346.244-.437.436-.24.689-.24 1.44 0 2.129.224.968.437 1.994.659 2.99.117.533.31 1.152.831 1.297.399.058.804-.04 1.133-.271.427-.222.871-.426 1.308-.629.193.627.427 1.24.696 1.838.824 1.84 2.124 3.426 3.764 4.598l-2.254 1.868 1.616.841c1.771.92 3.639 1.869 5.643 1.829.355-.98.62-1.99.792-3.019 1.142-.149 2.252-.475 3.29-.967 1.492-.681 2.768-1.76 3.688-3.116.701.412 1.35.907 1.935 1.469.031.042.07.076.115.096.045.023.096.032.147.03.077 0 .135-.096.184-.163l1.287-2.149c.666-1.08 1.152-2.259 1.441-3.493-1.065-.281-2.05-.64-3.115-.968.314-2.013.258-4.066-.166-6.059 1.238-.505 2.41-1.154 3.494-1.935.058-.033.102-.084.126-.145.002-.05-.006-.099-.026-.144-.021-.046-.051-.086-.089-.117zm-11.352 11.351c-.517.246-1.078.381-1.65.398-.572.019-1.14-.082-1.67-.297-.531-.212-1.011-.534-1.411-.944-.399-.409-.71-.896-.911-1.43-.64-1.453-1.268-3.823 1.819-5.807 2.525-1.636 5.362-.271 6 1.093.64 1.365.822 5.623-2.177 6.987z" opacity=".54"/><path d="m350.562 163.601c-.486-.875-1.086-1.682-1.782-2.4l-1.616 1.442c-.89-.545-1.919-.82-2.961-.794-.03-.717-.126-1.43-.29-2.129-1.26-.007-2.479.44-3.437 1.258.22.53.521 1.023.892 1.461l.182.204-.124.077c-1.198.674-2.111 1.756-2.576 3.049-.453-.077-.908-.165-1.373-.233-.105-.028-.214-.028-.32 0-.099.047-.18.13-.222.233-.126.352-.126.74 0 1.093l.32 1.53c.057.271.164.589.425.668.205.028.412-.025.58-.147.224-.115.455-.222.679-.318.1.329.218.651.357.967.424.946 1.092 1.761 1.936 2.361l-1.162.969.833.425c.873.559 1.87.89 2.903.967.184-.504.32-1.025.406-1.558.587-.065 1.157-.227 1.694-.474.782-.342 1.454-.899 1.935-1.606.35.216.676.474.967.765 0 0 .089.068.136.057.049-.01.068-.047.098-.087.222-.367.446-.735.658-1.102.345-.552.597-1.157.745-1.791-.542-.145-1.055-.33-1.606-.514.163-1.033.135-2.09-.078-3.115.634-.249 1.235-.573 1.79-.968.03-.014.054-.039.067-.068.023-.037.029-.081.017-.123-.011-.041-.037-.077-.073-.099zm-5.808 5.807c-.542.197-1.138.184-1.67-.038-.533-.22-.964-.632-1.206-1.155-.243-.523-.281-1.12-.108-1.669.175-.547.548-1.012 1.048-1.3.239-.167.506-.286.79-.35.285-.062.578-.069.864-.019.288.053.561.16.805.318.245.158.455.363.619.602.271.745.369 2.943-1.179 3.648z" opacity=".54"/></g><g opacity=".54"><g opacity=".54"><path d="m11.456 145.252h-.5323c-3.04847-.261-6.21307-2.99-6.3679-7.694-.12581-3.696 1.12262-6.948 3.33879-8.709.72031-.591 1.57194-.999 2.48321-1.191.9111-.192 1.8552-.162 2.7524.087.3349.091.6199.312.7924.613.1725.302.2181.659.127.994s-.3115.62-.6128.792c-.3014.173-.6588.218-.9937.127-.4962-.144-1.0201-.165-1.5263-.061-.506.105-.97888.332-1.37701.661-1.53876 1.219-2.43877 3.736-2.342 6.562.10647 3.174 2.0807 5.003 3.96781 5.167 1.6162.146 2.8259-.89 3.2227-2.767.0722-.34.2753-.636.5653-.827.2899-.19.6432-.258.9831-.19.3367.081.6284.291.8128.583.1845.293.247.647.1743.985-.5225 2.478-2.4 4.868-5.4678 4.868z" opacity=".54"/><path d="m20.6206 128.229c-.3162-.071-.6455-.063-.9574.026-.3119.088-.5964.254-.8278.482-.2312.227-.4017.509-.4955.819-.0937.311-.1082.64-.0418.957.0809.294.2257.564.4239.795.1981.23.4445.414.722.538s.5789.185.8827.179c.3037-.007.6025-.079.8747-.215.1864-.102.3509-.24.4839-.407.2551-.179.4451-.438.5418-.735.0606-.266.0668-.542.0182-.81-.0487-.268-.151-.525-.3012-.752-.1501-.228-.3446-.423-.5721-.574-.2274-.151-.4829-.253-.7514-.303z" opacity=".54"/><path d="m23.9401 136.697c-.0689-.198-.1776-.379-.3193-.532-.13-.281-.3283-.525-.5768-.71-.2486-.184-.5394-.303-.8459-.345-.3458-.053-.6995-.002-1.0163.146-.317.148-.5828.387-.7644.686-.1635.274-.2592.583-.2794.9-.0203.318.0358.637.1633.929.1705.393.4662.717.8408.924.3748.207.8075.284 1.2302.218.4999-.09.9443-.373 1.2376-.787.2933-.415.4118-.928.3302-1.429z" opacity=".2916"/></g><path d="m29.2338 140.849c-.3257-.001-.6391-.124-.879-.344-.2399-.221-.3889-.523-.4178-.847l-1.6742-18.126c-.0046-.331.116-.651.3375-.898.2212-.246.5275-.4.8571-.431.3298-.03.6589.065.9217.266.2628.202.4402.495.4967.821l1.6644 18.126c.0325.347-.0736.691-.2948.96-.2213.268-.5398.439-.8858.473z" opacity=".54"/></g></g><path d="m178.183 38.072s11.39-8.3325 22.306 1.4806c10.917 9.8131 1.065 21.2908 7.568 33.3977 6.504 12.1066 10.035 14.5165 7.221 23.8359-2.816 9.3198-10.752 9.2518-5.217 20.2558 5.535 11.003 8.235 24.436-2.555 34.22-10.791 9.784-72.389 5.187-73.55-29.304-1.162-34.4912 22.462-38.5657 25.829-55.2596 3.368-16.694 1.094-26.0522 18.398-28.6264z" fill="#704490"/><path d="m157.608 318.076s1.868.967 9.842-2.459c7.975-3.426 14.11-3.784 18.62 1.674 4.51 5.46 6.609 9.166 14.729 13.181 8.12 4.016 12.861 12.204 10.25 15.824-2.613 3.62-6.002 3.746-15.486-.474-9.483-4.22-14.283-11.768-25.016-12.156-4.684-.071-9.36-.378-14.013-.92 0 0 3.513-8.883 1.074-14.67z" fill="#ff9084"/><path d="m233.636 162.662c-2.216-26.633-33.825-35.507-43.946-41.507-8.614-5.101-9.32-16.646-9.32-16.646l-7.191-.6v-.068h-.406-.397v.068l-7.152.61s-.967 11.139-9.319 16.645c-9.765 6.436-41.73 14.875-43.947 41.508-2.216 26.633 23.304 53.72 21.969 86.343h77.75c-1.345-32.632 24.194-59.71 21.959-86.353z" fill="#ff9084"/><path d="m224.408 136.15c-4.905-.655-18.345-6.561-23.411-9.656-12.498-9.865-41.603-10.445-54.321-.95-1.178.893-19.894 11.09-24.893 10.587-4.068-.399-5.314 33.346 0 34.817 1.749.478 3.523.866 5.313 1.159-.694 22.114-1.302 56.341 2.642 60.766 4.753 5.364 82.276 5.364 87.066 0 3.964-4.444 3.194-38.758 2.444-60.766 1.52-.267 3.298-.628 5.16-1.14 5.313-1.471 4.039-34.267 0-34.817z" fill="#4835a9"/><g fill="#fff" opacity=".8"><path clip-rule="evenodd" d="m201.072 150.305c-.171-.606-.636-1.041-1.293-1.21-.299-.077-.722-.075-1 .004-.67.19-1.12.678-1.236 1.338-.047.27.007.456.169.567l.085.06 2.481.245-.015.045c-.064.192-.166.342-.322.476-.216.185-.47.257-.801.225-.335-.031-.559-.145-.758-.383-.138-.163-.19-.204-.299-.228-.093-.02-.228.007-.301.061-.081.056-.142.186-.142.3-.001.12.025.187.119.313.199.264.485.462.843.581.207.069.713.121.927.095.738-.092 1.266-.508 1.503-1.185.061-.169.066-.202.095-.517.035-.378.028-.5-.055-.787zm-2.03-.511c-.218.058-.382.153-.504.29-.077.086-.173.244-.202.33l-.015.046 2.015.191-.003-.038c-.004-.022-.029-.103-.055-.182-.086-.247-.295-.467-.536-.566-.153-.062-.166-.065-.395-.081-.16-.011-.235-.009-.305.01z" fill-rule="evenodd" opacity=".8"/><path clip-rule="evenodd" d="m194.909 148.692c-.409.019-.781.162-1.071.412-.284.243-.465.547-.572.958-.052.195-.081.597-.058.797.064.56.352 1.021.816 1.305.522.319 1.278.383 1.831.155.164-.068.25-.12.401-.243.148-.122.224-.231.233-.345.023-.238-.098-.39-.327-.413-.134-.013-.217.02-.354.144-.438.395-1.206.334-1.571-.124-.126-.159-.228-.409-.218-.533l.004-.038 1.192.113c1.067.101 1.204.112 1.28.094.109-.026.208-.099.267-.196.039-.068.047-.1.064-.278.039-.427-.083-.822-.358-1.156-.37-.448-.925-.681-1.559-.652zm.617.837c.156.076.306.205.387.33.064.1.143.301.156.395l.006.047-1.994-.19.015-.052c.068-.228.32-.476.577-.569.089-.031.142-.043.285-.065.016-.002.126.007.242.021.181.021.226.033.326.083z" fill-rule="evenodd" opacity=".8"/><path d="m202.453 147.637c.051-.11.139-.19.239-.217.094-.027.248-.012.338.031.093.044.157.119.192.227.03.085.029.098-.116 1.675l-.147 1.589.959-.691c1.031-.743 1.107-.795 1.214-.82.083-.019.244.008.312.054.209.14.241.492.06.67-.033.033-.336.244-.671.468s-.612.414-.612.421.096.158.217.335c.12.177.359.529.53.784.36.529.412.634.395.806-.02.219-.162.373-.363.397-.115.014-.216-.016-.322-.095-.047-.036-.222-.29-.603-.883-.298-.457-.546-.843-.554-.857-.011-.019-.09.025-.331.184l-.316.209-.052.455c-.053.451-.053.455-.11.552-.069.116-.154.171-.297.188-.175.021-.327-.05-.414-.192l-.007-.01c-.004-.007-.008-.013-.012-.02-.054-.099-.041-.238.17-2.47l.021-.21c.233-2.441.237-2.488.28-2.58z" opacity=".8"/><path d="m206.133 150.407c.175-.499.671-.794 1.362-.809.442-.01.976.099 1.298.265.171.089.384.256.452.356.135.201.067.505-.136.61-.175.091-.297.064-.525-.117-.237-.187-.506-.296-.801-.324-.145-.013-.386.007-.514.045-.337.098-.465.45-.22.605.122.078.233.104.722.17.589.079.809.14 1.056.289.361.219.5.547.453 1.057-.056.578-.414.953-1.021 1.069-.437.084-1.169.011-1.648-.165-.313-.114-.668-.381-.743-.556-.076-.183.003-.438.169-.536.06-.036.1-.045.196-.042.129.003.152.014.378.192.263.209.506.297.933.337.338.033.487.018.647-.063.149-.075.211-.152.233-.288.021-.139-.002-.212-.092-.283-.13-.105-.404-.177-.828-.217-.598-.057-1.034-.229-1.245-.492-.164-.205-.218-.433-.185-.78.014-.137.034-.253.059-.323z" opacity=".8"/><g clip-rule="evenodd" fill-rule="evenodd"><path d="m188.836 148.873c.291-.328.724-.532 1.179-.557.508-.028.995.118 1.319.394.041.035.119.116.173.181l.1.118.006-.074c.011-.12.088-.259.176-.324.098-.07.192-.089.331-.064.198.035.322.168.343.367.007.065-.042.62-.16 1.817l-.015.146c-.139 1.412-.16 1.627-.233 1.822-.014.035-.029.069-.046.11l-.009.023c-.186.435-.527.757-.973.919-.312.114-.605.142-1.038.099-.689-.067-1.234-.305-1.52-.661-.104-.13-.134-.226-.121-.381.023-.25.183-.383.431-.36.122.011.179.045.35.211.134.13.277.223.455.294.181.073.697.127.879.092.367-.07.643-.29.773-.613.027-.064.051-.19.075-.375l.036-.279-.141.112c-.243.191-.545.306-.878.331-.187.014-.591-.03-.759-.083-.799-.254-1.239-.908-1.234-1.828.004-.541.198-1.096.501-1.437zm2.617 1.126c-.078-.363-.318-.64-.67-.774-.143-.054-.491-.097-.634-.077-.41.057-.713.301-.858.693-.058.158-.092.52-.066.686.088.532.51.885 1.069.898.53.012.914-.224 1.097-.674.045-.11.056-.169.075-.366.017-.203.015-.256-.013-.386z" opacity=".8"/><path d="m195.932 145.757c-.011.008-.015.016-.015.027 0 .004.006.138.013.297.012.257.019.36.027.419l.003.018.017.005c.025.005.07.005.102-.001.092-.017.197-.072.282-.148.034-.031.083-.087.105-.122.023-.036.046-.088.051-.121.008-.034.004-.087-.007-.113-.01-.023-.032-.045-.055-.054-.017-.007-.021-.008-.053-.006-.037.002-.062.009-.109.031-.082.04-.182.12-.24.196-.012.014-.021.026-.023.026 0 0-.006-.052-.009-.116-.014-.228-.021-.327-.025-.332-.013-.015-.045-.018-.064-.006zm1.844-.089c-.019.011-.019-.008-.006.281.013.321.025.476.034.482.011.006.043.008.079.007.062-.004.12-.022.19-.061.068-.037.117-.074.166-.126.082-.088.128-.182.126-.26-.006-.109-.083-.149-.198-.104-.056.022-.133.072-.192.123-.024.024-.075.078-.092.102l-.011.015-.006-.074c-.002-.04-.009-.139-.015-.221-.006-.098-.009-.149-.011-.154-.01-.015-.045-.021-.064-.01zm-1.202.061c-.006.004-.015.011-.017.016l-.006.009.008.126c.009.127.015.209.033.468l.01.142.007.006c.025.017.062.013.07-.007.002-.009.002-.012-.019-.295-.005-.081-.013-.199-.017-.261-.011-.147-.015-.196-.017-.199-.009-.014-.034-.016-.052-.005zm1.841-.087c-.007.004-.015.012-.018.018-.006.009-.006.012-.002.041 0 .017.005.081.009.141.012.168.021.31.028.406.004.048.008.102.008.12l.002.032.009.007c.017.014.042.016.059.005.015-.011.016.024-.015-.412-.004-.053-.012-.155-.016-.225l-.009-.128-.009-.006c-.012-.009-.03-.009-.046.001zm-1.347.29c-.12.026-.248.139-.31.274-.028.062-.039.118-.034.169.004.044.008.055.025.071.024.025.052.034.114.035.078 0 .145-.022.205-.068.029-.021.07-.067.089-.096.007-.012.015-.021.015-.021.002-.001.004.035.007.079l.004.079.01.012c.015.022.033.027.054.015.008-.004.017-.011.019-.016.006-.008.006-.011.002-.036-.008-.045-.01-.065-.017-.207-.011-.166-.015-.194-.04-.241-.015-.028-.03-.042-.052-.047-.015-.004-.076-.005-.091-.002zm1.835-.086c-.045.01-.109.044-.158.084-.094.079-.162.189-.179.291-.006.04.002.105.013.127.017.026.053.042.104.045.084.004.158-.017.222-.065.033-.025.075-.068.096-.101.007-.012.013-.018.015-.016 0 .002.003.036.003.075.004.08.006.088.025.104.021.016.037.013.058-.007l.013-.013-.003-.019c-.008-.033-.015-.11-.017-.183-.004-.093-.014-.179-.021-.214-.015-.067-.038-.099-.073-.108-.017-.005-.076-.004-.098 0zm-1.788.171c.061.015.055.126-.015.243-.045.076-.12.139-.182.156-.04.01-.073.003-.094-.019-.017-.016-.021-.029-.023-.057-.002-.029.006-.056.023-.094.03-.07.1-.153.162-.192.049-.03.097-.044.129-.037zm1.852-.083c.039.018.043.087.007.175-.03.071-.081.138-.139.181-.036.026-.075.042-.107.044-.03.001-.064-.017-.077-.042-.04-.078.064-.263.19-.333.05-.029.098-.038.126-.025zm-2.553.123c.013.006.022.014.03.029.007.016.007.018-.004.049-.03.078-.09.154-.175.217-.073.055-.179.101-.212.091l-.01-.003v-.024c.002-.065.036-.136.104-.211.058-.066.126-.117.182-.138.009-.004.021-.008.023-.009.009-.004.052-.004.062-.001zm1.842-.087c.02.008.033.028.033.049-.001.018-.028.076-.047.106-.049.072-.124.139-.205.184-.058.032-.114.051-.139.048-.013-.002-.013-.004-.013-.026-.002-.04.015-.09.047-.14.019-.032.07-.092.1-.12.045-.042.105-.08.145-.095.026-.009.062-.012.079-.006z" opacity=".8"/><path d="m199.095 144.908c-.07.004-.175.008-.232.008-.058 0-.194.005-.301.01l-.342.016c-.081.004-.198.01-.258.013-.149.008-.393.019-.459.021-.028.001-.088.005-.132.009-.043.004-.154.01-.248.014-.092.003-.214.009-.273.012-.058.004-.143.007-.19.009-.047.001-.13.005-.184.009-.055.003-.186.01-.29.014-.297.013-.316.015-.547.053-.228.038-.377.103-.463.203-.032.039-.085.17-.09.229-.002.017.001.122.009.233.013.175.011.208-.004.257-.03.1-.081.147-.179.164-.084.015-.112.03-.133.069-.026.049-.021.097.015.139.026.031.036.035.117.045.109.013.15.037.188.108.032.06.041.124.041.292 0 .127.017.268.04.311.005.014.011.031.011.039-.004.021.081.118.128.148.022.014.073.038.113.054.039.015.075.03.081.034.003.004.009.058.009.122.002.064.006.16.009.213.006.086.012.101.04.135.024.029.041.039.073.042.057.005.087-.014.222-.141.068-.063.179-.168.249-.234.141-.132.146-.135.295-.137.062 0 .209-.008.47-.024.072-.004.155-.009.185-.009.05-.001.16-.007.489-.024.085-.004.186-.009.227-.01.127-.003.311-.013.431-.023.128-.011.333-.022.555-.029l.141-.005.059.047c.032.025.077.061.098.079.135.114.41.317.432.319.077.007.151-.057.149-.13-.002-.09-.015-.367-.019-.383-.002-.011.013-.024.043-.039.083-.041.153-.091.19-.138.074-.088.11-.22.098-.356-.015-.158-.013-.317.002-.373.026-.095.098-.153.2-.163.08-.008.133-.076.114-.15-.013-.053-.051-.077-.131-.089-.096-.013-.13-.029-.172-.081-.043-.054-.062-.142-.06-.308 0-.269-.043-.391-.171-.499-.104-.088-.378-.14-.645-.125zm.536.602c.002-.168-.03-.255-.124-.323-.036-.026-.059-.034-.14-.045-.101-.013-.208-.015-.38-.005-.056.004-.208.009-.336.012-.126.003-.277.009-.331.012-.055.003-.16.007-.232.01-.199.005-.54.019-.937.039-.107.006-.259.013-.337.016-.333.014-.78.044-1.034.069-.194.02-.307.067-.375.158-.026.037-.026.038-.028.193-.002.086.002.18.008.21.017.084 0 .208-.036.273-.026.05-.111.127-.16.15-.024.011-.019.034.008.036.035.004.124.071.159.119.046.066.066.155.066.289 0 .217.019.328.062.379.032.036.134.1.166.103s.085.042.103.078c.012.023.025.216.019.28 0 .011.004.018.008.017.013-.004.113-.104.209-.208.039-.044.096-.1.124-.125.06-.051.077-.055.286-.063.071-.002.137-.006.146-.007.01-.002.091-.006.179-.009.09-.003.19-.008.226-.01.034-.002.156-.008.269-.013s.235-.01.273-.013c.126-.007.352-.019.538-.028l.333-.017c.081-.004.207-.009.278-.011.072-.001.175-.006.226-.009l.096-.006.087.074c.048.04.135.113.195.161.058.048.111.094.119.101.011.012.032.018.032.009.002-.002-.002-.037-.008-.078-.004-.041-.007-.11-.007-.154.002-.078.002-.082.033-.113.017-.017.048-.038.066-.045.055-.023.128-.077.16-.119.038-.049.051-.109.044-.192-.019-.249-.021-.367-.004-.423.022-.076.086-.153.156-.19.03-.016.053-.033.051-.038-.002-.004-.025-.015-.047-.024-.053-.018-.145-.102-.168-.151-.036-.074-.045-.162-.041-.369z" opacity=".8"/></g></g><path d="m183.051 113.829c-1.459-2.916-2.368-6.075-2.681-9.32l-7.191-.6v-.068h-.406-.397v.068l-7.152.61c-.299 2.447-.927 4.843-1.867 7.122 6.152 2.852 13.065 3.619 19.694 2.188z" fill="#ff6672"/><path d="m214.251 229.699c.194 7.142.765 26.71 1.49 34.626 0 0 87.893 12.427 77.239 61.261-9.678 44.516-104.413 12.251-120.972 6.242-16.519 6.009-111.2152 38.314-120.9704-6.242-10.6454-48.834 77.2474-61.261 77.2474-61.261.716-7.916 2.69-27.706 2.903-34.838.039-.01 42.011 9.086 83.063.212z" fill="#5e509f"/><path d="m190.124 319.528-.6-1.2c.378-.185 37.956-18.641 77.036-9.37l-.311 1.299c-38.603-9.166-75.756 9.105-76.125 9.271z" fill="#3b3766"/><path d="m248.965 307.333-1.083-.783c.231-.31 5.661-7.627 14.575-6.931l-.098 1.327c-8.197-.601-13.345 6.319-13.394 6.387z" fill="#3b3766"/><path d="m156.901 315.491c-.367-.192-37.539-18.387-76.1239-9.27l-.3097-1.298c39.0686-9.271 76.6566 9.185 77.0246 9.379z" fill="#3b3766"/><path d="m98.0614 303.337c0-.068-5.2356-6.987-13.3939-6.387l-.1065-1.327c8.9325-.696 14.3521 6.619 14.5746 6.929z" fill="#3b3766"/><path d="m185.547 318.946s-2.013.61-9.203-4.248c-7.191-4.859-13.152-6.359-18.61-1.849s-8.207 7.742-16.926 10.191c-8.72 2.448-14.923 9.58-13.036 13.636 1.887 4.055 5.197 4.839 15.252 2.42 10.055-2.42 16.239-8.884 26.846-7.259 4.616.806 9.271 1.378 13.945 1.713 0 0-1.713-9.349 1.732-14.604z" fill="#ff9084"/><path d="m129.417 332.485c2.268-.48 4.41-1.43 6.29-2.787" stroke="#eb726a" stroke-miterlimit="10"/><path d="m130.123 335.389c2.269-.481 4.41-1.431 6.291-2.788" stroke="#eb726a" stroke-miterlimit="10"/><path d="m130.849 338.293c2.269-.482 4.41-1.432 6.291-2.789" stroke="#eb726a" stroke-miterlimit="10"/><path d="m136.017 339.259c2.268-.483 4.409-1.431 6.291-2.786" stroke="#eb726a" stroke-miterlimit="10"/><path d="m163.86 262.768h-.174c-.641-.136-1.235-.435-1.727-.866-.491-.432-.863-.986-1.08-1.603-2.168-6.018 8.207-20.583 8.652-21.202.067-.1.16-.179.27-.226.11-.049.231-.064.349-.045.118.013.231.058.325.13.096.071.171.167.217.276 1.491 3.746.339 14.797-2.729 20.159-1.152 2.013-2.497 3.155-4.006 3.386zm5.932-21.735c-3.232 4.75-9.126 14.719-7.655 18.792.137.392.369.742.675 1.02.305.278.675.478 1.077.578 1.035-.222 2.022-1.133 2.903-2.719 2.72-4.733 3.687-13.578 3-17.671z" fill="#fff"/><path d="m180.283 272.097h-.049c-.088-.005-.173-.03-.252-.069-.079-.04-.148-.094-.206-.16-.058-.068-.102-.145-.129-.228-.028-.083-.039-.171-.032-.26.7-10.512-1.101-21.042-5.255-30.726-.078-.158-.088-.34-.031-.506.057-.165.178-.303.336-.38s.34-.088.506-.03c.165.057.302.177.379.335 4.262 9.896 6.11 20.663 5.391 31.415-.015.165-.09.32-.211.431-.122.112-.282.176-.447.178z" fill="#fff"/><path d="m184.415 298.837-1.161-.658c.087-.145 8.71-15.339 22.006-22.889l.649 1.151c-12.987 7.366-21.407 22.24-21.494 22.396z" fill="#3b3766"/><path d="m158.779 284.92c-2.584-9.474-14.352-20.894-14.516-21.001l.967-.967c.494.483 12.146 11.787 14.826 21.618z" fill="#3b3766"/><path d="m131.227 229.477s30.852 1.992 41.507-32.634c0 0 14.207 38.178 41.729 39.068v-21.289l-36.396-34.617h-13.327l-34.626 39.068z" fill="#3e504a" opacity=".035937"/><path d="m223.949 141.797s57.272 73.918 36.852 82.57c-49.491 20.981-80.092-35.275-80.092-35.275s-2.662-21.291 1.78-24.852c4.433-2.672 5.323 17.758 5.323 17.758l32.12 16.627s-10.046-41.295 4.017-56.828z" fill="#ff9084"/><path d="m252.207 212.908c-12.408-8.496-30.892-13.181-31.086-13.22l.33-1.296c.184.049 18.902 4.838 31.51 13.414z" fill="#e16249"/><path d="m148.879 85.4634c.242.7258 6.048 38.7106 32.178 45.4846" stroke="#fff" stroke-miterlimit="10"/><path d="m209.848 84.4669c-.105 1.4071-.626 2.7504-1.493 3.8613-.87 1.1111-2.049 1.9395-3.389 2.3806-1.341.4414-2.78.4753-4.14.0969-1.359-.3774-2.576-1.1497-3.496-2.219-.92-1.0684-1.503-2.3867-1.674-3.787-.172-1.4003.077-2.8199.713-4.0791.636-1.259 1.629-2.3022 2.857-2.9963 1.227-.6938 2.634-1.0084 4.042-.9028.933.0696 1.845.3232 2.68.7452.838.422 1.583 1.0044 2.192 1.7148.612.7095 1.078 1.533 1.37 2.4223.293.8904.408 1.8292.338 2.7631z" fill="#ff6672"/><path d="m202.948 75.4004c1.454-19.4811-9.625-36.1886-24.747-37.318-15.121-1.1284-28.559 13.7481-30.013 33.2291-1.455 19.4812 9.625 36.1895 24.746 37.3185s28.557-13.7484 30.014-33.2296z" fill="#ff9084"/><path d="m179.431 37.8976s-16.21 4.442-20.168 11.2939c0 0-2.168-9.9583 7.945-14.236 8.865-1.7225 12.223 2.9421 12.223 2.9421z" fill="#704490"/><path d="m184.58 68.4597c1.067-.6464 2.328-.8961 3.561-.7064 1.857.3968 9.164 3.4065 9.629 3.5032.339-.0871-3.164-3.4259-4.897-4.442s-5.042-2.2064-6.503-2.1871c-1.083.1084-2.118.5022-3 1.142l-.968-.8421s.339 2.9808 2.178 3.5324z" fill="#723d6b"/><path d="m183.273 73.918s-.852 2.0612-.058 3.1742 10.365.5999 12.04-.5129c.589-.8323-10.646-1.1517-10.646-1.1517z" fill="#723d6b"/><path d="m168.718 66.5535c-1.042-.6485-2.278-.9117-3.494-.7452-1.867.358-9.232 3.213-9.677 3.3001-.349-.0969 3.232-3.3582 4.974-4.3356 2.028-1.1072 4.254-1.8078 6.552-2.0614 1.079.1355 2.104.5526 2.971 1.2097l.968-.8323s-.455 2.9517-2.294 3.4647z" fill="#723d6b"/><path d="m168.989 72.8535s.552 2.1581-.407 3.1453c-.958.9871-10.345-.9678-11.826-2.2936-.464-.9098 10.723.4547 10.723.4547z" fill="#723d6b"/><path d="m192.532 94.0166c3.445-.6147 5.742-3.907 5.127-7.3531-.615-3.4472-3.906-5.7428-7.352-5.1282-3.447.6145-5.743 3.9068-5.128 7.3531.614 3.4462 3.905 5.7426 7.353 5.1282z" fill="#ff6672"/><path d="m162.321 85.5891c-.09 1.2515-.549 2.4477-1.318 3.4376-.77.9909-1.817 1.7303-3.007 2.1252-1.19.3958-2.472.4288-3.681.0958-1.209-.3328-2.292-1.0171-3.113-1.9664-.819-.9484-1.34-2.1196-1.494-3.365-.155-1.2445.064-2.5075.627-3.6282s1.447-2.0488 2.539-2.6672c1.09-.6184 2.341-.8991 3.592-.8061 1.674.124 3.23.9068 4.328 2.1765s1.647 2.9236 1.527 4.5978z" fill="#ff6672"/><path d="m153.505 80.2567c-.112 1.4052-.636 2.7466-1.509 3.8528-.873 1.107-2.054 1.9307-3.395 2.3671-1.34.4365-2.779.4655-4.137.0841-1.357-.3811-2.571-1.1564-3.487-2.2277-.918-1.0703-1.496-2.3883-1.665-3.7888-.167-1.3994.083-2.8171.72-4.0743.638-1.258 1.634-2.2984 2.862-2.9894 1.228-.692 2.634-1.0045 4.039-.8982.937.0698 1.85.3244 2.688.7482.838.4239 1.583 1.0094 2.194 1.7226.61.7132 1.074 1.5397 1.364 2.433.291.8932.401 1.8348.326 2.7706z" fill="#ff6f6a"/><path d="m179.528 37.8201c-1.924-1.3353-4.178-2.1174-6.516-2.2606-2.337-.1431-4.67.358-6.743 1.4477-7.742 3.6583.359 16.452-.464 27.4942s-15.262 20.0426-12.407 31.3653c2.855 11.3233 9.368 23.4683-2.313 31.0653s-43.782-2.206-29.178-27.591c12.755-22.1811 21.204-21.7068 21.368-38.1105.165-16.4036 9.039-14.6811 12.756-21.8135 3.716-7.1323 13.422-15.5907 23.497-1.5969z" fill="#9a5dcc"/><path d="m119.468 117.719c2.011-2.584 4.332-4.911 6.91-6.929 2.998-2.452 5.798-5.138 8.371-8.033 6.097-7.0643 4.781-18.8711 3.339-25.6357l-.426.5517c1.394 6.7743 2.517 17.9907-3.319 24.736-2.557 2.872-5.333 5.542-8.304 7.984-2.508 1.993-4.781 4.266-6.774 6.774.039.165.116.359.203.552z" fill="#5e509f"/><path d="m179.528 37.8205c-.252-.3484-.503-.6775-.755-.9678-2.487-2.013-9.455-6.8614-15.233-3.2323-3.774 2.3613-3.029 6.9196-2.245 11.739.755 4.5871 1.529 9.3293-1.093 13.152-1.81 2.6226-4.394 4.2968-7.123 6.0581-5.458 3.5226-11.1 7.1615-10.307 18.9296l.097 1.4516c.968 14.2841 2.342 34.3463-9.252 43.5493l.561.136c11.546-9.678 10.143-30.2335 9.214-43.7047l-.097-1.4516c-.775-11.4584 4.742-15.0102 10.064-18.4457 2.662-1.713 5.401-3.4937 7.278-6.213 2.739-3.9873 1.936-9.0583 1.181-13.5487-.794-4.8388-1.471-9.0293 2.003-11.2068 5.216-3.2807 11.546.784 14.226 2.9033.519.2391 1.015.5236 1.481.8517z" fill="#5e509f"/><path d="m174.486 96.0023c-2.122-.1142-4.165-.84-5.884-2.0905-.055-.0435-.101-.0967-.135-.1586-.033-.061-.054-.1278-.062-.1976-.006-.0696 0-.1392.021-.206.02-.0677.054-.1296.098-.1829.089-.1083.217-.1772.358-.1917.139-.0144.278.0262.388.1142.174.1453 4.364 3.4549 11.051.9678.065-.0252.134-.0367.204-.0339.068.0019.137.0185.2.0465.063.029.12.0707.166.121.048.0513.085.1114.108.1761.047.1307.042.2748-.017.4016-.058.1268-.163.2256-.293.2758-1.973.7684-4.091 1.0946-6.203.9582z" fill="#b05977"/><path d="m182.107 164.066h-15.915l2.236 25.632h.012v.022c0 1.046 2.557 1.897 5.711 1.897 3.155 0 5.712-.849 5.712-1.897 0-.007 0-.015 0-.022h.012l2.236-25.632z" fill="#f68d4a"/><path d="m174.149 164.066h-7.957l2.241 25.632h.013v.022c0 1.046 2.553 1.893 5.705 1.897v-27.551z" fill="#f5833a"/><path d="m174.151 167.127c4.397 0 7.96-1.234 7.96-2.755s-3.563-2.755-7.96-2.755-7.959 1.234-7.959 2.755 3.563 2.755 7.959 2.755z" fill="#f36c3a"/><path d="m163.802 190.466s-30.001 55.609-79.5313 34.626c-20.4198-8.651 36.8523-82.569 36.8523-82.569 14.062 15.484 3.987 56.826 3.987 56.826l31.588-15.985s2.42-6.931 4.355-9.195c1.936-2.265 12.746-7.258 13.549-5.478.803 1.782-.484 12.417-4.839 14.033l-4.355 1.607s-.629 5.661-1.606 6.135z" fill="#ff9084"/><path d="m92.8645 213.663-.755-1.103c12.5805-8.622 31.3265-13.365 31.5105-13.414l.329 1.298c-.194.038-18.678 4.723-31.0845 13.219z" fill="#e16249"/><g stroke-miterlimit="10"><path d="m187.59 241.273c1.479 4.356 2.055 8.965 1.693 13.55" stroke="#3b3766"/><path d="m194.606 240.547c1.478 4.355 2.054 8.964 1.693 13.549" stroke="#3b3766"/><path d="m201.621 239.823c1.479 4.353 2.055 8.964 1.695 13.547" stroke="#3b3766"/><path d="m208.639 239.096c1.478 4.354 2.054 8.965 1.693 13.548" stroke="#3b3766"/><path d="m157.24 240.626c-1.478 4.353-2.054 8.963-1.693 13.548" stroke="#3b3766"/><path d="m150.224 239.9c-1.479 4.355-2.055 8.965-1.694 13.547" stroke="#3b3766"/><path d="m143.208 239.174c-1.479 4.355-2.055 8.964-1.694 13.549" stroke="#3b3766"/><path d="m136.191 238.448c-1.478 4.355-2.054 8.964-1.693 13.549" stroke="#3b3766"/></g><path d="m167.644 165.972s-3.765-2.899 1.53-6.28c5.293-3.382 13.476-6.281 6.497-14.253-6.978-7.972-11.07-15.461-1.926-22.225 9.145-6.764 21.177-1.208 21.658-10.871.482-9.663-.24-15.46 12.515-14.4941 12.754.9669 28.636 10.6291 22.86 20.7751-5.775 10.146-35.375 3.14-33.93 8.213 1.443 5.073 12.032 1.933 11.07 8.214-.963 6.282-15.402-1.449-20.215 4.59-4.813 6.04 6.496 7.73 3.851 11.596-2.647 3.865-12.273 6.763-12.273 9.904-.03.876.179 1.743.603 2.509s.553 1.4 1.308 1.839l-6.774 1.45z" fill="#fff" opacity=".1"/><path d="m204.4 86.6731c1.138 0 2.06-.9231 2.06-2.0614 0-1.138-.922-2.0612-2.06-2.0612s-2.062.9232-2.062 2.0612c0 1.1383.924 2.0614 2.062 2.0614z" fill="#fff"/><path d="m204.4 84.6116s-1.084 17.5454-19.956 40.7724c-18.871 23.226 26.131 57.097 28.55 86.615 2.419 29.517-19.481 48.571-7.085 64.442 12.398 15.873 23.535 5.236 31.763 10.56" stroke="#fff" stroke-miterlimit="10"/><path d="m260.946 291.093 1.191.523c.553.241 1.001.674 1.264 1.216.262.543.322 1.162.167 1.746l-2.844 10.829c-.169.639-.581 1.189-1.15 1.529-.568.339-1.245.444-1.888.292l-26.847-6.436c-.642-.145-1.204-.535-1.566-1.084-.361-.551-.494-1.221-.37-1.868l.765-3.872c.11-.561.405-1.067.84-1.437.432-.371.98-.584 1.55-.604l27.746-1.026c.391-.024.781.042 1.142.192z" fill="#3e504a" opacity=".035937"/><path d="m232.212 279.905-4.796 11.736c-.645 1.578.111 3.379 1.69 4.026l24.988 10.206c1.578.645 3.379-.113 4.026-1.691l4.794-11.736c.643-1.579-.113-3.381-1.692-4.026l-24.986-10.206c-1.578-.646-3.381.112-4.024 1.691z" fill="#fff"/><path d="m238.996 295.952c3.411 0 6.175-2.763 6.175-6.174s-2.764-6.175-6.175-6.175c-3.409 0-6.173 2.764-6.173 6.175s2.764 6.174 6.173 6.174z" fill="#dfe7e6"/><path d="m237.312 287.969 4.598 1.693-4.238 2.536z" fill="#a4a9c2"/><path d="m245.413 297.8 4.19-9.677 7.104 2.419-5.488 10.976z" fill="#dfe7e6"/><path d="m154.582 42.0609s3.949 14.0693 24.191 14.0693c20.243 0 24.193-14.0693 24.193-14.0693l-4.936-31.4156h-38.515l-4.936 31.4156z" fill="#ef3b3b"/><path d="m159.418 11.1284c0 6.1463 8.664 11.1302 19.355 11.1302s19.355-4.9888 19.355-11.1302c0-6.14076-8.666-11.1284-19.355-11.1284-10.69 0-19.355 4.98294-19.355 11.1284z" fill="#f1614e"/><path d="m159.56 39.7743c.361-1.3297 1.315-3.0882 1.93-4.141-.713-.4056-1.133-.9486-1.002-1.3946.119-.4288.713-.6523 1.48-.6222l1.529-15.6904 12.791-9.04085c.104-.07431.222-.12642.347-.1537.125-.02709.254-.02879.379-.00452.125.02409.244.07319.351.14505.106.0715.198.16425.27.27242.072.10837.123.23009.149.35878.027.1283.028.26094.005.39-.023.12902-.072.25212-.14.36212-.07.1101-.16.2049-.265.2792l-12.048 8.515-1.448 14.8252c-.01.0871-.03.1723-.062.2536.773.4094 1.241.9813 1.113 1.4487-.105.3745-.571.5913-1.196.6214.277 1.6588.944 5.6914 1.119 7.0955.223 1.7865-1.218 1.0898-1.218 1.0898l-3.438-2.2956s-1.194-.2933-.643-2.3178z" fill="#fbae52"/><path d="m198.03 10.6453 4.936 31.4156s-3.949 14.0693-24.193 14.0693v-34.6789c10.636 0 19.257-4.8435 19.257-10.806z" fill="#f04c40"/><path d="m217.436 316.145c-4.916 4.007-92.305 4.608-97.889 0-5.584-4.605-11.923-74.266-8.536-77.615 3.387-3.347 110.325-3.038 114.961 0 4.635 3.04-3.62 73.61-8.536 77.615z" fill="#c9c9c9"/><path d="m189.863 275.907c-.803-1.413-2.545-2.508-4.753-2.113-2.209.393-4.843 4.497-5.793 4.632-.494.07-.83-.31-1.036-.689.695-1.119.697-1.23.859-1.928.038-.186.011-.378-.076-.545.428-.268.662-.557.662-.858 0-1.342-4.62-2.429-10.318-2.429-5.699 0-10.319 1.087-10.319 2.429 0 .301.234.59.663.858-.089.167-.116.359-.078.545.164.698.164.809.87 1.942.706 1.134.597 2.807-.326 3.67-.597.557-1.715 1.703-2.329 3.259-.895.018-2.007-.023-2.776-.292-1.959-.683-3.659-7.258-4.147-8.043-.575-.952-1.089-1.292-2.859-1.292s-3.205.399-3.205.89c0 .38.862.705 2.073.831.649.314 1.694 1.253 2.164 4.051.703 4.208.163 7.61 4.236 9.551 2.172 1.037 3.929 1.261 5.185 1.184.79 1.778 2.067 3.373 4.102 4.214 3.188 1.315 5.492 1.443 6.746 1.336 1.256.107 3.558-.021 6.745-1.336 1.126-.465 2.113-1.208 2.869-2.16.712.042 1.44.064 1.744.013.678-.114.319-1.574.905-3.126.585-1.551 5.159-3.948 7.104-6.903 1.948-2.958 1.891-6.278 1.086-7.689zm-1.2 3.004c-.375 4.574-3.516 5.991-5.498 7.392-.493.348-1.204 1.114-1.964 2.021.044-.254.081-.508.112-.753.377-2.995-1.754-5.247-2.691-6.127.6-.333 1.231-.706 1.827-1.095 2.104-1.385 3.349-3.319 5.068-4.352 1.721-1.034 3.337.57 3.146 2.914z" fill="#fff"/><path d="m160.386 273.311c.49-.634.939-2.049 1.686-2.805.748-.755 1.796-.755 2.665-2.318.8-1.437 1.485-3.919 2.656-4.44v-.894h.295v-.707h-2.063c.453-.628 1.082-1.244 1.817-1.642l.772-1.592c-.353-.194-.631-.499-.791-.867-.16-.369-.19-.777-.09-1.167.102-.387.329-.73.648-.976.32-.245.713-.378 1.116-.378.404 0 .797.133 1.116.378.32.246.547.589.649.976.1.39.069.798-.09 1.167-.16.368-.438.673-.791.867l.771 1.592c.736.398 1.365 1.014 1.818 1.642h-2.066v.707h.296v.894c1.171.519 1.855 3.003 2.655 4.44.87 1.563 1.919 1.563 2.665 2.318.747.756 1.197 2.171 1.686 2.805 0 0-4.836.602-8.709.602s-8.709-.602-8.709-.602z" fill="#fff"/><path d="m169.096 271.977h-.024c-5.622 0-10.178 1.087-10.178 2.429 0 .301.231.59.653.858-.086.167-.113.359-.075.545.161.698.161.809.857 1.942.697 1.134.59 2.807-.321 3.67-.588.557-1.691 1.703-2.297 3.259-.882.018-1.98-.023-2.738-.292-1.932-.683-3.608-7.258-4.089-8.043-.567-.952-1.076-1.292-2.821-1.292-1.746 0-3.161.399-3.161.89 0 .38.85.705 2.044.831.64.314 1.672 1.253 2.135 4.051.693 4.208.161 7.61 4.178 9.551 2.142 1.037 3.876 1.261 5.114 1.184.779 1.778 2.038 3.373 4.046 4.214 3.144 1.315 5.416 1.443 6.653 1.336h.024z" fill="#fff"/><path d="m160.386 273.313c.488-.636.936-2.051 1.681-2.805.747-.757 1.79-.757 2.658-2.32.797-1.437 1.481-3.919 2.647-4.44v-.894h.295v-.707h-2.058c.452-.626 1.08-1.244 1.813-1.642l.769-1.592c-.353-.194-.63-.499-.789-.867-.159-.369-.191-.779-.09-1.167.1-.387.329-.732.647-.976.319-.245.71-.378 1.113-.378h.024v18.388h-.024c-3.862 0-8.684-.602-8.684-.602z" fill="#fff"/><g fill="#301b8b" opacity=".54"><g opacity=".54"><path d="m325.159 47.6512c-1.808.0571-3.604-.3101-5.244-1.0719-1.641-.7621-3.08-1.8977-4.202-3.3158-1.46-2.0074-2.47-4.3053-2.961-6.7376-.491-2.4322-.453-4.9418.113-7.358.854-3.7104 2.877-6.498 5.686-7.8526 12.49-6.0172 18.451 2.8171 20.425 6.8711 3.535 7.2636-2.848 15.4501-5.892 17.3445-2.415 1.3762-5.145 2.1065-7.925 2.1203zm-5.273-23.558c-1.964.9816-3.378 2.9938-4.026 5.7717-.457 1.9678-.49 4.0102-.097 5.992.393 1.9815 1.202 3.8571 2.375 5.5023.833 1.0556 1.905 1.8989 3.127 2.4604 1.222.5613 2.56.8248 3.904.769h.089c2.18-.0128 4.322-.5766 6.225-1.6392 1.844-1.4127 3.309-3.2611 4.262-5.3791.982-2.081 1.856-5.1534.471-8.0098-2.396-4.9079-7.168-9.8747-16.33-5.4673z" opacity=".54"/><path d="m329.863 44.2549s1.355 5.0747 2.828 5.6442c1.63.6381 6.874-3.3276 6.206-4.7411-.668-1.4134-4.085-4.7901-4.085-4.7901z" opacity=".54"/><path d="m332.436 44.3925c-.26.0015-.516-.0624-.744-.1858-.228-.1237-.422-.3029-.562-.5211l-6.167-9.698c-.123-.1699-.211-.3633-.257-.5681-.046-.205-.05-.4171-.01-.6235.039-.2061.119-.4024.237-.5764.117-.174.269-.3222.446-.4354.177-.1133.375-.1891.583-.223.207-.0339.419-.025.623.026.204.0509.395.143.562.2706.167.1275.306.2878.408.4709l6.177 9.698c.218.3457.291.7632.202 1.162-.088.3987-.33.7467-.673.9682-.248.1534-.534.235-.825.2356z" opacity=".54"/><path d="m328.92 29.9532c.594.5946.998 1.352 1.161 2.1763.164.8242.079 1.6783-.243 2.4543-.322.7762-.867 1.4395-1.566 1.906-.699.4668-1.521.7158-2.361.7158-.841 0-1.663-.249-2.362-.7158-.699-.4665-1.244-1.1298-1.566-1.906-.322-.776-.407-1.6301-.243-2.4543.163-.8243.567-1.5817 1.161-2.1763.394-.3968.863-.7119 1.38-.9267.516-.2149 1.07-.3256 1.63-.3256.559 0 1.113.1107 1.63.3256.516.2148.985.5299 1.379.9267z" opacity=".54"/></g><path d="m465.247 74.5758c-.881-.0037-1.759-.1191-2.612-.3435-2.069-.6197-3.941-1.7704-5.429-3.3375-1.486-1.5671-2.536-3.496-3.046-5.595-.48-1.9959-.525-4.0722-.128-6.0867.398-2.0145 1.225-3.9194 2.426-5.5841 1.182-1.666 2.719-3.0488 4.501-4.0486 1.781-1 3.763-1.5917 5.799-1.733 2.035-.1225 4.046.4672 5.691 1.6675 1.647 1.2003 2.821 2.9362 3.325 4.9091.523 1.6612.421 3.4566-.289 5.0478-.709 1.5909-1.974 2.868-3.561 3.5901-.558.2848-1.18.4234-1.806.4024-.077.8386-.383 1.6398-.885 2.3162-.502.6763-1.18 1.2017-1.961 1.5189-.781.317-1.633.4137-2.465.2792-.831-.1347-1.61-.495-2.251-1.042-1.963-1.8551-1.963-5.3398-.981-7.8527.378-1.172 1.107-2.2011 2.085-2.9498.979-.7486 2.163-1.1817 3.393-1.2414.451-.0002.882.1771 1.201.4932.322.3162.504.7455.508 1.1951.015.1238.015.2491 0 .3729.31.1822.554.4569.697.7853.208.4614.384.9128.551 1.3447.166.4319.352.8933.509 1.2075.83-.4043 1.483-1.0933 1.843-1.9407.362-.8473.405-1.7963.122-2.6728-.289-1.2014-.988-2.2639-1.978-3.0041-.99-.7401-2.207-1.1116-3.441-1.0498-1.545.0936-3.046.5332-4.395 1.286-1.35.7526-2.513 1.7993-3.402 3.0624-.903 1.2644-1.527 2.7054-1.831 4.228-.304 1.5225-.283 3.0924.062 4.6062.349 1.5127 1.089 2.9069 2.147 4.0426 1.059 1.1356 2.398 1.9722 3.883 2.426 2.739.7264 5.518-.2747 8.042-2.8759.155-.1618.341-.2913.549-.3812.205-.0897.428-.1379.653-.1422.225-.004.447.0362.657.1184.209.0822.399.2048.561.3608.163.156.291.3422.382.5483.089.206.138.4276.142.6522.004.2248-.035.448-.119.6572-.081.2091-.205.4001-.36.5617-1.1 1.2624-2.449 2.2864-3.96 3.0087-1.512.7226-3.155 1.1285-4.829 1.1926zm.983-16.3827c-.667.419-1.169 1.0527-1.425 1.7964-.639 1.6295-.451 3.4944.157 4.0736.248.2356.69.216 1.326-.0589.777-.3436.658-3.2784 0-5.4379-.039-.1219-.068-.2466-.088-.3732z" opacity=".54"/><g opacity=".54"><path d="m544.138 127.355c-.215-.049-.442-.116-.667-.186-3.722-1.198-6.874-5.507-5.745-11.416.894-4.652 3.387-8.363 6.648-9.914 1.074-.531 2.257-.795 3.455-.769 1.197.025 2.37.34 3.42.917.354.229.608.583.715.992.104.41.05.843-.149 1.215-.202.372-.535.654-.934.791-.401.136-.837.117-1.225-.054-.577-.328-1.228-.507-1.895-.521-.664-.013-1.323.139-1.914.443-2.269 1.08-4.104 3.926-4.802 7.52-.765 3.983 1.169 6.87 3.486 7.587 1.965.628 3.78-.316 4.811-2.553.089-.208.217-.394.38-.551.161-.157.353-.279.564-.358.209-.082.434-.12.659-.113.224.008.447.062.651.155.203.095.387.231.538.398.151.166.268.362.341.575.074.213.103.438.089.663-.015.224-.075.443-.178.645-1.374 2.964-4.379 5.408-8.248 4.534z" opacity=".54"/><path d="m560.91 104.887-.923.255-.374.099c-.147-.432-.285-.864-.42-1.296-.118-.213-.306-.379-.533-.469s-.477-.099-.709-.025c-.231.075-.43.227-.562.432-.132.204-.19.448-.161.69.138.412.256.825.372 1.237l-1.678.471c-1.492.402-1.11 2.945.471 2.709l1.837-.265c.118.383.246.776.403 1.168.068.152.17.287.3.394.128.107.279.185.44.226.163.041.331.046.496.013.163-.032.318-.101.451-.201.13-.059.237-.159.305-.285.224-.53.246-1.124.06-1.668l.854-.118c2.426-.354 1.796-3.985-.629-3.367z" opacity=".54"/><path d="m571.024 102.963-.923.256-.373.098c-.136-.432-.283-.864-.421-1.296-.118-.213-.306-.379-.533-.469-.226-.09-.476-.099-.709-.025-.231.075-.43.227-.562.432-.132.204-.19.448-.161.69.138.412.256.825.374 1.237l-1.68.471c-1.482.402-1.11 2.945.481 2.709l1.837-.265c.118.393.246.776.403 1.168.068.152.168.287.296.394s.277.184.438.226c.163.042.331.046.494.014.163-.033.318-.102.45-.202.131-.062.24-.161.316-.284.217-.533.232-1.125.048-1.669l.854-.118c2.426-.353 1.797-4.024-.629-3.367z" opacity=".54"/></g><g opacity=".54"><path d="m504.968 262.736c-.258-.002-.512-.07-.735-.198-.224-.128-.412-.31-.546-.531-.134-.219-.209-.471-.219-.728-.01-.258.046-.514.165-.742l9.819-19.004c.184-.355.5-.62.88-.742.382-.121.794-.086 1.147.098.355.185.622.5.742.882.12.38.085.793-.099 1.145l-9.819 19.004c-.128.244-.32.448-.556.591-.235.143-.504.221-.779.225z" opacity=".54"/><path d="m499.724 258.798c-.275 0-.544-.075-.78-.217-.235-.141-.427-.345-.556-.587l-5.567-10.651c-.175-.337-.213-.726-.109-1.092.105-.365.343-.675.669-.87l10.496-6.243c.343-.204.75-.262 1.135-.165.384.097.715.343.919.684.203.341.261.75.164 1.133-.099.386-.345.715-.686.919l-9.259 5.506 4.909 9.384c.185.355.219.767.099 1.149-.118.38-.383.698-.736.884-.217.11-.455.166-.698.166z" opacity=".54"/><path d="m513.324 264.039c-.346 0-.682-.12-.949-.341-.267-.219-.452-.525-.519-.864-.07-.339-.018-.691.145-.998.161-.306.424-.548.744-.682l10.802-4.524-3.929-11.112c-.084-.19-.128-.395-.13-.605-.002-.207.041-.412.124-.604.081-.192.203-.362.356-.504.151-.141.334-.25.529-.32.198-.067.405-.094.613-.077.207.017.41.076.592.174.185.099.345.235.473.4.128.164.221.352.272.554l4.429 12.456c.128.361.112.758-.043 1.109-.155.35-.44.627-.792.777l-12.128 5.074c-.188.068-.389.099-.589.087z" opacity=".54"/></g><g opacity=".54"><path d="m329.12 225.687c-.961-1.724-2.139-3.317-3.506-4.741l-3.201 2.856c-1.758-1.108-3.805-1.672-5.882-1.618-.056-1.411-.247-2.81-.57-4.183-2.486-.029-4.898.846-6.785 2.464.435 1.049 1.032 2.021 1.767 2.885.108.138.236.266.344.403l-.236.148c-2.946 1.962-4.458 4.005-5.067 6.018-.903-.159-1.806-.326-2.72-.463-.208-.058-.429-.058-.638 0-.194.093-.35.248-.442.441-.245.7-.245 1.461 0 2.161.226.982.442 2.023.668 3.032.118.531.314 1.159.844 1.316.404.058.815-.041 1.149-.275.432-.225.884-.432 1.326-.638.198.636.434 1.258.707 1.866.838 1.862 2.156 3.468 3.82 4.652l-2.288 1.905 1.64.843c1.725 1.085 3.692 1.726 5.725 1.866.359-1 .632-2.027.815-3.073 1.152-.13 2.276-.444 3.328-.932 1.514-.692 2.808-1.785 3.742-3.161.713.415 1.372.917 1.964 1.492.03.041.07.074.117.097.046.022.097.033.148.031.088 0 .137-.099.187-.178l1.305-2.168c.676-1.095 1.17-2.292 1.464-3.544-1.08-.285-2.082-.647-3.162-.982.318-2.041.262-4.124-.167-6.144 1.257-.508 2.447-1.167 3.545-1.963.057-.033.104-.082.137-.138.007-.048.003-.099-.01-.145-.014-.049-.037-.091-.068-.13zm-11.568 11.515c-.521.25-1.088.39-1.665.411-.578.021-1.153-.078-1.691-.291-.538-.211-1.025-.533-1.433-.941-.408-.409-.726-.899-.936-1.438-.648-1.482-1.286-3.877 1.846-5.888 2.573-1.669 5.44-.285 6.089 1.098.647 1.384.834 5.664-2.21 7.049z" opacity=".54"/><path d="m347.207 233.383c-.492-.887-1.1-1.707-1.806-2.435l-1.64 1.463c-.902-.554-1.946-.837-3.005-.814-.029-.725-.128-1.446-.295-2.151-1.277-.015-2.516.436-3.486 1.267.226.539.53 1.043.904 1.492l.186.206c-.046.021-.088.046-.127.079-1.217.676-2.143 1.777-2.603 3.093l-1.404-.247c-.106-.025-.217-.025-.324 0-.102.043-.183.124-.226.227-.128.359-.128.75 0 1.108l.344 1.56c.059.275.167.599.432.678.207.033.419-.015.589-.137l.688-.333c.103.333.225.66.363.98.429.959 1.107 1.786 1.964 2.397l-1.179.98.845.432c.887.562 1.899.899 2.946.983.186-.514.324-1.043.412-1.581.595-.068 1.175-.231 1.719-.481.794-.349 1.475-.915 1.964-1.63.358.214.687.471.982.766 0 0 .088.079.137.068.022-.006.043-.016.06-.031.017-.016.03-.035.038-.057l.678-1.119c.341-.562.593-1.177.746-1.816-.55-.147-1.07-.343-1.63-.519.166-1.054.139-2.128-.078-3.172.645-.254 1.258-.583 1.826-.98.027-.02.048-.049.059-.08.008-.017.012-.037.013-.056 0-.021-.003-.041-.011-.058-.007-.02-.018-.035-.032-.049-.014-.015-.03-.025-.049-.033zm-5.891 5.889c-.269.13-.562.203-.86.213s-.596-.043-.873-.153c-.277-.111-.528-.277-.737-.49-.209-.214-.371-.467-.476-.746-.147-.264-.239-.553-.268-.851-.03-.298.002-.601.094-.885.092-.287.242-.551.441-.776.199-.224.442-.406.715-.532.491-.338 1.097-.467 1.683-.361.587.107 1.108.44 1.449.93.265.746.383 2.974-1.198 3.682z" opacity=".54"/></g><g opacity=".54"><path d="m577.799 167.296c-.963-1.722-2.141-3.315-3.505-4.741l-3.2 2.856c-1.75-1.079-3.777-1.63-5.833-1.579-.058-1.409-.248-2.81-.569-4.184-2.486-.025-4.897.851-6.786 2.465.432 1.048 1.029 2.023 1.767 2.885.109.138.225.275.343.403l-.234.147c-2.947 1.963-4.468 4.015-5.069 6.019-.912-.157-1.815-.326-2.718-.462-.21-.054-.43-.054-.64 0-.193.091-.35.247-.441.44-.247.7-.247 1.461 0 2.161.226.982.441 2.022.668 3.032.118.541.314 1.168.845 1.316.403.058.814-.039 1.149-.276.432-.224.883-.432 1.325-.637.198.636.434 1.257.707 1.866.837 1.864 2.155 3.474 3.819 4.662l-2.288 1.895 1.641.852c1.796.934 3.691 1.895 5.724 1.856.362-.994.631-2.019.806-3.063 1.157-.151 2.284-.482 3.338-.98 1.514-.692 2.808-1.785 3.742-3.162.711.42 1.37.92 1.964 1.493.03.041.07.074.117.095.046.024.097.033.147.031.079 0 .138-.097.188-.166l1.306-2.178c.674-1.095 1.168-2.292 1.463-3.544-1.081-.285-2.083-.649-3.162-.982.317-2.041.261-4.123-.167-6.144 1.256-.512 2.445-1.171 3.544-1.963.058-.035.102-.085.128-.147.002-.051-.006-.101-.027-.148-.022-.046-.053-.087-.092-.118zm-11.517 11.513c-.525.25-1.094.388-1.674.405-.579.018-1.156-.085-1.695-.302s-1.025-.543-1.432-.957c-.405-.415-.719-.909-.924-1.451-.649-1.473-1.287-3.878 1.846-5.891 2.564-1.658 5.439-.275 6.088 1.111.647 1.383.835 5.702-2.209 7.085z" opacity=".54"/><path d="m595.937 174.992c-.492-.887-1.1-1.707-1.808-2.435l-1.639 1.462c-.903-.552-1.947-.831-3.005-.804-.029-.728-.128-1.451-.294-2.16-1.277-.006-2.515.446-3.486 1.277.223.537.527 1.036.903 1.482l.188.205-.128.08c-1.215.682-2.143 1.781-2.612 3.09-.463-.077-.924-.166-1.395-.234-.107-.029-.219-.029-.324 0-.102.046-.184.132-.226.234-.128.361-.128.752 0 1.111l.323 1.55c.06.275.169.598.432.678.21.029.421-.025.591-.147.225-.119.461-.227.686-.324.103.333.223.661.364.98.429.96 1.107 1.787 1.963 2.395l-1.178.983.845.432c.885.565 1.899.903 2.945.982.188-.513.326-1.042.413-1.581.595-.068 1.176-.231 1.718-.481.795-.348 1.475-.914 1.965-1.629.355.219.686.48.983.775 0 0 .087.068.137.058.049-.01.068-.048.097-.087.227-.374.451-.746.668-1.12.349-.56.605-1.172.756-1.815-.55-.148-1.069-.334-1.629-.522.164-1.048.139-2.119-.08-3.16.643-.252 1.254-.581 1.818-.98.029-.016.054-.041.067-.07.024-.037.029-.083.018-.124-.012-.043-.039-.08-.076-.101zm-5.892 5.888c-.55.202-1.155.188-1.695-.036-.541-.225-.977-.644-1.223-1.173-.248-.53-.287-1.133-.108-1.691.176-.558.556-1.029 1.063-1.32.241-.17.514-.29.801-.354.288-.064.587-.07.877-.018.291.051.568.161.816.32.248.161.461.368.628.612.275.756.374 2.984-1.198 3.699z" opacity=".54"/></g><g opacity=".54"><g opacity=".54"><path d="m251.855 156.382h-.54c-3.093-.266-6.304-3.034-6.461-7.805-.128-3.749 1.139-7.047 3.388-8.833.731-.599 1.595-1.014 2.519-1.209.925-.194 1.883-.163 2.793.089.34.093.629.316.804.622s.222.668.129 1.007c-.092.339-.316.63-.622.805-.305.174-.668.22-1.008.127-.503-.145-1.035-.166-1.549-.062-.513.107-.993.338-1.397.671-1.561 1.238-2.475 3.79-2.376 6.655.108 3.221 2.111 5.075 4.026 5.242 1.64.147 2.867-.903 3.27-2.806.073-.345.279-.645.573-.839s.653-.262.998-.192c.341.082.637.293.825.591.187.297.25.655.177.998-.531 2.513-2.436 4.939-5.549 4.939z" opacity=".54"/><path d="m261.155 139.114c-.321-.071-.655-.062-.972.027-.316.089-.605.258-.84.489-.234.23-.407.517-.503.831-.095.316-.109.649-.042.971.082.296.229.571.43.806.201.234.451.42.733.546.281.124.587.186.895.18.309-.006.612-.079.888-.217.189-.104.356-.244.491-.413.259-.182.452-.443.55-.746.061-.269.067-.548.018-.821-.049-.271-.153-.531-.306-.763-.152-.231-.349-.429-.58-.582s-.49-.257-.762-.308z" opacity=".54"/><path d="m264.523 147.703c-.07-.199-.181-.383-.324-.538-.132-.285-.333-.533-.586-.721-.252-.186-.547-.306-.858-.351-.351-.052-.71-.002-1.031.149-.322.152-.592.392-.776.696-.166.277-.263.591-.283.913-.021.323.036.647.166.943.172.397.473.727.853.936s.819.289 1.248.221c.507-.091.958-.378 1.256-.798.297-.421.418-.94.335-1.45z" opacity=".2916"/></g><path d="m269.894 151.916c-.33-.002-.648-.126-.892-.351-.243-.223-.394-.529-.424-.858l-1.699-18.384c-.004-.337.118-.661.343-.911s.535-.407.87-.438c.334-.031.668.066.935.271.267.204.446.5.504.832l1.689 18.385c.033.351-.075.702-.3.973-.224.273-.547.446-.898.481z" opacity=".54"/></g></g><path d="m388.771 185.523c-43.275 36.32-67.755-12.986-58.005-38.477 0 0 12.619 7.243 13.208-1.276.589-8.52-7.944-2.484-11.587-5.712-3.643-3.23-2.269-7.607 1.08-8.718 3.348-1.108 4.91 0 5.558 4.222.609 3.788 6.54 4.249 7.856 1.051 1.315-3.201.471-13.693-14.848-14.135-.432-2.18 4.439-20.339-3.928-20.222-6.638.079-4.036 14.616-3.928 18.65-2.327-6.871-2.631-18.296-9.623-14.802-6.992 3.495 3.997 18.906 3.997 18.906s-7.483-12.692-11.99-6.803c-3.25 4.23.864 8.098 6.726 12.358 4.537 3.288 1.846 12.868 1.159 16.443-2.18 11.455-8.838 56.577 26.356 70.987 18.353 7.508 37.393 1.306 37.393 1.306z" fill="#ffc9ae"/><path d="m388.771 185.523-10.467 33.826s-19.041 6.204-37.384-1.315c-29.027-11.887-29.587-44.691-27.662-62.232-.285 18.012 4.154 42.385 28.3 52.269 18.343 7.519 37.393 1.315 37.393 1.315l6.58-21.271c1.06-.806 2.151-1.668 3.24-2.592z" fill="#ffb890"/><path d="m452.05 185.523c43.274 36.32 67.756-12.986 58.004-38.477 0 0-12.618 7.243-13.207-1.276-.589-8.52 7.944-2.484 11.587-5.712 3.643-3.23 2.269-7.607-1.079-8.718-3.35-1.108-4.91 0-5.559 4.222-.618 3.788-6.54 4.249-7.855 1.051-1.316-3.201-.473-13.693 14.846-14.135.432-2.18-4.438-20.339 3.929-20.222 6.638.079 4.036 14.616 3.927 18.65 2.328-6.871 2.632-18.296 9.623-14.802 6.992 3.495-3.996 18.906-3.996 18.906s7.483-12.692 11.99-6.803c3.249 4.23-.864 8.098-6.727 12.358-4.536 3.288-1.847 12.868-1.159 16.443 2.18 11.455 8.837 56.577-26.355 70.987-18.353 7.508-37.393 1.306-37.393 1.306z" fill="#ffc9ae"/><path d="m452.089 185.523 10.467 33.826s19.04 6.204 37.384-1.315c29.027-11.887 29.587-44.691 27.663-62.232.284 18.012-4.155 42.385-28.301 52.269-18.343 7.519-37.393 1.315-37.393 1.315l-6.58-21.271c-1.06-.806-2.151-1.668-3.24-2.592z" fill="#ffb890"/><path d="m473.191 193.112c-5.067-.678-18.951-6.783-24.187-9.984-12.912-10.198-42.979-10.796-56.118-.98-1.219.922-20.552 11.464-25.718 10.943-4.203-.411-5.489 34.474 0 35.995 1.807.496 3.639.895 5.49 1.197-.717 22.862-1.347 58.248 2.73 62.822 4.909 5.546 84.998 5.546 89.948 0 4.094-4.594 3.298-40.069 2.523-62.822 1.571-.273 3.408-.647 5.332-1.176 5.489-1.523 4.174-35.427 0-35.995z" fill="#4835a9"/><g fill="#fff" opacity=".8"><path clip-rule="evenodd" d="m449.934 204.12c-.211-.742-.782-1.275-1.586-1.482-.367-.095-.886-.093-1.227.004-.822.232-1.376.831-1.517 1.641-.058.331.01.56.207.695l.103.074 3.046.3-.02.054c-.077.237-.201.421-.393.586-.265.226-.577.315-.984.277-.411-.041-.686-.179-.93-.471-.167-.2-.233-.25-.368-.279-.113-.025-.277.008-.369.073-.098.07-.172.229-.174.369 0 .147.031.23.147.383.244.324.595.566 1.033.713.256.086.876.149 1.137.117.905-.113 1.554-.624 1.847-1.454.072-.207.079-.248.116-.633.043-.465.033-.614-.068-.967zm-2.491-.626c-.268.072-.469.188-.618.357-.093.104-.212.298-.248.405l-.018.054 2.472.236-.005-.048c-.002-.025-.033-.126-.066-.223-.107-.302-.363-.572-.659-.694-.188-.075-.202-.079-.484-.099-.196-.013-.287-.011-.374.012z" fill-rule="evenodd" opacity=".8"/><path clip-rule="evenodd" d="m442.374 202.144c-.502.023-.959.197-1.316.503-.347.299-.569.671-.701 1.175-.064.24-.099.734-.072.978.08.688.432 1.252 1.002 1.6.639.392 1.567.471 2.247.19.2-.083.307-.147.491-.298.182-.149.273-.283.286-.422.028-.293-.12-.479-.401-.506-.166-.018-.265.023-.436.176-.536.485-1.478.409-1.926-.153-.155-.194-.28-.5-.267-.653l.004-.046 1.465.139c1.306.124 1.474.136 1.567.114.134-.031.258-.122.328-.24.05-.083.06-.122.079-.341.049-.523-.103-1.009-.44-1.418-.453-.55-1.133-.835-1.91-.798zm.756 1.025c.189.094.375.251.474.404.08.124.177.371.192.485l.008.058-2.447-.233.019-.063c.081-.279.391-.586.707-.698.111-.039.173-.054.349-.079.021-.004.155.007.296.025.223.025.278.04.402.101z" fill-rule="evenodd" opacity=".8"/><path d="m451.628 200.849c.064-.135.17-.232.292-.267.117-.031.306-.014.417.039.112.054.19.147.236.279.035.102.033.12-.145 2.054l-.18 1.949 1.178-.849c1.263-.911 1.358-.974 1.488-1.004.103-.025.3.01.384.066.255.171.294.603.073.822-.041.041-.413.298-.823.573-.413.276-.75.508-.75.516-.002.01.118.194.265.411.148.217.44.649.651.961.442.651.504.779.485.988-.025.269-.2.459-.446.488-.141.018-.265-.019-.395-.116-.058-.045-.271-.357-.742-1.083-.363-.56-.667-1.033-.678-1.05-.014-.024-.109.029-.407.224l-.388.258-.064.556c-.062.554-.064.558-.133.678-.084.142-.19.209-.365.229-.215.027-.401-.06-.507-.235l-.008-.011c-.006-.01-.012-.018-.016-.025-.067-.121-.05-.293.21-3.029l.025-.258c.285-2.993.29-3.051.343-3.164z" opacity=".8"/><path d="m456.142 204.246c.215-.612.824-.973 1.673-.992.54-.014 1.197.122 1.59.325.212.109.473.314.554.436.169.248.086.62-.166.748-.215.113-.364.08-.643-.143-.291-.229-.62-.362-.985-.397-.176-.016-.471.009-.628.054-.412.122-.569.554-.269.744.149.095.285.126.884.207.722.097.994.171 1.296.355.442.269.614.672.554 1.296-.066.709-.506 1.168-1.252 1.312-.536.103-1.431.011-2.02-.204-.384-.139-.822-.467-.911-.682-.095-.224.004-.536.205-.656.074-.045.122-.055.24-.053.161.004.186.018.466.237.323.255.621.364 1.145.414.414.039.596.022.792-.077.184-.093.26-.188.285-.355.027-.17-.002-.259-.111-.347-.158-.128-.497-.217-1.015-.265-.736-.07-1.271-.281-1.529-.605-.201-.252-.267-.531-.226-.955.015-.168.042-.312.071-.397z" opacity=".8"/><g clip-rule="evenodd" fill-rule="evenodd"><path d="m434.922 202.365c.358-.402.889-.653 1.447-.682.624-.035 1.221.143 1.618.482.049.043.146.143.211.223l.122.143.008-.091c.016-.145.109-.316.217-.397.12-.085.237-.109.407-.078.24.043.393.206.421.45.007.081-.053.761-.198 2.228l-.018.178c-.17 1.733-.197 1.996-.286 2.236-.016.043-.035.086-.056.134l-.012.029c-.227.533-.645.928-1.192 1.128-.383.137-.744.172-1.275.12-.844-.081-1.515-.374-1.866-.81-.127-.159-.164-.277-.147-.467.029-.306.225-.471.529-.442.149.014.219.057.428.258.165.161.339.273.558.362.223.089.857.155 1.08.113.449-.087.788-.357.949-.752.031-.079.062-.234.093-.461l.043-.341-.173.135c-.298.237-.67.376-1.077.407-.231.018-.727-.036-.932-.1-.98-.312-1.521-1.115-1.513-2.242.006-.665.242-1.345.614-1.763zm3.21 1.381c-.096-.446-.391-.785-.823-.949-.174-.068-.603-.119-.775-.095-.506.069-.876.37-1.054.85-.072.194-.114.638-.079.841.108.653.623 1.085 1.309 1.101.651.015 1.122-.273 1.345-.826.056-.135.07-.207.093-.449.021-.25.019-.314-.016-.473z" opacity=".8"/><path d="m443.628 198.544c-.014.009-.02.019-.02.032 0 .006.008.169.018.365.015.316.023.441.033.513l.003.023.022.004c.029.008.085.008.124 0 .114-.021.242-.089.347-.182.042-.037.1-.106.127-.149.029-.045.057-.109.064-.147.008-.043.004-.109-.009-.14-.012-.027-.039-.054-.068-.066-.021-.009-.025-.009-.064-.007-.047.002-.078.011-.134.038-.102.049-.225.148-.296.241-.014.017-.025.031-.027.031 0 0-.006-.064-.01-.142-.017-.279-.027-.401-.031-.407-.016-.019-.056-.023-.079-.007zm2.263-.109c-.026.012-.024-.01-.008.345.015.393.031.583.043.591.011.006.052.01.096.008.076-.004.146-.028.233-.076.083-.045.143-.091.203-.155.101-.107.157-.223.153-.318-.005-.133-.1-.182-.242-.128-.07.028-.164.09-.234.152-.031.029-.093.094-.115.124l-.013.019-.006-.091c-.004-.049-.012-.171-.017-.269-.008-.123-.014-.185-.016-.19-.011-.02-.054-.026-.077-.012zm-1.475.074c-.01.005-.019.013-.023.021l-.006.01.01.155c.011.155.017.255.04.573l.012.175.01.005c.029.022.075.018.085-.007.002-.012.002-.014-.021-.363-.008-.099-.018-.242-.024-.319-.011-.181-.017-.241-.019-.245-.012-.015-.041-.017-.064-.005zm2.257-.107c-.007.006-.017.016-.021.021-.008.012-.008.016-.004.053.002.021.008.099.012.172.015.206.027.38.037.498.004.058.007.124.009.147v.039l.012.008c.021.017.052.019.072.008.019-.016.021.029-.018-.506-.006-.066-.013-.19-.019-.277l-.012-.157-.009-.008c-.016-.011-.039-.01-.059.002zm-1.652.357c-.148.031-.305.17-.38.335-.035.075-.049.145-.043.207.006.054.012.068.031.087.029.031.066.043.142.043.093 0 .176-.027.252-.083.033-.026.085-.084.108-.119.008-.013.018-.025.018-.025.001 0 .005.043.007.097l.006.097.012.014c.019.029.042.034.068.019.009-.004.019-.014.023-.019.006-.01.008-.014.002-.045-.01-.054-.012-.079-.022-.254-.013-.203-.019-.238-.048-.294-.017-.035-.037-.053-.064-.058-.017-.006-.093-.006-.112-.002zm2.251-.107c-.056.012-.135.054-.194.105-.116.095-.197.23-.219.356-.007.049 0 .128.018.155.019.031.064.051.126.054.103.006.192-.019.273-.079.041-.029.091-.083.116-.124.01-.014.016-.021.018-.017.002.001.004.042.006.091.003.096.007.106.031.126.023.019.044.017.069-.008l.016-.016-.004-.023c-.008-.041-.018-.136-.021-.225-.004-.114-.014-.219-.026-.261-.019-.084-.044-.122-.089-.134-.021-.006-.093-.006-.12 0zm-2.193.211c.075.018.068.153-.018.297-.056.095-.147.17-.224.191-.049.012-.09.004-.115-.023-.021-.019-.027-.035-.027-.07-.002-.034.006-.069.025-.116.039-.085.124-.186.2-.234.06-.037.12-.054.159-.045zm2.273-.102c.048.023.052.106.007.215-.035.087-.099.168-.17.22-.043.033-.091.053-.132.055-.037.002-.077-.022-.093-.053-.05-.095.078-.321.231-.406.064-.037.122-.049.157-.031zm-3.134.151c.016.005.028.017.037.035.01.019.01.021-.004.06-.036.096-.11.188-.215.267-.091.068-.219.122-.259.11l-.014-.003v-.03c.002-.079.045-.166.128-.259.072-.08.153-.142.225-.169.011-.004.025-.009.027-.011.012-.004.064-.004.075 0zm2.26-.107c.027.01.042.033.04.06 0 .021-.033.093-.056.13-.06.087-.151.17-.252.225-.071.04-.141.064-.17.058-.016-.002-.018-.004-.018-.031 0-.049.022-.111.059-.173.023-.036.085-.112.124-.147.056-.05.127-.097.178-.114.031-.012.075-.016.095-.008z" opacity=".8"/><path d="m447.507 197.503c-.086.004-.214.01-.285.01-.07 0-.237.005-.367.011l-.42.02c-.101.005-.242.013-.318.017-.182.008-.482.021-.562.025-.034 0-.108.006-.162.01-.053.006-.19.014-.303.017-.114.004-.265.012-.337.016-.071.004-.176.008-.232.01s-.159.007-.227.011-.227.012-.355.018c-.364.017-.387.019-.67.066-.281.046-.463.125-.568.248-.04.048-.104.209-.112.28-.002.022.004.15.012.285.015.215.015.256-.004.316-.037.122-.101.18-.219.202-.105.019-.14.036-.165.083-.031.062-.025.12.019.172.031.039.043.043.144.055.132.015.184.044.23.133.039.072.051.151.051.357 0 .157.021.329.046.382.01.017.016.038.014.048-.002.025.103.143.159.18.027.018.089.049.137.066.049.019.093.039.099.043s.012.071.014.149c0 .079.005.196.009.261.008.107.014.124.049.167.031.035.052.047.091.05.07.008.106-.015.273-.172.081-.077.219-.205.304-.287.173-.162.18-.166.363-.168.075 0 .255-.01.575-.029.089-.006.192-.01.227-.012.062-.002.195-.008.6-.029.103-.004.229-.01.279-.012.155-.004.382-.017.529-.029.157-.013.407-.025.68-.035l.175-.005.072.056c.038.031.093.075.118.097.166.139.505.389.533.391.093.01.184-.068.182-.159-.004-.11-.02-.449-.024-.469-.002-.013.016-.031.053-.048.1-.051.188-.113.234-.169.089-.108.134-.271.118-.438-.017-.193-.015-.389.004-.457.033-.116.118-.188.242-.199.101-.01.165-.093.142-.185-.016-.063-.06-.095-.161-.108-.118-.018-.159-.037-.209-.099-.054-.068-.076-.174-.076-.38 0-.329-.05-.478-.207-.61-.128-.108-.465-.172-.794-.153zm.658.738c.002-.207-.038-.314-.151-.397-.044-.033-.072-.041-.17-.054-.126-.018-.258-.02-.467-.006-.072.004-.258.01-.413.013-.157.004-.339.012-.407.016s-.196.008-.285.012c-.242.005-.66.023-1.149.048-.131.006-.317.016-.414.019-.407.018-.958.055-1.269.086-.237.023-.374.081-.458.193-.033.045-.033.047-.037.237 0 .104.004.221.012.256.019.104 0 .255-.044.335-.033.062-.136.157-.198.184-.029.013-.021.042.012.044.04.004.151.088.193.148.056.079.084.19.084.354 0 .266.021.401.075.463.039.045.163.122.202.126.04.004.104.053.126.097.015.029.033.266.025.343 0 .014.004.023.009.021.014-.005.138-.127.256-.255.049-.055.118-.122.153-.153.072-.062.093-.068.351-.076.087-.004.167-.008.178-.01.012-.004.113-.007.221-.011.109-.004.233-.01.275-.012.043-.004.192-.012.332-.017.137-.006.288-.012.335-.016.155-.008.432-.023.661-.035l.406-.019c.099-.006.254-.012.341-.014.09-.002.216-.007.279-.011l.117-.006.106.089c.06.05.167.14.239.198.073.06.137.114.145.124.015.015.041.023.043.011 0-.004-.004-.046-.01-.097-.006-.048-.01-.133-.01-.188 0-.094.002-.1.041-.139.021-.021.056-.047.079-.054.068-.027.159-.095.198-.146.045-.06.062-.135.054-.236-.025-.304-.025-.451-.006-.519.029-.093.107-.188.19-.233.039-.019.068-.04.064-.046-.002-.006-.029-.02-.058-.029-.062-.024-.176-.126-.205-.186-.043-.091-.057-.198-.051-.452z" opacity=".8"/></g></g><path d="m429.838 169.22h-18.954c0 11.573-1.06 17.355 9.477 17.355s9.477-5.743 9.477-17.355z" fill="#ffb890"/><path d="m524.626 308.221c-4.497-18.433-34.958-23.871-51.336-23.557h-103.196c-16.379-.305-46.84 5.134-51.337 23.557-4.448 18.238.786 53.006 102.939 33.305 102.155 19.711 107.379-15.067 102.93-33.305z" fill="#2a1879"/><path d="m524.626 307.878c5.243 18.651-.883 54.252-106.346 32.923 0 0 3.121-20.124-1.68-33.836 61.315-22.036 103.853-13.968 108.026.913z" fill="#5a47b9"/><path d="m418.28 340.83s.333-2.131.618-5.477c94.682 18.748 107.898-9.06 105.504-28.151.091.234.168.47.234.705 5.245 18.641-.883 54.233-106.356 32.923z" fill="#301b8b"/><path d="m460.308 347.327c-3.6.252-7.217.168-10.802-.244-15.318-1.492-34.733-6.784-34.733-6.784l10.693-28.259s14.79-.638 26.71-.539c5.892.058 11.116.283 13.464.862 10.291 2.552 10.644 33.375-5.332 34.964z" fill="#4835a9"/><path d="m425.242 319.813c.393 0 23.95.787 23.253 1.12-.698.333-1.572 14.989-1.572 14.989s-23.851-3.348-23.566-3.72c.284-.374 1.885-12.389 1.885-12.389z" fill="#919191"/><path d="m460.308 347.327c-3.6.252-7.217.169-10.802-.244-3.23-4.722-4.91-11.632-4.084-19.083.523-6.057 2.879-11.812 6.754-16.499 5.892.058 11.116.283 13.464.862 10.291 2.554 10.644 33.375-5.332 34.964z" fill="#fff"/><path d="m460.308 347.327c-2.052.174-4.111.207-6.167.099.422 0 .825-.049 1.217-.089 15.987-1.55 15.615-32.391 5.293-34.964-2.798-.575-5.646-.864-8.504-.862 4.734 0 10.341.087 13.462.852 10.322 2.552 10.675 33.375-5.301 34.964z" fill="#d1d1d1"/><path d="m444.41 338.769c-.321 0-.633-.105-.891-.299-.256-.192-.444-.463-.533-.771-1.209-4.309-.492-9.719.403-13.743-1.759 3.082-3.35 7.676-2.829 12.063.023.194.008.39-.046.578-.053.188-.144.362-.264.515s-.271.279-.44.374c-.17.095-.358.155-.552.178-.389.047-.783-.066-1.091-.31s-.507-.6-.552-.99c-.982-7.981 4.331-18.297 8.483-18.994.256-.045.517-.019.759.07.245.091.46.242.624.441.165.198.275.438.318.692.045.256.019.518-.07.76 0 .108-3.84 10.798-1.964 17.55.11.372.067.772-.117 1.111-.184.341-.494.594-.866.705-.12.041-.246.064-.372.07z" fill="#d1d1d1"/><path d="m433.176 337.05c-.358 0-.705-.132-.974-.37-.268-.239-.438-.568-.479-.924-.982-7.981 4.331-18.297 8.485-19.004.192-.033.391-.027.581.017.192.045.372.126.531.24.161.115.296.258.399.425.105.166.174.35.205.544.033.194.028.392-.017.583-.045.19-.126.371-.24.531-.113.159-.258.295-.425.398-.166.104-.35.174-.544.207-1.738.294-6.933 8.304-6.049 15.754.044.388-.068.777-.31 1.083-.244.305-.599.502-.986.547z" fill="#d1d1d1"/><path d="m427.166 336.422c-.361 0-.711-.134-.981-.374-.269-.24-.441-.571-.482-.932-.982-7.979 4.34-18.287 8.494-18.992.19-.033.386-.027.576.015.188.043.366.124.525.237.157.11.29.254.393.416.103.165.173.347.206.539.06.384-.033.777-.26 1.095-.225.316-.566.533-.949.602-1.738.295-6.933 8.305-6.059 15.706.023.192.009.386-.043.574-.052.186-.141.36-.26.511-.12.154-.267.281-.436.376-.168.095-.354.155-.548.179z" fill="#d1d1d1"/><path d="m444.459 338.259c-.186-.004-.368-.041-.541-.108-3.927-1.562-6.873-12.761-4.311-20.359.066-.184.165-.352.294-.496.13-.145.287-.261.462-.346.176-.084.366-.132.56-.142.193-.011.387.018.569.082.184.063.353.164.498.294.144.128.262.285.345.461.083.175.132.364.143.558.01.194-.017.388-.081.57-2.426 7.097.982 16.02 2.612 16.688.322.124.591.357.76.659.166.302.222.655.156.994-.063.339-.248.645-.515.864-.269.217-.606.333-.951.33z" fill="#fff"/><path d="m438.499 337.62c-.19.002-.376-.035-.551-.109-3.927-1.559-6.874-12.759-4.301-20.346.064-.184.165-.353.294-.496.13-.146.287-.264.462-.347.174-.084.364-.132.56-.144.193-.009.387.018.569.084.184.064.353.162.496.292.146.13.264.287.347.461.083.177.132.367.143.56.01.194-.017.388-.083.57-2.424 7.088.983 16.01 2.614 16.687.316.129.577.362.74.662.163.301.217.647.151.983-.064.335-.244.637-.507.854-.264.217-.593.337-.934.339z" fill="#fff"/><path d="m432.537 336.992c-.188-.002-.374-.039-.549-.109-3.929-1.559-6.874-12.76-4.311-20.358.064-.182.165-.35.295-.496.128-.143.285-.261.461-.345.174-.083.364-.131.558-.143.194-.01.387.017.572.081.182.066.35.165.496.295.145.13.261.287.344.461.086.174.134.364.144.558.011.194-.018.388-.082.572-2.425 7.097.983 16.02 2.612 16.686.322.124.591.357.758.659.168.3.225.651.161.99s-.246.645-.512.864c-.267.219-.602.337-.947.333z" fill="#fff"/><path d="m469.971 297.287c-4.989 4.063-93.661 4.671-99.326 0-5.667-4.672-12.099-75.328-8.662-78.722 3.437-3.397 111.945-3.083 116.649 0 4.703 3.08-3.674 74.659-8.661 78.722z" fill="#c9c9c9"/><path d="m474.193 283.201c-1.444 7.597-2.947 13.045-4.212 14.086-4.99 4.063-93.671 4.671-99.337 0-5.666-4.672-12.049-75.328-8.661-78.722.471-.461 5.499 45.938 20.012 58.492 25.435 21.987 74.287 16.568 92.198 6.144z" fill="#c9c9c9" opacity=".0441"/><path d="m353.43 292.379c22.822 1.463 59.899 13.987 74.462 17.806-2.179 3.436-5.518 30.949-4.036 32.391-106.366 21.596-109.636-17.314-105.07-35.121 1.405-5.634 10.615-16.626 34.644-15.076z" fill="#7363c7"/><path d="m423.856 342.557c-98.834 20.034-108.644-12.102-105.914-31.046 2.838 17.992 23.214 37.759 105.914 21.005z" fill="#301b8b"/><path d="m466.857 123.724c-.145.102-.308.178-.48.225-1.411.341-2.852.536-4.302.579l-1.552.079h-.234l-1.248.049h-.982-1.816c-18.039.354-54.008-1.109-71.026-1.874h-.915l-2.493-.108-1.169-.059-4.743-.226c-.575-.636-1.108-1.312-1.591-2.023-3.348-4.751-7.217-13.162-4.987-14.9 2.602-2.032 6.501-.5 6.578-1.688.08-1.188-6.136-10.3263-3.623-13.2023 2.515-2.8761 2.525-.3338 3.623-1.3546.64-.589-1.149-4.9079-1.53-9.2072-.061-.589-.08-1.178-.08-1.7572 0-2.5126.736-4.9079 2.877-6.3016 1.072-.6673 2.039-1.4911 2.868-2.4442 1.678-2.1105-.355-2.7681 2.445-4.3189 3.662-2.032 8.406.9816 8.406.9816s6.599-12.3483 9.986-12.8588c3.389-.5104 3.044 4.5643 5.892 3.9263s7.109-6.5961 10.664-7.7839c5.135-1.708-1.453 5.4183.983 5.4183 2.433 0 7.963-6.7728 15.917-7.9507 2.779 2.3753-1.149 6.3016 5.106 7.2832 6.254.9816 3.388 6.4295 7.454 8.2944 4.065 1.8651 1.393 4.0932 5.46 5.4477 4.065 1.3546 4.741-.8833 5.9 3.5239 1.158 4.4074.147 5.2418 4.468 7.6172 4.32 2.3753 8.839 4.2306 6.58 9.4721-2.259 5.2418-2.641 8.9718 0 7.9509s3.152-1.1778 2.474 1.8649c-.678 3.0429-5.755 10.1599-1.521 10.1599 4.232 0 .461 12.162-3.389 15.185z" fill="#b64401"/><path d="m466.857 123.724c-.145.102-.308.178-.48.225-1.411.341-2.852.536-4.302.579l-1.552.079h-.234l-1.248.049h-.982-1.816c-18.039.354-54.008-1.109-71.026-1.874h-.915l-2.493-.108-1.169-.059-4.743-.226c-.575-.636-1.108-1.312-1.591-2.023-3.348-4.751-7.217-13.162-4.987-14.9 2.602-2.032 6.501-.5 6.578-1.688.08-1.188-6.136-10.3263-3.623-13.2023 2.515-2.8761 2.525-.3338 3.623-1.3546.64-.589-1.149-4.9079-1.53-9.2072-.061-.589-.08-1.178-.08-1.7572 0-2.5126.736-4.9079 2.877-6.3016 1.072-.6673 2.039-1.4911 2.868-2.4442 1.678-2.1105-.355-2.7681 2.445-4.3189 3.662-2.032 8.406.9816 8.406.9816s6.599-12.3483 9.986-12.8588c3.389-.5104 3.044 4.5643 5.892 3.9263s7.109-6.5961 10.664-7.7839c5.135-1.708-1.453 5.4183.983 5.4183 2.433 0 7.963-6.7728 15.917-7.9507 2.779 2.3753-1.149 6.3016 5.106 7.2832 6.254.9816 3.388 6.4295 7.454 8.2944 4.065 1.8651.412 3.1116 4.477 4.4662 4.065 1.3545 5.724.0982 6.883 4.5054 1.158 4.4074.147 5.2418 4.468 7.6172 4.32 2.3753 8.839 4.2306 6.58 9.4721-2.259 5.2418-2.641 8.9718 0 7.9509s3.152-1.1778 2.474 1.8649c-.678 3.0429-5.755 10.1599-1.521 10.1599 4.232 0 .461 12.162-3.389 15.185z" fill="#b64401"/><path d="m463.676 121.515v.982c-.027.461-.192.905-.471 1.273-.279.37-.663.647-1.101.798-.494.192-1.038.219-1.552.078h-.087c-.048.01-.099.01-.147 0-.407.114-.833.132-1.248.048-.356-.06-.694-.209-.982-.43-.322-.252-.562-.593-.686-.982-.101-.291-.144-.597-.128-.903.182-3.683-.174-7.375-1.062-10.955-.085-.302-.105-.619-.06-.93.047-.311.159-.609.329-.873.169-.265.394-.49.657-.662.264-.171.56-.284.872-.332.043-.005.085-.005.128 0-.184-.805-.399-1.6-.649-2.385-.401-1.311-.895-2.59-1.482-3.829-.07-.147-.138-.304-.217-.441l-.235-.432v-.049c-.054-.116-.118-.227-.186-.334-.112-.222-.24-.436-.383-.638-.512-.8422-1.093-1.6401-1.738-2.3853-.051-.0589-.099-.1277-.157-.1866-3.252-3.7103-7.758-6.0464-12.511-7.941-11.401-4.525-24.668-4.1914-36.607-1.3937.116.4195.145.8591.083 1.2904-.062.4315-.213.8452-.444 1.2147-.23.3697-.536.6869-.897.9316-.36.2447-.769.4115-1.197.4896-6.069 2.0219-10.715 5.2317-15.712 8.7753l-1.965 1.404c.004 2.123-.186 4.242-.569 6.331-.031.196-.076.39-.138.579.802 1.897 1.411 3.87 1.818 5.89l.077.087c.355.405.636.866.835 1.366.341.798.463 1.674.355 2.536-.109.863-.444 1.68-.973 2.372-.25.355-.537.684-.854.98l-.08.08c-.329.597-.754 1.137-1.255 1.598-.68.587-1.467 1.037-2.318 1.326-.226.079-.461.157-.697.217-.132.044-.266.081-.403.106-1.76.392-3.6.134-5.185-.724-1.031-.584-1.977-1.306-2.808-2.151.411-.895 1.015-1.69 1.767-2.325.268-.223.554-.425.855-.601-3.348-4.749-7.218-13.162-4.99-14.899 2.603-2.032 6.501-.501 6.581-1.689.077-1.187-6.139-10.3259-3.624-13.2019 2.513-2.8759 2.523-.3338 3.624-1.3545.637-.589-1.149-4.9079-1.533-9.2072h.07c-.084-.5759-.132-1.156-.148-1.7375 0-2.5128.737-4.9079 2.878-6.3018 1.071-.6673 2.038-1.4909 2.867-2.444.095.0217.186.0625.266.1203.079.0577.147.131.197.2154.051.0845.084.1783.097.2758.012.0976.006.1966-.021.2916-1.168 3.4551-2.542 6.0954-1.188 9.7569.824-.9316 1.699-1.8165 2.622-2.6505 1.964-1.7864 4.762.7658 3.418 2.7388.717.0293 1.428.138 2.121.3238 1.502-3.4256 3.211-6.6746 6.991-8.3041 1.415-.6086 3.339.4024 2.798 2.1594-.138.4319-.294.9816-.451 1.4724.354-.6086.639-1.0895.806-1.335.662-.8471 1.586-1.453 2.627-1.7245 1.042-.2712 2.143-.1931 3.137.2227 1.963-1.9632 4.026-3.7888 6.107-5.5752 3.457-2.9448 6.737-4.9767 11.362-4.2995 2.945.4222 3.054 4.7509.785 6.0367-.746.4712-1.473.9816-2.18 1.4922-.783.624-1.515 1.3099-2.189 2.0515-.177.2648-1.671 2.1102-2.622 3.1801.058.0787.138.1376.186.2161 2.643-.6385 5.214-1.5497 7.669-2.7191 3.253-1.4609 6.758-2.2774 10.322-2.4049.552.0227 1.094.1616 1.588.4079.496.2464.934.5946 1.285 1.0219.351.4272.608.9238.754 1.4572.147.5334.178 1.0917.093 1.6383 3.476.1274 6.954.1472 10.449 0 .31.0069.616.0837.893.2245.277.1409.518.3424.708.5892.188.2471.317.5333.381.8377.062.3042.056.6188-.019.9203-.109.7367-.302 1.458-.579 2.1496.982-.1178 1.895-.1963 2.848-.2258.217.0252.418.1219.573.2746.157.1527.256.3526.287.5687.029.216-.015.4355-.124.6241-.11.1885-.279.3354-.48.4173-1.965.6576-3.928 1.1289-5.893 1.6981-.271.0671-.556.0564-.823-.031-.266-.0872-.502-.2474-.68-.4625-.18-.2148-.295-.4758-.333-.7531-.037-.2773.003-.5596.118-.8148-1.411.4823-2.881.7632-4.369.8344 2.191.6558 4.326 1.4896 6.382 2.4932 13.247 6.6159 18.128 22.7232 17.764 36.5542z" fill="#b64401" opacity=".0961"/><path d="m383.479 144.611c-.19.012-.38.012-.57 0-12.069-.667-14.543-14.724-11.263-21.24.411-.897 1.016-1.689 1.767-2.327.268-.223.554-.422.855-.599 2.573-1.552 4.753-.49 6.305.983.432.414.833.864 1.197 1.344.436.56.824 1.159 1.159 1.787.099.167.147.263.147.263z" fill="#ffb890"/><path d="m377.872 132.047c.039-.269.087-.523.147-.765.484-1.653 1.248-3.209 2.259-4.604.215-.323-.207-.736-.54-.54-2.947 1.806-5.598 5.663-4.35 9.287.98 2.776 5.518 4.603 6.981 1.255 1.159-2.631-1.62-6.419-4.497-4.633z" fill="#f29b62"/><path d="m455.555 145.946h-.079-.51v-.676l.392-19.151c.248-.487.527-.956.835-1.403.538-.806 1.176-1.543 1.895-2.19 1.709-1.511 4.125-2.445 6.932-.166.533.439.989.968 1.347 1.559 3.889 6.175 1.738 21.331-10.812 22.027z" fill="#ffb890"/><path d="m460.564 133.412c-.041-.256-.089-.51-.149-.766-.483-1.648-1.246-3.204-2.258-4.594-.217-.323.206-.736.541-.54 2.945 1.808 5.596 5.665 4.35 9.287-.982 2.778-5.52 4.603-6.983 1.255-1.159-2.629 1.66-6.419 4.499-4.642z" fill="#f29b62"/><path d="m458.245 112.308c0 3.582 0 6.998-.148 10.247 0 .727-.048 1.444-.077 2.151-.118 3.081-.308 6.026-.57 8.834-.186 1.962-.403 3.819-.678 5.615-.343 2.385-.765 4.642-1.286 6.772.005.027.005.052 0 .079-1.502 6.173-3.761 11.228-7.09 15.156-5.822 6.87-14.925 10.325-29.037 10.325-14.316 0-23.487-3.544-29.302-10.639-2.904-3.72-5.018-7.991-6.216-12.556-.333-1.178-.647-2.394-.922-3.66-.484-2.179-.881-4.47-1.188-6.872-.236-1.736-.422-3.554-.579-5.428-.256-3.016-.436-6.208-.541-9.571 0-.421 0-.853 0-1.285-.089-2.945-.118-5.89-.118-9.07-.038-36.1418 77.752-36.1418 77.752-.098z" fill="#ffc9ae"/><path d="m449.526 159.679c-.363.491-.746.981-1.14 1.432-5.822 6.873-14.925 10.328-29.036 10.328-14.317 0-23.49-3.544-29.303-10.642-2.904-3.718-5.02-7.99-6.215-12.553-.334-1.178-.647-2.395-.923-3.662-.484-2.178-.881-4.47-1.187-6.871-.237-1.738-.423-3.554-.58-5.427-.255-3.017-.436-6.208-.54-9.572 0-.422 0-.854 0-1.284-.089-2.946-.118-5.891-.118-9.071-.014-3.401.747-6.76 2.228-9.821 1.48-3.0619 3.641-5.7459 6.314-7.8478-2.763 3.7921-4.229 8.3738-4.183 13.0648 0 3.151 0 6.174.118 9.071v1.284c.105 3.372.285 6.561.541 9.572.157 1.874.343 3.689.579 5.427.314 2.434.709 4.742 1.188 6.921.275 1.266.589 2.482.922 3.66 1.198 4.565 3.312 8.836 6.216 12.556 5.815 7.095 14.985 10.639 29.302 10.639 11.736-.058 20.013-2.443 25.817-7.204z" fill="#ffb890"/><path d="m400.398 139.321c-4.439 0-8.936-3.495-8.936-10.17 0-.39.155-.764.432-1.041.275-.275.651-.43 1.04-.43.392 0 .766.155 1.043.43.275.277.43.651.43 1.041 0 4.968 3.104 7.225 5.991 7.225s5.999-2.257 5.999-7.225c0-.39.157-.764.432-1.041.277-.275.651-.43 1.042-.43.39 0 .766.155 1.041.43.277.277.432.651.432 1.041 0 6.675-4.497 10.17-8.946 10.17z" fill="#b64401"/><path d="m439.814 139.321c-4.439 0-8.936-3.495-8.936-10.17 0-.39.155-.764.432-1.041.275-.275.651-.43 1.041-.43.391 0 .765.155 1.042.43.275.277.43.651.43 1.041 0 4.968 3.104 7.225 5.991 7.225s5.989-2.257 5.989-7.225c0-.39.155-.764.432-1.041.278-.275.652-.43 1.041-.43.391 0 .765.155 1.042.43.277.277.432.651.432 1.041 0 6.675-4.487 10.17-8.936 10.17z" fill="#b64401"/><path d="m404.316 109.854c-.248-.002-.492-.065-.711-.185-.217-.12-.401-.293-.537-.502-.98-1.551-1.963-2.405-2.67-2.405s-1.68.854-2.672 2.405c-.095.177-.227.332-.385.457-.159.124-.342.214-.537.265-.196.05-.399.06-.599.029-.198-.031-.389-.102-.56-.21-.17-.108-.316-.249-.43-.416-.112-.166-.192-.355-.229-.552-.038-.198-.035-.402.01-.599.043-.196.128-.382.246-.545 1.61-2.542 3.3-3.779 5.156-3.779s3.554 1.237 5.166 3.779c.205.332.273.731.186 1.111-.088.38-.32.711-.649.921-.235.146-.508.224-.785.226z" fill="#b64401"/><path d="m443.732 109.854c-.248-.001-.494-.064-.711-.184-.219-.12-.403-.293-.537-.503-.98-1.551-1.962-2.405-2.67-2.405-.707 0-1.728.854-2.71 2.414-.097.177-.229.333-.388.457s-.341.214-.535.265c-.195.051-.399.061-.598.03-.2-.031-.39-.103-.56-.21-.171-.108-.318-.25-.43-.416-.115-.167-.192-.355-.231-.553-.037-.198-.033-.402.01-.598.044-.197.129-.382.248-.545 1.61-2.542 3.29-3.779 5.156-3.779 1.864 0 3.553 1.237 5.163 3.779.208.331.273.73.188 1.111-.087.38-.32.711-.649.921-.227.134-.482.209-.746.216z" fill="#b64401"/><path d="m421.029 149.333h-.461c-1.28 0-2.319 1.036-2.319 2.317v4.29c0 1.279 1.039 2.315 2.319 2.315h.461c1.279 0 2.318-1.036 2.318-2.315v-4.29c0-1.281-1.039-2.317-2.318-2.317z" fill="#b64401"/><g fill="#f29d86" opacity=".68"><path d="m401.752 151.778c.002 1.434-.327 2.85-.961 4.139-.635 1.286-1.559 2.41-2.699 3.284-1.139.872-2.466 1.471-3.875 1.748-1.408.277-2.862.224-4.247-.151-2.904-3.719-5.02-7.991-6.216-12.554.802-2.025 2.288-3.705 4.201-4.747 1.912-1.043 4.131-1.385 6.268-.965s4.061 1.573 5.435 3.263c1.376 1.688 2.118 3.805 2.094 5.983z" opacity=".68"/><path d="m455.555 145.946h-.079c-1.502 6.175-3.761 11.23-7.09 15.156h-.118c-1.542.004-3.063-.376-4.423-1.105-1.363-.728-2.521-1.782-3.374-3.069-.854-1.286-1.375-2.763-1.517-4.299-.143-1.537.099-3.085.7-4.505.602-1.421 1.548-2.67 2.753-3.637 1.203-.965 2.627-1.618 4.146-1.899 1.517-.281 3.081-.18 4.552.291 1.468.471 2.8 1.3 3.871 2.41.182.18.353.374.51.579z" opacity=".68"/></g><path d="m441.992 256.473c-.816-1.431-2.581-2.542-4.822-2.145-2.242.4-4.914 4.564-5.879 4.699-.5.072-.843-.312-1.052-.697.707-1.136.709-1.248.874-1.957.036-.186.009-.382-.078-.553.434-.271.673-.563.673-.87 0-1.36-4.689-2.462-10.471-2.462s-10.471 1.102-10.471 2.462c0 .307.238.599.672.87-.089.171-.116.367-.077.553.165.709.165.821.882 1.97.716 1.151.606 2.846-.332 3.722-.604.566-1.74 1.729-2.362 3.306-.908.019-2.036-.023-2.817-.295-1.988-.693-3.712-7.363-4.206-8.159-.584-.965-1.107-1.31-2.903-1.31s-3.251.403-3.251.901c0 .386.874.717 2.102.845.659.318 1.719 1.269 2.195 4.108.713 4.27.167 7.719 4.3 9.688 2.203 1.052 3.987 1.277 5.26 1.201.803 1.802 2.097 3.42 4.162 4.272 3.236 1.335 5.573 1.465 6.846 1.357 1.275.108 3.61-.022 6.843-1.357 1.144-.47 2.145-1.224 2.911-2.187.724.039 1.462.064 1.771.01.687-.113.323-1.595.918-3.17.593-1.574 5.235-4.001 7.21-7.001 1.974-2.999 1.916-6.367 1.1-7.799zm-1.217 3.046c-.379 4.641-3.569 6.077-5.58 7.499-.5.354-1.221 1.129-1.992 2.05.045-.258.082-.516.113-.764.383-3.038-1.779-5.322-2.73-6.215.608-.338 1.249-.715 1.854-1.111 2.135-1.404 3.398-3.365 5.142-4.414 1.746-1.05 3.387.58 3.193 2.955z" fill="#fff"/><path d="m412.084 253.84c.496-.643.951-2.079 1.71-2.844.758-.767 1.822-.767 2.703-2.354.812-1.455 1.508-3.972 2.696-4.501v-.907h.298v-.719h-2.093c.46-.636 1.099-1.259 1.845-1.664l.783-1.614c-.359-.198-.642-.508-.802-.88-.163-.374-.194-.789-.093-1.182.102-.393.335-.742.658-.99.324-.25.723-.384 1.132-.384.411 0 .808.134 1.133.384.324.248.555.597.657.99.103.393.072.808-.091 1.182-.161.372-.443.682-.802.88l.783 1.614c.746.405 1.385 1.028 1.844 1.664h-2.096v.719h.3v.907c1.188.527 1.882 3.044 2.695 4.501.882 1.587 1.946 1.587 2.703 2.354.758.765 1.215 2.201 1.711 2.844 0 0-4.908.611-8.837.611s-8.837-.611-8.837-.611z" fill="#fff"/><path d="m420.921 252.488h-.025c-5.704 0-10.328 1.102-10.328 2.462 0 .307.235.599.663.87-.087.171-.114.367-.075.553.162.709.162.821.87 1.97.707 1.151.596 2.846-.326 3.722-.599.566-1.717 1.729-2.331 3.306-.895.019-2.009-.023-2.778-.295-1.961-.693-3.662-7.363-4.151-8.159-.575-.965-1.091-1.31-2.862-1.31-1.77 0-3.206.403-3.206.901 0 .386.862.717 2.073.845.649.318 1.695 1.269 2.166 4.108.704 4.27.163 7.719 4.24 9.688 2.174 1.052 3.933 1.277 5.188 1.201.791 1.802 2.068 3.42 4.106 4.272 3.19 1.335 5.497 1.465 6.751 1.357h.025z" fill="#fff"/><path d="m412.084 253.842c.494-.645.949-2.079 1.705-2.846.757-.765 1.815-.766 2.697-2.352.808-1.457 1.501-3.974 2.685-4.503v-.907h.299v-.717h-2.087c.457-.636 1.095-1.261 1.839-1.666l.781-1.614c-.359-.198-.64-.508-.801-.88-.162-.374-.193-.791-.093-1.184.103-.393.334-.74.657-.99.324-.248.721-.384 1.13-.382h.025v18.65h-.025c-3.918 0-8.812-.611-8.812-.611z" fill="#fff"/><path d="m386.556 68.7574s5.369 18.8242 32.892 18.8242c27.522 0 32.897-18.8242 32.897-18.8242l-6.714-42.0338h-52.367l-6.712 42.0338z" fill="#ef3b3b"/><path d="m393.427 26.7229c0 8.1307 11.648 14.7245 26.021 14.7245s26.022-6.6 26.022-14.7245c0-8.1243-11.651-14.7229-26.022-14.7229-14.373 0-26.021 6.5922-26.021 14.7229z" fill="#f1614e"/><path d="m393.622 65.3752c.504-1.8217 1.827-4.2318 2.68-5.6759-.988-.5553-1.573-1.2996-1.389-1.9115.164-.5868.99-.8936 2.053-.8527l2.122-21.5054 17.762-12.3921c.145-.1017.31-.1732.482-.2104.173-.0372.351-.0393.526-.0064.174.0331.339.1006.488.1988.147.0982.275.2252.376.3736.099.1484.17.3154.205.4915.037.1762.039.3577.008.5346-.033.1769-.099.3457-.196.4964-.097.151-.221.281-.368.3827l-16.729 11.6714-2.009 20.3193c-.014.1194-.043.2362-.086.3478 1.074.5615 1.723 1.3451 1.545 1.9853-.146.5144-.793.8118-1.661.8527.384 2.2732 1.312 7.7997 1.554 9.7253.31 2.448-1.69 1.4931-1.69 1.4931l-4.774-3.1464s-1.658-.4011-.893-3.1763z" fill="#fbae52"/><path d="m445.732 26.7236 6.613 42.0338s-5.292 18.8242-32.406 18.8242v-46.4003c14.245 0 25.793-6.4804 25.793-14.4577z" fill="#f04c40"/></svg>