<svg fill="none" height="190" viewBox="0 0 187 190" width="187" xmlns="http://www.w3.org/2000/svg"><path clip-rule="evenodd" d="m48.0813 53.9287c-.0456.534-.1102 1.2758-.1436 1.6484-.0777.8683.1929 3.0003.5256 4.1394.7177 2.4576 2.4143 4.2574 5.0076 5.3122.756.3075 1.7851.6151 2.2868.6836.7344.1001.9391.1894 1.05.4574.202.4887.7043.8466 1.1295.8047.3459-.0341.4043.0315.8193.9184.2643.565.3816 1.0348.2874 1.1498-.433.5281-.687 2.4204-.5359 3.9909.1661 1.7241.6717 3.1765 1.6865 4.8433.2888.4743.5164.9375.5057 1.0293s.1372.5457.3287 1.0085c.1914.463.5648 1.4321.8297 2.1537.5521 1.5042 1.2838 2.5043 2.348 3.2096 1.0748.7124 2.1995 1.9634 2.648 2.9452.3609.7901.4619 1.4413.7944 5.1262.1566 1.7344.3831 2.2014 1.5221 3.1383 2.1786 1.7918 2.9845 3.2275 2.9661 5.2834-.0059.656.0653 1.884.1582 2.729.1339 1.219.0885 1.865-.2195 3.12l-.3883 1.584 1.1323.802c.6229.442 1.8009 1.149 2.6178 1.571 1.1815.611 1.5019.719 1.5664.525.0667-.201.0916-.189.1408.066.0678.351.3577.531 2.6853 1.665 1.7661.861 4.179 2.549 5.3504 3.742 1.0775 1.098 1.901 2.891 3.0688 6.679.3168 1.028.9335 2.897 1.3704 4.153l.7944 2.285-.9198 1.056c-2.5107 2.882-5.4279 4.282-8.8978 4.269-.6805-.003-2.6511-.21-3.2099-.338-7.002-1.604-15.8803-2.32-23.0946-1.861-2.3944.152-5.5814.809-6.5121 1.342-.3541.203-.4177.347-.4627 1.045-.1369 2.117-1.1837 5.072-3.0209 8.527-1.0767 2.025-1.358 2.666-.9525 2.172.2219-.27 2.2319-1.046 3.5772-1.381 2.0098-.5 5.7177-.755 8.6411-.595 2.5476.14 6.1921.538 6.3865.698.0581.047.2578.081.4435.074.3118-.01 1.7599.299 4.3444.93 1.2397.302 3.9838 1.208 4.2015 1.386.656.539 6.298 3.032 8.9657 3.963 2.8829 1.005 6.8062 1.989 8.6041 2.157.2724.026 1.0593.1 1.7487.165 3.8248.362 7.5644.091 11.1554-.806 2.076-.519 4.271-1.405 6.536-2.637l1.218-.662 1.531.25c2.913.476 5.598.434 8.355-.13 1.358-.278 4.202-1.28 5.661-1.995.747-.367 1.656-.807 2.019-.979.362-.171.698-.359.746-.417.047-.058.808-.574 1.69-1.147.916-.595 1.708-1.215 1.846-1.444.133-.221.263-.343.287-.271.052.152.911-.512 2.551-1.971.976-.868 2.512-2.693 9.929-11.8l8.775-10.773 1.084-2.123c2.694-5.276 3.934-9.715 3.986-14.276.034-2.937-.502-5.8598-1.485-8.0945-.424-.9615-.307-1.0275.726-.4132.934.5556 2.062.7667 3.572.6687 1.748-.1135 3.155-.53 4.712-1.3946 1.635-.9075 2.506-1.6682 3.668-3.2024.867-1.1438 1.002-1.4118 1.26-2.4987.756-3.1871-.736-7.1201-3.316-8.7457-1.328-.8367-2.077-1.0203-3.778-.9258-1.861.1036-3.99 1.5646-4.268 2.9287-.448 2.2009 2.219 3.8904 4.028 2.5519.765-.5658 1.218-.4715 1.812.378.475.679.722 2.2372.447 2.8192-.093.1975-.507.7061-.919 1.1302-1.209 1.2454-3.309 2.0689-4.592 1.801-.406-.0847-.65-.2695-1.347-1.0179-1.224-1.3154-2.152-3.4208-2.356-5.3436-.175-1.6515-.112-2.4414.492-6.1724.771-4.7614.879-5.9151.812-8.7098-.154-6.4248-1.411-11.4392-4.046-16.1462-2.621-4.6835-6.272-8.1391-10.756-10.1801-2.057-.9366-5.411-1.8715-6.796-1.8947-.302-.0049-.927-.0392-1.389-.076-1.854-.1477-5.03.2633-7.559.9777-2.554.7215-6.151 2.7202-8.845 4.9154-3.323 2.7071-4.959 4.7445-6.284 7.8282-1.067 2.4854-1.443 4.4429-1.354 7.0647.076 2.2163.294 3.266 1.374 6.6189.177.5462.169.5904-.052.3124-.59-.7417-2.353-2.6455-2.819-3.0431-.477-.4079-.531-.4117-1.15-.0802-.356.1913-.766.3913-.911.4442-.144.0529-.477.2019-.739.3312s-1.285.3211-2.275.4263c-.989.1052-2.399.2787-3.134.3857-1.8328.2663-2.4273.0691-4.6895-1.5558-2.139-1.5361-1.8745-1.4861-5.6887-1.0748-3.5195.3797-4.0055.2466-6.7681-1.8542l-2.06-1.5665-1.6346-.2339c-1.8733-.2681-5.126-.9514-6.0202-1.2648-1.9684-.6895-5.2768-.2625-7.1166.9187-.4267.274-.6515.2823-1.4085.053-.8656-.2625-.9064-.2918-1.0527-.7591-.1291-.4125-.233-.5146-.6873-.6755-.4913-.1738-.5706-.2776-.9687-1.2665-.4189-1.0406-2.1379-3.5408-2.817-4.0969-.6796-.5568-3.2105-1.5725-4.1576-1.6687-1.4847-.1507-3.1325-.023-4.6565.361-1.2075.3042-2.3676.7009-2.4446.8357-.0133.0234-.0615.4795-.1071 1.0135zm72.1647-2.9031c.496-.3935 1.041-.8342 1.212-.9794.685-.5807 1.147-.8964 2.279-1.5584 5.58-3.261 10.877-3.649 16.544-1.2118 1.34.5757 1.633.7698 3.567 2.3629 1.89 1.556 2.212 1.8787 3.11 3.1217 2.427 3.3567 3.907 7.002 4.579 11.2713.649 4.1234.556 7.4638-.362 13.0014-.301 1.8108-.561 3.6545-.579 4.097-.07 1.7502.09 3.9022.369 4.9544.161.6087.339 1.2791.395 1.4896.09.3399-.115.2064-1.827-1.1919-3.145-2.5693-7.247-4.8047-10.91-5.9467-2.892-.9015-7.133-1.7026-11.461-2.165-1.073-.1146-1.983-.2345-2.022-.2666-.039-.032.386-.1744.944-.3166 2.086-.5315 3.61-1.5644 5.235-3.5477 2.245-2.7414 2.727-5.7582 1.383-8.6691-1.244-2.6976-3.592-4.1831-6.55-4.1442-1.432.0189-2.298.3648-2.896 1.1569-.39.5167-.526.8661-.556 1.4355-.047.8896.132 1.2924.882 1.978.659.603 1.038.7003 2.407.6181 1.254-.0752 1.856.3139 2.179 1.4095.331 1.1232.062 1.9479-1.035 3.1736-1.456 1.6261-2.943 2.0797-4.838 1.4756-1.267-.4039-3.217-1.9545-4.321-3.4349-.869-1.1663-2.252-4.093-2.425-5.1333-.34-2.0488-.405-2.7127-.357-3.6647.028-.5716.077-1.0708.109-1.1092.032-.0385.1-.4101.152-.8258.08-.6402.864-2.5877 1.569-3.8965.343-.636 2.295-2.7456 3.224-3.4837z" fill="#e2def0" fill-rule="evenodd"/></svg>