<svg fill="none" height="20" viewBox="0 0 20 20" width="20" xmlns="http://www.w3.org/2000/svg"><path clip-rule="evenodd" d="m9.71814.99984c-5.34497 0-9.71814 4.27477-9.71814 9.49946 0 4.156 2.79396 7.7184 6.68122 9.0246.4859.1187.60739-.2376.60739-.475v-1.6625c-2.67249.5937-3.27988-1.1874-3.27988-1.1874-.48591-1.0687-1.09328-1.4249-1.09328-1.4249-.85035-.5938.12147-.5938.12147-.5938.97181.1188 1.45772.95 1.45772.95.85034 1.5437 2.30806 1.0687 2.79397.8312.12147-.5937.36442-1.0687.60737-1.3062-2.18658-.2374-4.37316-1.0687-4.37316-4.7497 0-1.06869.36444-1.8999.97182-2.49361-.12147-.23749-.48591-1.18743.12148-2.49362 0 0 .85033-.23749 2.67249.94995.72886-.23749 1.57919-.35623 2.42953-.35623.85036 0 1.70066.11874 2.42956.35623 1.8221-1.18744 2.6725-.94995 2.6725-.94995.4859 1.30619.2429 2.25613.1215 2.49362.6073.71246.9718 1.54366.9718 2.49361 0 3.681-2.3081 4.3935-4.4947 4.631.3644.475.7289 1.0686.7289 1.8999v2.6124c0 .2374.1214.5937.7289.475 3.8872-1.3062 6.6811-4.8686 6.6811-9.0246-.1214-5.22469-4.4946-9.49946-9.83956-9.49946z" fill="#b2a6ea" fill-rule="evenodd"/></svg>