<svg fill="none" height="268" viewBox="0 0 242 268" width="242" xmlns="http://www.w3.org/2000/svg" xmlns:xlink="http://www.w3.org/1999/xlink"><linearGradient id="a" gradientUnits="userSpaceOnUse" x1="-11.9622" x2="55.4695" y1="262.067" y2="-44.5983"><stop offset="0" stop-color="#fff"/><stop offset="1" stop-color="#fff" stop-opacity=".39"/></linearGradient><mask id="b" fill="#fff"><path clip-rule="evenodd" d="m0 10.4762v23.8924c12.7234.0001 23.0377 4.7629 23.0377 10.6381 0 5.8753-10.3143 10.6381-23.0377 10.6382v201.8791c0 5.786 4.69035 10.476 10.4762 10.476h87.8791v-.001c0-5.875 10.3147-10.638 23.0377-10.638 12.724 0 23.039 4.763 23.039 10.638v.001h86.993c5.786 0 10.476-4.69 10.476-10.476v-201.8791c-12.724 0-23.039-4.7629-23.039-10.6382s10.315-10.6381 23.039-10.6381v-23.8924c0-5.78585-4.69-10.4762-10.476-10.4762h-220.9488c-5.78584 0-10.4762 4.69035-10.4762 10.4762z" fill="#fff" fill-rule="evenodd"/></mask><g fill="#483595"><rect height="7.86958" rx="1.70263" transform="matrix(0 1 -1 0 259 -169)" width="3.40525" x="214" y="45"/><rect height="7.86958" rx="1.70263" transform="matrix(0 1 -1 0 243.261 -153.261)" width="3.40525" x="198.261" y="45"/><rect height="7.86958" rx="1.70263" transform="matrix(0 1 -1 0 227.522 -137.522)" width="3.40525" x="182.522" y="45"/><rect height="7.86958" rx="1.70263" transform="matrix(0 1 -1 0 211.783 -121.783)" width="3.40525" x="166.783" y="45"/><rect height="7.86958" rx="1.70263" transform="matrix(0 1 -1 0 196.043 -106.043)" width="3.40525" x="151.043" y="45"/><rect height="7.86958" rx="1.70263" transform="matrix(0 1 -1 0 180.304 -90.304)" width="3.40525" x="135.304" y="45"/><rect height="7.86958" rx="1.70263" transform="matrix(0 1 -1 0 164.565 -74.565)" width="3.40525" x="119.565" y="45"/><rect height="7.86958" rx="1.70263" transform="matrix(0 1 -1 0 148.826 -58.826)" width="3.40525" x="103.826" y="45"/><rect height="7.86958" rx="1.70263" transform="matrix(0 1 -1 0 133.0869 -43.0869)" width="3.40525" x="88.0869" y="45"/><rect height="7.86958" rx="1.70263" transform="matrix(0 1 -1 0 117.3477 -27.3477)" width="3.40525" x="72.3477" y="45"/><rect height="7.86958" rx="1.70263" transform="matrix(0 1 -1 0 101.6084 -11.6084)" width="3.40525" x="56.6084" y="45"/><rect height="7.86958" rx="1.70263" transform="matrix(0 1 -1 0 85.8694 4.1306)" width="3.40525" x="40.8694" y="45"/></g><path clip-rule="evenodd" d="m0 10.4762v23.8924c12.7234.0001 23.0377 4.7629 23.0377 10.6381 0 5.8753-10.3143 10.6381-23.0377 10.6382v201.8791c0 5.786 4.69035 10.476 10.4762 10.476h87.8791v-.001c0-5.875 10.3147-10.638 23.0377-10.638 12.724 0 23.039 4.763 23.039 10.638v.001h86.993c5.786 0 10.476-4.69 10.476-10.476v-201.8791c-12.724 0-23.039-4.7629-23.039-10.6382s10.315-10.6381 23.039-10.6381v-23.8924c0-5.78585-4.69-10.4762-10.476-10.4762h-220.9488c-5.78584 0-10.4762 4.69035-10.4762 10.4762z" fill="url(#a)" fill-opacity=".1" fill-rule="evenodd"/><path d="m0 34.3686-.00002434 2.619h-2.61902566v-2.619zm0 21.2763h-2.61905v-2.619h2.61902566zm98.3553 212.3551h2.6187v2.619h-2.6187zm46.0767 0v2.619h-2.619v-2.619zm97.469-212.3551v-2.619h2.619v2.619zm0-21.2763h2.619v2.619h-2.619zm-244.52005 0v-23.8924h5.2381v23.8924zm23.03775 10.6381c0-1.3009-1.2517-3.309-5.2265-5.1444-3.7529-1.733-9.12147-2.8746-15.19222434-2.8747l.00004868-5.2381c6.65267566.0001 12.80297566 1.2399 17.38807566 3.3572 4.3632 2.0148 8.2687 5.3258 8.2687 9.9zm-20.41872434 8.0192c6.07075434-.0001 11.43932434-1.1417 15.19222434-2.8747 3.9748-1.8355 5.2265-3.8435 5.2265-5.1445h5.2381c0 4.5743-3.9055 7.8853-8.2687 9.9001-4.5851 2.1173-10.7354 3.3571-17.38807566 3.3571zm-2.61902566 204.4981v-201.8791h5.2381v201.8791zm13.09525 13.095c-7.23231 0-13.09525-5.863-13.09525-13.095h5.2381c0 4.339 3.51776 7.857 7.85715 7.857zm87.8791 0h-87.8791v-5.238h87.8791zm2.6187-2.62v.001h-5.2378v-.001zm20.419-8.019c-6.07 0-11.439 1.142-15.192 2.875-3.975 1.835-5.227 3.843-5.227 5.144h-5.2378c0-4.574 3.9056-7.885 8.2688-9.9 4.585-2.117 10.736-3.357 17.388-3.357zm20.42 8.019c0-1.301-1.252-3.309-5.227-5.144-3.753-1.733-9.122-2.875-15.193-2.875v-5.238c6.653 0 12.804 1.24 17.389 3.357 4.363 2.015 8.269 5.326 8.269 9.9zm0 .001v-.001h5.238v.001zm89.612 2.619h-86.993v-5.238h86.993zm13.095-13.095c0 7.232-5.863 13.095-13.095 13.095v-5.238c4.339 0 7.857-3.518 7.857-7.857zm0-201.8791v201.8791h-5.238v-201.8791zm-2.619-2.619v5.2381zm-20.42-8.0192c0 1.301 1.252 3.3091 5.227 5.1446 3.753 1.7329 9.122 2.8746 15.193 2.8746v5.2381c-6.653 0-12.804-1.2399-17.389-3.3572-4.363-2.0147-8.269-5.3257-8.269-9.9001zm20.42-8.0191c-6.071 0-11.44 1.1416-15.193 2.8746-3.975 1.8355-5.227 3.8436-5.227 5.1445h-5.238c0-4.5743 3.906-7.8853 8.269-9.9001 4.585-2.1173 10.736-3.3571 17.389-3.3571zm0 0v-5.2381zm2.619-26.5114v23.8924h-5.238v-23.8924zm-13.095-13.09525c7.232 0 13.095 5.86294 13.095 13.09525h-5.238c0-4.33939-3.518-7.85715-7.857-7.85715zm-220.9488 0h220.9488v5.2381h-220.9488zm-13.09525 13.09525c0-7.23231 5.86295-13.09525 13.09525-13.09525v5.2381c-4.33938 0-7.85715 3.51776-7.85715 7.85715z" fill="#fff" fill-opacity=".1" mask="url(#b)"/><path d="m33 160.859h43.4569v42.3759h-43.4569z" fill="#39297d"/><g fill="#fff"><path d="m44.6254 186.22v-.05c0-1.174-.1273-2.088-.382-2.742-.2546-.67-.6038-1.199-1.0476-1.584.1383-.168.2656-.369.382-.604.1236-.235.2291-.503.3164-.805.0946-.318.1674-.67.2183-1.056.0582-.386.0873-.83.0873-1.333v-.051c0-1.391-.2255-2.498-.6766-3.32-.4438-.821-1.0585-1.232-1.8442-1.232h-3.5467v17.606h3.634c.4292 0 .8184-.1 1.1676-.301.3565-.202.6584-.503.9058-.906.2546-.402.4474-.905.5783-1.509.1383-.604.2074-1.308.2074-2.113zm-2.0953-7.52c0 .654-.1091 1.132-.3273 1.433-.2183.285-.5129.428-.884.428h-1.5496v-3.723h1.6588c.3564 0 .6293.16.8184.478.1892.302.2837.747.2837 1.333zm.4256 7.042c0 .654-.1054 1.141-.3164 1.459-.211.302-.502.453-.873.453h-1.9971v-3.874h1.9425c.4365 0 .753.177.9494.529.1964.335.2946.796.2946 1.383z"/><path d="m47.5683 191.049v-18.361h-1.6587v18.361z"/><path d="m54.157 191.049v-7.822c0-1.828-.2074-3.253-.6221-4.276-.4146-1.023-1.0767-1.534-1.9861-1.534-.4947 0-.9166.101-1.2659.302-.3492.201-.6838.461-1.0039.78l.4147 2.917c.2691-.235.5238-.411.7639-.528.2473-.134.531-.201.8511-.201.4147 0 .7276.209.9385.629.211.419.3165 1.031.3165 1.836v.226c-.211-.168-.4292-.302-.6548-.402-.2182-.101-.4765-.151-.7748-.151-.3492 0-.6693.092-.9603.276-.2837.168-.5311.428-.742.78-.2037.352-.3638.797-.4802 1.333-.1164.537-.1746 1.174-.1746 1.912v.05c0 .671.0509 1.266.1528 1.786.1091.503.2546.93.4365 1.283.1819.352.3928.62.6329.804.2474.168.5093.252.7857.252.4074 0 .753-.151 1.0367-.453.2838-.318.5275-.738.7312-1.257v1.458zm-1.5715-4.753c0 .704-.12 1.274-.3601 1.71-.2328.436-.5456.654-.9385.654-.2692 0-.4874-.143-.6547-.428-.1674-.285-.251-.687-.251-1.207v-.05c0-.604.1018-1.065.3055-1.384.2037-.318.4838-.477.8403-.477.2037 0 .3929.05.5675.15.1818.084.3455.202.491.353z"/><path d="m61.7282 184.334v-.051c0-1.123-.0764-2.112-.2292-2.967-.1455-.872-.3419-1.602-.5893-2.189-.2473-.603-.5311-1.056-.8512-1.358s-.6511-.453-.993-.453c-.4365 0-.8003.21-1.0913.629-.2837.403-.5275.922-.7312 1.56v-6.817h-1.6587v18.361h1.6587v-1.76c.1965.536.4366 1.006.7203 1.408.291.403.6584.604 1.1022.604.3492 0 .6838-.151 1.0039-.453s.6002-.746.8403-1.333c.2474-.604.4438-1.333.5893-2.188.1528-.872.2292-1.87.2292-2.993zm-1.6588 0c0 .57-.04 1.081-.12 1.534-.0728.453-.1746.847-.3056 1.182-.1309.319-.2837.57-.4583.755-.1673.167-.3492.251-.5456.251-.1965 0-.382-.084-.5566-.251-.1673-.185-.3164-.436-.4474-.755-.1237-.335-.2255-.729-.3056-1.182-.0727-.469-.1091-.981-.1091-1.534v-.051c0-.553.0364-1.056.1091-1.509.0801-.469.1819-.863.3056-1.182.131-.335.2801-.587.4474-.754.1746-.185.3601-.277.5566-.277.1964 0 .3783.092.5456.277.1746.167.3274.419.4583.754.131.319.2328.713.3056 1.182.08.453.12.956.12 1.509z"/><path d="m64.6834 191.049v-18.361h-1.6588v18.361z"/><path d="m71.272 191.049v-7.822c0-1.828-.2073-3.253-.622-4.276s-1.0767-1.534-1.9861-1.534c-.4947 0-.9167.101-1.2659.302s-.6839.461-1.004.78l.4147 2.917c.2692-.235.5238-.411.7639-.528.2474-.134.5311-.201.8512-.201.4147 0 .7275.209.9385.629.211.419.3165 1.031.3165 1.836v.226c-.211-.168-.4293-.302-.6548-.402-.2183-.101-.4765-.151-.7748-.151-.3492 0-.6693.092-.9603.276-.2838.168-.5311.428-.7421.78-.2037.352-.3637.797-.4801 1.333-.1164.537-.1746 1.174-.1746 1.912v.05c0 .671.0509 1.266.1527 1.786.1092.503.2547.93.4365 1.283.1819.352.3929.62.633.804.2473.168.5092.252.7857.252.4074 0 .753-.151 1.0367-.453.2837-.318.5274-.738.7312-1.257v1.458zm-1.5714-4.753c0 .704-.1201 1.274-.3601 1.71-.2328.436-.5457.654-.9385.654-.2692 0-.4875-.143-.6548-.428s-.251-.687-.251-1.207v-.05c0-.604.1019-1.065.3056-1.384.2037-.318.4838-.477.8403-.477.2037 0 .3928.05.5674.15.1819.084.3456.202.4911.353z"/></g><path d="m53.4302 203.235h-20.4302l20.4302 21.765z" fill="#39297d"/><path d="m59.0397 218.6-.2826-.639c-.1812.401-.3661.714-.5545.939-.1885.218-.4131.326-.6741.326-.2102 0-.4059-.092-.5871-.275-.1775-.193-.3334-.451-.4675-.777-.1304-.326-.2337-.71-.3098-1.153-.0725-.443-.1087-.919-.1087-1.428 0-.51.0362-.982.1087-1.416.0761-.443.1794-.827.3098-1.153.1341-.325.29-.58.4675-.764.1812-.184.3769-.276.5871-.276.261 0 .4838.113.6686.339.1885.225.3643.513.5273.864l.2936-.727c-.0942-.208-.1921-.396-.2936-.563-.1014-.176-.212-.322-.3316-.439-.1195-.125-.25-.221-.3913-.288-.1378-.067-.2936-.1-.4675-.1-.2791 0-.5364.121-.772.363-.2355.234-.4385.56-.6088.977-.1703.41-.3044.89-.4022 1.441-.0943.552-.1414 1.14-.1414 1.767 0 .635.0471 1.228.1414 1.779.0978.551.2319 1.032.4022 1.441.1703.401.3715.718.6034.952s.4856.351.7611.351c.1739 0 .3315-.038.4729-.113.1413-.075.2736-.18.3968-.313.1232-.134.2374-.293.3425-.476.1087-.192.212-.405.3098-.639z" fill="#fff"/><path d="m63.398 215.593c0-.61-.0471-1.186-.1413-1.729-.0906-.552-.2211-1.032-.3914-1.441-.1703-.418-.3751-.748-.6143-.99-.2355-.242-.4983-.363-.7882-.363s-.5545.125-.7936.376c-.2392.242-.444.572-.6143.989-.1703.418-.3026.903-.3968 1.454-.0943.543-.1414 1.119-.1414 1.729s.0453 1.19.1359 1.741c.0943.543.2265 1.024.3969 1.441.1703.41.3732.735.6088.977.2392.243.5037.364.7936.364.29 0 .5545-.121.7937-.364.2392-.25.4439-.584.6143-1.002.1703-.417.3026-.898.3968-1.441.0942-.551.1413-1.131.1413-1.741zm-.4457.025c0 .501-.0381.973-.1142 1.416-.0725.434-.1739.814-.3044 1.14s-.2881.584-.4729.777c-.1812.183-.3805.275-.598.275-.2174 0-.4186-.096-.6034-.288-.1812-.192-.3388-.451-.4729-.777s-.2392-.71-.3153-1.152c-.0725-.443-.1087-.915-.1087-1.416s.0362-.969.1087-1.403c.0761-.443.1794-.827.3099-1.153.1304-.326.2863-.581.4675-.764.1848-.193.3859-.289.6033-.289.2175 0 .4168.096.598.289.1848.192.3443.451.4784.776.1341.326.2373.71.3098 1.153.0761.443.1142.915.1142 1.416z" fill="#fff"/><path d="m67.1033 218.249-2.3973-7.029h-.4023v8.77h.4186v-7.191l2.4571 7.191h.3424v-8.77h-.4185z" fill="#fff"/><path d="m71.3327 211.22h-2.7343v8.77h.4294v-3.821h2.0602v-.902h-2.0602v-3.132h2.3049z" fill="#fff"/><path d="m33 203.235h20.4293v7.611z" fill="#2b1d6b"/><path d="m88.5385 165.089c-.4512 0-.8579-.107-1.22-.321-.3562-.213-.6293-.501-.8192-.863l.4897-.428c.1663.273.3859.493.659.659.279.166.5788.25.8994.25.273 0 .5164-.06.7302-.179.2137-.118.3829-.282.5075-.489.1247-.208.187-.448.187-.722 0-.267-.0623-.501-.187-.703-.1187-.202-.282-.359-.4897-.472-.2019-.119-.4304-.178-.6857-.178-.2493 0-.4868.056-.7124.169s-.4066.273-.5432.481h-.7124l.7124-3.615h3.0722v.721h-2.4934l-.3829 2.012c.2672-.296.653-.445 1.1577-.445.3918 0 .742.086 1.0507.258.3146.173.561.41.7391.713.184.297.2761.644.2761 1.042 0 .415-.101.783-.3028 1.104-.1959.314-.4631.561-.8014.739-.3325.178-.7094.267-1.1309.267zm5.597-.089v-6.322h2.1906c.6768 0 1.2407.142 1.6919.427.4571.279.7985.659 1.024 1.14.2256.475.3384 1.003.3384 1.585 0 .641-.1246 1.199-.374 1.674-.2493.475-.6025.843-1.0596 1.104-.4572.261-.9974.392-1.6207.392zm4.4346-3.17c0-.475-.0891-.897-.2672-1.265-.1721-.368-.4244-.656-.7569-.863-.3324-.208-.7391-.312-1.2199-.312h-1.3892v4.898h1.3892c.4868 0 .8964-.107 1.2288-.321.3325-.22.5848-.513.757-.882.1721-.374.2582-.792.2582-1.255zm1.4064 1.825c0-.296.0835-.552.2495-.765.172-.22.406-.389.703-.508s.641-.178 1.033-.178c.208 0 .428.018.659.053.232.03.437.078.615.143v-.339c0-.356-.107-.635-.321-.837-.214-.207-.516-.311-.908-.311-.255 0-.502.047-.739.142-.232.089-.478.22-.739.392l-.285-.552c.302-.208.605-.362.908-.463.303-.107.617-.16.944-.16.593 0 1.062.166 1.407.498.344.327.516.784.516 1.372v1.968c0 .184.083.279.25.284v.606c-.078.012-.146.021-.205.027-.054.006-.098.009-.134.009-.184 0-.323-.051-.418-.152-.089-.101-.14-.208-.152-.32l-.018-.294c-.201.261-.466.463-.792.605-.327.143-.65.214-.971.214-.308 0-.584-.062-.828-.187-.243-.131-.433-.303-.57-.516-.136-.22-.2045-.463-.2045-.731zm3.0275.33c.071-.083.128-.166.169-.249.042-.09.063-.164.063-.223v-.579c-.38-.148-.772-.223-1.176-.223-.398 0-.721.081-.97.241-.244.154-.366.368-.366.641 0 .148.039.294.116.436.083.137.202.25.356.339.161.089.357.133.588.133.244 0 .475-.047.695-.142.219-.101.395-.226.525-.374zm2.334 2.279c.077.006.154.012.232.018.077.012.136.018.178.018.095 0 .178-.033.249-.098s.148-.193.232-.383c.089-.184.201-.457.338-.819l-1.968-4.648h.828l1.567 3.855 1.416-3.855h.775l-2.262 5.868c-.077.208-.217.389-.418.543-.196.16-.46.241-.793.241-.053 0-.11-.003-.169-.009-.053-.006-.122-.018-.205-.036zm6.111-1.175c-.386 0-.748-.062-1.086-.187-.339-.131-.63-.323-.873-.579l.303-.552c.267.249.534.428.801.534.267.107.54.161.819.161.321 0 .582-.06.784-.178.202-.125.303-.306.303-.544 0-.172-.054-.299-.161-.382-.1-.084-.246-.152-.436-.205-.19-.06-.415-.125-.677-.196-.48-.137-.849-.297-1.104-.481-.249-.19-.374-.466-.374-.828 0-.439.166-.778.499-1.015.338-.244.769-.365 1.291-.365.701 0 1.253.21 1.656.632l-.356.543c-.362-.374-.81-.561-1.344-.561-.161 0-.318.021-.472.062-.155.036-.282.104-.383.205-.101.095-.152.232-.152.41 0 .219.089.377.267.472.179.095.44.193.784.294.35.1.653.201.908.302.262.101.463.232.606.392.142.16.214.383.214.668 0 .439-.167.784-.499 1.033-.333.243-.772.365-1.318.365zm4.641-1.434c0-.296.083-.552.25-.765.172-.22.406-.389.703-.508s.641-.178 1.033-.178c.208 0 .427.018.659.053.232.03.436.078.614.143v-.339c0-.356-.106-.635-.32-.837-.214-.207-.517-.311-.908-.311-.256 0-.502.047-.74.142-.231.089-.477.22-.739.392l-.285-.552c.303-.208.606-.362.909-.463.302-.107.617-.16.944-.16.593 0 1.062.166 1.407.498.344.327.516.784.516 1.372v1.968c0 .184.083.279.249.284v.606c-.077.012-.145.021-.204.027-.054.006-.098.009-.134.009-.184 0-.324-.051-.419-.152-.089-.101-.139-.208-.151-.32l-.018-.294c-.202.261-.466.463-.792.605-.327.143-.65.214-.971.214-.309 0-.585-.062-.828-.187-.243-.131-.433-.303-.57-.516-.136-.22-.205-.463-.205-.731zm3.028.33c.071-.083.128-.166.169-.249.042-.09.062-.164.062-.223v-.579c-.38-.148-.771-.223-1.175-.223-.398 0-.721.081-.971.241-.243.154-.365.368-.365.641 0 .148.039.294.116.436.083.137.202.25.356.339.161.089.356.133.588.133.243 0 .475-.047.695-.142.219-.101.394-.226.525-.374zm6.302 1.015h-.784v-2.6c0-.493-.077-.852-.231-1.078-.149-.231-.377-.347-.686-.347-.214 0-.427.053-.641.16-.208.107-.395.253-.561.437-.16.178-.276.386-.347.623v2.805h-.784v-4.648h.712v.997c.184-.326.449-.588.793-.784.35-.195.73-.293 1.14-.293.362 0 .641.086.837.258.202.166.344.398.427.694.083.291.125.624.125.998zm.916-2.315c0-.44.089-.84.267-1.202.184-.368.433-.662.748-.882.32-.22.686-.329 1.095-.329.374 0 .71.098 1.006.293.297.196.529.434.695.713v-2.778h.784v5.61c0 .184.083.279.249.284v.606c-.149.024-.264.036-.347.036-.155 0-.291-.054-.41-.161-.113-.107-.169-.225-.169-.356v-.392c-.184.297-.431.532-.739.704-.309.172-.63.258-.962.258-.427 0-.81-.11-1.149-.329-.332-.226-.593-.52-.783-.882-.19-.368-.285-.766-.285-1.193zm3.811.685v-1.335c-.071-.202-.187-.383-.347-.543-.161-.167-.342-.297-.544-.392-.195-.101-.391-.152-.587-.152-.303 0-.57.083-.802.25-.225.166-.403.383-.534.65-.125.267-.187.549-.187.846 0 .308.068.593.205.855.142.261.335.471.579.632.243.154.513.231.81.231.19 0 .386-.044.588-.133.202-.095.38-.223.534-.383s.249-.336.285-.526zm6.089 1.719c-.451 0-.857-.107-1.22-.321-.356-.213-.629-.501-.819-.863l.49-.428c.166.273.386.493.659.659.279.166.579.25.899.25.273 0 .517-.06.73-.179.214-.118.383-.282.508-.489.125-.208.187-.448.187-.722 0-.267-.062-.501-.187-.703-.119-.202-.282-.359-.49-.472-.202-.119-.43-.178-.685-.178-.25 0-.487.056-.713.169-.225.113-.406.273-.543.481h-.712l.712-3.615h3.072v.721h-2.493l-.383 2.012c.267-.296.653-.445 1.158-.445.391 0 .742.086 1.05.258.315.173.561.41.739.713.184.297.276.644.276 1.042 0 .415-.1.783-.302 1.104-.196.314-.463.561-.802.739-.332.178-.709.267-1.131.267zm9.887-5.699h-2.182v5.61h-.801v-5.61h-2.182v-.712h5.165zm2.522 1.647c-.392.006-.739.107-1.042.303-.297.19-.508.454-.632.793v2.867h-.784v-4.648h.73v1.077c.161-.32.371-.579.633-.775.267-.201.546-.314.837-.338h.151c.042 0 .077.003.107.009zm.412 2.618c0-.296.083-.552.249-.765.173-.22.407-.389.704-.508s.641-.178 1.033-.178c.208 0 .427.018.659.053.231.03.436.078.614.143v-.339c0-.356-.107-.635-.32-.837-.214-.207-.517-.311-.909-.311-.255 0-.501.047-.739.142-.231.089-.478.22-.739.392l-.285-.552c.303-.208.606-.362.908-.463.303-.107.618-.16.944-.16.594 0 1.063.166 1.407.498.345.327.517.784.517 1.372v1.968c0 .184.083.279.249.284v.606c-.077.012-.145.021-.205.027-.053.006-.098.009-.133.009-.184 0-.324-.051-.419-.152-.089-.101-.139-.208-.151-.32l-.018-.294c-.202.261-.466.463-.792.605-.327.143-.651.214-.971.214-.309 0-.585-.062-.828-.187-.244-.131-.434-.303-.57-.516-.137-.22-.205-.463-.205-.731zm3.028.33c.071-.083.127-.166.169-.249.041-.09.062-.164.062-.223v-.579c-.38-.148-.772-.223-1.175-.223-.398 0-.722.081-.971.241-.243.154-.365.368-.365.641 0 .148.039.294.116.436.083.137.202.25.356.339.16.089.356.133.588.133.243 0 .475-.047.694-.142.22-.101.395-.226.526-.374zm4.325 1.104c-.463 0-.873-.11-1.229-.329-.356-.226-.635-.523-.837-.891s-.303-.769-.303-1.202c0-.439.098-.84.294-1.202s.472-.65.828-.864c.356-.22.769-.329 1.238-.329.457 0 .855.103 1.193.311.344.202.6.475.766.819l-.766.241c-.119-.22-.285-.389-.499-.508-.213-.124-.451-.187-.712-.187-.285 0-.546.075-.784.223-.231.148-.415.353-.552.614-.136.256-.204.55-.204.882 0 .326.068.623.204.89.143.262.33.469.561.624.238.154.499.231.784.231.184 0 .359-.032.525-.098.173-.065.321-.151.446-.258.13-.113.219-.234.267-.365l.766.232c-.137.338-.386.617-.748.837-.357.219-.769.329-1.238.329zm6.15-.089-1.611-2.262-.882.828v1.434h-.784v-6.5h.784v4.247l2.404-2.386h.846l-1.852 1.923 1.941 2.716zm3.118.089c-.386 0-.748-.062-1.087-.187-.338-.131-.629-.323-.872-.579l.302-.552c.267.249.535.428.802.534.267.107.54.161.819.161.321 0 .582-.06.784-.178.201-.125.302-.306.302-.544 0-.172-.053-.299-.16-.382-.101-.084-.246-.152-.436-.205-.19-.06-.416-.125-.677-.196-.481-.137-.849-.297-1.104-.481-.25-.19-.374-.466-.374-.828 0-.439.166-.778.498-1.015.339-.244.769-.365 1.292-.365.7 0 1.252.21 1.656.632l-.356.543c-.362-.374-.811-.561-1.345-.561-.16 0-.317.021-.472.062-.154.036-.282.104-.383.205-.101.095-.151.232-.151.41 0 .219.089.377.267.472s.439.193.784.294c.35.1.653.201.908.302.261.101.463.232.605.392.143.16.214.383.214.668 0 .439-.166.784-.498 1.033-.333.243-.772.365-1.318.365zm7.063 0c-.463 0-.873-.11-1.229-.329-.356-.226-.635-.523-.837-.891s-.303-.769-.303-1.202c0-.439.098-.84.294-1.202s.472-.65.828-.864c.357-.22.769-.329 1.238-.329.457 0 .855.103 1.193.311.345.202.6.475.766.819l-.766.241c-.118-.22-.285-.389-.498-.508-.214-.124-.452-.187-.713-.187-.285 0-.546.075-.783.223-.232.148-.416.353-.552.614-.137.256-.205.55-.205.882 0 .326.068.623.205.89.142.262.329.469.561.624.237.154.498.231.783.231.184 0 .359-.032.526-.098.172-.065.32-.151.445-.258.13-.113.219-.234.267-.365l.766.232c-.137.338-.386.617-.748.837-.356.219-.769.329-1.238.329zm4.86 0c-.463 0-.872-.11-1.228-.329-.351-.226-.624-.52-.82-.882-.196-.368-.293-.766-.293-1.193 0-.434.097-.831.293-1.193.202-.369.478-.662.829-.882.356-.226.762-.338 1.219-.338.464 0 .87.112 1.22.338.357.22.633.513.829.882.201.362.302.759.302 1.193 0 .427-.101.825-.302 1.193-.196.362-.469.656-.82.882-.35.219-.76.329-1.229.329zm-1.54-2.395c0 .32.068.611.205.872.142.262.329.469.561.624.231.148.49.222.774.222.285 0 .544-.077.775-.231.238-.155.425-.362.561-.624.143-.267.214-.561.214-.881 0-.321-.071-.612-.214-.873-.136-.261-.323-.469-.561-.623-.231-.154-.49-.232-.775-.232-.284 0-.543.08-.774.241-.232.154-.419.362-.561.623-.137.261-.205.555-.205.882zm6.02 2.306-1.825-4.648h.819l1.46 3.9 1.461-3.9h.765l-1.825 4.648zm5.365.089c-.463 0-.873-.11-1.229-.329-.356-.22-.635-.514-.837-.882s-.303-.769-.303-1.202c0-.439.101-.84.303-1.202s.481-.653.837-.873c.362-.22.775-.329 1.238-.329.469 0 .876.112 1.22.338.35.22.62.51.81.873.196.356.294.742.294 1.157 0 .131-.006.232-.018.303h-3.856c.024.303.107.573.25.81.148.232.338.416.57.552.231.131.481.196.748.196.285 0 .552-.071.801-.213.255-.143.431-.33.526-.561l.676.187c-.148.344-.406.626-.774.846-.368.219-.787.329-1.256.329zm-1.567-2.689h3.17c-.024-.303-.11-.57-.258-.802-.149-.231-.339-.412-.57-.543-.232-.13-.487-.196-.766-.196-.273 0-.525.066-.757.196-.232.131-.421.312-.57.543-.142.232-.225.499-.249.802zm7.229-1.363c-.392.006-.739.107-1.042.303-.297.19-.508.454-.632.793v2.867h-.784v-4.648h.73v1.077c.161-.32.371-.579.633-.775.267-.201.546-.314.837-.338h.151c.042 0 .077.003.107.009zm.777-1.558v-.979h.784v.979zm0 5.521v-4.648h.784v4.648zm6.086 0h-.783v-2.6c0-.493-.078-.852-.232-1.078-.148-.231-.377-.347-.686-.347-.213 0-.427.053-.641.16-.208.107-.395.253-.561.437-.16.178-.276.386-.347.623v2.805h-.784v-4.648h.713v.997c.184-.326.448-.588.792-.784.35-.195.73-.293 1.14-.293.362 0 .641.086.837.258.202.166.344.398.428.694.083.291.124.624.124.998zm3.071.053c-.422 0-.796-.109-1.122-.329-.321-.226-.573-.519-.757-.882-.178-.362-.267-.748-.267-1.157 0-.44.089-.84.267-1.202.184-.368.439-.662.766-.882.326-.22.7-.329 1.122-.329.386 0 .721.095 1.006.285.291.189.534.43.73.721v-.926h.695v4.595c0 .439-.107.81-.321 1.113-.207.302-.492.531-.855.685-.356.161-.754.241-1.193.241-.522 0-.95-.092-1.282-.276-.333-.184-.609-.434-.828-.748l.454-.401c.184.273.421.478.712.614.297.137.612.205.944.205.285 0 .546-.053.784-.16.243-.101.436-.258.579-.472.148-.214.222-.481.222-.801v-.82c-.172.285-.409.511-.712.677-.297.166-.612.249-.944.249zm.24-.641c.22 0 .431-.05.633-.151.201-.101.371-.232.507-.392.143-.16.235-.326.276-.499v-1.335c-.124-.315-.326-.573-.605-.775-.279-.208-.573-.312-.882-.312-.314 0-.588.086-.819.259-.226.172-.401.391-.525.659-.119.267-.179.546-.179.837 0 .308.072.593.214.854.143.256.333.463.57.624.243.154.514.231.81.231zm-112.455 12.588h-.7836v-2.6c0-.475-.0861-.831-.2583-1.069-.1662-.237-.4066-.356-.7213-.356-.2018 0-.4066.053-.6144.16-.2018.107-.3799.253-.5343.437-.1543.178-.2671.386-.3384.623v2.805h-.7836v-6.5h.7836v2.849c.1841-.332.4334-.594.748-.784.3206-.195.6649-.293 1.033-.293s.659.086.8727.258.3651.406.4541.703c.095.291.1425.621.1425.989zm3.2488.089c-.463 0-.8726-.11-1.2288-.329-.3503-.226-.6234-.52-.8193-.882-.1959-.368-.2938-.766-.2938-1.193 0-.434.0979-.831.2938-1.193.2019-.369.4779-.662.8282-.882.3562-.226.7628-.338 1.2199-.338.4631 0 .8697.112 1.22.338.3562.22.6322.513.8281.882.2019.362.3028.759.3028 1.193 0 .427-.1009.825-.3028 1.193-.1959.362-.469.656-.8192.882-.3503.219-.7599.329-1.2289.329zm-1.5405-2.395c0 .32.0683.611.2048.872.1425.262.3295.469.561.624.2315.148.4898.222.7747.222.285 0 .5432-.077.7747-.231.2375-.155.4245-.362.561-.624.1425-.267.2138-.561.2138-.881 0-.321-.0713-.612-.2138-.873-.1365-.261-.3235-.469-.561-.623-.2315-.154-.4897-.232-.7747-.232-.2849 0-.5432.08-.7747.241-.2315.154-.4185.362-.561.623-.1365.261-.2048.555-.2048.882zm7.1756 2.074c-.0949.042-.2463.101-.4541.179-.2018.077-.4274.115-.6768.115-.2849 0-.5313-.077-.7391-.231-.2077-.16-.3116-.407-.3116-.739v-3.126h-.6323v-.614h.6323v-1.55h.7836v1.55h1.0419v.614h-1.0419v2.885c.0119.167.0683.291.1692.374.1009.077.2196.116.3562.116.1543 0 .2968-.027.4274-.08.1306-.054.2167-.092.2582-.116zm3.1311 0c-.095.042-.247.101-.455.179-.201.077-.427.115-.676.115-.285 0-.532-.077-.739-.231-.208-.16-.312-.407-.312-.739v-3.126h-.632v-.614h.632v-1.55h.783v1.55h1.042v.614h-1.042v2.885c.012.167.069.291.17.374.101.077.219.116.356.116.154 0 .297-.027.427-.08.131-.054.217-.092.259-.116zm2.722.321c-.463 0-.873-.11-1.229-.329-.356-.22-.635-.514-.837-.882s-.303-.769-.303-1.202c0-.439.101-.84.303-1.202s.481-.653.837-.873c.362-.22.775-.329 1.238-.329.469 0 .875.112 1.22.338.35.22.62.51.81.873.196.356.294.742.294 1.157 0 .131-.006.232-.018.303h-3.856c.024.303.107.573.25.81.148.232.338.416.57.552.231.131.481.196.748.196.285 0 .552-.071.801-.213.255-.143.43-.33.525-.561l.677.187c-.148.344-.406.626-.774.846-.369.219-.787.329-1.256.329zm-1.567-2.689h3.17c-.024-.303-.11-.57-.258-.802-.149-.231-.339-.412-.57-.543-.232-.13-.487-.196-.766-.196-.273 0-.526.066-.757.196-.232.131-.422.312-.57.543-.142.232-.226.499-.249.802zm6.365 2.689c-.386 0-.748-.062-1.086-.187-.339-.131-.63-.323-.873-.579l.303-.552c.267.249.534.428.801.534.267.107.54.161.819.161.321 0 .582-.06.784-.178.202-.125.303-.306.303-.544 0-.172-.054-.299-.161-.382-.1-.084-.246-.152-.436-.205-.19-.06-.415-.125-.677-.196-.48-.137-.849-.297-1.104-.481-.249-.19-.374-.466-.374-.828 0-.439.166-.778.499-1.015.338-.244.769-.365 1.291-.365.701 0 1.253.21 1.656.632l-.356.543c-.362-.374-.81-.561-1.344-.561-.161 0-.318.021-.472.062-.155.036-.282.104-.383.205-.101.095-.152.232-.152.41 0 .219.089.377.267.472.179.095.44.193.784.294.35.1.653.201.908.302.262.101.463.232.606.392.142.16.214.383.214.668 0 .439-.167.784-.499 1.033-.333.243-.772.365-1.318.365zm5.158-.321c-.095.042-.246.101-.454.179-.202.077-.427.115-.677.115-.284 0-.531-.077-.739-.231-.207-.16-.311-.407-.311-.739v-3.126h-.633v-.614h.633v-1.55h.783v1.55h1.042v.614h-1.042v2.885c.012.167.069.291.17.374.1.077.219.116.356.116.154 0 .297-.027.427-.08.131-.054.217-.092.258-.116zm7.393-5.378h-2.181v5.61h-.802v-5.61h-2.181v-.712h5.164zm1.852 5.699c-.463 0-.873-.11-1.229-.329-.356-.22-.635-.514-.837-.882s-.303-.769-.303-1.202c0-.439.101-.84.303-1.202s.481-.653.837-.873c.362-.22.775-.329 1.238-.329.469 0 .875.112 1.22.338.35.22.62.51.81.873.196.356.294.742.294 1.157 0 .131-.006.232-.018.303h-3.856c.024.303.107.573.25.81.148.232.338.416.57.552.231.131.48.196.748.196.285 0 .552-.071.801-.213.255-.143.43-.33.525-.561l.677.187c-.148.344-.407.626-.775.846-.368.219-.786.329-1.255.329zm-1.567-2.689h3.17c-.024-.303-.11-.57-.259-.802-.148-.231-.338-.412-.569-.543-.232-.13-.487-.196-.766-.196-.273 0-.526.066-.757.196-.232.131-.422.312-.57.543-.143.232-.226.499-.249.802zm6.828 2.689c-.463 0-.873-.11-1.229-.329-.356-.226-.635-.523-.837-.891s-.303-.769-.303-1.202c0-.439.098-.84.294-1.202s.472-.65.828-.864c.356-.22.769-.329 1.238-.329.457 0 .855.103 1.193.311.345.202.6.475.766.819l-.766.241c-.118-.22-.285-.389-.498-.508-.214-.124-.452-.187-.713-.187-.285 0-.546.075-.783.223-.232.148-.416.353-.552.614-.137.256-.205.55-.205.882 0 .326.068.623.205.89.142.262.329.469.561.624.237.154.498.231.783.231.184 0 .359-.032.526-.098.172-.065.32-.151.445-.258.13-.113.219-.234.267-.365l.766.232c-.137.338-.386.617-.748.837-.356.219-.769.329-1.238.329zm6.907-.089h-.783v-2.6c0-.475-.086-.831-.258-1.069-.167-.237-.407-.356-.722-.356-.202 0-.406.053-.614.16-.202.107-.38.253-.534.437-.155.178-.268.386-.339.623v2.805h-.783v-6.5h.783v2.849c.184-.332.434-.594.748-.784.321-.195.665-.293 1.033-.293s.659.086.873.258.365.406.454.703c.095.291.142.621.142.989zm5.253 0h-.784v-2.6c0-.493-.077-.852-.231-1.078-.149-.231-.377-.347-.686-.347-.214 0-.427.053-.641.16-.208.107-.395.253-.561.437-.16.178-.276.386-.347.623v2.805h-.784v-4.648h.712v.997c.184-.326.449-.588.793-.784.35-.195.73-.293 1.14-.293.362 0 .641.086.837.258.202.166.344.398.427.694.083.291.125.624.125.998zm3.249.089c-.463 0-.873-.11-1.229-.329-.35-.226-.623-.52-.819-.882-.196-.368-.294-.766-.294-1.193 0-.434.098-.831.294-1.193.201-.369.478-.662.828-.882.356-.226.763-.338 1.22-.338.463 0 .869.112 1.22.338.356.22.632.513.828.882.202.362.303.759.303 1.193 0 .427-.101.825-.303 1.193-.196.362-.469.656-.819.882-.351.219-.76.329-1.229.329zm-1.541-2.395c0 .32.068.611.205.872.143.262.33.469.561.624.232.148.49.222.775.222s.543-.077.774-.231c.238-.155.425-.362.561-.624.143-.267.214-.561.214-.881 0-.321-.071-.612-.214-.873-.136-.261-.323-.469-.561-.623-.231-.154-.489-.232-.774-.232s-.543.08-.775.241c-.231.154-.418.362-.561.623-.137.261-.205.555-.205.882zm4.859-4.194h.784v5.298c0 .255.035.412.106.472.072.059.158.089.259.089.124 0 .243-.012.356-.036.113-.029.208-.059.285-.089l.124.641c-.13.054-.284.098-.463.134-.178.036-.335.053-.472.053-.302 0-.543-.086-.721-.258-.172-.172-.258-.412-.258-.721zm4.56 6.589c-.463 0-.872-.11-1.228-.329-.351-.226-.624-.52-.82-.882-.196-.368-.294-.766-.294-1.193 0-.434.098-.831.294-1.193.202-.369.478-.662.828-.882.357-.226.763-.338 1.22-.338.463 0 .87.112 1.22.338.357.22.633.513.828.882.202.362.303.759.303 1.193 0 .427-.101.825-.303 1.193-.195.362-.469.656-.819.882-.35.219-.76.329-1.229.329zm-1.54-2.395c0 .32.068.611.205.872.142.262.329.469.561.624.231.148.489.222.774.222s.544-.077.775-.231c.238-.155.425-.362.561-.624.143-.267.214-.561.214-.881 0-.321-.071-.612-.214-.873-.136-.261-.323-.469-.561-.623-.231-.154-.49-.232-.775-.232s-.543.08-.774.241c-.232.154-.419.362-.561.623-.137.261-.205.555-.205.882zm6.693 2.359c-.422 0-.796-.109-1.122-.329-.321-.226-.573-.519-.757-.882-.178-.362-.267-.748-.267-1.157 0-.44.089-.84.267-1.202.184-.368.439-.662.766-.882.326-.22.7-.329 1.122-.329.386 0 .721.095 1.006.285.291.189.534.43.73.721v-.926h.695v4.595c0 .439-.107.81-.321 1.113-.207.302-.492.531-.855.685-.356.161-.754.241-1.193.241-.522 0-.95-.092-1.282-.276-.333-.184-.609-.434-.828-.748l.454-.401c.184.273.421.478.712.614.297.137.612.205.944.205.285 0 .546-.053.784-.16.243-.101.436-.258.579-.472.148-.214.222-.481.222-.801v-.82c-.172.285-.409.511-.712.677-.297.166-.612.249-.944.249zm.24-.641c.22 0 .431-.05.633-.151.201-.101.371-.232.507-.392.143-.16.235-.326.276-.499v-1.335c-.124-.315-.326-.573-.605-.775-.279-.208-.573-.312-.882-.312-.314 0-.588.086-.819.259-.226.172-.401.391-.525.659-.119.267-.179.546-.179.837 0 .308.072.593.214.854.143.256.333.463.57.624.243.154.514.231.81.231zm3.678 1.852c.077.006.155.012.232.018.077.012.136.018.178.018.095 0 .178-.033.249-.098s.149-.193.232-.383c.089-.184.202-.457.338-.819l-1.968-4.648h.828l1.568 3.855 1.415-3.855h.775l-2.262 5.868c-.077.208-.216.389-.418.543-.196.16-.46.241-.793.241-.053 0-.11-.003-.169-.009-.053-.006-.122-.018-.205-.036zm11.062-6.874h-2.182v5.61h-.801v-5.61h-2.182v-.712h5.165zm2.522 1.647c-.392.006-.739.107-1.042.303-.297.19-.508.454-.632.793v2.867h-.784v-4.648h.73v1.077c.161-.32.371-.579.633-.775.267-.201.546-.314.837-.338h.151c.042 0 .077.003.107.009zm2.73 4.052c-.463 0-.873-.11-1.229-.329-.356-.22-.635-.514-.837-.882s-.303-.769-.303-1.202c0-.439.101-.84.303-1.202s.481-.653.837-.873c.362-.22.775-.329 1.238-.329.469 0 .875.112 1.22.338.35.22.62.51.81.873.196.356.294.742.294 1.157 0 .131-.006.232-.018.303h-3.856c.024.303.107.573.25.81.148.232.338.416.57.552.231.131.48.196.748.196.284 0 .552-.071.801-.213.255-.143.43-.33.525-.561l.677.187c-.148.344-.407.626-.775.846-.368.219-.786.329-1.255.329zm-1.567-2.689h3.17c-.024-.303-.11-.57-.259-.802-.148-.231-.338-.412-.569-.543-.232-.13-.487-.196-.766-.196-.273 0-.526.066-.757.196-.232.131-.422.312-.57.543-.143.232-.226.499-.249.802zm8.805 2.6h-.784v-2.6c0-.493-.077-.852-.231-1.078-.149-.231-.377-.347-.686-.347-.214 0-.427.053-.641.16-.208.107-.395.253-.561.437-.16.178-.276.386-.347.623v2.805h-.784v-4.648h.712v.997c.184-.326.448-.588.793-.784.35-.195.73-.293 1.14-.293.362 0 .641.086.837.258.202.166.344.398.427.694.083.291.125.624.125.998zm.916-2.315c0-.44.089-.84.267-1.202.184-.368.433-.662.748-.882.32-.22.685-.329 1.095-.329.374 0 .709.098 1.006.293.297.196.529.434.695.713v-2.778h.783v5.61c0 .184.084.279.25.284v.606c-.149.024-.264.036-.348.036-.154 0-.29-.054-.409-.161-.113-.107-.169-.225-.169-.356v-.392c-.184.297-.431.532-.739.704-.309.172-.63.258-.962.258-.428 0-.81-.11-1.149-.329-.332-.226-.594-.52-.783-.882-.19-.368-.285-.766-.285-1.193zm3.811.685v-1.335c-.071-.202-.187-.383-.347-.543-.161-.167-.342-.297-.544-.392-.196-.101-.391-.152-.587-.152-.303 0-.57.083-.802.25-.225.166-.404.383-.534.65-.125.267-.187.549-.187.846 0 .308.068.593.205.855.142.261.335.471.579.632.243.154.513.231.81.231.19 0 .386-.044.588-.133.201-.095.379-.223.534-.383.154-.16.249-.336.285-.526zm3.686 1.719c-.386 0-.748-.062-1.087-.187-.338-.131-.629-.323-.873-.579l.303-.552c.267.249.535.428.802.534.267.107.54.161.819.161.32 0 .582-.06.784-.178.201-.125.302-.306.302-.544 0-.172-.053-.299-.16-.382-.101-.084-.246-.152-.436-.205-.19-.06-.416-.125-.677-.196-.481-.137-.849-.297-1.104-.481-.25-.19-.374-.466-.374-.828 0-.439.166-.778.498-1.015.339-.244.769-.365 1.292-.365.7 0 1.252.21 1.656.632l-.356.543c-.362-.374-.811-.561-1.345-.561-.16 0-.318.021-.472.062-.154.036-.282.104-.383.205-.101.095-.151.232-.151.41 0 .219.089.377.267.472s.439.193.784.294c.35.1.653.201.908.302.261.101.463.232.605.392.143.16.214.383.214.668 0 .439-.166.784-.499 1.033-.332.243-.771.365-1.317.365zm5.006-5.61v-.979h.784v.979zm0 5.521v-4.648h.784v4.648zm6.086 0h-.784v-2.6c0-.493-.077-.852-.231-1.078-.149-.231-.377-.347-.686-.347-.214 0-.427.053-.641.16-.208.107-.395.253-.561.437-.16.178-.276.386-.347.623v2.805h-.784v-4.648h.713v.997c.184-.326.448-.588.792-.784.35-.195.73-.293 1.14-.293.362 0 .641.086.837.258.202.166.344.398.427.694.083.291.125.624.125.998zm-118.5232 12v-6.322h2.1906c.6767 0 1.2407.142 1.6919.427.4571.279.7984.659 1.024 1.14.2256.475.3384 1.003.3384 1.585 0 .641-.1247 1.199-.374 1.674s-.6026.843-1.0597 1.104-.9973.392-1.6206.392zm4.4346-3.17c0-.475-.0891-.897-.2672-1.265-.1721-.368-.4244-.656-.7569-.863-.3324-.208-.7391-.312-1.2199-.312h-1.3892v4.898h1.3892c.4868 0 .8964-.107 1.2288-.321.3325-.22.5848-.513.7569-.882.1722-.374.2583-.792.2583-1.255zm1.4064 1.825c0-.296.0831-.552.2493-.765.1722-.22.4066-.389.7035-.508.2968-.119.6411-.178 1.0329-.178.2078 0 .4275.018.659.053.2315.03.4363.078.6144.143v-.339c0-.356-.1069-.635-.3206-.837-.2137-.207-.5164-.311-.9083-.311-.2552 0-.5016.047-.739.142-.2316.089-.4779.22-.7391.392l-.285-.552c.3028-.208.6055-.362.9083-.463.3028-.107.6174-.16.9439-.16.5936 0 1.0626.166 1.4069.498.3444.327.5165.784.5165 1.372v1.968c0 .184.0831.279.2494.284v.606c-.0772.012-.1455.021-.2049.027-.0534.006-.0979.009-.1335.009-.1841 0-.3236-.051-.4185-.152-.0891-.101-.1396-.208-.1514-.32l-.0178-.294c-.2019.261-.4661.463-.7926.605-.3265.143-.65.214-.9706.214-.3087 0-.5847-.062-.8281-.187-.2434-.131-.4334-.303-.5699-.516-.1366-.22-.2048-.463-.2048-.731zm3.0276.33c.0712-.083.1276-.166.1692-.249.0415-.09.0623-.164.0623-.223v-.579c-.3799-.148-.7717-.223-1.1754-.223-.3978 0-.7213.081-.9706.241-.2434.154-.3651.368-.3651.641 0 .148.0385.294.1157.436.0831.137.2019.25.3562.339.1603.089.3562.133.5877.133.2434 0 .4749-.047.6946-.142.2197-.101.3948-.226.5254-.374zm4.7256-2.948c-.392.006-.7389.107-1.0416.303-.2968.19-.5076.454-.6323.793v2.867h-.7836v-4.648h.7302v1.077c.1603-.32.371-.579.6322-.775.2672-.201.5462-.314.8371-.338h.151c.042 0 .078.003.107.009zm.777-1.558v-.979h.784v.979zm0 5.521v-4.648h.784v4.648zm2.115-5.521v-.979h.784v.979zm-.659 7.177c-.202 0-.395-.029-.579-.089-.184-.059-.347-.154-.489-.285l.365-.525c.083.077.181.131.293.16.107.03.214.045.321.045.19 0 .362-.072.517-.214.154-.142.231-.324.231-.543v-4.853h.784v4.799c0 .291-.069.55-.205.775-.137.232-.315.41-.534.534-.214.131-.449.196-.704.196zm2.345-3.001c0-.296.083-.552.249-.765.172-.22.407-.389.704-.508.296-.119.641-.178 1.033-.178.207 0 .427.018.658.053.232.03.437.078.615.143v-.339c0-.356-.107-.635-.321-.837-.213-.207-.516-.311-.908-.311-.255 0-.502.047-.739.142-.232.089-.478.22-.739.392l-.285-.552c.303-.208.605-.362.908-.463.303-.107.618-.16.944-.16.594 0 1.063.166 1.407.498.344.327.517.784.517 1.372v1.968c0 .184.083.279.249.284v.606c-.077.012-.146.021-.205.027-.053.006-.098.009-.134.009-.184 0-.323-.051-.418-.152-.089-.101-.14-.208-.151-.32l-.018-.294c-.202.261-.466.463-.793.605-.326.143-.65.214-.97.214-.309 0-.585-.062-.829-.187-.243-.131-.433-.303-.569-.516-.137-.22-.205-.463-.205-.731zm3.027.33c.072-.083.128-.166.17-.249.041-.09.062-.164.062-.223v-.579c-.38-.148-.772-.223-1.176-.223-.397 0-.721.081-.97.241-.244.154-.365.368-.365.641 0 .148.038.294.116.436.083.137.201.25.356.339.16.089.356.133.587.133.244 0 .475-.047.695-.142.22-.101.395-.226.525-.374zm2.206 1.015v-.997h.659v.997z" fill="#e3ddfc"/><path d="m86.7201 214.479v-4.463h1.848c.1927 0 .3687.04.528.119.1634.08.3038.189.4211.327.1215.134.2137.285.2766.453.067.163.1006.331.1006.503 0 .243-.0545.473-.1635.691-.1089.214-.2598.388-.4525.522-.1928.134-.417.201-.6726.201h-1.4457v1.647zm.44-2.037h1.4268c.176 0 .329-.048.4589-.144.1299-.097.2305-.222.3017-.377.0712-.156.1069-.323.1069-.503 0-.185-.0419-.352-.1258-.503-.0838-.155-.1948-.279-.3331-.371-.1341-.092-.2829-.138-.4463-.138h-1.3891zm4.7162 2.1c-.3143 0-.5951-.078-.8423-.233-.2431-.155-.4337-.36-.572-.616-.1383-.26-.2074-.54-.2074-.842 0-.306.0691-.587.2074-.842.1425-.26.3352-.468.5783-.623.2472-.159.5259-.239.836-.239.3143 0 .5929.08.836.239.2472.155.44.363.5783.623.1424.255.2137.536.2137.842 0 .302-.0692.582-.2075.842-.1382.256-.331.461-.5782.616-.2431.155-.5238.233-.8423.233zm-1.188-1.685c0 .243.0524.465.1571.666.109.197.2535.354.4337.472.1802.113.3793.17.5972.17s.4169-.059.5971-.176c.1802-.118.3248-.277.4337-.478.109-.201.1635-.423.1635-.666 0-.244-.0545-.466-.1635-.667-.1089-.201-.2535-.36-.4337-.477-.1802-.118-.3792-.176-.5971-.176-.2137 0-.4107.06-.5909.182-.1802.117-.3247.276-.4337.478-.1089.201-.1634.425-.1634.672zm7.5438-1.653h.4211l-1.408 3.275h-.3708l-.6852-1.628-.6788 1.628h-.3709l-1.408-3.275h.4149l1.1942 2.835.6035-1.477-.5532-1.352h.3835l.4148 1.063.4212-1.063h.3771l-.5469 1.352.6035 1.477zm2.2939 3.338c-.315 0-.5953-.078-.8426-.233-.2472-.155-.4421-.362-.5845-.622-.1425-.26-.2138-.545-.2138-.855 0-.306.0692-.587.2075-.842.1424-.256.3373-.459.5845-.61.2473-.155.5279-.233.8419-.233.323 0 .606.078.849.233s.432.36.566.616c.138.251.207.528.207.83 0 .067-.002.123-.006.169h-2.8036c.021.235.088.445.2012.629.1131.18.2577.325.4337.434.1757.104.3687.157.5787.157.213 0 .414-.055.603-.164s.323-.251.402-.427l.371.101c-.067.159-.172.301-.314.427-.138.121-.3.218-.484.289-.185.067-.384.101-.597.101zm-1.2071-1.855h2.4201c-.017-.234-.082-.442-.195-.622-.113-.184-.258-.327-.434-.427-.176-.105-.371-.157-.584-.157-.214 0-.409.052-.5849.157-.176.1-.3205.243-.4337.427-.1089.18-.1718.388-.1885.622zm5.1161-1.106c-.285.008-.536.088-.754.239-.214.151-.365.358-.453.622v2.037h-.427v-3.275h.402v.786c.113-.231.262-.417.446-.56.189-.142.388-.222.597-.239.042-.004.078-.006.107-.006.03 0 .057.002.082.006zm1.885 2.961c-.314 0-.595-.078-.842-.233s-.442-.362-.585-.622c-.142-.26-.213-.545-.213-.855 0-.306.069-.587.207-.842.143-.256.338-.459.585-.61.247-.155.528-.233.842-.233.323 0 .606.078.849.233s.431.36.565.616c.139.251.208.528.208.83 0 .067-.002.123-.007.169h-2.803c.021.235.088.445.201.629.113.18.258.325.434.434.176.104.369.157.578.157.214 0 .415-.055.604-.164.188-.109.322-.251.402-.427l.371.101c-.067.159-.172.301-.315.427-.138.121-.299.218-.484.289-.184.067-.383.101-.597.101zm-1.207-1.855h2.42c-.016-.234-.081-.442-.194-.622-.114-.184-.258-.327-.434-.427-.176-.105-.371-.157-.585-.157-.213 0-.408.052-.584.157-.176.1-.321.243-.434.427-.109.18-.172.388-.189.622zm3.262.164c0-.31.063-.593.189-.849.13-.26.308-.467.534-.622s.484-.233.773-.233c.273 0 .516.074.729.22.218.143.388.317.51.522v-1.999h.427v4.073c0 .114.05.172.151.176v.34c-.084.012-.149.017-.195.012-.092-.004-.172-.037-.239-.1-.063-.067-.094-.143-.094-.226v-.321c-.13.214-.306.383-.528.509s-.453.189-.692.189c-.226 0-.435-.046-.628-.139-.193-.092-.361-.218-.503-.377-.138-.159-.245-.339-.321-.54-.075-.206-.113-.417-.113-.635zm2.735.503v-1.012c-.055-.151-.143-.287-.264-.409-.122-.126-.26-.224-.415-.295-.151-.076-.302-.113-.453-.113-.235 0-.44.064-.616.194-.172.126-.306.292-.402.497-.097.201-.145.413-.145.635 0 .234.053.452.157.654.109.201.256.362.44.484.185.117.392.176.623.176.142 0 .291-.036.446-.107.159-.076.297-.174.415-.296.121-.121.193-.257.214-.408zm6.202 1.188c-.255 0-.492-.065-.71-.195-.218-.134-.387-.302-.509-.503v.635h-.383v-4.589h.427v1.999c.147-.222.323-.4.528-.534.205-.138.444-.208.717-.208.23 0 .435.049.616.145.184.096.341.226.471.39.13.159.228.341.295.547.068.201.101.408.101.622 0 .306-.069.586-.207.842-.134.256-.319.461-.554.616-.234.155-.498.233-.792.233zm-.1-.377c.239 0 .448-.063.628-.189.185-.126.329-.287.434-.484.105-.201.157-.415.157-.641 0-.231-.05-.446-.151-.648-.096-.201-.232-.364-.408-.49s-.379-.188-.61-.188c-.255 0-.482.081-.679.245-.192.163-.341.354-.446.572v1.018c.021.151.09.287.207.409.118.121.256.217.415.289.16.071.31.107.453.107zm2.455 1.32c.059.004.115.006.17.006.054.004.094.002.119-.006.051-.005.097-.034.139-.088.046-.051.1-.147.163-.29.067-.138.157-.347.27-.628l-1.427-3.275h.453l1.201 2.835 1.106-2.835h.427l-1.697 4.224c-.046.121-.123.226-.232.314s-.254.134-.434.139c-.038.004-.078.004-.12 0-.041 0-.088-.005-.138-.013zm-29.4709 4.121h-.8109l-.2954 1.232h.8423v.34h-.924l-.3143 1.301h-.3646l.3206-1.301h-1.188l-.3143 1.301h-.3646l.3206-1.301h-.7103v-.34h.792l.2954-1.232h-.8171v-.32h.8989l.308-1.27h.3645l-.3143 1.27h1.188l.308-1.27h.3646l-.3143 1.27h.7292zm-1.4646 1.232.2954-1.232h-1.188l-.2954 1.232zm2.2609 1.641v-4.463h1.5149c.4735 0 .8674.101 1.1817.302.3184.197.5573.465.7165.804.1593.335.2389.708.2389 1.119 0 .453-.088.847-.264 1.182s-.4232.595-.7417.779c-.3185.185-.6956.277-1.1314.277zm3.212-2.238c0-.356-.0671-.672-.2011-.949-.13-.277-.3227-.492-.5783-.647-.2515-.16-.5574-.239-.9177-.239h-1.0749v3.683h1.0749c.3687 0 .6788-.082.9302-.245.2515-.163.4421-.383.572-.66s.1949-.591.1949-.943zm2.6076 2.301c-.3143 0-.5951-.078-.8423-.233s-.4421-.362-.5846-.622c-.1424-.26-.2137-.545-.2137-.855 0-.306.0692-.587.2074-.842.1425-.256.3374-.459.5846-.61.2473-.155.528-.233.8423-.233.3227 0 .6055.078.8486.233.243.155.4316.36.5657.616.1383.251.2074.528.2074.83 0 .067-.0021.123-.0063.169h-2.8034c.021.235.088.445.2011.629.1132.18.2578.325.4338.434.176.104.3687.157.5782.157.2138 0 .4149-.055.6035-.164.1885-.109.3226-.251.4023-.427l.3708.101c-.067.159-.1718.301-.3143.427-.1383.121-.2996.218-.484.289-.1844.067-.3834.101-.5971.101zm-1.2069-1.855h2.42c-.0167-.234-.0817-.442-.1948-.622-.1132-.184-.2577-.327-.4337-.427-.176-.105-.3709-.157-.5846-.157s-.4086.052-.5846.157c-.176.1-.3206.243-.4337.427-.109.18-.1718.388-.1886.622zm4.3701 1.792-1.3263-3.275h.4463l1.1188 2.847 1.125-2.847h.421l-1.326 3.275zm2.1698-2.263c0-.268.046-.534.138-.798.097-.264.235-.503.415-.717.18-.218.402-.39.666-.515.264-.13.564-.195.899-.195.394 0 .734.092 1.019.276.285.181.494.413.628.698l-.346.214c-.096-.197-.217-.352-.364-.465-.147-.118-.304-.201-.472-.252-.163-.05-.326-.075-.49-.075-.268 0-.505.054-.71.163-.205.105-.379.247-.522.428-.138.18-.243.379-.314.597s-.107.44-.107.666c0 .247.042.484.126.71.084.222.201.422.352.598s.327.316.528.421c.205.1.427.151.666.151.168 0 .339-.03.515-.088.176-.059.34-.149.491-.271.151-.121.274-.278.371-.471l.364.188c-.096.222-.241.411-.434.566-.188.155-.402.272-.641.352-.234.08-.465.12-.691.12-.306 0-.587-.065-.842-.195-.256-.134-.478-.31-.667-.528-.184-.222-.327-.47-.427-.742-.101-.277-.151-.555-.151-.836zm4.454 2.653v-.39h2.395v.39zm7.315-.39v-3.633l-1.616 2.822h-.276l-1.622-2.822v3.633h-.44v-4.463h.453l1.741 3.055 1.753-3.055h.447v4.463zm2.817.063c-.315 0-.595-.078-.843-.233-.243-.155-.433-.36-.572-.616-.138-.26-.207-.54-.207-.842 0-.306.069-.587.207-.842.143-.26.336-.468.579-.623.247-.159.526-.239.836-.239.314 0 .593.08.836.239.247.155.44.363.578.623.142.255.214.536.214.842 0 .302-.07.582-.208.842-.138.256-.331.461-.578.616-.243.155-.524.233-.842.233zm-1.188-1.685c0 .243.052.465.157.666.109.197.253.354.433.472.181.113.38.17.598.17s.417-.059.597-.176c.18-.118.325-.277.433-.478.109-.201.164-.423.164-.666 0-.244-.055-.466-.164-.667-.108-.201-.253-.36-.433-.477-.18-.118-.379-.176-.597-.176-.214 0-.411.06-.591.182-.18.117-.325.276-.434.478-.109.201-.163.425-.163.672zm5.165-1.276c-.285.008-.537.088-.755.239-.213.151-.364.358-.452.622v2.037h-.428v-3.275h.403v.786c.113-.231.262-.417.446-.56.189-.142.388-.222.597-.239.042-.004.078-.006.107-.006s.057.002.082.006zm1.866 2.961c-.314 0-.595-.078-.842-.233-.243-.155-.434-.36-.572-.616-.138-.26-.207-.54-.207-.842 0-.306.069-.587.207-.842.143-.26.335-.468.578-.623.248-.159.526-.239.836-.239.315 0 .593.08.836.239.248.155.44.363.579.623.142.255.213.536.213.842 0 .302-.069.582-.207.842-.138.256-.331.461-.578.616-.243.155-.524.233-.843.233zm-1.188-1.685c0 .243.053.465.158.666.108.197.253.354.433.472.18.113.379.17.597.17s.417-.059.598-.176c.18-.118.324-.277.433-.478s.164-.423.164-.666c0-.244-.055-.466-.164-.667s-.253-.36-.433-.477c-.181-.118-.38-.176-.598-.176-.213 0-.41.06-.59.182-.181.117-.325.276-.434.478-.109.201-.164.425-.164.672zm4.952 1.685c-.319 0-.602-.078-.849-.233-.247-.159-.442-.367-.584-.622-.143-.26-.214-.545-.214-.855s.069-.591.207-.842c.139-.256.331-.459.579-.61.247-.155.532-.233.855-.233.305 0 .574.072.804.214.235.138.411.327.528.566l-.415.132c-.092-.168-.222-.298-.389-.39-.164-.096-.346-.144-.547-.144-.222 0-.424.056-.604.169-.176.113-.318.271-.427.472-.105.197-.157.419-.157.666s.054.471.163.673c.109.201.254.362.434.484.18.117.379.176.597.176.142 0 .281-.026.415-.076s.249-.117.346-.201c.096-.088.161-.182.194-.283l.422.126c-.059.155-.156.295-.29.421-.134.121-.293.218-.477.289-.185.067-.382.101-.591.101zm3.419 0c-.319 0-.601-.078-.849-.233-.247-.159-.442-.367-.584-.622-.143-.26-.214-.545-.214-.855s.069-.591.207-.842c.139-.256.332-.459.579-.61.247-.155.532-.233.855-.233.306 0 .574.072.804.214.235.138.411.327.528.566l-.415.132c-.092-.168-.222-.298-.389-.39-.164-.096-.346-.144-.547-.144-.222 0-.423.056-.604.169-.176.113-.318.271-.427.472-.105.197-.157.419-.157.666s.054.471.163.673c.109.201.254.362.434.484.18.117.379.176.597.176.143 0 .281-.026.415-.076s.249-.117.346-.201c.096-.088.161-.182.194-.283l.422.126c-.059.155-.155.295-.29.421-.134.121-.293.218-.477.289-.185.067-.382.101-.591.101zm3.394 0c-.314 0-.595-.078-.842-.233-.244-.155-.434-.36-.572-.616-.139-.26-.208-.54-.208-.842 0-.306.069-.587.208-.842.142-.26.335-.468.578-.623.247-.159.526-.239.836-.239.314 0 .593.08.836.239.247.155.44.363.578.623.143.255.214.536.214.842 0 .302-.069.582-.208.842-.138.256-.331.461-.578.616-.243.155-.524.233-.842.233zm-1.188-1.685c0 .243.052.465.157.666.109.197.253.354.434.472.18.113.379.17.597.17s.417-.059.597-.176c.18-.118.325-.277.434-.478s.163-.423.163-.666c0-.244-.054-.466-.163-.667s-.254-.36-.434-.477c-.18-.118-.379-.176-.597-.176-.214 0-.411.06-.591.182-.18.117-.325.276-.434.478-.109.201-.163.425-.163.672z" fill="#b2a6ea"/></svg>