<svg fill="none" height="337" viewBox="0 0 655 337" width="655" xmlns="http://www.w3.org/2000/svg" xmlns:xlink="http://www.w3.org/1999/xlink"><linearGradient id="a" gradientUnits="userSpaceOnUse" x1="640.5" x2=".000001" y1="18.5" y2="323.5"><stop offset="0" stop-color="#fff"/><stop offset="1" stop-color="#fff" stop-opacity=".39"/></linearGradient><mask id="b" fill="#fff"><path clip-rule="evenodd" d="m0 15c7.73199 0 14-6.26801 14-14 0-.336233-.0119-.669698-.0352-1h627.0702c-.023.330302-.035.663767-.035 1 0 7.73199 6.268 14 14 14v28c-7.732 0-14 6.268-14 14s6.268 14 14 14v28c-7.732 0-14 6.268-14 14s6.268 14 14 14v28c-7.732 0-14 6.268-14 14s6.268 14 14 14v28c-7.732 0-14 6.268-14 14s6.268 14 14 14v28c-7.732 0-14 6.268-14 14s6.268 14 14 14v28c-7.732 0-14 6.268-14 14h-627c0-7.732-6.26801-14-14-14v-28c7.73199 0 14-6.268 14-14s-6.26801-14-14-14v-28c7.73199 0 14-6.268 14-14s-6.26801-14-14-14v-28c7.73199 0 14-6.268 14-14s-6.26801-14-14-14v-28c7.73199 0 14-6.268 14-14s-6.26801-14-14-14v-28c7.73199 0 14-6.268 14-14s-6.26801-14-14-14z" fill="#fff" fill-rule="evenodd"/></mask><path clip-rule="evenodd" d="m0 15c7.73199 0 14-6.26801 14-14 0-.336233-.0119-.669698-.0352-1h627.0702c-.023.330302-.035.663767-.035 1 0 7.73199 6.268 14 14 14v28c-7.732 0-14 6.268-14 14s6.268 14 14 14v28c-7.732 0-14 6.268-14 14s6.268 14 14 14v28c-7.732 0-14 6.268-14 14s6.268 14 14 14v28c-7.732 0-14 6.268-14 14s6.268 14 14 14v28c-7.732 0-14 6.268-14 14s6.268 14 14 14v28c-7.732 0-14 6.268-14 14h-627c0-7.732-6.26801-14-14-14v-28c7.73199 0 14-6.268 14-14s-6.26801-14-14-14v-28c7.73199 0 14-6.268 14-14s-6.26801-14-14-14v-28c7.73199 0 14-6.268 14-14s-6.26801-14-14-14v-28c7.73199 0 14-6.268 14-14s-6.26801-14-14-14v-28c7.73199 0 14-6.268 14-14s-6.26801-14-14-14z" fill="url(#a)" fill-opacity=".1" fill-rule="evenodd"/><path d="m0 15v-8h-8v8zm13.9648-15v-8h-8.58445l.60433 8.56319zm627.0702 0 7.98.563305.605-8.563305h-8.585zm13.965 15h8v-8h-8zm0 28v8h8v-8zm0 28h8v-8h-8zm0 28v8h8v-8zm0 28h8v-8h-8zm0 28v8h8v-8zm0 28h8v-8h-8zm0 28v8h8v-8zm0 28h8v-8h-8zm0 28v8h8v-8zm0 28h8v-8h-8zm0 28v8h8v-8zm-14 14v8h8v-8zm-627 0h-8v8h8zm-14-14h-8v8h8zm0-28v-8h-8v8zm0-28h-8v8h8zm0-28v-8h-8v8zm0-28h-8v8h8zm0-28v-8h-8v8zm0-28h-8v8h8zm0-28v-8h-8v8zm0-28h-8v8h8zm0-28v-8h-8v8zm0-28h-8v8h8zm6-42c0 3.31371-2.68629 6-6 6v16c12.1503 0 22-9.8497 22-22zm-.01532-.43681c.0101.143036.01532.288654.01532.43681h16c0-.524311-.0185-1.0456226-.055-1.56319zm635.05032-8.56319h-627.0702v16h627.0702zm7.965 9c0-.148354.005-.293934.015-.436695l-15.96-1.12661c-.037.517842-.055 1.039192-.055 1.563305zm6 6c-3.314 0-6-2.68629-6-6h-16c0 12.1503 9.85 22 22 22zm8 36v-28h-16v28zm-14 14c0-3.3137 2.686-6 6-6v-16c-12.15 0-22 9.8497-22 22zm6 6c-3.314 0-6-2.6863-6-6h-16c0 12.1503 9.85 22 22 22zm8 36v-28h-16v28zm-14 14c0-3.314 2.686-6 6-6v-16c-12.15 0-22 9.85-22 22zm6 6c-3.314 0-6-2.686-6-6h-16c0 12.15 9.85 22 22 22zm8 36v-28h-16v28zm-14 14c0-3.314 2.686-6 6-6v-16c-12.15 0-22 9.85-22 22zm6 6c-3.314 0-6-2.686-6-6h-16c0 12.15 9.85 22 22 22zm8 36v-28h-16v28zm-14 14c0-3.314 2.686-6 6-6v-16c-12.15 0-22 9.85-22 22zm6 6c-3.314 0-6-2.686-6-6h-16c0 12.15 9.85 22 22 22zm8 36v-28h-16v28zm-14 14c0-3.314 2.686-6 6-6v-16c-12.15 0-22 9.85-22 22zm6 6c-3.314 0-6-2.686-6-6h-16c0 12.15 9.85 22 22 22zm8 36v-28h-16v28zm-14 14c0-3.314 2.686-6 6-6v-16c-12.15 0-22 9.85-22 22zm-635 8h627v-16h-627zm-14-14c3.31371 0 6 2.686 6 6h16c0-12.15-9.8497-22-22-22zm-8-36v28h16v-28zm14-14c0 3.314-2.68629 6-6 6v16c12.1503 0 22-9.85 22-22zm-6-6c3.31371 0 6 2.686 6 6h16c0-12.15-9.8497-22-22-22zm-8-36v28h16v-28zm14-14c0 3.314-2.68629 6-6 6v16c12.1503 0 22-9.85 22-22zm-6-6c3.31371 0 6 2.686 6 6h16c0-12.15-9.8497-22-22-22zm-8-36v28h16v-28zm14-14c0 3.314-2.68629 6-6 6v16c12.1503 0 22-9.85 22-22zm-6-6c3.31371 0 6 2.686 6 6h16c0-12.15-9.8497-22-22-22zm-8-36v28h16v-28zm14-14c0 3.314-2.68629 6-6 6v16c12.1503 0 22-9.85 22-22zm-6-6c3.31371 0 6 2.686 6 6h16c0-12.15-9.8497-22-22-22zm-8-36v28h16v-28zm14-14c0 3.3137-2.68629 6-6 6v16c12.1503 0 22-9.8497 22-22zm-6-6c3.31371 0 6 2.6863 6 6h16c0-12.1503-9.8497-22-22-22zm-8-36v28h16v-28z" fill="#fff" fill-opacity=".1" mask="url(#b)"/><path d="m71 231h100v42.2829h-100z" fill="#110547"/><g fill="#fff"><path d="m97.7514 256.305v-.05c0-1.171-.293-2.083-.8789-2.735-.586-.67-1.3896-1.197-2.4108-1.581.3181-.168.6111-.369.8789-.603.2846-.234.5274-.502.7283-.803.2176-.318.385-.669.5022-1.054.1339-.385.2009-.828.2009-1.33v-.05c0-1.389-.519-2.493-1.5569-3.313-1.0212-.82-2.4358-1.23-4.2439-1.23h-8.1612v17.568h8.3621c.9877 0 1.8834-.1 2.687-.301.8203-.201 1.515-.502 2.0842-.904.586-.401 1.0296-.903 1.3309-1.506.3181-.602.4772-1.305.4772-2.108zm-4.8215-7.504c0 .653-.2511 1.13-.7533 1.431-.5022.284-1.1803.427-2.034.427h-3.5659v-3.715h3.817c.8203 0 1.4481.159 1.8833.477.4353.301.6529.745.6529 1.33zm.9794 7.028c0 .652-.2428 1.137-.7282 1.455-.4855.301-1.1552.452-2.009.452h-4.5954v-3.865h4.4699c1.0044 0 1.7327.176 2.1847.527.452.335.678.795.678 1.38z"/><path d="m104.523 261.124v-18.321h-3.817v18.321z"/><path d="m119.685 261.124v-7.805c0-1.824-.477-3.246-1.432-4.267-.954-1.02-2.477-1.531-4.57-1.531-1.138 0-2.109.101-2.913.302-.803.2-1.574.46-2.31.778l.954 2.911c.62-.234 1.205-.41 1.758-.527.569-.134 1.222-.201 1.959-.201.954 0 1.674.209 2.159.627.486.419.728 1.029.728 1.833v.225c-.485-.167-.987-.301-1.506-.401-.502-.101-1.097-.151-1.783-.151-.804 0-1.54.092-2.21.276-.653.168-1.222.427-1.708.778-.468.352-.837.795-1.104 1.33-.268.536-.402 1.172-.402 1.908v.05c0 .669.117 1.263.351 1.782.251.502.586.928 1.005 1.28.418.351.904.619 1.456.803.569.167 1.172.251 1.808.251.938 0 1.733-.151 2.386-.452.653-.318 1.214-.736 1.682-1.255v1.456zm-3.616-4.743c0 .702-.277 1.271-.829 1.706-.536.435-1.256.653-2.16.653-.619 0-1.121-.142-1.506-.427-.385-.284-.578-.686-.578-1.205v-.05c0-.602.235-1.062.703-1.38.469-.318 1.114-.477 1.934-.477.469 0 .904.05 1.306.151.418.083.795.2 1.13.351z"/><path d="m137.107 254.423v-.05c0-1.121-.176-2.108-.527-2.962-.335-.87-.787-1.597-1.356-2.183-.569-.602-1.222-1.054-1.959-1.355s-1.498-.452-2.285-.452c-1.005 0-1.842.209-2.511.627-.653.402-1.214.921-1.683 1.556v-6.801h-3.817v18.321h3.817v-1.757c.452.536 1.005 1.004 1.658 1.406.669.401 1.515.602 2.536.602.803 0 1.574-.151 2.31-.452.737-.301 1.381-.744 1.934-1.33.569-.602 1.021-1.33 1.356-2.183.351-.87.527-1.866.527-2.987zm-3.817 0c0 .569-.092 1.079-.276 1.531-.167.452-.402.845-.703 1.18-.302.317-.653.568-1.055.752-.385.168-.803.251-1.255.251s-.879-.083-1.281-.251c-.385-.184-.728-.435-1.03-.752-.284-.335-.519-.728-.703-1.18-.167-.468-.251-.979-.251-1.531v-.05c0-.552.084-1.054.251-1.506.184-.468.419-.862.703-1.179.302-.335.645-.586 1.03-.753.402-.184.829-.276 1.281-.276s.87.092 1.255.276c.402.167.753.418 1.055.753.301.317.536.711.703 1.179.184.452.276.954.276 1.506z"/><path d="m143.907 261.124v-18.321h-3.817v18.321z"/><path d="m159.069 261.124v-7.805c0-1.824-.477-3.246-1.432-4.267-.954-1.02-2.477-1.531-4.57-1.531-1.138 0-2.109.101-2.913.302-.803.2-1.574.46-2.31.778l.954 2.911c.62-.234 1.205-.41 1.758-.527.569-.134 1.222-.201 1.959-.201.954 0 1.674.209 2.159.627.486.419.728 1.029.728 1.833v.225c-.485-.167-.987-.301-1.506-.401-.502-.101-1.097-.151-1.783-.151-.804 0-1.54.092-2.21.276-.653.168-1.222.427-1.708.778-.468.352-.837.795-1.104 1.33-.268.536-.402 1.172-.402 1.908v.05c0 .669.117 1.263.351 1.782.251.502.586.928 1.005 1.28.418.351.904.619 1.456.803.569.167 1.172.251 1.808.251.938 0 1.733-.151 2.386-.452.653-.318 1.214-.736 1.682-1.255v1.456zm-3.616-4.743c0 .702-.277 1.271-.829 1.706-.536.435-1.256.653-2.16.653-.619 0-1.121-.142-1.506-.427-.385-.284-.578-.686-.578-1.205v-.05c0-.602.235-1.062.703-1.38.469-.318 1.114-.477 1.934-.477.469 0 .904.05 1.306.151.418.083.795.2 1.13.351z"/></g><path d="m118.013 273.283h-47.013l47.013 21.717z" fill="#110547"/><path d="m130.921 288.614-.65-.638c-.417.4-.843.713-1.276.938-.434.217-.951.325-1.551.325-.484 0-.934-.092-1.351-.275-.409-.192-.768-.45-1.076-.775-.3-.325-.538-.709-.713-1.15-.167-.442-.25-.917-.25-1.426 0-.508.083-.979.25-1.412.175-.442.413-.825.713-1.15.308-.325.667-.58 1.076-.763.417-.183.867-.275 1.351-.275.6 0 1.113.112 1.538.337.434.226.838.513 1.214.863l.675-.725c-.217-.208-.442-.396-.675-.563-.234-.175-.488-.32-.764-.437-.275-.125-.575-.221-.9-.288-.317-.066-.676-.1-1.076-.1-.642 0-1.234.121-1.776.363-.542.233-1.009.558-1.401.975-.392.408-.701.888-.926 1.438-.217.55-.325 1.137-.325 1.762 0 .634.108 1.226.325 1.776.225.55.534 1.029.926 1.437.392.4.855.717 1.388.95.534.234 1.118.35 1.752.35.4 0 .763-.037 1.088-.112s.629-.179.913-.313c.284-.133.546-.291.788-.475.25-.191.488-.404.713-.637z" fill="#fff"/><path d="m140.95 285.613c0-.608-.108-1.183-.325-1.725-.209-.55-.509-1.029-.901-1.438-.392-.416-.863-.745-1.413-.987-.542-.242-1.147-.363-1.814-.363s-1.276.125-1.826.375c-.551.242-1.022.571-1.414.988s-.696.9-.913 1.45c-.217.542-.325 1.117-.325 1.725 0 .609.104 1.188.312 1.738.217.542.522 1.021.914 1.438.392.408.859.733 1.401.975.55.242 1.159.362 1.826.362s1.276-.12 1.826-.362c.551-.25 1.022-.583 1.414-1s.696-.896.913-1.438c.217-.55.325-1.129.325-1.738zm-1.026.025c0 .5-.087.971-.262 1.413-.167.433-.401.813-.701 1.138s-.663.583-1.088.775c-.417.183-.876.275-1.376.275s-.963-.096-1.389-.288c-.417-.191-.779-.45-1.088-.775-.308-.325-.55-.708-.725-1.15-.167-.442-.251-.913-.251-1.413s.084-.966.251-1.4c.175-.442.412-.825.713-1.15.3-.325.658-.579 1.075-.763.426-.191.889-.287 1.389-.287s.959.096 1.376.287c.425.192.792.451 1.101.776.308.325.546.708.713 1.15.175.441.262.912.262 1.412z" fill="#fff"/><path d="m149.476 288.264-5.516-7.014h-.926v8.751h.963v-7.175l5.654 7.175h.788v-8.751h-.963z" fill="#fff"/><path d="m159.209 281.25h-6.292v8.751h.988v-3.813h4.741v-.9h-4.741v-3.125h5.304z" fill="#fff"/><path d="m71.0001 273.283h47.0109v7.594z" fill="#2f1d82"/><path clip-rule="evenodd" d="m172.718 79.9998c-5.345 0-9.718 4.2748-9.718 9.4995 0 4.156 2.794 7.7184 6.681 9.0246.486.1187.608-.2376.608-.475v-1.6625c-2.673.5937-3.28-1.1874-3.28-1.1874-.486-1.0687-1.094-1.4249-1.094-1.4249-.85-.5938.122-.5938.122-.5938.972.1188 1.458.95 1.458.95.85 1.5437 2.308 1.0687 2.794.8312.121-.5937.364-1.0687.607-1.3062-2.187-.2374-4.373-1.0687-4.373-4.7497 0-1.0687.364-1.8999.972-2.4936-.122-.2375-.486-1.1874.121-2.4936 0 0 .85-.2375 2.673.9499.728-.2375 1.579-.3562 2.429-.3562s1.701.1187 2.43.3562c1.822-1.1874 2.672-.9499 2.672-.9499.486 1.3062.243 2.2561.122 2.4936.607.7125.971 1.5436.971 2.4936 0 3.681-2.308 4.3935-4.494 4.631.364.475.729 1.0686.729 1.8999v2.6124c0 .2374.121.5937.729.475 3.887-1.3062 6.681-4.8686 6.681-9.0246-.122-5.2247-4.495-9.4995-9.84-9.4995z" fill="#fff" fill-opacity=".7" fill-rule="evenodd"/><circle cx="111" cy="70" fill="#fff" fill-opacity=".1" r="40"/><circle cx="111" cy="70" r="39.5" stroke="#fff" stroke-opacity=".19"/><path d="m103 80c0-2.1217.843-4.1566 2.343-5.6569 1.5-1.5002 3.535-2.3431 5.657-2.3431s4.157.8429 5.657 2.3431c1.5 1.5003 2.343 3.5352 2.343 5.6569h-2c0-1.5913-.632-3.1174-1.757-4.2426-1.126-1.1253-2.652-1.7574-4.243-1.7574s-3.117.6321-4.243 1.7574c-1.125 1.1252-1.757 2.6513-1.757 4.2426zm8-9c-3.315 0-6-2.685-6-6s2.685-6 6-6 6 2.685 6 6-2.685 6-6 6zm0-2c2.21 0 4-1.79 4-4s-1.79-4-4-4-4 1.79-4 4 1.79 4 4 4z" fill="#fff" fill-opacity=".5"/><path d="m164.696 40.28 4.896 10.432 4.96-10.432h5.728l-8.096 14.976v7.744h-5.216v-7.808l-7.968-14.912zm22.314 23.04c-1.429 0-2.709-.2347-3.84-.704-1.109-.4693-2.048-1.0987-2.816-1.888-.768-.8107-1.355-1.7387-1.76-2.784-.384-1.0667-.576-2.176-.576-3.328s.192-2.2507.576-3.296c.405-1.0667.992-1.9947 1.76-2.784.768-.8107 1.707-1.4507 2.816-1.92 1.131-.4907 2.411-.736 3.84-.736s2.699.2453 3.808.736c1.109.4693 2.048 1.1093 2.816 1.92.768.7893 1.355 1.7173 1.76 2.784.405 1.0453.608 2.144.608 3.296s-.203 2.2613-.608 3.328c-.384 1.0453-.96 1.9733-1.728 2.784-.768.7893-1.717 1.4187-2.848 1.888-1.109.4693-2.379.704-3.808.704zm-3.744-8.704c0 1.3227.352 2.3893 1.056 3.2.704.7893 1.6 1.184 2.688 1.184.533 0 1.024-.1067 1.472-.32s.832-.512 1.152-.896c.341-.384.608-.8427.8-1.376.192-.5547.288-1.152.288-1.792 0-1.3227-.352-2.3787-1.056-3.168-.704-.8107-1.589-1.216-2.656-1.216-.533 0-1.035.1067-1.504.32-.448.2133-.843.512-1.184.896-.32.384-.576.8533-.768 1.408-.192.5333-.288 1.12-.288 1.76zm20.363 8.704c-1.728 0-3.04-.5333-3.936-1.6-.874-1.088-1.312-2.6773-1.312-4.768v-10.752h5.12v9.632c0 1.024.203 1.8133.608 2.368.406.5333.982.8 1.728.8.683 0 1.344-.1813 1.984-.544s1.206-.992 1.696-1.888v-10.368h5.12v11.04c0 .512.075.8747.224 1.088.171.192.459.3093.864.352v4.32c-.49.1067-.906.1707-1.248.192-.341.0427-.65.064-.928.064-1.834 0-2.88-.7147-3.136-2.144l-.096-1.024c-.768 1.1093-1.728 1.9307-2.88 2.464-1.13.512-2.4.768-3.808.768zm25.631-12.736c-1.238.0213-2.358.224-3.36.608-1.003.384-1.728.96-2.176 1.728v10.08h-5.12v-16.8h4.704v3.392c.576-1.1307 1.312-2.016 2.208-2.656.917-.64 1.888-.9707 2.912-.992h.512c.106 0 .213.0107.32.032zm14.508-.576v12.992h-5.248v-22.72h4.096l10.592 13.344v-13.344h5.248v22.72h-4.224zm23.229 13.312c-.832 0-1.611-.128-2.336-.384-.704-.2773-1.312-.6507-1.824-1.12-.512-.4907-.918-1.056-1.216-1.696-.299-.6613-.448-1.376-.448-2.144 0-.832.17-1.5893.512-2.272.362-.6827.864-1.2693 1.504-1.76s1.397-.8747 2.272-1.152c.874-.2773 1.845-.416 2.912-.416.704 0 1.386.064 2.048.192.661.1067 1.237.2773 1.728.512v-.768c0-1.9413-1.12-2.912-3.36-2.912-.918 0-1.792.16-2.624.48-.832.2987-1.707.7573-2.624 1.376l-1.504-3.2c1.109-.7253 2.261-1.2693 3.456-1.632 1.194-.3627 2.464-.544 3.808-.544 2.538 0 4.501.5973 5.888 1.792 1.386 1.1947 2.08 2.944 2.08 5.248v4.32c0 .512.074.8747.224 1.088.17.192.458.3093.864.352v4.32c-.448.1067-.854.1707-1.216.192-.363.0427-.694.064-.992.064-.96 0-1.686-.1813-2.176-.544-.491-.384-.8-.9173-.928-1.6l-.096-.768c-.747.96-1.643 1.696-2.688 2.208-1.024.512-2.112.768-3.264.768zm1.504-3.68c.554 0 1.088-.096 1.6-.288.533-.192.97-.448 1.312-.768.49-.384.736-.7893.736-1.216v-1.6c-.448-.1707-.939-.2987-1.472-.384-.512-.1067-.992-.16-1.44-.16-.939 0-1.718.2133-2.336.64-.598.4267-.896.9813-.896 1.664 0 .6187.234 1.1307.704 1.536.469.384 1.066.576 1.792.576zm39.038 3.36h-5.12v-9.44c0-1.1093-.203-1.9093-.608-2.4-.406-.512-.928-.768-1.568-.768-.342 0-.694.0747-1.056.224-.342.1493-.662.3627-.96.64-.299.256-.576.5653-.832.928-.235.3627-.427.7573-.576 1.184v9.632h-5.12v-9.44c0-1.1093-.203-1.9093-.608-2.4-.406-.512-.928-.768-1.568-.768-.683 0-1.355.2773-2.016.832-.64.5333-1.11 1.248-1.408 2.144v9.632h-5.12v-16.8h4.608v2.816c.618-1.024 1.45-1.8027 2.496-2.336 1.066-.5333 2.304-.8 3.712-.8.704 0 1.312.0853 1.824.256.533.1707.992.4053 1.376.704s.693.6507.928 1.056c.234.384.405.8.512 1.248.64-1.0453 1.482-1.8453 2.528-2.4 1.045-.576 2.24-.864 3.584-.864 1.066 0 1.92.2027 2.56.608.661.384 1.173.896 1.536 1.536.362.6187.597 1.3013.704 2.048.128.7467.192 1.472.192 2.176zm11.378.32c-1.408 0-2.677-.224-3.808-.672-1.109-.4693-2.059-1.0987-2.848-1.888-.768-.7893-1.355-1.696-1.76-2.72-.405-1.0453-.608-2.1333-.608-3.264 0-1.216.203-2.3573.608-3.424.405-1.088.992-2.0373 1.76-2.848s1.707-1.4507 2.816-1.92c1.131-.4693 2.411-.704 3.84-.704s2.699.2347 3.808.704 2.048 1.1093 2.816 1.92c.768.7893 1.344 1.7067 1.728 2.752.405 1.0453.608 2.144.608 3.296 0 .2987-.011.5973-.032.896-.021.2773-.053.5227-.096.736h-12.416c.085 1.1307.491 1.9947 1.216 2.592.747.576 1.589.864 2.528.864.747 0 1.461-.1813 2.144-.544.704-.3627 1.173-.8533 1.408-1.472l4.352 1.216c-.661 1.3227-1.685 2.4-3.072 3.232s-3.051 1.248-4.992 1.248zm3.552-10.304c-.107-1.0667-.491-1.9093-1.152-2.528s-1.483-.928-2.464-.928c-1.003 0-1.835.32-2.496.96-.64.6187-1.013 1.4507-1.12 2.496z" fill="#fff"/><path d="m190.808 95.3265c-.907 0-1.584-.2987-2.032-.896-.437-.608-.656-1.5093-.656-2.704v-4.896h1.088v4.704c0 1.888.645 2.832 1.936 2.832.32 0 .635-.0533.944-.16s.592-.2613.848-.464c.267-.2027.501-.4427.704-.72.213-.2773.384-.592.512-.944v-5.248h1.088v6.928c0 .2987.128.448.384.448v.96c-.128.0213-.235.032-.32.032-.075 0-.128 0-.16 0-.256-.0107-.464-.1013-.624-.272s-.24-.4-.24-.688v-.96c-.363.6507-.859 1.1573-1.488 1.52-.619.352-1.28.528-1.984.528zm9.66 0c-.651 0-1.285-.1067-1.904-.32s-1.152-.5227-1.6-.928l.496-.736c.469.384.944.672 1.424.864.491.192 1.013.288 1.568.288.672 0 1.205-.1333 1.6-.4.405-.2773.608-.6667.608-1.168 0-.2347-.053-.4267-.16-.576-.107-.16-.267-.2987-.48-.416-.203-.1173-.464-.2187-.784-.304-.309-.096-.672-.192-1.088-.288-.48-.1173-.896-.2347-1.248-.352s-.645-.2507-.88-.4c-.224-.1493-.395-.3307-.512-.544-.107-.224-.16-.5013-.16-.832 0-.416.08-.784.24-1.104.171-.32.395-.5813.672-.784.288-.2133.619-.3733.992-.48.384-.1067.789-.16 1.216-.16.64 0 1.221.1067 1.744.32.523.2027.944.4747 1.264.816l-.528.64c-.309-.32-.688-.56-1.136-.72-.437-.16-.896-.24-1.376-.24-.288 0-.555.032-.8.096-.245.0533-.464.144-.656.272-.181.128-.325.2933-.432.496-.107.192-.16.4213-.16.688 0 .224.037.4053.112.544s.197.2613.368.368c.171.096.384.1867.64.272.267.0747.587.1547.96.24.533.128 1.003.256 1.408.384s.741.2773 1.008.448c.277.1707.485.3787.624.624s.208.544.208.896c0 .768-.293 1.376-.88 1.824s-1.376.672-2.368.672zm8.629 0c-.608 0-1.168-.112-1.68-.336-.501-.2347-.939-.5493-1.312-.944-.373-.4053-.667-.8693-.88-1.392-.203-.5227-.304-1.0827-.304-1.68 0-.5867.101-1.136.304-1.648.213-.5227.501-.976.864-1.36.373-.3947.816-.704 1.328-.928.512-.2347 1.067-.352 1.664-.352.608 0 1.163.1173 1.664.352.512.224.949.5333 1.312.928s.645.848.848 1.36.304 1.056.304 1.632v.256c0 .0853-.005.144-.016.176h-7.136c.032.448.133.864.304 1.248.181.3733.411.6987.688.976s.592.496.944.656c.363.1493.747.224 1.152.224.267 0 .533-.0373.8-.112s.512-.176.736-.304.427-.2827.608-.464c.181-.192.32-.4.416-.624l.944.256c-.128.3093-.309.592-.544.848-.235.2453-.507.464-.816.656-.309.1813-.651.32-1.024.416-.373.1067-.763.16-1.168.16zm3.072-4.768c-.032-.448-.139-.8533-.32-1.216-.171-.3733-.395-.6933-.672-.96-.267-.2667-.581-.4747-.944-.624-.352-.1493-.731-.224-1.136-.224s-.789.0747-1.152.224-.683.3573-.96.624c-.267.2667-.485.5867-.656.96-.16.3733-.256.7787-.288 1.216zm6.879-2.768c-.736.0213-1.376.224-1.92.608s-.928.912-1.152 1.584v5.184h-1.088v-8.336h1.024v2c.309-.64.725-1.1413 1.248-1.504.522-.3627 1.082-.544 1.68-.544.085 0 .154.0053.208.016zm8.457 7.376h-1.088v-4.656c0-.992-.149-1.712-.448-2.16-.288-.448-.736-.672-1.344-.672-.32 0-.64.0587-.96.176s-.619.2827-.896.496c-.267.2133-.507.4693-.72.768-.213.288-.368.6027-.464.944v5.104h-1.088v-8.336h.992v1.888c.341-.608.827-1.0987 1.456-1.472.64-.3733 1.333-.56 2.08-.56.459 0 .848.0853 1.168.256s.576.4107.768.72.331.688.416 1.136.128.944.128 1.488zm4.416.16c-.395 0-.763-.064-1.104-.192-.331-.1387-.624-.3253-.88-.56-.245-.2347-.437-.5067-.576-.816-.139-.32-.208-.6613-.208-1.024s.085-.6987.256-1.008.411-.576.72-.8.677-.3947 1.104-.512c.427-.128.896-.192 1.408-.192.427 0 .859.0373 1.296.112s.827.1813 1.168.32v-.752c0-.736-.208-1.3173-.624-1.744-.416-.4373-.992-.656-1.728-.656-.427 0-.864.0853-1.312.256s-.901.416-1.36.736l-.384-.72c1.077-.7253 2.123-1.088 3.136-1.088 1.045 0 1.867.2933 2.464.88s.896 1.3973.896 2.432v3.76c0 .2987.133.448.4.448v.96c-.181.032-.32.048-.416.048-.277 0-.496-.0693-.656-.208-.149-.1387-.229-.3307-.24-.576l-.032-.656c-.384.5013-.869.8853-1.456 1.152-.576.2667-1.2.4-1.872.4zm.256-.832c.565 0 1.083-.1067 1.552-.32.48-.2133.843-.496 1.088-.848.096-.096.165-.1973.208-.304.053-.1173.08-.224.08-.32v-1.36c-.363-.1387-.741-.2453-1.136-.32-.384-.0747-.779-.112-1.184-.112-.768 0-1.392.16-1.872.48s-.72.7413-.72 1.264c0 .256.048.496.144.72.107.224.245.4213.416.592.181.16.395.288.64.384s.507.144.784.144zm18.767.672h-1.088v-4.656c0-.9707-.155-1.6853-.464-2.144-.31-.4587-.768-.688-1.376-.688-.32 0-.624.0587-.912.176-.278.1173-.539.2827-.784.496-.235.2133-.443.4693-.624.768-.182.288-.32.608-.416.96v5.088h-1.088v-4.656c0-.992-.15-1.712-.448-2.16-.299-.448-.758-.672-1.376-.672-.63 0-1.19.2187-1.68.656-.491.4373-.843 1.0133-1.056 1.728v5.104h-1.088v-8.336h.992v1.888c.341-.64.789-1.136 1.344-1.488.554-.3627 1.168-.544 1.84-.544.704 0 1.264.1973 1.68.592.426.3947.688.912.784 1.552.778-1.4293 1.85-2.144 3.216-2.144.469 0 .864.0853 1.184.256.33.1707.592.416.784.736.202.3093.346.688.432 1.136.096.4373.144.928.144 1.472zm5.903.16c-.608 0-1.168-.112-1.68-.336-.501-.2347-.939-.5493-1.312-.944-.373-.4053-.667-.8693-.88-1.392-.203-.5227-.304-1.0827-.304-1.68 0-.5867.101-1.136.304-1.648.213-.5227.501-.976.864-1.36.373-.3947.816-.704 1.328-.928.512-.2347 1.067-.352 1.664-.352.608 0 1.163.1173 1.664.352.512.224.949.5333 1.312.928s.645.848.848 1.36.304 1.056.304 1.632v.256c0 .0853-.005.144-.016.176h-7.136c.032.448.133.864.304 1.248.181.3733.411.6987.688.976s.592.496.944.656c.363.1493.747.224 1.152.224.267 0 .533-.0373.8-.112s.512-.176.736-.304.427-.2827.608-.464c.181-.192.32-.4.416-.624l.944.256c-.128.3093-.309.592-.544.848-.235.2453-.507.464-.816.656-.309.1813-.651.32-1.024.416-.373.1067-.763.16-1.168.16zm3.072-4.768c-.032-.448-.139-.8533-.32-1.216-.171-.3733-.395-.6933-.672-.96-.267-.2667-.581-.4747-.944-.624-.352-.1493-.731-.224-1.136-.224s-.789.0747-1.152.224-.683.3573-.96.624c-.267.2667-.485.5867-.656.96-.16.3733-.256.7787-.288 1.216z" fill="#fff" fill-opacity=".7"/><path d="m202.377 241.431c.608 0 1.178.108 1.71.323.545.203 1.013.494 1.406.874s.703.836.931 1.368c.228.519.342 1.096.342 1.729 0 .671-.127 1.279-.38 1.824-.241.545-.57 1.013-.988 1.406s-.912.697-1.482.912-1.178.323-1.824.323c-.963 0-1.83-.234-2.603-.703-.76-.469-1.336-1.102-1.729-1.9l.874-.646c.342.633.823 1.14 1.444 1.52.621.367 1.298.551 2.033.551.469 0 .906-.076 1.311-.228.405-.165.76-.386 1.064-.665.304-.291.538-.64.703-1.045.177-.405.266-.849.266-1.33 0-.469-.082-.893-.247-1.273-.165-.393-.393-.728-.684-1.007s-.633-.494-1.026-.646c-.393-.165-.817-.247-1.273-.247-.595 0-1.159.133-1.691.399-.519.266-.944.64-1.273 1.121h-1.216c.013-.076.044-.241.095-.494.063-.266.133-.583.209-.95.076-.38.158-.792.247-1.235s.177-.893.266-1.349c.215-1.064.45-2.248.703-3.553h6.517v1.197h-5.548l-.95 4.845c.329-.367.735-.646 1.216-.836s1.007-.285 1.577-.285zm11.714 8.569v-13.49h4.579c1.077 0 2.014.177 2.812.532.811.355 1.482.836 2.014 1.444.545.608.95 1.324 1.216 2.147.279.811.418 1.678.418 2.603 0 1.026-.152 1.957-.456 2.793-.304.823-.741 1.533-1.311 2.128-.557.583-1.235 1.039-2.033 1.368-.785.317-1.672.475-2.66.475zm9.709-6.764c0-.811-.114-1.552-.342-2.223-.228-.684-.563-1.273-1.007-1.767-.43-.494-.962-.874-1.596-1.14-.633-.279-1.361-.418-2.185-.418h-3.249v11.134h3.249c.836 0 1.571-.139 2.204-.418.646-.291 1.185-.684 1.615-1.178.431-.507.754-1.096.969-1.767.228-.684.342-1.425.342-2.223zm6.096 6.954c-.468 0-.905-.076-1.311-.228-.392-.165-.741-.386-1.045-.665-.291-.279-.519-.602-.684-.969-.164-.38-.247-.785-.247-1.216s.102-.83.304-1.197c.203-.367.488-.684.855-.95.368-.266.805-.469 1.311-.608.507-.152 1.064-.228 1.672-.228.507 0 1.02.044 1.539.133.52.089.982.215 1.387.38v-.893c0-.874-.247-1.564-.741-2.071-.494-.519-1.178-.779-2.052-.779-.506 0-1.026.101-1.558.304s-1.07.494-1.615.874l-.456-.855c1.28-.861 2.521-1.292 3.724-1.292 1.242 0 2.217.348 2.926 1.045.71.697 1.064 1.659 1.064 2.888v4.465c0 .355.159.532.475.532v1.14c-.215.038-.38.057-.494.057-.329 0-.589-.082-.779-.247-.177-.165-.272-.393-.285-.684l-.038-.779c-.456.595-1.032 1.051-1.729 1.368-.684.317-1.425.475-2.223.475zm.304-.988c.672 0 1.286-.127 1.843-.38.57-.253 1.001-.589 1.292-1.007.114-.114.197-.234.247-.361.064-.139.095-.266.095-.38v-1.615c-.43-.165-.88-.291-1.349-.38-.456-.089-.924-.133-1.406-.133-.912 0-1.653.19-2.223.57s-.855.88-.855 1.501c0 .304.057.589.171.855.127.266.292.5.494.703.216.19.469.342.76.456.292.114.602.171.931.171zm7.89 3.838c.101.013.196.019.285.019.101.013.196.019.285.019.228 0 .405-.032.532-.095.139-.063.272-.203.399-.418.126-.215.266-.526.418-.931.164-.405.392-.95.684-1.634l-4.313-9.899h1.33l3.667 8.702 3.401-8.702h1.235l-5.13 12.768c-.14.367-.374.684-.703.95-.317.279-.754.418-1.311.418-.127 0-.247-.006-.361-.019-.114 0-.254-.013-.418-.038zm12.792-2.85c-.773 0-1.526-.127-2.261-.38s-1.368-.621-1.9-1.102l.589-.874c.557.456 1.121.798 1.691 1.026.583.228 1.203.342 1.862.342.798 0 1.431-.158 1.9-.475.481-.329.722-.792.722-1.387 0-.279-.063-.507-.19-.684-.127-.19-.317-.355-.57-.494-.241-.139-.551-.26-.931-.361-.367-.114-.798-.228-1.292-.342-.57-.139-1.064-.279-1.482-.418s-.766-.298-1.045-.475c-.266-.177-.469-.393-.608-.646-.127-.266-.19-.595-.19-.988 0-.494.095-.931.285-1.311.203-.38.469-.69.798-.931.342-.253.735-.443 1.178-.57.456-.127.937-.19 1.444-.19.76 0 1.45.127 2.071.38.621.241 1.121.564 1.501.969l-.627.76c-.367-.38-.817-.665-1.349-.855-.519-.19-1.064-.285-1.634-.285-.342 0-.659.038-.95.114-.291.063-.551.171-.779.323-.215.152-.386.348-.513.589-.127.228-.19.5-.19.817 0 .266.044.481.133.646s.234.31.437.437c.203.114.456.222.76.323.317.089.697.184 1.14.285.633.152 1.191.304 1.672.456s.88.329 1.197.532c.329.203.576.45.741.741s.247.646.247 1.064c0 .912-.348 1.634-1.045 2.166s-1.634.798-2.812.798zm13.303 0c-.468 0-.905-.076-1.311-.228-.392-.165-.741-.386-1.045-.665-.291-.279-.519-.602-.684-.969-.164-.38-.247-.785-.247-1.216s.102-.83.304-1.197c.203-.367.488-.684.855-.95.368-.266.805-.469 1.311-.608.507-.152 1.064-.228 1.672-.228.507 0 1.02.044 1.539.133.52.089.982.215 1.387.38v-.893c0-.874-.247-1.564-.741-2.071-.494-.519-1.178-.779-2.052-.779-.506 0-1.026.101-1.558.304s-1.07.494-1.615.874l-.456-.855c1.28-.861 2.521-1.292 3.724-1.292 1.242 0 2.217.348 2.926 1.045.71.697 1.064 1.659 1.064 2.888v4.465c0 .355.159.532.475.532v1.14c-.215.038-.38.057-.494.057-.329 0-.589-.082-.779-.247-.177-.165-.272-.393-.285-.684l-.038-.779c-.456.595-1.032 1.051-1.729 1.368-.684.317-1.425.475-2.223.475zm.304-.988c.672 0 1.286-.127 1.843-.38.57-.253 1.001-.589 1.292-1.007.114-.114.197-.234.247-.361.064-.139.095-.266.095-.38v-1.615c-.43-.165-.88-.291-1.349-.38-.456-.089-.924-.133-1.406-.133-.912 0-1.653.19-2.223.57s-.855.88-.855 1.501c0 .304.057.589.171.855.127.266.292.5.494.703.216.19.469.342.76.456.292.114.602.171.931.171zm15.883.798h-1.292v-5.529c0-1.178-.177-2.033-.532-2.565-.342-.532-.874-.798-1.596-.798-.38 0-.76.07-1.14.209s-.735.336-1.064.589c-.317.253-.602.557-.855.912-.253.342-.437.716-.551 1.121v6.061h-1.292v-9.899h1.178v2.242c.405-.722.982-1.305 1.729-1.748.76-.443 1.583-.665 2.47-.665.545 0 1.007.101 1.387.304s.684.488.912.855.393.817.494 1.349.152 1.121.152 1.767zm6.821.19c-.684 0-1.317-.139-1.9-.418-.583-.291-1.083-.671-1.501-1.14s-.747-1.007-.988-1.615c-.228-.621-.342-1.267-.342-1.938 0-.697.114-1.355.342-1.976.228-.633.538-1.184.931-1.653.405-.469.88-.836 1.425-1.102.557-.279 1.165-.418 1.824-.418.836 0 1.577.222 2.223.665.646.431 1.153.956 1.52 1.577v-6.042h1.292v12.198c0 .355.152.532.456.532v1.14c-.19.038-.342.057-.456.057-.304 0-.57-.095-.798-.285-.228-.203-.342-.443-.342-.722v-.969c-.393.646-.925 1.159-1.596 1.539s-1.368.57-2.09.57zm.285-1.14c.317 0 .652-.063 1.007-.19.367-.127.709-.298 1.026-.513.317-.228.583-.488.798-.779.228-.304.367-.627.418-.969v-3.059c-.127-.342-.31-.659-.551-.95-.241-.304-.519-.57-.836-.798-.304-.228-.633-.405-.988-.532s-.703-.19-1.045-.19c-.532 0-1.013.114-1.444.342s-.804.532-1.121.912c-.304.367-.538.792-.703 1.273s-.247.975-.247 1.482c0 .532.095 1.039.285 1.52s.45.906.779 1.273c.329.355.716.64 1.159.855.456.215.944.323 1.463.323zm16.263-7.619c.608 0 1.178.108 1.71.323.545.203 1.014.494 1.406.874.393.38.703.836.931 1.368.228.519.342 1.096.342 1.729 0 .671-.126 1.279-.38 1.824-.24.545-.57 1.013-.988 1.406s-.912.697-1.482.912-1.178.323-1.824.323c-.962 0-1.83-.234-2.603-.703-.76-.469-1.336-1.102-1.729-1.9l.874-.646c.342.633.824 1.14 1.444 1.52.621.367 1.299.551 2.033.551.469 0 .906-.076 1.311-.228.406-.165.76-.386 1.064-.665.304-.291.539-.64.703-1.045.178-.405.266-.849.266-1.33 0-.469-.082-.893-.247-1.273-.164-.393-.392-.728-.684-1.007-.291-.279-.633-.494-1.026-.646-.392-.165-.817-.247-1.273-.247-.595 0-1.159.133-1.691.399-.519.266-.943.64-1.273 1.121h-1.216c.013-.076.045-.241.095-.494.064-.266.133-.583.209-.95.076-.38.159-.792.247-1.235.089-.443.178-.893.266-1.349.216-1.064.45-2.248.703-3.553h6.517v1.197h-5.548l-.95 4.845c.33-.367.735-.646 1.216-.836.482-.19 1.007-.285 1.577-.285zm20.753-3.743h-4.807v12.312h-1.33v-12.312h-4.807v-1.178h10.944zm4.598 3.553c-.874.025-1.634.266-2.28.722s-1.102 1.083-1.368 1.881v6.156h-1.292v-9.899h1.216v2.375c.367-.76.861-1.355 1.482-1.786.62-.431 1.285-.646 1.995-.646.101 0 .183.006.247.019zm4.08 8.949c-.469 0-.906-.076-1.311-.228-.393-.165-.741-.386-1.045-.665-.292-.279-.52-.602-.684-.969-.165-.38-.247-.785-.247-1.216s.101-.83.304-1.197c.202-.367.487-.684.855-.95.367-.266.804-.469 1.311-.608.506-.152 1.064-.228 1.672-.228.506 0 1.019.044 1.539.133.519.089.981.215 1.387.38v-.893c0-.874-.247-1.564-.741-2.071-.494-.519-1.178-.779-2.052-.779-.507 0-1.026.101-1.558.304s-1.071.494-1.615.874l-.456-.855c1.279-.861 2.52-1.292 3.724-1.292 1.241 0 2.216.348 2.926 1.045.709.697 1.064 1.659 1.064 2.888v4.465c0 .355.158.532.475.532v1.14c-.216.038-.38.057-.494.057-.33 0-.589-.082-.779-.247-.178-.165-.273-.393-.285-.684l-.038-.779c-.456.595-1.033 1.051-1.729 1.368-.684.317-1.425.475-2.223.475zm.304-.988c.671 0 1.285-.127 1.843-.38.57-.253 1-.589 1.292-1.007.114-.114.196-.234.247-.361.063-.139.095-.266.095-.38v-1.615c-.431-.165-.881-.291-1.349-.38-.456-.089-.925-.133-1.406-.133-.912 0-1.653.19-2.223.57s-.855.88-.855 1.501c0 .304.057.589.171.855.126.266.291.5.494.703.215.19.468.342.76.456.291.114.601.171.931.171zm6.876-4.18c0-.697.121-1.355.361-1.976.241-.621.577-1.159 1.007-1.615.444-.469.969-.836 1.577-1.102s1.28-.399 2.014-.399c.938 0 1.755.215 2.451.646.697.418 1.223.988 1.577 1.71l-1.254.399c-.278-.507-.671-.899-1.178-1.178-.494-.291-1.045-.437-1.653-.437-.506 0-.981.101-1.425.304-.43.203-.81.481-1.14.836-.316.342-.57.754-.76 1.235-.177.481-.266 1.007-.266 1.577 0 .557.095 1.083.285 1.577s.45.925.779 1.292c.33.355.71.64 1.14.855.444.203.912.304 1.406.304.317 0 .627-.044.931-.133.317-.089.608-.209.874-.361.266-.165.494-.348.684-.551s.323-.418.399-.646l1.273.38c-.139.355-.342.684-.608.988-.266.291-.582.551-.95.779-.354.215-.753.38-1.197.494-.43.127-.88.19-1.349.19-.722 0-1.387-.133-1.995-.399-.608-.279-1.133-.652-1.577-1.121-.443-.481-.791-1.032-1.045-1.653-.24-.621-.361-1.286-.361-1.995zm18.18 4.978-3.648-5.073-2.128 1.976v3.097h-1.292v-13.87h1.292v9.424l5.567-5.434h1.463l-4.047 4.047 4.199 5.833zm6.294.19c-.772 0-1.526-.127-2.261-.38-.734-.253-1.368-.621-1.9-1.102l.589-.874c.558.456 1.121.798 1.691 1.026.583.228 1.204.342 1.862.342.798 0 1.432-.158 1.9-.475.482-.329.722-.792.722-1.387 0-.279-.063-.507-.19-.684-.126-.19-.316-.355-.57-.494-.24-.139-.551-.26-.931-.361-.367-.114-.798-.228-1.292-.342-.57-.139-1.064-.279-1.482-.418s-.766-.298-1.045-.475c-.266-.177-.468-.393-.608-.646-.126-.266-.19-.595-.19-.988 0-.494.095-.931.285-1.311.203-.38.469-.69.798-.931.342-.253.735-.443 1.178-.57.456-.127.938-.19 1.444-.19.76 0 1.451.127 2.071.38.621.241 1.121.564 1.501.969l-.627.76c-.367-.38-.817-.665-1.349-.855-.519-.19-1.064-.285-1.634-.285-.342 0-.658.038-.95.114-.291.063-.551.171-.779.323-.215.152-.386.348-.513.589-.126.228-.19.5-.19.817 0 .266.045.481.133.646.089.165.235.31.437.437.203.114.456.222.76.323.317.089.697.184 1.14.285.634.152 1.191.304 1.672.456.482.152.881.329 1.197.532.33.203.577.45.741.741.165.291.247.646.247 1.064 0 .912-.348 1.634-1.045 2.166-.696.532-1.634.798-2.812.798zm10.131-5.168c0-.697.12-1.355.361-1.976.24-.621.576-1.159 1.007-1.615.443-.469.969-.836 1.577-1.102s1.279-.399 2.014-.399c.937 0 1.754.215 2.451.646.696.418 1.222.988 1.577 1.71l-1.254.399c-.279-.507-.672-.899-1.178-1.178-.494-.291-1.045-.437-1.653-.437-.507 0-.982.101-1.425.304-.431.203-.811.481-1.14.836-.317.342-.57.754-.76 1.235-.178.481-.266 1.007-.266 1.577 0 .557.095 1.083.285 1.577s.449.925.779 1.292c.329.355.709.64 1.14.855.443.203.912.304 1.406.304.316 0 .627-.044.931-.133.316-.089.608-.209.874-.361.266-.165.494-.348.684-.551s.323-.418.399-.646l1.273.38c-.14.355-.342.684-.608.988-.266.291-.583.551-.95.779-.355.215-.754.38-1.197.494-.431.127-.881.19-1.349.19-.722 0-1.387-.133-1.995-.399-.608-.279-1.134-.652-1.577-1.121-.444-.481-.792-1.032-1.045-1.653-.241-.621-.361-1.286-.361-1.995zm15.237 5.168c-.722 0-1.381-.133-1.976-.399-.596-.279-1.115-.652-1.558-1.121-.431-.469-.767-1.013-1.007-1.634-.241-.621-.361-1.273-.361-1.957 0-.697.12-1.355.361-1.976.253-.621.595-1.165 1.026-1.634.443-.469.962-.842 1.558-1.121.595-.279 1.247-.418 1.957-.418.709 0 1.361.139 1.957.418.608.279 1.127.652 1.558 1.121.443.469.785 1.013 1.026 1.634.253.621.38 1.279.38 1.976 0 .684-.121 1.336-.361 1.957-.241.621-.583 1.165-1.026 1.634-.431.469-.95.842-1.558 1.121-.596.266-1.254.399-1.976.399zm-3.591-5.092c0 .557.095 1.077.285 1.558.19.469.443.887.76 1.254.329.355.709.633 1.14.836.443.203.912.304 1.406.304s.956-.101 1.387-.304c.443-.215.829-.5 1.159-.855.329-.367.589-.792.779-1.273s.285-1.001.285-1.558c0-.545-.095-1.058-.285-1.539-.19-.494-.45-.918-.779-1.273-.33-.367-.716-.652-1.159-.855-.431-.215-.893-.323-1.387-.323s-.957.108-1.387.323c-.431.203-.811.488-1.14.855-.33.367-.589.798-.779 1.292-.19.481-.285 1.001-.285 1.558zm13.284 4.902-4.028-9.899h1.33l3.401 8.702 3.42-8.702h1.254l-4.028 9.899zm11.108.19c-.722 0-1.387-.133-1.995-.399-.595-.279-1.115-.652-1.558-1.121-.443-.481-.792-1.032-1.045-1.653-.241-.621-.361-1.286-.361-1.995 0-.697.12-1.349.361-1.957.253-.621.595-1.159 1.026-1.615.443-.469.969-.836 1.577-1.102.608-.279 1.267-.418 1.976-.418.722 0 1.381.139 1.976.418.608.266 1.127.633 1.558 1.102s.766 1.007 1.007 1.615.361 1.254.361 1.938v.304c0 .101-.006.171-.019.209h-8.474c.038.532.158 1.026.361 1.482.215.443.488.83.817 1.159s.703.589 1.121.779c.431.177.887.266 1.368.266.317 0 .633-.044.95-.133s.608-.209.874-.361.507-.336.722-.551c.215-.228.38-.475.494-.741l1.121.304c-.152.367-.367.703-.646 1.007-.279.291-.602.551-.969.779-.367.215-.773.38-1.216.494-.443.127-.906.19-1.387.19zm3.648-5.662c-.038-.532-.165-1.013-.38-1.444-.203-.443-.469-.823-.798-1.14-.317-.317-.69-.564-1.121-.741-.418-.177-.868-.266-1.349-.266s-.937.089-1.368.266-.811.424-1.14.741c-.317.317-.576.697-.779 1.14-.19.443-.304.925-.342 1.444zm8.168-3.287c-.874.025-1.634.266-2.28.722s-1.102 1.083-1.368 1.881v6.156h-1.292v-9.899h1.216v2.375c.368-.76.862-1.355 1.482-1.786.621-.431 1.286-.646 1.995-.646.102 0 .184.006.247.019zm1.721 8.759v-9.899h1.292v9.899zm0-11.97v-1.9h1.292v1.9zm12.46 11.97h-1.292v-5.529c0-1.178-.177-2.033-.532-2.565-.342-.532-.874-.798-1.596-.798-.38 0-.76.07-1.14.209s-.735.336-1.064.589c-.317.253-.602.557-.855.912-.253.342-.437.716-.551 1.121v6.061h-1.292v-9.899h1.178v2.242c.405-.722.982-1.305 1.729-1.748.76-.443 1.583-.665 2.47-.665.545 0 1.007.101 1.387.304s.684.488.912.855.393.817.494 1.349.152 1.121.152 1.767zm6.726.133c-.684 0-1.311-.139-1.881-.418-.557-.291-1.045-.671-1.463-1.14-.405-.469-.722-1.007-.95-1.615s-.342-1.235-.342-1.881c0-.684.108-1.336.323-1.957.228-.633.545-1.184.95-1.653.406-.469.887-.842 1.444-1.121.57-.279 1.197-.418 1.881-.418.849 0 1.584.215 2.204.646.621.418 1.153.95 1.596 1.596v-2.071h1.159v9.937c0 .684-.133 1.286-.399 1.805-.253.532-.601.975-1.045 1.33-.43.355-.943.621-1.539.798-.582.177-1.203.266-1.862.266-1.14 0-2.058-.203-2.755-.608-.696-.405-1.26-.95-1.691-1.634l.798-.627c.393.633.912 1.096 1.558 1.387.646.304 1.343.456 2.09.456.482 0 .938-.07 1.368-.209.431-.127.805-.323 1.121-.589.33-.253.589-.583.779-.988.19-.393.285-.855.285-1.387v-1.957c-.38.633-.899 1.134-1.558 1.501-.658.367-1.349.551-2.071.551zm.361-1.083c.38 0 .754-.07 1.121-.209.368-.139.697-.323.988-.551.304-.241.558-.507.76-.798.203-.291.336-.589.399-.893v-3.059c-.139-.355-.329-.684-.57-.988-.24-.304-.513-.564-.817-.779s-.633-.386-.988-.513c-.342-.127-.69-.19-1.045-.19-.557 0-1.057.12-1.501.361-.43.228-.798.532-1.102.912s-.538.811-.703 1.292c-.152.481-.228.969-.228 1.463 0 .532.095 1.039.285 1.52s.45.906.779 1.273c.342.355.735.64 1.178.855.444.203.925.304 1.444.304zm-237.332 25.95h-1.292v-5.529c0-1.127-.196-1.97-.589-2.527-.38-.557-.944-.836-1.691-.836-.367 0-.735.076-1.102.228-.355.139-.69.336-1.007.589s-.595.551-.836.893c-.228.342-.399.716-.513 1.121v6.061h-1.292v-13.87h1.292v6.213c.393-.747.937-1.336 1.634-1.767s1.45-.646 2.261-.646c.57 0 1.051.108 1.444.323.393.203.716.494.969.874.253.367.437.817.551 1.349.114.519.171 1.096.171 1.729zm6.973.19c-.722 0-1.381-.133-1.976-.399-.595-.279-1.115-.652-1.558-1.121-.431-.469-.766-1.013-1.007-1.634s-.361-1.273-.361-1.957c0-.697.12-1.355.361-1.976.253-.621.595-1.165 1.026-1.634.443-.469.963-.842 1.558-1.121s1.248-.418 1.957-.418 1.362.139 1.957.418c.608.279 1.127.652 1.558 1.121.443.469.785 1.013 1.026 1.634.253.621.38 1.279.38 1.976 0 .684-.12 1.336-.361 1.957s-.583 1.165-1.026 1.634c-.431.469-.95.842-1.558 1.121-.595.266-1.254.399-1.976.399zm-3.591-5.092c0 .557.095 1.077.285 1.558.19.469.443.887.76 1.254.329.355.709.633 1.14.836.443.203.912.304 1.406.304s.956-.101 1.387-.304c.443-.215.83-.5 1.159-.855.329-.367.589-.792.779-1.273s.285-1.001.285-1.558c0-.545-.095-1.058-.285-1.539-.19-.494-.45-.918-.779-1.273-.329-.367-.716-.652-1.159-.855-.431-.215-.893-.323-1.387-.323s-.956.108-1.387.323c-.431.203-.811.488-1.14.855s-.589.798-.779 1.292c-.19.481-.285 1.001-.285 1.558zm15.293 4.427c-.076.038-.19.089-.342.152-.139.063-.304.127-.494.19s-.405.12-.646.171-.494.076-.76.076c-.279 0-.545-.038-.798-.114s-.475-.19-.665-.342c-.19-.165-.342-.367-.456-.608s-.171-.519-.171-.836v-7.087h-1.368v-1.026h1.368v-3.344h1.292v3.344h2.28v1.026h-2.28v6.726c.025.367.152.64.38.817.241.165.513.247.817.247.367 0 .69-.057.969-.171.279-.127.456-.215.532-.266zm6.364 0c-.076.038-.19.089-.342.152-.139.063-.304.127-.494.19s-.405.12-.646.171c-.24.051-.494.076-.76.076-.278 0-.544-.038-.798-.114-.253-.076-.475-.19-.665-.342-.19-.165-.342-.367-.456-.608s-.171-.519-.171-.836v-7.087h-1.368v-1.026h1.368v-3.344h1.292v3.344h2.28v1.026h-2.28v6.726c.026.367.152.64.38.817.241.165.513.247.817.247.368 0 .691-.057.969-.171.279-.127.456-.215.532-.266zm5.648.665c-.722 0-1.387-.133-1.995-.399-.595-.279-1.114-.652-1.558-1.121-.443-.481-.791-1.032-1.045-1.653-.24-.621-.361-1.286-.361-1.995 0-.697.121-1.349.361-1.957.254-.621.596-1.159 1.026-1.615.444-.469.969-.836 1.577-1.102.608-.279 1.267-.418 1.976-.418.722 0 1.381.139 1.976.418.608.266 1.128.633 1.558 1.102.431.469.767 1.007 1.007 1.615.241.608.361 1.254.361 1.938v.304c0 .101-.006.171-.019.209h-8.474c.038.532.159 1.026.361 1.482.216.443.488.83.817 1.159.33.329.703.589 1.121.779.431.177.887.266 1.368.266.317 0 .634-.044.95-.133.317-.089.608-.209.874-.361s.507-.336.722-.551c.216-.228.38-.475.494-.741l1.121.304c-.152.367-.367.703-.646 1.007-.278.291-.601.551-.969.779-.367.215-.772.38-1.216.494-.443.127-.905.19-1.387.19zm3.648-5.662c-.038-.532-.164-1.013-.38-1.444-.202-.443-.468-.823-.798-1.14-.316-.317-.69-.564-1.121-.741-.418-.177-.867-.266-1.349-.266-.481 0-.937.089-1.368.266-.43.177-.81.424-1.14.741-.316.317-.576.697-.779 1.14-.19.443-.304.925-.342 1.444zm6.516 5.662c-.773 0-1.527-.127-2.261-.38-.735-.253-1.368-.621-1.9-1.102l.589-.874c.557.456 1.121.798 1.691 1.026.582.228 1.203.342 1.862.342.798 0 1.431-.158 1.9-.475.481-.329.722-.792.722-1.387 0-.279-.064-.507-.19-.684-.127-.19-.317-.355-.57-.494-.241-.139-.551-.26-.931-.361-.368-.114-.798-.228-1.292-.342-.57-.139-1.064-.279-1.482-.418s-.767-.298-1.045-.475c-.266-.177-.469-.393-.608-.646-.127-.266-.19-.595-.19-.988 0-.494.095-.931.285-1.311.202-.38.468-.69.798-.931.342-.253.734-.443 1.178-.57.456-.127.937-.19 1.444-.19.76 0 1.45.127 2.071.38.62.241 1.121.564 1.501.969l-.627.76c-.368-.38-.817-.665-1.349-.855-.52-.19-1.064-.285-1.634-.285-.342 0-.659.038-.95.114-.292.063-.551.171-.779.323-.216.152-.387.348-.513.589-.127.228-.19.5-.19.817 0 .266.044.481.133.646.088.165.234.31.437.437.202.114.456.222.76.323.316.089.696.184 1.14.285.633.152 1.19.304 1.672.456.481.152.88.329 1.197.532.329.203.576.45.741.741.164.291.247.646.247 1.064 0 .912-.349 1.634-1.045 2.166-.697.532-1.634.798-2.812.798zm10.722-.665c-.076.038-.19.089-.342.152-.14.063-.304.127-.494.19s-.406.12-.646.171c-.241.051-.494.076-.76.076-.279 0-.545-.038-.798-.114-.254-.076-.475-.19-.665-.342-.19-.165-.342-.367-.456-.608s-.171-.519-.171-.836v-7.087h-1.368v-1.026h1.368v-3.344h1.292v3.344h2.28v1.026h-2.28v6.726c.025.367.152.64.38.817.24.165.513.247.817.247.367 0 .69-.057.969-.171.278-.127.456-.215.532-.266zm15.76-11.837h-4.807v12.312h-1.33v-12.312h-4.807v-1.178h10.944zm3.859 12.502c-.722 0-1.387-.133-1.995-.399-.595-.279-1.114-.652-1.558-1.121-.443-.481-.791-1.032-1.045-1.653-.24-.621-.361-1.286-.361-1.995 0-.697.121-1.349.361-1.957.254-.621.596-1.159 1.026-1.615.444-.469.969-.836 1.577-1.102.608-.279 1.267-.418 1.976-.418.722 0 1.381.139 1.976.418.608.266 1.128.633 1.558 1.102.431.469.767 1.007 1.007 1.615.241.608.361 1.254.361 1.938v.304c0 .101-.006.171-.019.209h-8.474c.038.532.159 1.026.361 1.482.216.443.488.83.817 1.159.33.329.703.589 1.121.779.431.177.887.266 1.368.266.317 0 .634-.044.95-.133.317-.089.608-.209.874-.361s.507-.336.722-.551c.216-.228.38-.475.494-.741l1.121.304c-.152.367-.367.703-.646 1.007-.278.291-.601.551-.969.779-.367.215-.772.38-1.216.494-.443.127-.905.19-1.387.19zm3.648-5.662c-.038-.532-.164-1.013-.38-1.444-.202-.443-.468-.823-.798-1.14-.316-.317-.69-.564-1.121-.741-.418-.177-.867-.266-1.349-.266-.481 0-.937.089-1.368.266-.43.177-.81.424-1.14.741-.316.317-.576.697-.779 1.14-.19.443-.304.925-.342 1.444zm2.545.494c0-.697.12-1.355.361-1.976.24-.621.576-1.159 1.007-1.615.443-.469.969-.836 1.577-1.102s1.279-.399 2.014-.399c.937 0 1.754.215 2.451.646.696.418 1.222.988 1.577 1.71l-1.254.399c-.279-.507-.672-.899-1.178-1.178-.494-.291-1.045-.437-1.653-.437-.507 0-.982.101-1.425.304-.431.203-.811.481-1.14.836-.317.342-.57.754-.76 1.235-.178.481-.266 1.007-.266 1.577 0 .557.095 1.083.285 1.577s.449.925.779 1.292c.329.355.709.64 1.14.855.443.203.912.304 1.406.304.316 0 .627-.044.931-.133.316-.089.608-.209.874-.361.266-.165.494-.348.684-.551s.323-.418.399-.646l1.273.38c-.14.355-.342.684-.608.988-.266.291-.583.551-.95.779-.355.215-.754.38-1.197.494-.431.127-.881.19-1.349.19-.722 0-1.387-.133-1.995-.399-.608-.279-1.134-.652-1.577-1.121-.444-.481-.792-1.032-1.045-1.653-.241-.621-.361-1.286-.361-1.995zm19.433 4.978h-1.292v-5.529c0-1.127-.196-1.97-.589-2.527-.38-.557-.943-.836-1.691-.836-.367 0-.734.076-1.102.228-.354.139-.69.336-1.007.589-.316.253-.595.551-.836.893-.228.342-.399.716-.513 1.121v6.061h-1.292v-13.87h1.292v6.213c.393-.747.938-1.336 1.634-1.767.697-.431 1.451-.646 2.261-.646.57 0 1.052.108 1.444.323.393.203.716.494.969.874.254.367.437.817.551 1.349.114.519.171 1.096.171 1.729zm11.078 0h-1.292v-5.529c0-1.178-.178-2.033-.532-2.565-.342-.532-.874-.798-1.596-.798-.38 0-.76.07-1.14.209s-.735.336-1.064.589c-.317.253-.602.557-.855.912-.254.342-.437.716-.551 1.121v6.061h-1.292v-9.899h1.178v2.242c.405-.722.981-1.305 1.729-1.748.76-.443 1.583-.665 2.47-.665.544 0 1.007.101 1.387.304s.684.488.912.855.392.817.494 1.349c.101.532.152 1.121.152 1.767zm6.973.19c-.722 0-1.381-.133-1.976-.399-.596-.279-1.115-.652-1.558-1.121-.431-.469-.767-1.013-1.007-1.634-.241-.621-.361-1.273-.361-1.957 0-.697.12-1.355.361-1.976.253-.621.595-1.165 1.026-1.634.443-.469.962-.842 1.558-1.121.595-.279 1.247-.418 1.957-.418.709 0 1.361.139 1.957.418.608.279 1.127.652 1.558 1.121.443.469.785 1.013 1.026 1.634.253.621.38 1.279.38 1.976 0 .684-.121 1.336-.361 1.957-.241.621-.583 1.165-1.026 1.634-.431.469-.95.842-1.558 1.121-.596.266-1.254.399-1.976.399zm-3.591-5.092c0 .557.095 1.077.285 1.558.19.469.443.887.76 1.254.329.355.709.633 1.14.836.443.203.912.304 1.406.304s.956-.101 1.387-.304c.443-.215.829-.5 1.159-.855.329-.367.589-.792.779-1.273s.285-1.001.285-1.558c0-.545-.095-1.058-.285-1.539-.19-.494-.45-.918-.779-1.273-.33-.367-.716-.652-1.159-.855-.431-.215-.893-.323-1.387-.323s-.957.108-1.387.323c-.431.203-.811.488-1.14.855-.33.367-.589.798-.779 1.292-.19.481-.285 1.001-.285 1.558zm10.729-8.968h1.292v11.628c0 .367.102.659.304.874.203.203.488.304.855.304.14 0 .304-.019.494-.057s.368-.089.532-.152l.228 1.045c-.24.101-.538.184-.893.247-.342.063-.639.095-.893.095-.595 0-1.064-.165-1.406-.494-.342-.342-.513-.817-.513-1.425zm9.338 14.06c-.722 0-1.38-.133-1.976-.399-.595-.279-1.114-.652-1.558-1.121-.43-.469-.766-1.013-1.007-1.634-.24-.621-.361-1.273-.361-1.957 0-.697.121-1.355.361-1.976.254-.621.596-1.165 1.026-1.634.444-.469.963-.842 1.558-1.121.596-.279 1.248-.418 1.957-.418.71 0 1.362.139 1.957.418.608.279 1.128.652 1.558 1.121.444.469.786 1.013 1.026 1.634.254.621.38 1.279.38 1.976 0 .684-.12 1.336-.361 1.957-.24.621-.582 1.165-1.026 1.634-.43.469-.95.842-1.558 1.121-.595.266-1.254.399-1.976.399zm-3.591-5.092c0 .557.095 1.077.285 1.558.19.469.444.887.76 1.254.33.355.71.633 1.14.836.444.203.912.304 1.406.304s.957-.101 1.387-.304c.444-.215.83-.5 1.159-.855.33-.367.589-.792.779-1.273s.285-1.001.285-1.558c0-.545-.095-1.058-.285-1.539-.19-.494-.449-.918-.779-1.273-.329-.367-.715-.652-1.159-.855-.43-.215-.893-.323-1.387-.323s-.956.108-1.387.323c-.43.203-.81.488-1.14.855-.329.367-.589.798-.779 1.292-.19.481-.285 1.001-.285 1.558zm14.644 5.035c-.684 0-1.311-.139-1.881-.418-.557-.291-1.045-.671-1.463-1.14-.405-.469-.722-1.007-.95-1.615s-.342-1.235-.342-1.881c0-.684.108-1.336.323-1.957.228-.633.545-1.184.95-1.653s.887-.842 1.444-1.121c.57-.279 1.197-.418 1.881-.418.849 0 1.583.215 2.204.646.621.418 1.153.95 1.596 1.596v-2.071h1.159v9.937c0 .684-.133 1.286-.399 1.805-.253.532-.602.975-1.045 1.33-.431.355-.944.621-1.539.798-.583.177-1.203.266-1.862.266-1.14 0-2.058-.203-2.755-.608s-1.26-.95-1.691-1.634l.798-.627c.393.633.912 1.096 1.558 1.387.646.304 1.343.456 2.09.456.481 0 .937-.07 1.368-.209.431-.127.804-.323 1.121-.589.329-.253.589-.583.779-.988.19-.393.285-.855.285-1.387v-1.957c-.38.633-.899 1.134-1.558 1.501s-1.349.551-2.071.551zm.361-1.083c.38 0 .754-.07 1.121-.209s.697-.323.988-.551c.304-.241.557-.507.76-.798s.336-.589.399-.893v-3.059c-.139-.355-.329-.684-.57-.988s-.513-.564-.817-.779-.633-.386-.988-.513c-.342-.127-.69-.19-1.045-.19-.557 0-1.058.12-1.501.361-.431.228-.798.532-1.102.912s-.538.811-.703 1.292c-.152.481-.228.969-.228 1.463 0 .532.095 1.039.285 1.52s.45.906.779 1.273c.342.355.735.64 1.178.855.443.203.925.304 1.444.304zm7.983 3.99c.101.013.196.019.285.019.101.013.196.019.285.019.228 0 .405-.032.532-.095.139-.063.272-.203.399-.418s.266-.526.418-.931c.165-.405.393-.95.684-1.634l-4.313-9.899h1.33l3.667 8.702 3.401-8.702h1.235l-5.13 12.768c-.139.367-.374.684-.703.95-.317.279-.754.418-1.311.418-.127 0-.247-.006-.361-.019-.114 0-.253-.013-.418-.038zm23.355-15.352h-4.807v12.312h-1.33v-12.312h-4.807v-1.178h10.944zm4.598 3.553c-.874.025-1.634.266-2.28.722s-1.102 1.083-1.368 1.881v6.156h-1.292v-9.899h1.216v2.375c.367-.76.861-1.355 1.482-1.786s1.286-.646 1.995-.646c.101 0 .184.006.247.019zm5.495 8.949c-.722 0-1.387-.133-1.995-.399-.595-.279-1.114-.652-1.558-1.121-.443-.481-.791-1.032-1.045-1.653-.24-.621-.361-1.286-.361-1.995 0-.697.121-1.349.361-1.957.254-.621.596-1.159 1.026-1.615.444-.469.969-.836 1.577-1.102.608-.279 1.267-.418 1.976-.418.722 0 1.381.139 1.976.418.608.266 1.128.633 1.558 1.102.431.469.767 1.007 1.007 1.615.241.608.361 1.254.361 1.938v.304c0 .101-.006.171-.019.209h-8.474c.038.532.159 1.026.361 1.482.216.443.488.83.817 1.159.33.329.703.589 1.121.779.431.177.887.266 1.368.266.317 0 .634-.044.95-.133.317-.089.608-.209.874-.361s.507-.336.722-.551c.216-.228.38-.475.494-.741l1.121.304c-.152.367-.367.703-.646 1.007-.278.291-.601.551-.969.779-.367.215-.772.38-1.216.494-.443.127-.905.19-1.387.19zm3.648-5.662c-.038-.532-.164-1.013-.38-1.444-.202-.443-.468-.823-.798-1.14-.316-.317-.69-.564-1.121-.741-.418-.177-.867-.266-1.349-.266-.481 0-.937.089-1.368.266-.43.177-.81.424-1.14.741-.316.317-.576.697-.779 1.14-.19.443-.304.925-.342 1.444zm11.551 5.472h-1.292v-5.529c0-1.178-.178-2.033-.532-2.565-.342-.532-.874-.798-1.596-.798-.38 0-.76.07-1.14.209s-.735.336-1.064.589c-.317.253-.602.557-.855.912-.254.342-.437.716-.551 1.121v6.061h-1.292v-9.899h1.178v2.242c.405-.722.981-1.305 1.729-1.748.76-.443 1.583-.665 2.47-.665.544 0 1.007.101 1.387.304s.684.488.912.855.392.817.494 1.349c.101.532.152 1.121.152 1.767zm6.821.19c-.684 0-1.318-.139-1.9-.418-.583-.291-1.083-.671-1.501-1.14s-.748-1.007-.988-1.615c-.228-.621-.342-1.267-.342-1.938 0-.697.114-1.355.342-1.976.228-.633.538-1.184.931-1.653.405-.469.88-.836 1.425-1.102.557-.279 1.165-.418 1.824-.418.836 0 1.577.222 2.223.665.646.431 1.152.956 1.52 1.577v-6.042h1.292v12.198c0 .355.152.532.456.532v1.14c-.19.038-.342.057-.456.057-.304 0-.57-.095-.798-.285-.228-.203-.342-.443-.342-.722v-.969c-.393.646-.925 1.159-1.596 1.539-.672.38-1.368.57-2.09.57zm.285-1.14c.316 0 .652-.063 1.007-.19.367-.127.709-.298 1.026-.513.316-.228.582-.488.798-.779.228-.304.367-.627.418-.969v-3.059c-.127-.342-.311-.659-.551-.95-.241-.304-.52-.57-.836-.798-.304-.228-.634-.405-.988-.532-.355-.127-.703-.19-1.045-.19-.532 0-1.014.114-1.444.342-.431.228-.805.532-1.121.912-.304.367-.539.792-.703 1.273-.165.481-.247.975-.247 1.482 0 .532.095 1.039.285 1.52s.449.906.779 1.273c.329.355.715.64 1.159.855.456.215.943.323 1.463.323zm10.755 1.14c-.773 0-1.526-.127-2.261-.38s-1.368-.621-1.9-1.102l.589-.874c.557.456 1.121.798 1.691 1.026.583.228 1.203.342 1.862.342.798 0 1.431-.158 1.9-.475.481-.329.722-.792.722-1.387 0-.279-.063-.507-.19-.684-.127-.19-.317-.355-.57-.494-.241-.139-.551-.26-.931-.361-.367-.114-.798-.228-1.292-.342-.57-.139-1.064-.279-1.482-.418s-.766-.298-1.045-.475c-.266-.177-.469-.393-.608-.646-.127-.266-.19-.595-.19-.988 0-.494.095-.931.285-1.311.203-.38.469-.69.798-.931.342-.253.735-.443 1.178-.57.456-.127.937-.19 1.444-.19.76 0 1.45.127 2.071.38.621.241 1.121.564 1.501.969l-.627.76c-.367-.38-.817-.665-1.349-.855-.519-.19-1.064-.285-1.634-.285-.342 0-.659.038-.95.114-.291.063-.551.171-.779.323-.215.152-.386.348-.513.589-.127.228-.19.5-.19.817 0 .266.044.481.133.646s.234.31.437.437c.203.114.456.222.76.323.317.089.697.184 1.14.285.633.152 1.191.304 1.672.456s.88.329 1.197.532c.329.203.576.45.741.741s.247.646.247 1.064c0 .912-.348 1.634-1.045 2.166s-1.634.798-2.812.798zm10.815-.19v-9.899h1.292v9.899zm0-11.97v-1.9h1.292v1.9zm12.459 11.97h-1.292v-5.529c0-1.178-.177-2.033-.532-2.565-.342-.532-.874-.798-1.596-.798-.38 0-.76.07-1.14.209s-.734.336-1.064.589c-.316.253-.601.557-.855.912-.253.342-.437.716-.551 1.121v6.061h-1.292v-9.899h1.178v2.242c.406-.722.982-1.305 1.729-1.748.76-.443 1.584-.665 2.47-.665.545 0 1.007.101 1.387.304s.684.488.912.855.393.817.494 1.349c.102.532.152 1.121.152 1.767zm7.864 0v-13.49h4.579c1.077 0 2.014.177 2.812.532.811.355 1.482.836 2.014 1.444.545.608.95 1.324 1.216 2.147.279.811.418 1.678.418 2.603 0 1.026-.152 1.957-.456 2.793-.304.823-.741 1.533-1.311 2.128-.557.583-1.235 1.039-2.033 1.368-.785.317-1.672.475-2.66.475zm9.709-6.764c0-.811-.114-1.552-.342-2.223-.228-.684-.563-1.273-1.007-1.767-.43-.494-.962-.874-1.596-1.14-.633-.279-1.361-.418-2.185-.418h-3.249v11.134h3.249c.836 0 1.571-.139 2.204-.418.646-.291 1.185-.684 1.615-1.178.431-.507.754-1.096.969-1.767.228-.684.342-1.425.342-2.223zm6.096 6.954c-.468 0-.905-.076-1.311-.228-.392-.165-.741-.386-1.045-.665-.291-.279-.519-.602-.684-.969-.164-.38-.247-.785-.247-1.216s.102-.83.304-1.197c.203-.367.488-.684.855-.95.368-.266.805-.469 1.311-.608.507-.152 1.064-.228 1.672-.228.507 0 1.02.044 1.539.133.52.089.982.215 1.387.38v-.893c0-.874-.247-1.564-.741-2.071-.494-.519-1.178-.779-2.052-.779-.506 0-1.026.101-1.558.304s-1.07.494-1.615.874l-.456-.855c1.28-.861 2.521-1.292 3.724-1.292 1.242 0 2.217.348 2.926 1.045.71.697 1.064 1.659 1.064 2.888v4.465c0 .355.159.532.475.532v1.14c-.215.038-.38.057-.494.057-.329 0-.589-.082-.779-.247-.177-.165-.272-.393-.285-.684l-.038-.779c-.456.595-1.032 1.051-1.729 1.368-.684.317-1.425.475-2.223.475zm.304-.988c.672 0 1.286-.127 1.843-.38.57-.253 1.001-.589 1.292-1.007.114-.114.197-.234.247-.361.064-.139.095-.266.095-.38v-1.615c-.43-.165-.88-.291-1.349-.38-.456-.089-.924-.133-1.406-.133-.912 0-1.653.19-2.223.57s-.855.88-.855 1.501c0 .304.057.589.171.855.127.266.292.5.494.703.216.19.469.342.76.456.292.114.602.171.931.171zm12.501-7.961c-.874.025-1.634.266-2.28.722s-1.102 1.083-1.368 1.881v6.156h-1.292v-9.899h1.216v2.375c.367-.76.861-1.355 1.482-1.786s1.286-.646 1.995-.646c.101 0 .184.006.247.019zm1.721 8.759v-9.899h1.292v9.899zm0-11.97v-1.9h1.292v1.9zm2.656 15.409c-.418 0-.811-.057-1.178-.171-.368-.114-.697-.304-.988-.57l.627-.874c.202.177.424.298.665.361.24.063.481.095.722.095.228 0 .443-.044.646-.133.215-.089.405-.215.57-.38.164-.152.297-.336.399-.551.101-.215.152-.45.152-.703v-10.412h1.292v10.336c0 .443-.083.849-.247 1.216-.165.367-.387.684-.665.95-.266.266-.577.469-.931.608-.342.152-.697.228-1.064.228zm1.615-15.409v-1.9h1.292v1.9zm6.623 12.16c-.468 0-.905-.076-1.311-.228-.392-.165-.741-.386-1.045-.665-.291-.279-.519-.602-.684-.969-.164-.38-.247-.785-.247-1.216s.102-.83.304-1.197c.203-.367.488-.684.855-.95.368-.266.805-.469 1.311-.608.507-.152 1.064-.228 1.672-.228.507 0 1.02.044 1.539.133.52.089.982.215 1.387.38v-.893c0-.874-.247-1.564-.741-2.071-.494-.519-1.178-.779-2.052-.779-.506 0-1.026.101-1.558.304s-1.07.494-1.615.874l-.456-.855c1.28-.861 2.521-1.292 3.724-1.292 1.242 0 2.217.348 2.926 1.045.71.697 1.064 1.659 1.064 2.888v4.465c0 .355.159.532.475.532v1.14c-.215.038-.38.057-.494.057-.329 0-.589-.082-.779-.247-.177-.165-.272-.393-.285-.684l-.038-.779c-.456.595-1.032 1.051-1.729 1.368-.684.317-1.425.475-2.223.475zm.304-.988c.672 0 1.286-.127 1.843-.38.57-.253 1.001-.589 1.292-1.007.114-.114.197-.234.247-.361.064-.139.095-.266.095-.38v-1.615c-.43-.165-.88-.291-1.349-.38-.456-.089-.924-.133-1.406-.133-.912 0-1.653.19-2.223.57s-.855.88-.855 1.501c0 .304.057.589.171.855.127.266.292.5.494.703.216.19.469.342.76.456.292.114.602.171.931.171z" fill="#fff"/></svg>