<svg width="655" height="337" viewBox="0 0 655 337" fill="none" xmlns="http://www.w3.org/2000/svg">
<mask id="path-1-inside-1" fill="white">
<path fill-rule="evenodd" clip-rule="evenodd" d="M0 15C7.73199 15 14 8.73199 14 1C14 0.663767 13.9881 0.330302 13.9648 0H641.035C641.012 0.330302 641 0.663767 641 1C641 8.73199 647.268 15 655 15V43C647.268 43 641 49.268 641 57C641 64.732 647.268 71 655 71V99C647.268 99 641 105.268 641 113C641 120.732 647.268 127 655 127V155C647.268 155 641 161.268 641 169C641 176.732 647.268 183 655 183V211C647.268 211 641 217.268 641 225C641 232.732 647.268 239 655 239V267C647.268 267 641 273.268 641 281C641 288.732 647.268 295 655 295V323C647.268 323 641 329.268 641 337H14C14 329.268 7.73199 323 0 323V295C7.73199 295 14 288.732 14 281C14 273.268 7.73199 267 0 267V239C7.73199 239 14 232.732 14 225C14 217.268 7.73199 211 0 211V183C7.73199 183 14 176.732 14 169C14 161.268 7.73199 155 0 155V127C7.73199 127 14 120.732 14 113C14 105.268 7.73199 99 0 99V71C7.73199 71 14 64.732 14 57C14 49.268 7.73199 43 0 43V15Z"/>
</mask>
<path fill-rule="evenodd" clip-rule="evenodd" d="M0 15C7.73199 15 14 8.73199 14 1C14 0.663767 13.9881 0.330302 13.9648 0H641.035C641.012 0.330302 641 0.663767 641 1C641 8.73199 647.268 15 655 15V43C647.268 43 641 49.268 641 57C641 64.732 647.268 71 655 71V99C647.268 99 641 105.268 641 113C641 120.732 647.268 127 655 127V155C647.268 155 641 161.268 641 169C641 176.732 647.268 183 655 183V211C647.268 211 641 217.268 641 225C641 232.732 647.268 239 655 239V267C647.268 267 641 273.268 641 281C641 288.732 647.268 295 655 295V323C647.268 323 641 329.268 641 337H14C14 329.268 7.73199 323 0 323V295C7.73199 295 14 288.732 14 281C14 273.268 7.73199 267 0 267V239C7.73199 239 14 232.732 14 225C14 217.268 7.73199 211 0 211V183C7.73199 183 14 176.732 14 169C14 161.268 7.73199 155 0 155V127C7.73199 127 14 120.732 14 113C14 105.268 7.73199 99 0 99V71C7.73199 71 14 64.732 14 57C14 49.268 7.73199 43 0 43V15Z" fill="url(#paint0_linear)" fill-opacity="0.1"/>
<path d="M0 15V7H-8V15H0ZM13.9648 0V-8H5.38035L5.98468 0.56319L13.9648 0ZM641.035 0L649.015 0.563305L649.62 -8H641.035V0ZM655 15H663V7H655V15ZM655 43V51H663V43H655ZM655 71H663V63H655V71ZM655 99V107H663V99H655ZM655 127H663V119H655V127ZM655 155V163H663V155H655ZM655 183H663V175H655V183ZM655 211V219H663V211H655ZM655 239H663V231H655V239ZM655 267V275H663V267H655ZM655 295H663V287H655V295ZM655 323V331H663V323H655ZM641 337V345H649V337H641ZM14 337H6V345H14V337ZM0 323H-8V331H0V323ZM0 295V287H-8V295H0ZM0 267H-8V275H0V267ZM0 239V231H-8V239H0ZM0 211H-8V219H0V211ZM0 183V175H-8V183H0ZM0 155H-8V163H0V155ZM0 127V119H-8V127H0ZM0 99H-8V107H0V99ZM0 71V63H-8V71H0ZM0 43H-8V51H0V43ZM6 1C6 4.31371 3.31371 7 0 7V23C12.1503 23 22 13.1503 22 1H6ZM5.98468 0.56319C5.99478 0.706226 6 0.851844 6 1H22C22 0.475689 21.9815 -0.0456226 21.945 -0.56319L5.98468 0.56319ZM641.035 -8H13.9648V8H641.035V-8ZM649 1C649 0.851646 649.005 0.706066 649.015 0.563305L633.055 -0.563305C633.018 -0.045463 633 0.475887 633 1H649ZM655 7C651.686 7 649 4.31371 649 1H633C633 13.1503 642.85 23 655 23V7ZM663 43V15H647V43H663ZM649 57C649 53.6863 651.686 51 655 51V35C642.85 35 633 44.8497 633 57H649ZM655 63C651.686 63 649 60.3137 649 57H633C633 69.1503 642.85 79 655 79V63ZM663 99V71H647V99H663ZM649 113C649 109.686 651.686 107 655 107V91C642.85 91 633 100.85 633 113H649ZM655 119C651.686 119 649 116.314 649 113H633C633 125.15 642.85 135 655 135V119ZM663 155V127H647V155H663ZM649 169C649 165.686 651.686 163 655 163V147C642.85 147 633 156.85 633 169H649ZM655 175C651.686 175 649 172.314 649 169H633C633 181.15 642.85 191 655 191V175ZM663 211V183H647V211H663ZM649 225C649 221.686 651.686 219 655 219V203C642.85 203 633 212.85 633 225H649ZM655 231C651.686 231 649 228.314 649 225H633C633 237.15 642.85 247 655 247V231ZM663 267V239H647V267H663ZM649 281C649 277.686 651.686 275 655 275V259C642.85 259 633 268.85 633 281H649ZM655 287C651.686 287 649 284.314 649 281H633C633 293.15 642.85 303 655 303V287ZM663 323V295H647V323H663ZM649 337C649 333.686 651.686 331 655 331V315C642.85 315 633 324.85 633 337H649ZM14 345H641V329H14V345ZM0 331C3.31371 331 6 333.686 6 337H22C22 324.85 12.1503 315 0 315V331ZM-8 295V323H8V295H-8ZM6 281C6 284.314 3.31371 287 0 287V303C12.1503 303 22 293.15 22 281H6ZM0 275C3.31371 275 6 277.686 6 281H22C22 268.85 12.1503 259 0 259V275ZM-8 239V267H8V239H-8ZM6 225C6 228.314 3.31371 231 0 231V247C12.1503 247 22 237.15 22 225H6ZM0 219C3.31371 219 6 221.686 6 225H22C22 212.85 12.1503 203 0 203V219ZM-8 183V211H8V183H-8ZM6 169C6 172.314 3.31371 175 0 175V191C12.1503 191 22 181.15 22 169H6ZM0 163C3.31371 163 6 165.686 6 169H22C22 156.85 12.1503 147 0 147V163ZM-8 127V155H8V127H-8ZM6 113C6 116.314 3.31371 119 0 119V135C12.1503 135 22 125.15 22 113H6ZM0 107C3.31371 107 6 109.686 6 113H22C22 100.85 12.1503 91 0 91V107ZM-8 71V99H8V71H-8ZM6 57C6 60.3137 3.31371 63 0 63V79C12.1503 79 22 69.1503 22 57H6ZM0 51C3.31371 51 6 53.6863 6 57H22C22 44.8497 12.1503 35 0 35V51ZM-8 15V43H8V15H-8Z" fill="white" fill-opacity="0.1" mask="url(#path-1-inside-1)"/>
<rect x="71" y="231" width="100" height="42.2829" fill="#110547"/>
<path d="M97.7514 256.305V256.255C97.7514 255.084 97.4584 254.172 96.8725 253.52C96.2865 252.85 95.4829 252.323 94.4617 251.939C94.7798 251.771 95.0728 251.57 95.3406 251.336C95.6252 251.102 95.868 250.834 96.0689 250.533C96.2865 250.215 96.4539 249.864 96.5711 249.479C96.705 249.094 96.772 248.651 96.772 248.149V248.099C96.772 246.71 96.253 245.606 95.2151 244.786C94.1939 243.966 92.7793 243.556 90.9712 243.556H82.81V261.124H91.1721C92.1598 261.124 93.0555 261.024 93.8591 260.823C94.6794 260.622 95.3741 260.321 95.9433 259.919C96.5293 259.518 96.9729 259.016 97.2742 258.413C97.5923 257.811 97.7514 257.108 97.7514 256.305ZM92.9299 248.801C92.9299 249.454 92.6788 249.931 92.1766 250.232C91.6744 250.516 90.9963 250.659 90.1426 250.659H86.5767V246.944H90.3937C91.214 246.944 91.8418 247.103 92.277 247.421C92.7123 247.722 92.9299 248.166 92.9299 248.751V248.801ZM93.9093 255.829C93.9093 256.481 93.6665 256.966 93.1811 257.284C92.6956 257.585 92.0259 257.736 91.1721 257.736H86.5767V253.871H91.0466C92.051 253.871 92.7793 254.047 93.2313 254.398C93.6833 254.733 93.9093 255.193 93.9093 255.778V255.829Z" fill="white"/>
<path d="M104.523 261.124V242.803H100.706V261.124H104.523Z" fill="white"/>
<path d="M119.685 261.124V253.319C119.685 251.495 119.208 250.073 118.253 249.052C117.299 248.032 115.776 247.521 113.683 247.521C112.545 247.521 111.574 247.622 110.77 247.823C109.967 248.023 109.196 248.283 108.46 248.601L109.414 251.512C110.034 251.278 110.619 251.102 111.172 250.985C111.741 250.851 112.394 250.784 113.131 250.784C114.085 250.784 114.805 250.993 115.29 251.411C115.776 251.83 116.018 252.44 116.018 253.244V253.469C115.533 253.302 115.031 253.168 114.512 253.068C114.01 252.967 113.415 252.917 112.729 252.917C111.925 252.917 111.189 253.009 110.519 253.193C109.866 253.361 109.297 253.62 108.811 253.971C108.343 254.323 107.974 254.766 107.707 255.301C107.439 255.837 107.305 256.473 107.305 257.209V257.259C107.305 257.928 107.422 258.522 107.656 259.041C107.907 259.543 108.242 259.969 108.661 260.321C109.079 260.672 109.565 260.94 110.117 261.124C110.686 261.291 111.289 261.375 111.925 261.375C112.863 261.375 113.658 261.224 114.311 260.923C114.964 260.605 115.525 260.187 115.993 259.668V261.124H119.685ZM116.069 256.381C116.069 257.083 115.792 257.652 115.24 258.087C114.704 258.522 113.984 258.74 113.08 258.74C112.461 258.74 111.959 258.598 111.574 258.313C111.189 258.029 110.996 257.627 110.996 257.108V257.058C110.996 256.456 111.231 255.996 111.699 255.678C112.168 255.36 112.813 255.201 113.633 255.201C114.102 255.201 114.537 255.251 114.939 255.352C115.357 255.435 115.734 255.552 116.069 255.703V256.381Z" fill="white"/>
<path d="M137.107 254.423V254.373C137.107 253.252 136.931 252.265 136.58 251.411C136.245 250.541 135.793 249.814 135.224 249.228C134.655 248.626 134.002 248.174 133.265 247.873C132.528 247.572 131.767 247.421 130.98 247.421C129.975 247.421 129.138 247.63 128.469 248.048C127.816 248.45 127.255 248.969 126.786 249.604V242.803H122.969V261.124H126.786V259.367C127.238 259.903 127.791 260.371 128.444 260.773C129.113 261.174 129.959 261.375 130.98 261.375C131.783 261.375 132.554 261.224 133.29 260.923C134.027 260.622 134.671 260.179 135.224 259.593C135.793 258.991 136.245 258.263 136.58 257.41C136.931 256.54 137.107 255.544 137.107 254.423ZM133.29 254.423C133.29 254.992 133.198 255.502 133.014 255.954C132.847 256.406 132.612 256.799 132.311 257.134C132.009 257.451 131.658 257.702 131.256 257.886C130.871 258.054 130.453 258.137 130.001 258.137C129.549 258.137 129.122 258.054 128.72 257.886C128.335 257.702 127.992 257.451 127.69 257.134C127.406 256.799 127.171 256.406 126.987 255.954C126.82 255.486 126.736 254.975 126.736 254.423V254.373C126.736 253.821 126.82 253.319 126.987 252.867C127.171 252.399 127.406 252.005 127.69 251.688C127.992 251.353 128.335 251.102 128.72 250.935C129.122 250.751 129.549 250.659 130.001 250.659C130.453 250.659 130.871 250.751 131.256 250.935C131.658 251.102 132.009 251.353 132.311 251.688C132.612 252.005 132.847 252.399 133.014 252.867C133.198 253.319 133.29 253.821 133.29 254.373V254.423Z" fill="white"/>
<path d="M143.907 261.124V242.803H140.09V261.124H143.907Z" fill="white"/>
<path d="M159.069 261.124V253.319C159.069 251.495 158.592 250.073 157.637 249.052C156.683 248.032 155.16 247.521 153.067 247.521C151.929 247.521 150.958 247.622 150.154 247.823C149.351 248.023 148.58 248.283 147.844 248.601L148.798 251.512C149.418 251.278 150.003 251.102 150.556 250.985C151.125 250.851 151.778 250.784 152.515 250.784C153.469 250.784 154.189 250.993 154.674 251.411C155.16 251.83 155.402 252.44 155.402 253.244V253.469C154.917 253.302 154.415 253.168 153.896 253.068C153.394 252.967 152.799 252.917 152.113 252.917C151.309 252.917 150.573 253.009 149.903 253.193C149.25 253.361 148.681 253.62 148.195 253.971C147.727 254.323 147.358 254.766 147.091 255.301C146.823 255.837 146.689 256.473 146.689 257.209V257.259C146.689 257.928 146.806 258.522 147.04 259.041C147.291 259.543 147.626 259.969 148.045 260.321C148.463 260.672 148.949 260.94 149.501 261.124C150.07 261.291 150.673 261.375 151.309 261.375C152.247 261.375 153.042 261.224 153.695 260.923C154.348 260.605 154.909 260.187 155.377 259.668V261.124H159.069ZM155.453 256.381C155.453 257.083 155.176 257.652 154.624 258.087C154.088 258.522 153.368 258.74 152.464 258.74C151.845 258.74 151.343 258.598 150.958 258.313C150.573 258.029 150.38 257.627 150.38 257.108V257.058C150.38 256.456 150.615 255.996 151.083 255.678C151.552 255.36 152.197 255.201 153.017 255.201C153.486 255.201 153.921 255.251 154.323 255.352C154.741 255.435 155.118 255.552 155.453 255.703V256.381Z" fill="white"/>
<path d="M118.013 273.283L71 273.283L118.013 295V273.283Z" fill="#110547"/>
<path d="M130.921 288.614L130.271 287.976C129.854 288.376 129.428 288.689 128.995 288.914C128.561 289.131 128.044 289.239 127.444 289.239C126.96 289.239 126.51 289.147 126.093 288.964C125.684 288.772 125.325 288.514 125.017 288.189C124.717 287.864 124.479 287.48 124.304 287.039C124.137 286.597 124.054 286.122 124.054 285.613C124.054 285.105 124.137 284.634 124.304 284.201C124.479 283.759 124.717 283.376 125.017 283.051C125.325 282.726 125.684 282.471 126.093 282.288C126.51 282.105 126.96 282.013 127.444 282.013C128.044 282.013 128.557 282.125 128.982 282.35C129.416 282.576 129.82 282.863 130.196 283.213L130.871 282.488C130.654 282.28 130.429 282.092 130.196 281.925C129.962 281.75 129.708 281.605 129.432 281.488C129.157 281.363 128.857 281.267 128.532 281.2C128.215 281.134 127.856 281.1 127.456 281.1C126.814 281.1 126.222 281.221 125.68 281.463C125.138 281.696 124.671 282.021 124.279 282.438C123.887 282.846 123.578 283.326 123.353 283.876C123.136 284.426 123.028 285.013 123.028 285.638C123.028 286.272 123.136 286.864 123.353 287.414C123.578 287.964 123.887 288.443 124.279 288.851C124.671 289.251 125.134 289.568 125.667 289.801C126.201 290.035 126.785 290.151 127.419 290.151C127.819 290.151 128.182 290.114 128.507 290.039C128.832 289.964 129.136 289.86 129.42 289.726C129.704 289.593 129.966 289.435 130.208 289.251C130.458 289.06 130.696 288.847 130.921 288.614Z" fill="white"/>
<path d="M140.95 285.613C140.95 285.005 140.842 284.43 140.625 283.888C140.416 283.338 140.116 282.859 139.724 282.45C139.332 282.034 138.861 281.705 138.311 281.463C137.769 281.221 137.164 281.1 136.497 281.1C135.83 281.1 135.221 281.225 134.671 281.475C134.12 281.717 133.649 282.046 133.257 282.463C132.865 282.88 132.561 283.363 132.344 283.913C132.127 284.455 132.019 285.03 132.019 285.638C132.019 286.247 132.123 286.826 132.331 287.376C132.548 287.918 132.853 288.397 133.245 288.814C133.637 289.222 134.104 289.547 134.646 289.789C135.196 290.031 135.805 290.151 136.472 290.151C137.139 290.151 137.748 290.031 138.298 289.789C138.849 289.539 139.32 289.206 139.712 288.789C140.104 288.372 140.408 287.893 140.625 287.351C140.842 286.801 140.95 286.222 140.95 285.613ZM139.924 285.638C139.924 286.138 139.837 286.609 139.662 287.051C139.495 287.484 139.261 287.864 138.961 288.189C138.661 288.514 138.298 288.772 137.873 288.964C137.456 289.147 136.997 289.239 136.497 289.239C135.997 289.239 135.534 289.143 135.108 288.951C134.691 288.76 134.329 288.501 134.02 288.176C133.712 287.851 133.47 287.468 133.295 287.026C133.128 286.584 133.044 286.113 133.044 285.613C133.044 285.113 133.128 284.647 133.295 284.213C133.47 283.771 133.707 283.388 134.008 283.063C134.308 282.738 134.666 282.484 135.083 282.3C135.509 282.109 135.972 282.013 136.472 282.013C136.972 282.013 137.431 282.109 137.848 282.3C138.273 282.492 138.64 282.751 138.949 283.076C139.257 283.401 139.495 283.784 139.662 284.226C139.837 284.667 139.924 285.138 139.924 285.638Z" fill="white"/>
<path d="M149.476 288.264L143.96 281.25H143.034V290.001H143.997V282.826L149.651 290.001H150.439V281.25H149.476V288.264Z" fill="white"/>
<path d="M159.209 281.25H152.917V290.001H153.905V286.188H158.646V285.288H153.905V282.163H159.209V281.25Z" fill="white"/>
<path d="M71.0001 273.283H118.011V280.877L71.0001 273.283Z" fill="#2F1D82"/>
<path fill-rule="evenodd" clip-rule="evenodd" d="M172.718 79.9998C167.373 79.9998 163 84.2746 163 89.4993C163 93.6553 165.794 97.2177 169.681 98.5239C170.167 98.6426 170.289 98.2863 170.289 98.0489V96.3864C167.616 96.9801 167.009 95.199 167.009 95.199C166.523 94.1303 165.915 93.7741 165.915 93.7741C165.065 93.1803 166.037 93.1803 166.037 93.1803C167.009 93.2991 167.495 94.1303 167.495 94.1303C168.345 95.674 169.803 95.199 170.289 94.9615C170.41 94.3678 170.653 93.8928 170.896 93.6553C168.709 93.4179 166.523 92.5866 166.523 88.9056C166.523 87.8369 166.887 87.0057 167.495 86.412C167.373 86.1745 167.009 85.2246 167.616 83.9184C167.616 83.9184 168.466 83.6809 170.289 84.8683C171.017 84.6308 171.868 84.5121 172.718 84.5121C173.568 84.5121 174.419 84.6308 175.148 84.8683C176.97 83.6809 177.82 83.9184 177.82 83.9184C178.306 85.2246 178.063 86.1745 177.942 86.412C178.549 87.1245 178.913 87.9556 178.913 88.9056C178.913 92.5866 176.605 93.2991 174.419 93.5366C174.783 94.0116 175.148 94.6052 175.148 95.4365V98.0489C175.148 98.2863 175.269 98.6426 175.877 98.5239C179.764 97.2177 182.558 93.6553 182.558 89.4993C182.436 84.2746 178.063 79.9998 172.718 79.9998Z" fill="white" fill-opacity="0.7"/>
<circle cx="111" cy="70" r="40" fill="white" fill-opacity="0.1"/>
<circle cx="111" cy="70" r="39.5" stroke="white" stroke-opacity="0.19"/>
<path d="M103 80C103 77.8783 103.843 75.8434 105.343 74.3431C106.843 72.8429 108.878 72 111 72C113.122 72 115.157 72.8429 116.657 74.3431C118.157 75.8434 119 77.8783 119 80H117C117 78.4087 116.368 76.8826 115.243 75.7574C114.117 74.6321 112.591 74 111 74C109.409 74 107.883 74.6321 106.757 75.7574C105.632 76.8826 105 78.4087 105 80H103ZM111 71C107.685 71 105 68.315 105 65C105 61.685 107.685 59 111 59C114.315 59 117 61.685 117 65C117 68.315 114.315 71 111 71ZM111 69C113.21 69 115 67.21 115 65C115 62.79 113.21 61 111 61C108.79 61 107 62.79 107 65C107 67.21 108.79 69 111 69Z" fill="white" fill-opacity="0.5"/>
<path d="M164.696 40.28L169.592 50.712L174.552 40.28H180.28L172.184 55.256V63H166.968V55.192L159 40.28H164.696ZM187.01 63.32C185.581 63.32 184.301 63.0853 183.17 62.616C182.061 62.1467 181.122 61.5173 180.354 60.728C179.586 59.9173 178.999 58.9893 178.594 57.944C178.21 56.8773 178.018 55.768 178.018 54.616C178.018 53.464 178.21 52.3653 178.594 51.32C178.999 50.2533 179.586 49.3253 180.354 48.536C181.122 47.7253 182.061 47.0853 183.17 46.616C184.301 46.1253 185.581 45.88 187.01 45.88C188.439 45.88 189.709 46.1253 190.818 46.616C191.927 47.0853 192.866 47.7253 193.634 48.536C194.402 49.3253 194.989 50.2533 195.394 51.32C195.799 52.3653 196.002 53.464 196.002 54.616C196.002 55.768 195.799 56.8773 195.394 57.944C195.01 58.9893 194.434 59.9173 193.666 60.728C192.898 61.5173 191.949 62.1467 190.818 62.616C189.709 63.0853 188.439 63.32 187.01 63.32ZM183.266 54.616C183.266 55.9387 183.618 57.0053 184.322 57.816C185.026 58.6053 185.922 59 187.01 59C187.543 59 188.034 58.8933 188.482 58.68C188.93 58.4667 189.314 58.168 189.634 57.784C189.975 57.4 190.242 56.9413 190.434 56.408C190.626 55.8533 190.722 55.256 190.722 54.616C190.722 53.2933 190.37 52.2373 189.666 51.448C188.962 50.6373 188.077 50.232 187.01 50.232C186.477 50.232 185.975 50.3387 185.506 50.552C185.058 50.7653 184.663 51.064 184.322 51.448C184.002 51.832 183.746 52.3013 183.554 52.856C183.362 53.3893 183.266 53.976 183.266 54.616ZM203.629 63.32C201.901 63.32 200.589 62.7867 199.693 61.72C198.819 60.632 198.381 59.0427 198.381 56.952V46.2H203.501V55.832C203.501 56.856 203.704 57.6453 204.109 58.2C204.515 58.7333 205.091 59 205.837 59C206.52 59 207.181 58.8187 207.821 58.456C208.461 58.0933 209.027 57.464 209.517 56.568V46.2H214.637V57.24C214.637 57.752 214.712 58.1147 214.861 58.328C215.032 58.52 215.32 58.6373 215.725 58.68V63C215.235 63.1067 214.819 63.1707 214.477 63.192C214.136 63.2347 213.827 63.256 213.549 63.256C211.715 63.256 210.669 62.5413 210.413 61.112L210.317 60.088C209.549 61.1973 208.589 62.0187 207.437 62.552C206.307 63.064 205.037 63.32 203.629 63.32ZM229.26 50.584C228.022 50.6053 226.902 50.808 225.9 51.192C224.897 51.576 224.172 52.152 223.724 52.92V63H218.604V46.2H223.308V49.592C223.884 48.4613 224.62 47.576 225.516 46.936C226.433 46.296 227.404 45.9653 228.428 45.944C228.662 45.944 228.833 45.944 228.94 45.944C229.046 45.944 229.153 45.9547 229.26 45.976V50.584ZM243.768 50.008V63H238.52V40.28H242.616L253.208 53.624V40.28H258.456V63H254.232L243.768 50.008ZM266.997 63.32C266.165 63.32 265.386 63.192 264.661 62.936C263.957 62.6587 263.349 62.2853 262.837 61.816C262.325 61.3253 261.919 60.76 261.621 60.12C261.322 59.4587 261.173 58.744 261.173 57.976C261.173 57.144 261.343 56.3867 261.685 55.704C262.047 55.0213 262.549 54.4347 263.189 53.944C263.829 53.4533 264.586 53.0693 265.461 52.792C266.335 52.5147 267.306 52.376 268.373 52.376C269.077 52.376 269.759 52.44 270.421 52.568C271.082 52.6747 271.658 52.8453 272.149 53.08V52.312C272.149 50.3707 271.029 49.4 268.789 49.4C267.871 49.4 266.997 49.56 266.165 49.88C265.333 50.1787 264.458 50.6373 263.541 51.256L262.037 48.056C263.146 47.3307 264.298 46.7867 265.493 46.424C266.687 46.0613 267.957 45.88 269.301 45.88C271.839 45.88 273.802 46.4773 275.189 47.672C276.575 48.8667 277.269 50.616 277.269 52.92V57.24C277.269 57.752 277.343 58.1147 277.493 58.328C277.663 58.52 277.951 58.6373 278.357 58.68V63C277.909 63.1067 277.503 63.1707 277.141 63.192C276.778 63.2347 276.447 63.256 276.149 63.256C275.189 63.256 274.463 63.0747 273.973 62.712C273.482 62.328 273.173 61.7947 273.045 61.112L272.949 60.344C272.202 61.304 271.306 62.04 270.261 62.552C269.237 63.064 268.149 63.32 266.997 63.32ZM268.501 59.64C269.055 59.64 269.589 59.544 270.101 59.352C270.634 59.16 271.071 58.904 271.413 58.584C271.903 58.2 272.149 57.7947 272.149 57.368V55.768C271.701 55.5973 271.21 55.4693 270.677 55.384C270.165 55.2773 269.685 55.224 269.237 55.224C268.298 55.224 267.519 55.4373 266.901 55.864C266.303 56.2907 266.005 56.8453 266.005 57.528C266.005 58.1467 266.239 58.6587 266.709 59.064C267.178 59.448 267.775 59.64 268.501 59.64ZM307.539 63H302.419V53.56C302.419 52.4507 302.216 51.6507 301.811 51.16C301.405 50.648 300.883 50.392 300.243 50.392C299.901 50.392 299.549 50.4667 299.187 50.616C298.845 50.7653 298.525 50.9787 298.227 51.256C297.928 51.512 297.651 51.8213 297.395 52.184C297.16 52.5467 296.968 52.9413 296.819 53.368V63H291.699V53.56C291.699 52.4507 291.496 51.6507 291.091 51.16C290.685 50.648 290.163 50.392 289.523 50.392C288.84 50.392 288.168 50.6693 287.507 51.224C286.867 51.7573 286.397 52.472 286.099 53.368V63H280.979V46.2H285.587V49.016C286.205 47.992 287.037 47.2133 288.083 46.68C289.149 46.1467 290.387 45.88 291.795 45.88C292.499 45.88 293.107 45.9653 293.619 46.136C294.152 46.3067 294.611 46.5413 294.995 46.84C295.379 47.1387 295.688 47.4907 295.923 47.896C296.157 48.28 296.328 48.696 296.435 49.144C297.075 48.0987 297.917 47.2987 298.963 46.744C300.008 46.168 301.203 45.88 302.547 45.88C303.613 45.88 304.467 46.0827 305.107 46.488C305.768 46.872 306.28 47.384 306.643 48.024C307.005 48.6427 307.24 49.3253 307.347 50.072C307.475 50.8187 307.539 51.544 307.539 52.248V63ZM318.917 63.32C317.509 63.32 316.24 63.096 315.109 62.648C314 62.1787 313.05 61.5493 312.261 60.76C311.493 59.9707 310.906 59.064 310.501 58.04C310.096 56.9947 309.893 55.9067 309.893 54.776C309.893 53.56 310.096 52.4187 310.501 51.352C310.906 50.264 311.493 49.3147 312.261 48.504C313.029 47.6933 313.968 47.0533 315.077 46.584C316.208 46.1147 317.488 45.88 318.917 45.88C320.346 45.88 321.616 46.1147 322.725 46.584C323.834 47.0533 324.773 47.6933 325.541 48.504C326.309 49.2933 326.885 50.2107 327.269 51.256C327.674 52.3013 327.877 53.4 327.877 54.552C327.877 54.8507 327.866 55.1493 327.845 55.448C327.824 55.7253 327.792 55.9707 327.749 56.184H315.333C315.418 57.3147 315.824 58.1787 316.549 58.776C317.296 59.352 318.138 59.64 319.077 59.64C319.824 59.64 320.538 59.4587 321.221 59.096C321.925 58.7333 322.394 58.2427 322.629 57.624L326.981 58.84C326.32 60.1627 325.296 61.24 323.909 62.072C322.522 62.904 320.858 63.32 318.917 63.32ZM322.469 53.016C322.362 51.9493 321.978 51.1067 321.317 50.488C320.656 49.8693 319.834 49.56 318.853 49.56C317.85 49.56 317.018 49.88 316.357 50.52C315.717 51.1387 315.344 51.9707 315.237 53.016H322.469Z" fill="white"/>
<path d="M190.808 95.3265C189.901 95.3265 189.224 95.0278 188.776 94.4305C188.339 93.8225 188.12 92.9212 188.12 91.7265V86.8305H189.208V91.5345C189.208 93.4225 189.853 94.3665 191.144 94.3665C191.464 94.3665 191.779 94.3132 192.088 94.2065C192.397 94.0998 192.68 93.9452 192.936 93.7425C193.203 93.5398 193.437 93.2998 193.64 93.0225C193.853 92.7452 194.024 92.4305 194.152 92.0785V86.8305H195.24V93.7585C195.24 94.0572 195.368 94.2065 195.624 94.2065V95.1665C195.496 95.1878 195.389 95.1985 195.304 95.1985C195.229 95.1985 195.176 95.1985 195.144 95.1985C194.888 95.1878 194.68 95.0972 194.52 94.9265C194.36 94.7558 194.28 94.5265 194.28 94.2385V93.2785C193.917 93.9292 193.421 94.4358 192.792 94.7985C192.173 95.1505 191.512 95.3265 190.808 95.3265ZM200.468 95.3265C199.817 95.3265 199.183 95.2198 198.564 95.0065C197.945 94.7932 197.412 94.4838 196.964 94.0785L197.46 93.3425C197.929 93.7265 198.404 94.0145 198.884 94.2065C199.375 94.3985 199.897 94.4945 200.452 94.4945C201.124 94.4945 201.657 94.3612 202.052 94.0945C202.457 93.8172 202.66 93.4278 202.66 92.9265C202.66 92.6918 202.607 92.4998 202.5 92.3505C202.393 92.1905 202.233 92.0518 202.02 91.9345C201.817 91.8172 201.556 91.7158 201.236 91.6305C200.927 91.5345 200.564 91.4385 200.148 91.3425C199.668 91.2252 199.252 91.1078 198.9 90.9905C198.548 90.8732 198.255 90.7398 198.02 90.5905C197.796 90.4412 197.625 90.2598 197.508 90.0465C197.401 89.8225 197.348 89.5452 197.348 89.2145C197.348 88.7985 197.428 88.4305 197.588 88.1105C197.759 87.7905 197.983 87.5292 198.26 87.3265C198.548 87.1132 198.879 86.9532 199.252 86.8465C199.636 86.7398 200.041 86.6865 200.468 86.6865C201.108 86.6865 201.689 86.7932 202.212 87.0065C202.735 87.2092 203.156 87.4812 203.476 87.8225L202.948 88.4625C202.639 88.1425 202.26 87.9025 201.812 87.7425C201.375 87.5825 200.916 87.5025 200.436 87.5025C200.148 87.5025 199.881 87.5345 199.636 87.5985C199.391 87.6518 199.172 87.7425 198.98 87.8705C198.799 87.9985 198.655 88.1638 198.548 88.3665C198.441 88.5585 198.388 88.7878 198.388 89.0545C198.388 89.2785 198.425 89.4598 198.5 89.5985C198.575 89.7372 198.697 89.8598 198.868 89.9665C199.039 90.0625 199.252 90.1532 199.508 90.2385C199.775 90.3132 200.095 90.3932 200.468 90.4785C201.001 90.6065 201.471 90.7345 201.876 90.8625C202.281 90.9905 202.617 91.1398 202.884 91.3105C203.161 91.4812 203.369 91.6892 203.508 91.9345C203.647 92.1798 203.716 92.4785 203.716 92.8305C203.716 93.5985 203.423 94.2065 202.836 94.6545C202.249 95.1025 201.46 95.3265 200.468 95.3265ZM209.097 95.3265C208.489 95.3265 207.929 95.2145 207.417 94.9905C206.916 94.7558 206.478 94.4412 206.105 94.0465C205.732 93.6412 205.438 93.1772 205.225 92.6545C205.022 92.1318 204.921 91.5718 204.921 90.9745C204.921 90.3878 205.022 89.8385 205.225 89.3265C205.438 88.8038 205.726 88.3505 206.089 87.9665C206.462 87.5718 206.905 87.2625 207.417 87.0385C207.929 86.8038 208.484 86.6865 209.081 86.6865C209.689 86.6865 210.244 86.8038 210.745 87.0385C211.257 87.2625 211.694 87.5718 212.057 87.9665C212.42 88.3612 212.702 88.8145 212.905 89.3265C213.108 89.8385 213.209 90.3825 213.209 90.9585C213.209 91.0438 213.209 91.1292 213.209 91.2145C213.209 91.2998 213.204 91.3585 213.193 91.3905H206.057C206.089 91.8385 206.19 92.2545 206.361 92.6385C206.542 93.0118 206.772 93.3372 207.049 93.6145C207.326 93.8918 207.641 94.1105 207.993 94.2705C208.356 94.4198 208.74 94.4945 209.145 94.4945C209.412 94.4945 209.678 94.4572 209.945 94.3825C210.212 94.3078 210.457 94.2065 210.681 94.0785C210.905 93.9505 211.108 93.7958 211.289 93.6145C211.47 93.4225 211.609 93.2145 211.705 92.9905L212.649 93.2465C212.521 93.5558 212.34 93.8385 212.105 94.0945C211.87 94.3398 211.598 94.5585 211.289 94.7505C210.98 94.9318 210.638 95.0705 210.265 95.1665C209.892 95.2732 209.502 95.3265 209.097 95.3265ZM212.169 90.5585C212.137 90.1105 212.03 89.7052 211.849 89.3425C211.678 88.9692 211.454 88.6492 211.177 88.3825C210.91 88.1158 210.596 87.9078 210.233 87.7585C209.881 87.6092 209.502 87.5345 209.097 87.5345C208.692 87.5345 208.308 87.6092 207.945 87.7585C207.582 87.9078 207.262 88.1158 206.985 88.3825C206.718 88.6492 206.5 88.9692 206.329 89.3425C206.169 89.7158 206.073 90.1212 206.041 90.5585H212.169ZM219.048 87.7905C218.312 87.8118 217.672 88.0145 217.128 88.3985C216.584 88.7825 216.2 89.3105 215.976 89.9825V95.1665H214.888V86.8305H215.912V88.8305C216.221 88.1905 216.637 87.6892 217.16 87.3265C217.682 86.9638 218.242 86.7825 218.84 86.7825C218.925 86.7825 218.994 86.7878 219.048 86.7985V87.7905ZM227.505 95.1665H226.417V90.5105C226.417 89.5185 226.268 88.7985 225.969 88.3505C225.681 87.9025 225.233 87.6785 224.625 87.6785C224.305 87.6785 223.985 87.7372 223.665 87.8545C223.345 87.9718 223.046 88.1372 222.769 88.3505C222.502 88.5638 222.262 88.8198 222.049 89.1185C221.836 89.4065 221.681 89.7212 221.585 90.0625V95.1665H220.497V86.8305H221.489V88.7185C221.83 88.1105 222.316 87.6198 222.945 87.2465C223.585 86.8732 224.278 86.6865 225.025 86.6865C225.484 86.6865 225.873 86.7718 226.193 86.9425C226.513 87.1132 226.769 87.3532 226.961 87.6625C227.153 87.9718 227.292 88.3505 227.377 88.7985C227.462 89.2465 227.505 89.7425 227.505 90.2865V95.1665ZM231.921 95.3265C231.526 95.3265 231.158 95.2625 230.817 95.1345C230.486 94.9958 230.193 94.8092 229.937 94.5745C229.692 94.3398 229.5 94.0678 229.361 93.7585C229.222 93.4385 229.153 93.0972 229.153 92.7345C229.153 92.3718 229.238 92.0358 229.409 91.7265C229.58 91.4172 229.82 91.1505 230.129 90.9265C230.438 90.7025 230.806 90.5318 231.233 90.4145C231.66 90.2865 232.129 90.2225 232.641 90.2225C233.068 90.2225 233.5 90.2598 233.937 90.3345C234.374 90.4092 234.764 90.5158 235.105 90.6545V89.9025C235.105 89.1665 234.897 88.5852 234.481 88.1585C234.065 87.7212 233.489 87.5025 232.753 87.5025C232.326 87.5025 231.889 87.5878 231.441 87.7585C230.993 87.9292 230.54 88.1745 230.081 88.4945L229.697 87.7745C230.774 87.0492 231.82 86.6865 232.833 86.6865C233.878 86.6865 234.7 86.9798 235.297 87.5665C235.894 88.1532 236.193 88.9638 236.193 89.9985V93.7585C236.193 94.0572 236.326 94.2065 236.593 94.2065V95.1665C236.412 95.1985 236.273 95.2145 236.177 95.2145C235.9 95.2145 235.681 95.1452 235.521 95.0065C235.372 94.8678 235.292 94.6758 235.281 94.4305L235.249 93.7745C234.865 94.2758 234.38 94.6598 233.793 94.9265C233.217 95.1932 232.593 95.3265 231.921 95.3265ZM232.177 94.4945C232.742 94.4945 233.26 94.3878 233.729 94.1745C234.209 93.9612 234.572 93.6785 234.817 93.3265C234.913 93.2305 234.982 93.1292 235.025 93.0225C235.078 92.9052 235.105 92.7985 235.105 92.7025V91.3425C234.742 91.2038 234.364 91.0972 233.969 91.0225C233.585 90.9478 233.19 90.9105 232.785 90.9105C232.017 90.9105 231.393 91.0705 230.913 91.3905C230.433 91.7105 230.193 92.1318 230.193 92.6545C230.193 92.9105 230.241 93.1505 230.337 93.3745C230.444 93.5985 230.582 93.7958 230.753 93.9665C230.934 94.1265 231.148 94.2545 231.393 94.3505C231.638 94.4465 231.9 94.4945 232.177 94.4945ZM250.944 95.1665H249.856V90.5105C249.856 89.5398 249.701 88.8252 249.392 88.3665C249.082 87.9078 248.624 87.6785 248.016 87.6785C247.696 87.6785 247.392 87.7372 247.104 87.8545C246.826 87.9718 246.565 88.1372 246.32 88.3505C246.085 88.5638 245.877 88.8198 245.696 89.1185C245.514 89.4065 245.376 89.7265 245.28 90.0785V95.1665H244.192V90.5105C244.192 89.5185 244.042 88.7985 243.744 88.3505C243.445 87.9025 242.986 87.6785 242.368 87.6785C241.738 87.6785 241.178 87.8972 240.688 88.3345C240.197 88.7718 239.845 89.3478 239.632 90.0625V95.1665H238.544V86.8305H239.536V88.7185C239.877 88.0785 240.325 87.5825 240.88 87.2305C241.434 86.8678 242.048 86.6865 242.72 86.6865C243.424 86.6865 243.984 86.8838 244.4 87.2785C244.826 87.6732 245.088 88.1905 245.184 88.8305C245.962 87.4012 247.034 86.6865 248.4 86.6865C248.869 86.6865 249.264 86.7718 249.584 86.9425C249.914 87.1132 250.176 87.3585 250.368 87.6785C250.57 87.9878 250.714 88.3665 250.8 88.8145C250.896 89.2518 250.944 89.7425 250.944 90.2865V95.1665ZM256.847 95.3265C256.239 95.3265 255.679 95.2145 255.167 94.9905C254.666 94.7558 254.228 94.4412 253.855 94.0465C253.482 93.6412 253.188 93.1772 252.975 92.6545C252.772 92.1318 252.671 91.5718 252.671 90.9745C252.671 90.3878 252.772 89.8385 252.975 89.3265C253.188 88.8038 253.476 88.3505 253.839 87.9665C254.212 87.5718 254.655 87.2625 255.167 87.0385C255.679 86.8038 256.234 86.6865 256.831 86.6865C257.439 86.6865 257.994 86.8038 258.495 87.0385C259.007 87.2625 259.444 87.5718 259.807 87.9665C260.17 88.3612 260.452 88.8145 260.655 89.3265C260.858 89.8385 260.959 90.3825 260.959 90.9585C260.959 91.0438 260.959 91.1292 260.959 91.2145C260.959 91.2998 260.954 91.3585 260.943 91.3905H253.807C253.839 91.8385 253.94 92.2545 254.111 92.6385C254.292 93.0118 254.522 93.3372 254.799 93.6145C255.076 93.8918 255.391 94.1105 255.743 94.2705C256.106 94.4198 256.49 94.4945 256.895 94.4945C257.162 94.4945 257.428 94.4572 257.695 94.3825C257.962 94.3078 258.207 94.2065 258.431 94.0785C258.655 93.9505 258.858 93.7958 259.039 93.6145C259.22 93.4225 259.359 93.2145 259.455 92.9905L260.399 93.2465C260.271 93.5558 260.09 93.8385 259.855 94.0945C259.62 94.3398 259.348 94.5585 259.039 94.7505C258.73 94.9318 258.388 95.0705 258.015 95.1665C257.642 95.2732 257.252 95.3265 256.847 95.3265ZM259.919 90.5585C259.887 90.1105 259.78 89.7052 259.599 89.3425C259.428 88.9692 259.204 88.6492 258.927 88.3825C258.66 88.1158 258.346 87.9078 257.983 87.7585C257.631 87.6092 257.252 87.5345 256.847 87.5345C256.442 87.5345 256.058 87.6092 255.695 87.7585C255.332 87.9078 255.012 88.1158 254.735 88.3825C254.468 88.6492 254.25 88.9692 254.079 89.3425C253.919 89.7158 253.823 90.1212 253.791 90.5585H259.919Z" fill="white" fill-opacity="0.7"/>
<path d="M202.377 241.431C202.985 241.431 203.555 241.539 204.087 241.754C204.632 241.957 205.1 242.248 205.493 242.628C205.886 243.008 206.196 243.464 206.424 243.996C206.652 244.515 206.766 245.092 206.766 245.725C206.766 246.396 206.639 247.004 206.386 247.549C206.145 248.094 205.816 248.562 205.398 248.955C204.98 249.348 204.486 249.652 203.916 249.867C203.346 250.082 202.738 250.19 202.092 250.19C201.129 250.19 200.262 249.956 199.489 249.487C198.729 249.018 198.153 248.385 197.76 247.587L198.634 246.941C198.976 247.574 199.457 248.081 200.078 248.461C200.699 248.828 201.376 249.012 202.111 249.012C202.58 249.012 203.017 248.936 203.422 248.784C203.827 248.619 204.182 248.398 204.486 248.119C204.79 247.828 205.024 247.479 205.189 247.074C205.366 246.669 205.455 246.225 205.455 245.744C205.455 245.275 205.373 244.851 205.208 244.471C205.043 244.078 204.815 243.743 204.524 243.464C204.233 243.185 203.891 242.97 203.498 242.818C203.105 242.653 202.681 242.571 202.225 242.571C201.63 242.571 201.066 242.704 200.534 242.97C200.015 243.236 199.59 243.61 199.261 244.091H198.045C198.058 244.015 198.089 243.85 198.14 243.597C198.203 243.331 198.273 243.014 198.349 242.647C198.425 242.267 198.507 241.855 198.596 241.412C198.685 240.969 198.773 240.519 198.862 240.063C199.077 238.999 199.312 237.815 199.565 236.51H206.082V237.707H200.534L199.584 242.552C199.913 242.185 200.319 241.906 200.8 241.716C201.281 241.526 201.807 241.431 202.377 241.431ZM214.091 250V236.51H218.67C219.747 236.51 220.684 236.687 221.482 237.042C222.293 237.397 222.964 237.878 223.496 238.486C224.041 239.094 224.446 239.81 224.712 240.633C224.991 241.444 225.13 242.311 225.13 243.236C225.13 244.262 224.978 245.193 224.674 246.029C224.37 246.852 223.933 247.562 223.363 248.157C222.806 248.74 222.128 249.196 221.33 249.525C220.545 249.842 219.658 250 218.67 250H214.091ZM223.8 243.236C223.8 242.425 223.686 241.684 223.458 241.013C223.23 240.329 222.895 239.74 222.451 239.246C222.021 238.752 221.489 238.372 220.855 238.106C220.222 237.827 219.494 237.688 218.67 237.688H215.421V248.822H218.67C219.506 248.822 220.241 248.683 220.874 248.404C221.52 248.113 222.059 247.72 222.489 247.226C222.92 246.719 223.243 246.13 223.458 245.459C223.686 244.775 223.8 244.034 223.8 243.236ZM229.896 250.19C229.428 250.19 228.991 250.114 228.585 249.962C228.193 249.797 227.844 249.576 227.54 249.297C227.249 249.018 227.021 248.695 226.856 248.328C226.692 247.948 226.609 247.543 226.609 247.112C226.609 246.681 226.711 246.282 226.913 245.915C227.116 245.548 227.401 245.231 227.768 244.965C228.136 244.699 228.573 244.496 229.079 244.357C229.586 244.205 230.143 244.129 230.751 244.129C231.258 244.129 231.771 244.173 232.29 244.262C232.81 244.351 233.272 244.477 233.677 244.642V243.749C233.677 242.875 233.43 242.185 232.936 241.678C232.442 241.159 231.758 240.899 230.884 240.899C230.378 240.899 229.858 241 229.326 241.203C228.794 241.406 228.256 241.697 227.711 242.077L227.255 241.222C228.535 240.361 229.776 239.93 230.979 239.93C232.221 239.93 233.196 240.278 233.905 240.975C234.615 241.672 234.969 242.634 234.969 243.863V248.328C234.969 248.683 235.128 248.86 235.444 248.86V250C235.229 250.038 235.064 250.057 234.95 250.057C234.621 250.057 234.361 249.975 234.171 249.81C233.994 249.645 233.899 249.417 233.886 249.126L233.848 248.347C233.392 248.942 232.816 249.398 232.119 249.715C231.435 250.032 230.694 250.19 229.896 250.19ZM230.2 249.202C230.872 249.202 231.486 249.075 232.043 248.822C232.613 248.569 233.044 248.233 233.335 247.815C233.449 247.701 233.532 247.581 233.582 247.454C233.646 247.315 233.677 247.188 233.677 247.074V245.459C233.247 245.294 232.797 245.168 232.328 245.079C231.872 244.99 231.404 244.946 230.922 244.946C230.01 244.946 229.269 245.136 228.699 245.516C228.129 245.896 227.844 246.396 227.844 247.017C227.844 247.321 227.901 247.606 228.015 247.872C228.142 248.138 228.307 248.372 228.509 248.575C228.725 248.765 228.978 248.917 229.269 249.031C229.561 249.145 229.871 249.202 230.2 249.202ZM238.09 253.04C238.191 253.053 238.286 253.059 238.375 253.059C238.476 253.072 238.571 253.078 238.66 253.078C238.888 253.078 239.065 253.046 239.192 252.983C239.331 252.92 239.464 252.78 239.591 252.565C239.717 252.35 239.857 252.039 240.009 251.634C240.173 251.229 240.401 250.684 240.693 250L236.38 240.101H237.71L241.377 248.803L244.778 240.101H246.013L240.883 252.869C240.743 253.236 240.509 253.553 240.18 253.819C239.863 254.098 239.426 254.237 238.869 254.237C238.742 254.237 238.622 254.231 238.508 254.218C238.394 254.218 238.254 254.205 238.09 254.18V253.04ZM250.882 250.19C250.109 250.19 249.356 250.063 248.621 249.81C247.886 249.557 247.253 249.189 246.721 248.708L247.31 247.834C247.867 248.29 248.431 248.632 249.001 248.86C249.584 249.088 250.204 249.202 250.863 249.202C251.661 249.202 252.294 249.044 252.763 248.727C253.244 248.398 253.485 247.935 253.485 247.34C253.485 247.061 253.422 246.833 253.295 246.656C253.168 246.466 252.978 246.301 252.725 246.162C252.484 246.023 252.174 245.902 251.794 245.801C251.427 245.687 250.996 245.573 250.502 245.459C249.932 245.32 249.438 245.18 249.02 245.041C248.602 244.902 248.254 244.743 247.975 244.566C247.709 244.389 247.506 244.173 247.367 243.92C247.24 243.654 247.177 243.325 247.177 242.932C247.177 242.438 247.272 242.001 247.462 241.621C247.665 241.241 247.931 240.931 248.26 240.69C248.602 240.437 248.995 240.247 249.438 240.12C249.894 239.993 250.375 239.93 250.882 239.93C251.642 239.93 252.332 240.057 252.953 240.31C253.574 240.551 254.074 240.874 254.454 241.279L253.827 242.039C253.46 241.659 253.01 241.374 252.478 241.184C251.959 240.994 251.414 240.899 250.844 240.899C250.502 240.899 250.185 240.937 249.894 241.013C249.603 241.076 249.343 241.184 249.115 241.336C248.9 241.488 248.729 241.684 248.602 241.925C248.475 242.153 248.412 242.425 248.412 242.742C248.412 243.008 248.456 243.223 248.545 243.388C248.634 243.553 248.779 243.698 248.982 243.825C249.185 243.939 249.438 244.047 249.742 244.148C250.059 244.237 250.439 244.332 250.882 244.433C251.515 244.585 252.073 244.737 252.554 244.889C253.035 245.041 253.434 245.218 253.751 245.421C254.08 245.624 254.327 245.871 254.492 246.162C254.657 246.453 254.739 246.808 254.739 247.226C254.739 248.138 254.391 248.86 253.694 249.392C252.997 249.924 252.06 250.19 250.882 250.19ZM264.185 250.19C263.717 250.19 263.28 250.114 262.874 249.962C262.482 249.797 262.133 249.576 261.829 249.297C261.538 249.018 261.31 248.695 261.145 248.328C260.981 247.948 260.898 247.543 260.898 247.112C260.898 246.681 261 246.282 261.202 245.915C261.405 245.548 261.69 245.231 262.057 244.965C262.425 244.699 262.862 244.496 263.368 244.357C263.875 244.205 264.432 244.129 265.04 244.129C265.547 244.129 266.06 244.173 266.579 244.262C267.099 244.351 267.561 244.477 267.966 244.642V243.749C267.966 242.875 267.719 242.185 267.225 241.678C266.731 241.159 266.047 240.899 265.173 240.899C264.667 240.899 264.147 241 263.615 241.203C263.083 241.406 262.545 241.697 262 242.077L261.544 241.222C262.824 240.361 264.065 239.93 265.268 239.93C266.51 239.93 267.485 240.278 268.194 240.975C268.904 241.672 269.258 242.634 269.258 243.863V248.328C269.258 248.683 269.417 248.86 269.733 248.86V250C269.518 250.038 269.353 250.057 269.239 250.057C268.91 250.057 268.65 249.975 268.46 249.81C268.283 249.645 268.188 249.417 268.175 249.126L268.137 248.347C267.681 248.942 267.105 249.398 266.408 249.715C265.724 250.032 264.983 250.19 264.185 250.19ZM264.489 249.202C265.161 249.202 265.775 249.075 266.332 248.822C266.902 248.569 267.333 248.233 267.624 247.815C267.738 247.701 267.821 247.581 267.871 247.454C267.935 247.315 267.966 247.188 267.966 247.074V245.459C267.536 245.294 267.086 245.168 266.617 245.079C266.161 244.99 265.693 244.946 265.211 244.946C264.299 244.946 263.558 245.136 262.988 245.516C262.418 245.896 262.133 246.396 262.133 247.017C262.133 247.321 262.19 247.606 262.304 247.872C262.431 248.138 262.596 248.372 262.798 248.575C263.014 248.765 263.267 248.917 263.558 249.031C263.85 249.145 264.16 249.202 264.489 249.202ZM280.372 250H279.08V244.471C279.08 243.293 278.903 242.438 278.548 241.906C278.206 241.374 277.674 241.108 276.952 241.108C276.572 241.108 276.192 241.178 275.812 241.317C275.432 241.456 275.077 241.653 274.748 241.906C274.431 242.159 274.146 242.463 273.893 242.818C273.64 243.16 273.456 243.534 273.342 243.939V250H272.05V240.101H273.228V242.343C273.633 241.621 274.21 241.038 274.957 240.595C275.717 240.152 276.54 239.93 277.427 239.93C277.972 239.93 278.434 240.031 278.814 240.234C279.194 240.437 279.498 240.722 279.726 241.089C279.954 241.456 280.119 241.906 280.22 242.438C280.321 242.97 280.372 243.559 280.372 244.205V250ZM287.193 250.19C286.509 250.19 285.876 250.051 285.293 249.772C284.71 249.481 284.21 249.101 283.792 248.632C283.374 248.163 283.045 247.625 282.804 247.017C282.576 246.396 282.462 245.75 282.462 245.079C282.462 244.382 282.576 243.724 282.804 243.103C283.032 242.47 283.342 241.919 283.735 241.45C284.14 240.981 284.615 240.614 285.16 240.348C285.717 240.069 286.325 239.93 286.984 239.93C287.82 239.93 288.561 240.152 289.207 240.595C289.853 241.026 290.36 241.551 290.727 242.172V236.13H292.019V248.328C292.019 248.683 292.171 248.86 292.475 248.86V250C292.285 250.038 292.133 250.057 292.019 250.057C291.715 250.057 291.449 249.962 291.221 249.772C290.993 249.569 290.879 249.329 290.879 249.05V248.081C290.486 248.727 289.954 249.24 289.283 249.62C288.612 250 287.915 250.19 287.193 250.19ZM287.478 249.05C287.795 249.05 288.13 248.987 288.485 248.86C288.852 248.733 289.194 248.562 289.511 248.347C289.828 248.119 290.094 247.859 290.309 247.568C290.537 247.264 290.676 246.941 290.727 246.599V243.54C290.6 243.198 290.417 242.881 290.176 242.59C289.935 242.286 289.657 242.02 289.34 241.792C289.036 241.564 288.707 241.387 288.352 241.26C287.997 241.133 287.649 241.07 287.307 241.07C286.775 241.07 286.294 241.184 285.863 241.412C285.432 241.64 285.059 241.944 284.742 242.324C284.438 242.691 284.204 243.116 284.039 243.597C283.874 244.078 283.792 244.572 283.792 245.079C283.792 245.611 283.887 246.118 284.077 246.599C284.267 247.08 284.527 247.505 284.856 247.872C285.185 248.227 285.572 248.512 286.015 248.727C286.471 248.942 286.959 249.05 287.478 249.05ZM303.741 241.431C304.349 241.431 304.919 241.539 305.451 241.754C305.996 241.957 306.465 242.248 306.857 242.628C307.25 243.008 307.56 243.464 307.788 243.996C308.016 244.515 308.13 245.092 308.13 245.725C308.13 246.396 308.004 247.004 307.75 247.549C307.51 248.094 307.18 248.562 306.762 248.955C306.344 249.348 305.85 249.652 305.28 249.867C304.71 250.082 304.102 250.19 303.456 250.19C302.494 250.19 301.626 249.956 300.853 249.487C300.093 249.018 299.517 248.385 299.124 247.587L299.998 246.941C300.34 247.574 300.822 248.081 301.442 248.461C302.063 248.828 302.741 249.012 303.475 249.012C303.944 249.012 304.381 248.936 304.786 248.784C305.192 248.619 305.546 248.398 305.85 248.119C306.154 247.828 306.389 247.479 306.553 247.074C306.731 246.669 306.819 246.225 306.819 245.744C306.819 245.275 306.737 244.851 306.572 244.471C306.408 244.078 306.18 243.743 305.888 243.464C305.597 243.185 305.255 242.97 304.862 242.818C304.47 242.653 304.045 242.571 303.589 242.571C302.994 242.571 302.43 242.704 301.898 242.97C301.379 243.236 300.955 243.61 300.625 244.091H299.409C299.422 244.015 299.454 243.85 299.504 243.597C299.568 243.331 299.637 243.014 299.713 242.647C299.789 242.267 299.872 241.855 299.96 241.412C300.049 240.969 300.138 240.519 300.226 240.063C300.442 238.999 300.676 237.815 300.929 236.51H307.446V237.707H301.898L300.948 242.552C301.278 242.185 301.683 241.906 302.164 241.716C302.646 241.526 303.171 241.431 303.741 241.431ZM324.494 237.688H319.687V250H318.357V237.688H313.55V236.51H324.494V237.688ZM329.092 241.241C328.218 241.266 327.458 241.507 326.812 241.963C326.166 242.419 325.71 243.046 325.444 243.844V250H324.152V240.101H325.368V242.476C325.735 241.716 326.229 241.121 326.85 240.69C327.47 240.259 328.135 240.044 328.845 240.044C328.946 240.044 329.028 240.05 329.092 240.063V241.241ZM333.172 250.19C332.703 250.19 332.266 250.114 331.861 249.962C331.468 249.797 331.12 249.576 330.816 249.297C330.524 249.018 330.296 248.695 330.132 248.328C329.967 247.948 329.885 247.543 329.885 247.112C329.885 246.681 329.986 246.282 330.189 245.915C330.391 245.548 330.676 245.231 331.044 244.965C331.411 244.699 331.848 244.496 332.355 244.357C332.861 244.205 333.419 244.129 334.027 244.129C334.533 244.129 335.046 244.173 335.566 244.262C336.085 244.351 336.547 244.477 336.953 244.642V243.749C336.953 242.875 336.706 242.185 336.212 241.678C335.718 241.159 335.034 240.899 334.16 240.899C333.653 240.899 333.134 241 332.602 241.203C332.07 241.406 331.531 241.697 330.987 242.077L330.531 241.222C331.81 240.361 333.051 239.93 334.255 239.93C335.496 239.93 336.471 240.278 337.181 240.975C337.89 241.672 338.245 242.634 338.245 243.863V248.328C338.245 248.683 338.403 248.86 338.72 248.86V250C338.504 250.038 338.34 250.057 338.226 250.057C337.896 250.057 337.637 249.975 337.447 249.81C337.269 249.645 337.174 249.417 337.162 249.126L337.124 248.347C336.668 248.942 336.091 249.398 335.395 249.715C334.711 250.032 333.97 250.19 333.172 250.19ZM333.476 249.202C334.147 249.202 334.761 249.075 335.319 248.822C335.889 248.569 336.319 248.233 336.611 247.815C336.725 247.701 336.807 247.581 336.858 247.454C336.921 247.315 336.953 247.188 336.953 247.074V245.459C336.522 245.294 336.072 245.168 335.604 245.079C335.148 244.99 334.679 244.946 334.198 244.946C333.286 244.946 332.545 245.136 331.975 245.516C331.405 245.896 331.12 246.396 331.12 247.017C331.12 247.321 331.177 247.606 331.291 247.872C331.417 248.138 331.582 248.372 331.785 248.575C332 248.765 332.253 248.917 332.545 249.031C332.836 249.145 333.146 249.202 333.476 249.202ZM340.352 245.022C340.352 244.325 340.473 243.667 340.713 243.046C340.954 242.425 341.29 241.887 341.72 241.431C342.164 240.962 342.689 240.595 343.297 240.329C343.905 240.063 344.577 239.93 345.311 239.93C346.249 239.93 347.066 240.145 347.762 240.576C348.459 240.994 348.985 241.564 349.339 242.286L348.085 242.685C347.807 242.178 347.414 241.786 346.907 241.507C346.413 241.216 345.862 241.07 345.254 241.07C344.748 241.07 344.273 241.171 343.829 241.374C343.399 241.577 343.019 241.855 342.689 242.21C342.373 242.552 342.119 242.964 341.929 243.445C341.752 243.926 341.663 244.452 341.663 245.022C341.663 245.579 341.758 246.105 341.948 246.599C342.138 247.093 342.398 247.524 342.727 247.891C343.057 248.246 343.437 248.531 343.867 248.746C344.311 248.949 344.779 249.05 345.273 249.05C345.59 249.05 345.9 249.006 346.204 248.917C346.521 248.828 346.812 248.708 347.078 248.556C347.344 248.391 347.572 248.208 347.762 248.005C347.952 247.802 348.085 247.587 348.161 247.359L349.434 247.739C349.295 248.094 349.092 248.423 348.826 248.727C348.56 249.018 348.244 249.278 347.876 249.506C347.522 249.721 347.123 249.886 346.679 250C346.249 250.127 345.799 250.19 345.33 250.19C344.608 250.19 343.943 250.057 343.335 249.791C342.727 249.512 342.202 249.139 341.758 248.67C341.315 248.189 340.967 247.638 340.713 247.017C340.473 246.396 340.352 245.731 340.352 245.022ZM358.532 250L354.884 244.927L352.756 246.903V250H351.464V236.13H352.756V245.554L358.323 240.12H359.786L355.739 244.167L359.938 250H358.532ZM364.826 250.19C364.054 250.19 363.3 250.063 362.565 249.81C361.831 249.557 361.197 249.189 360.665 248.708L361.254 247.834C361.812 248.29 362.375 248.632 362.945 248.86C363.528 249.088 364.149 249.202 364.807 249.202C365.605 249.202 366.239 249.044 366.707 248.727C367.189 248.398 367.429 247.935 367.429 247.34C367.429 247.061 367.366 246.833 367.239 246.656C367.113 246.466 366.923 246.301 366.669 246.162C366.429 246.023 366.118 245.902 365.738 245.801C365.371 245.687 364.94 245.573 364.446 245.459C363.876 245.32 363.382 245.18 362.964 245.041C362.546 244.902 362.198 244.743 361.919 244.566C361.653 244.389 361.451 244.173 361.311 243.92C361.185 243.654 361.121 243.325 361.121 242.932C361.121 242.438 361.216 242.001 361.406 241.621C361.609 241.241 361.875 240.931 362.204 240.69C362.546 240.437 362.939 240.247 363.382 240.12C363.838 239.993 364.32 239.93 364.826 239.93C365.586 239.93 366.277 240.057 366.897 240.31C367.518 240.551 368.018 240.874 368.398 241.279L367.771 242.039C367.404 241.659 366.954 241.374 366.422 241.184C365.903 240.994 365.358 240.899 364.788 240.899C364.446 240.899 364.13 240.937 363.838 241.013C363.547 241.076 363.287 241.184 363.059 241.336C362.844 241.488 362.673 241.684 362.546 241.925C362.42 242.153 362.356 242.425 362.356 242.742C362.356 243.008 362.401 243.223 362.489 243.388C362.578 243.553 362.724 243.698 362.926 243.825C363.129 243.939 363.382 244.047 363.686 244.148C364.003 244.237 364.383 244.332 364.826 244.433C365.46 244.585 366.017 244.737 366.498 244.889C366.98 245.041 367.379 245.218 367.695 245.421C368.025 245.624 368.272 245.871 368.436 246.162C368.601 246.453 368.683 246.808 368.683 247.226C368.683 248.138 368.335 248.86 367.638 249.392C366.942 249.924 366.004 250.19 364.826 250.19ZM374.957 245.022C374.957 244.325 375.077 243.667 375.318 243.046C375.558 242.425 375.894 241.887 376.325 241.431C376.768 240.962 377.294 240.595 377.902 240.329C378.51 240.063 379.181 239.93 379.916 239.93C380.853 239.93 381.67 240.145 382.367 240.576C383.063 240.994 383.589 241.564 383.944 242.286L382.69 242.685C382.411 242.178 382.018 241.786 381.512 241.507C381.018 241.216 380.467 241.07 379.859 241.07C379.352 241.07 378.877 241.171 378.434 241.374C378.003 241.577 377.623 241.855 377.294 242.21C376.977 242.552 376.724 242.964 376.534 243.445C376.356 243.926 376.268 244.452 376.268 245.022C376.268 245.579 376.363 246.105 376.553 246.599C376.743 247.093 377.002 247.524 377.332 247.891C377.661 248.246 378.041 248.531 378.472 248.746C378.915 248.949 379.384 249.05 379.878 249.05C380.194 249.05 380.505 249.006 380.809 248.917C381.125 248.828 381.417 248.708 381.683 248.556C381.949 248.391 382.177 248.208 382.367 248.005C382.557 247.802 382.69 247.587 382.766 247.359L384.039 247.739C383.899 248.094 383.697 248.423 383.431 248.727C383.165 249.018 382.848 249.278 382.481 249.506C382.126 249.721 381.727 249.886 381.284 250C380.853 250.127 380.403 250.19 379.935 250.19C379.213 250.19 378.548 250.057 377.94 249.791C377.332 249.512 376.806 249.139 376.363 248.67C375.919 248.189 375.571 247.638 375.318 247.017C375.077 246.396 374.957 245.731 374.957 245.022ZM390.194 250.19C389.472 250.19 388.813 250.057 388.218 249.791C387.622 249.512 387.103 249.139 386.66 248.67C386.229 248.201 385.893 247.657 385.653 247.036C385.412 246.415 385.292 245.763 385.292 245.079C385.292 244.382 385.412 243.724 385.653 243.103C385.906 242.482 386.248 241.938 386.679 241.469C387.122 241 387.641 240.627 388.237 240.348C388.832 240.069 389.484 239.93 390.194 239.93C390.903 239.93 391.555 240.069 392.151 240.348C392.759 240.627 393.278 241 393.709 241.469C394.152 241.938 394.494 242.482 394.735 243.103C394.988 243.724 395.115 244.382 395.115 245.079C395.115 245.763 394.994 246.415 394.754 247.036C394.513 247.657 394.171 248.201 393.728 248.67C393.297 249.139 392.778 249.512 392.17 249.791C391.574 250.057 390.916 250.19 390.194 250.19ZM386.603 245.098C386.603 245.655 386.698 246.175 386.888 246.656C387.078 247.125 387.331 247.543 387.648 247.91C387.977 248.265 388.357 248.543 388.788 248.746C389.231 248.949 389.7 249.05 390.194 249.05C390.688 249.05 391.15 248.949 391.581 248.746C392.024 248.531 392.41 248.246 392.74 247.891C393.069 247.524 393.329 247.099 393.519 246.618C393.709 246.137 393.804 245.617 393.804 245.06C393.804 244.515 393.709 244.002 393.519 243.521C393.329 243.027 393.069 242.603 392.74 242.248C392.41 241.881 392.024 241.596 391.581 241.393C391.15 241.178 390.688 241.07 390.194 241.07C389.7 241.07 389.237 241.178 388.807 241.393C388.376 241.596 387.996 241.881 387.667 242.248C387.337 242.615 387.078 243.046 386.888 243.54C386.698 244.021 386.603 244.541 386.603 245.098ZM399.887 250L395.859 240.101H397.189L400.59 248.803L404.01 240.101H405.264L401.236 250H399.887ZM410.995 250.19C410.273 250.19 409.608 250.057 409 249.791C408.405 249.512 407.885 249.139 407.442 248.67C406.999 248.189 406.65 247.638 406.397 247.017C406.156 246.396 406.036 245.731 406.036 245.022C406.036 244.325 406.156 243.673 406.397 243.065C406.65 242.444 406.992 241.906 407.423 241.45C407.866 240.981 408.392 240.614 409 240.348C409.608 240.069 410.267 239.93 410.976 239.93C411.698 239.93 412.357 240.069 412.952 240.348C413.56 240.614 414.079 240.981 414.51 241.45C414.941 241.919 415.276 242.457 415.517 243.065C415.758 243.673 415.878 244.319 415.878 245.003C415.878 245.104 415.878 245.206 415.878 245.307C415.878 245.408 415.872 245.478 415.859 245.516H407.385C407.423 246.048 407.543 246.542 407.746 246.998C407.961 247.441 408.234 247.828 408.563 248.157C408.892 248.486 409.266 248.746 409.684 248.936C410.115 249.113 410.571 249.202 411.052 249.202C411.369 249.202 411.685 249.158 412.002 249.069C412.319 248.98 412.61 248.86 412.876 248.708C413.142 248.556 413.383 248.372 413.598 248.157C413.813 247.929 413.978 247.682 414.092 247.416L415.213 247.72C415.061 248.087 414.846 248.423 414.567 248.727C414.288 249.018 413.965 249.278 413.598 249.506C413.231 249.721 412.825 249.886 412.382 250C411.939 250.127 411.476 250.19 410.995 250.19ZM414.643 244.528C414.605 243.996 414.478 243.515 414.263 243.084C414.06 242.641 413.794 242.261 413.465 241.944C413.148 241.627 412.775 241.38 412.344 241.203C411.926 241.026 411.476 240.937 410.995 240.937C410.514 240.937 410.058 241.026 409.627 241.203C409.196 241.38 408.816 241.627 408.487 241.944C408.17 242.261 407.911 242.641 407.708 243.084C407.518 243.527 407.404 244.009 407.366 244.528H414.643ZM422.811 241.241C421.937 241.266 421.177 241.507 420.531 241.963C419.885 242.419 419.429 243.046 419.163 243.844V250H417.871V240.101H419.087V242.476C419.455 241.716 419.949 241.121 420.569 240.69C421.19 240.259 421.855 240.044 422.564 240.044C422.666 240.044 422.748 240.05 422.811 240.063V241.241ZM424.532 250V240.101H425.824V250H424.532ZM424.532 238.03V236.13H425.824V238.03H424.532ZM436.992 250H435.7V244.471C435.7 243.293 435.523 242.438 435.168 241.906C434.826 241.374 434.294 241.108 433.572 241.108C433.192 241.108 432.812 241.178 432.432 241.317C432.052 241.456 431.697 241.653 431.368 241.906C431.051 242.159 430.766 242.463 430.513 242.818C430.26 243.16 430.076 243.534 429.962 243.939V250H428.67V240.101H429.848V242.343C430.253 241.621 430.83 241.038 431.577 240.595C432.337 240.152 433.16 239.93 434.047 239.93C434.592 239.93 435.054 240.031 435.434 240.234C435.814 240.437 436.118 240.722 436.346 241.089C436.574 241.456 436.739 241.906 436.84 242.438C436.941 242.97 436.992 243.559 436.992 244.205V250ZM443.718 250.133C443.034 250.133 442.407 249.994 441.837 249.715C441.28 249.424 440.792 249.044 440.374 248.575C439.969 248.106 439.652 247.568 439.424 246.96C439.196 246.352 439.082 245.725 439.082 245.079C439.082 244.395 439.19 243.743 439.405 243.122C439.633 242.489 439.95 241.938 440.355 241.469C440.761 241 441.242 240.627 441.799 240.348C442.369 240.069 442.996 239.93 443.68 239.93C444.529 239.93 445.264 240.145 445.884 240.576C446.505 240.994 447.037 241.526 447.48 242.172V240.101H448.639V250.038C448.639 250.722 448.506 251.324 448.24 251.843C447.987 252.375 447.639 252.818 447.195 253.173C446.765 253.528 446.252 253.794 445.656 253.971C445.074 254.148 444.453 254.237 443.794 254.237C442.654 254.237 441.736 254.034 441.039 253.629C440.343 253.224 439.779 252.679 439.348 251.995L440.146 251.368C440.539 252.001 441.058 252.464 441.704 252.755C442.35 253.059 443.047 253.211 443.794 253.211C444.276 253.211 444.732 253.141 445.162 253.002C445.593 252.875 445.967 252.679 446.283 252.413C446.613 252.16 446.872 251.83 447.062 251.425C447.252 251.032 447.347 250.57 447.347 250.038V248.081C446.967 248.714 446.448 249.215 445.789 249.582C445.131 249.949 444.44 250.133 443.718 250.133ZM444.079 249.05C444.459 249.05 444.833 248.98 445.2 248.841C445.568 248.702 445.897 248.518 446.188 248.29C446.492 248.049 446.746 247.783 446.948 247.492C447.151 247.201 447.284 246.903 447.347 246.599V243.54C447.208 243.185 447.018 242.856 446.777 242.552C446.537 242.248 446.264 241.988 445.96 241.773C445.656 241.558 445.327 241.387 444.972 241.26C444.63 241.133 444.282 241.07 443.927 241.07C443.37 241.07 442.87 241.19 442.426 241.431C441.996 241.659 441.628 241.963 441.324 242.343C441.02 242.723 440.786 243.154 440.621 243.635C440.469 244.116 440.393 244.604 440.393 245.098C440.393 245.63 440.488 246.137 440.678 246.618C440.868 247.099 441.128 247.524 441.457 247.891C441.799 248.246 442.192 248.531 442.635 248.746C443.079 248.949 443.56 249.05 444.079 249.05ZM206.747 275H205.455V269.471C205.455 268.344 205.259 267.501 204.866 266.944C204.486 266.387 203.922 266.108 203.175 266.108C202.808 266.108 202.44 266.184 202.073 266.336C201.718 266.475 201.383 266.672 201.066 266.925C200.749 267.178 200.471 267.476 200.23 267.818C200.002 268.16 199.831 268.534 199.717 268.939V275H198.425V261.13H199.717V267.343C200.11 266.596 200.654 266.007 201.351 265.576C202.048 265.145 202.801 264.93 203.612 264.93C204.182 264.93 204.663 265.038 205.056 265.253C205.449 265.456 205.772 265.747 206.025 266.127C206.278 266.494 206.462 266.944 206.576 267.476C206.69 267.995 206.747 268.572 206.747 269.205V275ZM213.72 275.19C212.998 275.19 212.339 275.057 211.744 274.791C211.149 274.512 210.629 274.139 210.186 273.67C209.755 273.201 209.42 272.657 209.179 272.036C208.938 271.415 208.818 270.763 208.818 270.079C208.818 269.382 208.938 268.724 209.179 268.103C209.432 267.482 209.774 266.938 210.205 266.469C210.648 266 211.168 265.627 211.763 265.348C212.358 265.069 213.011 264.93 213.72 264.93C214.429 264.93 215.082 265.069 215.677 265.348C216.285 265.627 216.804 266 217.235 266.469C217.678 266.938 218.02 267.482 218.261 268.103C218.514 268.724 218.641 269.382 218.641 270.079C218.641 270.763 218.521 271.415 218.28 272.036C218.039 272.657 217.697 273.201 217.254 273.67C216.823 274.139 216.304 274.512 215.696 274.791C215.101 275.057 214.442 275.19 213.72 275.19ZM210.129 270.098C210.129 270.655 210.224 271.175 210.414 271.656C210.604 272.125 210.857 272.543 211.174 272.91C211.503 273.265 211.883 273.543 212.314 273.746C212.757 273.949 213.226 274.05 213.72 274.05C214.214 274.05 214.676 273.949 215.107 273.746C215.55 273.531 215.937 273.246 216.266 272.891C216.595 272.524 216.855 272.099 217.045 271.618C217.235 271.137 217.33 270.617 217.33 270.06C217.33 269.515 217.235 269.002 217.045 268.521C216.855 268.027 216.595 267.603 216.266 267.248C215.937 266.881 215.55 266.596 215.107 266.393C214.676 266.178 214.214 266.07 213.72 266.07C213.226 266.07 212.764 266.178 212.333 266.393C211.902 266.596 211.522 266.881 211.193 267.248C210.864 267.615 210.604 268.046 210.414 268.54C210.224 269.021 210.129 269.541 210.129 270.098ZM225.422 274.525C225.346 274.563 225.232 274.614 225.08 274.677C224.941 274.74 224.776 274.804 224.586 274.867C224.396 274.93 224.181 274.987 223.94 275.038C223.699 275.089 223.446 275.114 223.18 275.114C222.901 275.114 222.635 275.076 222.382 275C222.129 274.924 221.907 274.81 221.717 274.658C221.527 274.493 221.375 274.291 221.261 274.05C221.147 273.809 221.09 273.531 221.09 273.214V266.127H219.722V265.101H221.09V261.757H222.382V265.101H224.662V266.127H222.382V272.853C222.407 273.22 222.534 273.493 222.762 273.67C223.003 273.835 223.275 273.917 223.579 273.917C223.946 273.917 224.269 273.86 224.548 273.746C224.827 273.619 225.004 273.531 225.08 273.48L225.422 274.525ZM231.786 274.525C231.71 274.563 231.596 274.614 231.444 274.677C231.305 274.74 231.14 274.804 230.95 274.867C230.76 274.93 230.545 274.987 230.304 275.038C230.064 275.089 229.81 275.114 229.544 275.114C229.266 275.114 229 275.076 228.746 275C228.493 274.924 228.271 274.81 228.081 274.658C227.891 274.493 227.739 274.291 227.625 274.05C227.511 273.809 227.454 273.531 227.454 273.214V266.127H226.086V265.101H227.454V261.757H228.746V265.101H231.026V266.127H228.746V272.853C228.772 273.22 228.898 273.493 229.126 273.67C229.367 273.835 229.639 273.917 229.943 273.917C230.311 273.917 230.634 273.86 230.912 273.746C231.191 273.619 231.368 273.531 231.444 273.48L231.786 274.525ZM237.434 275.19C236.712 275.19 236.047 275.057 235.439 274.791C234.844 274.512 234.325 274.139 233.881 273.67C233.438 273.189 233.09 272.638 232.836 272.017C232.596 271.396 232.475 270.731 232.475 270.022C232.475 269.325 232.596 268.673 232.836 268.065C233.09 267.444 233.432 266.906 233.862 266.45C234.306 265.981 234.831 265.614 235.439 265.348C236.047 265.069 236.706 264.93 237.415 264.93C238.137 264.93 238.796 265.069 239.391 265.348C239.999 265.614 240.519 265.981 240.949 266.45C241.38 266.919 241.716 267.457 241.956 268.065C242.197 268.673 242.317 269.319 242.317 270.003C242.317 270.104 242.317 270.206 242.317 270.307C242.317 270.408 242.311 270.478 242.298 270.516H233.824C233.862 271.048 233.983 271.542 234.185 271.998C234.401 272.441 234.673 272.828 235.002 273.157C235.332 273.486 235.705 273.746 236.123 273.936C236.554 274.113 237.01 274.202 237.491 274.202C237.808 274.202 238.125 274.158 238.441 274.069C238.758 273.98 239.049 273.86 239.315 273.708C239.581 273.556 239.822 273.372 240.037 273.157C240.253 272.929 240.417 272.682 240.531 272.416L241.652 272.72C241.5 273.087 241.285 273.423 241.006 273.727C240.728 274.018 240.405 274.278 240.037 274.506C239.67 274.721 239.265 274.886 238.821 275C238.378 275.127 237.916 275.19 237.434 275.19ZM241.082 269.528C241.044 268.996 240.918 268.515 240.702 268.084C240.5 267.641 240.234 267.261 239.904 266.944C239.588 266.627 239.214 266.38 238.783 266.203C238.365 266.026 237.916 265.937 237.434 265.937C236.953 265.937 236.497 266.026 236.066 266.203C235.636 266.38 235.256 266.627 234.926 266.944C234.61 267.261 234.35 267.641 234.147 268.084C233.957 268.527 233.843 269.009 233.805 269.528H241.082ZM247.598 275.19C246.825 275.19 246.071 275.063 245.337 274.81C244.602 274.557 243.969 274.189 243.437 273.708L244.026 272.834C244.583 273.29 245.147 273.632 245.717 273.86C246.299 274.088 246.92 274.202 247.579 274.202C248.377 274.202 249.01 274.044 249.479 273.727C249.96 273.398 250.201 272.935 250.201 272.34C250.201 272.061 250.137 271.833 250.011 271.656C249.884 271.466 249.694 271.301 249.441 271.162C249.2 271.023 248.89 270.902 248.51 270.801C248.142 270.687 247.712 270.573 247.218 270.459C246.648 270.32 246.154 270.18 245.736 270.041C245.318 269.902 244.969 269.743 244.691 269.566C244.425 269.389 244.222 269.173 244.083 268.92C243.956 268.654 243.893 268.325 243.893 267.932C243.893 267.438 243.988 267.001 244.178 266.621C244.38 266.241 244.646 265.931 244.976 265.69C245.318 265.437 245.71 265.247 246.154 265.12C246.61 264.993 247.091 264.93 247.598 264.93C248.358 264.93 249.048 265.057 249.669 265.31C250.289 265.551 250.79 265.874 251.17 266.279L250.543 267.039C250.175 266.659 249.726 266.374 249.194 266.184C248.674 265.994 248.13 265.899 247.56 265.899C247.218 265.899 246.901 265.937 246.61 266.013C246.318 266.076 246.059 266.184 245.831 266.336C245.615 266.488 245.444 266.684 245.318 266.925C245.191 267.153 245.128 267.425 245.128 267.742C245.128 268.008 245.172 268.223 245.261 268.388C245.349 268.553 245.495 268.698 245.698 268.825C245.9 268.939 246.154 269.047 246.458 269.148C246.774 269.237 247.154 269.332 247.598 269.433C248.231 269.585 248.788 269.737 249.27 269.889C249.751 270.041 250.15 270.218 250.467 270.421C250.796 270.624 251.043 270.871 251.208 271.162C251.372 271.453 251.455 271.808 251.455 272.226C251.455 273.138 251.106 273.86 250.41 274.392C249.713 274.924 248.776 275.19 247.598 275.19ZM258.32 274.525C258.244 274.563 258.13 274.614 257.978 274.677C257.838 274.74 257.674 274.804 257.484 274.867C257.294 274.93 257.078 274.987 256.838 275.038C256.597 275.089 256.344 275.114 256.078 275.114C255.799 275.114 255.533 275.076 255.28 275C255.026 274.924 254.805 274.81 254.615 274.658C254.425 274.493 254.273 274.291 254.159 274.05C254.045 273.809 253.988 273.531 253.988 273.214V266.127H252.62V265.101H253.988V261.757H255.28V265.101H257.56V266.127H255.28V272.853C255.305 273.22 255.432 273.493 255.66 273.67C255.9 273.835 256.173 273.917 256.477 273.917C256.844 273.917 257.167 273.86 257.446 273.746C257.724 273.619 257.902 273.531 257.978 273.48L258.32 274.525ZM274.08 262.688H269.273V275H267.943V262.688H263.136V261.51H274.08V262.688ZM277.939 275.19C277.217 275.19 276.552 275.057 275.944 274.791C275.349 274.512 274.83 274.139 274.386 273.67C273.943 273.189 273.595 272.638 273.341 272.017C273.101 271.396 272.98 270.731 272.98 270.022C272.98 269.325 273.101 268.673 273.341 268.065C273.595 267.444 273.937 266.906 274.367 266.45C274.811 265.981 275.336 265.614 275.944 265.348C276.552 265.069 277.211 264.93 277.92 264.93C278.642 264.93 279.301 265.069 279.896 265.348C280.504 265.614 281.024 265.981 281.454 266.45C281.885 266.919 282.221 267.457 282.461 268.065C282.702 268.673 282.822 269.319 282.822 270.003C282.822 270.104 282.822 270.206 282.822 270.307C282.822 270.408 282.816 270.478 282.803 270.516H274.329C274.367 271.048 274.488 271.542 274.69 271.998C274.906 272.441 275.178 272.828 275.507 273.157C275.837 273.486 276.21 273.746 276.628 273.936C277.059 274.113 277.515 274.202 277.996 274.202C278.313 274.202 278.63 274.158 278.946 274.069C279.263 273.98 279.554 273.86 279.82 273.708C280.086 273.556 280.327 273.372 280.542 273.157C280.758 272.929 280.922 272.682 281.036 272.416L282.157 272.72C282.005 273.087 281.79 273.423 281.511 273.727C281.233 274.018 280.91 274.278 280.542 274.506C280.175 274.721 279.77 274.886 279.326 275C278.883 275.127 278.421 275.19 277.939 275.19ZM281.587 269.528C281.549 268.996 281.423 268.515 281.207 268.084C281.005 267.641 280.739 267.261 280.409 266.944C280.093 266.627 279.719 266.38 279.288 266.203C278.87 266.026 278.421 265.937 277.939 265.937C277.458 265.937 277.002 266.026 276.571 266.203C276.141 266.38 275.761 266.627 275.431 266.944C275.115 267.261 274.855 267.641 274.652 268.084C274.462 268.527 274.348 269.009 274.31 269.528H281.587ZM284.132 270.022C284.132 269.325 284.252 268.667 284.493 268.046C284.733 267.425 285.069 266.887 285.5 266.431C285.943 265.962 286.469 265.595 287.077 265.329C287.685 265.063 288.356 264.93 289.091 264.93C290.028 264.93 290.845 265.145 291.542 265.576C292.238 265.994 292.764 266.564 293.119 267.286L291.865 267.685C291.586 267.178 291.193 266.786 290.687 266.507C290.193 266.216 289.642 266.07 289.034 266.07C288.527 266.07 288.052 266.171 287.609 266.374C287.178 266.577 286.798 266.855 286.469 267.21C286.152 267.552 285.899 267.964 285.709 268.445C285.531 268.926 285.443 269.452 285.443 270.022C285.443 270.579 285.538 271.105 285.728 271.599C285.918 272.093 286.177 272.524 286.507 272.891C286.836 273.246 287.216 273.531 287.647 273.746C288.09 273.949 288.559 274.05 289.053 274.05C289.369 274.05 289.68 274.006 289.984 273.917C290.3 273.828 290.592 273.708 290.858 273.556C291.124 273.391 291.352 273.208 291.542 273.005C291.732 272.802 291.865 272.587 291.941 272.359L293.214 272.739C293.074 273.094 292.872 273.423 292.606 273.727C292.34 274.018 292.023 274.278 291.656 274.506C291.301 274.721 290.902 274.886 290.459 275C290.028 275.127 289.578 275.19 289.11 275.19C288.388 275.19 287.723 275.057 287.115 274.791C286.507 274.512 285.981 274.139 285.538 273.67C285.094 273.189 284.746 272.638 284.493 272.017C284.252 271.396 284.132 270.731 284.132 270.022ZM303.565 275H302.273V269.471C302.273 268.344 302.077 267.501 301.684 266.944C301.304 266.387 300.741 266.108 299.993 266.108C299.626 266.108 299.259 266.184 298.891 266.336C298.537 266.475 298.201 266.672 297.884 266.925C297.568 267.178 297.289 267.476 297.048 267.818C296.82 268.16 296.649 268.534 296.535 268.939V275H295.243V261.13H296.535V267.343C296.928 266.596 297.473 266.007 298.169 265.576C298.866 265.145 299.62 264.93 300.43 264.93C301 264.93 301.482 265.038 301.874 265.253C302.267 265.456 302.59 265.747 302.843 266.127C303.097 266.494 303.28 266.944 303.394 267.476C303.508 267.995 303.565 268.572 303.565 269.205V275ZM314.643 275H313.351V269.471C313.351 268.293 313.173 267.438 312.819 266.906C312.477 266.374 311.945 266.108 311.223 266.108C310.843 266.108 310.463 266.178 310.083 266.317C309.703 266.456 309.348 266.653 309.019 266.906C308.702 267.159 308.417 267.463 308.164 267.818C307.91 268.16 307.727 268.534 307.613 268.939V275H306.321V265.101H307.499V267.343C307.904 266.621 308.48 266.038 309.228 265.595C309.988 265.152 310.811 264.93 311.698 264.93C312.242 264.93 312.705 265.031 313.085 265.234C313.465 265.437 313.769 265.722 313.997 266.089C314.225 266.456 314.389 266.906 314.491 267.438C314.592 267.97 314.643 268.559 314.643 269.205V275ZM321.616 275.19C320.894 275.19 320.235 275.057 319.64 274.791C319.044 274.512 318.525 274.139 318.082 273.67C317.651 273.201 317.315 272.657 317.075 272.036C316.834 271.415 316.714 270.763 316.714 270.079C316.714 269.382 316.834 268.724 317.075 268.103C317.328 267.482 317.67 266.938 318.101 266.469C318.544 266 319.063 265.627 319.659 265.348C320.254 265.069 320.906 264.93 321.616 264.93C322.325 264.93 322.977 265.069 323.573 265.348C324.181 265.627 324.7 266 325.131 266.469C325.574 266.938 325.916 267.482 326.157 268.103C326.41 268.724 326.537 269.382 326.537 270.079C326.537 270.763 326.416 271.415 326.176 272.036C325.935 272.657 325.593 273.201 325.15 273.67C324.719 274.139 324.2 274.512 323.592 274.791C322.996 275.057 322.338 275.19 321.616 275.19ZM318.025 270.098C318.025 270.655 318.12 271.175 318.31 271.656C318.5 272.125 318.753 272.543 319.07 272.91C319.399 273.265 319.779 273.543 320.21 273.746C320.653 273.949 321.122 274.05 321.616 274.05C322.11 274.05 322.572 273.949 323.003 273.746C323.446 273.531 323.832 273.246 324.162 272.891C324.491 272.524 324.751 272.099 324.941 271.618C325.131 271.137 325.226 270.617 325.226 270.06C325.226 269.515 325.131 269.002 324.941 268.521C324.751 268.027 324.491 267.603 324.162 267.248C323.832 266.881 323.446 266.596 323.003 266.393C322.572 266.178 322.11 266.07 321.616 266.07C321.122 266.07 320.659 266.178 320.229 266.393C319.798 266.596 319.418 266.881 319.089 267.248C318.759 267.615 318.5 268.046 318.31 268.54C318.12 269.021 318.025 269.541 318.025 270.098ZM328.754 261.13H330.046V272.758C330.046 273.125 330.148 273.417 330.35 273.632C330.553 273.835 330.838 273.936 331.205 273.936C331.345 273.936 331.509 273.917 331.699 273.879C331.889 273.841 332.067 273.79 332.231 273.727L332.459 274.772C332.219 274.873 331.921 274.956 331.566 275.019C331.224 275.082 330.927 275.114 330.673 275.114C330.078 275.114 329.609 274.949 329.267 274.62C328.925 274.278 328.754 273.803 328.754 273.195V261.13ZM338.092 275.19C337.37 275.19 336.712 275.057 336.116 274.791C335.521 274.512 335.002 274.139 334.558 273.67C334.128 273.201 333.792 272.657 333.551 272.036C333.311 271.415 333.19 270.763 333.19 270.079C333.19 269.382 333.311 268.724 333.551 268.103C333.805 267.482 334.147 266.938 334.577 266.469C335.021 266 335.54 265.627 336.135 265.348C336.731 265.069 337.383 264.93 338.092 264.93C338.802 264.93 339.454 265.069 340.049 265.348C340.657 265.627 341.177 266 341.607 266.469C342.051 266.938 342.393 267.482 342.633 268.103C342.887 268.724 343.013 269.382 343.013 270.079C343.013 270.763 342.893 271.415 342.652 272.036C342.412 272.657 342.07 273.201 341.626 273.67C341.196 274.139 340.676 274.512 340.068 274.791C339.473 275.057 338.814 275.19 338.092 275.19ZM334.501 270.098C334.501 270.655 334.596 271.175 334.786 271.656C334.976 272.125 335.23 272.543 335.546 272.91C335.876 273.265 336.256 273.543 336.686 273.746C337.13 273.949 337.598 274.05 338.092 274.05C338.586 274.05 339.049 273.949 339.479 273.746C339.923 273.531 340.309 273.246 340.638 272.891C340.968 272.524 341.227 272.099 341.417 271.618C341.607 271.137 341.702 270.617 341.702 270.06C341.702 269.515 341.607 269.002 341.417 268.521C341.227 268.027 340.968 267.603 340.638 267.248C340.309 266.881 339.923 266.596 339.479 266.393C339.049 266.178 338.586 266.07 338.092 266.07C337.598 266.07 337.136 266.178 336.705 266.393C336.275 266.596 335.895 266.881 335.565 267.248C335.236 267.615 334.976 268.046 334.786 268.54C334.596 269.021 334.501 269.541 334.501 270.098ZM349.145 275.133C348.461 275.133 347.834 274.994 347.264 274.715C346.707 274.424 346.219 274.044 345.801 273.575C345.396 273.106 345.079 272.568 344.851 271.96C344.623 271.352 344.509 270.725 344.509 270.079C344.509 269.395 344.617 268.743 344.832 268.122C345.06 267.489 345.377 266.938 345.782 266.469C346.187 266 346.669 265.627 347.226 265.348C347.796 265.069 348.423 264.93 349.107 264.93C349.956 264.93 350.69 265.145 351.311 265.576C351.932 265.994 352.464 266.526 352.907 267.172V265.101H354.066V275.038C354.066 275.722 353.933 276.324 353.667 276.843C353.414 277.375 353.065 277.818 352.622 278.173C352.191 278.528 351.678 278.794 351.083 278.971C350.5 279.148 349.88 279.237 349.221 279.237C348.081 279.237 347.163 279.034 346.466 278.629C345.769 278.224 345.206 277.679 344.775 276.995L345.573 276.368C345.966 277.001 346.485 277.464 347.131 277.755C347.777 278.059 348.474 278.211 349.221 278.211C349.702 278.211 350.158 278.141 350.589 278.002C351.02 277.875 351.393 277.679 351.71 277.413C352.039 277.16 352.299 276.83 352.489 276.425C352.679 276.032 352.774 275.57 352.774 275.038V273.081C352.394 273.714 351.875 274.215 351.216 274.582C350.557 274.949 349.867 275.133 349.145 275.133ZM349.506 274.05C349.886 274.05 350.26 273.98 350.627 273.841C350.994 273.702 351.324 273.518 351.615 273.29C351.919 273.049 352.172 272.783 352.375 272.492C352.578 272.201 352.711 271.903 352.774 271.599V268.54C352.635 268.185 352.445 267.856 352.204 267.552C351.963 267.248 351.691 266.988 351.387 266.773C351.083 266.558 350.754 266.387 350.399 266.26C350.057 266.133 349.709 266.07 349.354 266.07C348.797 266.07 348.296 266.19 347.853 266.431C347.422 266.659 347.055 266.963 346.751 267.343C346.447 267.723 346.213 268.154 346.048 268.635C345.896 269.116 345.82 269.604 345.82 270.098C345.82 270.63 345.915 271.137 346.105 271.618C346.295 272.099 346.555 272.524 346.884 272.891C347.226 273.246 347.619 273.531 348.062 273.746C348.505 273.949 348.987 274.05 349.506 274.05ZM357.489 278.04C357.59 278.053 357.685 278.059 357.774 278.059C357.875 278.072 357.97 278.078 358.059 278.078C358.287 278.078 358.464 278.046 358.591 277.983C358.73 277.92 358.863 277.78 358.99 277.565C359.117 277.35 359.256 277.039 359.408 276.634C359.573 276.229 359.801 275.684 360.092 275L355.779 265.101H357.109L360.776 273.803L364.177 265.101H365.412L360.282 277.869C360.143 278.236 359.908 278.553 359.579 278.819C359.262 279.098 358.825 279.237 358.268 279.237C358.141 279.237 358.021 279.231 357.907 279.218C357.793 279.218 357.654 279.205 357.489 279.18V278.04ZM380.844 262.688H376.037V275H374.707V262.688H369.9V261.51H380.844V262.688ZM385.442 266.241C384.568 266.266 383.808 266.507 383.162 266.963C382.516 267.419 382.06 268.046 381.794 268.844V275H380.502V265.101H381.718V267.476C382.085 266.716 382.579 266.121 383.2 265.69C383.821 265.259 384.486 265.044 385.195 265.044C385.296 265.044 385.379 265.05 385.442 265.063V266.241ZM390.937 275.19C390.215 275.19 389.55 275.057 388.942 274.791C388.347 274.512 387.828 274.139 387.384 273.67C386.941 273.189 386.593 272.638 386.339 272.017C386.099 271.396 385.978 270.731 385.978 270.022C385.978 269.325 386.099 268.673 386.339 268.065C386.593 267.444 386.935 266.906 387.365 266.45C387.809 265.981 388.334 265.614 388.942 265.348C389.55 265.069 390.209 264.93 390.918 264.93C391.64 264.93 392.299 265.069 392.894 265.348C393.502 265.614 394.022 265.981 394.452 266.45C394.883 266.919 395.219 267.457 395.459 268.065C395.7 268.673 395.82 269.319 395.82 270.003C395.82 270.104 395.82 270.206 395.82 270.307C395.82 270.408 395.814 270.478 395.801 270.516H387.327C387.365 271.048 387.486 271.542 387.688 271.998C387.904 272.441 388.176 272.828 388.505 273.157C388.835 273.486 389.208 273.746 389.626 273.936C390.057 274.113 390.513 274.202 390.994 274.202C391.311 274.202 391.628 274.158 391.944 274.069C392.261 273.98 392.552 273.86 392.818 273.708C393.084 273.556 393.325 273.372 393.54 273.157C393.756 272.929 393.92 272.682 394.034 272.416L395.155 272.72C395.003 273.087 394.788 273.423 394.509 273.727C394.231 274.018 393.908 274.278 393.54 274.506C393.173 274.721 392.768 274.886 392.324 275C391.881 275.127 391.419 275.19 390.937 275.19ZM394.585 269.528C394.547 268.996 394.421 268.515 394.205 268.084C394.003 267.641 393.737 267.261 393.407 266.944C393.091 266.627 392.717 266.38 392.286 266.203C391.868 266.026 391.419 265.937 390.937 265.937C390.456 265.937 390 266.026 389.569 266.203C389.139 266.38 388.759 266.627 388.429 266.944C388.113 267.261 387.853 267.641 387.65 268.084C387.46 268.527 387.346 269.009 387.308 269.528H394.585ZM406.136 275H404.844V269.471C404.844 268.293 404.666 267.438 404.312 266.906C403.97 266.374 403.438 266.108 402.716 266.108C402.336 266.108 401.956 266.178 401.576 266.317C401.196 266.456 400.841 266.653 400.512 266.906C400.195 267.159 399.91 267.463 399.657 267.818C399.403 268.16 399.22 268.534 399.106 268.939V275H397.814V265.101H398.992V267.343C399.397 266.621 399.973 266.038 400.721 265.595C401.481 265.152 402.304 264.93 403.191 264.93C403.735 264.93 404.198 265.031 404.578 265.234C404.958 265.437 405.262 265.722 405.49 266.089C405.718 266.456 405.882 266.906 405.984 267.438C406.085 267.97 406.136 268.559 406.136 269.205V275ZM412.957 275.19C412.273 275.19 411.639 275.051 411.057 274.772C410.474 274.481 409.974 274.101 409.556 273.632C409.138 273.163 408.808 272.625 408.568 272.017C408.34 271.396 408.226 270.75 408.226 270.079C408.226 269.382 408.34 268.724 408.568 268.103C408.796 267.47 409.106 266.919 409.499 266.45C409.904 265.981 410.379 265.614 410.924 265.348C411.481 265.069 412.089 264.93 412.748 264.93C413.584 264.93 414.325 265.152 414.971 265.595C415.617 266.026 416.123 266.551 416.491 267.172V261.13H417.783V273.328C417.783 273.683 417.935 273.86 418.239 273.86V275C418.049 275.038 417.897 275.057 417.783 275.057C417.479 275.057 417.213 274.962 416.985 274.772C416.757 274.569 416.643 274.329 416.643 274.05V273.081C416.25 273.727 415.718 274.24 415.047 274.62C414.375 275 413.679 275.19 412.957 275.19ZM413.242 274.05C413.558 274.05 413.894 273.987 414.249 273.86C414.616 273.733 414.958 273.562 415.275 273.347C415.591 273.119 415.857 272.859 416.073 272.568C416.301 272.264 416.44 271.941 416.491 271.599V268.54C416.364 268.198 416.18 267.881 415.94 267.59C415.699 267.286 415.42 267.02 415.104 266.792C414.8 266.564 414.47 266.387 414.116 266.26C413.761 266.133 413.413 266.07 413.071 266.07C412.539 266.07 412.057 266.184 411.627 266.412C411.196 266.64 410.822 266.944 410.506 267.324C410.202 267.691 409.967 268.116 409.803 268.597C409.638 269.078 409.556 269.572 409.556 270.079C409.556 270.611 409.651 271.118 409.841 271.599C410.031 272.08 410.29 272.505 410.62 272.872C410.949 273.227 411.335 273.512 411.779 273.727C412.235 273.942 412.722 274.05 413.242 274.05ZM423.997 275.19C423.224 275.19 422.471 275.063 421.736 274.81C421.001 274.557 420.368 274.189 419.836 273.708L420.425 272.834C420.982 273.29 421.546 273.632 422.116 273.86C422.699 274.088 423.319 274.202 423.978 274.202C424.776 274.202 425.409 274.044 425.878 273.727C426.359 273.398 426.6 272.935 426.6 272.34C426.6 272.061 426.537 271.833 426.41 271.656C426.283 271.466 426.093 271.301 425.84 271.162C425.599 271.023 425.289 270.902 424.909 270.801C424.542 270.687 424.111 270.573 423.617 270.459C423.047 270.32 422.553 270.18 422.135 270.041C421.717 269.902 421.369 269.743 421.09 269.566C420.824 269.389 420.621 269.173 420.482 268.92C420.355 268.654 420.292 268.325 420.292 267.932C420.292 267.438 420.387 267.001 420.577 266.621C420.78 266.241 421.046 265.931 421.375 265.69C421.717 265.437 422.11 265.247 422.553 265.12C423.009 264.993 423.49 264.93 423.997 264.93C424.757 264.93 425.447 265.057 426.068 265.31C426.689 265.551 427.189 265.874 427.569 266.279L426.942 267.039C426.575 266.659 426.125 266.374 425.593 266.184C425.074 265.994 424.529 265.899 423.959 265.899C423.617 265.899 423.3 265.937 423.009 266.013C422.718 266.076 422.458 266.184 422.23 266.336C422.015 266.488 421.844 266.684 421.717 266.925C421.59 267.153 421.527 267.425 421.527 267.742C421.527 268.008 421.571 268.223 421.66 268.388C421.749 268.553 421.894 268.698 422.097 268.825C422.3 268.939 422.553 269.047 422.857 269.148C423.174 269.237 423.554 269.332 423.997 269.433C424.63 269.585 425.188 269.737 425.669 269.889C426.15 270.041 426.549 270.218 426.866 270.421C427.195 270.624 427.442 270.871 427.607 271.162C427.772 271.453 427.854 271.808 427.854 272.226C427.854 273.138 427.506 273.86 426.809 274.392C426.112 274.924 425.175 275.19 423.997 275.19ZM434.812 275V265.101H436.104V275H434.812ZM434.812 263.03V261.13H436.104V263.03H434.812ZM447.271 275H445.979V269.471C445.979 268.293 445.802 267.438 445.447 266.906C445.105 266.374 444.573 266.108 443.851 266.108C443.471 266.108 443.091 266.178 442.711 266.317C442.331 266.456 441.977 266.653 441.647 266.906C441.331 267.159 441.046 267.463 440.792 267.818C440.539 268.16 440.355 268.534 440.241 268.939V275H438.949V265.101H440.127V267.343C440.533 266.621 441.109 266.038 441.856 265.595C442.616 265.152 443.44 264.93 444.326 264.93C444.871 264.93 445.333 265.031 445.713 265.234C446.093 265.437 446.397 265.722 446.625 266.089C446.853 266.456 447.018 266.906 447.119 267.438C447.221 267.97 447.271 268.559 447.271 269.205V275ZM455.135 275V261.51H459.714C460.791 261.51 461.728 261.687 462.526 262.042C463.337 262.397 464.008 262.878 464.54 263.486C465.085 264.094 465.49 264.81 465.756 265.633C466.035 266.444 466.174 267.311 466.174 268.236C466.174 269.262 466.022 270.193 465.718 271.029C465.414 271.852 464.977 272.562 464.407 273.157C463.85 273.74 463.172 274.196 462.374 274.525C461.589 274.842 460.702 275 459.714 275H455.135ZM464.844 268.236C464.844 267.425 464.73 266.684 464.502 266.013C464.274 265.329 463.939 264.74 463.495 264.246C463.065 263.752 462.533 263.372 461.899 263.106C461.266 262.827 460.538 262.688 459.714 262.688H456.465V273.822H459.714C460.55 273.822 461.285 273.683 461.918 273.404C462.564 273.113 463.103 272.72 463.533 272.226C463.964 271.719 464.287 271.13 464.502 270.459C464.73 269.775 464.844 269.034 464.844 268.236ZM470.94 275.19C470.472 275.19 470.035 275.114 469.629 274.962C469.237 274.797 468.888 274.576 468.584 274.297C468.293 274.018 468.065 273.695 467.9 273.328C467.736 272.948 467.653 272.543 467.653 272.112C467.653 271.681 467.755 271.282 467.957 270.915C468.16 270.548 468.445 270.231 468.812 269.965C469.18 269.699 469.617 269.496 470.123 269.357C470.63 269.205 471.187 269.129 471.795 269.129C472.302 269.129 472.815 269.173 473.334 269.262C473.854 269.351 474.316 269.477 474.721 269.642V268.749C474.721 267.875 474.474 267.185 473.98 266.678C473.486 266.159 472.802 265.899 471.928 265.899C471.422 265.899 470.902 266 470.37 266.203C469.838 266.406 469.3 266.697 468.755 267.077L468.299 266.222C469.579 265.361 470.82 264.93 472.023 264.93C473.265 264.93 474.24 265.278 474.949 265.975C475.659 266.672 476.013 267.634 476.013 268.863V273.328C476.013 273.683 476.172 273.86 476.488 273.86V275C476.273 275.038 476.108 275.057 475.994 275.057C475.665 275.057 475.405 274.975 475.215 274.81C475.038 274.645 474.943 274.417 474.93 274.126L474.892 273.347C474.436 273.942 473.86 274.398 473.163 274.715C472.479 275.032 471.738 275.19 470.94 275.19ZM471.244 274.202C471.916 274.202 472.53 274.075 473.087 273.822C473.657 273.569 474.088 273.233 474.379 272.815C474.493 272.701 474.576 272.581 474.626 272.454C474.69 272.315 474.721 272.188 474.721 272.074V270.459C474.291 270.294 473.841 270.168 473.372 270.079C472.916 269.99 472.448 269.946 471.966 269.946C471.054 269.946 470.313 270.136 469.743 270.516C469.173 270.896 468.888 271.396 468.888 272.017C468.888 272.321 468.945 272.606 469.059 272.872C469.186 273.138 469.351 273.372 469.553 273.575C469.769 273.765 470.022 273.917 470.313 274.031C470.605 274.145 470.915 274.202 471.244 274.202ZM483.745 266.241C482.871 266.266 482.111 266.507 481.465 266.963C480.819 267.419 480.363 268.046 480.097 268.844V275H478.805V265.101H480.021V267.476C480.388 266.716 480.882 266.121 481.503 265.69C482.124 265.259 482.789 265.044 483.498 265.044C483.599 265.044 483.682 265.05 483.745 265.063V266.241ZM485.466 275V265.101H486.758V275H485.466ZM485.466 263.03V261.13H486.758V263.03H485.466ZM488.122 278.439C487.704 278.439 487.311 278.382 486.944 278.268C486.576 278.154 486.247 277.964 485.956 277.698L486.583 276.824C486.785 277.001 487.007 277.122 487.248 277.185C487.488 277.248 487.729 277.28 487.97 277.28C488.198 277.28 488.413 277.236 488.616 277.147C488.831 277.058 489.021 276.932 489.186 276.767C489.35 276.615 489.483 276.431 489.585 276.216C489.686 276.001 489.737 275.766 489.737 275.513V265.101H491.029V275.437C491.029 275.88 490.946 276.286 490.782 276.653C490.617 277.02 490.395 277.337 490.117 277.603C489.851 277.869 489.54 278.072 489.186 278.211C488.844 278.363 488.489 278.439 488.122 278.439ZM489.737 263.03V261.13H491.029V263.03H489.737ZM496.36 275.19C495.892 275.19 495.455 275.114 495.049 274.962C494.657 274.797 494.308 274.576 494.004 274.297C493.713 274.018 493.485 273.695 493.32 273.328C493.156 272.948 493.073 272.543 493.073 272.112C493.073 271.681 493.175 271.282 493.377 270.915C493.58 270.548 493.865 270.231 494.232 269.965C494.6 269.699 495.037 269.496 495.543 269.357C496.05 269.205 496.607 269.129 497.215 269.129C497.722 269.129 498.235 269.173 498.754 269.262C499.274 269.351 499.736 269.477 500.141 269.642V268.749C500.141 267.875 499.894 267.185 499.4 266.678C498.906 266.159 498.222 265.899 497.348 265.899C496.842 265.899 496.322 266 495.79 266.203C495.258 266.406 494.72 266.697 494.175 267.077L493.719 266.222C494.999 265.361 496.24 264.93 497.443 264.93C498.685 264.93 499.66 265.278 500.369 265.975C501.079 266.672 501.433 267.634 501.433 268.863V273.328C501.433 273.683 501.592 273.86 501.908 273.86V275C501.693 275.038 501.528 275.057 501.414 275.057C501.085 275.057 500.825 274.975 500.635 274.81C500.458 274.645 500.363 274.417 500.35 274.126L500.312 273.347C499.856 273.942 499.28 274.398 498.583 274.715C497.899 275.032 497.158 275.19 496.36 275.19ZM496.664 274.202C497.336 274.202 497.95 274.075 498.507 273.822C499.077 273.569 499.508 273.233 499.799 272.815C499.913 272.701 499.996 272.581 500.046 272.454C500.11 272.315 500.141 272.188 500.141 272.074V270.459C499.711 270.294 499.261 270.168 498.792 270.079C498.336 269.99 497.868 269.946 497.386 269.946C496.474 269.946 495.733 270.136 495.163 270.516C494.593 270.896 494.308 271.396 494.308 272.017C494.308 272.321 494.365 272.606 494.479 272.872C494.606 273.138 494.771 273.372 494.973 273.575C495.189 273.765 495.442 273.917 495.733 274.031C496.025 274.145 496.335 274.202 496.664 274.202Z" fill="white"/>
<defs>
<linearGradient id="paint0_linear" x1="640.5" y1="18.5" x2="1.22764e-06" y2="323.5" gradientUnits="userSpaceOnUse">
<stop stop-color="white"/>
<stop offset="1" stop-color="white" stop-opacity="0.39"/>
</linearGradient>
</defs>
</svg>
