<svg width="655" height="273" viewBox="0 0 655 273" fill="none" xmlns="http://www.w3.org/2000/svg">
<rect x="543" y="34" width="5" height="9" rx="2.5" fill="#483595"/>
<rect x="543" y="52" width="5" height="9" rx="2.5" fill="#483595"/>
<rect x="543" y="70" width="5" height="9" rx="2.5" fill="#483595"/>
<rect x="543" y="88" width="5" height="9" rx="2.5" fill="#483595"/>
<rect x="543" y="106" width="5" height="9" rx="2.5" fill="#483595"/>
<rect x="543" y="124" width="5" height="9" rx="2.5" fill="#483595"/>
<rect x="543" y="142" width="5" height="9" rx="2.5" fill="#483595"/>
<rect x="543" y="160" width="5" height="9" rx="2.5" fill="#483595"/>
<rect x="543" y="178" width="5" height="9" rx="2.5" fill="#483595"/>
<rect x="543" y="196" width="5" height="9" rx="2.5" fill="#483595"/>
<rect x="543" y="214" width="5" height="9" rx="2.5" fill="#483595"/>
<rect x="543" y="232" width="5" height="9" rx="2.5" fill="#483595"/>
<mask id="path-13-inside-1" fill="white">
<path fill-rule="evenodd" clip-rule="evenodd" d="M519 0C519 14.3594 530.641 26 545 26C559.359 26 571 14.3594 571 0H635C646.046 0 655 8.9543 655 20V253C655 264.046 646.046 273 635 273H571C571 258.641 559.359 247 545 247C530.641 247 519 258.641 519 273H20C8.95428 273 0 264.046 0 253V163C14.3594 163 26 151.359 26 137C26 122.641 14.3594 111 0 111V20C0 8.95431 8.95428 0 20 0H519Z"/>
</mask>
<path fill-rule="evenodd" clip-rule="evenodd" d="M519 0C519 14.3594 530.641 26 545 26C559.359 26 571 14.3594 571 0H635C646.046 0 655 8.9543 655 20V253C655 264.046 646.046 273 635 273H571C571 258.641 559.359 247 545 247C530.641 247 519 258.641 519 273H20C8.95428 273 0 264.046 0 253V163C14.3594 163 26 151.359 26 137C26 122.641 14.3594 111 0 111V20C0 8.95431 8.95428 0 20 0H519Z" fill="url(#paint0_linear)" fill-opacity="0.1"/>
<path d="M519 0V-5H524V0H519ZM571 0H566V-5H571V0ZM571 273V278H566V273H571ZM519 273H524V278H519V273ZM0 163H-5V158H0V163ZM0 111V116H-5V111H0ZM545 31C527.879 31 514 17.1208 514 0H524C524 11.598 533.402 21 545 21V31ZM576 0C576 17.1208 562.121 31 545 31V21C556.598 21 566 11.598 566 0H576ZM635 5H571V-5H635V5ZM650 20C650 11.7157 643.284 5 635 5V-5C648.807 -5 660 6.19288 660 20H650ZM650 253V20H660V253H650ZM635 268C643.284 268 650 261.284 650 253H660C660 266.807 648.807 278 635 278V268ZM571 268H635V278H571V268ZM566 273C566 261.402 556.598 252 545 252V242C562.121 242 576 255.879 576 273H566ZM545 252C533.402 252 524 261.402 524 273H514C514 255.879 527.879 242 545 242V252ZM20 268H519V278H20V268ZM5 253C5 261.284 11.7157 268 20 268V278C6.19286 278 -5 266.807 -5 253H5ZM5 163V253H-5V163H5ZM31 137C31 154.121 17.1208 168 0 168V158C11.598 158 21 148.598 21 137H31ZM0 106C17.1208 106 31 119.879 31 137H21C21 125.402 11.598 116 0 116V106ZM5 20V111H-5V20H5ZM20 5C11.7157 5 5 11.7157 5 20H-5C-5 6.19289 6.19286 -5 20 -5V5ZM519 5H20V-5H519V5Z" fill="white" fill-opacity="0.1" mask="url(#path-13-inside-1)"/>
<rect x="64" y="167" width="103" height="43.6042" fill="#39297D"/>
<path d="M91.5539 193.096V193.044C91.5539 191.837 91.2522 190.896 90.6487 190.223C90.0452 189.533 89.2175 188.99 88.1656 188.593C88.4933 188.42 88.795 188.213 89.0709 187.972C89.364 187.73 89.6141 187.454 89.821 187.143C90.0452 186.816 90.2176 186.453 90.3383 186.056C90.4762 185.66 90.5452 185.202 90.5452 184.685V184.633C90.5452 183.201 90.0107 182.062 88.9416 181.217C87.8897 180.371 86.4327 179.949 84.5704 179.949H76.1643V198.065H84.7773C85.7947 198.065 86.7172 197.962 87.5449 197.755C88.3898 197.548 89.1054 197.237 89.6917 196.823C90.2952 196.409 90.7521 195.891 91.0625 195.27C91.3901 194.649 91.5539 193.924 91.5539 193.096ZM86.5879 185.358C86.5879 186.031 86.3292 186.522 85.8119 186.833C85.2946 187.126 84.5963 187.273 83.7169 187.273H80.044V183.442H83.9755C84.8204 183.442 85.4671 183.606 85.9154 183.934C86.3637 184.245 86.5879 184.702 86.5879 185.306V185.358ZM87.5966 192.604C87.5966 193.277 87.3466 193.778 86.8465 194.106C86.3465 194.416 85.6567 194.571 84.7773 194.571H80.044V190.586H84.648C85.6826 190.586 86.4327 190.767 86.8983 191.129C87.3638 191.474 87.5966 191.949 87.5966 192.553V192.604Z" fill="white"/>
<path d="M98.5292 198.065V179.172H94.5977V198.065H98.5292Z" fill="white"/>
<path d="M114.145 198.065V190.016C114.145 188.136 113.654 186.669 112.671 185.616C111.688 184.564 110.119 184.038 107.964 184.038C106.791 184.038 105.791 184.141 104.963 184.348C104.136 184.555 103.342 184.823 102.584 185.151L103.567 188.153C104.205 187.911 104.808 187.73 105.377 187.609C105.963 187.471 106.636 187.402 107.395 187.402C108.377 187.402 109.119 187.618 109.619 188.049C110.119 188.481 110.369 189.11 110.369 189.939V190.172C109.869 189.999 109.352 189.861 108.817 189.757C108.3 189.654 107.688 189.602 106.981 189.602C106.153 189.602 105.394 189.697 104.705 189.887C104.032 190.059 103.446 190.327 102.946 190.689C102.463 191.052 102.084 191.509 101.808 192.061C101.532 192.613 101.394 193.269 101.394 194.028V194.08C101.394 194.77 101.515 195.382 101.756 195.917C102.015 196.435 102.36 196.875 102.791 197.237C103.222 197.599 103.722 197.876 104.291 198.065C104.877 198.238 105.498 198.324 106.153 198.324C107.119 198.324 107.938 198.169 108.61 197.858C109.283 197.53 109.86 197.099 110.343 196.564V198.065H114.145ZM110.421 193.174C110.421 193.898 110.136 194.485 109.567 194.934C109.015 195.382 108.274 195.607 107.343 195.607C106.705 195.607 106.188 195.46 105.791 195.167C105.394 194.873 105.196 194.459 105.196 193.924V193.873C105.196 193.251 105.437 192.777 105.92 192.449C106.403 192.121 107.067 191.957 107.912 191.957C108.395 191.957 108.843 192.009 109.257 192.113C109.688 192.199 110.076 192.32 110.421 192.475V193.174Z" fill="white"/>
<path d="M132.09 191.155V191.103C132.09 189.947 131.909 188.929 131.547 188.049C131.202 187.152 130.737 186.402 130.15 185.798C129.564 185.177 128.892 184.711 128.133 184.4C127.374 184.09 126.59 183.934 125.779 183.934C124.745 183.934 123.883 184.15 123.193 184.581C122.52 184.995 121.943 185.53 121.46 186.186V179.172H117.528V198.065H121.46V196.254C121.925 196.806 122.494 197.289 123.167 197.703C123.857 198.117 124.727 198.324 125.779 198.324C126.607 198.324 127.4 198.169 128.159 197.858C128.918 197.548 129.581 197.09 130.15 196.487C130.737 195.865 131.202 195.115 131.547 194.235C131.909 193.338 132.09 192.311 132.09 191.155ZM128.159 191.155C128.159 191.742 128.064 192.268 127.874 192.734C127.702 193.2 127.461 193.605 127.15 193.95C126.84 194.278 126.478 194.537 126.064 194.727C125.667 194.899 125.236 194.985 124.771 194.985C124.305 194.985 123.865 194.899 123.451 194.727C123.055 194.537 122.701 194.278 122.391 193.95C122.098 193.605 121.856 193.2 121.667 192.734C121.494 192.251 121.408 191.724 121.408 191.155V191.103C121.408 190.534 121.494 190.016 121.667 189.55C121.856 189.067 122.098 188.662 122.391 188.334C122.701 187.989 123.055 187.73 123.451 187.558C123.865 187.368 124.305 187.273 124.771 187.273C125.236 187.273 125.667 187.368 126.064 187.558C126.478 187.73 126.84 187.989 127.15 188.334C127.461 188.662 127.702 189.067 127.874 189.55C128.064 190.016 128.159 190.534 128.159 191.103V191.155Z" fill="white"/>
<path d="M139.095 198.065V179.172H135.163V198.065H139.095Z" fill="white"/>
<path d="M154.711 198.065V190.016C154.711 188.136 154.219 186.669 153.237 185.616C152.254 184.564 150.685 184.038 148.529 184.038C147.357 184.038 146.356 184.141 145.529 184.348C144.701 184.555 143.908 184.823 143.149 185.151L144.132 188.153C144.77 187.911 145.374 187.73 145.943 187.609C146.529 187.471 147.201 187.402 147.96 187.402C148.943 187.402 149.684 187.618 150.184 188.049C150.685 188.481 150.935 189.11 150.935 189.939V190.172C150.435 189.999 149.917 189.861 149.383 189.757C148.865 189.654 148.253 189.602 147.546 189.602C146.719 189.602 145.96 189.697 145.27 189.887C144.598 190.059 144.011 190.327 143.511 190.689C143.029 191.052 142.649 191.509 142.373 192.061C142.097 192.613 141.959 193.269 141.959 194.028V194.08C141.959 194.77 142.08 195.382 142.322 195.917C142.58 196.435 142.925 196.875 143.356 197.237C143.787 197.599 144.287 197.876 144.856 198.065C145.443 198.238 146.063 198.324 146.719 198.324C147.684 198.324 148.503 198.169 149.176 197.858C149.848 197.53 150.426 197.099 150.909 196.564V198.065H154.711ZM150.986 193.174C150.986 193.898 150.702 194.485 150.133 194.934C149.581 195.382 148.84 195.607 147.908 195.607C147.27 195.607 146.753 195.46 146.356 195.167C145.96 194.873 145.762 194.459 145.762 193.924V193.873C145.762 193.251 146.003 192.777 146.486 192.449C146.969 192.121 147.632 191.957 148.477 191.957C148.96 191.957 149.409 192.009 149.822 192.113C150.253 192.199 150.641 192.32 150.986 192.475V193.174Z" fill="white"/>
<path d="M112.423 210.604L64 210.604L112.423 233V210.604Z" fill="#39297D"/>
<path d="M125.719 226.414L125.049 225.757C124.619 226.169 124.181 226.492 123.735 226.724C123.288 226.947 122.755 227.059 122.137 227.059C121.639 227.059 121.175 226.964 120.745 226.775C120.324 226.578 119.955 226.311 119.637 225.976C119.328 225.641 119.083 225.245 118.903 224.79C118.731 224.334 118.645 223.844 118.645 223.32C118.645 222.796 118.731 222.31 118.903 221.863C119.083 221.408 119.328 221.012 119.637 220.677C119.955 220.342 120.324 220.08 120.745 219.891C121.175 219.702 121.639 219.607 122.137 219.607C122.755 219.607 123.284 219.723 123.722 219.955C124.168 220.187 124.585 220.484 124.971 220.845L125.667 220.097C125.444 219.882 125.212 219.689 124.971 219.517C124.731 219.336 124.469 219.186 124.185 219.066C123.902 218.937 123.593 218.838 123.258 218.769C122.931 218.7 122.562 218.666 122.15 218.666C121.488 218.666 120.879 218.791 120.32 219.04C119.762 219.28 119.281 219.616 118.877 220.045C118.473 220.467 118.156 220.961 117.924 221.528C117.7 222.095 117.589 222.701 117.589 223.346C117.589 223.999 117.7 224.609 117.924 225.177C118.156 225.744 118.473 226.238 118.877 226.659C119.281 227.072 119.758 227.398 120.307 227.639C120.857 227.88 121.458 228 122.111 228C122.523 228 122.897 227.961 123.232 227.884C123.567 227.807 123.881 227.699 124.173 227.562C124.465 227.424 124.735 227.261 124.984 227.072C125.242 226.874 125.487 226.655 125.719 226.414Z" fill="white"/>
<path d="M136.049 223.32C136.049 222.693 135.937 222.1 135.714 221.541C135.499 220.974 135.19 220.479 134.786 220.058C134.382 219.629 133.897 219.289 133.33 219.04C132.772 218.791 132.149 218.666 131.462 218.666C130.775 218.666 130.148 218.795 129.581 219.053C129.014 219.302 128.528 219.641 128.125 220.071C127.721 220.501 127.408 220.999 127.184 221.567C126.961 222.125 126.849 222.718 126.849 223.346C126.849 223.973 126.957 224.571 127.171 225.138C127.395 225.697 127.708 226.191 128.112 226.62C128.516 227.042 128.997 227.377 129.555 227.626C130.122 227.875 130.749 228 131.436 228C132.123 228 132.75 227.875 133.317 227.626C133.884 227.368 134.369 227.024 134.773 226.595C135.177 226.165 135.49 225.671 135.714 225.112C135.937 224.545 136.049 223.947 136.049 223.32ZM134.992 223.346C134.992 223.862 134.902 224.347 134.722 224.803C134.55 225.25 134.309 225.641 134 225.976C133.691 226.311 133.317 226.578 132.879 226.775C132.45 226.964 131.977 227.059 131.462 227.059C130.946 227.059 130.47 226.96 130.032 226.762C129.602 226.565 129.229 226.298 128.911 225.963C128.593 225.628 128.344 225.232 128.163 224.777C127.992 224.321 127.906 223.836 127.906 223.32C127.906 222.804 127.992 222.323 128.163 221.876C128.344 221.421 128.589 221.025 128.898 220.69C129.207 220.355 129.576 220.093 130.006 219.904C130.444 219.706 130.921 219.607 131.436 219.607C131.951 219.607 132.424 219.706 132.853 219.904C133.291 220.101 133.669 220.368 133.987 220.703C134.305 221.038 134.55 221.434 134.722 221.889C134.902 222.345 134.992 222.83 134.992 223.346Z" fill="white"/>
<path d="M144.831 226.053L139.149 218.821H138.195V227.845H139.187V220.445L145.011 227.845H145.823V218.821H144.831V226.053Z" fill="white"/>
<path d="M154.855 218.821H148.374V227.845H149.392V223.913H154.275V222.985H149.392V219.762H154.855V218.821Z" fill="white"/>
<path d="M64.0001 210.604H112.421V218.436L64.0001 210.604Z" fill="#2B1D6B"/>
<path d="M194.862 171.299C195.417 171.299 195.933 171.395 196.409 171.588C196.896 171.769 197.316 172.03 197.667 172.37C198.018 172.71 198.296 173.118 198.5 173.594C198.704 174.059 198.806 174.574 198.806 175.141C198.806 175.742 198.693 176.291 198.466 176.79C198.251 177.277 197.95 177.702 197.565 178.065C197.191 178.416 196.743 178.688 196.222 178.881C195.701 179.074 195.14 179.17 194.539 179.17C193.678 179.17 192.901 178.966 192.21 178.558C191.53 178.15 191.009 177.6 190.646 176.909L191.581 176.093C191.898 176.626 192.318 177.051 192.839 177.368C193.372 177.674 193.944 177.827 194.556 177.827C194.941 177.827 195.298 177.765 195.627 177.64C195.967 177.504 196.256 177.323 196.494 177.096C196.743 176.858 196.936 176.58 197.072 176.263C197.208 175.934 197.276 175.572 197.276 175.175C197.276 174.801 197.208 174.455 197.072 174.138C196.936 173.821 196.749 173.549 196.511 173.322C196.284 173.084 196.012 172.903 195.695 172.778C195.378 172.653 195.038 172.591 194.675 172.591C194.199 172.591 193.746 172.699 193.315 172.914C192.884 173.129 192.539 173.435 192.278 173.832H190.918C190.929 173.775 190.958 173.634 191.003 173.407C191.048 173.169 191.105 172.886 191.173 172.557C191.241 172.217 191.315 171.843 191.394 171.435C191.473 171.027 191.553 170.613 191.632 170.194C191.825 169.219 192.04 168.131 192.278 166.93H198.143V168.307H193.383L192.652 172.149C193.162 171.582 193.899 171.299 194.862 171.299ZM205.224 179V166.93H209.406C210.37 166.93 211.214 167.089 211.939 167.406C212.676 167.723 213.288 168.154 213.775 168.698C214.263 169.242 214.625 169.882 214.863 170.619C215.113 171.344 215.237 172.121 215.237 172.948C215.237 173.866 215.101 174.699 214.829 175.447C214.557 176.184 214.166 176.818 213.656 177.351C213.146 177.872 212.529 178.28 211.803 178.575C211.089 178.858 210.29 179 209.406 179H205.224ZM213.69 172.948C213.69 172.268 213.594 171.645 213.401 171.078C213.22 170.5 212.942 170.007 212.568 169.599C212.206 169.191 211.758 168.874 211.225 168.647C210.693 168.409 210.086 168.29 209.406 168.29H206.754V177.64H209.406C210.098 177.64 210.71 177.521 211.242 177.283C211.786 177.045 212.234 176.716 212.585 176.297C212.948 175.878 213.22 175.385 213.401 174.818C213.594 174.24 213.69 173.617 213.69 172.948ZM219.35 179.17C218.931 179.17 218.54 179.102 218.177 178.966C217.815 178.819 217.497 178.62 217.225 178.371C216.965 178.122 216.755 177.833 216.596 177.504C216.449 177.164 216.375 176.796 216.375 176.399C216.375 175.991 216.466 175.623 216.647 175.294C216.829 174.954 217.084 174.665 217.412 174.427C217.752 174.189 218.149 174.002 218.602 173.866C219.067 173.73 219.571 173.662 220.115 173.662C220.546 173.662 220.982 173.702 221.424 173.781C221.866 173.86 222.257 173.968 222.597 174.104V173.39C222.597 172.665 222.393 172.098 221.985 171.69C221.577 171.271 220.999 171.061 220.251 171.061C219.356 171.061 218.415 171.407 217.429 172.098L216.936 171.129C218.081 170.358 219.231 169.973 220.387 169.973C221.555 169.973 222.461 170.285 223.107 170.908C223.765 171.531 224.093 172.41 224.093 173.543V177.164C224.093 177.515 224.252 177.697 224.569 177.708V179C224.411 179.023 224.28 179.04 224.178 179.051C224.076 179.062 223.969 179.068 223.855 179.068C223.561 179.068 223.323 178.983 223.141 178.813C222.971 178.632 222.869 178.416 222.835 178.167L222.801 177.538C222.405 178.071 221.9 178.479 221.288 178.762C220.688 179.034 220.042 179.17 219.35 179.17ZM219.741 178.048C220.274 178.048 220.767 177.952 221.22 177.759C221.685 177.555 222.036 177.289 222.274 176.96C222.49 176.745 222.597 176.524 222.597 176.297V174.988C221.872 174.705 221.118 174.563 220.336 174.563C219.588 174.563 218.976 174.722 218.5 175.039C218.036 175.356 217.803 175.77 217.803 176.28C217.803 176.529 217.849 176.762 217.939 176.977C218.041 177.192 218.177 177.379 218.347 177.538C218.529 177.697 218.738 177.821 218.976 177.912C219.214 178.003 219.469 178.048 219.741 178.048ZM226.611 181.414C226.758 181.437 226.906 181.454 227.053 181.465C227.2 181.476 227.314 181.482 227.393 181.482C227.529 181.482 227.648 181.448 227.75 181.38C227.863 181.323 227.971 181.204 228.073 181.023C228.186 180.842 228.311 180.587 228.447 180.258C228.583 179.941 228.753 179.521 228.957 179L225.2 170.126H226.747L229.773 177.657L232.527 170.126H233.955L229.637 181.329C229.478 181.726 229.212 182.071 228.838 182.366C228.475 182.672 227.971 182.825 227.325 182.825C227.223 182.825 227.115 182.819 227.002 182.808C226.9 182.797 226.77 182.774 226.611 182.74V181.414ZM238.345 179.17C237.631 179.17 236.929 179.062 236.237 178.847C235.546 178.62 234.951 178.297 234.452 177.878L235.098 176.875C235.62 177.272 236.141 177.572 236.662 177.776C237.184 177.969 237.733 178.065 238.311 178.065C238.957 178.065 239.467 177.94 239.841 177.691C240.227 177.43 240.419 177.068 240.419 176.603C240.419 176.388 240.368 176.206 240.266 176.059C240.164 175.9 240.011 175.764 239.807 175.651C239.603 175.538 239.343 175.436 239.025 175.345C238.708 175.254 238.34 175.158 237.92 175.056C237.388 174.92 236.929 174.79 236.543 174.665C236.158 174.54 235.841 174.393 235.591 174.223C235.342 174.053 235.161 173.849 235.047 173.611C234.934 173.373 234.877 173.078 234.877 172.727C234.877 172.285 234.962 171.894 235.132 171.554C235.314 171.203 235.557 170.914 235.863 170.687C236.169 170.449 236.526 170.273 236.934 170.16C237.354 170.035 237.801 169.973 238.277 169.973C238.946 169.973 239.569 170.081 240.147 170.296C240.725 170.511 241.213 170.795 241.609 171.146L240.929 172.047C240.555 171.718 240.136 171.475 239.671 171.316C239.207 171.146 238.731 171.061 238.243 171.061C237.699 171.061 237.235 171.18 236.849 171.418C236.475 171.645 236.288 172.013 236.288 172.523C236.288 172.727 236.322 172.897 236.39 173.033C236.47 173.169 236.594 173.288 236.764 173.39C236.934 173.492 237.15 173.583 237.41 173.662C237.682 173.741 238.005 173.826 238.379 173.917C238.969 174.053 239.479 174.195 239.909 174.342C240.351 174.478 240.714 174.642 240.997 174.835C241.292 175.028 241.507 175.254 241.643 175.515C241.791 175.776 241.864 176.093 241.864 176.467C241.864 177.294 241.547 177.952 240.912 178.439C240.278 178.926 239.422 179.17 238.345 179.17ZM250.213 179.17C249.793 179.17 249.402 179.102 249.04 178.966C248.677 178.819 248.36 178.62 248.088 178.371C247.827 178.122 247.617 177.833 247.459 177.504C247.311 177.164 247.238 176.796 247.238 176.399C247.238 175.991 247.328 175.623 247.51 175.294C247.691 174.954 247.946 174.665 248.275 174.427C248.615 174.189 249.011 174.002 249.465 173.866C249.929 173.73 250.434 173.662 250.978 173.662C251.408 173.662 251.845 173.702 252.287 173.781C252.729 173.86 253.12 173.968 253.46 174.104V173.39C253.46 172.665 253.256 172.098 252.848 171.69C252.44 171.271 251.862 171.061 251.114 171.061C250.218 171.061 249.278 171.407 248.292 172.098L247.799 171.129C248.943 170.358 250.094 169.973 251.25 169.973C252.417 169.973 253.324 170.285 253.97 170.908C254.627 171.531 254.956 172.41 254.956 173.543V177.164C254.956 177.515 255.114 177.697 255.432 177.708V179C255.273 179.023 255.143 179.04 255.041 179.051C254.939 179.062 254.831 179.068 254.718 179.068C254.423 179.068 254.185 178.983 254.004 178.813C253.834 178.632 253.732 178.416 253.698 178.167L253.664 177.538C253.267 178.071 252.763 178.479 252.151 178.762C251.55 179.034 250.904 179.17 250.213 179.17ZM250.604 178.048C251.136 178.048 251.629 177.952 252.083 177.759C252.547 177.555 252.899 177.289 253.137 176.96C253.352 176.745 253.46 176.524 253.46 176.297V174.988C252.734 174.705 251.981 174.563 251.199 174.563C250.451 174.563 249.839 174.722 249.363 175.039C248.898 175.356 248.666 175.77 248.666 176.28C248.666 176.529 248.711 176.762 248.802 176.977C248.904 177.192 249.04 177.379 249.21 177.538C249.391 177.697 249.601 177.821 249.839 177.912C250.077 178.003 250.332 178.048 250.604 178.048ZM265.049 179H263.553V174.036C263.553 173.084 263.405 172.393 263.111 171.962C262.827 171.531 262.391 171.316 261.802 171.316C261.496 171.316 261.19 171.378 260.884 171.503C260.578 171.616 260.289 171.775 260.017 171.979C259.745 172.183 259.507 172.427 259.303 172.71C259.099 172.993 258.946 173.305 258.844 173.645V179H257.348V170.126H258.708V172.03C259.059 171.407 259.563 170.908 260.221 170.534C260.889 170.16 261.615 169.973 262.397 169.973C262.907 169.973 263.332 170.069 263.672 170.262C264.012 170.443 264.284 170.704 264.488 171.044C264.692 171.373 264.833 171.764 264.913 172.217C265.003 172.67 265.049 173.163 265.049 173.696V179ZM271.03 179.17C270.418 179.17 269.851 179.045 269.33 178.796C268.809 178.547 268.361 178.212 267.987 177.793C267.613 177.374 267.318 176.886 267.103 176.331C266.899 175.776 266.797 175.192 266.797 174.58C266.797 173.957 266.893 173.367 267.086 172.812C267.29 172.245 267.568 171.752 267.919 171.333C268.282 170.914 268.707 170.585 269.194 170.347C269.693 170.098 270.237 169.973 270.826 169.973C271.54 169.973 272.175 170.16 272.73 170.534C273.297 170.908 273.744 171.361 274.073 171.894V166.59H275.569V177.164C275.569 177.515 275.728 177.697 276.045 177.708V179C275.886 179.023 275.756 179.04 275.654 179.051C275.563 179.062 275.473 179.068 275.382 179.068C275.087 179.068 274.827 178.972 274.6 178.779C274.385 178.575 274.277 178.343 274.277 178.082V177.334C273.926 177.912 273.455 178.365 272.866 178.694C272.288 179.011 271.676 179.17 271.03 179.17ZM271.387 177.878C271.659 177.878 271.937 177.827 272.22 177.725C272.515 177.623 272.787 177.481 273.036 177.3C273.297 177.119 273.518 176.909 273.699 176.671C273.892 176.422 274.016 176.161 274.073 175.889V173.339C273.971 173.056 273.818 172.789 273.614 172.54C273.41 172.279 273.178 172.058 272.917 171.877C272.668 171.684 272.396 171.537 272.101 171.435C271.818 171.322 271.534 171.265 271.251 171.265C270.809 171.265 270.407 171.361 270.044 171.554C269.693 171.735 269.387 171.985 269.126 172.302C268.877 172.608 268.684 172.965 268.548 173.373C268.412 173.77 268.344 174.178 268.344 174.597C268.344 175.039 268.423 175.464 268.582 175.872C268.741 176.269 268.956 176.614 269.228 176.909C269.5 177.204 269.817 177.442 270.18 177.623C270.554 177.793 270.956 177.878 271.387 177.878ZM286.021 171.299C286.577 171.299 287.092 171.395 287.568 171.588C288.056 171.769 288.475 172.03 288.826 172.37C289.178 172.71 289.455 173.118 289.659 173.594C289.863 174.059 289.965 174.574 289.965 175.141C289.965 175.742 289.852 176.291 289.625 176.79C289.41 177.277 289.11 177.702 288.724 178.065C288.35 178.416 287.903 178.688 287.381 178.881C286.86 179.074 286.299 179.17 285.698 179.17C284.837 179.17 284.061 178.966 283.369 178.558C282.689 178.15 282.168 177.6 281.805 176.909L282.74 176.093C283.058 176.626 283.477 177.051 283.998 177.368C284.531 177.674 285.103 177.827 285.715 177.827C286.101 177.827 286.458 177.765 286.786 177.64C287.126 177.504 287.415 177.323 287.653 177.096C287.903 176.858 288.095 176.58 288.231 176.263C288.367 175.934 288.435 175.572 288.435 175.175C288.435 174.801 288.367 174.455 288.231 174.138C288.095 173.821 287.908 173.549 287.67 173.322C287.444 173.084 287.172 172.903 286.854 172.778C286.537 172.653 286.197 172.591 285.834 172.591C285.358 172.591 284.905 172.699 284.474 172.914C284.044 173.129 283.698 173.435 283.437 173.832H282.077C282.089 173.775 282.117 173.634 282.162 173.407C282.208 173.169 282.264 172.886 282.332 172.557C282.4 172.217 282.474 171.843 282.553 171.435C282.633 171.027 282.712 170.613 282.791 170.194C282.984 169.219 283.199 168.131 283.437 166.93H289.302V168.307H284.542L283.811 172.149C284.321 171.582 285.058 171.299 286.021 171.299ZM304.573 168.29H300.408V179H298.878V168.29H294.713V166.93H304.573V168.29ZM309.387 171.435C308.639 171.458 307.976 171.65 307.398 172.013C306.832 172.376 306.429 172.88 306.191 173.526V179H304.695V170.126H306.089V172.183C306.395 171.571 306.798 171.078 307.296 170.704C307.795 170.319 308.328 170.103 308.894 170.058C309.008 170.058 309.104 170.058 309.183 170.058C309.263 170.058 309.331 170.064 309.387 170.075V171.435ZM313.149 179.17C312.73 179.17 312.339 179.102 311.976 178.966C311.613 178.819 311.296 178.62 311.024 178.371C310.763 178.122 310.554 177.833 310.395 177.504C310.248 177.164 310.174 176.796 310.174 176.399C310.174 175.991 310.265 175.623 310.446 175.294C310.627 174.954 310.882 174.665 311.211 174.427C311.551 174.189 311.948 174.002 312.401 173.866C312.866 173.73 313.37 173.662 313.914 173.662C314.345 173.662 314.781 173.702 315.223 173.781C315.665 173.86 316.056 173.968 316.396 174.104V173.39C316.396 172.665 316.192 172.098 315.784 171.69C315.376 171.271 314.798 171.061 314.05 171.061C313.155 171.061 312.214 171.407 311.228 172.098L310.735 171.129C311.88 170.358 313.03 169.973 314.186 169.973C315.353 169.973 316.26 170.285 316.906 170.908C317.563 171.531 317.892 172.41 317.892 173.543V177.164C317.892 177.515 318.051 177.697 318.368 177.708V179C318.209 179.023 318.079 179.04 317.977 179.051C317.875 179.062 317.767 179.068 317.654 179.068C317.359 179.068 317.121 178.983 316.94 178.813C316.77 178.632 316.668 178.416 316.634 178.167L316.6 177.538C316.203 178.071 315.699 178.479 315.087 178.762C314.486 179.034 313.84 179.17 313.149 179.17ZM313.54 178.048C314.073 178.048 314.566 177.952 315.019 177.759C315.484 177.555 315.835 177.289 316.073 176.96C316.288 176.745 316.396 176.524 316.396 176.297V174.988C315.671 174.705 314.917 174.563 314.135 174.563C313.387 174.563 312.775 174.722 312.299 175.039C311.834 175.356 311.602 175.77 311.602 176.28C311.602 176.529 311.647 176.762 311.738 176.977C311.84 177.192 311.976 177.379 312.146 177.538C312.327 177.697 312.537 177.821 312.775 177.912C313.013 178.003 313.268 178.048 313.54 178.048ZM319.689 174.546C319.689 173.923 319.797 173.333 320.012 172.778C320.227 172.223 320.533 171.741 320.93 171.333C321.327 170.914 321.797 170.585 322.341 170.347C322.896 170.098 323.514 169.973 324.194 169.973C325.078 169.973 325.837 170.171 326.472 170.568C327.118 170.953 327.605 171.475 327.934 172.132L326.472 172.591C326.245 172.172 325.928 171.849 325.52 171.622C325.112 171.384 324.659 171.265 324.16 171.265C323.752 171.265 323.367 171.35 323.004 171.52C322.641 171.679 322.33 171.905 322.069 172.2C321.808 172.495 321.599 172.84 321.44 173.237C321.293 173.634 321.219 174.07 321.219 174.546C321.219 175.011 321.298 175.447 321.457 175.855C321.616 176.263 321.825 176.62 322.086 176.926C322.358 177.221 322.67 177.453 323.021 177.623C323.384 177.793 323.769 177.878 324.177 177.878C324.438 177.878 324.693 177.844 324.942 177.776C325.203 177.697 325.435 177.595 325.639 177.47C325.854 177.345 326.041 177.204 326.2 177.045C326.359 176.875 326.472 176.694 326.54 176.501L328.002 176.943C327.866 177.272 327.673 177.572 327.424 177.844C327.186 178.116 326.903 178.348 326.574 178.541C326.245 178.734 325.877 178.887 325.469 179C325.072 179.113 324.653 179.17 324.211 179.17C323.542 179.17 322.93 179.045 322.375 178.796C321.82 178.547 321.344 178.212 320.947 177.793C320.55 177.374 320.239 176.886 320.012 176.331C319.797 175.764 319.689 175.169 319.689 174.546ZM335.953 179L332.893 174.665L331.193 176.263V179H329.697V166.59H331.193V174.75L335.749 170.143H337.398L333.862 173.815L337.568 179H335.953ZM341.972 179.17C341.258 179.17 340.556 179.062 339.864 178.847C339.173 178.62 338.578 178.297 338.079 177.878L338.725 176.875C339.247 177.272 339.768 177.572 340.289 177.776C340.811 177.969 341.36 178.065 341.938 178.065C342.584 178.065 343.094 177.94 343.468 177.691C343.854 177.43 344.046 177.068 344.046 176.603C344.046 176.388 343.995 176.206 343.893 176.059C343.791 175.9 343.638 175.764 343.434 175.651C343.23 175.538 342.97 175.436 342.652 175.345C342.335 175.254 341.967 175.158 341.547 175.056C341.015 174.92 340.556 174.79 340.17 174.665C339.785 174.54 339.468 174.393 339.218 174.223C338.969 174.053 338.788 173.849 338.674 173.611C338.561 173.373 338.504 173.078 338.504 172.727C338.504 172.285 338.589 171.894 338.759 171.554C338.941 171.203 339.184 170.914 339.49 170.687C339.796 170.449 340.153 170.273 340.561 170.16C340.981 170.035 341.428 169.973 341.904 169.973C342.573 169.973 343.196 170.081 343.774 170.296C344.352 170.511 344.84 170.795 345.236 171.146L344.556 172.047C344.182 171.718 343.763 171.475 343.298 171.316C342.834 171.146 342.358 171.061 341.87 171.061C341.326 171.061 340.862 171.18 340.476 171.418C340.102 171.645 339.915 172.013 339.915 172.523C339.915 172.727 339.949 172.897 340.017 173.033C340.097 173.169 340.221 173.288 340.391 173.39C340.561 173.492 340.777 173.583 341.037 173.662C341.309 173.741 341.632 173.826 342.006 173.917C342.596 174.053 343.106 174.195 343.536 174.342C343.978 174.478 344.341 174.642 344.624 174.835C344.919 175.028 345.134 175.254 345.27 175.515C345.418 175.776 345.491 176.093 345.491 176.467C345.491 177.294 345.174 177.952 344.539 178.439C343.905 178.926 343.049 179.17 341.972 179.17ZM350.966 174.546C350.966 173.923 351.074 173.333 351.289 172.778C351.505 172.223 351.811 171.741 352.207 171.333C352.604 170.914 353.074 170.585 353.618 170.347C354.174 170.098 354.791 169.973 355.471 169.973C356.355 169.973 357.115 170.171 357.749 170.568C358.395 170.953 358.883 171.475 359.211 172.132L357.749 172.591C357.523 172.172 357.205 171.849 356.797 171.622C356.389 171.384 355.936 171.265 355.437 171.265C355.029 171.265 354.644 171.35 354.281 171.52C353.919 171.679 353.607 171.905 353.346 172.2C353.086 172.495 352.876 172.84 352.717 173.237C352.57 173.634 352.496 174.07 352.496 174.546C352.496 175.011 352.576 175.447 352.734 175.855C352.893 176.263 353.103 176.62 353.363 176.926C353.635 177.221 353.947 177.453 354.298 177.623C354.661 177.793 355.046 177.878 355.454 177.878C355.715 177.878 355.97 177.844 356.219 177.776C356.48 177.697 356.712 177.595 356.916 177.47C357.132 177.345 357.319 177.204 357.477 177.045C357.636 176.875 357.749 176.694 357.817 176.501L359.279 176.943C359.143 177.272 358.951 177.572 358.701 177.844C358.463 178.116 358.18 178.348 357.851 178.541C357.523 178.734 357.154 178.887 356.746 179C356.35 179.113 355.93 179.17 355.488 179.17C354.82 179.17 354.208 179.045 353.652 178.796C353.097 178.547 352.621 178.212 352.224 177.793C351.828 177.374 351.516 176.886 351.289 176.331C351.074 175.764 350.966 175.169 350.966 174.546ZM364.768 179.17C364.099 179.17 363.487 179.045 362.932 178.796C362.388 178.547 361.917 178.212 361.521 177.793C361.135 177.374 360.835 176.886 360.62 176.331C360.404 175.776 360.297 175.192 360.297 174.58C360.297 173.957 360.404 173.367 360.62 172.812C360.846 172.257 361.152 171.769 361.538 171.35C361.934 170.931 362.405 170.596 362.949 170.347C363.504 170.098 364.11 169.973 364.768 169.973C365.425 169.973 366.031 170.098 366.587 170.347C367.142 170.596 367.612 170.931 367.998 171.35C368.394 171.769 368.7 172.257 368.916 172.812C369.142 173.367 369.256 173.957 369.256 174.58C369.256 175.192 369.148 175.776 368.933 176.331C368.717 176.886 368.411 177.374 368.015 177.793C367.618 178.212 367.142 178.547 366.587 178.796C366.043 179.045 365.436 179.17 364.768 179.17ZM361.827 174.597C361.827 175.062 361.9 175.492 362.048 175.889C362.206 176.286 362.416 176.631 362.677 176.926C362.949 177.221 363.26 177.453 363.612 177.623C363.974 177.793 364.36 177.878 364.768 177.878C365.176 177.878 365.555 177.793 365.907 177.623C366.269 177.453 366.587 177.221 366.859 176.926C367.131 176.62 367.34 176.269 367.488 175.872C367.646 175.464 367.726 175.028 367.726 174.563C367.726 174.11 367.646 173.685 367.488 173.288C367.34 172.88 367.131 172.529 366.859 172.234C366.587 171.928 366.269 171.69 365.907 171.52C365.555 171.35 365.176 171.265 364.768 171.265C364.36 171.265 363.974 171.356 363.612 171.537C363.26 171.707 362.949 171.945 362.677 172.251C362.416 172.546 362.206 172.897 362.048 173.305C361.9 173.702 361.827 174.132 361.827 174.597ZM373.337 179L369.835 170.126H371.382L374.187 177.691L377.009 170.126H378.437L374.935 179H373.337ZM383.545 179.17C382.876 179.17 382.264 179.051 381.709 178.813C381.154 178.564 380.678 178.229 380.281 177.81C379.884 177.391 379.573 176.903 379.346 176.348C379.131 175.781 379.023 175.186 379.023 174.563C379.023 173.94 379.131 173.35 379.346 172.795C379.573 172.24 379.884 171.752 380.281 171.333C380.689 170.914 381.171 170.585 381.726 170.347C382.281 170.098 382.893 169.973 383.562 169.973C384.231 169.973 384.837 170.098 385.381 170.347C385.936 170.596 386.407 170.931 386.792 171.35C387.177 171.758 387.472 172.24 387.676 172.795C387.891 173.339 387.999 173.906 387.999 174.495C387.999 174.62 387.993 174.733 387.982 174.835C387.982 174.937 387.976 175.016 387.965 175.073H380.604C380.638 175.515 380.74 175.917 380.91 176.28C381.08 176.643 381.301 176.954 381.573 177.215C381.845 177.476 382.151 177.68 382.491 177.827C382.842 177.974 383.211 178.048 383.596 178.048C383.868 178.048 384.134 178.014 384.395 177.946C384.656 177.867 384.899 177.765 385.126 177.64C385.353 177.515 385.551 177.362 385.721 177.181C385.902 177 386.038 176.796 386.129 176.569L387.421 176.926C387.274 177.255 387.07 177.555 386.809 177.827C386.56 178.099 386.265 178.337 385.925 178.541C385.596 178.734 385.228 178.887 384.82 179C384.412 179.113 383.987 179.17 383.545 179.17ZM386.588 173.968C386.554 173.549 386.446 173.163 386.265 172.812C386.095 172.449 385.874 172.143 385.602 171.894C385.341 171.645 385.035 171.452 384.684 171.316C384.333 171.169 383.959 171.095 383.562 171.095C383.165 171.095 382.791 171.169 382.44 171.316C382.089 171.452 381.777 171.65 381.505 171.911C381.244 172.16 381.029 172.461 380.859 172.812C380.7 173.163 380.604 173.549 380.57 173.968H386.588ZM394.354 171.435C393.606 171.458 392.943 171.65 392.365 172.013C391.798 172.376 391.396 172.88 391.158 173.526V179H389.662V170.126H391.056V172.183C391.362 171.571 391.764 171.078 392.263 170.704C392.762 170.319 393.294 170.103 393.861 170.058C393.974 170.058 394.071 170.058 394.15 170.058C394.229 170.058 394.297 170.064 394.354 170.075V171.435ZM395.838 179V170.126H397.334V179H395.838ZM395.838 168.46V166.59H397.334V168.46H395.838ZM407.457 179H405.961V174.036C405.961 173.084 405.813 172.393 405.519 171.962C405.235 171.531 404.799 171.316 404.21 171.316C403.904 171.316 403.598 171.378 403.292 171.503C402.986 171.616 402.697 171.775 402.425 171.979C402.153 172.183 401.915 172.427 401.711 172.71C401.507 172.993 401.354 173.305 401.252 173.645V179H399.756V170.126H401.116V172.03C401.467 171.407 401.971 170.908 402.629 170.534C403.297 170.16 404.023 169.973 404.805 169.973C405.315 169.973 405.74 170.069 406.08 170.262C406.42 170.443 406.692 170.704 406.896 171.044C407.1 171.373 407.241 171.764 407.321 172.217C407.411 172.67 407.457 173.163 407.457 173.696V179ZM413.319 179.102C412.719 179.102 412.163 178.977 411.653 178.728C411.155 178.479 410.724 178.144 410.361 177.725C409.999 177.306 409.715 176.824 409.511 176.28C409.319 175.736 409.222 175.169 409.222 174.58C409.222 173.957 409.319 173.367 409.511 172.812C409.715 172.245 409.999 171.752 410.361 171.333C410.724 170.914 411.155 170.585 411.653 170.347C412.163 170.098 412.724 169.973 413.336 169.973C414.084 169.973 414.73 170.154 415.274 170.517C415.818 170.88 416.277 171.339 416.651 171.894V170.126H417.977V178.898C417.977 179.533 417.858 180.088 417.62 180.564C417.382 181.051 417.059 181.459 416.651 181.788C416.243 182.117 415.762 182.366 415.206 182.536C414.662 182.706 414.079 182.791 413.455 182.791C412.447 182.791 411.625 182.615 410.99 182.264C410.367 181.924 409.846 181.448 409.426 180.836L410.293 180.071C410.645 180.592 411.098 180.983 411.653 181.244C412.209 181.505 412.809 181.635 413.455 181.635C413.863 181.635 414.249 181.578 414.611 181.465C414.985 181.352 415.308 181.182 415.58 180.955C415.852 180.728 416.068 180.445 416.226 180.105C416.396 179.765 416.481 179.363 416.481 178.898V177.334C416.311 177.606 416.107 177.855 415.869 178.082C415.643 178.297 415.393 178.484 415.121 178.643C414.849 178.79 414.56 178.904 414.254 178.983C413.948 179.062 413.637 179.102 413.319 179.102ZM413.778 177.878C414.096 177.878 414.402 177.821 414.696 177.708C414.991 177.595 415.263 177.447 415.512 177.266C415.762 177.073 415.971 176.858 416.141 176.62C416.311 176.382 416.425 176.138 416.481 175.889V173.339C416.357 173.033 416.192 172.755 415.988 172.506C415.796 172.257 415.575 172.041 415.325 171.86C415.076 171.667 414.804 171.52 414.509 171.418C414.226 171.316 413.937 171.265 413.642 171.265C413.189 171.265 412.781 171.361 412.418 171.554C412.067 171.747 411.767 172.002 411.517 172.319C411.268 172.636 411.075 172.999 410.939 173.407C410.803 173.804 410.735 174.206 410.735 174.614C410.735 175.056 410.815 175.475 410.973 175.872C411.132 176.269 411.347 176.614 411.619 176.909C411.891 177.204 412.209 177.442 412.571 177.623C412.945 177.793 413.348 177.878 413.778 177.878ZM432.392 179H430.896V174.036C430.896 173.118 430.738 172.438 430.42 171.996C430.103 171.543 429.638 171.316 429.026 171.316C428.732 171.316 428.437 171.378 428.142 171.503C427.848 171.616 427.57 171.775 427.309 171.979C427.06 172.183 426.833 172.427 426.629 172.71C426.437 172.993 426.289 173.305 426.187 173.645V179H424.691V166.59H426.187V172.03C426.539 171.384 427.015 170.88 427.615 170.517C428.216 170.154 428.873 169.973 429.587 169.973C430.109 169.973 430.551 170.069 430.913 170.262C431.276 170.455 431.565 170.715 431.78 171.044C431.996 171.373 432.149 171.769 432.239 172.234C432.341 172.687 432.392 173.175 432.392 173.696V179ZM438.595 179.17C437.926 179.17 437.314 179.045 436.759 178.796C436.215 178.547 435.744 178.212 435.348 177.793C434.962 177.374 434.662 176.886 434.447 176.331C434.231 175.776 434.124 175.192 434.124 174.58C434.124 173.957 434.231 173.367 434.447 172.812C434.673 172.257 434.979 171.769 435.365 171.35C435.761 170.931 436.232 170.596 436.776 170.347C437.331 170.098 437.937 169.973 438.595 169.973C439.252 169.973 439.858 170.098 440.414 170.347C440.969 170.596 441.439 170.931 441.825 171.35C442.221 171.769 442.527 172.257 442.743 172.812C442.969 173.367 443.083 173.957 443.083 174.58C443.083 175.192 442.975 175.776 442.76 176.331C442.544 176.886 442.238 177.374 441.842 177.793C441.445 178.212 440.969 178.547 440.414 178.796C439.87 179.045 439.263 179.17 438.595 179.17ZM435.654 174.597C435.654 175.062 435.727 175.492 435.875 175.889C436.033 176.286 436.243 176.631 436.504 176.926C436.776 177.221 437.087 177.453 437.439 177.623C437.801 177.793 438.187 177.878 438.595 177.878C439.003 177.878 439.382 177.793 439.734 177.623C440.096 177.453 440.414 177.221 440.686 176.926C440.958 176.62 441.167 176.269 441.315 175.872C441.473 175.464 441.553 175.028 441.553 174.563C441.553 174.11 441.473 173.685 441.315 173.288C441.167 172.88 440.958 172.529 440.686 172.234C440.414 171.928 440.096 171.69 439.734 171.52C439.382 171.35 439.003 171.265 438.595 171.265C438.187 171.265 437.801 171.356 437.439 171.537C437.087 171.707 436.776 171.945 436.504 172.251C436.243 172.546 436.033 172.897 435.875 173.305C435.727 173.702 435.654 174.132 435.654 174.597ZM449.353 178.558C449.262 178.603 449.143 178.66 448.996 178.728C448.848 178.785 448.678 178.847 448.486 178.915C448.304 178.972 448.1 179.017 447.874 179.051C447.658 179.096 447.432 179.119 447.194 179.119C446.65 179.119 446.179 178.972 445.783 178.677C445.386 178.371 445.188 177.901 445.188 177.266V171.299H443.981V170.126H445.188V167.168H446.684V170.126H448.673V171.299H446.684V176.807C446.706 177.136 446.814 177.374 447.007 177.521C447.199 177.668 447.426 177.742 447.687 177.742C447.981 177.742 448.248 177.697 448.486 177.606C448.735 177.504 448.905 177.425 448.996 177.368L449.353 178.558ZM455.329 178.558C455.239 178.603 455.12 178.66 454.972 178.728C454.825 178.785 454.655 178.847 454.462 178.915C454.281 178.972 454.077 179.017 453.85 179.051C453.635 179.096 453.408 179.119 453.17 179.119C452.626 179.119 452.156 178.972 451.759 178.677C451.363 178.371 451.164 177.901 451.164 177.266V171.299H449.957V170.126H451.164V167.168H452.66V170.126H454.649V171.299H452.66V176.807C452.683 177.136 452.791 177.374 452.983 177.521C453.176 177.668 453.403 177.742 453.663 177.742C453.958 177.742 454.224 177.697 454.462 177.606C454.712 177.504 454.882 177.425 454.972 177.368L455.329 178.558ZM460.527 179.17C459.858 179.17 459.246 179.051 458.691 178.813C458.135 178.564 457.659 178.229 457.263 177.81C456.866 177.391 456.554 176.903 456.328 176.348C456.112 175.781 456.005 175.186 456.005 174.563C456.005 173.94 456.112 173.35 456.328 172.795C456.554 172.24 456.866 171.752 457.263 171.333C457.671 170.914 458.152 170.585 458.708 170.347C459.263 170.098 459.875 169.973 460.544 169.973C461.212 169.973 461.819 170.098 462.363 170.347C462.918 170.596 463.388 170.931 463.774 171.35C464.159 171.758 464.454 172.24 464.658 172.795C464.873 173.339 464.981 173.906 464.981 174.495C464.981 174.62 464.975 174.733 464.964 174.835C464.964 174.937 464.958 175.016 464.947 175.073H457.586C457.62 175.515 457.722 175.917 457.892 176.28C458.062 176.643 458.283 176.954 458.555 177.215C458.827 177.476 459.133 177.68 459.473 177.827C459.824 177.974 460.192 178.048 460.578 178.048C460.85 178.048 461.116 178.014 461.377 177.946C461.637 177.867 461.881 177.765 462.108 177.64C462.334 177.515 462.533 177.362 462.703 177.181C462.884 177 463.02 176.796 463.111 176.569L464.403 176.926C464.255 177.255 464.051 177.555 463.791 177.827C463.541 178.099 463.247 178.337 462.907 178.541C462.578 178.734 462.21 178.887 461.802 179C461.394 179.113 460.969 179.17 460.527 179.17ZM463.57 173.968C463.536 173.549 463.428 173.163 463.247 172.812C463.077 172.449 462.856 172.143 462.584 171.894C462.323 171.645 462.017 171.452 461.666 171.316C461.314 171.169 460.94 171.095 460.544 171.095C460.147 171.095 459.773 171.169 459.422 171.316C459.07 171.452 458.759 171.65 458.487 171.911C458.226 172.16 458.011 172.461 457.841 172.812C457.682 173.163 457.586 173.549 457.552 173.968H463.57ZM469.755 179.17C469.041 179.17 468.338 179.062 467.647 178.847C466.955 178.62 466.36 178.297 465.862 177.878L466.508 176.875C467.029 177.272 467.55 177.572 468.072 177.776C468.593 177.969 469.143 178.065 469.721 178.065C470.367 178.065 470.877 177.94 471.251 177.691C471.636 177.43 471.829 177.068 471.829 176.603C471.829 176.388 471.778 176.206 471.676 176.059C471.574 175.9 471.421 175.764 471.217 175.651C471.013 175.538 470.752 175.436 470.435 175.345C470.117 175.254 469.749 175.158 469.33 175.056C468.797 174.92 468.338 174.79 467.953 174.665C467.567 174.54 467.25 174.393 467.001 174.223C466.751 174.053 466.57 173.849 466.457 173.611C466.343 173.373 466.287 173.078 466.287 172.727C466.287 172.285 466.372 171.894 466.542 171.554C466.723 171.203 466.967 170.914 467.273 170.687C467.579 170.449 467.936 170.273 468.344 170.16C468.763 170.035 469.211 169.973 469.687 169.973C470.355 169.973 470.979 170.081 471.557 170.296C472.135 170.511 472.622 170.795 473.019 171.146L472.339 172.047C471.965 171.718 471.545 171.475 471.081 171.316C470.616 171.146 470.14 171.061 469.653 171.061C469.109 171.061 468.644 171.18 468.259 171.418C467.885 171.645 467.698 172.013 467.698 172.523C467.698 172.727 467.732 172.897 467.8 173.033C467.879 173.169 468.004 173.288 468.174 173.39C468.344 173.492 468.559 173.583 468.82 173.662C469.092 173.741 469.415 173.826 469.789 173.917C470.378 174.053 470.888 174.195 471.319 174.342C471.761 174.478 472.123 174.642 472.407 174.835C472.701 175.028 472.917 175.254 473.053 175.515C473.2 175.776 473.274 176.093 473.274 176.467C473.274 177.294 472.956 177.952 472.322 178.439C471.687 178.926 470.831 179.17 469.755 179.17ZM479.634 178.558C479.543 178.603 479.424 178.66 479.277 178.728C479.13 178.785 478.96 178.847 478.767 178.915C478.586 178.972 478.382 179.017 478.155 179.051C477.94 179.096 477.713 179.119 477.475 179.119C476.931 179.119 476.461 178.972 476.064 178.677C475.667 178.371 475.469 177.901 475.469 177.266V171.299H474.262V170.126H475.469V167.168H476.965V170.126H478.954V171.299H476.965V176.807C476.988 177.136 477.095 177.374 477.288 177.521C477.481 177.668 477.707 177.742 477.968 177.742C478.263 177.742 478.529 177.697 478.767 177.606C479.016 177.504 479.186 177.425 479.277 177.368L479.634 178.558ZM200.149 190.29H195.984V201H194.454V190.29H190.289V188.93H200.149V190.29ZM203.684 201.17C203.015 201.17 202.403 201.051 201.848 200.813C201.292 200.564 200.816 200.229 200.42 199.81C200.023 199.391 199.711 198.903 199.485 198.348C199.269 197.781 199.162 197.186 199.162 196.563C199.162 195.94 199.269 195.35 199.485 194.795C199.711 194.24 200.023 193.752 200.42 193.333C200.828 192.914 201.309 192.585 201.865 192.347C202.42 192.098 203.032 191.973 203.701 191.973C204.369 191.973 204.976 192.098 205.52 192.347C206.075 192.596 206.545 192.931 206.931 193.35C207.316 193.758 207.611 194.24 207.815 194.795C208.03 195.339 208.138 195.906 208.138 196.495C208.138 196.62 208.132 196.733 208.121 196.835C208.121 196.937 208.115 197.016 208.104 197.073H200.743C200.777 197.515 200.879 197.917 201.049 198.28C201.219 198.643 201.44 198.954 201.712 199.215C201.984 199.476 202.29 199.68 202.63 199.827C202.981 199.974 203.349 200.048 203.735 200.048C204.007 200.048 204.273 200.014 204.534 199.946C204.794 199.867 205.038 199.765 205.265 199.64C205.491 199.515 205.69 199.362 205.86 199.181C206.041 199 206.177 198.796 206.268 198.569L207.56 198.926C207.412 199.255 207.208 199.555 206.948 199.827C206.698 200.099 206.404 200.337 206.064 200.541C205.735 200.734 205.367 200.887 204.959 201C204.551 201.113 204.126 201.17 203.684 201.17ZM206.727 195.968C206.693 195.549 206.585 195.163 206.404 194.812C206.234 194.449 206.013 194.143 205.741 193.894C205.48 193.645 205.174 193.452 204.823 193.316C204.471 193.169 204.097 193.095 203.701 193.095C203.304 193.095 202.93 193.169 202.579 193.316C202.227 193.452 201.916 193.65 201.644 193.911C201.383 194.16 201.168 194.461 200.998 194.812C200.839 195.163 200.743 195.549 200.709 195.968H206.727ZM209.206 196.546C209.206 195.923 209.313 195.333 209.529 194.778C209.744 194.223 210.05 193.741 210.447 193.333C210.843 192.914 211.314 192.585 211.858 192.347C212.413 192.098 213.031 191.973 213.711 191.973C214.595 191.973 215.354 192.171 215.989 192.568C216.635 192.953 217.122 193.475 217.451 194.132L215.989 194.591C215.762 194.172 215.445 193.849 215.037 193.622C214.629 193.384 214.175 193.265 213.677 193.265C213.269 193.265 212.883 193.35 212.521 193.52C212.158 193.679 211.846 193.905 211.586 194.2C211.325 194.495 211.115 194.84 210.957 195.237C210.809 195.634 210.736 196.07 210.736 196.546C210.736 197.011 210.815 197.447 210.974 197.855C211.132 198.263 211.342 198.62 211.603 198.926C211.875 199.221 212.186 199.453 212.538 199.623C212.9 199.793 213.286 199.878 213.694 199.878C213.954 199.878 214.209 199.844 214.459 199.776C214.719 199.697 214.952 199.595 215.156 199.47C215.371 199.345 215.558 199.204 215.717 199.045C215.875 198.875 215.989 198.694 216.057 198.501L217.519 198.943C217.383 199.272 217.19 199.572 216.941 199.844C216.703 200.116 216.419 200.348 216.091 200.541C215.762 200.734 215.394 200.887 214.986 201C214.589 201.113 214.17 201.17 213.728 201.17C213.059 201.17 212.447 201.045 211.892 200.796C211.336 200.547 210.86 200.212 210.464 199.793C210.067 199.374 209.755 198.886 209.529 198.331C209.313 197.764 209.206 197.169 209.206 196.546ZM226.915 201H225.419V196.036C225.419 195.118 225.26 194.438 224.943 193.996C224.626 193.543 224.161 193.316 223.549 193.316C223.254 193.316 222.96 193.378 222.665 193.503C222.37 193.616 222.093 193.775 221.832 193.979C221.583 194.183 221.356 194.427 221.152 194.71C220.959 194.993 220.812 195.305 220.71 195.645V201H219.214V188.59H220.71V194.03C221.061 193.384 221.537 192.88 222.138 192.517C222.739 192.154 223.396 191.973 224.11 191.973C224.631 191.973 225.073 192.069 225.436 192.262C225.799 192.455 226.088 192.715 226.303 193.044C226.518 193.373 226.671 193.769 226.762 194.234C226.864 194.687 226.915 195.175 226.915 195.696V201ZM236.942 201H235.446V196.036C235.446 195.084 235.299 194.393 235.004 193.962C234.721 193.531 234.285 193.316 233.695 193.316C233.389 193.316 233.083 193.378 232.777 193.503C232.471 193.616 232.182 193.775 231.91 193.979C231.638 194.183 231.4 194.427 231.196 194.71C230.992 194.993 230.839 195.305 230.737 195.645V201H229.241V192.126H230.601V194.03C230.953 193.407 231.457 192.908 232.114 192.534C232.783 192.16 233.508 191.973 234.29 191.973C234.8 191.973 235.225 192.069 235.565 192.262C235.905 192.443 236.177 192.704 236.381 193.044C236.585 193.373 236.727 193.764 236.806 194.217C236.897 194.67 236.942 195.163 236.942 195.696V201ZM243.145 201.17C242.476 201.17 241.864 201.045 241.309 200.796C240.765 200.547 240.294 200.212 239.898 199.793C239.512 199.374 239.212 198.886 238.997 198.331C238.781 197.776 238.674 197.192 238.674 196.58C238.674 195.957 238.781 195.367 238.997 194.812C239.223 194.257 239.529 193.769 239.915 193.35C240.311 192.931 240.782 192.596 241.326 192.347C241.881 192.098 242.487 191.973 243.145 191.973C243.802 191.973 244.408 192.098 244.964 192.347C245.519 192.596 245.989 192.931 246.375 193.35C246.771 193.769 247.077 194.257 247.293 194.812C247.519 195.367 247.633 195.957 247.633 196.58C247.633 197.192 247.525 197.776 247.31 198.331C247.094 198.886 246.788 199.374 246.392 199.793C245.995 200.212 245.519 200.547 244.964 200.796C244.42 201.045 243.813 201.17 243.145 201.17ZM240.204 196.597C240.204 197.062 240.277 197.492 240.425 197.889C240.583 198.286 240.793 198.631 241.054 198.926C241.326 199.221 241.637 199.453 241.989 199.623C242.351 199.793 242.737 199.878 243.145 199.878C243.553 199.878 243.932 199.793 244.284 199.623C244.646 199.453 244.964 199.221 245.236 198.926C245.508 198.62 245.717 198.269 245.865 197.872C246.023 197.464 246.103 197.028 246.103 196.563C246.103 196.11 246.023 195.685 245.865 195.288C245.717 194.88 245.508 194.529 245.236 194.234C244.964 193.928 244.646 193.69 244.284 193.52C243.932 193.35 243.553 193.265 243.145 193.265C242.737 193.265 242.351 193.356 241.989 193.537C241.637 193.707 241.326 193.945 241.054 194.251C240.793 194.546 240.583 194.897 240.425 195.305C240.277 195.702 240.204 196.132 240.204 196.597ZM249.479 188.59H250.975V198.705C250.975 199.034 251.06 199.294 251.23 199.487C251.412 199.668 251.661 199.759 251.978 199.759C252.103 199.759 252.25 199.742 252.42 199.708C252.59 199.663 252.749 199.612 252.896 199.555L253.134 200.762C252.885 200.864 252.59 200.949 252.25 201.017C251.91 201.085 251.61 201.119 251.349 201.119C250.771 201.119 250.312 200.955 249.972 200.626C249.644 200.297 249.479 199.838 249.479 199.249V188.59ZM258.186 201.17C257.517 201.17 256.905 201.045 256.35 200.796C255.806 200.547 255.335 200.212 254.939 199.793C254.553 199.374 254.253 198.886 254.038 198.331C253.822 197.776 253.715 197.192 253.715 196.58C253.715 195.957 253.822 195.367 254.038 194.812C254.264 194.257 254.57 193.769 254.956 193.35C255.352 192.931 255.823 192.596 256.367 192.347C256.922 192.098 257.528 191.973 258.186 191.973C258.843 191.973 259.449 192.098 260.005 192.347C260.56 192.596 261.03 192.931 261.416 193.35C261.812 193.769 262.118 194.257 262.334 194.812C262.56 195.367 262.674 195.957 262.674 196.58C262.674 197.192 262.566 197.776 262.351 198.331C262.135 198.886 261.829 199.374 261.433 199.793C261.036 200.212 260.56 200.547 260.005 200.796C259.461 201.045 258.854 201.17 258.186 201.17ZM255.245 196.597C255.245 197.062 255.318 197.492 255.466 197.889C255.624 198.286 255.834 198.631 256.095 198.926C256.367 199.221 256.678 199.453 257.03 199.623C257.392 199.793 257.778 199.878 258.186 199.878C258.594 199.878 258.973 199.793 259.325 199.623C259.687 199.453 260.005 199.221 260.277 198.926C260.549 198.62 260.758 198.269 260.906 197.872C261.064 197.464 261.144 197.028 261.144 196.563C261.144 196.11 261.064 195.685 260.906 195.288C260.758 194.88 260.549 194.529 260.277 194.234C260.005 193.928 259.687 193.69 259.325 193.52C258.973 193.35 258.594 193.265 258.186 193.265C257.778 193.265 257.392 193.356 257.03 193.537C256.678 193.707 256.367 193.945 256.095 194.251C255.834 194.546 255.624 194.897 255.466 195.305C255.318 195.702 255.245 196.132 255.245 196.597ZM268.022 201.102C267.422 201.102 266.866 200.977 266.356 200.728C265.858 200.479 265.427 200.144 265.064 199.725C264.702 199.306 264.418 198.824 264.214 198.28C264.022 197.736 263.925 197.169 263.925 196.58C263.925 195.957 264.022 195.367 264.214 194.812C264.418 194.245 264.702 193.752 265.064 193.333C265.427 192.914 265.858 192.585 266.356 192.347C266.866 192.098 267.427 191.973 268.039 191.973C268.787 191.973 269.433 192.154 269.977 192.517C270.521 192.88 270.98 193.339 271.354 193.894V192.126H272.68V200.898C272.68 201.533 272.561 202.088 272.323 202.564C272.085 203.051 271.762 203.459 271.354 203.788C270.946 204.117 270.465 204.366 269.909 204.536C269.365 204.706 268.782 204.791 268.158 204.791C267.15 204.791 266.328 204.615 265.693 204.264C265.07 203.924 264.549 203.448 264.129 202.836L264.996 202.071C265.348 202.592 265.801 202.983 266.356 203.244C266.912 203.505 267.512 203.635 268.158 203.635C268.566 203.635 268.952 203.578 269.314 203.465C269.688 203.352 270.011 203.182 270.283 202.955C270.555 202.728 270.771 202.445 270.929 202.105C271.099 201.765 271.184 201.363 271.184 200.898V199.334C271.014 199.606 270.81 199.855 270.572 200.082C270.346 200.297 270.096 200.484 269.824 200.643C269.552 200.79 269.263 200.904 268.957 200.983C268.651 201.062 268.34 201.102 268.022 201.102ZM268.481 199.878C268.799 199.878 269.105 199.821 269.399 199.708C269.694 199.595 269.966 199.447 270.215 199.266C270.465 199.073 270.674 198.858 270.844 198.62C271.014 198.382 271.128 198.138 271.184 197.889V195.339C271.06 195.033 270.895 194.755 270.691 194.506C270.499 194.257 270.278 194.041 270.028 193.86C269.779 193.667 269.507 193.52 269.212 193.418C268.929 193.316 268.64 193.265 268.345 193.265C267.892 193.265 267.484 193.361 267.121 193.554C266.77 193.747 266.47 194.002 266.22 194.319C265.971 194.636 265.778 194.999 265.642 195.407C265.506 195.804 265.438 196.206 265.438 196.614C265.438 197.056 265.518 197.475 265.676 197.872C265.835 198.269 266.05 198.614 266.322 198.909C266.594 199.204 266.912 199.442 267.274 199.623C267.648 199.793 268.051 199.878 268.481 199.878ZM275.503 203.414C275.65 203.437 275.797 203.454 275.945 203.465C276.092 203.476 276.205 203.482 276.285 203.482C276.421 203.482 276.54 203.448 276.642 203.38C276.755 203.323 276.863 203.204 276.965 203.023C277.078 202.842 277.203 202.587 277.339 202.258C277.475 201.941 277.645 201.521 277.849 201L274.092 192.126H275.639L278.665 199.657L281.419 192.126H282.847L278.529 203.329C278.37 203.726 278.104 204.071 277.73 204.366C277.367 204.672 276.863 204.825 276.217 204.825C276.115 204.825 276.007 204.819 275.894 204.808C275.792 204.797 275.661 204.774 275.503 204.74V203.414ZM296.621 190.29H292.456V201H290.926V190.29H286.761V188.93H296.621V190.29ZM301.435 193.435C300.687 193.458 300.024 193.65 299.446 194.013C298.879 194.376 298.477 194.88 298.239 195.526V201H296.743V192.126H298.137V194.183C298.443 193.571 298.845 193.078 299.344 192.704C299.843 192.319 300.375 192.103 300.942 192.058C301.055 192.058 301.152 192.058 301.231 192.058C301.31 192.058 301.378 192.064 301.435 192.075V193.435ZM306.647 201.17C305.978 201.17 305.366 201.051 304.811 200.813C304.255 200.564 303.779 200.229 303.383 199.81C302.986 199.391 302.674 198.903 302.448 198.348C302.232 197.781 302.125 197.186 302.125 196.563C302.125 195.94 302.232 195.35 302.448 194.795C302.674 194.24 302.986 193.752 303.383 193.333C303.791 192.914 304.272 192.585 304.828 192.347C305.383 192.098 305.995 191.973 306.664 191.973C307.332 191.973 307.939 192.098 308.483 192.347C309.038 192.596 309.508 192.931 309.894 193.35C310.279 193.758 310.574 194.24 310.778 194.795C310.993 195.339 311.101 195.906 311.101 196.495C311.101 196.62 311.095 196.733 311.084 196.835C311.084 196.937 311.078 197.016 311.067 197.073H303.706C303.74 197.515 303.842 197.917 304.012 198.28C304.182 198.643 304.403 198.954 304.675 199.215C304.947 199.476 305.253 199.68 305.593 199.827C305.944 199.974 306.312 200.048 306.698 200.048C306.97 200.048 307.236 200.014 307.497 199.946C307.757 199.867 308.001 199.765 308.228 199.64C308.454 199.515 308.653 199.362 308.823 199.181C309.004 199 309.14 198.796 309.231 198.569L310.523 198.926C310.375 199.255 310.171 199.555 309.911 199.827C309.661 200.099 309.367 200.337 309.027 200.541C308.698 200.734 308.33 200.887 307.922 201C307.514 201.113 307.089 201.17 306.647 201.17ZM309.69 195.968C309.656 195.549 309.548 195.163 309.367 194.812C309.197 194.449 308.976 194.143 308.704 193.894C308.443 193.645 308.137 193.452 307.786 193.316C307.434 193.169 307.06 193.095 306.664 193.095C306.267 193.095 305.893 193.169 305.542 193.316C305.19 193.452 304.879 193.65 304.607 193.911C304.346 194.16 304.131 194.461 303.961 194.812C303.802 195.163 303.706 195.549 303.672 195.968H309.69ZM320.465 201H318.969V196.036C318.969 195.084 318.821 194.393 318.527 193.962C318.243 193.531 317.807 193.316 317.218 193.316C316.912 193.316 316.606 193.378 316.3 193.503C315.994 193.616 315.705 193.775 315.433 193.979C315.161 194.183 314.923 194.427 314.719 194.71C314.515 194.993 314.362 195.305 314.26 195.645V201H312.764V192.126H314.124V194.03C314.475 193.407 314.979 192.908 315.637 192.534C316.305 192.16 317.031 191.973 317.813 191.973C318.323 191.973 318.748 192.069 319.088 192.262C319.428 192.443 319.7 192.704 319.904 193.044C320.108 193.373 320.249 193.764 320.329 194.217C320.419 194.67 320.465 195.163 320.465 195.696V201ZM326.446 201.17C325.834 201.17 325.267 201.045 324.746 200.796C324.225 200.547 323.777 200.212 323.403 199.793C323.029 199.374 322.734 198.886 322.519 198.331C322.315 197.776 322.213 197.192 322.213 196.58C322.213 195.957 322.309 195.367 322.502 194.812C322.706 194.245 322.984 193.752 323.335 193.333C323.698 192.914 324.123 192.585 324.61 192.347C325.109 192.098 325.653 191.973 326.242 191.973C326.956 191.973 327.591 192.16 328.146 192.534C328.713 192.908 329.16 193.361 329.489 193.894V188.59H330.985V199.164C330.985 199.515 331.144 199.697 331.461 199.708V201C331.302 201.023 331.172 201.04 331.07 201.051C330.979 201.062 330.889 201.068 330.798 201.068C330.503 201.068 330.243 200.972 330.016 200.779C329.801 200.575 329.693 200.343 329.693 200.082V199.334C329.342 199.912 328.871 200.365 328.282 200.694C327.704 201.011 327.092 201.17 326.446 201.17ZM326.803 199.878C327.075 199.878 327.353 199.827 327.636 199.725C327.931 199.623 328.203 199.481 328.452 199.3C328.713 199.119 328.934 198.909 329.115 198.671C329.308 198.422 329.432 198.161 329.489 197.889V195.339C329.387 195.056 329.234 194.789 329.03 194.54C328.826 194.279 328.594 194.058 328.333 193.877C328.084 193.684 327.812 193.537 327.517 193.435C327.234 193.322 326.95 193.265 326.667 193.265C326.225 193.265 325.823 193.361 325.46 193.554C325.109 193.735 324.803 193.985 324.542 194.302C324.293 194.608 324.1 194.965 323.964 195.373C323.828 195.77 323.76 196.178 323.76 196.597C323.76 197.039 323.839 197.464 323.998 197.872C324.157 198.269 324.372 198.614 324.644 198.909C324.916 199.204 325.233 199.442 325.596 199.623C325.97 199.793 326.372 199.878 326.803 199.878ZM336.593 201.17C335.879 201.17 335.177 201.062 334.485 200.847C333.794 200.62 333.199 200.297 332.7 199.878L333.346 198.875C333.868 199.272 334.389 199.572 334.91 199.776C335.432 199.969 335.981 200.065 336.559 200.065C337.205 200.065 337.715 199.94 338.089 199.691C338.475 199.43 338.667 199.068 338.667 198.603C338.667 198.388 338.616 198.206 338.514 198.059C338.412 197.9 338.259 197.764 338.055 197.651C337.851 197.538 337.591 197.436 337.273 197.345C336.956 197.254 336.588 197.158 336.168 197.056C335.636 196.92 335.177 196.79 334.791 196.665C334.406 196.54 334.089 196.393 333.839 196.223C333.59 196.053 333.409 195.849 333.295 195.611C333.182 195.373 333.125 195.078 333.125 194.727C333.125 194.285 333.21 193.894 333.38 193.554C333.562 193.203 333.805 192.914 334.111 192.687C334.417 192.449 334.774 192.273 335.182 192.16C335.602 192.035 336.049 191.973 336.525 191.973C337.194 191.973 337.817 192.081 338.395 192.296C338.973 192.511 339.461 192.795 339.857 193.146L339.177 194.047C338.803 193.718 338.384 193.475 337.919 193.316C337.455 193.146 336.979 193.061 336.491 193.061C335.947 193.061 335.483 193.18 335.097 193.418C334.723 193.645 334.536 194.013 334.536 194.523C334.536 194.727 334.57 194.897 334.638 195.033C334.718 195.169 334.842 195.288 335.012 195.39C335.182 195.492 335.398 195.583 335.658 195.662C335.93 195.741 336.253 195.826 336.627 195.917C337.217 196.053 337.727 196.195 338.157 196.342C338.599 196.478 338.962 196.642 339.245 196.835C339.54 197.028 339.755 197.254 339.891 197.515C340.039 197.776 340.112 198.093 340.112 198.467C340.112 199.294 339.795 199.952 339.16 200.439C338.526 200.926 337.67 201.17 336.593 201.17ZM346.183 201V192.126H347.679V201H346.183ZM346.183 190.46V188.59H347.679V190.46H346.183ZM357.802 201H356.306V196.036C356.306 195.084 356.158 194.393 355.864 193.962C355.58 193.531 355.144 193.316 354.555 193.316C354.249 193.316 353.943 193.378 353.637 193.503C353.331 193.616 353.042 193.775 352.77 193.979C352.498 194.183 352.26 194.427 352.056 194.71C351.852 194.993 351.699 195.305 351.597 195.645V201H350.101V192.126H351.461V194.03C351.812 193.407 352.316 192.908 352.974 192.534C353.642 192.16 354.368 191.973 355.15 191.973C355.66 191.973 356.085 192.069 356.425 192.262C356.765 192.443 357.037 192.704 357.241 193.044C357.445 193.373 357.586 193.764 357.666 194.217C357.756 194.67 357.802 195.163 357.802 195.696V201ZM364.666 201V188.93H368.848C369.811 188.93 370.655 189.089 371.381 189.406C372.117 189.723 372.729 190.154 373.217 190.698C373.704 191.242 374.067 191.882 374.305 192.619C374.554 193.344 374.679 194.121 374.679 194.948C374.679 195.866 374.543 196.699 374.271 197.447C373.999 198.184 373.608 198.818 373.098 199.351C372.588 199.872 371.97 200.28 371.245 200.575C370.531 200.858 369.732 201 368.848 201H364.666ZM373.132 194.948C373.132 194.268 373.035 193.645 372.843 193.078C372.661 192.5 372.384 192.007 372.01 191.599C371.647 191.191 371.199 190.874 370.667 190.647C370.134 190.409 369.528 190.29 368.848 190.29H366.196V199.64H368.848C369.539 199.64 370.151 199.521 370.684 199.283C371.228 199.045 371.675 198.716 372.027 198.297C372.389 197.878 372.661 197.385 372.843 196.818C373.035 196.24 373.132 195.617 373.132 194.948ZM378.792 201.17C378.372 201.17 377.981 201.102 377.619 200.966C377.256 200.819 376.939 200.62 376.667 200.371C376.406 200.122 376.196 199.833 376.038 199.504C375.89 199.164 375.817 198.796 375.817 198.399C375.817 197.991 375.907 197.623 376.089 197.294C376.27 196.954 376.525 196.665 376.854 196.427C377.194 196.189 377.59 196.002 378.044 195.866C378.508 195.73 379.013 195.662 379.557 195.662C379.987 195.662 380.424 195.702 380.866 195.781C381.308 195.86 381.699 195.968 382.039 196.104V195.39C382.039 194.665 381.835 194.098 381.427 193.69C381.019 193.271 380.441 193.061 379.693 193.061C378.797 193.061 377.857 193.407 376.871 194.098L376.378 193.129C377.522 192.358 378.673 191.973 379.829 191.973C380.996 191.973 381.903 192.285 382.549 192.908C383.206 193.531 383.535 194.41 383.535 195.543V199.164C383.535 199.515 383.693 199.697 384.011 199.708V201C383.852 201.023 383.722 201.04 383.62 201.051C383.518 201.062 383.41 201.068 383.297 201.068C383.002 201.068 382.764 200.983 382.583 200.813C382.413 200.632 382.311 200.416 382.277 200.167L382.243 199.538C381.846 200.071 381.342 200.479 380.73 200.762C380.129 201.034 379.483 201.17 378.792 201.17ZM379.183 200.048C379.715 200.048 380.208 199.952 380.662 199.759C381.126 199.555 381.478 199.289 381.716 198.96C381.931 198.745 382.039 198.524 382.039 198.297V196.988C381.313 196.705 380.56 196.563 379.778 196.563C379.03 196.563 378.418 196.722 377.942 197.039C377.477 197.356 377.245 197.77 377.245 198.28C377.245 198.529 377.29 198.762 377.381 198.977C377.483 199.192 377.619 199.379 377.789 199.538C377.97 199.697 378.18 199.821 378.418 199.912C378.656 200.003 378.911 200.048 379.183 200.048ZM390.619 193.435C389.871 193.458 389.208 193.65 388.63 194.013C388.063 194.376 387.661 194.88 387.423 195.526V201H385.927V192.126H387.321V194.183C387.627 193.571 388.029 193.078 388.528 192.704C389.026 192.319 389.559 192.103 390.126 192.058C390.239 192.058 390.335 192.058 390.415 192.058C390.494 192.058 390.562 192.064 390.619 192.075V193.435ZM392.103 201V192.126H393.599V201H392.103ZM392.103 190.46V188.59H393.599V190.46H392.103ZM394.881 204.162C394.485 204.162 394.116 204.105 393.776 203.992C393.425 203.879 393.113 203.697 392.841 203.448L393.538 202.445C393.697 202.592 393.884 202.694 394.099 202.751C394.303 202.808 394.507 202.836 394.711 202.836C394.893 202.836 395.068 202.796 395.238 202.717C395.408 202.649 395.561 202.553 395.697 202.428C395.833 202.303 395.941 202.15 396.02 201.969C396.1 201.788 396.139 201.595 396.139 201.391V192.126H397.635V201.289C397.635 201.708 397.556 202.094 397.397 202.445C397.25 202.796 397.046 203.097 396.785 203.346C396.536 203.607 396.247 203.805 395.918 203.941C395.59 204.088 395.244 204.162 394.881 204.162ZM396.139 190.46V188.59H397.635V190.46H396.139ZM402.333 201.17C401.913 201.17 401.522 201.102 401.16 200.966C400.797 200.819 400.48 200.62 400.208 200.371C399.947 200.122 399.737 199.833 399.579 199.504C399.431 199.164 399.358 198.796 399.358 198.399C399.358 197.991 399.448 197.623 399.63 197.294C399.811 196.954 400.066 196.665 400.395 196.427C400.735 196.189 401.131 196.002 401.585 195.866C402.049 195.73 402.554 195.662 403.098 195.662C403.528 195.662 403.965 195.702 404.407 195.781C404.849 195.86 405.24 195.968 405.58 196.104V195.39C405.58 194.665 405.376 194.098 404.968 193.69C404.56 193.271 403.982 193.061 403.234 193.061C402.338 193.061 401.398 193.407 400.412 194.098L399.919 193.129C401.063 192.358 402.214 191.973 403.37 191.973C404.537 191.973 405.444 192.285 406.09 192.908C406.747 193.531 407.076 194.41 407.076 195.543V199.164C407.076 199.515 407.234 199.697 407.552 199.708V201C407.393 201.023 407.263 201.04 407.161 201.051C407.059 201.062 406.951 201.068 406.838 201.068C406.543 201.068 406.305 200.983 406.124 200.813C405.954 200.632 405.852 200.416 405.818 200.167L405.784 199.538C405.387 200.071 404.883 200.479 404.271 200.762C403.67 201.034 403.024 201.17 402.333 201.17ZM402.724 200.048C403.256 200.048 403.749 199.952 404.203 199.759C404.667 199.555 405.019 199.289 405.257 198.96C405.472 198.745 405.58 198.524 405.58 198.297V196.988C404.854 196.705 404.101 196.563 403.319 196.563C402.571 196.563 401.959 196.722 401.483 197.039C401.018 197.356 400.786 197.77 400.786 198.28C400.786 198.529 400.831 198.762 400.922 198.977C401.024 199.192 401.16 199.379 401.33 199.538C401.511 199.697 401.721 199.821 401.959 199.912C402.197 200.003 402.452 200.048 402.724 200.048ZM409.349 201V199.096H410.607V201H409.349Z" fill="#E3DDFC"/>
<path d="M191.068 228V219.48H194.596C194.964 219.48 195.3 219.56 195.604 219.72C195.916 219.872 196.184 220.076 196.408 220.332C196.632 220.58 196.808 220.864 196.936 221.184C197.064 221.504 197.128 221.828 197.128 222.156C197.128 222.508 197.068 222.848 196.948 223.176C196.828 223.496 196.66 223.78 196.444 224.028C196.228 224.276 195.968 224.476 195.664 224.628C195.368 224.78 195.036 224.856 194.668 224.856H191.908V228H191.068ZM191.908 224.112H194.632C194.88 224.112 195.104 224.06 195.304 223.956C195.512 223.844 195.688 223.7 195.832 223.524C195.976 223.34 196.088 223.132 196.168 222.9C196.248 222.66 196.288 222.412 196.288 222.156C196.288 221.892 196.24 221.644 196.144 221.412C196.056 221.172 195.932 220.964 195.772 220.788C195.62 220.612 195.436 220.476 195.22 220.38C195.012 220.276 194.792 220.224 194.56 220.224H191.908V224.112ZM200.923 228.12C200.467 228.12 200.051 228.036 199.675 227.868C199.299 227.692 198.971 227.456 198.691 227.16C198.419 226.864 198.207 226.52 198.055 226.128C197.903 225.736 197.827 225.324 197.827 224.892C197.827 224.452 197.903 224.036 198.055 223.644C198.215 223.252 198.431 222.908 198.703 222.612C198.983 222.316 199.311 222.08 199.687 221.904C200.063 221.728 200.475 221.64 200.923 221.64C201.371 221.64 201.783 221.728 202.159 221.904C202.543 222.08 202.871 222.316 203.143 222.612C203.423 222.908 203.639 223.252 203.791 223.644C203.951 224.036 204.031 224.452 204.031 224.892C204.031 225.324 203.955 225.736 203.803 226.128C203.651 226.52 203.435 226.864 203.155 227.16C202.883 227.456 202.555 227.692 202.171 227.868C201.795 228.036 201.379 228.12 200.923 228.12ZM198.655 224.904C198.655 225.256 198.715 225.584 198.835 225.888C198.955 226.184 199.115 226.448 199.315 226.68C199.523 226.904 199.763 227.08 200.035 227.208C200.315 227.336 200.611 227.4 200.923 227.4C201.235 227.4 201.527 227.336 201.799 227.208C202.079 227.072 202.323 226.892 202.531 226.668C202.739 226.436 202.903 226.168 203.023 225.864C203.143 225.56 203.203 225.232 203.203 224.88C203.203 224.536 203.143 224.212 203.023 223.908C202.903 223.596 202.739 223.328 202.531 223.104C202.323 222.872 202.079 222.692 201.799 222.564C201.527 222.428 201.235 222.36 200.923 222.36C200.611 222.36 200.319 222.428 200.047 222.564C199.775 222.692 199.535 222.872 199.327 223.104C199.119 223.336 198.955 223.608 198.835 223.92C198.715 224.224 198.655 224.552 198.655 224.904ZM213.045 221.748H213.849L211.161 228H210.489L209.145 224.808L207.813 228H207.141L204.453 221.748H205.245L207.525 227.16L208.713 224.304L207.645 221.76H208.329L209.145 223.8L209.961 221.76H210.657L209.589 224.304L210.777 227.16L213.045 221.748ZM217.413 228.12C216.957 228.12 216.537 228.036 216.153 227.868C215.777 227.692 215.449 227.456 215.169 227.16C214.889 226.856 214.669 226.508 214.509 226.116C214.357 225.724 214.281 225.304 214.281 224.856C214.281 224.416 214.357 224.004 214.509 223.62C214.669 223.228 214.885 222.888 215.157 222.6C215.437 222.304 215.769 222.072 216.153 221.904C216.537 221.728 216.953 221.64 217.401 221.64C217.857 221.64 218.273 221.728 218.649 221.904C219.033 222.072 219.361 222.304 219.633 222.6C219.905 222.896 220.117 223.236 220.269 223.62C220.421 224.004 220.497 224.412 220.497 224.844C220.497 224.908 220.497 224.972 220.497 225.036C220.497 225.1 220.493 225.144 220.485 225.168H215.133C215.157 225.504 215.233 225.816 215.361 226.104C215.497 226.384 215.669 226.628 215.877 226.836C216.085 227.044 216.321 227.208 216.585 227.328C216.857 227.44 217.145 227.496 217.449 227.496C217.649 227.496 217.849 227.468 218.049 227.412C218.249 227.356 218.433 227.28 218.601 227.184C218.769 227.088 218.921 226.972 219.057 226.836C219.193 226.692 219.297 226.536 219.369 226.368L220.077 226.56C219.981 226.792 219.845 227.004 219.669 227.196C219.493 227.38 219.289 227.544 219.057 227.688C218.825 227.824 218.569 227.928 218.289 228C218.009 228.08 217.717 228.12 217.413 228.12ZM219.717 224.544C219.693 224.208 219.613 223.904 219.477 223.632C219.349 223.352 219.181 223.112 218.973 222.912C218.773 222.712 218.537 222.556 218.265 222.444C218.001 222.332 217.717 222.276 217.413 222.276C217.109 222.276 216.821 222.332 216.549 222.444C216.277 222.556 216.037 222.712 215.829 222.912C215.629 223.112 215.465 223.352 215.337 223.632C215.217 223.912 215.145 224.216 215.121 224.544H219.717ZM224.875 222.468C224.323 222.484 223.843 222.636 223.435 222.924C223.027 223.212 222.739 223.608 222.571 224.112V228H221.755V221.748H222.523V223.248C222.755 222.768 223.067 222.392 223.459 222.12C223.851 221.848 224.271 221.712 224.719 221.712C224.783 221.712 224.835 221.716 224.875 221.724V222.468ZM228.346 228.12C227.89 228.12 227.47 228.036 227.086 227.868C226.71 227.692 226.382 227.456 226.102 227.16C225.822 226.856 225.602 226.508 225.442 226.116C225.29 225.724 225.214 225.304 225.214 224.856C225.214 224.416 225.29 224.004 225.442 223.62C225.602 223.228 225.818 222.888 226.09 222.6C226.37 222.304 226.702 222.072 227.086 221.904C227.47 221.728 227.886 221.64 228.334 221.64C228.79 221.64 229.206 221.728 229.582 221.904C229.966 222.072 230.294 222.304 230.566 222.6C230.838 222.896 231.05 223.236 231.202 223.62C231.354 224.004 231.43 224.412 231.43 224.844C231.43 224.908 231.43 224.972 231.43 225.036C231.43 225.1 231.426 225.144 231.418 225.168H226.066C226.09 225.504 226.166 225.816 226.294 226.104C226.43 226.384 226.602 226.628 226.81 226.836C227.018 227.044 227.254 227.208 227.518 227.328C227.79 227.44 228.078 227.496 228.382 227.496C228.582 227.496 228.782 227.468 228.982 227.412C229.182 227.356 229.366 227.28 229.534 227.184C229.702 227.088 229.854 226.972 229.99 226.836C230.126 226.692 230.23 226.536 230.302 226.368L231.01 226.56C230.914 226.792 230.778 227.004 230.602 227.196C230.426 227.38 230.222 227.544 229.99 227.688C229.758 227.824 229.502 227.928 229.222 228C228.942 228.08 228.65 228.12 228.346 228.12ZM230.65 224.544C230.626 224.208 230.546 223.904 230.41 223.632C230.282 223.352 230.114 223.112 229.906 222.912C229.706 222.712 229.47 222.556 229.198 222.444C228.934 222.332 228.65 222.276 228.346 222.276C228.042 222.276 227.754 222.332 227.482 222.444C227.21 222.556 226.97 222.712 226.762 222.912C226.562 223.112 226.398 223.352 226.27 223.632C226.15 223.912 226.078 224.216 226.054 224.544H230.65ZM235.257 228.12C234.825 228.12 234.425 228.032 234.057 227.856C233.689 227.672 233.373 227.432 233.109 227.136C232.845 226.84 232.637 226.5 232.485 226.116C232.341 225.724 232.269 225.316 232.269 224.892C232.269 224.452 232.341 224.036 232.485 223.644C232.629 223.244 232.825 222.896 233.073 222.6C233.329 222.304 233.629 222.072 233.973 221.904C234.325 221.728 234.709 221.64 235.125 221.64C235.653 221.64 236.121 221.78 236.529 222.06C236.937 222.332 237.257 222.664 237.489 223.056V219.24H238.305V226.944C238.305 227.168 238.401 227.28 238.593 227.28V228C238.473 228.024 238.377 228.036 238.305 228.036C238.113 228.036 237.945 227.976 237.801 227.856C237.657 227.728 237.585 227.576 237.585 227.4V226.788C237.337 227.196 237.001 227.52 236.577 227.76C236.153 228 235.713 228.12 235.257 228.12ZM235.437 227.4C235.637 227.4 235.849 227.36 236.073 227.28C236.305 227.2 236.521 227.092 236.721 226.956C236.921 226.812 237.089 226.648 237.225 226.464C237.369 226.272 237.457 226.068 237.489 225.852V223.92C237.409 223.704 237.293 223.504 237.141 223.32C236.989 223.128 236.813 222.96 236.613 222.816C236.421 222.672 236.213 222.56 235.989 222.48C235.765 222.4 235.545 222.36 235.329 222.36C234.993 222.36 234.689 222.432 234.417 222.576C234.145 222.72 233.909 222.912 233.709 223.152C233.517 223.384 233.369 223.652 233.265 223.956C233.161 224.26 233.109 224.572 233.109 224.892C233.109 225.228 233.169 225.548 233.289 225.852C233.409 226.156 233.573 226.424 233.781 226.656C233.989 226.88 234.233 227.06 234.513 227.196C234.801 227.332 235.109 227.4 235.437 227.4ZM249.331 228.12C248.835 228.12 248.379 227.996 247.963 227.748C247.555 227.5 247.235 227.18 247.003 226.788V228H246.271V219.24H247.087V223.056C247.367 222.632 247.703 222.292 248.095 222.036C248.487 221.772 248.943 221.64 249.463 221.64C249.903 221.64 250.295 221.732 250.639 221.916C250.991 222.1 251.287 222.348 251.527 222.66C251.775 222.964 251.963 223.312 252.091 223.704C252.227 224.088 252.295 224.484 252.295 224.892C252.295 225.332 252.219 225.748 252.067 226.14C251.915 226.532 251.707 226.876 251.443 227.172C251.179 227.46 250.863 227.692 250.495 227.868C250.135 228.036 249.747 228.12 249.331 228.12ZM249.139 227.4C249.483 227.4 249.795 227.332 250.075 227.196C250.363 227.052 250.607 226.864 250.807 226.632C251.015 226.392 251.175 226.124 251.287 225.828C251.407 225.524 251.467 225.212 251.467 224.892C251.467 224.564 251.411 224.248 251.299 223.944C251.195 223.64 251.043 223.372 250.843 223.14C250.651 222.9 250.415 222.712 250.135 222.576C249.863 222.432 249.563 222.36 249.235 222.36C248.987 222.36 248.755 222.404 248.539 222.492C248.323 222.572 248.123 222.684 247.939 222.828C247.755 222.972 247.591 223.14 247.447 223.332C247.303 223.516 247.183 223.712 247.087 223.92V225.864C247.119 226.08 247.203 226.284 247.339 226.476C247.483 226.66 247.651 226.82 247.843 226.956C248.043 227.092 248.255 227.2 248.479 227.28C248.711 227.36 248.931 227.4 249.139 227.4ZM253.826 229.92C253.89 229.928 253.95 229.932 254.006 229.932C254.07 229.94 254.13 229.944 254.186 229.944C254.33 229.944 254.442 229.924 254.522 229.884C254.61 229.844 254.694 229.756 254.774 229.62C254.854 229.484 254.942 229.288 255.038 229.032C255.142 228.776 255.286 228.432 255.47 228L252.746 221.748H253.586L255.902 227.244L258.05 221.748H258.83L255.59 229.812C255.502 230.044 255.354 230.244 255.146 230.412C254.946 230.588 254.67 230.676 254.318 230.676C254.238 230.676 254.162 230.672 254.09 230.664C254.018 230.664 253.93 230.656 253.826 230.64V229.92ZM269.505 222.516H267.957L267.393 224.868H269.001V225.516H267.237L266.637 228H265.941L266.553 225.516H264.285L263.685 228H262.989L263.601 225.516H262.245V224.868H263.757L264.321 222.516H262.761V221.904H264.477L265.065 219.48H265.761L265.161 221.904H267.429L268.017 219.48H268.713L268.113 221.904H269.505V222.516ZM266.709 224.868L267.273 222.516H265.005L264.441 224.868H266.709ZM271.025 228V219.48H273.917C274.597 219.48 275.189 219.592 275.693 219.816C276.205 220.04 276.629 220.344 276.965 220.728C277.309 221.112 277.565 221.564 277.733 222.084C277.909 222.596 277.997 223.144 277.997 223.728C277.997 224.376 277.901 224.964 277.709 225.492C277.517 226.012 277.241 226.46 276.881 226.836C276.529 227.204 276.101 227.492 275.597 227.7C275.101 227.9 274.541 228 273.917 228H271.025ZM277.157 223.728C277.157 223.216 277.085 222.748 276.941 222.324C276.797 221.892 276.585 221.52 276.305 221.208C276.033 220.896 275.697 220.656 275.297 220.488C274.897 220.312 274.437 220.224 273.917 220.224H271.865V227.256H273.917C274.445 227.256 274.909 227.168 275.309 226.992C275.717 226.808 276.057 226.56 276.329 226.248C276.601 225.928 276.805 225.556 276.941 225.132C277.085 224.7 277.157 224.232 277.157 223.728ZM282.135 228.12C281.679 228.12 281.259 228.036 280.875 227.868C280.499 227.692 280.171 227.456 279.891 227.16C279.611 226.856 279.391 226.508 279.231 226.116C279.079 225.724 279.003 225.304 279.003 224.856C279.003 224.416 279.079 224.004 279.231 223.62C279.391 223.228 279.607 222.888 279.879 222.6C280.159 222.304 280.491 222.072 280.875 221.904C281.259 221.728 281.675 221.64 282.123 221.64C282.579 221.64 282.995 221.728 283.371 221.904C283.755 222.072 284.083 222.304 284.355 222.6C284.627 222.896 284.839 223.236 284.991 223.62C285.143 224.004 285.219 224.412 285.219 224.844C285.219 224.908 285.219 224.972 285.219 225.036C285.219 225.1 285.215 225.144 285.207 225.168H279.855C279.879 225.504 279.955 225.816 280.083 226.104C280.219 226.384 280.391 226.628 280.599 226.836C280.807 227.044 281.043 227.208 281.307 227.328C281.579 227.44 281.867 227.496 282.171 227.496C282.371 227.496 282.571 227.468 282.771 227.412C282.971 227.356 283.155 227.28 283.323 227.184C283.491 227.088 283.643 226.972 283.779 226.836C283.915 226.692 284.019 226.536 284.091 226.368L284.799 226.56C284.703 226.792 284.567 227.004 284.391 227.196C284.215 227.38 284.011 227.544 283.779 227.688C283.547 227.824 283.291 227.928 283.011 228C282.731 228.08 282.439 228.12 282.135 228.12ZM284.439 224.544C284.415 224.208 284.335 223.904 284.199 223.632C284.071 223.352 283.903 223.112 283.695 222.912C283.495 222.712 283.259 222.556 282.987 222.444C282.723 222.332 282.439 222.276 282.135 222.276C281.831 222.276 281.543 222.332 281.271 222.444C280.999 222.556 280.759 222.712 280.551 222.912C280.351 223.112 280.187 223.352 280.059 223.632C279.939 223.912 279.867 224.216 279.843 224.544H284.439ZM288.186 228L285.642 221.748H286.482L288.63 227.244L290.79 221.748H291.582L289.038 228H288.186ZM292.317 223.68C292.317 223.168 292.405 222.66 292.581 222.156C292.765 221.644 293.029 221.188 293.373 220.788C293.717 220.388 294.141 220.064 294.645 219.816C295.149 219.56 295.721 219.432 296.361 219.432C297.121 219.432 297.769 219.604 298.305 219.948C298.849 220.292 299.249 220.74 299.505 221.292L298.845 221.7C298.709 221.42 298.541 221.184 298.341 220.992C298.149 220.8 297.941 220.644 297.717 220.524C297.493 220.404 297.261 220.32 297.021 220.272C296.781 220.216 296.545 220.188 296.313 220.188C295.801 220.188 295.349 220.292 294.957 220.5C294.565 220.708 294.233 220.98 293.961 221.316C293.697 221.652 293.497 222.032 293.361 222.456C293.225 222.872 293.157 223.296 293.157 223.728C293.157 224.2 293.237 224.652 293.396 225.084C293.565 225.516 293.789 225.9 294.069 226.236C294.357 226.564 294.693 226.828 295.077 227.028C295.469 227.22 295.893 227.316 296.349 227.316C296.589 227.316 296.833 227.288 297.081 227.232C297.337 227.168 297.581 227.072 297.812 226.944C298.053 226.808 298.273 226.644 298.473 226.452C298.673 226.252 298.841 226.012 298.977 225.732L299.673 226.092C299.537 226.412 299.345 226.696 299.097 226.944C298.849 227.184 298.573 227.388 298.269 227.556C297.965 227.724 297.641 227.852 297.297 227.94C296.961 228.028 296.629 228.072 296.301 228.072C295.717 228.072 295.181 227.944 294.693 227.688C294.205 227.432 293.785 227.1 293.433 226.692C293.081 226.276 292.805 225.808 292.604 225.288C292.413 224.76 292.317 224.224 292.317 223.68ZM300.819 228.744V228H305.391V228.744H300.819ZM314.784 228V221.004L311.676 226.416H311.184L308.076 221.004V228H307.236V219.48H308.1L311.424 225.312L314.772 219.48H315.624V228H314.784ZM320.173 228.12C319.717 228.12 319.301 228.036 318.925 227.868C318.549 227.692 318.221 227.456 317.941 227.16C317.669 226.864 317.457 226.52 317.305 226.128C317.153 225.736 317.077 225.324 317.077 224.892C317.077 224.452 317.153 224.036 317.305 223.644C317.465 223.252 317.681 222.908 317.953 222.612C318.233 222.316 318.561 222.08 318.937 221.904C319.313 221.728 319.725 221.64 320.173 221.64C320.621 221.64 321.033 221.728 321.409 221.904C321.793 222.08 322.121 222.316 322.393 222.612C322.673 222.908 322.889 223.252 323.041 223.644C323.201 224.036 323.281 224.452 323.281 224.892C323.281 225.324 323.205 225.736 323.053 226.128C322.901 226.52 322.685 226.864 322.405 227.16C322.133 227.456 321.805 227.692 321.421 227.868C321.045 228.036 320.629 228.12 320.173 228.12ZM317.905 224.904C317.905 225.256 317.965 225.584 318.085 225.888C318.205 226.184 318.365 226.448 318.565 226.68C318.773 226.904 319.013 227.08 319.285 227.208C319.565 227.336 319.861 227.4 320.173 227.4C320.485 227.4 320.777 227.336 321.049 227.208C321.329 227.072 321.573 226.892 321.781 226.668C321.989 226.436 322.153 226.168 322.273 225.864C322.393 225.56 322.453 225.232 322.453 224.88C322.453 224.536 322.393 224.212 322.273 223.908C322.153 223.596 321.989 223.328 321.781 223.104C321.573 222.872 321.329 222.692 321.049 222.564C320.777 222.428 320.485 222.36 320.173 222.36C319.861 222.36 319.569 222.428 319.297 222.564C319.025 222.692 318.785 222.872 318.577 223.104C318.369 223.336 318.205 223.608 318.085 223.92C317.965 224.224 317.905 224.552 317.905 224.904ZM327.766 222.468C327.214 222.484 326.734 222.636 326.326 222.924C325.918 223.212 325.63 223.608 325.462 224.112V228H324.646V221.748H325.414V223.248C325.646 222.768 325.958 222.392 326.35 222.12C326.742 221.848 327.162 221.712 327.61 221.712C327.674 221.712 327.726 221.716 327.766 221.724V222.468ZM331.201 228.12C330.745 228.12 330.329 228.036 329.953 227.868C329.577 227.692 329.249 227.456 328.969 227.16C328.697 226.864 328.485 226.52 328.333 226.128C328.181 225.736 328.105 225.324 328.105 224.892C328.105 224.452 328.181 224.036 328.333 223.644C328.493 223.252 328.709 222.908 328.981 222.612C329.261 222.316 329.589 222.08 329.965 221.904C330.341 221.728 330.753 221.64 331.201 221.64C331.649 221.64 332.061 221.728 332.437 221.904C332.821 222.08 333.149 222.316 333.421 222.612C333.701 222.908 333.917 223.252 334.069 223.644C334.229 224.036 334.309 224.452 334.309 224.892C334.309 225.324 334.233 225.736 334.081 226.128C333.929 226.52 333.713 226.864 333.433 227.16C333.161 227.456 332.833 227.692 332.449 227.868C332.073 228.036 331.657 228.12 331.201 228.12ZM328.933 224.904C328.933 225.256 328.993 225.584 329.113 225.888C329.233 226.184 329.393 226.448 329.593 226.68C329.801 226.904 330.041 227.08 330.313 227.208C330.593 227.336 330.889 227.4 331.201 227.4C331.513 227.4 331.805 227.336 332.077 227.208C332.357 227.072 332.601 226.892 332.809 226.668C333.017 226.436 333.181 226.168 333.301 225.864C333.421 225.56 333.481 225.232 333.481 224.88C333.481 224.536 333.421 224.212 333.301 223.908C333.181 223.596 333.017 223.328 332.809 223.104C332.601 222.872 332.357 222.692 332.077 222.564C331.805 222.428 331.513 222.36 331.201 222.36C330.889 222.36 330.597 222.428 330.325 222.564C330.053 222.692 329.813 222.872 329.605 223.104C329.397 223.336 329.233 223.608 329.113 223.92C328.993 224.224 328.933 224.552 328.933 224.904ZM335.241 224.856C335.241 224.416 335.317 224 335.469 223.608C335.621 223.216 335.833 222.876 336.105 222.588C336.385 222.292 336.717 222.06 337.101 221.892C337.485 221.724 337.909 221.64 338.373 221.64C338.965 221.64 339.481 221.776 339.921 222.048C340.361 222.312 340.693 222.672 340.917 223.128L340.125 223.38C339.949 223.06 339.701 222.812 339.381 222.636C339.069 222.452 338.721 222.36 338.337 222.36C338.017 222.36 337.717 222.424 337.437 222.552C337.165 222.68 336.925 222.856 336.717 223.08C336.517 223.296 336.357 223.556 336.237 223.86C336.125 224.164 336.069 224.496 336.069 224.856C336.069 225.208 336.129 225.54 336.249 225.852C336.369 226.164 336.533 226.436 336.741 226.668C336.949 226.892 337.189 227.072 337.461 227.208C337.741 227.336 338.037 227.4 338.349 227.4C338.549 227.4 338.745 227.372 338.937 227.316C339.137 227.26 339.321 227.184 339.489 227.088C339.657 226.984 339.801 226.868 339.921 226.74C340.041 226.612 340.125 226.476 340.173 226.332L340.977 226.572C340.889 226.796 340.761 227.004 340.593 227.196C340.425 227.38 340.225 227.544 339.993 227.688C339.769 227.824 339.517 227.928 339.237 228C338.965 228.08 338.681 228.12 338.385 228.12C337.929 228.12 337.509 228.036 337.125 227.868C336.741 227.692 336.409 227.456 336.129 227.16C335.849 226.856 335.629 226.508 335.469 226.116C335.317 225.724 335.241 225.304 335.241 224.856ZM341.769 224.856C341.769 224.416 341.845 224 341.997 223.608C342.149 223.216 342.361 222.876 342.633 222.588C342.913 222.292 343.245 222.06 343.629 221.892C344.013 221.724 344.437 221.64 344.901 221.64C345.493 221.64 346.009 221.776 346.449 222.048C346.889 222.312 347.221 222.672 347.445 223.128L346.653 223.38C346.477 223.06 346.229 222.812 345.909 222.636C345.597 222.452 345.249 222.36 344.865 222.36C344.545 222.36 344.245 222.424 343.965 222.552C343.693 222.68 343.453 222.856 343.245 223.08C343.045 223.296 342.885 223.556 342.765 223.86C342.653 224.164 342.597 224.496 342.597 224.856C342.597 225.208 342.657 225.54 342.777 225.852C342.897 226.164 343.061 226.436 343.269 226.668C343.477 226.892 343.717 227.072 343.989 227.208C344.269 227.336 344.565 227.4 344.877 227.4C345.077 227.4 345.273 227.372 345.465 227.316C345.665 227.26 345.849 227.184 346.017 227.088C346.185 226.984 346.329 226.868 346.449 226.74C346.569 226.612 346.653 226.476 346.701 226.332L347.505 226.572C347.417 226.796 347.289 227.004 347.121 227.196C346.953 227.38 346.753 227.544 346.521 227.688C346.297 227.824 346.045 227.928 345.765 228C345.493 228.08 345.209 228.12 344.913 228.12C344.457 228.12 344.037 228.036 343.653 227.868C343.269 227.692 342.937 227.456 342.657 227.16C342.377 226.856 342.157 226.508 341.997 226.116C341.845 225.724 341.769 225.304 341.769 224.856ZM351.392 228.12C350.936 228.12 350.52 228.036 350.144 227.868C349.768 227.692 349.44 227.456 349.16 227.16C348.888 226.864 348.676 226.52 348.524 226.128C348.372 225.736 348.296 225.324 348.296 224.892C348.296 224.452 348.372 224.036 348.524 223.644C348.684 223.252 348.9 222.908 349.172 222.612C349.452 222.316 349.78 222.08 350.156 221.904C350.532 221.728 350.944 221.64 351.392 221.64C351.84 221.64 352.252 221.728 352.628 221.904C353.012 222.08 353.34 222.316 353.612 222.612C353.892 222.908 354.108 223.252 354.26 223.644C354.42 224.036 354.5 224.452 354.5 224.892C354.5 225.324 354.424 225.736 354.272 226.128C354.12 226.52 353.904 226.864 353.624 227.16C353.352 227.456 353.024 227.692 352.64 227.868C352.264 228.036 351.848 228.12 351.392 228.12ZM349.124 224.904C349.124 225.256 349.184 225.584 349.304 225.888C349.424 226.184 349.584 226.448 349.784 226.68C349.992 226.904 350.232 227.08 350.504 227.208C350.784 227.336 351.08 227.4 351.392 227.4C351.704 227.4 351.996 227.336 352.268 227.208C352.548 227.072 352.792 226.892 353 226.668C353.208 226.436 353.372 226.168 353.492 225.864C353.612 225.56 353.672 225.232 353.672 224.88C353.672 224.536 353.612 224.212 353.492 223.908C353.372 223.596 353.208 223.328 353 223.104C352.792 222.872 352.548 222.692 352.268 222.564C351.996 222.428 351.704 222.36 351.392 222.36C351.08 222.36 350.788 222.428 350.516 222.564C350.244 222.692 350.004 222.872 349.796 223.104C349.588 223.336 349.424 223.608 349.304 223.92C349.184 224.224 349.124 224.552 349.124 224.904Z" fill="#B2A6EA"/>
<defs>
<linearGradient id="paint0_linear" x1="14.5" y1="-13.5" x2="655" y2="291.5" gradientUnits="userSpaceOnUse">
<stop stop-color="white"/>
<stop offset="1" stop-color="white" stop-opacity="0.39"/>
</linearGradient>
</defs>
</svg>
