<svg fill="none" height="143" viewBox="0 0 308 143" width="308" xmlns="http://www.w3.org/2000/svg" xmlns:xlink="http://www.w3.org/1999/xlink"><linearGradient id="a" gradientUnits="userSpaceOnUse" x1="301.182" x2="12.1809" y1="7.85014" y2="160.355"><stop offset="0" stop-color="#fff"/><stop offset="1" stop-color="#fff" stop-opacity=".39"/></linearGradient><clipPath id="b"><path d="m44.1905 28.2857h12.5714v12.5714h-12.5714z"/></clipPath><clipPath id="c"><path d="m77.7143 40.3333h10.4762v10.4762h-10.4762z"/></clipPath><mask id="d" fill="#fff"><path clip-rule="evenodd" d="m.00001526 6.36498c3.63580474 0 6.58320474-2.65972 6.58320474-5.940648 0-.142675-.00557-.284174-.01653-.424332h294.86631c-.011.140158-.016.281659-.016.424334 0 3.280936 2.947 5.940656 6.583 5.940656v11.88131c-3.636 0-6.583 2.6597-6.583 5.9406 0 3.281 2.947 5.9407 6.583 5.9407v11.8813c-3.636 0-6.583 2.6597-6.583 5.9407 0 3.2809 2.947 5.9406 6.583 5.9406v11.8813c-3.636 0-6.583 2.6597-6.583 5.9407 0 3.2809 2.947 5.9406 6.583 5.9406v11.8813c-3.636 0-6.583 2.6598-6.583 5.9407s2.947 5.9402 6.583 5.9402v11.882c-3.636 0-6.583 2.659-6.583 5.94s2.947 5.941 6.583 5.941v11.881c-3.636 0-6.583 2.66-6.583 5.941h-294.83378c0-3.281-2.9474-5.941-6.58320474-5.941v-11.881c3.63580474 0 6.58320474-2.66 6.58320474-5.941s-2.9474-5.94-6.58320474-5.94v-11.882c3.63580474 0 6.58320474-2.6593 6.58320474-5.9402 0-3.281-2.9474-5.9407-6.58320474-5.9407v-11.8813c3.63580474 0 6.58320474-2.6597 6.58320474-5.9406 0-3.281-2.9474-5.9407-6.58320474-5.9407v-11.8813c3.63580474 0 6.58320474-2.6597 6.58320474-5.9406 0-3.281-2.9474-5.9407-6.58320474-5.9407l-.00001526-11.8813c3.63582 0 6.58322-2.6597 6.58322-5.9407 0-3.2809-2.9474-5.9406-6.58320474-5.9406h-.00001526v-11.88132z" fill="#fff" fill-rule="evenodd"/></mask><path d="m29.5238 87.4762h53.9524v22.8403h-53.9524z" fill="#39297d"/><g fill="#fff"><path d="m43.9568 101.146v-.028c0-.632-.1581-1.1247-.4742-1.4772-.3161-.3615-.7497-.6462-1.3006-.8541.1716-.0904.3297-.1988.4742-.3253.1535-.1266.2845-.2712.3929-.4339.1174-.1717.2077-.3615.2709-.5693.0723-.2079.1084-.4474.1084-.7186v-.0271c0-.7501-.28-1.3466-.84-1.7895-.5509-.4428-1.3142-.6642-2.2896-.6642h-4.4032v9.4902h4.5116c.5329 0 1.0161-.055 1.4496-.163.4426-.109.8174-.271 1.1245-.488.3162-.217.5555-.488.7181-.814.1716-.325.2574-.705.2574-1.138zm-2.6013-4.0539c0 .3525-.1354.6101-.4064.7728-.271.1536-.6368.2304-1.0974.2304h-1.9239v-2.0064h2.0594c.4425 0 .7812.0859 1.0161.2576.2348.1627.3522.4022.3522.7185zm.5284 3.7959c0 .352-.1309.615-.3929.786-.2619.163-.6232.244-1.0838.244h-2.4794v-2.0874h2.4116c.5419 0 .9348.0949 1.1787.2844.2439.181.3658.43.3658.746z"/><path d="m47.6105 103.749v-9.8969h-2.0593v9.8969z"/><path d="m55.7904 103.749v-4.2167c0-.9851-.2574-1.7533-.7722-2.3046-.5149-.5513-1.3368-.827-2.4658-.827-.6142 0-1.1381.0543-1.5716.1627-.4336.1085-.8491.2485-1.2465.4203l.5148 1.5726c.3342-.1266.6504-.2215.9484-.2847.3071-.0723.6594-.1085 1.0568-.1085.5148 0 .9032.113 1.1652.3389.2619.226.3929.5559.3929.9897v.122c-.262-.0904-.5329-.1627-.8129-.2169-.271-.0543-.5917-.0814-.962-.0814-.4335 0-.8309.0497-1.1922.1492-.3523.0903-.6594.2304-.9213.4202-.2529.1902-.4516.4292-.5961.7182-.1446.29-.2168.633-.2168 1.031v.027c0 .361.0632.682.1897.962.1354.271.3161.502.5419.692.2258.189.4877.334.7858.434.3071.09.6323.135.9755.135.5058 0 .9348-.081 1.2871-.244.3522-.172.6548-.398.9077-.678v.787zm-1.951-2.563c0 .38-.149.687-.447.922-.2891.235-.6775.353-1.1652.353-.3342 0-.6052-.077-.8129-.231-.2077-.153-.3116-.37-.3116-.651v-.027c0-.325.1264-.574.3793-.745.2529-.172.6007-.258 1.0433-.258.2529 0 .4877.027.7045.081.2258.046.429.109.6096.19z"/><path d="m65.1902 100.129v-.027c0-.6058-.0949-1.139-.2845-1.6-.1807-.4699-.4246-.8631-.7316-1.1794-.3071-.3254-.6594-.5694-1.0568-.7321s-.8084-.244-1.2329-.244c-.5419 0-.9936.113-1.3548.3389-.3523.2169-.6549.4971-.9078.8405v-3.6738h-2.0593v9.8969h2.0593v-.949c.2439.289.542.542.8942.759.3613.217.8174.325 1.3684.325.4335 0 .849-.081 1.2464-.244s.7452-.402 1.0433-.718c.307-.326.5509-.719.7316-1.18.1896-.47.2845-1.008.2845-1.613zm-2.0594 0c0 .307-.0496.583-.149.827-.0903.244-.2168.456-.3794.637-.1625.172-.3522.307-.569.407-.2077.09-.4335.135-.6774.135s-.4742-.045-.691-.135c-.2077-.1-.3929-.235-.5554-.407-.1536-.181-.28-.393-.3794-.637-.0903-.253-.1355-.529-.1355-.827v-.027c0-.2985.0452-.5697.1355-.8137.0994-.253.2258-.4654.3794-.6371.1625-.1808.3477-.3164.5554-.4068.2168-.0994.4471-.1491.691-.1491s.4697.0497.6774.1491c.2168.0904.4065.226.569.4068.1626.1717.2891.3841.3794.6371.0994.244.149.5152.149.8137z"/><path d="m68.8591 103.749v-9.8969h-2.0593v9.8969z"/><path d="m77.039 103.749v-4.2167c0-.9851-.2574-1.7533-.7722-2.3046-.5149-.5513-1.3368-.827-2.4658-.827-.6142 0-1.1381.0543-1.5716.1627-.4336.1085-.8491.2485-1.2465.4203l.5149 1.5726c.3341-.1266.6503-.2215.9483-.2847.3071-.0723.6594-.1085 1.0568-.1085.5148 0 .9032.113 1.1652.3389.2619.226.3929.5559.3929.9897v.122c-.262-.0904-.5329-.1627-.8129-.2169-.271-.0543-.5916-.0814-.962-.0814-.4335 0-.8309.0497-1.1922.1492-.3523.0903-.6594.2304-.9213.4202-.2529.1902-.4516.4292-.5961.7182-.1445.29-.2168.633-.2168 1.031v.027c0 .361.0632.682.1897.962.1355.271.3161.502.5419.692.2258.189.4877.334.7858.434.3071.09.6323.135.9755.135.5058 0 .9348-.081 1.2871-.244.3522-.172.6548-.398.9077-.678v.787zm-1.9509-2.563c0 .38-.1491.687-.4471.922-.2891.235-.6775.353-1.1652.353-.3342 0-.6052-.077-.8129-.231-.2077-.153-.3116-.37-.3116-.651v-.027c0-.325.1264-.574.3793-.745.253-.172.6007-.258 1.0433-.258.2529 0 .4877.027.7045.081.2258.046.429.109.6097.19z"/></g><path d="m54.8882 110.317h-25.3644l25.3644 11.731z" fill="#39297d"/><path d="m61.8526 118.598-.3509-.344c-.225.216-.4544.384-.6884.506-.234.117-.5129.176-.8369.176-.2609 0-.5039-.05-.7288-.149-.2205-.104-.414-.243-.5804-.419-.162-.175-.2902-.382-.3847-.621-.09-.239-.135-.495-.135-.77 0-.274.045-.529.135-.763.0945-.239.2227-.446.3847-.621.1664-.176.3599-.313.5804-.412.2249-.099.4679-.149.7288-.149.324 0 .6007.061.8301.183.234.121.4522.277.6547.466l.3644-.392c-.117-.113-.2384-.214-.3644-.304-.126-.095-.2632-.173-.4117-.236-.1485-.068-.3104-.12-.4859-.156-.171-.036-.3645-.054-.5804-.054-.3465 0-.6659.066-.9584.196-.2924.126-.5444.302-.7558.527-.2115.22-.378.479-.4994.777-.117.297-.1755.614-.1755.952 0 .342.0585.661.1755.959.1214.297.2879.556.4994.776.2114.216.4611.387.7491.513.2879.127.6029.19.9448.19.216 0 .4117-.021.5872-.061.1755-.041.3397-.097.4927-.169.1529-.072.2947-.158.4251-.257.135-.103.2632-.218.3847-.344z" fill="#fff"/><path d="m67.2635 116.977c0-.328-.0585-.639-.1754-.932-.1125-.297-.2745-.556-.486-.776-.2114-.225-.4656-.403-.7626-.534-.2924-.13-.6186-.196-.9786-.196-.3599 0-.6884.068-.9853.203-.297.13-.5512.308-.7626.533-.2115.226-.3757.487-.4927.784-.117.292-.1755.603-.1755.932 0 .328.0563.641.1688.938.1169.293.2812.552.4926.777.2115.221.4634.396.7559.527.2969.13.6254.196.9853.196.36 0 .6884-.066.9854-.196.2969-.135.5511-.315.7626-.541.2114-.225.3757-.484.4927-.776.1169-.297.1754-.61.1754-.939zm-.5534.014c0 .27-.0472.524-.1417.763-.09.234-.216.439-.3779.614-.162.176-.3577.315-.5872.419-.225.099-.4724.149-.7424.149-.2699 0-.5196-.052-.7491-.156-.225-.103-.4207-.243-.5871-.418-.1665-.176-.297-.383-.3915-.622-.09-.238-.135-.493-.135-.763s.045-.522.135-.756c.0945-.239.2227-.446.3847-.621.162-.176.3554-.313.5804-.412.2295-.104.4792-.156.7491-.156.27 0 .5174.052.7424.156.2295.103.4274.243.5939.418.1665.176.2947.383.3847.622.0945.238.1417.493.1417.763z" fill="#fff"/><path d="m71.8636 118.409-2.9762-3.789h-.4995v4.728h.5197v-3.877l3.0505 3.877h.4252v-4.728h-.5197z" fill="#fff"/><path d="m77.1145 114.62h-3.3947v4.728h.5332v-2.06h2.5578v-.486h-2.5578v-1.689h2.8615z" fill="#fff"/><path d="m29.5238 110.317h25.3633v4.102z" fill="#2b1d6b"/><circle cx="50.4762" cy="34.5714" fill="#5845af" r="20.6905" stroke="#6b58c1" stroke-width=".52381"/><g clip-path="url(#b)"><path d="m46.2857 39.8095c0-1.1114.4415-2.1772 1.2274-2.9631.7858-.7859 1.8517-1.2273 2.9631-1.2273s2.1772.4414 2.9631 1.2273 1.2274 1.8517 1.2274 2.9631h-1.0477c0-.8335-.3311-1.6329-.9205-2.2223s-1.3888-.9205-2.2223-.9205c-.8336 0-1.633.3311-2.2224.9205s-.9205 1.3888-.9205 2.2223zm4.1905-4.7143c-1.7364 0-3.1429-1.4064-3.1429-3.1428s1.4065-3.1429 3.1429-3.1429 3.1428 1.4065 3.1428 3.1429-1.4064 3.1428-3.1428 3.1428zm0-1.0476c1.1576 0 2.0952-.9376 2.0952-2.0952s-.9376-2.0953-2.0952-2.0953-2.0953.9377-2.0953 2.0953.9377 2.0952 2.0953 2.0952z" fill="#b8afdd"/></g><g clip-path="url(#c)"><path clip-rule="evenodd" d="m82.8047 40.8571c-2.7997 0-5.0904 2.2391-5.0904 4.9759 0 2.1769 1.4635 4.0429 3.4996 4.7271.2546.0622.3182-.1244.3182-.2488v-.8708c-1.3999.311-1.718-.622-1.718-.622-.2545-.5598-.5727-.7463-.5727-.7463-.4454-.3111.0636-.3111.0636-.3111.5091.0623.7636.4976.7636.4976.4454.8086 1.209.5598 1.4635.4354.0636-.311.1909-.5598.3182-.6842-1.1454-.1244-2.2907-.5598-2.2907-2.4879 0-.5598.1908-.9952.509-1.3062-.0636-.1244-.2545-.622.0636-1.3062 0 0 .4454-.1244 1.3999.4976.3818-.1244.8272-.1866 1.2726-.1866s.8908.0622 1.2726.1866c.9545-.622 1.3999-.4976 1.3999-.4976.2546.6842.1273 1.1818.0636 1.3062.3182.3732.5091.8086.5091 1.3062 0 1.9281-1.209 2.3014-2.3544 2.4257.1909.2488.3818.5598.3818.9952v1.3684c0 .1244.0636.311.3818.2488 2.0362-.6842 3.4997-2.5502 3.4997-4.7271-.0636-2.7368-2.3543-4.9759-5.1541-4.9759z" fill="#b2a6ea" fill-rule="evenodd"/></g><path d="m78.6027 20.4324 2.5645 5.2632 2.5981-5.2632h3.0004l-4.2407 7.8446v4.0563h-2.7322v-4.0899l-4.1738-7.811zm11.7046 12.0686c-1.0057 0-1.8605-.2124-2.5645-.637-.6929-.4246-1.2237-.9834-1.5924-1.6762-.3688-.6928-.5532-1.4415-.5532-2.2461 0-.8157.1844-1.57.5532-2.2628.3687-.6929.9051-1.2516 1.6091-1.6762.704-.4247 1.5533-.637 2.5478-.637.9946 0 1.8438.2123 2.5478.637.704.4246 1.2404.9833 1.6092 1.6762.3687.6928.5531 1.4471.5531 2.2628 0 .8046-.1844 1.5533-.5531 2.2461-.3688.6928-.9052 1.2516-1.6092 1.6762s-1.5532.637-2.5478.637zm-1.9611-4.5593c0 .6817.1844 1.2348.5531 1.6594.38.4247.8493.637 1.408.637.5476 0 1.0057-.2123 1.3745-.637.3799-.4246.5699-.9777.5699-1.6594 0-.6816-.19-1.2348-.5699-1.6594-.3688-.4246-.8269-.637-1.3745-.637-.5587 0-1.028.2124-1.408.637-.3687.4246-.5531.9778-.5531 1.6594zm7.9175 1.2236v-5.632h2.6819v5.0454c0 1.1063.4079 1.6594 1.2234 1.6594.358 0 .704-.095 1.039-.285.336-.2011.632-.5307.889-.9889v-5.4309h2.682v5.8164c0 .2682.039.4582.117.5699.089.1118.24.1732.453.1844v2.2293c-.257.0447-.475.0783-.654.1006-.179.0224-.341.0335-.486.0335-.961 0-1.509-.3743-1.643-1.123l-.05-.5364c-.402.5811-.905 1.0113-1.509 1.2907-.592.2682-1.2568.4023-1.9944.4023-.8939 0-1.5756-.285-2.0449-.8549s-.704-1.3968-.704-2.4808zm16.1743-3.3356c-.648.0112-1.235.1173-1.76.3185-.525.2011-.905.5028-1.14.9051v5.28h-2.682v-8.8h2.464v1.7768c.302-.5923.693-1.056 1.174-1.3912.48-.3353.983-.5085 1.508-.5197.224 0 .369.0056.436.0168zm7.649-.3017v6.8053h-2.749v-11.9009h2.179l5.514 7.0065v-7.0065h2.749v11.9009h-2.246zm9.084 4.1737c0-.5811.162-1.0895.486-1.5253s.771-.7767 1.341-1.0225c.57-.257 1.224-.3855 1.961-.3855.358 0 .71.0335 1.056.1006.346.0558.648.1396.905.2514v-.3855c0-.9946-.586-1.4919-1.76-1.4919-.491 0-.955.0839-1.391.2515-.425.1676-.877.4079-1.358.7207l-.804-1.7097c1.162-.7598 2.436-1.1398 3.821-1.1398 1.319 0 2.341.3185 3.068.9554.737.6258 1.106 1.5366 1.106 2.7322v2.2964c0 .2682.039.4582.117.5699.09.1118.241.1732.453.1844v2.2293c-.235.0447-.447.0783-.637.1006-.19.0224-.358.0335-.503.0335-.503 0-.888-.1005-1.156-.3017-.257-.2011-.419-.4749-.486-.8213l-.051-.3855c-.391.5028-.86.8883-1.408 1.1565-.547.257-1.112.3856-1.693.3856s-1.106-.123-1.575-.3688c-.458-.2458-.822-.5755-1.09-.989-.268-.4246-.402-.9051-.402-1.4415zm5.33.3353c.28-.2235.419-.4526.419-.6873v-.7878c-.234-.0894-.491-.1564-.771-.2011-.268-.0559-.514-.0838-.737-.0838-.503 0-.917.1117-1.241.3352-.313.2235-.469.5084-.469.8548 0 .3018.117.5644.352.7879.246.2123.57.3184.972.3184.268 0 .536-.0503.805-.1508.268-.1006.491-.2291.67-.3855zm18.957 2.2963h-2.682v-4.9447c0-.5699-.106-.989-.319-1.2572-.212-.2682-.486-.4023-.821-.4023-.357 0-.709.1453-1.056.4359-.346.2905-.592.6648-.737 1.123v5.0453h-2.682v-4.9447c0-.5811-.106-1.0002-.319-1.2572-.212-.2682-.486-.4023-.821-.4023-.358 0-.71.1453-1.056.4359-.335.2905-.581.6648-.738 1.123v5.0453h-2.682v-8.8h2.414v1.4751c.324-.5252.766-.9275 1.324-1.2069.559-.2905 1.202-.4358 1.928-.4358s1.285.1732 1.676.5196c.391.3353.643.732.754 1.1901.336-.5364.777-.9554 1.325-1.2571.558-.3017 1.184-.4526 1.877-.4526.559 0 1.006.1062 1.341.3185.346.2011.609.4693.788.8046.19.3352.318.6984.385 1.0895.067.3799.101.7543.101 1.123zm5.96.1677c-.995 0-1.844-.2068-2.548-.6202-.704-.4135-1.246-.9611-1.626-1.6427-.369-.6817-.553-1.4192-.553-2.2126 0-.8492.184-1.6259.553-2.3299s.905-1.2683 1.609-1.6929c.704-.4247 1.559-.637 2.565-.637.994 0 1.844.2123 2.548.637.704.4246 1.234.9833 1.592 1.6762.369.6928.553 1.4359.553 2.2293 0 .3241-.022.609-.067.8548h-6.503c.044.5923.257 1.0449.636 1.3578.392.3017.833.4525 1.325.4525.391 0 .765-.0949 1.123-.2849.357-.19.603-.447.737-.7711l2.28.637c-.347.6928-.889 1.2571-1.626 1.6929-.726.4359-1.592.6538-2.598.6538zm-1.945-5.3806h3.822c-.056-.5587-.262-1.0001-.62-1.3242-.346-.3352-.777-.5029-1.291-.5029s-.95.1677-1.307.5029c-.347.3352-.548.7766-.604 1.3242z" fill="#fff"/><path d="m90.8724 46.6663v-2.5646h.5699v2.464c0 .9889.338 1.4834 1.0141 1.4834.3352 0 .6481-.1089.9386-.3268.2962-.2179.5085-.5085.637-.8717v-2.7489h.5699v3.6792c0 .1509.067.2291.2011.2347v.4526c-.067.0111-.1201.0167-.1592.0167-.0335 0-.0698 0-.109 0-.1173-.0111-.2179-.0558-.3017-.1341-.0782-.0782-.1173-.1732-.1173-.2849l-.0168-.5867c-.1899.3408-.4497.6062-.7794.7962-.3241.1844-.6761.2766-1.056.2766-.9275 0-1.3912-.6286-1.3912-1.8857zm6.4512 1.8857c-.3576 0-.69-.0587-.9973-.176-.3017-.1229-.5671-.3017-.7962-.5364l.2347-.4023c.2458.2291.4916.3967.7375.5029.2514.1005.5168.1508.7962.1508.3352 0 .609-.067.8213-.2011.2179-.1397.3269-.338.3269-.5951 0-.1732-.0531-.3045-.1593-.3939-.1006-.095-.2486-.1704-.4442-.2263-.1899-.0558-.419-.1201-.6872-.1927-.3017-.0838-.5559-.1704-.7627-.2598-.2011-.095-.3548-.2123-.4609-.352-.1006-.1453-.1509-.3325-.1509-.5615 0-.2794.0699-.5141.2095-.704.1453-.19.3409-.3325.5867-.4275.2514-.1005.5308-.1508.8381-.1508.3352 0 .6314.053.8884.1592s.4665.2542.6286.4442l-.2766.3855c-.1509-.1788-.338-.3101-.5615-.3939-.2179-.0894-.4554-.1341-.7124-.1341-.1788 0-.3492.0252-.5113.0754-.162.0447-.2961.123-.4022.2347-.1006.1062-.1509.2542-.1509.4442 0 .2347.0866.3967.2598.4861s.4358.1844.7878.285c.3297.0893.6174.1787.8633.2681.2458.0894.4358.2096.5699.3604.1341.1453.2011.3492.2011.6118 0 .4079-.1536.7264-.461.9555-.3073.229-.7123.3436-1.2152.3436zm4.5044 0c-.42 0-.794-.1034-1.124-.3101-.329-.2067-.589-.4833-.779-.8297-.1899-.3464-.2849-.7264-.2849-1.1398 0-.4079.0922-.7823.2766-1.1231.1903-.3408.4493-.6118.7793-.8129.33-.2068.704-.3101 1.123-.3101.43 0 .808.1033 1.132.3101.324.2067.575.4805.754.8213.184.3352.276.704.276 1.1063 0 .0894-.002.1648-.008.2263h-3.738c.028.3129.117.5922.268.8381.151.2402.344.433.579.5782.234.1397.491.2096.771.2096.285 0 .553-.0727.804-.2179.252-.1453.43-.3353.537-.5699l.494.1341c-.089.2123-.229.4022-.419.5699-.184.162-.399.2905-.645.3855-.246.0894-.512.1341-.796.1341zm-1.61-2.4724h3.227c-.022-.3129-.109-.5895-.26-.8297-.151-.2459-.343-.4358-.578-.5699-.235-.1397-.495-.2095-.779-.2095-.285 0-.545.0698-.78.2095-.235.1341-.427.324-.578.5699-.145.2402-.229.5168-.252.8297zm6.822-1.475c-.38.0111-.715.1173-1.006.3184-.285.2012-.486.4777-.603.8297v2.7155h-.57v-4.3665h.536v1.0476c.151-.3073.349-.5559.595-.7459.252-.19.517-.2961.796-.3185.056-.0056.104-.0083.143-.0083s.075.0027.109.0083zm4.43 3.8636h-.57v-2.4389c0-.514-.078-.8884-.235-1.123-.151-.2403-.385-.3604-.704-.3604-.223 0-.444.0559-.662.1676-.218.1062-.411.2542-.578.4442-.162.1844-.28.3967-.352.6369v2.6736h-.57v-4.3665h.52v.9889c.173-.3184.427-.5754.762-.771s.699-.2933 1.09-.2933c.324 0 .581.0782.771.2346.19.1509.324.3688.402.6537.084.2794.126.6119.126.9974zm.863-1.2572c0-.2682.078-.5.235-.6956.156-.2011.371-.3576.645-.4693.279-.1118.601-.1676.964-.1676.212 0 .433.0195.662.0586.229.0335.433.081.612.1425v-.3688c0-.3687-.109-.6621-.327-.88s-.52-.3268-.905-.3268c-.229 0-.458.0447-.687.1341-.229.0838-.467.2095-.713.3771l-.218-.4023c.285-.1955.565-.3408.838-.4358.274-.1005.554-.1508.838-.1508.537 0 .962.1536 1.274.4609.313.3073.47.732.47 1.2739v2.0198c0 .1509.07.2291.209.2347v.4526c-.123.0167-.209.0223-.26.0167-.139-.0056-.245-.0503-.318-.1341s-.112-.1732-.117-.2682l-.009-.3184c-.195.2514-.45.447-.762.5866-.313.1341-.632.2012-.956.2012-.285 0-.539-.0587-.763-.176-.223-.1229-.399-.285-.528-.4861-.122-.2067-.184-.433-.184-.6789zm2.925.3353c.129-.1509.193-.2906.193-.4191v-.6369c-.386-.1509-.788-.2263-1.207-.2263-.408 0-.738.081-.989.243-.251.1621-.377.3828-.377.6621 0 .2403.092.4582.276.6537.19.1956.453.2934.788.2934.274 0 .528-.0531.763-.1593.24-.1061.425-.243.553-.4106zm8.489.9219h-.57v-2.4389c0-.5028-.081-.8744-.243-1.1147-.162-.2458-.402-.3687-.72-.3687-.336 0-.632.1173-.889.352s-.438.5364-.545.9051v2.6652h-.569v-2.4389c0-.514-.081-.8884-.243-1.123-.157-.2403-.394-.3604-.713-.3604-.33 0-.626.1145-.888.3436-.257.2291-.439.5308-.545.9051v2.6736h-.57v-4.3665h.52v.9889c.178-.3352.413-.595.704-.7794.29-.19.612-.2849.964-.2849.363 0 .656.1061.88.3184.223.2068.36.475.41.8046.402-.7487.964-1.123 1.685-1.123.491 0 .835.1732 1.031.5196.201.3408.301.7962.301 1.3661zm3.092.0838c-.419 0-.793-.1034-1.123-.3101-.329-.2067-.589-.4833-.779-.8297s-.285-.7264-.285-1.1398c0-.4079.092-.7823.277-1.1231.19-.3408.449-.6118.779-.8129.33-.2068.704-.3101 1.123-.3101.43 0 .807.1033 1.131.3101.325.2067.576.4805.755.8213.184.3352.276.704.276 1.1063 0 .0894-.002.1648-.008.2263h-3.738c.028.3129.117.5922.268.8381.151.2402.344.433.579.5782.234.1397.491.2096.771.2096.285 0 .553-.0727.804-.2179.252-.1453.43-.3353.537-.5699l.494.1341c-.089.2123-.229.4022-.419.5699-.184.162-.4.2905-.645.3855-.246.0894-.512.1341-.797.1341zm-1.609-2.4724h3.227c-.022-.3129-.109-.5895-.26-.8297-.151-.2459-.343-.4358-.578-.5699-.235-.1397-.495-.2095-.78-.2095s-.544.0698-.779.2095c-.235.1341-.427.324-.578.5699-.146.2402-.229.5168-.252.8297z" fill="#b2a6ea"/><path d="m97.9014 93.9462c-.4512 0-.8579-.1069-1.22-.3206-.3562-.2137-.6292-.5016-.8192-.8637l.4897-.4275c.1663.2731.3859.4928.659.659.279.1662.5788.2493.8994.2493.2731 0 .5165-.0594.7302-.1781s.3829-.282.5075-.4897c.1247-.2078.187-.4483.187-.7213 0-.2672-.0623-.5017-.187-.7035-.1187-.2018-.2819-.3592-.4897-.472-.2019-.1187-.4304-.1781-.6857-.1781-.2493 0-.4868.0564-.7124.1692s-.4066.2731-.5432.4809h-.7123l.7123-3.6153h3.0722v.7212h-2.4933l-.383 2.0125c.2672-.2968.6531-.4452 1.1577-.4452.3918 0 .742.0861 1.0507.2582.3147.1722.561.4096.7391.7124.1836.2968.2756.6441.2756 1.0419 0 .4155-.1.7836-.3023 1.1041-.1959.3147-.463.561-.8014.7391-.3325.1781-.7094.2672-1.1309.2672zm5.5966-.0891v-6.3223h2.191c.677 0 1.241.1424 1.692.4274.457.279.798.6589 1.024 1.1398.226.4749.338 1.0033.338 1.585 0 .6412-.124 1.1992-.374 1.6741-.249.475-.602.843-1.059 1.1042s-.998.3918-1.621.3918zm4.435-3.1701c0-.4749-.089-.8964-.267-1.2644-.172-.3681-.425-.656-.757-.8638s-.739-.3117-1.22-.3117h-1.389v4.8977h1.389c.487 0 .896-.1069 1.229-.3206.332-.2197.585-.5135.757-.8816.172-.374.258-.7925.258-1.2556zm1.406 1.8255c0-.2968.084-.5521.25-.7658.172-.2196.406-.3888.703-.5076.297-.1187.641-.1781 1.033-.1781.208 0 .428.0179.659.0535.232.0297.436.0771.615.1424v-.3383c0-.3562-.107-.6352-.321-.8371-.214-.2078-.517-.3116-.908-.3116-.256 0-.502.0474-.739.1424-.232.0891-.478.2197-.74.3918l-.284-.5521c.302-.2077.605-.3621.908-.463.303-.1069.617-.1603.944-.1603.593 0 1.062.1662 1.407.4987.344.3265.516.7836.516 1.3713v1.968c0 .184.083.279.249.2849v.6055c-.077.0119-.145.0208-.204.0268-.054.0059-.098.0089-.134.0089-.184 0-.323-.0505-.418-.1514-.089-.1009-.14-.2078-.152-.3206l-.018-.2939c-.201.2613-.466.4631-.792.6056-.327.1424-.65.2137-.971.2137-.308 0-.584-.0623-.828-.187-.243-.1306-.433-.3028-.57-.5165-.136-.2196-.205-.463-.205-.7302zm3.028.3295c.071-.0831.128-.1662.169-.2493.042-.0891.063-.1633.063-.2227v-.5788c-.38-.1484-.772-.2226-1.176-.2226-.398 0-.721.0802-.971.2404-.243.1544-.365.3681-.365.6412 0 .1484.039.2938.116.4363.083.1366.202.2494.356.3384.161.089.357.1336.588.1336.243 0 .475-.0475.695-.1425.219-.1009.394-.2256.525-.374zm2.334 2.2796c.077.006.154.0119.232.0178.077.0119.136.0178.178.0178.095 0 .178-.0326.249-.0979s.148-.193.232-.3829c.089-.1841.201-.4571.338-.8193l-1.968-4.6482h.828l1.567 3.8557 1.416-3.8557h.775l-2.262 5.8682c-.077.2078-.217.3888-.418.5432-.196.1603-.461.2404-.793.2404-.053 0-.11-.003-.169-.0089-.054-.0059-.122-.0178-.205-.0356zm6.111-1.1754c-.386 0-.748-.0623-1.086-.187-.339-.1306-.63-.3236-.873-.5788l.303-.5521c.267.2493.534.4274.801.5343.267.1068.54.1603.819.1603.321 0 .582-.0594.784-.1781.202-.1247.303-.3058.303-.5432 0-.1722-.054-.2998-.161-.3829-.101-.0831-.246-.1514-.436-.2048-.19-.0594-.415-.1247-.677-.196-.481-.1365-.849-.2968-1.104-.4808-.249-.19-.374-.466-.374-.8282 0-.4393.166-.7776.499-1.0151.338-.2434.769-.3651 1.291-.3651.7 0 1.253.2108 1.656.6322l-.356.5432c-.362-.374-.81-.561-1.345-.561-.16 0-.317.0208-.471.0624-.155.0356-.282.1039-.383.2048-.101.095-.152.2315-.152.4096 0 .2197.089.377.267.472.178.0949.44.1929.784.2938.35.1009.653.2019.908.3028.261.1009.463.2315.606.3918.142.1603.214.3829.214.6678 0 .4393-.167.7837-.499 1.033-.333.2434-.772.3651-1.318.3651zm4.641-1.4337c0-.2968.083-.5521.25-.7658.172-.2196.406-.3888.703-.5076.297-.1187.641-.1781 1.033-.1781.208 0 .427.0179.659.0535.231.0297.436.0771.614.1424v-.3383c0-.3562-.107-.6352-.32-.8371-.214-.2078-.517-.3116-.909-.3116-.255 0-.501.0474-.739.1424-.231.0891-.478.2197-.739.3918l-.285-.5521c.303-.2077.606-.3621.909-.463.302-.1069.617-.1603.944-.1603.593 0 1.062.1662 1.406.4987.345.3265.517.7836.517 1.3713v1.968c0 .184.083.279.249.2849v.6055c-.077.0119-.145.0208-.205.0268-.053.0059-.097.0089-.133.0089-.184 0-.324-.0505-.419-.1514-.089-.1009-.139-.2078-.151-.3206l-.018-.2939c-.202.2613-.466.4631-.792.6056-.327.1424-.65.2137-.971.2137-.309 0-.585-.0623-.828-.187-.243-.1306-.433-.3028-.57-.5165-.137-.2196-.205-.463-.205-.7302zm3.028.3295c.071-.0831.127-.1662.169-.2493.042-.0891.062-.1633.062-.2227v-.5788c-.38-.1484-.771-.2226-1.175-.2226-.398 0-.721.0802-.971.2404-.243.1544-.365.3681-.365.6412 0 .1484.039.2938.116.4363.083.1366.202.2494.356.3384.16.089.356.1336.588.1336.243 0 .475-.0475.694-.1425.22-.1009.395-.2256.526-.374zm6.302 1.0151h-.784v-2.6002c0-.4927-.077-.8518-.231-1.0774-.149-.2316-.377-.3473-.686-.3473-.214 0-.427.0534-.641.1603-.208.1068-.395.2523-.561.4363-.16.1781-.276.3859-.347.6233v2.805h-.784v-4.6482h.712v.9973c.184-.3265.449-.5877.793-.7836.35-.1959.73-.2939 1.14-.2939.362 0 .641.0861.837.2582.202.1663.344.3978.427.6946.083.2909.125.6234.125.9974zm.916-2.3152c0-.4393.089-.84.267-1.2021.184-.3681.433-.662.748-.8816.32-.2197.685-.3295 1.095-.3295.374 0 .709.098 1.006.2939s.529.4333.695.7123v-2.7782h.783v5.61c0 .184.084.279.25.2849v.6055c-.149.0238-.264.0357-.347.0357-.155 0-.291-.0535-.41-.1603-.113-.1069-.169-.2256-.169-.3562v-.3918c-.184.2968-.431.5313-.739.7034-.309.1722-.63.2583-.962.2583-.428 0-.81-.1098-1.149-.3295-.332-.2256-.593-.5194-.783-.8816-.19-.368-.285-.7658-.285-1.1932zm3.811.6857v-1.3357c-.071-.2019-.187-.383-.347-.5432-.161-.1663-.342-.2969-.544-.3918-.196-.101-.391-.1514-.587-.1514-.303 0-.57.0831-.802.2493-.225.1662-.403.3829-.534.6501-.125.2671-.187.5491-.187.8459 0 .3087.068.5937.205.8549.142.2612.335.4719.579.6322.243.1544.513.2315.81.2315.19 0 .386-.0445.588-.1335.201-.095.38-.2227.534-.383.154-.1602.249-.3354.285-.5253zm6.089 1.7186c-.451 0-.858-.1069-1.22-.3206-.356-.2137-.629-.5016-.819-.8637l.49-.4275c.166.2731.386.4928.659.659.279.1662.579.2493.899.2493.273 0 .517-.0594.73-.1781.214-.1187.383-.282.508-.4897.125-.2078.187-.4483.187-.7213 0-.2672-.062-.5017-.187-.7035-.119-.2018-.282-.3592-.49-.472-.202-.1187-.43-.1781-.686-.1781-.249 0-.486.0564-.712.1692-.225.1128-.407.2731-.543.4809h-.712l.712-3.6153h3.072v.7212h-2.493l-.383 2.0125c.267-.2968.653-.4452 1.157-.4452.392 0 .743.0861 1.051.2582.315.1722.561.4096.739.7124.184.2968.276.6441.276 1.0419 0 .4155-.101.7836-.302 1.1041-.196.3147-.463.561-.802.7391-.332.1781-.709.2672-1.131.2672zm9.887-5.6991h-2.182v5.61h-.801v-5.61h-2.182v-.7123h5.165zm2.522 1.6474c-.392.006-.739.1069-1.042.3028-.297.19-.508.4541-.632.7925v2.8673h-.784v-4.6482h.73v1.0774c.161-.3205.371-.5788.633-.7747.267-.2018.546-.3146.837-.3384h.151c.042 0 .077.003.107.0089zm.412 2.618c0-.2968.083-.5521.249-.7658.172-.2196.407-.3888.704-.5076.297-.1187.641-.1781 1.033-.1781.207 0 .427.0179.659.0535.231.0297.436.0771.614.1424v-.3383c0-.3562-.107-.6352-.32-.8371-.214-.2078-.517-.3116-.909-.3116-.255 0-.501.0474-.739.1424-.231.0891-.478.2197-.739.3918l-.285-.5521c.303-.2077.606-.3621.908-.463.303-.1069.618-.1603.944-.1603.594 0 1.063.1662 1.407.4987.345.3265.517.7836.517 1.3713v1.968c0 .184.083.279.249.2849v.6055c-.077.0119-.145.0208-.205.0268-.053.0059-.098.0089-.133.0089-.184 0-.324-.0505-.419-.1514-.089-.1009-.139-.2078-.151-.3206l-.018-.2939c-.202.2613-.466.4631-.793.6056-.326.1424-.65.2137-.97.2137-.309 0-.585-.0623-.828-.187-.244-.1306-.434-.3028-.57-.5165-.137-.2196-.205-.463-.205-.7302zm3.028.3295c.071-.0831.127-.1662.169-.2493.041-.0891.062-.1633.062-.2227v-.5788c-.38-.1484-.772-.2226-1.175-.2226-.398 0-.722.0802-.971.2404-.243.1544-.365.3681-.365.6412 0 .1484.039.2938.116.4363.083.1366.202.2494.356.3384.16.089.356.1336.588.1336.243 0 .475-.0475.694-.1425.22-.1009.395-.2256.526-.374zm4.325 1.1042c-.463 0-.873-.1098-1.229-.3295-.356-.2256-.635-.5224-.837-.8905-.202-.368-.303-.7687-.303-1.2021 0-.4393.098-.84.294-1.2022.196-.3621.472-.65.828-.8637.356-.2197.769-.3295 1.238-.3295.457 0 .855.1039 1.193.3117.344.2018.6.4749.766.8192l-.766.2404c-.119-.2196-.285-.3888-.499-.5075-.213-.1247-.451-.187-.712-.187-.285 0-.546.0742-.784.2226-.231.1484-.415.3532-.552.6144-.136.2553-.205.5491-.205.8816 0 .3265.069.6233.205.8905.143.2612.33.469.561.6233.238.1544.499.2315.784.2315.184 0 .359-.0326.525-.0979.172-.0653.321-.1514.446-.2583.13-.1128.219-.2345.267-.3651l.765.2316c-.136.3383-.385.6174-.748.837-.356.2197-.768.3295-1.237.3295zm6.15-.0891-1.611-2.2618-.882.8282v1.4336h-.784v-6.5004h.784v4.2475l2.404-2.3864h.846l-1.852 1.9234 1.941 2.7159zm3.118.0891c-.386 0-.748-.0623-1.087-.187-.338-.1306-.629-.3236-.873-.5788l.303-.5521c.267.2493.535.4274.802.5343.267.1068.54.1603.819.1603.32 0 .582-.0594.784-.1781.201-.1247.302-.3058.302-.5432 0-.1722-.053-.2998-.16-.3829-.101-.0831-.246-.1514-.436-.2048-.19-.0594-.416-.1247-.677-.196-.481-.1365-.849-.2968-1.104-.4808-.25-.19-.374-.466-.374-.8282 0-.4393.166-.7776.498-1.0151.339-.2434.769-.3651 1.292-.3651.7 0 1.252.2108 1.656.6322l-.356.5432c-.362-.374-.811-.561-1.345-.561-.16 0-.318.0208-.472.0624-.154.0356-.282.1039-.383.2048-.101.095-.151.2315-.151.4096 0 .2197.089.377.267.472.178.0949.439.1929.784.2938.35.1009.653.2019.908.3028.261.1009.463.2315.605.3918.143.1603.214.3829.214.6678 0 .4393-.166.7837-.499 1.033-.332.2434-.771.3651-1.317.3651zm7.063 0c-.463 0-.873-.1098-1.229-.3295-.356-.2256-.635-.5224-.837-.8905-.202-.368-.303-.7687-.303-1.2021 0-.4393.098-.84.294-1.2022.196-.3621.472-.65.828-.8637.356-.2197.769-.3295 1.238-.3295.457 0 .855.1039 1.193.3117.345.2018.6.4749.766.8192l-.766.2404c-.118-.2196-.285-.3888-.498-.5075-.214-.1247-.452-.187-.713-.187-.285 0-.546.0742-.783.2226-.232.1484-.416.3532-.553.6144-.136.2553-.204.5491-.204.8816 0 .3265.068.6233.204.8905.143.2612.33.469.561.6233.238.1544.499.2315.784.2315.184 0 .359-.0326.525-.0979.173-.0653.321-.1514.446-.2583.13-.1128.219-.2345.267-.3651l.766.2316c-.137.3383-.386.6174-.748.837-.357.2197-.769.3295-1.238.3295zm4.86 0c-.463 0-.872-.1098-1.228-.3295-.351-.2256-.624-.5194-.82-.8816-.196-.368-.294-.7658-.294-1.1932 0-.4334.098-.8311.294-1.1932.202-.3681.478-.662.828-.8816.357-.2256.763-.3384 1.22-.3384.463 0 .87.1128 1.22.3384.357.2196.633.5135.828.8816.202.3621.303.7598.303 1.1932 0 .4274-.101.8252-.303 1.1932-.195.3622-.469.656-.819.8816-.35.2197-.76.3295-1.229.3295zm-1.54-2.3954c0 .3206.068.6115.205.8727.142.2612.329.469.561.6233.231.1484.489.2226.774.2226s.544-.0771.775-.2315c.238-.1543.425-.3621.561-.6233.143-.2672.214-.561.214-.8816s-.071-.6115-.214-.8727c-.136-.2612-.323-.469-.561-.6233-.231-.1544-.49-.2315-.775-.2315s-.543.0801-.774.2404c-.232.1544-.419.3621-.561.6233-.137.2612-.205.5551-.205.8816zm6.02 2.3063-1.826-4.6482h.82l1.46 3.9002 1.46-3.9002h.766l-1.825 4.6482zm5.365.0891c-.463 0-.873-.1098-1.229-.3295-.356-.2196-.635-.5135-.837-.8816-.202-.368-.303-.7687-.303-1.2021 0-.4393.101-.84.303-1.2021.202-.3622.481-.6531.837-.8727.362-.2197.775-.3295 1.238-.3295.469 0 .875.1128 1.22.3384.35.2196.62.5105.81.8727.196.3561.294.742.294 1.1576 0 .1306-.006.2315-.018.3027h-3.856c.024.3028.107.5729.25.8104.148.2315.338.4155.57.5521.231.1306.481.1959.748.1959.285 0 .552-.0713.801-.2137.255-.1425.43-.3295.525-.561l.677.187c-.148.3443-.406.6263-.774.8459-.369.2197-.787.3295-1.256.3295zm-1.567-2.6893h3.17c-.024-.3027-.11-.5699-.258-.8014-.149-.2315-.339-.4126-.57-.5432-.232-.1306-.487-.1959-.766-.1959-.273 0-.526.0653-.757.1959-.232.1306-.422.3117-.57.5432-.142.2315-.226.4987-.249.8014zm7.229-1.3624c-.392.006-.739.1069-1.042.3028-.297.19-.508.4541-.632.7925v2.8673h-.784v-4.6482h.73v1.0774c.161-.3205.371-.5788.632-.7747.268-.2018.547-.3146.838-.3384h.151c.041 0 .077.003.107.0089zm.777-1.5583v-.9795h.784v.9795zm0 5.5209v-4.6482h.784v4.6482zm6.086 0h-.784v-2.6002c0-.4927-.077-.8518-.231-1.0774-.148-.2316-.377-.3473-.686-.3473-.213 0-.427.0534-.641.1603-.208.1068-.395.2523-.561.4363-.16.1781-.276.3859-.347.6233v2.805h-.784v-4.6482h.713v.9973c.184-.3265.448-.5877.792-.7836.35-.1959.73-.2939 1.14-.2939.362 0 .641.0861.837.2582.202.1663.344.3978.427.6946.084.2909.125.6234.125.9974zm3.071.0535c-.422 0-.796-.1099-1.122-.3295-.321-.2256-.573-.5195-.757-.8816-.178-.3621-.267-.748-.267-1.1576 0-.4393.089-.84.267-1.2021.184-.3681.439-.662.766-.8816.326-.2197.7-.3295 1.122-.3295.386 0 .721.095 1.006.285.291.1899.534.4304.73.7212v-.926h.695v4.5948c0 .4393-.107.8103-.321 1.1131-.208.3028-.493.5313-.855.6857-.356.1603-.754.2404-1.193.2404-.522 0-.95-.092-1.282-.276-.333-.1841-.609-.4334-.828-.748l.454-.4008c.184.2731.421.4779.712.6145.297.1365.612.2048.944.2048.285 0 .546-.0535.784-.1603.243-.1009.436-.2582.579-.472.148-.2137.222-.4808.222-.8014v-.8192c-.172.2849-.409.5105-.712.6767-.297.1663-.612.2494-.944.2494zm.24-.6412c.22 0 .431-.0504.633-.1514.201-.1009.371-.2315.507-.3918.143-.1603.235-.3265.276-.4986v-1.3357c-.125-.3147-.326-.5729-.605-.7748-.279-.2077-.573-.3116-.882-.3116-.315 0-.588.0861-.819.2582-.226.1722-.401.3918-.526.659-.118.2671-.178.5461-.178.837 0 .3087.072.5937.214.8549.143.2552.332.463.57.6233.243.1544.513.2315.81.2315zm9.751.5877h-.784v-2.6002c0-.4749-.086-.8311-.258-1.0685-.166-.2375-.407-.3562-.722-.3562-.201 0-.406.0534-.614.1603-.202.1068-.38.2523-.534.4363-.155.1781-.267.3859-.339.6233v2.805h-.783v-6.5004h.783v2.8495c.184-.3325.434-.5937.748-.7836.321-.1959.665-.2939 1.033-.2939s.659.0861.873.2582c.214.1722.365.4067.454.7035.095.2909.143.6204.143.9885zm3.248.0891c-.463 0-.872-.1098-1.228-.3295-.351-.2256-.624-.5194-.82-.8816-.196-.368-.294-.7658-.294-1.1932 0-.4334.098-.8311.294-1.1932.202-.3681.478-.662.828-.8816.357-.2256.763-.3384 1.22-.3384.463 0 .87.1128 1.22.3384.357.2196.633.5135.829.8816.201.3621.302.7598.302 1.1932 0 .4274-.101.8252-.302 1.1932-.196.3622-.469.656-.82.8816-.35.2197-.76.3295-1.229.3295zm-1.54-2.3954c0 .3206.068.6115.205.8727.142.2612.329.469.561.6233.231.1484.489.2226.774.2226s.544-.0771.775-.2315c.238-.1543.425-.3621.561-.6233.143-.2672.214-.561.214-.8816s-.071-.6115-.214-.8727c-.136-.2612-.323-.469-.561-.6233-.231-.1544-.49-.2315-.775-.2315s-.543.0801-.774.2404c-.232.1544-.419.3621-.561.6233-.137.2612-.205.5551-.205.8816zm7.176 2.0748c-.095.0416-.247.1009-.455.1781-.201.0772-.427.1158-.676.1158-.285 0-.532-.0772-.739-.2316-.208-.1602-.312-.4066-.312-.739v-3.1256h-.632v-.6144h.632v-1.5495h.784v1.5495h1.041v.6144h-1.041v2.8851c.011.1662.068.2909.169.374.101.0772.219.1158.356.1158.154 0 .297-.0267.427-.0802.131-.0534.217-.092.259-.1157zm3.13 0c-.095.0416-.246.1009-.454.1781-.202.0772-.427.1158-.677.1158-.285 0-.531-.0772-.739-.2316-.208-.1602-.312-.4066-.312-.739v-3.1256h-.632v-.6144h.632v-1.5495h.784v1.5495h1.042v.6144h-1.042v2.8851c.012.1662.068.2909.169.374.101.0772.22.1158.356.1158.155 0 .297-.0267.428-.0802.131-.0534.217-.092.258-.1157zm2.723.3206c-.463 0-.873-.1098-1.229-.3295-.356-.2196-.636-.5135-.837-.8816-.202-.368-.303-.7687-.303-1.2021 0-.4393.101-.84.303-1.2021.201-.3622.481-.6531.837-.8727.362-.2197.774-.3295 1.237-.3295.469 0 .876.1128 1.22.3384.351.2196.621.5105.811.8727.196.3561.294.742.294 1.1576 0 .1306-.006.2315-.018.3027h-3.856c.024.3028.107.5729.249.8104.149.2315.339.4155.57.5521.232.1306.481.1959.748.1959.285 0 .552-.0713.802-.2137.255-.1425.43-.3295.525-.561l.677.187c-.149.3443-.407.6263-.775.8459-.368.2197-.786.3295-1.255.3295zm-1.568-2.6893h3.17c-.023-.3027-.109-.5699-.258-.8014-.148-.2315-.338-.4126-.57-.5432-.231-.1306-.487-.1959-.766-.1959-.273 0-.525.0653-.756.1959-.232.1306-.422.3117-.57.5432-.143.2315-.226.4987-.25.8014zm6.366 2.6893c-.386 0-.748-.0623-1.087-.187-.338-.1306-.629-.3236-.872-.5788l.302-.5521c.267.2493.535.4274.802.5343.267.1068.54.1603.819.1603.321 0 .582-.0594.784-.1781.201-.1247.302-.3058.302-.5432 0-.1722-.053-.2998-.16-.3829-.101-.0831-.246-.1514-.436-.2048-.19-.0594-.416-.1247-.677-.196-.481-.1365-.849-.2968-1.104-.4808-.25-.19-.374-.466-.374-.8282 0-.4393.166-.7776.498-1.0151.339-.2434.769-.3651 1.292-.3651.7 0 1.252.2108 1.656.6322l-.356.5432c-.362-.374-.811-.561-1.345-.561-.16 0-.317.0208-.472.0624-.154.0356-.282.1039-.383.2048-.101.095-.151.2315-.151.4096 0 .2197.089.377.267.472.178.0949.439.1929.784.2938.35.1009.653.2019.908.3028.261.1009.463.2315.605.3918.143.1603.214.3829.214.6678 0 .4393-.166.7837-.498 1.033-.333.2434-.772.3651-1.318.3651zm5.158-.3206c-.095.0416-.246.1009-.454.1781-.202.0772-.428.1158-.677.1158-.285 0-.531-.0772-.739-.2316-.208-.1602-.312-.4066-.312-.739v-3.1256h-.632v-.6144h.632v-1.5495h.784v1.5495h1.042v.6144h-1.042v2.8851c.012.1662.068.2909.169.374.101.0772.22.1158.356.1158.155 0 .297-.0267.428-.0802.13-.0534.216-.092.258-.1157zm-146.249 6.6214h-2.1817v5.61h-.8014v-5.61h-2.1817v-.7122h5.1648zm1.852 5.699c-.464 0-.873-.11-1.229-.329-.357-.22-.636-.514-.837-.882-.202-.368-.303-.769-.303-1.202 0-.439.101-.84.303-1.202.201-.362.48-.653.837-.873.362-.219.774-.329 1.237-.329.469 0 .876.113 1.22.338.351.22.621.511.811.873.196.356.294.742.294 1.157 0 .131-.006.232-.018.303h-3.856c.024.303.107.573.249.81.149.232.339.416.57.553.232.13.481.195.748.195.285 0 .552-.071.802-.213.255-.143.43-.33.525-.561l.677.187c-.149.344-.407.626-.775.846-.368.219-.787.329-1.255.329zm-1.568-2.689h3.17c-.023-.303-.109-.57-.258-.801-.148-.232-.338-.413-.57-.544-.231-.13-.487-.196-.766-.196-.273 0-.525.066-.756.196-.232.131-.422.312-.57.544-.143.231-.226.498-.25.801zm6.829 2.689c-.463 0-.873-.11-1.229-.329-.356-.226-.635-.523-.837-.891s-.303-.769-.303-1.202c0-.439.098-.84.294-1.202s.472-.65.828-.864c.356-.219.769-.329 1.238-.329.457 0 .855.104 1.193.311.344.202.6.475.766.82l-.766.24c-.119-.22-.285-.389-.499-.508-.213-.124-.451-.187-.712-.187-.285 0-.546.075-.784.223-.231.149-.415.353-.552.615-.136.255-.205.549-.205.881 0 .327.069.623.205.891.143.261.33.469.561.623.238.154.499.231.784.231.184 0 .359-.032.525-.098.172-.065.321-.151.445-.258.131-.113.22-.234.268-.365l.765.232c-.136.338-.385.617-.748.837-.356.219-.768.329-1.237.329zm6.907-.089h-.783v-2.6c0-.475-.087-.831-.259-1.069-.166-.237-.406-.356-.721-.356-.202 0-.407.054-.614.16-.202.107-.38.253-.535.437-.154.178-.267.386-.338.623v2.805h-.784v-6.5003h.784v2.8493c.184-.332.433-.593.748-.783.32-.196.665-.294 1.033-.294s.659.086.873.258c.213.172.365.407.454.703.095.291.142.621.142.989zm5.253 0h-.784v-2.6c0-.493-.077-.852-.232-1.078-.148-.231-.377-.347-.685-.347-.214 0-.428.054-.641.16-.208.107-.395.253-.561.437-.161.178-.276.386-.348.623v2.805h-.783v-4.648h.712v.997c.184-.326.448-.588.793-.783.35-.196.73-.294 1.139-.294.363 0 .642.086.837.258.202.166.345.398.428.695.083.29.125.623.125.997zm3.248.089c-.463 0-.872-.11-1.228-.329-.351-.226-.624-.52-.82-.882-.196-.368-.294-.766-.294-1.193 0-.433.098-.831.294-1.193.202-.368.478-.662.828-.882.357-.225.763-.338 1.22-.338.463 0 .87.113 1.22.338.357.22.633.514.829.882.201.362.302.76.302 1.193 0 .427-.101.825-.302 1.193-.196.362-.469.656-.82.882-.35.219-.76.329-1.229.329zm-1.54-2.395c0 .32.068.611.205.872.142.262.329.469.561.624.231.148.489.222.774.222s.544-.077.775-.231c.238-.154.425-.362.561-.623.143-.268.214-.561.214-.882s-.071-.611-.214-.873c-.136-.261-.323-.469-.561-.623-.231-.154-.49-.232-.775-.232s-.543.081-.774.241c-.232.154-.419.362-.561.623-.137.261-.205.555-.205.882zm4.859-4.1943h.783v5.2983c0 .255.036.413.107.472s.157.089.258.089c.125 0 .244-.012.357-.036.112-.029.207-.059.284-.089l.125.641c-.13.054-.285.098-.463.134s-.335.053-.472.053c-.303 0-.543-.086-.721-.258-.172-.172-.258-.412-.258-.721zm4.56 6.5893c-.463 0-.873-.11-1.229-.329-.35-.226-.623-.52-.819-.882-.196-.368-.294-.766-.294-1.193 0-.433.098-.831.294-1.193.202-.368.478-.662.828-.882.356-.225.763-.338 1.22-.338.463 0 .87.113 1.22.338.356.22.632.514.828.882.202.362.303.76.303 1.193 0 .427-.101.825-.303 1.193-.196.362-.469.656-.819.882-.35.219-.76.329-1.229.329zm-1.54-2.395c0 .32.068.611.204.872.143.262.33.469.561.624.232.148.49.222.775.222s.543-.077.775-.231c.237-.154.424-.362.561-.623.142-.268.213-.561.213-.882s-.071-.611-.213-.873c-.137-.261-.324-.469-.561-.623-.232-.154-.49-.232-.775-.232s-.543.081-.775.241c-.231.154-.418.362-.561.623-.136.261-.204.555-.204.882zm6.693 2.36c-.422 0-.796-.11-1.122-.33-.321-.225-.573-.519-.757-.881-.178-.363-.267-.748-.267-1.158 0-.439.089-.84.267-1.202.184-.368.439-.662.766-.882.326-.219.7-.329 1.122-.329.385 0 .721.095 1.006.285.291.19.534.43.73.721v-.926h.695v4.595c0 .439-.107.81-.321 1.113-.208.303-.493.531-.855.685-.356.161-.754.241-1.193.241-.523 0-.95-.092-1.282-.276-.333-.184-.609-.434-.829-.748l.455-.401c.184.273.421.478.712.615.297.136.611.204.944.204.285 0 .546-.053.783-.16.244-.101.437-.258.579-.472.149-.214.223-.481.223-.801v-.82c-.172.285-.41.511-.712.677-.297.166-.612.25-.944.25zm.24-.642c.22 0 .43-.05.632-.151s.371-.231.508-.392c.142-.16.234-.326.276-.498v-1.336c-.125-.315-.327-.573-.606-.775-.279-.208-.572-.312-.881-.312-.315 0-.588.087-.819.259-.226.172-.401.392-.526.659-.119.267-.178.546-.178.837 0 .308.071.593.214.855.142.255.332.463.57.623.243.154.513.231.81.231zm3.678 1.853c.077.006.154.011.231.017.078.012.137.018.179.018.095 0 .178-.032.249-.098.071-.065.148-.193.231-.383.089-.184.202-.457.339-.819l-1.968-4.648h.828l1.567 3.856 1.416-3.856h.775l-2.262 5.868c-.077.208-.217.389-.419.543-.195.161-.46.241-.792.241-.053 0-.11-.003-.169-.009-.054-.006-.122-.018-.205-.036zm11.062-6.875h-2.182v5.61h-.801v-5.61h-2.182v-.7122h5.165zm2.522 1.648c-.392.005-.74.106-1.042.302-.297.19-.508.454-.633.793v2.867h-.783v-4.648h.73v1.077c.16-.32.371-.578.632-.774.267-.202.546-.315.837-.339h.152c.041 0 .077.003.107.009zm2.729 4.051c-.463 0-.872-.11-1.228-.329-.357-.22-.636-.514-.837-.882-.202-.368-.303-.769-.303-1.202 0-.439.101-.84.303-1.202.201-.362.48-.653.837-.873.362-.219.774-.329 1.237-.329.469 0 .876.113 1.22.338.351.22.621.511.811.873.196.356.294.742.294 1.157 0 .131-.006.232-.018.303h-3.856c.024.303.107.573.249.81.149.232.339.416.57.553.232.13.481.195.748.195.285 0 .552-.071.802-.213.255-.143.43-.33.525-.561l.677.187c-.149.344-.407.626-.775.846-.368.219-.787.329-1.256.329zm-1.567-2.689h3.17c-.023-.303-.11-.57-.258-.801-.148-.232-.338-.413-.57-.544-.231-.13-.487-.196-.766-.196-.273 0-.525.066-.757.196-.231.131-.421.312-.569.544-.143.231-.226.498-.25.801zm8.805 2.6h-.783v-2.6c0-.493-.077-.852-.232-1.078-.148-.231-.377-.347-.685-.347-.214 0-.428.054-.642.16-.207.107-.394.253-.561.437-.16.178-.276.386-.347.623v2.805h-.783v-4.648h.712v.997c.184-.326.448-.588.792-.783.351-.196.731-.294 1.14-.294.362 0 .641.086.837.258.202.166.345.398.428.695.083.29.124.623.124.997zm.916-2.315c0-.439.089-.84.267-1.202.184-.368.434-.662.748-.882.321-.219.686-.329 1.096-.329.374 0 .709.098 1.006.294.297.195.528.433.694.712v-2.7783h.784v5.6103c0 .184.083.279.249.285v.605c-.148.024-.264.036-.347.036-.154 0-.291-.054-.409-.161-.113-.106-.17-.225-.17-.356v-.392c-.184.297-.43.532-.739.704-.308.172-.629.258-.961.258-.428 0-.811-.11-1.149-.329-.333-.226-.594-.52-.784-.882-.19-.368-.285-.766-.285-1.193zm3.811.686v-1.336c-.071-.202-.187-.383-.347-.543-.16-.167-.341-.297-.543-.392-.196-.101-.392-.152-.588-.152-.302 0-.57.084-.801.25-.226.166-.404.383-.534.65-.125.267-.187.549-.187.846 0 .309.068.593.204.855.143.261.336.472.579.632.244.154.514.231.811.231.189 0 .385-.044.587-.133.202-.095.38-.223.535-.383.154-.16.249-.335.284-.525zm3.686 1.718c-.386 0-.748-.062-1.086-.187-.339-.13-.629-.323-.873-.579l.303-.552c.267.25.534.428.801.535.267.106.541.16.82.16.32 0 .581-.06.783-.178.202-.125.303-.306.303-.543 0-.173-.053-.3-.16-.383-.101-.083-.247-.152-.437-.205-.19-.06-.415-.125-.676-.196-.481-.137-.849-.297-1.105-.481-.249-.19-.374-.466-.374-.828 0-.439.167-.778.499-1.015.338-.244.769-.365 1.291-.365.701 0 1.253.21 1.657.632l-.357.543c-.362-.374-.81-.561-1.344-.561-.161 0-.318.021-.472.062-.155.036-.282.104-.383.205-.101.095-.152.232-.152.41 0 .22.09.377.268.472s.439.193.783.294c.351.101.653.202.909.302.261.101.463.232.605.392.143.161.214.383.214.668 0 .439-.166.784-.499 1.033-.332.243-.772.365-1.318.365zm5.007-5.61v-.9793h.783v.9793zm0 5.521v-4.648h.783v4.648zm6.086 0h-.784v-2.6c0-.493-.077-.852-.231-1.078-.149-.231-.377-.347-.686-.347-.214 0-.428.054-.641.16-.208.107-.395.253-.561.437-.161.178-.276.386-.348.623v2.805h-.783v-4.648h.712v.997c.184-.326.448-.588.793-.783.35-.196.73-.294 1.14-.294.362 0 .641.086.837.258.201.166.344.398.427.695.083.29.125.623.125.997zm3.595 0v-6.3222h2.191c.677 0 1.24.1424 1.692.4274.457.2788.798.6588 1.024 1.1398.225.475.338 1.003.338 1.585 0 .641-.125 1.199-.374 1.674s-.602.843-1.06 1.104c-.457.262-.997.392-1.62.392zm4.435-3.17c0-.475-.089-.896-.267-1.264-.173-.368-.425-.656-.757-.864-.333-.208-.739-.312-1.22-.312h-1.389v4.898h1.389c.487 0 .896-.107 1.229-.321.332-.219.584-.513.757-.881.172-.374.258-.793.258-1.256zm1.406 1.826c0-.297.083-.553.249-.766.173-.22.407-.389.704-.508s.641-.178 1.033-.178c.208 0 .427.018.659.053.231.03.436.078.614.143v-.338c0-.357-.107-.636-.32-.837-.214-.208-.517-.312-.909-.312-.255 0-.501.047-.739.142-.231.089-.478.22-.739.392l-.285-.552c.303-.208.606-.362.909-.463.302-.107.617-.16.943-.16.594 0 1.063.166 1.407.498.345.327.517.784.517 1.372v1.968c0 .184.083.279.249.285v.605c-.077.012-.145.021-.205.027-.053.006-.098.009-.133.009-.184 0-.324-.051-.419-.152-.089-.101-.139-.207-.151-.32l-.018-.294c-.202.261-.466.463-.792.605-.327.143-.65.214-.971.214-.309 0-.585-.062-.828-.187-.244-.13-.433-.303-.57-.516-.137-.22-.205-.463-.205-.73zm3.028.329c.071-.083.127-.166.169-.249.042-.089.062-.164.062-.223v-.579c-.38-.148-.771-.222-1.175-.222-.398 0-.721.08-.971.24-.243.154-.365.368-.365.641 0 .149.039.294.116.437.083.136.202.249.356.338.16.089.356.133.588.133.243 0 .475-.047.694-.142.22-.101.395-.226.526-.374zm4.726-2.947c-.392.005-.739.106-1.042.302-.297.19-.508.454-.632.793v2.867h-.784v-4.648h.73v1.077c.16-.32.371-.578.632-.774.267-.202.547-.315.837-.339h.152c.041 0 .077.003.107.009zm.777-1.559v-.9793h.783v.9793zm0 5.521v-4.648h.783v4.648zm2.114-5.521v-.9793h.784v.9793zm-.658 7.177c-.202 0-.395-.029-.579-.089-.184-.059-.348-.154-.49-.285l.365-.525c.083.077.181.131.294.16.107.03.214.045.32.045.19 0 .363-.071.517-.214.154-.142.231-.323.231-.543v-4.853h.784v4.8c0 .29-.068.549-.205.774-.136.232-.314.41-.534.535-.214.13-.448.195-.703.195zm2.344-3c0-.297.083-.553.25-.766.172-.22.406-.389.703-.508s.641-.178 1.033-.178c.208 0 .427.018.659.053.231.03.436.078.614.143v-.338c0-.357-.107-.636-.32-.837-.214-.208-.517-.312-.909-.312-.255 0-.501.047-.739.142-.231.089-.478.22-.739.392l-.285-.552c.303-.208.606-.362.909-.463.302-.107.617-.16.944-.16.593 0 1.062.166 1.406.498.345.327.517.784.517 1.372v1.968c0 .184.083.279.249.285v.605c-.077.012-.145.021-.205.027-.053.006-.097.009-.133.009-.184 0-.324-.051-.419-.152-.089-.101-.139-.207-.151-.32l-.018-.294c-.202.261-.466.463-.792.605-.327.143-.65.214-.971.214-.309 0-.585-.062-.828-.187-.244-.13-.433-.303-.57-.516-.137-.22-.205-.463-.205-.73zm3.028.329c.071-.083.127-.166.169-.249.042-.089.062-.164.062-.223v-.579c-.38-.148-.771-.222-1.175-.222-.398 0-.721.08-.971.24-.243.154-.365.368-.365.641 0 .149.039.294.116.437.083.136.202.249.356.338.16.089.356.133.588.133.243 0 .475-.047.694-.142.22-.101.395-.226.526-.374zm2.206 1.015v-.997h.659v.997z" fill="#e3ddfc"/><path d="m96.0832 119.143v-4.463h1.848c.1928 0 .3688.04.528.119.1635.08.3038.189.4212.327.1215.134.2137.285.2765.453.0671.163.1006.331.1006.503 0 .243-.0545.473-.1634.691-.109.214-.2598.388-.4526.522-.1927.134-.4169.201-.6726.201h-1.4457v1.647zm.44-2.037h1.4269c.176 0 .3289-.048.4588-.144.13-.097.2305-.222.3018-.377.0712-.155.1068-.323.1068-.503 0-.185-.0419-.352-.1257-.503-.0838-.155-.1949-.279-.3331-.371-.1341-.092-.2829-.138-.4463-.138h-1.3892zm4.7158 2.1c-.314 0-.595-.078-.842-.233-.243-.155-.4336-.36-.5719-.616-.1382-.26-.2074-.54-.2074-.842 0-.306.0692-.587.2074-.842.1425-.26.3349-.468.5779-.623.248-.159.526-.239.836-.239.315 0 .593.08.836.239.248.155.44.363.579.623.142.255.213.536.213.842 0 .302-.069.582-.207.842-.138.256-.331.461-.578.616-.243.155-.524.233-.843.233zm-1.188-1.685c0 .243.053.465.158.666.109.197.253.355.433.472.18.113.38.17.597.17.218 0 .417-.059.598-.176.18-.118.324-.277.433-.478s.164-.423.164-.666-.055-.466-.164-.667-.253-.36-.433-.477c-.181-.118-.38-.176-.598-.176-.213 0-.41.06-.59.182-.181.117-.325.276-.434.478-.109.201-.164.425-.164.672zm7.544-1.653h.421l-1.408 3.275h-.37l-.686-1.628-.678 1.628h-.371l-1.408-3.275h.415l1.194 2.835.603-1.477-.553-1.352h.384l.414 1.063.422-1.063h.377l-.547 1.352.603 1.477zm2.294 3.338c-.314 0-.595-.078-.842-.233-.248-.155-.443-.362-.585-.622s-.214-.545-.214-.855c0-.306.069-.587.208-.842.142-.256.337-.459.584-.61.248-.155.528-.233.843-.233.322 0 .605.078.848.233s.432.36.566.616c.138.251.207.528.207.83 0 .067-.002.123-.006.169h-2.803c.021.235.088.445.201.629.113.18.257.325.433.434.176.104.369.157.579.157.213 0 .415-.055.603-.164.189-.109.323-.251.402-.427l.371.101c-.067.159-.172.301-.314.427-.138.122-.3.218-.484.289-.184.067-.383.101-.597.101zm-1.207-1.855h2.42c-.017-.234-.082-.442-.195-.622-.113-.184-.258-.327-.434-.427-.176-.105-.37-.157-.584-.157s-.409.052-.585.157c-.176.1-.32.243-.433.427-.109.18-.172.388-.189.622zm5.116-1.106c-.285.009-.536.088-.754.239-.214.151-.365.358-.453.622v2.037h-.427v-3.275h.402v.786c.113-.231.262-.417.446-.56.189-.142.388-.222.597-.239.042-.004.078-.006.107-.006.03 0 .057.002.082.006zm1.886 2.961c-.315 0-.596-.078-.843-.233s-.442-.362-.584-.622c-.143-.26-.214-.545-.214-.855 0-.306.069-.587.207-.842.143-.256.338-.459.585-.61.247-.155.528-.233.842-.233.323 0 .606.078.849.233s.431.36.566.616c.138.251.207.528.207.83 0 .067-.002.123-.006.169h-2.804c.021.235.088.445.201.629.114.18.258.325.434.434.176.104.369.157.578.157.214 0 .415-.055.604-.164.188-.109.322-.251.402-.427l.371.101c-.067.159-.172.301-.314.427-.139.122-.3.218-.484.289-.185.067-.384.101-.597.101zm-1.207-1.855h2.42c-.017-.234-.082-.442-.195-.622-.113-.184-.258-.327-.434-.427-.176-.105-.371-.157-.584-.157-.214 0-.409.052-.585.157-.176.1-.321.243-.434.427-.109.18-.172.388-.188.622zm3.261.164c0-.31.063-.593.189-.849.13-.26.308-.467.534-.622.227-.155.484-.233.773-.233.273 0 .516.074.73.22.217.143.387.317.509.522v-1.999h.427v4.073c0 .114.05.172.151.176v.34c-.084.012-.149.017-.195.012-.092-.004-.172-.037-.239-.1-.063-.067-.094-.143-.094-.226v-.321c-.13.214-.306.383-.528.509s-.453.189-.691.189c-.227 0-.436-.046-.629-.139-.193-.092-.36-.217-.503-.377-.138-.159-.245-.339-.32-.54-.076-.206-.114-.417-.114-.635zm2.735.503v-1.012c-.055-.151-.143-.287-.264-.409-.122-.126-.26-.224-.415-.295-.151-.076-.302-.113-.453-.113-.234 0-.44.065-.616.194-.172.126-.306.292-.402.497-.096.201-.145.413-.145.635 0 .235.053.452.158.654.108.201.255.362.44.484.184.117.391.176.622.176.142 0 .291-.036.446-.107.159-.076.298-.174.415-.296.121-.121.193-.257.214-.408zm6.203 1.188c-.256 0-.493-.065-.711-.195-.218-.134-.387-.302-.509-.503v.635h-.383v-4.589h.427v1.999c.147-.222.323-.4.528-.534.206-.138.444-.208.717-.208.23 0 .436.049.616.145.184.096.341.226.471.39.13.159.229.341.296.547.067.201.1.408.1.622 0 .306-.069.587-.207.842-.134.256-.319.461-.553.616-.235.155-.499.233-.792.233zm-.101-.377c.239 0 .448-.063.629-.189.184-.126.329-.287.433-.484.105-.201.158-.415.158-.641 0-.231-.051-.446-.151-.648-.097-.201-.233-.364-.409-.49s-.379-.188-.61-.188c-.255 0-.482.081-.678.245-.193.163-.342.354-.447.572v1.018c.021.151.09.287.208.409.117.121.255.217.415.289.159.071.31.107.452.107zm2.455 1.32c.059.004.116.006.17.006.055.004.094.002.119-.006.051-.005.097-.034.139-.088.046-.051.1-.147.163-.29.067-.138.157-.347.27-.628l-1.426-3.275h.452l1.201 2.835 1.106-2.835h.427l-1.697 4.224c-.046.122-.123.226-.232.314s-.254.134-.434.139c-.038.004-.077.004-.119 0-.042 0-.088-.005-.139-.013zm-29.4708 4.121h-.8108l-.2955 1.232h.8423v.34h-.924l-.3143 1.301h-.3645l.3205-1.301h-1.188l-.3142 1.301h-.3646l.3206-1.301h-.7103v-.34h.792l.2954-1.232h-.8171v-.32h.8988l.308-1.27h.3646l-.3143 1.27h1.188l.308-1.27h.3646l-.3143 1.27h.7291zm-1.4645 1.232.2954-1.232h-1.188l-.2954 1.232zm2.2613 1.641v-4.463h1.514c.474 0 .868.101 1.182.302.319.197.557.465.717.804.159.336.239.708.239 1.119 0 .453-.088.847-.264 1.182s-.424.595-.742.779c-.319.185-.696.277-1.132.277zm3.212-2.238c0-.356-.067-.672-.202-.949-.129-.277-.322-.492-.578-.647-.251-.16-.557-.239-.918-.239h-1.074v3.683h1.074c.369 0 .679-.082.931-.245.251-.163.442-.383.572-.66s.195-.591.195-.943zm2.607 2.301c-.314 0-.595-.078-.842-.233s-.442-.362-.585-.622c-.142-.26-.213-.545-.213-.855 0-.306.069-.587.207-.842.142-.256.337-.459.585-.61.247-.155.528-.233.842-.233.323 0 .605.078.848.233s.432.36.566.616c.138.251.208.528.208.83 0 .067-.003.123-.007.169h-2.803c.021.235.088.445.201.629.113.18.258.325.434.434.176.104.368.157.578.157.214 0 .415-.055.603-.164.189-.109.323-.251.403-.427l.371.101c-.067.159-.172.301-.315.427-.138.122-.299.218-.484.289-.184.067-.383.101-.597.101zm-1.207-1.855h2.42c-.016-.234-.081-.442-.195-.622-.113-.184-.257-.327-.433-.427-.176-.105-.371-.157-.585-.157s-.408.052-.584.157c-.176.1-.321.243-.434.427-.109.18-.172.388-.189.622zm4.37 1.792-1.326-3.275h.446l1.119 2.847 1.125-2.847h.422l-1.327 3.275zm2.17-2.263c0-.268.046-.534.139-.798.096-.264.234-.503.414-.717.181-.218.403-.39.667-.515.264-.13.563-.195.899-.195.393 0 .733.092 1.018.276.285.181.494.413.628.698l-.345.214c-.097-.197-.218-.352-.365-.465-.147-.118-.304-.201-.471-.252-.164-.05-.327-.075-.491-.075-.268 0-.505.054-.71.163-.205.105-.379.248-.522.428-.138.18-.243.379-.314.597s-.107.44-.107.666c0 .247.042.484.126.71.084.223.201.422.352.598s.327.316.528.421c.205.1.427.151.666.151.168 0 .34-.03.516-.088.176-.059.339-.149.49-.271.151-.121.274-.278.371-.471l.364.188c-.096.223-.241.411-.433.566-.189.155-.403.273-.641.352-.235.08-.466.12-.692.12-.306 0-.587-.065-.842-.195-.256-.134-.478-.31-.666-.528-.185-.222-.327-.47-.428-.742-.1-.277-.151-.555-.151-.836zm4.454 2.653v-.39h2.395v.39zm7.315-.39v-3.633l-1.616 2.822h-.276l-1.622-2.822v3.633h-.44v-4.463h.453l1.741 3.055 1.754-3.055h.446v4.463zm2.817.063c-.314 0-.595-.078-.842-.233-.244-.155-.434-.36-.572-.616-.139-.26-.208-.54-.208-.842 0-.306.069-.587.208-.842.142-.26.335-.468.578-.623.247-.159.526-.239.836-.239.314 0 .593.08.836.239.247.155.44.363.578.623.143.255.214.536.214.842 0 .302-.069.582-.208.842-.138.256-.331.461-.578.616-.243.155-.524.233-.842.233zm-1.188-1.685c0 .243.052.465.157.666.109.197.253.355.434.472.18.113.379.17.597.17s.417-.059.597-.176c.18-.118.325-.277.434-.478s.163-.423.163-.666-.054-.466-.163-.667-.254-.36-.434-.477c-.18-.118-.379-.176-.597-.176-.214 0-.411.06-.591.182-.18.117-.325.276-.434.478-.109.201-.163.425-.163.672zm5.165-1.276c-.285.009-.536.088-.754.239-.214.151-.365.358-.453.622v2.037h-.427v-3.275h.402v.786c.113-.231.262-.417.446-.56.189-.142.388-.222.597-.239.042-.004.078-.006.107-.006.03 0 .057.002.082.006zm1.867 2.961c-.315 0-.596-.078-.843-.233-.243-.155-.433-.36-.572-.616-.138-.26-.207-.54-.207-.842 0-.306.069-.587.207-.842.143-.26.335-.468.579-.623.247-.159.525-.239.836-.239.314 0 .592.08.836.239.247.155.44.363.578.623.142.255.214.536.214.842 0 .302-.07.582-.208.842-.138.256-.331.461-.578.616-.243.155-.524.233-.842.233zm-1.188-1.685c0 .243.052.465.157.666.109.197.253.355.433.472.181.113.38.17.598.17.217 0 .416-.059.597-.176.18-.118.324-.277.433-.478s.164-.423.164-.666-.055-.466-.164-.667-.253-.36-.433-.477c-.181-.118-.38-.176-.597-.176-.214 0-.411.06-.591.182-.181.117-.325.276-.434.478-.109.201-.163.425-.163.672zm4.951 1.685c-.319 0-.601-.078-.849-.233-.247-.159-.442-.367-.584-.622-.143-.26-.214-.545-.214-.855s.069-.591.208-.842c.138-.256.331-.459.578-.61.247-.155.532-.233.855-.233.306 0 .574.072.804.214.235.138.411.327.528.566l-.415.132c-.092-.168-.222-.298-.389-.39-.164-.096-.346-.144-.547-.144-.222 0-.423.056-.604.169-.176.113-.318.271-.427.472-.105.197-.157.419-.157.666s.054.471.163.673c.109.201.254.362.434.484.18.117.379.176.597.176.143 0 .281-.026.415-.076s.249-.117.346-.201c.096-.088.161-.182.195-.283l.421.126c-.059.155-.155.295-.289.421-.135.122-.294.218-.478.289-.185.067-.382.101-.591.101zm3.419 0c-.318 0-.601-.078-.849-.233-.247-.159-.442-.367-.584-.622-.143-.26-.214-.545-.214-.855s.069-.591.208-.842c.138-.256.331-.459.578-.61.247-.155.532-.233.855-.233.306 0 .574.072.804.214.235.138.411.327.528.566l-.415.132c-.092-.168-.222-.298-.389-.39-.164-.096-.346-.144-.547-.144-.222 0-.423.056-.604.169-.176.113-.318.271-.427.472-.105.197-.157.419-.157.666s.054.471.163.673c.109.201.254.362.434.484.18.117.379.176.597.176.143 0 .281-.026.415-.076s.249-.117.346-.201c.096-.088.161-.182.195-.283l.421.126c-.059.155-.155.295-.289.421-.134.122-.294.218-.478.289-.184.067-.381.101-.591.101zm3.394 0c-.314 0-.595-.078-.842-.233-.243-.155-.434-.36-.572-.616-.139-.26-.208-.54-.208-.842 0-.306.069-.587.208-.842.142-.26.335-.468.578-.623.247-.159.526-.239.836-.239.314 0 .593.08.836.239.247.155.44.363.578.623.143.255.214.536.214.842 0 .302-.069.582-.207.842-.139.256-.331.461-.579.616-.243.155-.524.233-.842.233zm-1.188-1.685c0 .243.052.465.157.666.109.197.254.355.434.472.18.113.379.17.597.17s.417-.059.597-.176c.18-.118.325-.277.434-.478s.163-.423.163-.666-.054-.466-.163-.667-.254-.36-.434-.477c-.18-.118-.379-.176-.597-.176-.214 0-.411.06-.591.182-.18.117-.325.276-.434.478-.109.201-.163.425-.163.672z" fill="#b2a6ea"/><path clip-rule="evenodd" d="m.00001526 6.36498c3.63580474 0 6.58320474-2.65972 6.58320474-5.940648 0-.142675-.00557-.284174-.01653-.424332h294.86631c-.011.140158-.016.281659-.016.424334 0 3.280936 2.947 5.940656 6.583 5.940656v11.88131c-3.636 0-6.583 2.6597-6.583 5.9406 0 3.281 2.947 5.9407 6.583 5.9407v11.8813c-3.636 0-6.583 2.6597-6.583 5.9407 0 3.2809 2.947 5.9406 6.583 5.9406v11.8813c-3.636 0-6.583 2.6597-6.583 5.9407 0 3.2809 2.947 5.9406 6.583 5.9406v11.8813c-3.636 0-6.583 2.6598-6.583 5.9407s2.947 5.9402 6.583 5.9402v11.882c-3.636 0-6.583 2.659-6.583 5.94s2.947 5.941 6.583 5.941v11.881c-3.636 0-6.583 2.66-6.583 5.941h-294.83378c0-3.281-2.9474-5.941-6.58320474-5.941v-11.881c3.63580474 0 6.58320474-2.66 6.58320474-5.941s-2.9474-5.94-6.58320474-5.94v-11.882c3.63580474 0 6.58320474-2.6593 6.58320474-5.9402 0-3.281-2.9474-5.9407-6.58320474-5.9407v-11.8813c3.63580474 0 6.58320474-2.6597 6.58320474-5.9406 0-3.281-2.9474-5.9407-6.58320474-5.9407v-11.8813c3.63580474 0 6.58320474-2.6597 6.58320474-5.9406 0-3.281-2.9474-5.9407-6.58320474-5.9407l-.00001526-11.8813c3.63582 0 6.58322-2.6597 6.58322-5.9407 0-3.2809-2.9474-5.9406-6.58320474-5.9406h-.00001526v-11.88132z" fill="url(#a)" fill-opacity=".1" fill-rule="evenodd"/><path d="m6.56669 0v-8h-8.6501l.67445 8.623764zm294.86631 0 7.976.623438.674-8.623438h-8.65zm6.567 6.36499h8v-8h-8zm0 11.88131v8h8v-8zm0 11.8813h8v-8h-8zm0 11.8813v8h8v-8zm0 11.8813h8v-8h-8zm0 11.8813v8h8v-8zm0 11.8813h8v-8h-8zm0 11.8813v8h8v-8zm0 11.8809h8v-7.9996h-8zm0 11.882v8h8v-8zm0 11.881h8v-8h-8zm0 11.881v8h8v-8zm-6.583 5.941v8h8v-8zm-294.83378 0h-8v8h8zm-6.58320474-5.941h-7.99999526v8h7.99999526zm0-11.881v-8h-7.99999526v8zm0-11.881h-7.99999526v8h7.99999526zm0-11.882v-7.9996h-7.99999526v7.9996zm0-11.8809h-7.99999526v8h7.99999526zm0-11.8813v-8h-7.99999526v8zm0-11.8813h-7.99999526v8h7.99999526zm0-11.8813v-8h-7.99999526v8zm0-11.8813h-7.99999526l.00001 8h7.99998526zm-.00001526-11.8813v-8h-8.00001l.00001 8zm0-11.8813h-8v8h8zm0-11.88132v-8h-8v8zm-1.41678-5.940648c0-.851679.39961-1.456472.712253-1.738602.299378-.27015.570591-.32075.70454226-.32075v16.00002c7.26133474 0 14.58318474-5.48834 14.58318474-13.940668zm.00782.199432c-.00524-.067062-.00782-.133641-.00782-.199432h15.99998c0-.3511403-.0137-.700719-.0409-1.048096zm302.84196-8.623764h-294.86631v16h294.86631zm7.984 8.424334c0 .066203-.003.132672-.008.199104l-15.951-1.246876c-.027.346748-.041.6962186-.041 1.047772zm-1.417-2.059344c.134 0 .405.05058.705.32074.312.28214.712.886936.712 1.738604h-16c0 8.452336 7.322 13.940666 14.583 13.940666zm8 19.88131v-11.88131h-16v11.88131zm-6.583 5.9406c0 .8517-.4 1.4565-.712 1.7386-.3.2702-.571.3208-.705.3208v-16c-7.261 0-14.583 5.4883-14.583 13.9406zm-1.417-2.0593c.134 0 .405.0506.705.3207.312.2822.712.887.712 1.7386h-16c0 8.4524 7.322 13.9407 14.583 13.9407zm8 19.8813v-11.8813h-16v11.8813zm-6.583 5.9407c0 .8516-.4 1.4564-.712 1.7386-.3.2701-.571.3207-.705.3207v-16c-7.261 0-14.583 5.4883-14.583 13.9407zm-1.417-2.0594c.134 0 .405.0506.705.3208.312.2821.712.8869.712 1.7386h-16c0 8.4523 7.322 13.9406 14.583 13.9406zm8 19.8813v-11.8813h-16v11.8813zm-6.583 5.9407c0 .8516-.4 1.4564-.712 1.7386-.3.2701-.571.3207-.705.3207v-16c-7.261 0-14.583 5.4883-14.583 13.9407zm-1.417-2.0594c.134 0 .405.0506.705.3208.312.2821.712.8869.712 1.7386h-16c0 8.4523 7.322 13.9406 14.583 13.9406zm8 19.8813v-11.8813h-16v11.8813zm-6.583 5.9407c0 .8517-.4 1.4565-.712 1.7386-.3.2702-.571.3207-.705.3207v-16c-7.261 0-14.583 5.4884-14.583 13.9407zm-1.417-2.0594c.134 0 .405.0506.705.3208.312.2821.712.8869.712 1.7386h-16c0 8.4522 7.322 13.9402 14.583 13.9402zm8 19.8816v-11.882h-16v11.882zm-6.583 5.94c0 .852-.4 1.457-.712 1.739-.3.27-.571.321-.705.321v-16c-7.261 0-14.583 5.488-14.583 13.94zm-1.417-2.059c.134 0 .405.051.705.321.312.282.712.887.712 1.738h-16c0 8.453 7.322 13.941 14.583 13.941zm8 19.881v-11.881h-16v11.881zm-6.583 5.941c0 .852-.4 1.456-.712 1.739-.3.27-.571.32-.705.32v-16c-7.261 0-14.583 5.489-14.583 13.941zm-302.83378 8h294.83378v-16h-294.83378zm-6.58320474-5.941c-.13395826 0-.40517226-.05-.70454726-.32-.312638-.283-.712248-.887-.712248-1.739h15.99998c0-8.452-7.32184-13.941-14.58318474-13.941zm-7.99999526-19.881v11.881h16v-11.881zm6.5832-5.941c0-.851.39961-1.456.712253-1.738.299378-.27.570591-.321.70454226-.321v16c7.26132474 0 14.58318474-5.488 14.58318474-13.941zm1.41679526 2.06c-.13395126 0-.40516426-.051-.70454226-.321-.312643-.282-.712253-.887-.712253-1.739h15.99998c0-8.452-7.32186-13.94-14.58318474-13.94zm-7.99999526-19.882v11.882h16v-11.882zm6.5832-5.9402c0-.8517.39961-1.4565.712253-1.7386.299378-.2702.570591-.3208.70454226-.3208v15.9996c7.26132474 0 14.58318474-5.488 14.58318474-13.9402zm1.41679526 2.0593c-.13395126 0-.40516426-.0506-.70454226-.3207-.312643-.2822-.712253-.8869-.712253-1.7386h15.99998c0-8.4524-7.32186-13.9407-14.58318474-13.9407zm-7.99999526-19.8813v11.8813h16v-11.8813zm6.5832-5.9406c0-.8517.39961-1.4565.712253-1.7386.299378-.2702.570591-.3208.70454226-.3208v16c7.26132474 0 14.58318474-5.4883 14.58318474-13.9406zm1.41679526 2.0593c-.13395126 0-.40516426-.0506-.70454226-.3207-.312643-.2822-.712253-.887-.712253-1.7386h15.99998c0-8.4524-7.32186-13.9407-14.58318474-13.9407zm-7.99999526-19.8813v11.8813h16v-11.8813zm6.5832-5.9406c0-.8517.39961-1.4565.712252-1.7386.299378-.2702.570592-.3208.70454326-.3208v16c7.26133474 0 14.58318474-5.4883 14.58318474-13.9406zm1.41679526 2.0593c-.13395126 0-.40516426-.0506-.70454226-.3207-.312643-.2822-.712253-.887-.712253-1.7386h15.99998c0-8.4524-7.32186-13.9407-14.58318474-13.9407zm-8.00001526-19.8813.00002 11.8813h16l-.00002-11.8813zm6.58322-5.9407c0-.8516.39961-1.4564.712255-1.7386.29938-.2701.570589-.3207.704525-.3207v16c7.26133 0 14.5832-5.4883 14.5832-13.9407zm1.41679526 2.0594c-.13395126 0-.40516526-.0506-.70454226-.3208-.312643-.2821-.712253-.8869-.712253-1.7386h15.99998c0-8.4523-7.32185-13.9406-14.58318474-13.9406zm-.00001526 0h.00001526v-16h-.00001526zm-8-19.88132v11.88132h16v-11.88132zm8.00001526-8h-.00001526v16.00002h.00001526z" fill="#fff" fill-opacity=".1" mask="url(#d)"/></svg>