<svg fill="none" height="273" viewBox="0 0 655 273" width="655" xmlns="http://www.w3.org/2000/svg" xmlns:xlink="http://www.w3.org/1999/xlink"><linearGradient id="a" gradientUnits="userSpaceOnUse" x1="14.5" x2="655" y1="-13.5" y2="291.5"><stop offset="0" stop-color="#fff"/><stop offset="1" stop-color="#fff" stop-opacity=".39"/></linearGradient><mask id="b" fill="#fff"><path clip-rule="evenodd" d="m519 0c0 14.3594 11.641 26 26 26s26-11.6406 26-26h64c11.046 0 20 8.9543 20 20v233c0 11.046-8.954 20-20 20h-64c0-14.359-11.641-26-26-26s-26 11.641-26 26h-499c-11.04572 0-20-8.954-20-20v-90c14.3594 0 26-11.641 26-26s-11.6406-26-26-26v-91c0-11.04569 8.95428-20 20-20z" fill="#fff" fill-rule="evenodd"/></mask><g fill="#483595"><rect height="9" rx="2.5" width="5" x="543" y="34"/><rect height="9" rx="2.5" width="5" x="543" y="52"/><rect height="9" rx="2.5" width="5" x="543" y="70"/><rect height="9" rx="2.5" width="5" x="543" y="88"/><rect height="9" rx="2.5" width="5" x="543" y="106"/><rect height="9" rx="2.5" width="5" x="543" y="124"/><rect height="9" rx="2.5" width="5" x="543" y="142"/><rect height="9" rx="2.5" width="5" x="543" y="160"/><rect height="9" rx="2.5" width="5" x="543" y="178"/><rect height="9" rx="2.5" width="5" x="543" y="196"/><rect height="9" rx="2.5" width="5" x="543" y="214"/><rect height="9" rx="2.5" width="5" x="543" y="232"/></g><path clip-rule="evenodd" d="m519 0c0 14.3594 11.641 26 26 26s26-11.6406 26-26h64c11.046 0 20 8.9543 20 20v233c0 11.046-8.954 20-20 20h-64c0-14.359-11.641-26-26-26s-26 11.641-26 26h-499c-11.04572 0-20-8.954-20-20v-90c14.3594 0 26-11.641 26-26s-11.6406-26-26-26v-91c0-11.04569 8.95428-20 20-20z" fill="url(#a)" fill-opacity=".1" fill-rule="evenodd"/><path d="m519 0v-5h5v5zm52 0h-5v-5h5zm0 273v5h-5v-5zm-52 0h5v5h-5zm-519-110h-5v-5h5zm0-52v5h-5v-5zm545-80c-17.121 0-31-13.8792-31-31h10c0 11.598 9.402 21 21 21zm31-31c0 17.1208-13.879 31-31 31v-10c11.598 0 21-9.402 21-21zm59 5h-64v-10h64zm15 15c0-8.2843-6.716-15-15-15v-10c13.807 0 25 11.19288 25 25zm0 233v-233h10v233zm-15 15c8.284 0 15-6.716 15-15h10c0 13.807-11.193 25-25 25zm-64 0h64v10h-64zm-5 5c0-11.598-9.402-21-21-21v-10c17.121 0 31 13.879 31 31zm-21-21c-11.598 0-21 9.402-21 21h-10c0-17.121 13.879-31 31-31zm-525 16h499v10h-499zm-15-15c0 8.284 6.7157 15 15 15v10c-13.80714 0-25-11.193-25-25zm0-90v90h-10v-90zm26-26c0 17.121-13.8792 31-31 31v-10c11.598 0 21-9.402 21-21zm-31-31c17.1208 0 31 13.879 31 31h-10c0-11.598-9.402-21-21-21zm5-86v91h-10v-91zm15-15c-8.2843 0-15 6.7157-15 15h-10c0-13.80711 11.19286-25 25-25zm499 0h-499v-10h499z" fill="#fff" fill-opacity=".1" mask="url(#b)"/><path d="m64 167h103v43.6042h-103z" fill="#39297d"/><path d="m91.5539 193.096v-.052c0-1.207-.3017-2.148-.9052-2.821-.6035-.69-1.4312-1.233-2.4831-1.63.3277-.173.6294-.38.9053-.621.2931-.242.5432-.518.7501-.829.2242-.327.3966-.69.5173-1.087.1379-.396.2069-.854.2069-1.371v-.052c0-1.432-.5345-2.571-1.6036-3.416-1.0519-.846-2.5089-1.268-4.3712-1.268h-8.4061v18.116h8.613c1.0174 0 1.9399-.103 2.7676-.31.8449-.207 1.5605-.518 2.1468-.932.6035-.414 1.0604-.932 1.3708-1.553.3276-.621.4914-1.346.4914-2.174zm-4.966-7.738c0 .673-.2587 1.164-.776 1.475-.5173.293-1.2156.44-2.095.44h-3.6729v-3.831h3.9315c.8449 0 1.4916.164 1.9399.492.4483.311.6725.768.6725 1.372zm1.0087 7.246c0 .673-.25 1.174-.7501 1.502-.5.31-1.1898.465-2.0692.465h-4.7333v-3.985h4.604c1.0346 0 1.7847.181 2.2503.543.4655.345.6983.82.6983 1.424z" fill="#fff"/><path d="m98.5292 198.065v-18.893h-3.9315v18.893z" fill="#fff"/><path d="m114.145 198.065v-8.049c0-1.88-.491-3.347-1.474-4.4-.983-1.052-2.552-1.578-4.707-1.578-1.173 0-2.173.103-3.001.31-.827.207-1.621.475-2.379.803l.983 3.002c.638-.242 1.241-.423 1.81-.544.586-.138 1.259-.207 2.018-.207.982 0 1.724.216 2.224.647.5.432.75 1.061.75 1.89v.233c-.5-.173-1.017-.311-1.552-.415-.517-.103-1.129-.155-1.836-.155-.828 0-1.587.095-2.276.285-.673.172-1.259.44-1.759.802-.483.363-.862.82-1.138 1.372s-.414 1.208-.414 1.967v.052c0 .69.121 1.302.362 1.837.259.518.604.958 1.035 1.32s.931.639 1.5.828c.586.173 1.207.259 1.862.259.966 0 1.785-.155 2.457-.466.673-.328 1.25-.759 1.733-1.294v1.501zm-3.724-4.891c0 .724-.285 1.311-.854 1.76-.552.448-1.293.673-2.224.673-.638 0-1.155-.147-1.552-.44-.397-.294-.595-.708-.595-1.243v-.051c0-.622.241-1.096.724-1.424s1.147-.492 1.992-.492c.483 0 .931.052 1.345.156.431.086.819.207 1.164.362z" fill="#fff"/><path d="m132.09 191.155v-.052c0-1.156-.181-2.174-.543-3.054-.345-.897-.81-1.647-1.397-2.251-.586-.621-1.258-1.087-2.017-1.398-.759-.31-1.543-.466-2.354-.466-1.034 0-1.896.216-2.586.647-.673.414-1.25.949-1.733 1.605v-7.014h-3.932v18.893h3.932v-1.811c.465.552 1.034 1.035 1.707 1.449.69.414 1.56.621 2.612.621.828 0 1.621-.155 2.38-.466.759-.31 1.422-.768 1.991-1.371.587-.622 1.052-1.372 1.397-2.252.362-.897.543-1.924.543-3.08zm-3.931 0c0 .587-.095 1.113-.285 1.579-.172.466-.413.871-.724 1.216-.31.328-.672.587-1.086.777-.397.172-.828.258-1.293.258-.466 0-.906-.086-1.32-.258-.396-.19-.75-.449-1.06-.777-.293-.345-.535-.75-.724-1.216-.173-.483-.259-1.01-.259-1.579v-.052c0-.569.086-1.087.259-1.553.189-.483.431-.888.724-1.216.31-.345.664-.604 1.06-.776.414-.19.854-.285 1.32-.285.465 0 .896.095 1.293.285.414.172.776.431 1.086.776.311.328.552.733.724 1.216.19.466.285.984.285 1.553z" fill="#fff"/><path d="m139.095 198.065v-18.893h-3.932v18.893z" fill="#fff"/><path d="m154.711 198.065v-8.049c0-1.88-.492-3.347-1.474-4.4-.983-1.052-2.552-1.578-4.708-1.578-1.172 0-2.173.103-3 .31-.828.207-1.621.475-2.38.803l.983 3.002c.638-.242 1.242-.423 1.811-.544.586-.138 1.258-.207 2.017-.207.983 0 1.724.216 2.224.647.501.432.751 1.061.751 1.89v.233c-.5-.173-1.018-.311-1.552-.415-.518-.103-1.13-.155-1.837-.155-.827 0-1.586.095-2.276.285-.672.172-1.259.44-1.759.802-.482.363-.862.82-1.138 1.372s-.414 1.208-.414 1.967v.052c0 .69.121 1.302.363 1.837.258.518.603.958 1.034 1.32s.931.639 1.5.828c.587.173 1.207.259 1.863.259.965 0 1.784-.155 2.457-.466.672-.328 1.25-.759 1.733-1.294v1.501zm-3.725-4.891c0 .724-.284 1.311-.853 1.76-.552.448-1.293.673-2.225.673-.638 0-1.155-.147-1.552-.44-.396-.294-.594-.708-.594-1.243v-.051c0-.622.241-1.096.724-1.424s1.146-.492 1.991-.492c.483 0 .932.052 1.345.156.431.086.819.207 1.164.362z" fill="#fff"/><path d="m112.423 210.604h-48.423l48.423 22.396z" fill="#39297d"/><path d="m125.719 226.414-.67-.657c-.43.412-.868.735-1.314.967-.447.223-.98.335-1.598.335-.498 0-.962-.095-1.392-.284-.421-.197-.79-.464-1.108-.799-.309-.335-.554-.731-.734-1.186-.172-.456-.258-.946-.258-1.47s.086-1.01.258-1.457c.18-.455.425-.851.734-1.186.318-.335.687-.597 1.108-.786.43-.189.894-.284 1.392-.284.618 0 1.147.116 1.585.348.446.232.863.529 1.249.89l.696-.748c-.223-.215-.455-.408-.696-.58-.24-.181-.502-.331-.786-.451-.283-.129-.592-.228-.927-.297-.327-.069-.696-.103-1.108-.103-.662 0-1.271.125-1.83.374-.558.24-1.039.576-1.443 1.005-.404.422-.721.916-.953 1.483-.224.567-.335 1.173-.335 1.818 0 .653.111 1.263.335 1.831.232.567.549 1.061.953 1.482.404.413.881.739 1.43.98.55.241 1.151.361 1.804.361.412 0 .786-.039 1.121-.116s.649-.185.941-.322c.292-.138.562-.301.811-.49.258-.198.503-.417.735-.658z" fill="#fff"/><path d="m136.049 223.32c0-.627-.112-1.22-.335-1.779-.215-.567-.524-1.062-.928-1.483-.404-.429-.889-.769-1.456-1.018-.558-.249-1.181-.374-1.868-.374s-1.314.129-1.881.387c-.567.249-1.053.588-1.456 1.018-.404.43-.717.928-.941 1.496-.223.558-.335 1.151-.335 1.779 0 .627.108 1.225.322 1.792.224.559.537 1.053.941 1.482.404.422.885.757 1.443 1.006.567.249 1.194.374 1.881.374s1.314-.125 1.881-.374c.567-.258 1.052-.602 1.456-1.031.404-.43.717-.924.941-1.483.223-.567.335-1.165.335-1.792zm-1.057.026c0 .516-.09 1.001-.27 1.457-.172.447-.413.838-.722 1.173s-.683.602-1.121.799c-.429.189-.902.284-1.417.284-.516 0-.992-.099-1.43-.297-.43-.197-.803-.464-1.121-.799s-.567-.731-.748-1.186c-.171-.456-.257-.941-.257-1.457s.086-.997.257-1.444c.181-.455.426-.851.735-1.186s.678-.597 1.108-.786c.438-.198.915-.297 1.43-.297s.988.099 1.417.297c.438.197.816.464 1.134.799s.563.731.735 1.186c.18.456.27.941.27 1.457z" fill="#fff"/><path d="m144.831 226.053-5.682-7.232h-.954v9.024h.992v-7.4l5.824 7.4h.812v-9.024h-.992z" fill="#fff"/><path d="m154.855 218.821h-6.481v9.024h1.018v-3.932h4.883v-.928h-4.883v-3.223h5.463z" fill="#fff"/><path d="m64.0001 210.604h48.4209v7.832z" fill="#2b1d6b"/><path d="m194.862 171.299c.555 0 1.071.096 1.547.289.487.181.907.442 1.258.782s.629.748.833 1.224c.204.465.306.98.306 1.547 0 .601-.113 1.15-.34 1.649-.215.487-.516.912-.901 1.275-.374.351-.822.623-1.343.816s-1.082.289-1.683.289c-.861 0-1.638-.204-2.329-.612-.68-.408-1.201-.958-1.564-1.649l.935-.816c.317.533.737.958 1.258 1.275.533.306 1.105.459 1.717.459.385 0 .742-.062 1.071-.187.34-.136.629-.317.867-.544.249-.238.442-.516.578-.833.136-.329.204-.691.204-1.088 0-.374-.068-.72-.204-1.037s-.323-.589-.561-.816c-.227-.238-.499-.419-.816-.544s-.657-.187-1.02-.187c-.476 0-.929.108-1.36.323s-.776.521-1.037.918h-1.36c.011-.057.04-.198.085-.425.045-.238.102-.521.17-.85.068-.34.142-.714.221-1.122s.159-.822.238-1.241c.193-.975.408-2.063.646-3.264h5.865v1.377h-4.76l-.731 3.842c.51-.567 1.247-.85 2.21-.85zm10.362 7.701v-12.07h4.182c.964 0 1.808.159 2.533.476.737.317 1.349.748 1.836 1.292.488.544.85 1.184 1.088 1.921.25.725.374 1.502.374 2.329 0 .918-.136 1.751-.408 2.499-.272.737-.663 1.371-1.173 1.904-.51.521-1.127.929-1.853 1.224-.714.283-1.513.425-2.397.425zm8.466-6.052c0-.68-.096-1.303-.289-1.87-.181-.578-.459-1.071-.833-1.479-.362-.408-.81-.725-1.343-.952-.532-.238-1.139-.357-1.819-.357h-2.652v9.35h2.652c.692 0 1.304-.119 1.836-.357.544-.238.992-.567 1.343-.986.363-.419.635-.912.816-1.479.193-.578.289-1.201.289-1.87zm5.66 6.222c-.419 0-.81-.068-1.173-.204-.362-.147-.68-.346-.952-.595-.26-.249-.47-.538-.629-.867-.147-.34-.221-.708-.221-1.105 0-.408.091-.776.272-1.105.182-.34.437-.629.765-.867.34-.238.737-.425 1.19-.561.465-.136.969-.204 1.513-.204.431 0 .867.04 1.309.119s.833.187 1.173.323v-.714c0-.725-.204-1.292-.612-1.7-.408-.419-.986-.629-1.734-.629-.895 0-1.836.346-2.822 1.037l-.493-.969c1.145-.771 2.295-1.156 3.451-1.156 1.168 0 2.074.312 2.72.935.658.623.986 1.502.986 2.635v3.621c0 .351.159.533.476.544v1.292c-.158.023-.289.04-.391.051s-.209.017-.323.017c-.294 0-.532-.085-.714-.255-.17-.181-.272-.397-.306-.646l-.034-.629c-.396.533-.901.941-1.513 1.224-.6.272-1.246.408-1.938.408zm.391-1.122c.533 0 1.026-.096 1.479-.289.465-.204.816-.47 1.054-.799.216-.215.323-.436.323-.663v-1.309c-.725-.283-1.479-.425-2.261-.425-.748 0-1.36.159-1.836.476-.464.317-.697.731-.697 1.241 0 .249.046.482.136.697.102.215.238.402.408.561.182.159.391.283.629.374s.493.136.765.136zm6.87 3.366c.147.023.295.04.442.051s.261.017.34.017c.136 0 .255-.034.357-.102.113-.057.221-.176.323-.357.113-.181.238-.436.374-.765.136-.317.306-.737.51-1.258l-3.757-8.874h1.547l3.026 7.531 2.754-7.531h1.428l-4.318 11.203c-.159.397-.425.742-.799 1.037-.363.306-.867.459-1.513.459-.102 0-.21-.006-.323-.017-.102-.011-.232-.034-.391-.068zm11.734-2.244c-.714 0-1.416-.108-2.108-.323-.691-.227-1.286-.55-1.785-.969l.646-1.003c.522.397 1.043.697 1.564.901.522.193 1.071.289 1.649.289.646 0 1.156-.125 1.53-.374.386-.261.578-.623.578-1.088 0-.215-.051-.397-.153-.544-.102-.159-.255-.295-.459-.408s-.464-.215-.782-.306c-.317-.091-.685-.187-1.105-.289-.532-.136-.991-.266-1.377-.391-.385-.125-.702-.272-.952-.442-.249-.17-.43-.374-.544-.612-.113-.238-.17-.533-.17-.884 0-.442.085-.833.255-1.173.182-.351.425-.64.731-.867.306-.238.663-.414 1.071-.527.42-.125.867-.187 1.343-.187.669 0 1.292.108 1.87.323s1.066.499 1.462.85l-.68.901c-.374-.329-.793-.572-1.258-.731-.464-.17-.94-.255-1.428-.255-.544 0-1.008.119-1.394.357-.374.227-.561.595-.561 1.105 0 .204.034.374.102.51.08.136.204.255.374.357s.386.193.646.272c.272.079.595.164.969.255.59.136 1.1.278 1.53.425.442.136.805.3 1.088.493.295.193.51.419.646.68.148.261.221.578.221.952 0 .827-.317 1.485-.952 1.972-.634.487-1.49.731-2.567.731zm11.868 0c-.42 0-.811-.068-1.173-.204-.363-.147-.68-.346-.952-.595-.261-.249-.471-.538-.629-.867-.148-.34-.221-.708-.221-1.105 0-.408.09-.776.272-1.105.181-.34.436-.629.765-.867.34-.238.736-.425 1.19-.561.464-.136.969-.204 1.513-.204.43 0 .867.04 1.309.119s.833.187 1.173.323v-.714c0-.725-.204-1.292-.612-1.7-.408-.419-.986-.629-1.734-.629-.896 0-1.836.346-2.822 1.037l-.493-.969c1.144-.771 2.295-1.156 3.451-1.156 1.167 0 2.074.312 2.72.935.657.623.986 1.502.986 2.635v3.621c0 .351.158.533.476.544v1.292c-.159.023-.289.04-.391.051s-.21.017-.323.017c-.295 0-.533-.085-.714-.255-.17-.181-.272-.397-.306-.646l-.034-.629c-.397.533-.901.941-1.513 1.224-.601.272-1.247.408-1.938.408zm.391-1.122c.532 0 1.025-.096 1.479-.289.464-.204.816-.47 1.054-.799.215-.215.323-.436.323-.663v-1.309c-.726-.283-1.479-.425-2.261-.425-.748 0-1.36.159-1.836.476-.465.317-.697.731-.697 1.241 0 .249.045.482.136.697.102.215.238.402.408.561.181.159.391.283.629.374s.493.136.765.136zm14.445.952h-1.496v-4.964c0-.952-.148-1.643-.442-2.074-.284-.431-.72-.646-1.309-.646-.306 0-.612.062-.918.187-.306.113-.595.272-.867.476s-.51.448-.714.731-.357.595-.459.935v5.355h-1.496v-8.874h1.36v1.904c.351-.623.855-1.122 1.513-1.496.668-.374 1.394-.561 2.176-.561.51 0 .935.096 1.275.289.34.181.612.442.816.782.204.329.345.72.425 1.173.09.453.136.946.136 1.479zm5.981.17c-.612 0-1.179-.125-1.7-.374s-.969-.584-1.343-1.003-.669-.907-.884-1.462c-.204-.555-.306-1.139-.306-1.751 0-.623.096-1.213.289-1.768.204-.567.482-1.06.833-1.479.363-.419.788-.748 1.275-.986.499-.249 1.043-.374 1.632-.374.714 0 1.349.187 1.904.561.567.374 1.014.827 1.343 1.36v-5.304h1.496v10.574c0 .351.159.533.476.544v1.292c-.159.023-.289.04-.391.051-.091.011-.181.017-.272.017-.295 0-.555-.096-.782-.289-.215-.204-.323-.436-.323-.697v-.748c-.351.578-.822 1.031-1.411 1.36-.578.317-1.19.476-1.836.476zm.357-1.292c.272 0 .55-.051.833-.153.295-.102.567-.244.816-.425.261-.181.482-.391.663-.629.193-.249.317-.51.374-.782v-2.55c-.102-.283-.255-.55-.459-.799-.204-.261-.436-.482-.697-.663-.249-.193-.521-.34-.816-.442-.283-.113-.567-.17-.85-.17-.442 0-.844.096-1.207.289-.351.181-.657.431-.918.748-.249.306-.442.663-.578 1.071-.136.397-.204.805-.204 1.224 0 .442.079.867.238 1.275.159.397.374.742.646 1.037s.589.533.952.714c.374.17.776.255 1.207.255zm14.634-6.579c.556 0 1.071.096 1.547.289.488.181.907.442 1.258.782.352.34.629.748.833 1.224.204.465.306.98.306 1.547 0 .601-.113 1.15-.34 1.649-.215.487-.515.912-.901 1.275-.374.351-.821.623-1.343.816-.521.193-1.082.289-1.683.289-.861 0-1.637-.204-2.329-.612-.68-.408-1.201-.958-1.564-1.649l.935-.816c.318.533.737.958 1.258 1.275.533.306 1.105.459 1.717.459.386 0 .743-.062 1.071-.187.34-.136.629-.317.867-.544.25-.238.442-.516.578-.833.136-.329.204-.691.204-1.088 0-.374-.068-.72-.204-1.037s-.323-.589-.561-.816c-.226-.238-.498-.419-.816-.544-.317-.125-.657-.187-1.02-.187-.476 0-.929.108-1.36.323-.43.215-.776.521-1.037.918h-1.36c.012-.057.04-.198.085-.425.046-.238.102-.521.17-.85.068-.34.142-.714.221-1.122.08-.408.159-.822.238-1.241.193-.975.408-2.063.646-3.264h5.865v1.377h-4.76l-.731 3.842c.51-.567 1.247-.85 2.21-.85zm18.552-3.009h-4.165v10.71h-1.53v-10.71h-4.165v-1.36h9.86zm4.814 3.145c-.748.023-1.411.215-1.989.578-.566.363-.969.867-1.207 1.513v5.474h-1.496v-8.874h1.394v2.057c.306-.612.709-1.105 1.207-1.479.499-.385 1.032-.601 1.598-.646h.289c.08 0 .148.006.204.017zm3.762 7.735c-.419 0-.81-.068-1.173-.204-.363-.147-.68-.346-.952-.595-.261-.249-.47-.538-.629-.867-.147-.34-.221-.708-.221-1.105 0-.408.091-.776.272-1.105.181-.34.436-.629.765-.867.34-.238.737-.425 1.19-.561.465-.136.969-.204 1.513-.204.431 0 .867.04 1.309.119s.833.187 1.173.323v-.714c0-.725-.204-1.292-.612-1.7-.408-.419-.986-.629-1.734-.629-.895 0-1.836.346-2.822 1.037l-.493-.969c1.145-.771 2.295-1.156 3.451-1.156 1.167 0 2.074.312 2.72.935.657.623.986 1.502.986 2.635v3.621c0 .351.159.533.476.544v1.292c-.159.023-.289.04-.391.051s-.21.017-.323.017c-.295 0-.533-.085-.714-.255-.17-.181-.272-.397-.306-.646l-.034-.629c-.397.533-.901.941-1.513 1.224-.601.272-1.247.408-1.938.408zm.391-1.122c.533 0 1.026-.096 1.479-.289.465-.204.816-.47 1.054-.799.215-.215.323-.436.323-.663v-1.309c-.725-.283-1.479-.425-2.261-.425-.748 0-1.36.159-1.836.476-.465.317-.697.731-.697 1.241 0 .249.045.482.136.697.102.215.238.402.408.561.181.159.391.283.629.374s.493.136.765.136zm6.149-3.502c0-.623.108-1.213.323-1.768s.521-1.037.918-1.445c.397-.419.867-.748 1.411-.986.555-.249 1.173-.374 1.853-.374.884 0 1.643.198 2.278.595.646.385 1.133.907 1.462 1.564l-1.462.459c-.227-.419-.544-.742-.952-.969-.408-.238-.861-.357-1.36-.357-.408 0-.793.085-1.156.255-.363.159-.674.385-.935.68s-.47.64-.629 1.037c-.147.397-.221.833-.221 1.309 0 .465.079.901.238 1.309s.368.765.629 1.071c.272.295.584.527.935.697.363.17.748.255 1.156.255.261 0 .516-.034.765-.102.261-.079.493-.181.697-.306.215-.125.402-.266.561-.425.159-.17.272-.351.34-.544l1.462.442c-.136.329-.329.629-.578.901-.238.272-.521.504-.85.697s-.697.346-1.105.459c-.397.113-.816.17-1.258.17-.669 0-1.281-.125-1.836-.374s-1.031-.584-1.428-1.003-.708-.907-.935-1.462c-.215-.567-.323-1.162-.323-1.785zm16.264 4.454-3.06-4.335-1.7 1.598v2.737h-1.496v-12.41h1.496v8.16l4.556-4.607h1.649l-3.536 3.672 3.706 5.185zm6.019.17c-.714 0-1.416-.108-2.108-.323-.691-.227-1.286-.55-1.785-.969l.646-1.003c.522.397 1.043.697 1.564.901.522.193 1.071.289 1.649.289.646 0 1.156-.125 1.53-.374.386-.261.578-.623.578-1.088 0-.215-.051-.397-.153-.544-.102-.159-.255-.295-.459-.408s-.464-.215-.782-.306c-.317-.091-.685-.187-1.105-.289-.532-.136-.991-.266-1.377-.391-.385-.125-.702-.272-.952-.442-.249-.17-.43-.374-.544-.612-.113-.238-.17-.533-.17-.884 0-.442.085-.833.255-1.173.182-.351.425-.64.731-.867.306-.238.663-.414 1.071-.527.42-.125.867-.187 1.343-.187.669 0 1.292.108 1.87.323s1.066.499 1.462.85l-.68.901c-.374-.329-.793-.572-1.258-.731-.464-.17-.94-.255-1.428-.255-.544 0-1.008.119-1.394.357-.374.227-.561.595-.561 1.105 0 .204.034.374.102.51.08.136.204.255.374.357s.386.193.646.272c.272.079.595.164.969.255.59.136 1.1.278 1.53.425.442.136.805.3 1.088.493.295.193.51.419.646.68.148.261.221.578.221.952 0 .827-.317 1.485-.952 1.972-.634.487-1.49.731-2.567.731zm8.994-4.624c0-.623.108-1.213.323-1.768.216-.555.522-1.037.918-1.445.397-.419.867-.748 1.411-.986.556-.249 1.173-.374 1.853-.374.884 0 1.644.198 2.278.595.646.385 1.134.907 1.462 1.564l-1.462.459c-.226-.419-.544-.742-.952-.969-.408-.238-.861-.357-1.36-.357-.408 0-.793.085-1.156.255-.362.159-.674.385-.935.68-.26.295-.47.64-.629 1.037-.147.397-.221.833-.221 1.309 0 .465.08.901.238 1.309.159.408.369.765.629 1.071.272.295.584.527.935.697.363.17.748.255 1.156.255.261 0 .516-.034.765-.102.261-.079.493-.181.697-.306.216-.125.403-.266.561-.425.159-.17.272-.351.34-.544l1.462.442c-.136.329-.328.629-.578.901-.238.272-.521.504-.85.697-.328.193-.697.346-1.105.459-.396.113-.816.17-1.258.17-.668 0-1.28-.125-1.836-.374-.555-.249-1.031-.584-1.428-1.003-.396-.419-.708-.907-.935-1.462-.215-.567-.323-1.162-.323-1.785zm13.802 4.624c-.669 0-1.281-.125-1.836-.374-.544-.249-1.015-.584-1.411-1.003-.386-.419-.686-.907-.901-1.462-.216-.555-.323-1.139-.323-1.751 0-.623.107-1.213.323-1.768.226-.555.532-1.043.918-1.462.396-.419.867-.754 1.411-1.003.555-.249 1.161-.374 1.819-.374.657 0 1.263.125 1.819.374.555.249 1.025.584 1.411 1.003.396.419.702.907.918 1.462.226.555.34 1.145.34 1.768 0 .612-.108 1.196-.323 1.751-.216.555-.522 1.043-.918 1.462-.397.419-.873.754-1.428 1.003-.544.249-1.151.374-1.819.374zm-2.941-4.573c0 .465.073.895.221 1.292.158.397.368.742.629 1.037.272.295.583.527.935.697.362.17.748.255 1.156.255s.787-.085 1.139-.255c.362-.17.68-.402.952-.697.272-.306.481-.657.629-1.054.158-.408.238-.844.238-1.309 0-.453-.08-.878-.238-1.275-.148-.408-.357-.759-.629-1.054-.272-.306-.59-.544-.952-.714-.352-.17-.731-.255-1.139-.255s-.794.091-1.156.272c-.352.17-.663.408-.935.714-.261.295-.471.646-.629 1.054-.148.397-.221.827-.221 1.292zm11.51 4.403-3.502-8.874h1.547l2.805 7.565 2.822-7.565h1.428l-3.502 8.874zm10.208.17c-.669 0-1.281-.119-1.836-.357-.555-.249-1.031-.584-1.428-1.003s-.708-.907-.935-1.462c-.215-.567-.323-1.162-.323-1.785s.108-1.213.323-1.768c.227-.555.538-1.043.935-1.462.408-.419.89-.748 1.445-.986.555-.249 1.167-.374 1.836-.374s1.275.125 1.819.374c.555.249 1.026.584 1.411 1.003.385.408.68.89.884 1.445.215.544.323 1.111.323 1.7 0 .125-.006.238-.017.34 0 .102-.006.181-.017.238h-7.361c.034.442.136.844.306 1.207s.391.674.663.935.578.465.918.612c.351.147.72.221 1.105.221.272 0 .538-.034.799-.102.261-.079.504-.181.731-.306s.425-.278.595-.459c.181-.181.317-.385.408-.612l1.292.357c-.147.329-.351.629-.612.901-.249.272-.544.51-.884.714-.329.193-.697.346-1.105.459s-.833.17-1.275.17zm3.043-5.202c-.034-.419-.142-.805-.323-1.156-.17-.363-.391-.669-.663-.918-.261-.249-.567-.442-.918-.578-.351-.147-.725-.221-1.122-.221s-.771.074-1.122.221c-.351.136-.663.334-.935.595-.261.249-.476.55-.646.901-.159.351-.255.737-.289 1.156zm7.766-2.533c-.748.023-1.411.215-1.989.578-.567.363-.969.867-1.207 1.513v5.474h-1.496v-8.874h1.394v2.057c.306-.612.708-1.105 1.207-1.479.499-.385 1.031-.601 1.598-.646h.289c.079 0 .147.006.204.017zm1.484 7.565v-8.874h1.496v8.874zm0-10.54v-1.87h1.496v1.87zm11.619 10.54h-1.496v-4.964c0-.952-.148-1.643-.442-2.074-.284-.431-.72-.646-1.309-.646-.306 0-.612.062-.918.187-.306.113-.595.272-.867.476s-.51.448-.714.731-.357.595-.459.935v5.355h-1.496v-8.874h1.36v1.904c.351-.623.855-1.122 1.513-1.496.668-.374 1.394-.561 2.176-.561.51 0 .935.096 1.275.289.34.181.612.442.816.782.204.329.345.72.425 1.173.09.453.136.946.136 1.479zm5.862.102c-.6 0-1.156-.125-1.666-.374-.498-.249-.929-.584-1.292-1.003-.362-.419-.646-.901-.85-1.445-.192-.544-.289-1.111-.289-1.7 0-.623.097-1.213.289-1.768.204-.567.488-1.06.85-1.479.363-.419.794-.748 1.292-.986.51-.249 1.071-.374 1.683-.374.748 0 1.394.181 1.938.544s1.003.822 1.377 1.377v-1.768h1.326v8.772c0 .635-.119 1.19-.357 1.666-.238.487-.561.895-.969 1.224s-.889.578-1.445.748c-.544.17-1.127.255-1.751.255-1.008 0-1.83-.176-2.465-.527-.623-.34-1.144-.816-1.564-1.428l.867-.765c.352.521.805.912 1.36 1.173.556.261 1.156.391 1.802.391.408 0 .794-.057 1.156-.17.374-.113.697-.283.969-.51s.488-.51.646-.85c.17-.34.255-.742.255-1.207v-1.564c-.17.272-.374.521-.612.748-.226.215-.476.402-.748.561-.272.147-.561.261-.867.34s-.617.119-.935.119zm.459-1.224c.318 0 .624-.057.918-.17.295-.113.567-.261.816-.442.25-.193.459-.408.629-.646s.284-.482.34-.731v-2.55c-.124-.306-.289-.584-.493-.833-.192-.249-.413-.465-.663-.646-.249-.193-.521-.34-.816-.442-.283-.102-.572-.153-.867-.153-.453 0-.861.096-1.224.289-.351.193-.651.448-.901.765-.249.317-.442.68-.578 1.088-.136.397-.204.799-.204 1.207 0 .442.08.861.238 1.258.159.397.374.742.646 1.037s.59.533.952.714c.374.17.777.255 1.207.255zm18.614 1.122h-1.496v-4.964c0-.918-.158-1.598-.476-2.04-.317-.453-.782-.68-1.394-.68-.294 0-.589.062-.884.187-.294.113-.572.272-.833.476-.249.204-.476.448-.68.731-.192.283-.34.595-.442.935v5.355h-1.496v-12.41h1.496v5.44c.352-.646.828-1.15 1.428-1.513.601-.363 1.258-.544 1.972-.544.522 0 .964.096 1.326.289.363.193.652.453.867.782.216.329.369.725.459 1.19.102.453.153.941.153 1.462zm6.203.17c-.669 0-1.281-.125-1.836-.374-.544-.249-1.015-.584-1.411-1.003-.386-.419-.686-.907-.901-1.462-.216-.555-.323-1.139-.323-1.751 0-.623.107-1.213.323-1.768.226-.555.532-1.043.918-1.462.396-.419.867-.754 1.411-1.003.555-.249 1.161-.374 1.819-.374.657 0 1.263.125 1.819.374.555.249 1.025.584 1.411 1.003.396.419.702.907.918 1.462.226.555.34 1.145.34 1.768 0 .612-.108 1.196-.323 1.751-.216.555-.522 1.043-.918 1.462-.397.419-.873.754-1.428 1.003-.544.249-1.151.374-1.819.374zm-2.941-4.573c0 .465.073.895.221 1.292.158.397.368.742.629 1.037.272.295.583.527.935.697.362.17.748.255 1.156.255s.787-.085 1.139-.255c.362-.17.68-.402.952-.697.272-.306.481-.657.629-1.054.158-.408.238-.844.238-1.309 0-.453-.08-.878-.238-1.275-.148-.408-.357-.759-.629-1.054-.272-.306-.59-.544-.952-.714-.352-.17-.731-.255-1.139-.255s-.794.091-1.156.272c-.352.17-.663.408-.935.714-.261.295-.471.646-.629 1.054-.148.397-.221.827-.221 1.292zm13.699 3.961c-.091.045-.21.102-.357.17-.148.057-.318.119-.51.187-.182.057-.386.102-.612.136-.216.045-.442.068-.68.068-.544 0-1.015-.147-1.411-.442-.397-.306-.595-.776-.595-1.411v-5.967h-1.207v-1.173h1.207v-2.958h1.496v2.958h1.989v1.173h-1.989v5.508c.022.329.13.567.323.714.192.147.419.221.68.221.294 0 .561-.045.799-.136.249-.102.419-.181.51-.238zm5.976 0c-.09.045-.209.102-.357.17-.147.057-.317.119-.51.187-.181.057-.385.102-.612.136-.215.045-.442.068-.68.068-.544 0-1.014-.147-1.411-.442-.396-.306-.595-.776-.595-1.411v-5.967h-1.207v-1.173h1.207v-2.958h1.496v2.958h1.989v1.173h-1.989v5.508c.023.329.131.567.323.714.193.147.42.221.68.221.295 0 .561-.045.799-.136.25-.102.42-.181.51-.238zm5.198.612c-.669 0-1.281-.119-1.836-.357-.556-.249-1.032-.584-1.428-1.003-.397-.419-.709-.907-.935-1.462-.216-.567-.323-1.162-.323-1.785s.107-1.213.323-1.768c.226-.555.538-1.043.935-1.462.408-.419.889-.748 1.445-.986.555-.249 1.167-.374 1.836-.374.668 0 1.275.125 1.819.374.555.249 1.025.584 1.411 1.003.385.408.68.89.884 1.445.215.544.323 1.111.323 1.7 0 .125-.006.238-.017.34 0 .102-.006.181-.017.238h-7.361c.034.442.136.844.306 1.207s.391.674.663.935.578.465.918.612c.351.147.719.221 1.105.221.272 0 .538-.034.799-.102.26-.079.504-.181.731-.306.226-.125.425-.278.595-.459.181-.181.317-.385.408-.612l1.292.357c-.148.329-.352.629-.612.901-.25.272-.544.51-.884.714-.329.193-.697.346-1.105.459s-.833.17-1.275.17zm3.043-5.202c-.034-.419-.142-.805-.323-1.156-.17-.363-.391-.669-.663-.918-.261-.249-.567-.442-.918-.578-.352-.147-.726-.221-1.122-.221-.397 0-.771.074-1.122.221-.352.136-.663.334-.935.595-.261.249-.476.55-.646.901-.159.351-.255.737-.289 1.156zm6.185 5.202c-.714 0-1.417-.108-2.108-.323-.692-.227-1.287-.55-1.785-.969l.646-1.003c.521.397 1.042.697 1.564.901.521.193 1.071.289 1.649.289.646 0 1.156-.125 1.53-.374.385-.261.578-.623.578-1.088 0-.215-.051-.397-.153-.544-.102-.159-.255-.295-.459-.408s-.465-.215-.782-.306c-.318-.091-.686-.187-1.105-.289-.533-.136-.992-.266-1.377-.391-.386-.125-.703-.272-.952-.442-.25-.17-.431-.374-.544-.612-.114-.238-.17-.533-.17-.884 0-.442.085-.833.255-1.173.181-.351.425-.64.731-.867.306-.238.663-.414 1.071-.527.419-.125.867-.187 1.343-.187.668 0 1.292.108 1.87.323s1.065.499 1.462.85l-.68.901c-.374-.329-.794-.572-1.258-.731-.465-.17-.941-.255-1.428-.255-.544 0-1.009.119-1.394.357-.374.227-.561.595-.561 1.105 0 .204.034.374.102.51.079.136.204.255.374.357s.385.193.646.272c.272.079.595.164.969.255.589.136 1.099.278 1.53.425.442.136.804.3 1.088.493.294.193.51.419.646.68.147.261.221.578.221.952 0 .827-.318 1.485-.952 1.972-.635.487-1.491.731-2.567.731zm9.879-.612c-.091.045-.21.102-.357.17-.147.057-.317.119-.51.187-.181.057-.385.102-.612.136-.215.045-.442.068-.68.068-.544 0-1.014-.147-1.411-.442-.397-.306-.595-.776-.595-1.411v-5.967h-1.207v-1.173h1.207v-2.958h1.496v2.958h1.989v1.173h-1.989v5.508c.023.329.13.567.323.714s.419.221.68.221c.295 0 .561-.045.799-.136.249-.102.419-.181.51-.238zm-279.485 11.732h-4.165v10.71h-1.53v-10.71h-4.165v-1.36h9.86zm3.535 10.88c-.669 0-1.281-.119-1.836-.357-.556-.249-1.032-.584-1.428-1.003-.397-.419-.709-.907-.935-1.462-.216-.567-.323-1.162-.323-1.785s.107-1.213.323-1.768c.226-.555.538-1.043.935-1.462.408-.419.889-.748 1.445-.986.555-.249 1.167-.374 1.836-.374.668 0 1.275.125 1.819.374.555.249 1.025.584 1.411 1.003.385.408.68.89.884 1.445.215.544.323 1.111.323 1.7 0 .125-.006.238-.017.34 0 .102-.006.181-.017.238h-7.361c.034.442.136.844.306 1.207s.391.674.663.935.578.465.918.612c.351.147.719.221 1.105.221.272 0 .538-.034.799-.102.26-.079.504-.181.731-.306.226-.125.425-.278.595-.459.181-.181.317-.385.408-.612l1.292.357c-.148.329-.352.629-.612.901-.25.272-.544.51-.884.714-.329.193-.697.346-1.105.459s-.833.17-1.275.17zm3.043-5.202c-.034-.419-.142-.805-.323-1.156-.17-.363-.391-.669-.663-.918-.261-.249-.567-.442-.918-.578-.352-.147-.726-.221-1.122-.221-.397 0-.771.074-1.122.221-.352.136-.663.334-.935.595-.261.249-.476.55-.646.901-.159.351-.255.737-.289 1.156zm2.479.578c0-.623.107-1.213.323-1.768.215-.555.521-1.037.918-1.445.396-.419.867-.748 1.411-.986.555-.249 1.173-.374 1.853-.374.884 0 1.643.198 2.278.595.646.385 1.133.907 1.462 1.564l-1.462.459c-.227-.419-.544-.742-.952-.969-.408-.238-.862-.357-1.36-.357-.408 0-.794.085-1.156.255-.363.159-.675.385-.935.68-.261.295-.471.64-.629 1.037-.148.397-.221.833-.221 1.309 0 .465.079.901.238 1.309.158.408.368.765.629 1.071.272.295.583.527.935.697.362.17.748.255 1.156.255.26 0 .515-.034.765-.102.26-.079.493-.181.697-.306.215-.125.402-.266.561-.425.158-.17.272-.351.34-.544l1.462.442c-.136.329-.329.629-.578.901-.238.272-.522.504-.85.697-.329.193-.697.346-1.105.459-.397.113-.816.17-1.258.17-.669 0-1.281-.125-1.836-.374-.556-.249-1.032-.584-1.428-1.003-.397-.419-.709-.907-.935-1.462-.216-.567-.323-1.162-.323-1.785zm17.709 4.454h-1.496v-4.964c0-.918-.159-1.598-.476-2.04-.317-.453-.782-.68-1.394-.68-.295 0-.589.062-.884.187-.295.113-.572.272-.833.476-.249.204-.476.448-.68.731-.193.283-.34.595-.442.935v5.355h-1.496v-12.41h1.496v5.44c.351-.646.827-1.15 1.428-1.513s1.258-.544 1.972-.544c.521 0 .963.096 1.326.289s.652.453.867.782.368.725.459 1.19c.102.453.153.941.153 1.462zm10.027 0h-1.496v-4.964c0-.952-.147-1.643-.442-2.074-.283-.431-.719-.646-1.309-.646-.306 0-.612.062-.918.187-.306.113-.595.272-.867.476s-.51.448-.714.731-.357.595-.459.935v5.355h-1.496v-8.874h1.36v1.904c.352-.623.856-1.122 1.513-1.496.669-.374 1.394-.561 2.176-.561.51 0 .935.096 1.275.289.34.181.612.442.816.782.204.329.346.72.425 1.173.091.453.136.946.136 1.479zm6.203.17c-.669 0-1.281-.125-1.836-.374-.544-.249-1.015-.584-1.411-1.003-.386-.419-.686-.907-.901-1.462-.216-.555-.323-1.139-.323-1.751 0-.623.107-1.213.323-1.768.226-.555.532-1.043.918-1.462.396-.419.867-.754 1.411-1.003.555-.249 1.161-.374 1.819-.374.657 0 1.263.125 1.819.374.555.249 1.025.584 1.411 1.003.396.419.702.907.918 1.462.226.555.34 1.145.34 1.768 0 .612-.108 1.196-.323 1.751-.216.555-.522 1.043-.918 1.462-.397.419-.873.754-1.428 1.003-.544.249-1.151.374-1.819.374zm-2.941-4.573c0 .465.073.895.221 1.292.158.397.368.742.629 1.037.272.295.583.527.935.697.362.17.748.255 1.156.255s.787-.085 1.139-.255c.362-.17.68-.402.952-.697.272-.306.481-.657.629-1.054.158-.408.238-.844.238-1.309 0-.453-.08-.878-.238-1.275-.148-.408-.357-.759-.629-1.054-.272-.306-.59-.544-.952-.714-.352-.17-.731-.255-1.139-.255s-.794.091-1.156.272c-.352.17-.663.408-.935.714-.261.295-.471.646-.629 1.054-.148.397-.221.827-.221 1.292zm9.275-8.007h1.496v10.115c0 .329.085.589.255.782.182.181.431.272.748.272.125 0 .272-.017.442-.051.17-.045.329-.096.476-.153l.238 1.207c-.249.102-.544.187-.884.255s-.64.102-.901.102c-.578 0-1.037-.164-1.377-.493-.328-.329-.493-.788-.493-1.377zm8.707 12.58c-.669 0-1.281-.125-1.836-.374-.544-.249-1.015-.584-1.411-1.003-.386-.419-.686-.907-.901-1.462-.216-.555-.323-1.139-.323-1.751 0-.623.107-1.213.323-1.768.226-.555.532-1.043.918-1.462.396-.419.867-.754 1.411-1.003.555-.249 1.161-.374 1.819-.374.657 0 1.263.125 1.819.374.555.249 1.025.584 1.411 1.003.396.419.702.907.918 1.462.226.555.34 1.145.34 1.768 0 .612-.108 1.196-.323 1.751-.216.555-.522 1.043-.918 1.462-.397.419-.873.754-1.428 1.003-.544.249-1.151.374-1.819.374zm-2.941-4.573c0 .465.073.895.221 1.292.158.397.368.742.629 1.037.272.295.583.527.935.697.362.17.748.255 1.156.255s.787-.085 1.139-.255c.362-.17.68-.402.952-.697.272-.306.481-.657.629-1.054.158-.408.238-.844.238-1.309 0-.453-.08-.878-.238-1.275-.148-.408-.357-.759-.629-1.054-.272-.306-.59-.544-.952-.714-.352-.17-.731-.255-1.139-.255s-.794.091-1.156.272c-.352.17-.663.408-.935.714-.261.295-.471.646-.629 1.054-.148.397-.221.827-.221 1.292zm12.777 4.505c-.6 0-1.156-.125-1.666-.374-.498-.249-.929-.584-1.292-1.003-.362-.419-.646-.901-.85-1.445-.192-.544-.289-1.111-.289-1.7 0-.623.097-1.213.289-1.768.204-.567.488-1.06.85-1.479.363-.419.794-.748 1.292-.986.51-.249 1.071-.374 1.683-.374.748 0 1.394.181 1.938.544s1.003.822 1.377 1.377v-1.768h1.326v8.772c0 .635-.119 1.19-.357 1.666-.238.487-.561.895-.969 1.224s-.889.578-1.445.748c-.544.17-1.127.255-1.751.255-1.008 0-1.83-.176-2.465-.527-.623-.34-1.144-.816-1.564-1.428l.867-.765c.352.521.805.912 1.36 1.173.556.261 1.156.391 1.802.391.408 0 .794-.057 1.156-.17.374-.113.697-.283.969-.51s.488-.51.646-.85c.17-.34.255-.742.255-1.207v-1.564c-.17.272-.374.521-.612.748-.226.215-.476.402-.748.561-.272.147-.561.261-.867.34s-.617.119-.935.119zm.459-1.224c.318 0 .624-.057.918-.17.295-.113.567-.261.816-.442.25-.193.459-.408.629-.646s.284-.482.34-.731v-2.55c-.124-.306-.289-.584-.493-.833-.192-.249-.413-.465-.663-.646-.249-.193-.521-.34-.816-.442-.283-.102-.572-.153-.867-.153-.453 0-.861.096-1.224.289-.351.193-.651.448-.901.765-.249.317-.442.68-.578 1.088-.136.397-.204.799-.204 1.207 0 .442.08.861.238 1.258.159.397.374.742.646 1.037s.59.533.952.714c.374.17.777.255 1.207.255zm7.022 3.536c.147.023.294.04.442.051.147.011.26.017.34.017.136 0 .255-.034.357-.102.113-.057.221-.176.323-.357.113-.181.238-.436.374-.765.136-.317.306-.737.51-1.258l-3.757-8.874h1.547l3.026 7.531 2.754-7.531h1.428l-4.318 11.203c-.159.397-.425.742-.799 1.037-.363.306-.867.459-1.513.459-.102 0-.21-.006-.323-.017-.102-.011-.233-.034-.391-.068zm21.118-13.124h-4.165v10.71h-1.53v-10.71h-4.165v-1.36h9.86zm4.814 3.145c-.748.023-1.411.215-1.989.578-.567.363-.969.867-1.207 1.513v5.474h-1.496v-8.874h1.394v2.057c.306-.612.708-1.105 1.207-1.479.499-.385 1.031-.601 1.598-.646h.289c.079 0 .147.006.204.017zm5.212 7.735c-.669 0-1.281-.119-1.836-.357-.556-.249-1.032-.584-1.428-1.003-.397-.419-.709-.907-.935-1.462-.216-.567-.323-1.162-.323-1.785s.107-1.213.323-1.768c.226-.555.538-1.043.935-1.462.408-.419.889-.748 1.445-.986.555-.249 1.167-.374 1.836-.374.668 0 1.275.125 1.819.374.555.249 1.025.584 1.411 1.003.385.408.68.89.884 1.445.215.544.323 1.111.323 1.7 0 .125-.006.238-.017.34 0 .102-.006.181-.017.238h-7.361c.034.442.136.844.306 1.207s.391.674.663.935.578.465.918.612c.351.147.719.221 1.105.221.272 0 .538-.034.799-.102.26-.079.504-.181.731-.306.226-.125.425-.278.595-.459.181-.181.317-.385.408-.612l1.292.357c-.148.329-.352.629-.612.901-.25.272-.544.51-.884.714-.329.193-.697.346-1.105.459s-.833.17-1.275.17zm3.043-5.202c-.034-.419-.142-.805-.323-1.156-.17-.363-.391-.669-.663-.918-.261-.249-.567-.442-.918-.578-.352-.147-.726-.221-1.122-.221-.397 0-.771.074-1.122.221-.352.136-.663.334-.935.595-.261.249-.476.55-.646.901-.159.351-.255.737-.289 1.156zm10.775 5.032h-1.496v-4.964c0-.952-.148-1.643-.442-2.074-.284-.431-.72-.646-1.309-.646-.306 0-.612.062-.918.187-.306.113-.595.272-.867.476s-.51.448-.714.731-.357.595-.459.935v5.355h-1.496v-8.874h1.36v1.904c.351-.623.855-1.122 1.513-1.496.668-.374 1.394-.561 2.176-.561.51 0 .935.096 1.275.289.34.181.612.442.816.782.204.329.345.72.425 1.173.09.453.136.946.136 1.479zm5.981.17c-.612 0-1.179-.125-1.7-.374s-.969-.584-1.343-1.003-.669-.907-.884-1.462c-.204-.555-.306-1.139-.306-1.751 0-.623.096-1.213.289-1.768.204-.567.482-1.06.833-1.479.363-.419.788-.748 1.275-.986.499-.249 1.043-.374 1.632-.374.714 0 1.349.187 1.904.561.567.374 1.014.827 1.343 1.36v-5.304h1.496v10.574c0 .351.159.533.476.544v1.292c-.159.023-.289.04-.391.051-.091.011-.181.017-.272.017-.295 0-.555-.096-.782-.289-.215-.204-.323-.436-.323-.697v-.748c-.351.578-.822 1.031-1.411 1.36-.578.317-1.19.476-1.836.476zm.357-1.292c.272 0 .55-.051.833-.153.295-.102.567-.244.816-.425.261-.181.482-.391.663-.629.193-.249.317-.51.374-.782v-2.55c-.102-.283-.255-.55-.459-.799-.204-.261-.436-.482-.697-.663-.249-.193-.521-.34-.816-.442-.283-.113-.567-.17-.85-.17-.442 0-.844.096-1.207.289-.351.181-.657.431-.918.748-.249.306-.442.663-.578 1.071-.136.397-.204.805-.204 1.224 0 .442.079.867.238 1.275.159.397.374.742.646 1.037s.589.533.952.714c.374.17.776.255 1.207.255zm9.79 1.292c-.714 0-1.416-.108-2.108-.323-.691-.227-1.286-.55-1.785-.969l.646-1.003c.522.397 1.043.697 1.564.901.522.193 1.071.289 1.649.289.646 0 1.156-.125 1.53-.374.386-.261.578-.623.578-1.088 0-.215-.051-.397-.153-.544-.102-.159-.255-.295-.459-.408s-.464-.215-.782-.306c-.317-.091-.685-.187-1.105-.289-.532-.136-.991-.266-1.377-.391-.385-.125-.702-.272-.952-.442-.249-.17-.43-.374-.544-.612-.113-.238-.17-.533-.17-.884 0-.442.085-.833.255-1.173.182-.351.425-.64.731-.867.306-.238.663-.414 1.071-.527.42-.125.867-.187 1.343-.187.669 0 1.292.108 1.87.323s1.066.499 1.462.85l-.68.901c-.374-.329-.793-.572-1.258-.731-.464-.17-.94-.255-1.428-.255-.544 0-1.008.119-1.394.357-.374.227-.561.595-.561 1.105 0 .204.034.374.102.51.08.136.204.255.374.357s.386.193.646.272c.272.079.595.164.969.255.59.136 1.1.278 1.53.425.442.136.805.3 1.088.493.295.193.51.419.646.68.148.261.221.578.221.952 0 .827-.317 1.485-.952 1.972-.634.487-1.49.731-2.567.731zm9.59-.17v-8.874h1.496v8.874zm0-10.54v-1.87h1.496v1.87zm11.619 10.54h-1.496v-4.964c0-.952-.148-1.643-.442-2.074-.284-.431-.72-.646-1.309-.646-.306 0-.612.062-.918.187-.306.113-.595.272-.867.476s-.51.448-.714.731-.357.595-.459.935v5.355h-1.496v-8.874h1.36v1.904c.351-.623.855-1.122 1.513-1.496.668-.374 1.394-.561 2.176-.561.51 0 .935.096 1.275.289.34.181.612.442.816.782.204.329.345.72.425 1.173.09.453.136.946.136 1.479zm6.864 0v-12.07h4.182c.963 0 1.807.159 2.533.476.736.317 1.348.748 1.836 1.292.487.544.85 1.184 1.088 1.921.249.725.374 1.502.374 2.329 0 .918-.136 1.751-.408 2.499-.272.737-.663 1.371-1.173 1.904-.51.521-1.128.929-1.853 1.224-.714.283-1.513.425-2.397.425zm8.466-6.052c0-.68-.097-1.303-.289-1.87-.182-.578-.459-1.071-.833-1.479-.363-.408-.811-.725-1.343-.952-.533-.238-1.139-.357-1.819-.357h-2.652v9.35h2.652c.691 0 1.303-.119 1.836-.357.544-.238.991-.567 1.343-.986.362-.419.634-.912.816-1.479.192-.578.289-1.201.289-1.87zm5.66 6.222c-.42 0-.811-.068-1.173-.204-.363-.147-.68-.346-.952-.595-.261-.249-.471-.538-.629-.867-.148-.34-.221-.708-.221-1.105 0-.408.09-.776.272-1.105.181-.34.436-.629.765-.867.34-.238.736-.425 1.19-.561.464-.136.969-.204 1.513-.204.43 0 .867.04 1.309.119s.833.187 1.173.323v-.714c0-.725-.204-1.292-.612-1.7-.408-.419-.986-.629-1.734-.629-.896 0-1.836.346-2.822 1.037l-.493-.969c1.144-.771 2.295-1.156 3.451-1.156 1.167 0 2.074.312 2.72.935.657.623.986 1.502.986 2.635v3.621c0 .351.158.533.476.544v1.292c-.159.023-.289.04-.391.051s-.21.017-.323.017c-.295 0-.533-.085-.714-.255-.17-.181-.272-.397-.306-.646l-.034-.629c-.397.533-.901.941-1.513 1.224-.601.272-1.247.408-1.938.408zm.391-1.122c.532 0 1.025-.096 1.479-.289.464-.204.816-.47 1.054-.799.215-.215.323-.436.323-.663v-1.309c-.726-.283-1.479-.425-2.261-.425-.748 0-1.36.159-1.836.476-.465.317-.697.731-.697 1.241 0 .249.045.482.136.697.102.215.238.402.408.561.181.159.391.283.629.374s.493.136.765.136zm11.436-6.613c-.748.023-1.411.215-1.989.578-.567.363-.969.867-1.207 1.513v5.474h-1.496v-8.874h1.394v2.057c.306-.612.708-1.105 1.207-1.479.498-.385 1.031-.601 1.598-.646h.289c.079 0 .147.006.204.017zm1.484 7.565v-8.874h1.496v8.874zm0-10.54v-1.87h1.496v1.87zm2.778 13.702c-.396 0-.765-.057-1.105-.17-.351-.113-.663-.295-.935-.544l.697-1.003c.159.147.346.249.561.306.204.057.408.085.612.085.182 0 .357-.04.527-.119.17-.068.323-.164.459-.289s.244-.278.323-.459c.08-.181.119-.374.119-.578v-9.265h1.496v9.163c0 .419-.079.805-.238 1.156-.147.351-.351.652-.612.901-.249.261-.538.459-.867.595-.328.147-.674.221-1.037.221zm1.258-13.702v-1.87h1.496v1.87zm6.194 10.71c-.42 0-.811-.068-1.173-.204-.363-.147-.68-.346-.952-.595-.261-.249-.471-.538-.629-.867-.148-.34-.221-.708-.221-1.105 0-.408.09-.776.272-1.105.181-.34.436-.629.765-.867.34-.238.736-.425 1.19-.561.464-.136.969-.204 1.513-.204.43 0 .867.04 1.309.119s.833.187 1.173.323v-.714c0-.725-.204-1.292-.612-1.7-.408-.419-.986-.629-1.734-.629-.896 0-1.836.346-2.822 1.037l-.493-.969c1.144-.771 2.295-1.156 3.451-1.156 1.167 0 2.074.312 2.72.935.657.623.986 1.502.986 2.635v3.621c0 .351.158.533.476.544v1.292c-.159.023-.289.04-.391.051s-.21.017-.323.017c-.295 0-.533-.085-.714-.255-.17-.181-.272-.397-.306-.646l-.034-.629c-.397.533-.901.941-1.513 1.224-.601.272-1.247.408-1.938.408zm.391-1.122c.532 0 1.025-.096 1.479-.289.464-.204.816-.47 1.054-.799.215-.215.323-.436.323-.663v-1.309c-.726-.283-1.479-.425-2.261-.425-.748 0-1.36.159-1.836.476-.465.317-.697.731-.697 1.241 0 .249.045.482.136.697.102.215.238.402.408.561.181.159.391.283.629.374s.493.136.765.136zm6.625.952v-1.904h1.258v1.904z" fill="#e3ddfc"/><path d="m191.068 228v-8.52h3.528c.368 0 .704.08 1.008.24.312.152.58.356.804.612.224.248.4.532.528.852s.192.644.192.972c0 .352-.06.692-.18 1.02-.12.32-.288.604-.504.852s-.476.448-.78.6c-.296.152-.628.228-.996.228h-2.76v3.144zm.84-3.888h2.724c.248 0 .472-.052.672-.156.208-.112.384-.256.528-.432.144-.184.256-.392.336-.624.08-.24.12-.488.12-.744 0-.264-.048-.512-.144-.744-.088-.24-.212-.448-.372-.624-.152-.176-.336-.312-.552-.408-.208-.104-.428-.156-.66-.156h-2.652zm9.015 4.008c-.456 0-.872-.084-1.248-.252-.376-.176-.704-.412-.984-.708-.272-.296-.484-.64-.636-1.032s-.228-.804-.228-1.236c0-.44.076-.856.228-1.248.16-.392.376-.736.648-1.032.28-.296.608-.532.984-.708s.788-.264 1.236-.264.86.088 1.236.264c.384.176.712.412.984.708.28.296.496.64.648 1.032.16.392.24.808.24 1.248 0 .432-.076.844-.228 1.236s-.368.736-.648 1.032c-.272.296-.6.532-.984.708-.376.168-.792.252-1.248.252zm-2.268-3.216c0 .352.06.68.18.984.12.296.28.56.48.792.208.224.448.4.72.528.28.128.576.192.888.192s.604-.064.876-.192c.28-.136.524-.316.732-.54.208-.232.372-.5.492-.804s.18-.632.18-.984c0-.344-.06-.668-.18-.972-.12-.312-.284-.58-.492-.804-.208-.232-.452-.412-.732-.54-.272-.136-.564-.204-.876-.204s-.604.068-.876.204c-.272.128-.512.308-.72.54s-.372.504-.492.816c-.12.304-.18.632-.18.984zm14.39-3.156h.804l-2.688 6.252h-.672l-1.344-3.192-1.332 3.192h-.672l-2.688-6.252h.792l2.28 5.412 1.188-2.856-1.068-2.544h.684l.816 2.04.816-2.04h.696l-1.068 2.544 1.188 2.856zm4.368 6.372c-.456 0-.876-.084-1.26-.252-.376-.176-.704-.412-.984-.708-.28-.304-.5-.652-.66-1.044-.152-.392-.228-.812-.228-1.26 0-.44.076-.852.228-1.236.16-.392.376-.732.648-1.02.28-.296.612-.528.996-.696.384-.176.8-.264 1.248-.264.456 0 .872.088 1.248.264.384.168.712.4.984.696s.484.636.636 1.02.228.792.228 1.224v.192c0 .064-.004.108-.012.132h-5.352c.024.336.1.648.228.936.136.28.308.524.516.732s.444.372.708.492c.272.112.56.168.864.168.2 0 .4-.028.6-.084s.384-.132.552-.228.32-.212.456-.348c.136-.144.24-.3.312-.468l.708.192c-.096.232-.232.444-.408.636-.176.184-.38.348-.612.492-.232.136-.488.24-.768.312-.28.08-.572.12-.876.12zm2.304-3.576c-.024-.336-.104-.64-.24-.912-.128-.28-.296-.52-.504-.72-.2-.2-.436-.356-.708-.468-.264-.112-.548-.168-.852-.168s-.592.056-.864.168-.512.268-.72.468c-.2.2-.364.44-.492.72-.12.28-.192.584-.216.912zm5.158-2.076c-.552.016-1.032.168-1.44.456s-.696.684-.864 1.188v3.888h-.816v-6.252h.768v1.5c.232-.48.544-.856.936-1.128s.812-.408 1.26-.408c.064 0 .116.004.156.012zm3.471 5.652c-.456 0-.876-.084-1.26-.252-.376-.176-.704-.412-.984-.708-.28-.304-.5-.652-.66-1.044-.152-.392-.228-.812-.228-1.26 0-.44.076-.852.228-1.236.16-.392.376-.732.648-1.02.28-.296.612-.528.996-.696.384-.176.8-.264 1.248-.264.456 0 .872.088 1.248.264.384.168.712.4.984.696s.484.636.636 1.02.228.792.228 1.224v.192c0 .064-.004.108-.012.132h-5.352c.024.336.1.648.228.936.136.28.308.524.516.732s.444.372.708.492c.272.112.56.168.864.168.2 0 .4-.028.6-.084s.384-.132.552-.228.32-.212.456-.348c.136-.144.24-.3.312-.468l.708.192c-.096.232-.232.444-.408.636-.176.184-.38.348-.612.492-.232.136-.488.24-.768.312-.28.08-.572.12-.876.12zm2.304-3.576c-.024-.336-.104-.64-.24-.912-.128-.28-.296-.52-.504-.72-.2-.2-.436-.356-.708-.468-.264-.112-.548-.168-.852-.168s-.592.056-.864.168-.512.268-.72.468c-.2.2-.364.44-.492.72-.12.28-.192.584-.216.912zm4.607 3.576c-.432 0-.832-.088-1.2-.264-.368-.184-.684-.424-.948-.72s-.472-.636-.624-1.02c-.144-.392-.216-.8-.216-1.224 0-.44.072-.856.216-1.248.144-.4.34-.748.588-1.044.256-.296.556-.528.9-.696.352-.176.736-.264 1.152-.264.528 0 .996.14 1.404.42.408.272.728.604.96.996v-3.816h.816v7.704c0 .224.096.336.288.336v.72c-.12.024-.216.036-.288.036-.192 0-.36-.06-.504-.18-.144-.128-.216-.28-.216-.456v-.612c-.248.408-.584.732-1.008.972s-.864.36-1.32.36zm.18-.72c.2 0 .412-.04.636-.12.232-.08.448-.188.648-.324.2-.144.368-.308.504-.492.144-.192.232-.396.264-.612v-1.932c-.08-.216-.196-.416-.348-.6-.152-.192-.328-.36-.528-.504-.192-.144-.4-.256-.624-.336s-.444-.12-.66-.12c-.336 0-.64.072-.912.216s-.508.336-.708.576c-.192.232-.34.5-.444.804s-.156.616-.156.936c0 .336.06.656.18.96s.284.572.492.804c.208.224.452.404.732.54.288.136.596.204.924.204zm13.894.72c-.496 0-.952-.124-1.368-.372-.408-.248-.728-.568-.96-.96v1.212h-.732v-8.76h.816v3.816c.28-.424.616-.764 1.008-1.02.392-.264.848-.396 1.368-.396.44 0 .832.092 1.176.276.352.184.648.432.888.744.248.304.436.652.564 1.044.136.384.204.78.204 1.188 0 .44-.076.856-.228 1.248s-.36.736-.624 1.032c-.264.288-.58.52-.948.696-.36.168-.748.252-1.164.252zm-.192-.72c.344 0 .656-.068.936-.204.288-.144.532-.332.732-.564.208-.24.368-.508.48-.804.12-.304.18-.616.18-.936 0-.328-.056-.644-.168-.948-.104-.304-.256-.572-.456-.804-.192-.24-.428-.428-.708-.564-.272-.144-.572-.216-.9-.216-.248 0-.48.044-.696.132-.216.08-.416.192-.6.336s-.348.312-.492.504c-.144.184-.264.38-.36.588v1.944c.032.216.116.42.252.612.144.184.312.344.504.48.2.136.412.244.636.324.232.08.452.12.66.12zm4.687 2.52c.064.008.124.012.18.012.064.008.124.012.18.012.144 0 .256-.02.336-.06.088-.04.172-.128.252-.264s.168-.332.264-.588c.104-.256.248-.6.432-1.032l-2.724-6.252h.84l2.316 5.496 2.148-5.496h.78l-3.24 8.064c-.088.232-.236.432-.444.6-.2.176-.476.264-.828.264-.08 0-.156-.004-.228-.012-.072 0-.16-.008-.264-.024zm15.679-7.404h-1.548l-.564 2.352h1.608v.648h-1.764l-.6 2.484h-.696l.612-2.484h-2.268l-.6 2.484h-.696l.612-2.484h-1.356v-.648h1.512l.564-2.352h-1.56v-.612h1.716l.588-2.424h.696l-.6 2.424h2.268l.588-2.424h.696l-.6 2.424h1.392zm-2.796 2.352.564-2.352h-2.268l-.564 2.352zm4.316 3.132v-8.52h2.892c.68 0 1.272.112 1.776.336.512.224.936.528 1.272.912.344.384.6.836.768 1.356.176.512.264 1.06.264 1.644 0 .648-.096 1.236-.288 1.764-.192.52-.468.968-.828 1.344-.352.368-.78.656-1.284.864-.496.2-1.056.3-1.68.3zm6.132-4.272c0-.512-.072-.98-.216-1.404-.144-.432-.356-.804-.636-1.116-.272-.312-.608-.552-1.008-.72-.4-.176-.86-.264-1.38-.264h-2.052v7.032h2.052c.528 0 .992-.088 1.392-.264.408-.184.748-.432 1.02-.744.272-.32.476-.692.612-1.116.144-.432.216-.9.216-1.404zm4.978 4.392c-.456 0-.876-.084-1.26-.252-.376-.176-.704-.412-.984-.708-.28-.304-.5-.652-.66-1.044-.152-.392-.228-.812-.228-1.26 0-.44.076-.852.228-1.236.16-.392.376-.732.648-1.02.28-.296.612-.528.996-.696.384-.176.8-.264 1.248-.264.456 0 .872.088 1.248.264.384.168.712.4.984.696s.484.636.636 1.02.228.792.228 1.224v.192c0 .064-.004.108-.012.132h-5.352c.024.336.1.648.228.936.136.28.308.524.516.732s.444.372.708.492c.272.112.56.168.864.168.2 0 .4-.028.6-.084s.384-.132.552-.228.32-.212.456-.348c.136-.144.24-.3.312-.468l.708.192c-.096.232-.232.444-.408.636-.176.184-.38.348-.612.492-.232.136-.488.24-.768.312-.28.08-.572.12-.876.12zm2.304-3.576c-.024-.336-.104-.64-.24-.912-.128-.28-.296-.52-.504-.72-.2-.2-.436-.356-.708-.468-.264-.112-.548-.168-.852-.168s-.592.056-.864.168-.512.268-.72.468c-.2.2-.364.44-.492.72-.12.28-.192.584-.216.912zm3.747 3.456-2.544-6.252h.84l2.148 5.496 2.16-5.496h.792l-2.544 6.252zm4.131-4.32c0-.512.088-1.02.264-1.524.184-.512.448-.968.792-1.368s.768-.724 1.272-.972c.504-.256 1.076-.384 1.716-.384.76 0 1.408.172 1.944.516.544.344.944.792 1.2 1.344l-.66.408c-.136-.28-.304-.516-.504-.708-.192-.192-.4-.348-.624-.468s-.456-.204-.696-.252c-.24-.056-.476-.084-.708-.084-.512 0-.964.104-1.356.312s-.724.48-.996.816c-.264.336-.464.716-.6 1.14-.136.416-.204.84-.204 1.272 0 .472.08.924.239 1.356.169.432.393.816.673 1.152.288.328.624.592 1.008.792.392.192.816.288 1.272.288.24 0 .484-.028.732-.084.256-.064.5-.16.731-.288.241-.136.461-.3.661-.492.2-.2.368-.44.504-.72l.696.36c-.136.32-.328.604-.576.852-.248.24-.524.444-.828.612s-.628.296-.972.384c-.336.088-.668.132-.996.132-.584 0-1.12-.128-1.608-.384s-.908-.588-1.26-.996c-.352-.416-.628-.884-.829-1.404-.191-.528-.287-1.064-.287-1.608zm8.502 5.064v-.744h4.572v.744zm13.965-.744v-6.996l-3.108 5.412h-.492l-3.108-5.412v6.996h-.84v-8.52h.864l3.324 5.832 3.348-5.832h.852v8.52zm5.389.12c-.456 0-.872-.084-1.248-.252-.376-.176-.704-.412-.984-.708-.272-.296-.484-.64-.636-1.032s-.228-.804-.228-1.236c0-.44.076-.856.228-1.248.16-.392.376-.736.648-1.032.28-.296.608-.532.984-.708s.788-.264 1.236-.264.86.088 1.236.264c.384.176.712.412.984.708.28.296.496.64.648 1.032.16.392.24.808.24 1.248 0 .432-.076.844-.228 1.236s-.368.736-.648 1.032c-.272.296-.6.532-.984.708-.376.168-.792.252-1.248.252zm-2.268-3.216c0 .352.06.68.18.984.12.296.28.56.48.792.208.224.448.4.72.528.28.128.576.192.888.192s.604-.064.876-.192c.28-.136.524-.316.732-.54.208-.232.372-.5.492-.804s.18-.632.18-.984c0-.344-.06-.668-.18-.972-.12-.312-.284-.58-.492-.804-.208-.232-.452-.412-.732-.54-.272-.136-.564-.204-.876-.204s-.604.068-.876.204c-.272.128-.512.308-.72.54s-.372.504-.492.816c-.12.304-.18.632-.18.984zm9.861-2.436c-.552.016-1.032.168-1.44.456s-.696.684-.864 1.188v3.888h-.816v-6.252h.768v1.5c.232-.48.544-.856.936-1.128s.812-.408 1.26-.408c.064 0 .116.004.156.012zm3.435 5.652c-.456 0-.872-.084-1.248-.252-.376-.176-.704-.412-.984-.708-.272-.296-.484-.64-.636-1.032s-.228-.804-.228-1.236c0-.44.076-.856.228-1.248.16-.392.376-.736.648-1.032.28-.296.608-.532.984-.708s.788-.264 1.236-.264.86.088 1.236.264c.384.176.712.412.984.708.28.296.496.64.648 1.032.16.392.24.808.24 1.248 0 .432-.076.844-.228 1.236s-.368.736-.648 1.032c-.272.296-.6.532-.984.708-.376.168-.792.252-1.248.252zm-2.268-3.216c0 .352.06.68.18.984.12.296.28.56.48.792.208.224.448.4.72.528.28.128.576.192.888.192s.604-.064.876-.192c.28-.136.524-.316.732-.54.208-.232.372-.5.492-.804s.18-.632.18-.984c0-.344-.06-.668-.18-.972-.12-.312-.284-.58-.492-.804-.208-.232-.452-.412-.732-.54-.272-.136-.564-.204-.876-.204s-.604.068-.876.204c-.272.128-.512.308-.72.54s-.372.504-.492.816c-.12.304-.18.632-.18.984zm6.308-.048c0-.44.076-.856.228-1.248s.364-.732.636-1.02c.28-.296.612-.528.996-.696s.808-.252 1.272-.252c.592 0 1.108.136 1.548.408.44.264.772.624.996 1.08l-.792.252c-.176-.32-.424-.568-.744-.744-.312-.184-.66-.276-1.044-.276-.32 0-.62.064-.9.192-.272.128-.512.304-.72.528-.2.216-.36.476-.48.78-.112.304-.168.636-.168.996 0 .352.06.684.18.996s.284.584.492.816c.208.224.448.404.72.54.28.128.576.192.888.192.2 0 .396-.028.588-.084.2-.056.384-.132.552-.228.168-.104.312-.22.432-.348s.204-.264.252-.408l.804.24c-.088.224-.216.432-.384.624-.168.184-.368.348-.6.492-.224.136-.476.24-.756.312-.272.08-.556.12-.852.12-.456 0-.876-.084-1.26-.252-.384-.176-.716-.412-.996-.708-.28-.304-.5-.652-.66-1.044-.152-.392-.228-.812-.228-1.26zm6.528 0c0-.44.076-.856.228-1.248s.364-.732.636-1.02c.28-.296.612-.528.996-.696s.808-.252 1.272-.252c.592 0 1.108.136 1.548.408.44.264.772.624.996 1.08l-.792.252c-.176-.32-.424-.568-.744-.744-.312-.184-.66-.276-1.044-.276-.32 0-.62.064-.9.192-.272.128-.512.304-.72.528-.2.216-.36.476-.48.78-.112.304-.168.636-.168.996 0 .352.06.684.18.996s.284.584.492.816c.208.224.448.404.72.54.28.128.576.192.888.192.2 0 .396-.028.588-.084.2-.056.384-.132.552-.228.168-.104.312-.22.432-.348s.204-.264.252-.408l.804.24c-.088.224-.216.432-.384.624-.168.184-.368.348-.6.492-.224.136-.476.24-.756.312-.272.08-.556.12-.852.12-.456 0-.876-.084-1.26-.252-.384-.176-.716-.412-.996-.708-.28-.304-.5-.652-.66-1.044-.152-.392-.228-.812-.228-1.26zm9.623 3.264c-.456 0-.872-.084-1.248-.252-.376-.176-.704-.412-.984-.708-.272-.296-.484-.64-.636-1.032s-.228-.804-.228-1.236c0-.44.076-.856.228-1.248.16-.392.376-.736.648-1.032.28-.296.608-.532.984-.708s.788-.264 1.236-.264.86.088 1.236.264c.384.176.712.412.984.708.28.296.496.64.648 1.032.16.392.24.808.24 1.248 0 .432-.076.844-.228 1.236s-.368.736-.648 1.032c-.272.296-.6.532-.984.708-.376.168-.792.252-1.248.252zm-2.268-3.216c0 .352.06.68.18.984.12.296.28.56.48.792.208.224.448.4.72.528.28.128.576.192.888.192s.604-.064.876-.192c.28-.136.524-.316.732-.54.208-.232.372-.5.492-.804s.18-.632.18-.984c0-.344-.06-.668-.18-.972-.12-.312-.284-.58-.492-.804-.208-.232-.452-.412-.732-.54-.272-.136-.564-.204-.876-.204s-.604.068-.876.204c-.272.128-.512.308-.72.54s-.372.504-.492.816c-.12.304-.18.632-.18.984z" fill="#b2a6ea"/></svg>