<svg width="308" height="143" viewBox="0 0 308 143" fill="none" xmlns="http://www.w3.org/2000/svg">
<rect x="29.5238" y="87.4762" width="53.9524" height="22.8403" fill="#39297D"/>
<path d="M43.9568 101.146V101.118C43.9568 100.486 43.7987 99.9933 43.4826 99.6408C43.1665 99.2793 42.7329 98.9946 42.182 98.7867C42.3536 98.6963 42.5117 98.5879 42.6562 98.4614C42.8097 98.3348 42.9407 98.1902 43.0491 98.0275C43.1665 97.8558 43.2568 97.666 43.32 97.4582C43.3923 97.2503 43.4284 97.0108 43.4284 96.7396V96.7125C43.4284 95.9624 43.1484 95.3659 42.5884 94.923C42.0375 94.4802 41.2742 94.2588 40.2988 94.2588H35.8956V103.749H40.4072C40.9401 103.749 41.4233 103.694 41.8568 103.586C42.2994 103.477 42.6742 103.315 42.9813 103.098C43.2975 102.881 43.5368 102.61 43.6994 102.284C43.871 101.959 43.9568 101.579 43.9568 101.146ZM41.3555 97.0921C41.3555 97.4446 41.2201 97.7022 40.9491 97.8649C40.6781 98.0185 40.3123 98.0953 39.8517 98.0953H37.9278V96.0889H39.9872C40.4297 96.0889 40.7684 96.1748 41.0033 96.3465C41.2381 96.5092 41.3555 96.7487 41.3555 97.065V97.0921ZM41.8839 100.888C41.8839 101.24 41.753 101.503 41.491 101.674C41.2291 101.837 40.8678 101.918 40.4072 101.918H37.9278V99.8306H40.3394C40.8813 99.8306 41.2742 99.9255 41.5181 100.115C41.762 100.296 41.8839 100.545 41.8839 100.861V100.888Z" fill="white"/>
<path d="M47.6105 103.749V93.8521H45.5512V103.749H47.6105Z" fill="white"/>
<path d="M55.7904 103.749V99.5323C55.7904 98.5472 55.533 97.779 55.0182 97.2277C54.5033 96.6764 53.6814 96.4007 52.5524 96.4007C51.9382 96.4007 51.4143 96.455 50.9808 96.5634C50.5472 96.6719 50.1317 96.8119 49.7343 96.9837L50.2491 98.5563C50.5833 98.4297 50.8995 98.3348 51.1975 98.2716C51.5046 98.1993 51.8569 98.1631 52.2543 98.1631C52.7691 98.1631 53.1575 98.2761 53.4195 98.502C53.6814 98.728 53.8124 99.0579 53.8124 99.4917V99.6137C53.5504 99.5233 53.2795 99.451 52.9995 99.3968C52.7285 99.3425 52.4078 99.3154 52.0375 99.3154C51.604 99.3154 51.2066 99.3651 50.8453 99.4646C50.493 99.5549 50.1859 99.695 49.924 99.8848C49.6711 100.075 49.4724 100.314 49.3279 100.603C49.1833 100.893 49.1111 101.236 49.1111 101.634V101.661C49.1111 102.022 49.1743 102.343 49.3008 102.623C49.4362 102.894 49.6169 103.125 49.8427 103.315C50.0685 103.504 50.3304 103.649 50.6285 103.749C50.9356 103.839 51.2608 103.884 51.604 103.884C52.1098 103.884 52.5388 103.803 52.8911 103.64C53.2433 103.468 53.5459 103.242 53.7988 102.962V103.749H55.7904ZM53.8394 101.186C53.8394 101.566 53.6904 101.873 53.3924 102.108C53.1033 102.343 52.7149 102.461 52.2272 102.461C51.893 102.461 51.622 102.384 51.4143 102.23C51.2066 102.077 51.1027 101.86 51.1027 101.579V101.552C51.1027 101.227 51.2291 100.978 51.482 100.807C51.7349 100.635 52.0827 100.549 52.5253 100.549C52.7782 100.549 53.013 100.576 53.2298 100.63C53.4556 100.676 53.6588 100.739 53.8394 100.82V101.186Z" fill="white"/>
<path d="M65.1902 100.129V100.102C65.1902 99.4962 65.0953 98.963 64.9057 98.502C64.725 98.0321 64.4811 97.6389 64.1741 97.3226C63.867 96.9972 63.5147 96.7532 63.1173 96.5905C62.7199 96.4278 62.3089 96.3465 61.8844 96.3465C61.3425 96.3465 60.8908 96.4595 60.5296 96.6854C60.1773 96.9023 59.8747 97.1825 59.6218 97.5259V93.8521H57.5625V103.749H59.6218V102.8C59.8657 103.089 60.1638 103.342 60.516 103.559C60.8773 103.776 61.3334 103.884 61.8844 103.884C62.3179 103.884 62.7334 103.803 63.1308 103.64C63.5282 103.477 63.876 103.238 64.1741 102.922C64.4811 102.596 64.725 102.203 64.9057 101.742C65.0953 101.272 65.1902 100.734 65.1902 100.129ZM63.1308 100.129C63.1308 100.436 63.0812 100.712 62.9818 100.956C62.8915 101.2 62.765 101.412 62.6024 101.593C62.4399 101.765 62.2502 101.9 62.0334 102C61.8257 102.09 61.5999 102.135 61.356 102.135C61.1121 102.135 60.8818 102.09 60.665 102C60.4573 101.9 60.2721 101.765 60.1096 101.593C59.956 101.412 59.8296 101.2 59.7302 100.956C59.6399 100.703 59.5947 100.427 59.5947 100.129V100.102C59.5947 99.8035 59.6399 99.5323 59.7302 99.2883C59.8296 99.0353 59.956 98.8229 60.1096 98.6512C60.2721 98.4704 60.4573 98.3348 60.665 98.2444C60.8818 98.145 61.1121 98.0953 61.356 98.0953C61.5999 98.0953 61.8257 98.145 62.0334 98.2444C62.2502 98.3348 62.4399 98.4704 62.6024 98.6512C62.765 98.8229 62.8915 99.0353 62.9818 99.2883C63.0812 99.5323 63.1308 99.8035 63.1308 100.102V100.129Z" fill="white"/>
<path d="M68.8591 103.749V93.8521H66.7998V103.749H68.8591Z" fill="white"/>
<path d="M77.039 103.749V99.5323C77.039 98.5472 76.7816 97.779 76.2668 97.2277C75.7519 96.6764 74.93 96.4007 73.801 96.4007C73.1868 96.4007 72.6629 96.455 72.2294 96.5634C71.7958 96.6719 71.3803 96.8119 70.9829 96.9837L71.4978 98.5563C71.8319 98.4297 72.1481 98.3348 72.4461 98.2716C72.7532 98.1993 73.1055 98.1631 73.5029 98.1631C74.0177 98.1631 74.4061 98.2761 74.6681 98.502C74.93 98.728 75.061 99.0579 75.061 99.4917V99.6137C74.799 99.5233 74.5281 99.451 74.2481 99.3968C73.9771 99.3425 73.6565 99.3154 73.2861 99.3154C72.8526 99.3154 72.4552 99.3651 72.0939 99.4646C71.7416 99.5549 71.4345 99.695 71.1726 99.8848C70.9197 100.075 70.721 100.314 70.5765 100.603C70.432 100.893 70.3597 101.236 70.3597 101.634V101.661C70.3597 102.022 70.4229 102.343 70.5494 102.623C70.6849 102.894 70.8655 103.125 71.0913 103.315C71.3171 103.504 71.579 103.649 71.8771 103.749C72.1842 103.839 72.5094 103.884 72.8526 103.884C73.3584 103.884 73.7874 103.803 74.1397 103.64C74.4919 103.468 74.7945 103.242 75.0474 102.962V103.749H77.039ZM75.0881 101.186C75.0881 101.566 74.939 101.873 74.641 102.108C74.3519 102.343 73.9635 102.461 73.4758 102.461C73.1416 102.461 72.8706 102.384 72.6629 102.23C72.4552 102.077 72.3513 101.86 72.3513 101.579V101.552C72.3513 101.227 72.4777 100.978 72.7306 100.807C72.9836 100.635 73.3313 100.549 73.7739 100.549C74.0268 100.549 74.2616 100.576 74.4784 100.63C74.7042 100.676 74.9074 100.739 75.0881 100.82V101.186Z" fill="white"/>
<path d="M54.8882 110.317L29.5238 110.317L54.8882 122.048V110.317Z" fill="#39297D"/>
<path d="M61.8526 118.598L61.5017 118.254C61.2767 118.47 61.0473 118.638 60.8133 118.76C60.5793 118.877 60.3004 118.936 59.9764 118.936C59.7155 118.936 59.4725 118.886 59.2476 118.787C59.0271 118.683 58.8336 118.544 58.6672 118.368C58.5052 118.193 58.377 117.986 58.2825 117.747C58.1925 117.508 58.1475 117.252 58.1475 116.977C58.1475 116.703 58.1925 116.448 58.2825 116.214C58.377 115.975 58.5052 115.768 58.6672 115.593C58.8336 115.417 59.0271 115.28 59.2476 115.181C59.4725 115.082 59.7155 115.032 59.9764 115.032C60.3004 115.032 60.5771 115.093 60.8065 115.215C61.0405 115.336 61.2587 115.492 61.4612 115.681L61.8256 115.289C61.7086 115.176 61.5872 115.075 61.4612 114.985C61.3352 114.89 61.198 114.812 61.0495 114.749C60.901 114.681 60.7391 114.629 60.5636 114.593C60.3926 114.557 60.1991 114.539 59.9832 114.539C59.6367 114.539 59.3173 114.605 59.0248 114.735C58.7324 114.861 58.4804 115.037 58.269 115.262C58.0575 115.482 57.891 115.741 57.7696 116.039C57.6526 116.336 57.5941 116.653 57.5941 116.991C57.5941 117.333 57.6526 117.652 57.7696 117.95C57.891 118.247 58.0575 118.506 58.269 118.726C58.4804 118.942 58.7301 119.113 59.0181 119.239C59.306 119.366 59.621 119.429 59.9629 119.429C60.1789 119.429 60.3746 119.408 60.5501 119.368C60.7256 119.327 60.8898 119.271 61.0428 119.199C61.1957 119.127 61.3375 119.041 61.4679 118.942C61.6029 118.839 61.7311 118.724 61.8526 118.598Z" fill="white"/>
<path d="M67.2635 116.977C67.2635 116.649 67.205 116.338 67.0881 116.045C66.9756 115.748 66.8136 115.489 66.6021 115.269C66.3907 115.044 66.1365 114.866 65.8395 114.735C65.5471 114.605 65.2209 114.539 64.8609 114.539C64.501 114.539 64.1725 114.607 63.8756 114.742C63.5786 114.872 63.3244 115.05 63.113 115.275C62.9015 115.501 62.7373 115.762 62.6203 116.059C62.5033 116.351 62.4448 116.662 62.4448 116.991C62.4448 117.319 62.5011 117.632 62.6136 117.929C62.7305 118.222 62.8948 118.481 63.1062 118.706C63.3177 118.927 63.5696 119.102 63.8621 119.233C64.159 119.363 64.4875 119.429 64.8474 119.429C65.2074 119.429 65.5358 119.363 65.8328 119.233C66.1297 119.098 66.3839 118.918 66.5954 118.692C66.8068 118.467 66.9711 118.208 67.0881 117.916C67.205 117.619 67.2635 117.306 67.2635 116.977ZM66.7101 116.991C66.7101 117.261 66.6629 117.515 66.5684 117.754C66.4784 117.988 66.3524 118.193 66.1905 118.368C66.0285 118.544 65.8328 118.683 65.6033 118.787C65.3783 118.886 65.1309 118.936 64.8609 118.936C64.591 118.936 64.3413 118.884 64.1118 118.78C63.8868 118.677 63.6911 118.537 63.5247 118.362C63.3582 118.186 63.2277 117.979 63.1332 117.74C63.0432 117.502 62.9982 117.247 62.9982 116.977C62.9982 116.707 63.0432 116.455 63.1332 116.221C63.2277 115.982 63.3559 115.775 63.5179 115.6C63.6799 115.424 63.8733 115.287 64.0983 115.188C64.3278 115.084 64.5775 115.032 64.8474 115.032C65.1174 115.032 65.3648 115.084 65.5898 115.188C65.8193 115.291 66.0172 115.431 66.1837 115.606C66.3502 115.782 66.4784 115.989 66.5684 116.228C66.6629 116.466 66.7101 116.721 66.7101 116.991Z" fill="white"/>
<path d="M71.8636 118.409L68.8874 114.62H68.3879V119.348H68.9076V115.471L71.9581 119.348H72.3833V114.62H71.8636V118.409Z" fill="white"/>
<path d="M77.1145 114.62H73.7198V119.348H74.253V117.288H76.8108V116.802H74.253V115.113H77.1145V114.62Z" fill="white"/>
<path d="M29.5238 110.317H54.8871V114.419L29.5238 110.317Z" fill="#2B1D6B"/>
<circle cx="50.4762" cy="34.5714" r="20.6905" fill="#5845AF" stroke="#6B58C1" stroke-width="0.52381"/>
<g clip-path="url(#clip0)">
<path d="M46.2857 39.8095C46.2857 38.6981 46.7272 37.6323 47.5131 36.8464C48.2989 36.0605 49.3648 35.6191 50.4762 35.6191C51.5876 35.6191 52.6534 36.0605 53.4393 36.8464C54.2252 37.6323 54.6667 38.6981 54.6667 39.8095H53.619C53.619 38.976 53.2879 38.1766 52.6985 37.5872C52.1091 36.9978 51.3097 36.6667 50.4762 36.6667C49.6426 36.6667 48.8432 36.9978 48.2538 37.5872C47.6644 38.1766 47.3333 38.976 47.3333 39.8095H46.2857ZM50.4762 35.0952C48.7398 35.0952 47.3333 33.6888 47.3333 31.9524C47.3333 30.216 48.7398 28.8095 50.4762 28.8095C52.2126 28.8095 53.619 30.216 53.619 31.9524C53.619 33.6888 52.2126 35.0952 50.4762 35.0952ZM50.4762 34.0476C51.6338 34.0476 52.5714 33.11 52.5714 31.9524C52.5714 30.7948 51.6338 29.8571 50.4762 29.8571C49.3186 29.8571 48.3809 30.7948 48.3809 31.9524C48.3809 33.11 49.3186 34.0476 50.4762 34.0476Z" fill="#B8AFDD"/>
</g>
<g clip-path="url(#clip1)">
<path fill-rule="evenodd" clip-rule="evenodd" d="M82.8047 40.8571C80.005 40.8571 77.7143 43.0962 77.7143 45.833C77.7143 48.0099 79.1778 49.8759 81.2139 50.5601C81.4685 50.6223 81.5321 50.4357 81.5321 50.3113V49.4405C80.1322 49.7515 79.8141 48.8185 79.8141 48.8185C79.5596 48.2587 79.2414 48.0722 79.2414 48.0722C78.796 47.7611 79.305 47.7611 79.305 47.7611C79.8141 47.8234 80.0686 48.2587 80.0686 48.2587C80.514 49.0673 81.2776 48.8185 81.5321 48.6941C81.5957 48.3831 81.723 48.1343 81.8503 48.0099C80.7049 47.8855 79.5596 47.4501 79.5596 45.522C79.5596 44.9622 79.7504 44.5268 80.0686 44.2158C80.005 44.0914 79.8141 43.5938 80.1322 42.9096C80.1322 42.9096 80.5776 42.7852 81.5321 43.4072C81.9139 43.2828 82.3593 43.2206 82.8047 43.2206C83.2501 43.2206 83.6955 43.2828 84.0773 43.4072C85.0318 42.7852 85.4772 42.9096 85.4772 42.9096C85.7318 43.5938 85.6045 44.0914 85.5408 44.2158C85.859 44.589 86.0499 45.0244 86.0499 45.522C86.0499 47.4501 84.8409 47.8234 83.6955 47.9477C83.8864 48.1965 84.0773 48.5075 84.0773 48.9429V50.3113C84.0773 50.4357 84.1409 50.6223 84.4591 50.5601C86.4953 49.8759 87.9588 48.0099 87.9588 45.833C87.8952 43.0962 85.6045 40.8571 82.8047 40.8571V40.8571Z" fill="#B2A6EA"/>
</g>
<path d="M78.6027 20.4324L81.1672 25.6956L83.7653 20.4324H86.7657L82.525 28.277V32.3333H79.7928V28.2434L75.619 20.4324H78.6027ZM90.3073 32.501C89.3016 32.501 88.4468 32.2886 87.7428 31.864C87.0499 31.4394 86.5191 30.8806 86.1504 30.1878C85.7816 29.495 85.5972 28.7463 85.5972 27.9417C85.5972 27.126 85.7816 26.3717 86.1504 25.6789C86.5191 24.986 87.0555 24.4273 87.7595 24.0027C88.4635 23.578 89.3128 23.3657 90.3073 23.3657C91.3019 23.3657 92.1511 23.578 92.8551 24.0027C93.5591 24.4273 94.0955 24.986 94.4643 25.6789C94.833 26.3717 95.0174 27.126 95.0174 27.9417C95.0174 28.7463 94.833 29.495 94.4643 30.1878C94.0955 30.8806 93.5591 31.4394 92.8551 31.864C92.1511 32.2886 91.3019 32.501 90.3073 32.501ZM88.3462 27.9417C88.3462 28.6234 88.5306 29.1765 88.8993 29.6011C89.2793 30.0258 89.7486 30.2381 90.3073 30.2381C90.8549 30.2381 91.313 30.0258 91.6818 29.6011C92.0617 29.1765 92.2517 28.6234 92.2517 27.9417C92.2517 27.2601 92.0617 26.7069 91.6818 26.2823C91.313 25.8577 90.8549 25.6453 90.3073 25.6453C89.7486 25.6453 89.2793 25.8577 88.8993 26.2823C88.5306 26.7069 88.3462 27.2601 88.3462 27.9417ZM96.2637 29.1653V23.5333H98.9456V28.5787C98.9456 29.685 99.3535 30.2381 100.169 30.2381C100.527 30.2381 100.873 30.1431 101.208 29.9531C101.544 29.752 101.84 29.4224 102.097 28.9642V23.5333H104.779V29.3497C104.779 29.6179 104.818 29.8079 104.896 29.9196C104.985 30.0314 105.136 30.0928 105.349 30.104V32.3333C105.092 32.378 104.874 32.4116 104.695 32.4339C104.516 32.4563 104.354 32.4674 104.209 32.4674C103.248 32.4674 102.7 32.0931 102.566 31.3444L102.516 30.808C102.114 31.3891 101.611 31.8193 101.007 32.0987C100.415 32.3669 99.7502 32.501 99.0126 32.501C98.1187 32.501 97.437 32.216 96.9677 31.6461C96.4984 31.0762 96.2637 30.2493 96.2637 29.1653ZM112.438 25.8297C111.79 25.8409 111.203 25.947 110.678 26.1482C110.153 26.3493 109.773 26.651 109.538 27.0533V32.3333H106.856V23.5333H109.32V25.3101C109.622 24.7178 110.013 24.2541 110.494 23.9189C110.974 23.5836 111.477 23.4104 112.002 23.3992C112.226 23.3992 112.371 23.4048 112.438 23.416V25.8297ZM120.087 25.528V32.3333H117.338V20.4324H119.517L125.031 27.4389V20.4324H127.78V32.3333H125.534L120.087 25.528ZM129.171 29.7017C129.171 29.1206 129.333 28.6122 129.657 28.1764C129.981 27.7406 130.428 27.3997 130.998 27.1539C131.568 26.8969 132.222 26.7684 132.959 26.7684C133.317 26.7684 133.669 26.8019 134.015 26.869C134.361 26.9248 134.663 27.0086 134.92 27.1204V26.7349C134.92 25.7403 134.334 25.243 133.16 25.243C132.669 25.243 132.205 25.3269 131.769 25.4945C131.344 25.6621 130.892 25.9024 130.411 26.2152L129.607 24.5055C130.769 23.7457 132.043 23.3657 133.428 23.3657C134.747 23.3657 135.769 23.6842 136.496 24.3211C137.233 24.9469 137.602 25.8577 137.602 27.0533V29.3497C137.602 29.6179 137.641 29.8079 137.719 29.9196C137.809 30.0314 137.96 30.0928 138.172 30.104V32.3333C137.937 32.378 137.725 32.4116 137.535 32.4339C137.345 32.4563 137.177 32.4674 137.032 32.4674C136.529 32.4674 136.144 32.3669 135.876 32.1657C135.619 31.9646 135.457 31.6908 135.39 31.3444L135.339 30.9589C134.948 31.4617 134.479 31.8472 133.931 32.1154C133.384 32.3724 132.819 32.501 132.238 32.501C131.657 32.501 131.132 32.378 130.663 32.1322C130.205 31.8864 129.841 31.5567 129.573 31.1432C129.305 30.7186 129.171 30.2381 129.171 29.7017ZM134.501 30.037C134.781 29.8135 134.92 29.5844 134.92 29.3497V28.5619C134.686 28.4725 134.429 28.4055 134.149 28.3608C133.881 28.3049 133.635 28.277 133.412 28.277C132.909 28.277 132.495 28.3887 132.171 28.6122C131.858 28.8357 131.702 29.1206 131.702 29.467C131.702 29.7688 131.819 30.0314 132.054 30.2549C132.3 30.4672 132.624 30.5733 133.026 30.5733C133.294 30.5733 133.562 30.523 133.831 30.4225C134.099 30.3219 134.322 30.1934 134.501 30.037ZM153.458 32.3333H150.776V27.3886C150.776 26.8187 150.67 26.3996 150.457 26.1314C150.245 25.8632 149.971 25.7291 149.636 25.7291C149.279 25.7291 148.927 25.8744 148.58 26.165C148.234 26.4555 147.988 26.8298 147.843 27.288V32.3333H145.161V27.3886C145.161 26.8075 145.055 26.3884 144.842 26.1314C144.63 25.8632 144.356 25.7291 144.021 25.7291C143.663 25.7291 143.311 25.8744 142.965 26.165C142.63 26.4555 142.384 26.8298 142.227 27.288V32.3333H139.545V23.5333H141.959V25.0084C142.283 24.4832 142.725 24.0809 143.283 23.8015C143.842 23.511 144.485 23.3657 145.211 23.3657C145.937 23.3657 146.496 23.5389 146.887 23.8853C147.278 24.2206 147.53 24.6173 147.641 25.0754C147.977 24.539 148.418 24.12 148.966 23.8183C149.524 23.5166 150.15 23.3657 150.843 23.3657C151.402 23.3657 151.849 23.4719 152.184 23.6842C152.53 23.8853 152.793 24.1535 152.972 24.4888C153.162 24.824 153.29 25.1872 153.357 25.5783C153.424 25.9582 153.458 26.3326 153.458 26.7013V32.3333ZM159.418 32.501C158.423 32.501 157.574 32.2942 156.87 31.8808C156.166 31.4673 155.624 30.9197 155.244 30.2381C154.875 29.5564 154.691 28.8189 154.691 28.0255C154.691 27.1763 154.875 26.3996 155.244 25.6956C155.613 24.9916 156.149 24.4273 156.853 24.0027C157.557 23.578 158.412 23.3657 159.418 23.3657C160.412 23.3657 161.262 23.578 161.966 24.0027C162.67 24.4273 163.2 24.986 163.558 25.6789C163.927 26.3717 164.111 27.1148 164.111 27.9082C164.111 28.2323 164.089 28.5172 164.044 28.763H157.541C157.585 29.3553 157.798 29.8079 158.177 30.1208C158.569 30.4225 159.01 30.5733 159.502 30.5733C159.893 30.5733 160.267 30.4784 160.625 30.2884C160.982 30.0984 161.228 29.8414 161.362 29.5173L163.642 30.1543C163.295 30.8471 162.753 31.4114 162.016 31.8472C161.29 32.2831 160.424 32.501 159.418 32.501ZM157.473 27.1204H161.295C161.239 26.5617 161.033 26.1203 160.675 25.7962C160.329 25.461 159.898 25.2933 159.384 25.2933C158.87 25.2933 158.434 25.461 158.077 25.7962C157.73 26.1314 157.529 26.5728 157.473 27.1204Z" fill="white"/>
<path d="M90.8724 46.6663V44.1017H91.4423V46.5657C91.4423 47.5546 91.7803 48.0491 92.4564 48.0491C92.7916 48.0491 93.1045 47.9402 93.395 47.7223C93.6912 47.5044 93.9035 47.2138 94.032 46.8506V44.1017H94.6019V47.7809C94.6019 47.9318 94.6689 48.01 94.803 48.0156V48.4682C94.736 48.4793 94.6829 48.4849 94.6438 48.4849C94.6103 48.4849 94.574 48.4849 94.5348 48.4849C94.4175 48.4738 94.3169 48.4291 94.2331 48.3508C94.1549 48.2726 94.1158 48.1776 94.1158 48.0659L94.099 47.4792C93.9091 47.82 93.6493 48.0854 93.3196 48.2754C92.9955 48.4598 92.6435 48.552 92.2636 48.552C91.3361 48.552 90.8724 47.9234 90.8724 46.6663ZM97.3236 48.552C96.966 48.552 96.6336 48.4933 96.3263 48.376C96.0246 48.2531 95.7592 48.0743 95.5301 47.8396L95.7648 47.4373C96.0106 47.6664 96.2564 47.834 96.5023 47.9402C96.7537 48.0407 97.0191 48.091 97.2985 48.091C97.6337 48.091 97.9075 48.024 98.1198 47.8899C98.3377 47.7502 98.4467 47.5519 98.4467 47.2948C98.4467 47.1216 98.3936 46.9903 98.2874 46.9009C98.1868 46.8059 98.0388 46.7305 97.8432 46.6746C97.6533 46.6188 97.4242 46.5545 97.156 46.4819C96.8543 46.3981 96.6001 46.3115 96.3933 46.2221C96.1922 46.1271 96.0385 46.0098 95.9324 45.8701C95.8318 45.7248 95.7815 45.5376 95.7815 45.3086C95.7815 45.0292 95.8514 44.7945 95.991 44.6046C96.1363 44.4146 96.3319 44.2721 96.5777 44.1771C96.8291 44.0766 97.1085 44.0263 97.4158 44.0263C97.751 44.0263 98.0472 44.0793 98.3042 44.1855C98.5612 44.2917 98.7707 44.4397 98.9328 44.6297L98.6562 45.0152C98.5053 44.8364 98.3182 44.7051 98.0947 44.6213C97.8768 44.5319 97.6393 44.4872 97.3823 44.4872C97.2035 44.4872 97.0331 44.5124 96.871 44.5626C96.709 44.6073 96.5749 44.6856 96.4688 44.7973C96.3682 44.9035 96.3179 45.0515 96.3179 45.2415C96.3179 45.4762 96.4045 45.6382 96.5777 45.7276C96.7509 45.817 97.0135 45.912 97.3655 46.0126C97.6952 46.1019 97.9829 46.1913 98.2288 46.2807C98.4746 46.3701 98.6646 46.4903 98.7987 46.6411C98.9328 46.7864 98.9998 46.9903 98.9998 47.2529C98.9998 47.6608 98.8462 47.9793 98.5388 48.2084C98.2315 48.4374 97.8265 48.552 97.3236 48.552ZM101.828 48.552C101.408 48.552 101.034 48.4486 100.704 48.2419C100.375 48.0352 100.115 47.7586 99.925 47.4122C99.7351 47.0658 99.6401 46.6858 99.6401 46.2724C99.6401 45.8645 99.7323 45.4901 99.9167 45.1493C100.107 44.8085 100.366 44.5375 100.696 44.3364C101.026 44.1296 101.4 44.0263 101.819 44.0263C102.249 44.0263 102.627 44.1296 102.951 44.3364C103.275 44.5431 103.526 44.8169 103.705 45.1577C103.889 45.4929 103.981 45.8617 103.981 46.264C103.981 46.3534 103.979 46.4288 103.973 46.4903H100.235C100.263 46.8032 100.352 47.0825 100.503 47.3284C100.654 47.5686 100.847 47.7614 101.082 47.9066C101.316 48.0463 101.573 48.1162 101.853 48.1162C102.138 48.1162 102.406 48.0435 102.657 47.8983C102.909 47.753 103.087 47.563 103.194 47.3284L103.688 47.4625C103.599 47.6748 103.459 47.8647 103.269 48.0324C103.085 48.1944 102.87 48.3229 102.624 48.4179C102.378 48.5073 102.112 48.552 101.828 48.552ZM100.218 46.0796H103.445C103.423 45.7667 103.336 45.4901 103.185 45.2499C103.034 45.004 102.842 44.8141 102.607 44.68C102.372 44.5403 102.112 44.4705 101.828 44.4705C101.543 44.4705 101.283 44.5403 101.048 44.68C100.813 44.8141 100.621 45.004 100.47 45.2499C100.325 45.4901 100.241 45.7667 100.218 46.0796ZM107.04 44.6046C106.66 44.6157 106.325 44.7219 106.034 44.923C105.749 45.1242 105.548 45.4007 105.431 45.7527V48.4682H104.861V44.1017H105.397V45.1493C105.548 44.842 105.746 44.5934 105.992 44.4034C106.244 44.2134 106.509 44.1073 106.788 44.0849C106.844 44.0793 106.892 44.0766 106.931 44.0766C106.97 44.0766 107.006 44.0793 107.04 44.0849V44.6046ZM111.47 48.4682H110.9V46.0293C110.9 45.5153 110.822 45.1409 110.665 44.9063C110.514 44.666 110.28 44.5459 109.961 44.5459C109.738 44.5459 109.517 44.6018 109.299 44.7135C109.081 44.8197 108.888 44.9677 108.721 45.1577C108.559 45.3421 108.441 45.5544 108.369 45.7946V48.4682H107.799V44.1017H108.319V45.0906C108.492 44.7722 108.746 44.5152 109.081 44.3196C109.416 44.124 109.78 44.0263 110.171 44.0263C110.495 44.0263 110.752 44.1045 110.942 44.2609C111.132 44.4118 111.266 44.6297 111.344 44.9146C111.428 45.194 111.47 45.5265 111.47 45.912V48.4682ZM112.333 47.211C112.333 46.9428 112.411 46.711 112.568 46.5154C112.724 46.3143 112.939 46.1578 113.213 46.0461C113.492 45.9343 113.814 45.8785 114.177 45.8785C114.389 45.8785 114.61 45.898 114.839 45.9371C115.068 45.9706 115.272 46.0181 115.451 46.0796V45.7108C115.451 45.3421 115.342 45.0487 115.124 44.8308C114.906 44.6129 114.604 44.504 114.219 44.504C113.99 44.504 113.761 44.5487 113.532 44.6381C113.303 44.7219 113.065 44.8476 112.819 45.0152L112.601 44.6129C112.886 44.4174 113.166 44.2721 113.439 44.1771C113.713 44.0766 113.993 44.0263 114.277 44.0263C114.814 44.0263 115.239 44.1799 115.551 44.4872C115.864 44.7945 116.021 45.2192 116.021 45.7611V47.7809C116.021 47.9318 116.091 48.01 116.23 48.0156V48.4682C116.107 48.4849 116.021 48.4905 115.97 48.4849C115.831 48.4793 115.725 48.4346 115.652 48.3508C115.579 48.267 115.54 48.1776 115.535 48.0826L115.526 47.7642C115.331 48.0156 115.076 48.2112 114.764 48.3508C114.451 48.4849 114.132 48.552 113.808 48.552C113.523 48.552 113.269 48.4933 113.045 48.376C112.822 48.2531 112.646 48.091 112.517 47.8899C112.395 47.6832 112.333 47.4569 112.333 47.211ZM115.258 47.5463C115.387 47.3954 115.451 47.2557 115.451 47.1272V46.4903C115.065 46.3394 114.663 46.264 114.244 46.264C113.836 46.264 113.506 46.345 113.255 46.507C113.004 46.6691 112.878 46.8898 112.878 47.1691C112.878 47.4094 112.97 47.6273 113.154 47.8228C113.344 48.0184 113.607 48.1162 113.942 48.1162C114.216 48.1162 114.47 48.0631 114.705 47.9569C114.945 47.8508 115.13 47.7139 115.258 47.5463ZM123.747 48.4682H123.177V46.0293C123.177 45.5265 123.096 45.1549 122.934 44.9146C122.772 44.6688 122.532 44.5459 122.214 44.5459C121.878 44.5459 121.582 44.6632 121.325 44.8979C121.068 45.1326 120.887 45.4343 120.78 45.803V48.4682H120.211V46.0293C120.211 45.5153 120.13 45.1409 119.968 44.9063C119.811 44.666 119.574 44.5459 119.255 44.5459C118.925 44.5459 118.629 44.6604 118.367 44.8895C118.11 45.1186 117.928 45.4203 117.822 45.7946V48.4682H117.252V44.1017H117.772V45.0906C117.95 44.7554 118.185 44.4956 118.476 44.3112C118.766 44.1212 119.088 44.0263 119.44 44.0263C119.803 44.0263 120.096 44.1324 120.32 44.3447C120.543 44.5515 120.68 44.8197 120.73 45.1493C121.132 44.4006 121.694 44.0263 122.415 44.0263C122.906 44.0263 123.25 44.1995 123.446 44.5459C123.647 44.8867 123.747 45.3421 123.747 45.912V48.4682ZM126.839 48.552C126.42 48.552 126.046 48.4486 125.716 48.2419C125.387 48.0352 125.127 47.7586 124.937 47.4122C124.747 47.0658 124.652 46.6858 124.652 46.2724C124.652 45.8645 124.744 45.4901 124.929 45.1493C125.119 44.8085 125.378 44.5375 125.708 44.3364C126.038 44.1296 126.412 44.0263 126.831 44.0263C127.261 44.0263 127.638 44.1296 127.962 44.3364C128.287 44.5431 128.538 44.8169 128.717 45.1577C128.901 45.4929 128.993 45.8617 128.993 46.264C128.993 46.3534 128.991 46.4288 128.985 46.4903H125.247C125.275 46.8032 125.364 47.0825 125.515 47.3284C125.666 47.5686 125.859 47.7614 126.094 47.9066C126.328 48.0463 126.585 48.1162 126.865 48.1162C127.15 48.1162 127.418 48.0435 127.669 47.8983C127.921 47.753 128.099 47.563 128.206 47.3284L128.7 47.4625C128.611 47.6748 128.471 47.8647 128.281 48.0324C128.097 48.1944 127.881 48.3229 127.636 48.4179C127.39 48.5073 127.124 48.552 126.839 48.552ZM125.23 46.0796H128.457C128.435 45.7667 128.348 45.4901 128.197 45.2499C128.046 45.004 127.854 44.8141 127.619 44.68C127.384 44.5403 127.124 44.4705 126.839 44.4705C126.554 44.4705 126.295 44.5403 126.06 44.68C125.825 44.8141 125.633 45.004 125.482 45.2499C125.336 45.4901 125.253 45.7667 125.23 46.0796Z" fill="#B2A6EA"/>
<path d="M97.9014 93.9462C97.4502 93.9462 97.0435 93.8393 96.6814 93.6256C96.3252 93.4119 96.0522 93.124 95.8622 92.7619L96.3519 92.3344C96.5182 92.6075 96.7378 92.8272 97.0109 92.9934C97.2899 93.1596 97.5897 93.2427 97.9103 93.2427C98.1834 93.2427 98.4268 93.1833 98.6405 93.0646C98.8542 92.9459 99.0234 92.7826 99.148 92.5749C99.2727 92.3671 99.335 92.1266 99.335 91.8536C99.335 91.5864 99.2727 91.3519 99.148 91.1501C99.0293 90.9483 98.8661 90.7909 98.6583 90.6781C98.4564 90.5594 98.2279 90.5 97.9726 90.5C97.7233 90.5 97.4858 90.5564 97.2602 90.6692C97.0346 90.782 96.8536 90.9423 96.717 91.1501H96.0047L96.717 87.5348H99.7892V88.256H97.2959L96.9129 90.2685C97.1801 89.9717 97.566 89.8233 98.0706 89.8233C98.4624 89.8233 98.8126 89.9094 99.1213 90.0815C99.436 90.2537 99.6823 90.4911 99.8604 90.7939C100.044 91.0907 100.136 91.438 100.136 91.8358C100.136 92.2513 100.036 92.6194 99.8337 92.9399C99.6378 93.2546 99.3707 93.5009 99.0323 93.679C98.6998 93.8571 98.3229 93.9462 97.9014 93.9462ZM103.498 93.8571V87.5348H105.689C106.366 87.5348 106.93 87.6772 107.381 87.9622C107.838 88.2412 108.179 88.6211 108.405 89.102C108.631 89.5769 108.743 90.1053 108.743 90.687C108.743 91.3282 108.619 91.8862 108.369 92.3611C108.12 92.8361 107.767 93.2041 107.31 93.4653C106.853 93.7265 106.312 93.8571 105.689 93.8571H103.498ZM107.933 90.687C107.933 90.2121 107.844 89.7906 107.666 89.4226C107.494 89.0545 107.241 88.7666 106.909 88.5588C106.577 88.351 106.17 88.2471 105.689 88.2471H104.3V93.1448H105.689C106.176 93.1448 106.585 93.0379 106.918 92.8242C107.25 92.6045 107.503 92.3107 107.675 91.9426C107.847 91.5686 107.933 91.1501 107.933 90.687ZM109.339 92.5125C109.339 92.2157 109.423 91.9604 109.589 91.7467C109.761 91.5271 109.995 91.3579 110.292 91.2391C110.589 91.1204 110.933 91.061 111.325 91.061C111.533 91.061 111.753 91.0789 111.984 91.1145C112.216 91.1442 112.42 91.1916 112.599 91.2569V90.9186C112.599 90.5624 112.492 90.2834 112.278 90.0815C112.064 89.8737 111.761 89.7699 111.37 89.7699C111.114 89.7699 110.868 89.8173 110.631 89.9123C110.399 90.0014 110.153 90.132 109.891 90.3041L109.607 89.752C109.909 89.5443 110.212 89.3899 110.515 89.289C110.818 89.1821 111.132 89.1287 111.459 89.1287C112.052 89.1287 112.521 89.2949 112.866 89.6274C113.21 89.9539 113.382 90.411 113.382 90.9987V92.9667C113.382 93.1507 113.465 93.2457 113.631 93.2516V93.8571C113.554 93.869 113.486 93.8779 113.427 93.8839C113.373 93.8898 113.329 93.8928 113.293 93.8928C113.109 93.8928 112.97 93.8423 112.875 93.7414C112.786 93.6405 112.735 93.5336 112.723 93.4208L112.705 93.1269C112.504 93.3882 112.239 93.59 111.913 93.7325C111.586 93.8749 111.263 93.9462 110.942 93.9462C110.634 93.9462 110.358 93.8839 110.114 93.7592C109.871 93.6286 109.681 93.4564 109.544 93.2427C109.408 93.0231 109.339 92.7797 109.339 92.5125ZM112.367 92.842C112.438 92.7589 112.495 92.6758 112.536 92.5927C112.578 92.5036 112.599 92.4294 112.599 92.37V91.7912C112.219 91.6428 111.827 91.5686 111.423 91.5686C111.025 91.5686 110.702 91.6488 110.452 91.809C110.209 91.9634 110.087 92.1771 110.087 92.4502C110.087 92.5986 110.126 92.744 110.203 92.8865C110.286 93.0231 110.405 93.1359 110.559 93.2249C110.72 93.3139 110.916 93.3585 111.147 93.3585C111.39 93.3585 111.622 93.311 111.842 93.216C112.061 93.1151 112.236 92.9904 112.367 92.842ZM114.701 95.1216C114.778 95.1276 114.855 95.1335 114.933 95.1394C115.01 95.1513 115.069 95.1572 115.111 95.1572C115.206 95.1572 115.289 95.1246 115.36 95.0593C115.431 94.994 115.508 94.8663 115.592 94.6764C115.681 94.4923 115.793 94.2193 115.93 93.8571L113.962 89.2089H114.79L116.357 93.0646L117.773 89.2089H118.548L116.286 95.0771C116.209 95.2849 116.069 95.4659 115.868 95.6203C115.672 95.7806 115.407 95.8607 115.075 95.8607C115.022 95.8607 114.965 95.8577 114.906 95.8518C114.852 95.8459 114.784 95.834 114.701 95.8162V95.1216ZM120.812 93.9462C120.426 93.9462 120.064 93.8839 119.726 93.7592C119.387 93.6286 119.096 93.4356 118.853 93.1804L119.156 92.6283C119.423 92.8776 119.69 93.0557 119.957 93.1626C120.224 93.2694 120.497 93.3229 120.776 93.3229C121.097 93.3229 121.358 93.2635 121.56 93.1448C121.762 93.0201 121.863 92.839 121.863 92.6016C121.863 92.4294 121.809 92.3018 121.702 92.2187C121.601 92.1356 121.456 92.0673 121.266 92.0139C121.076 91.9545 120.851 91.8892 120.589 91.8179C120.108 91.6814 119.74 91.5211 119.485 91.3371C119.236 91.1471 119.111 90.8711 119.111 90.5089C119.111 90.0696 119.277 89.7313 119.61 89.4938C119.948 89.2504 120.379 89.1287 120.901 89.1287C121.601 89.1287 122.154 89.3395 122.557 89.7609L122.201 90.3041C121.839 89.9301 121.391 89.7431 120.856 89.7431C120.696 89.7431 120.539 89.7639 120.385 89.8055C120.23 89.8411 120.103 89.9094 120.002 90.0103C119.901 90.1053 119.85 90.2418 119.85 90.4199C119.85 90.6396 119.939 90.7969 120.117 90.8919C120.295 90.9868 120.557 91.0848 120.901 91.1857C121.251 91.2866 121.554 91.3876 121.809 91.4885C122.07 91.5894 122.272 91.72 122.415 91.8803C122.557 92.0406 122.629 92.2632 122.629 92.5481C122.629 92.9874 122.462 93.3318 122.13 93.5811C121.797 93.8245 121.358 93.9462 120.812 93.9462ZM125.453 92.5125C125.453 92.2157 125.536 91.9604 125.703 91.7467C125.875 91.5271 126.109 91.3579 126.406 91.2391C126.703 91.1204 127.047 91.061 127.439 91.061C127.647 91.061 127.866 91.0789 128.098 91.1145C128.329 91.1442 128.534 91.1916 128.712 91.2569V90.9186C128.712 90.5624 128.605 90.2834 128.392 90.0815C128.178 89.8737 127.875 89.7699 127.483 89.7699C127.228 89.7699 126.982 89.8173 126.744 89.9123C126.513 90.0014 126.266 90.132 126.005 90.3041L125.72 89.752C126.023 89.5443 126.326 89.3899 126.629 89.289C126.931 89.1821 127.246 89.1287 127.573 89.1287C128.166 89.1287 128.635 89.2949 128.979 89.6274C129.324 89.9539 129.496 90.411 129.496 90.9987V92.9667C129.496 93.1507 129.579 93.2457 129.745 93.2516V93.8571C129.668 93.869 129.6 93.8779 129.54 93.8839C129.487 93.8898 129.443 93.8928 129.407 93.8928C129.223 93.8928 129.083 93.8423 128.988 93.7414C128.899 93.6405 128.849 93.5336 128.837 93.4208L128.819 93.1269C128.617 93.3882 128.353 93.59 128.027 93.7325C127.7 93.8749 127.377 93.9462 127.056 93.9462C126.747 93.9462 126.471 93.8839 126.228 93.7592C125.985 93.6286 125.795 93.4564 125.658 93.2427C125.521 93.0231 125.453 92.7797 125.453 92.5125ZM128.481 92.842C128.552 92.7589 128.608 92.6758 128.65 92.5927C128.692 92.5036 128.712 92.4294 128.712 92.37V91.7912C128.332 91.6428 127.941 91.5686 127.537 91.5686C127.139 91.5686 126.816 91.6488 126.566 91.809C126.323 91.9634 126.201 92.1771 126.201 92.4502C126.201 92.5986 126.24 92.744 126.317 92.8865C126.4 93.0231 126.519 93.1359 126.673 93.2249C126.833 93.3139 127.029 93.3585 127.261 93.3585C127.504 93.3585 127.736 93.311 127.955 93.216C128.175 93.1151 128.35 92.9904 128.481 92.842ZM134.783 93.8571H133.999V91.2569C133.999 90.7642 133.922 90.4051 133.768 90.1795C133.619 89.9479 133.391 89.8322 133.082 89.8322C132.868 89.8322 132.655 89.8856 132.441 89.9925C132.233 90.0993 132.046 90.2448 131.88 90.4288C131.72 90.6069 131.604 90.8147 131.533 91.0521V93.8571H130.749V89.2089H131.461V90.2062C131.645 89.8797 131.91 89.6185 132.254 89.4226C132.604 89.2267 132.984 89.1287 133.394 89.1287C133.756 89.1287 134.035 89.2148 134.231 89.3869C134.433 89.5532 134.575 89.7847 134.658 90.0815C134.741 90.3724 134.783 90.7049 134.783 91.0789V93.8571ZM135.699 91.5419C135.699 91.1026 135.788 90.7019 135.966 90.3398C136.15 89.9717 136.399 89.6778 136.714 89.4582C137.034 89.2385 137.399 89.1287 137.809 89.1287C138.183 89.1287 138.518 89.2267 138.815 89.4226C139.112 89.6185 139.344 89.8559 139.51 90.1349V87.3567H140.293V92.9667C140.293 93.1507 140.377 93.2457 140.543 93.2516V93.8571C140.394 93.8809 140.279 93.8928 140.196 93.8928C140.041 93.8928 139.905 93.8393 139.786 93.7325C139.673 93.6256 139.617 93.5069 139.617 93.3763V92.9845C139.433 93.2813 139.186 93.5158 138.878 93.6879C138.569 93.8601 138.248 93.9462 137.916 93.9462C137.488 93.9462 137.106 93.8364 136.767 93.6167C136.435 93.3911 136.174 93.0973 135.984 92.7351C135.794 92.3671 135.699 91.9693 135.699 91.5419ZM139.51 92.2276V90.8919C139.439 90.69 139.323 90.5089 139.163 90.3487C139.002 90.1824 138.821 90.0518 138.619 89.9569C138.423 89.8559 138.228 89.8055 138.032 89.8055C137.729 89.8055 137.462 89.8886 137.23 90.0548C137.005 90.221 136.827 90.4377 136.696 90.7049C136.571 90.972 136.509 91.254 136.509 91.5508C136.509 91.8595 136.577 92.1445 136.714 92.4057C136.856 92.6669 137.049 92.8776 137.293 93.0379C137.536 93.1923 137.806 93.2694 138.103 93.2694C138.293 93.2694 138.489 93.2249 138.691 93.1359C138.892 93.0409 139.071 92.9132 139.225 92.7529C139.379 92.5927 139.474 92.4175 139.51 92.2276ZM145.599 93.9462C145.148 93.9462 144.741 93.8393 144.379 93.6256C144.023 93.4119 143.75 93.124 143.56 92.7619L144.05 92.3344C144.216 92.6075 144.436 92.8272 144.709 92.9934C144.988 93.1596 145.288 93.2427 145.608 93.2427C145.881 93.2427 146.125 93.1833 146.338 93.0646C146.552 92.9459 146.721 92.7826 146.846 92.5749C146.971 92.3671 147.033 92.1266 147.033 91.8536C147.033 91.5864 146.971 91.3519 146.846 91.1501C146.727 90.9483 146.564 90.7909 146.356 90.6781C146.154 90.5594 145.926 90.5 145.67 90.5C145.421 90.5 145.184 90.5564 144.958 90.6692C144.733 90.782 144.551 90.9423 144.415 91.1501H143.703L144.415 87.5348H147.487V88.256H144.994L144.611 90.2685C144.878 89.9717 145.264 89.8233 145.768 89.8233C146.16 89.8233 146.511 89.9094 146.819 90.0815C147.134 90.2537 147.38 90.4911 147.558 90.7939C147.742 91.0907 147.834 91.438 147.834 91.8358C147.834 92.2513 147.733 92.6194 147.532 92.9399C147.336 93.2546 147.069 93.5009 146.73 93.679C146.398 93.8571 146.021 93.9462 145.599 93.9462ZM155.486 88.2471H153.304V93.8571H152.503V88.2471H150.321V87.5348H155.486V88.2471ZM158.008 89.8945C157.616 89.9005 157.269 90.0014 156.966 90.1973C156.669 90.3873 156.458 90.6514 156.334 90.9898V93.8571H155.55V89.2089H156.28V90.2863C156.441 89.9658 156.651 89.7075 156.913 89.5116C157.18 89.3098 157.459 89.197 157.75 89.1732C157.809 89.1732 157.859 89.1732 157.901 89.1732C157.943 89.1732 157.978 89.1762 158.008 89.1821V89.8945ZM158.42 92.5125C158.42 92.2157 158.503 91.9604 158.669 91.7467C158.841 91.5271 159.076 91.3579 159.373 91.2391C159.67 91.1204 160.014 91.061 160.406 91.061C160.613 91.061 160.833 91.0789 161.065 91.1145C161.296 91.1442 161.501 91.1916 161.679 91.2569V90.9186C161.679 90.5624 161.572 90.2834 161.359 90.0815C161.145 89.8737 160.842 89.7699 160.45 89.7699C160.195 89.7699 159.949 89.8173 159.711 89.9123C159.48 90.0014 159.233 90.132 158.972 90.3041L158.687 89.752C158.99 89.5443 159.293 89.3899 159.595 89.289C159.898 89.1821 160.213 89.1287 160.539 89.1287C161.133 89.1287 161.602 89.2949 161.946 89.6274C162.291 89.9539 162.463 90.411 162.463 90.9987V92.9667C162.463 93.1507 162.546 93.2457 162.712 93.2516V93.8571C162.635 93.869 162.567 93.8779 162.507 93.8839C162.454 93.8898 162.409 93.8928 162.374 93.8928C162.19 93.8928 162.05 93.8423 161.955 93.7414C161.866 93.6405 161.816 93.5336 161.804 93.4208L161.786 93.1269C161.584 93.3882 161.32 93.59 160.993 93.7325C160.667 93.8749 160.343 93.9462 160.023 93.9462C159.714 93.9462 159.438 93.8839 159.195 93.7592C158.951 93.6286 158.761 93.4564 158.625 93.2427C158.488 93.0231 158.42 92.7797 158.42 92.5125ZM161.448 92.842C161.519 92.7589 161.575 92.6758 161.617 92.5927C161.658 92.5036 161.679 92.4294 161.679 92.37V91.7912C161.299 91.6428 160.907 91.5686 160.504 91.5686C160.106 91.5686 159.782 91.6488 159.533 91.809C159.29 91.9634 159.168 92.1771 159.168 92.4502C159.168 92.5986 159.207 92.744 159.284 92.8865C159.367 93.0231 159.486 93.1359 159.64 93.2249C159.8 93.3139 159.996 93.3585 160.228 93.3585C160.471 93.3585 160.703 93.311 160.922 93.216C161.142 93.1151 161.317 92.9904 161.448 92.842ZM165.773 93.9462C165.31 93.9462 164.9 93.8364 164.544 93.6167C164.188 93.3911 163.909 93.0943 163.707 92.7262C163.505 92.3582 163.404 91.9575 163.404 91.5241C163.404 91.0848 163.502 90.6841 163.698 90.3219C163.894 89.9598 164.17 89.6719 164.526 89.4582C164.882 89.2385 165.295 89.1287 165.764 89.1287C166.221 89.1287 166.619 89.2326 166.957 89.4404C167.301 89.6422 167.557 89.9153 167.723 90.2596L166.957 90.5C166.838 90.2804 166.672 90.1112 166.458 89.9925C166.245 89.8678 166.007 89.8055 165.746 89.8055C165.461 89.8055 165.2 89.8797 164.962 90.0281C164.731 90.1765 164.547 90.3813 164.41 90.6425C164.274 90.8978 164.205 91.1916 164.205 91.5241C164.205 91.8506 164.274 92.1474 164.41 92.4146C164.553 92.6758 164.74 92.8836 164.971 93.0379C165.209 93.1923 165.47 93.2694 165.755 93.2694C165.939 93.2694 166.114 93.2368 166.28 93.1715C166.452 93.1062 166.601 93.0201 166.726 92.9132C166.856 92.8004 166.945 92.6787 166.993 92.5481L167.758 92.7797C167.622 93.118 167.373 93.3971 167.01 93.6167C166.654 93.8364 166.242 93.9462 165.773 93.9462ZM171.923 93.8571L170.312 91.5953L169.43 92.4235V93.8571H168.646V87.3567H169.43V91.6042L171.834 89.2178H172.68L170.828 91.1412L172.769 93.8571H171.923ZM175.041 93.9462C174.655 93.9462 174.293 93.8839 173.954 93.7592C173.616 93.6286 173.325 93.4356 173.081 93.1804L173.384 92.6283C173.651 92.8776 173.919 93.0557 174.186 93.1626C174.453 93.2694 174.726 93.3229 175.005 93.3229C175.325 93.3229 175.587 93.2635 175.789 93.1448C175.99 93.0201 176.091 92.839 176.091 92.6016C176.091 92.4294 176.038 92.3018 175.931 92.2187C175.83 92.1356 175.685 92.0673 175.495 92.0139C175.305 91.9545 175.079 91.8892 174.818 91.8179C174.337 91.6814 173.969 91.5211 173.714 91.3371C173.464 91.1471 173.34 90.8711 173.34 90.5089C173.34 90.0696 173.506 89.7313 173.838 89.4938C174.177 89.2504 174.607 89.1287 175.13 89.1287C175.83 89.1287 176.382 89.3395 176.786 89.7609L176.43 90.3041C176.068 89.9301 175.619 89.7431 175.085 89.7431C174.925 89.7431 174.767 89.7639 174.613 89.8055C174.459 89.8411 174.331 89.9094 174.23 90.0103C174.129 90.1053 174.079 90.2418 174.079 90.4199C174.079 90.6396 174.168 90.7969 174.346 90.8919C174.524 90.9868 174.785 91.0848 175.13 91.1857C175.48 91.2866 175.783 91.3876 176.038 91.4885C176.299 91.5894 176.501 91.72 176.643 91.8803C176.786 92.0406 176.857 92.2632 176.857 92.5481C176.857 92.9874 176.691 93.3318 176.358 93.5811C176.026 93.8245 175.587 93.9462 175.041 93.9462ZM182.104 93.9462C181.641 93.9462 181.231 93.8364 180.875 93.6167C180.519 93.3911 180.24 93.0943 180.038 92.7262C179.836 92.3582 179.735 91.9575 179.735 91.5241C179.735 91.0848 179.833 90.6841 180.029 90.3219C180.225 89.9598 180.501 89.6719 180.857 89.4582C181.213 89.2385 181.626 89.1287 182.095 89.1287C182.552 89.1287 182.95 89.2326 183.288 89.4404C183.633 89.6422 183.888 89.9153 184.054 90.2596L183.288 90.5C183.17 90.2804 183.003 90.1112 182.79 89.9925C182.576 89.8678 182.338 89.8055 182.077 89.8055C181.792 89.8055 181.531 89.8797 181.294 90.0281C181.062 90.1765 180.878 90.3813 180.741 90.6425C180.605 90.8978 180.537 91.1916 180.537 91.5241C180.537 91.8506 180.605 92.1474 180.741 92.4146C180.884 92.6758 181.071 92.8836 181.302 93.0379C181.54 93.1923 181.801 93.2694 182.086 93.2694C182.27 93.2694 182.445 93.2368 182.611 93.1715C182.784 93.1062 182.932 93.0201 183.057 92.9132C183.187 92.8004 183.276 92.6787 183.324 92.5481L184.09 92.7797C183.953 93.118 183.704 93.3971 183.342 93.6167C182.985 93.8364 182.573 93.9462 182.104 93.9462ZM186.964 93.9462C186.501 93.9462 186.092 93.8364 185.736 93.6167C185.385 93.3911 185.112 93.0973 184.916 92.7351C184.72 92.3671 184.622 91.9693 184.622 91.5419C184.622 91.1085 184.72 90.7108 184.916 90.3487C185.118 89.9806 185.394 89.6867 185.744 89.4671C186.101 89.2415 186.507 89.1287 186.964 89.1287C187.427 89.1287 187.834 89.2415 188.184 89.4671C188.541 89.6867 188.817 89.9806 189.012 90.3487C189.214 90.7108 189.315 91.1085 189.315 91.5419C189.315 91.9693 189.214 92.3671 189.012 92.7351C188.817 93.0973 188.543 93.3911 188.193 93.6167C187.843 93.8364 187.433 93.9462 186.964 93.9462ZM185.424 91.5508C185.424 91.8714 185.492 92.1623 185.629 92.4235C185.771 92.6847 185.958 92.8925 186.19 93.0468C186.421 93.1952 186.679 93.2694 186.964 93.2694C187.249 93.2694 187.508 93.1923 187.739 93.0379C187.977 92.8836 188.164 92.6758 188.3 92.4146C188.443 92.1474 188.514 91.8536 188.514 91.533C188.514 91.2124 188.443 90.9215 188.3 90.6603C188.164 90.3991 187.977 90.1913 187.739 90.037C187.508 89.8826 187.249 89.8055 186.964 89.8055C186.679 89.8055 186.421 89.8856 186.19 90.0459C185.958 90.2003 185.771 90.408 185.629 90.6692C185.492 90.9304 185.424 91.2243 185.424 91.5508ZM191.444 93.8571L189.618 89.2089H190.438L191.898 93.1091L193.358 89.2089H194.124L192.299 93.8571H191.444ZM196.809 93.9462C196.346 93.9462 195.936 93.8364 195.58 93.6167C195.224 93.3971 194.945 93.1032 194.743 92.7351C194.541 92.3671 194.44 91.9664 194.44 91.533C194.44 91.0937 194.541 90.693 194.743 90.3309C194.945 89.9687 195.224 89.6778 195.58 89.4582C195.942 89.2385 196.355 89.1287 196.818 89.1287C197.287 89.1287 197.693 89.2415 198.038 89.4671C198.388 89.6867 198.658 89.9776 198.848 90.3398C199.044 90.6959 199.142 91.0818 199.142 91.4974C199.142 91.628 199.136 91.7289 199.124 91.8001H195.268C195.292 92.1029 195.375 92.373 195.518 92.6105C195.666 92.842 195.856 93.026 196.088 93.1626C196.319 93.2932 196.569 93.3585 196.836 93.3585C197.121 93.3585 197.388 93.2872 197.637 93.1448C197.892 93.0023 198.067 92.8153 198.162 92.5838L198.839 92.7708C198.691 93.1151 198.433 93.3971 198.065 93.6167C197.696 93.8364 197.278 93.9462 196.809 93.9462ZM195.242 91.2569H198.412C198.388 90.9542 198.302 90.687 198.154 90.4555C198.005 90.224 197.815 90.0429 197.584 89.9123C197.352 89.7817 197.097 89.7164 196.818 89.7164C196.545 89.7164 196.292 89.7817 196.061 89.9123C195.829 90.0429 195.639 90.224 195.491 90.4555C195.349 90.687 195.265 90.9542 195.242 91.2569ZM202.471 89.8945C202.079 89.9005 201.732 90.0014 201.429 90.1973C201.132 90.3873 200.921 90.6514 200.797 90.9898V93.8571H200.013V89.2089H200.743V90.2863C200.904 89.9658 201.114 89.7075 201.375 89.5116C201.643 89.3098 201.922 89.197 202.213 89.1732C202.272 89.1732 202.322 89.1732 202.364 89.1732C202.405 89.1732 202.441 89.1762 202.471 89.1821V89.8945ZM203.248 88.3362V87.3567H204.032V88.3362H203.248ZM203.248 93.8571V89.2089H204.032V93.8571H203.248ZM209.334 93.8571H208.55V91.2569C208.55 90.7642 208.473 90.4051 208.319 90.1795C208.171 89.9479 207.942 89.8322 207.633 89.8322C207.42 89.8322 207.206 89.8856 206.992 89.9925C206.784 90.0993 206.597 90.2448 206.431 90.4288C206.271 90.6069 206.155 90.8147 206.084 91.0521V93.8571H205.3V89.2089H206.013V90.2062C206.197 89.8797 206.461 89.6185 206.805 89.4226C207.155 89.2267 207.535 89.1287 207.945 89.1287C208.307 89.1287 208.586 89.2148 208.782 89.3869C208.984 89.5532 209.126 89.7847 209.209 90.0815C209.293 90.3724 209.334 90.7049 209.334 91.0789V93.8571ZM212.405 93.9106C211.983 93.9106 211.609 93.8007 211.283 93.5811C210.962 93.3555 210.71 93.0616 210.526 92.6995C210.348 92.3374 210.259 91.9515 210.259 91.5419C210.259 91.1026 210.348 90.7019 210.526 90.3398C210.71 89.9717 210.965 89.6778 211.292 89.4582C211.618 89.2385 211.992 89.1287 212.414 89.1287C212.8 89.1287 213.135 89.2237 213.42 89.4137C213.711 89.6036 213.954 89.8441 214.15 90.1349V89.2089H214.845V93.8037C214.845 94.243 214.738 94.614 214.524 94.9168C214.316 95.2196 214.031 95.4481 213.669 95.6025C213.313 95.7628 212.915 95.8429 212.476 95.8429C211.954 95.8429 211.526 95.7509 211.194 95.5669C210.861 95.3828 210.585 95.1335 210.366 94.8189L210.82 94.4181C211.004 94.6912 211.241 94.896 211.532 95.0326C211.829 95.1691 212.144 95.2374 212.476 95.2374C212.761 95.2374 213.022 95.1839 213.26 95.0771C213.503 94.9762 213.696 94.8189 213.839 94.6051C213.987 94.3914 214.061 94.1243 214.061 93.8037V92.9845C213.889 93.2694 213.652 93.495 213.349 93.6612C213.052 93.8275 212.737 93.9106 212.405 93.9106ZM212.645 93.2694C212.865 93.2694 213.076 93.219 213.278 93.118C213.479 93.0171 213.649 92.8865 213.785 92.7262C213.928 92.5659 214.02 92.3997 214.061 92.2276V90.8919C213.936 90.5772 213.735 90.319 213.456 90.1171C213.177 89.9094 212.883 89.8055 212.574 89.8055C212.259 89.8055 211.986 89.8916 211.755 90.0637C211.529 90.2359 211.354 90.4555 211.229 90.7227C211.111 90.9898 211.051 91.2688 211.051 91.5597C211.051 91.8684 211.123 92.1534 211.265 92.4146C211.408 92.6698 211.597 92.8776 211.835 93.0379C212.078 93.1923 212.348 93.2694 212.645 93.2694ZM222.396 93.8571H221.612V91.2569C221.612 90.782 221.526 90.4258 221.354 90.1884C221.188 89.9509 220.947 89.8322 220.632 89.8322C220.431 89.8322 220.226 89.8856 220.018 89.9925C219.816 90.0993 219.638 90.2448 219.484 90.4288C219.329 90.6069 219.217 90.8147 219.145 91.0521V93.8571H218.362V87.3567H219.145V90.2062C219.329 89.8737 219.579 89.6125 219.893 89.4226C220.214 89.2267 220.558 89.1287 220.926 89.1287C221.294 89.1287 221.585 89.2148 221.799 89.3869C222.013 89.5591 222.164 89.7936 222.253 90.0904C222.348 90.3813 222.396 90.7108 222.396 91.0789V93.8571ZM225.644 93.9462C225.181 93.9462 224.772 93.8364 224.416 93.6167C224.065 93.3911 223.792 93.0973 223.596 92.7351C223.4 92.3671 223.302 91.9693 223.302 91.5419C223.302 91.1085 223.4 90.7108 223.596 90.3487C223.798 89.9806 224.074 89.6867 224.424 89.4671C224.781 89.2415 225.187 89.1287 225.644 89.1287C226.107 89.1287 226.514 89.2415 226.864 89.4671C227.221 89.6867 227.497 89.9806 227.693 90.3487C227.894 90.7108 227.995 91.1085 227.995 91.5419C227.995 91.9693 227.894 92.3671 227.693 92.7351C227.497 93.0973 227.224 93.3911 226.873 93.6167C226.523 93.8364 226.113 93.9462 225.644 93.9462ZM224.104 91.5508C224.104 91.8714 224.172 92.1623 224.309 92.4235C224.451 92.6847 224.638 92.8925 224.87 93.0468C225.101 93.1952 225.359 93.2694 225.644 93.2694C225.929 93.2694 226.188 93.1923 226.419 93.0379C226.657 92.8836 226.844 92.6758 226.98 92.4146C227.123 92.1474 227.194 91.8536 227.194 91.533C227.194 91.2124 227.123 90.9215 226.98 90.6603C226.844 90.3991 226.657 90.1913 226.419 90.037C226.188 89.8826 225.929 89.8055 225.644 89.8055C225.359 89.8055 225.101 89.8856 224.87 90.0459C224.638 90.2003 224.451 90.408 224.309 90.6692C224.172 90.9304 224.104 91.2243 224.104 91.5508ZM231.28 93.6256C231.185 93.6672 231.033 93.7265 230.825 93.8037C230.624 93.8809 230.398 93.9195 230.149 93.9195C229.864 93.9195 229.617 93.8423 229.41 93.6879C229.202 93.5277 229.098 93.2813 229.098 92.9489V89.8233H228.466V89.2089H229.098V87.6594H229.882V89.2089H230.923V89.8233H229.882V92.7084C229.893 92.8746 229.95 92.9993 230.051 93.0824C230.152 93.1596 230.27 93.1982 230.407 93.1982C230.561 93.1982 230.704 93.1715 230.834 93.118C230.965 93.0646 231.051 93.026 231.093 93.0023L231.28 93.6256ZM234.41 93.6256C234.315 93.6672 234.164 93.7265 233.956 93.8037C233.754 93.8809 233.529 93.9195 233.279 93.9195C232.994 93.9195 232.748 93.8423 232.54 93.6879C232.332 93.5277 232.228 93.2813 232.228 92.9489V89.8233H231.596V89.2089H232.228V87.6594H233.012V89.2089H234.054V89.8233H233.012V92.7084C233.024 92.8746 233.08 92.9993 233.181 93.0824C233.282 93.1596 233.401 93.1982 233.537 93.1982C233.692 93.1982 233.834 93.1715 233.965 93.118C234.096 93.0646 234.182 93.026 234.223 93.0023L234.41 93.6256ZM237.133 93.9462C236.67 93.9462 236.26 93.8364 235.904 93.6167C235.548 93.3971 235.268 93.1032 235.067 92.7351C234.865 92.3671 234.764 91.9664 234.764 91.533C234.764 91.0937 234.865 90.693 235.067 90.3309C235.268 89.9687 235.548 89.6778 235.904 89.4582C236.266 89.2385 236.678 89.1287 237.141 89.1287C237.61 89.1287 238.017 89.2415 238.361 89.4671C238.712 89.6867 238.982 89.9776 239.172 90.3398C239.368 90.6959 239.466 91.0818 239.466 91.4974C239.466 91.628 239.46 91.7289 239.448 91.8001H235.592C235.616 92.1029 235.699 92.373 235.841 92.6105C235.99 92.842 236.18 93.026 236.411 93.1626C236.643 93.2932 236.892 93.3585 237.159 93.3585C237.444 93.3585 237.711 93.2872 237.961 93.1448C238.216 93.0023 238.391 92.8153 238.486 92.5838L239.163 92.7708C239.014 93.1151 238.756 93.3971 238.388 93.6167C238.02 93.8364 237.602 93.9462 237.133 93.9462ZM235.565 91.2569H238.735C238.712 90.9542 238.626 90.687 238.477 90.4555C238.329 90.224 238.139 90.0429 237.907 89.9123C237.676 89.7817 237.42 89.7164 237.141 89.7164C236.868 89.7164 236.616 89.7817 236.385 89.9123C236.153 90.0429 235.963 90.224 235.815 90.4555C235.672 90.687 235.589 90.9542 235.565 91.2569ZM241.931 93.9462C241.545 93.9462 241.183 93.8839 240.844 93.7592C240.506 93.6286 240.215 93.4356 239.972 93.1804L240.274 92.6283C240.541 92.8776 240.809 93.0557 241.076 93.1626C241.343 93.2694 241.616 93.3229 241.895 93.3229C242.216 93.3229 242.477 93.2635 242.679 93.1448C242.88 93.0201 242.981 92.839 242.981 92.6016C242.981 92.4294 242.928 92.3018 242.821 92.2187C242.72 92.1356 242.575 92.0673 242.385 92.0139C242.195 91.9545 241.969 91.8892 241.708 91.8179C241.227 91.6814 240.859 91.5211 240.604 91.3371C240.354 91.1471 240.23 90.8711 240.23 90.5089C240.23 90.0696 240.396 89.7313 240.728 89.4938C241.067 89.2504 241.497 89.1287 242.02 89.1287C242.72 89.1287 243.272 89.3395 243.676 89.7609L243.32 90.3041C242.958 89.9301 242.509 89.7431 241.975 89.7431C241.815 89.7431 241.658 89.7639 241.503 89.8055C241.349 89.8411 241.221 89.9094 241.12 90.0103C241.019 90.1053 240.969 90.2418 240.969 90.4199C240.969 90.6396 241.058 90.7969 241.236 90.8919C241.414 90.9868 241.675 91.0848 242.02 91.1857C242.37 91.2866 242.673 91.3876 242.928 91.4885C243.189 91.5894 243.391 91.72 243.533 91.8803C243.676 92.0406 243.747 92.2632 243.747 92.5481C243.747 92.9874 243.581 93.3318 243.249 93.5811C242.916 93.8245 242.477 93.9462 241.931 93.9462ZM247.089 93.6256C246.994 93.6672 246.843 93.7265 246.635 93.8037C246.433 93.8809 246.207 93.9195 245.958 93.9195C245.673 93.9195 245.427 93.8423 245.219 93.6879C245.011 93.5277 244.907 93.2813 244.907 92.9489V89.8233H244.275V89.2089H244.907V87.6594H245.691V89.2089H246.733V89.8233H245.691V92.7084C245.703 92.8746 245.759 92.9993 245.86 93.0824C245.961 93.1596 246.08 93.1982 246.216 93.1982C246.371 93.1982 246.513 93.1715 246.644 93.118C246.774 93.0646 246.86 93.026 246.902 93.0023L247.089 93.6256ZM100.84 100.247H98.6583V105.857H97.8569V100.247H95.6752V99.5348H100.84V100.247ZM102.692 105.946C102.228 105.946 101.819 105.836 101.463 105.617C101.106 105.397 100.827 105.103 100.626 104.735C100.424 104.367 100.323 103.966 100.323 103.533C100.323 103.094 100.424 102.693 100.626 102.331C100.827 101.969 101.106 101.678 101.463 101.458C101.825 101.239 102.237 101.129 102.7 101.129C103.169 101.129 103.576 101.242 103.92 101.467C104.271 101.687 104.541 101.978 104.731 102.34C104.927 102.696 105.025 103.082 105.025 103.497C105.025 103.628 105.019 103.729 105.007 103.8H101.151C101.175 104.103 101.258 104.373 101.4 104.61C101.549 104.842 101.739 105.026 101.97 105.163C102.202 105.293 102.451 105.358 102.718 105.358C103.003 105.358 103.27 105.287 103.52 105.145C103.775 105.002 103.95 104.815 104.045 104.584L104.722 104.771C104.573 105.115 104.315 105.397 103.947 105.617C103.579 105.836 103.16 105.946 102.692 105.946ZM101.124 103.257H104.294C104.271 102.954 104.185 102.687 104.036 102.456C103.888 102.224 103.698 102.043 103.466 101.912C103.235 101.782 102.979 101.716 102.7 101.716C102.427 101.716 102.175 101.782 101.944 101.912C101.712 102.043 101.522 102.224 101.374 102.456C101.231 102.687 101.148 102.954 101.124 103.257ZM107.953 105.946C107.49 105.946 107.08 105.836 106.724 105.617C106.368 105.391 106.089 105.094 105.887 104.726C105.685 104.358 105.584 103.957 105.584 103.524C105.584 103.085 105.682 102.684 105.878 102.322C106.074 101.96 106.35 101.672 106.706 101.458C107.062 101.239 107.475 101.129 107.944 101.129C108.401 101.129 108.799 101.233 109.137 101.44C109.481 101.642 109.737 101.915 109.903 102.26L109.137 102.5C109.018 102.28 108.852 102.111 108.638 101.992C108.425 101.868 108.187 101.805 107.926 101.805C107.641 101.805 107.38 101.88 107.142 102.028C106.911 102.177 106.727 102.381 106.59 102.643C106.454 102.898 106.385 103.192 106.385 103.524C106.385 103.851 106.454 104.147 106.59 104.415C106.733 104.676 106.92 104.884 107.151 105.038C107.389 105.192 107.65 105.269 107.935 105.269C108.119 105.269 108.294 105.237 108.46 105.171C108.632 105.106 108.781 105.02 108.905 104.913C109.036 104.8 109.125 104.679 109.173 104.548L109.938 104.78C109.802 105.118 109.553 105.397 109.19 105.617C108.834 105.836 108.422 105.946 107.953 105.946ZM114.86 105.857H114.077V103.257C114.077 102.782 113.99 102.426 113.818 102.188C113.652 101.951 113.412 101.832 113.097 101.832C112.895 101.832 112.69 101.886 112.483 101.992C112.281 102.099 112.103 102.245 111.948 102.429C111.794 102.607 111.681 102.815 111.61 103.052V105.857H110.826V99.3567H111.61V102.206C111.794 101.874 112.043 101.613 112.358 101.423C112.678 101.227 113.023 101.129 113.391 101.129C113.759 101.129 114.05 101.215 114.264 101.387C114.477 101.559 114.629 101.794 114.718 102.09C114.813 102.381 114.86 102.711 114.86 103.079V105.857ZM120.113 105.857H119.329V103.257C119.329 102.764 119.252 102.405 119.097 102.179C118.949 101.948 118.72 101.832 118.412 101.832C118.198 101.832 117.984 101.886 117.771 101.992C117.563 102.099 117.376 102.245 117.21 102.429C117.049 102.607 116.934 102.815 116.862 103.052V105.857H116.079V101.209H116.791V102.206C116.975 101.88 117.239 101.618 117.584 101.423C117.934 101.227 118.314 101.129 118.723 101.129C119.086 101.129 119.365 101.215 119.56 101.387C119.762 101.553 119.905 101.785 119.988 102.082C120.071 102.372 120.113 102.705 120.113 103.079V105.857ZM123.361 105.946C122.898 105.946 122.489 105.836 122.133 105.617C121.782 105.391 121.509 105.097 121.313 104.735C121.117 104.367 121.019 103.969 121.019 103.542C121.019 103.109 121.117 102.711 121.313 102.349C121.515 101.981 121.791 101.687 122.141 101.467C122.498 101.242 122.904 101.129 123.361 101.129C123.824 101.129 124.231 101.242 124.581 101.467C124.938 101.687 125.214 101.981 125.41 102.349C125.611 102.711 125.712 103.109 125.712 103.542C125.712 103.969 125.611 104.367 125.41 104.735C125.214 105.097 124.941 105.391 124.59 105.617C124.24 105.836 123.83 105.946 123.361 105.946ZM121.821 103.551C121.821 103.871 121.889 104.162 122.026 104.423C122.168 104.685 122.355 104.892 122.587 105.047C122.818 105.195 123.076 105.269 123.361 105.269C123.646 105.269 123.905 105.192 124.136 105.038C124.374 104.884 124.561 104.676 124.697 104.415C124.84 104.147 124.911 103.854 124.911 103.533C124.911 103.212 124.84 102.922 124.697 102.66C124.561 102.399 124.374 102.191 124.136 102.037C123.905 101.883 123.646 101.805 123.361 101.805C123.076 101.805 122.818 101.886 122.587 102.046C122.355 102.2 122.168 102.408 122.026 102.669C121.889 102.93 121.821 103.224 121.821 103.551ZM126.68 99.3567H127.463V104.655C127.463 104.91 127.499 105.068 127.57 105.127C127.641 105.186 127.727 105.216 127.828 105.216C127.953 105.216 128.072 105.204 128.185 105.18C128.297 105.151 128.392 105.121 128.469 105.091L128.594 105.732C128.464 105.786 128.309 105.83 128.131 105.866C127.953 105.902 127.796 105.919 127.659 105.919C127.356 105.919 127.116 105.833 126.938 105.661C126.766 105.489 126.68 105.249 126.68 104.94V99.3567ZM131.24 105.946C130.777 105.946 130.367 105.836 130.011 105.617C129.661 105.391 129.388 105.097 129.192 104.735C128.996 104.367 128.898 103.969 128.898 103.542C128.898 103.109 128.996 102.711 129.192 102.349C129.394 101.981 129.67 101.687 130.02 101.467C130.376 101.242 130.783 101.129 131.24 101.129C131.703 101.129 132.11 101.242 132.46 101.467C132.816 101.687 133.092 101.981 133.288 102.349C133.49 102.711 133.591 103.109 133.591 103.542C133.591 103.969 133.49 104.367 133.288 104.735C133.092 105.097 132.819 105.391 132.469 105.617C132.119 105.836 131.709 105.946 131.24 105.946ZM129.7 103.551C129.7 103.871 129.768 104.162 129.904 104.423C130.047 104.685 130.234 104.892 130.465 105.047C130.697 105.195 130.955 105.269 131.24 105.269C131.525 105.269 131.783 105.192 132.015 105.038C132.252 104.884 132.439 104.676 132.576 104.415C132.718 104.147 132.789 103.854 132.789 103.533C132.789 103.212 132.718 102.922 132.576 102.66C132.439 102.399 132.252 102.191 132.015 102.037C131.783 101.883 131.525 101.805 131.24 101.805C130.955 101.805 130.697 101.886 130.465 102.046C130.234 102.2 130.047 102.408 129.904 102.669C129.768 102.93 129.7 103.224 129.7 103.551ZM136.393 105.911C135.971 105.911 135.597 105.801 135.271 105.581C134.95 105.356 134.698 105.062 134.514 104.7C134.336 104.337 134.247 103.952 134.247 103.542C134.247 103.103 134.336 102.702 134.514 102.34C134.698 101.972 134.953 101.678 135.28 101.458C135.606 101.239 135.98 101.129 136.402 101.129C136.787 101.129 137.123 101.224 137.408 101.414C137.699 101.604 137.942 101.844 138.138 102.135V101.209H138.833V105.804C138.833 106.243 138.726 106.614 138.512 106.917C138.304 107.22 138.019 107.448 137.657 107.602C137.301 107.763 136.903 107.843 136.464 107.843C135.941 107.843 135.514 107.751 135.182 107.567C134.849 107.383 134.573 107.133 134.353 106.819L134.808 106.418C134.992 106.691 135.229 106.896 135.52 107.033C135.817 107.169 136.131 107.237 136.464 107.237C136.749 107.237 137.01 107.184 137.247 107.077C137.491 106.976 137.684 106.819 137.826 106.605C137.975 106.391 138.049 106.124 138.049 105.804V104.984C137.877 105.269 137.639 105.495 137.337 105.661C137.04 105.827 136.725 105.911 136.393 105.911ZM136.633 105.269C136.853 105.269 137.063 105.219 137.265 105.118C137.467 105.017 137.636 104.887 137.773 104.726C137.915 104.566 138.007 104.4 138.049 104.228V102.892C137.924 102.577 137.722 102.319 137.443 102.117C137.164 101.909 136.871 101.805 136.562 101.805C136.247 101.805 135.974 101.892 135.743 102.064C135.517 102.236 135.342 102.456 135.217 102.723C135.098 102.99 135.039 103.269 135.039 103.56C135.039 103.868 135.11 104.153 135.253 104.415C135.395 104.67 135.585 104.878 135.823 105.038C136.066 105.192 136.336 105.269 136.633 105.269ZM140.311 107.122C140.388 107.128 140.465 107.133 140.542 107.139C140.62 107.151 140.679 107.157 140.721 107.157C140.816 107.157 140.899 107.125 140.97 107.059C141.041 106.994 141.118 106.866 141.201 106.676C141.29 106.492 141.403 106.219 141.54 105.857L139.572 101.209H140.4L141.967 105.065L143.383 101.209H144.158L141.896 107.077C141.819 107.285 141.679 107.466 141.477 107.62C141.282 107.781 141.017 107.861 140.685 107.861C140.632 107.861 140.575 107.858 140.516 107.852C140.462 107.846 140.394 107.834 140.311 107.816V107.122ZM151.373 100.247H149.191V105.857H148.39V100.247H146.208V99.5348H151.373V100.247ZM153.895 101.895C153.503 101.9 153.155 102.001 152.853 102.197C152.556 102.387 152.345 102.651 152.22 102.99V105.857H151.437V101.209H152.167V102.286C152.327 101.966 152.538 101.708 152.799 101.512C153.066 101.31 153.345 101.197 153.636 101.173C153.696 101.173 153.746 101.173 153.788 101.173C153.829 101.173 153.865 101.176 153.895 101.182V101.895ZM156.624 105.946C156.161 105.946 155.752 105.836 155.396 105.617C155.039 105.397 154.76 105.103 154.559 104.735C154.357 104.367 154.256 103.966 154.256 103.533C154.256 103.094 154.357 102.693 154.559 102.331C154.76 101.969 155.039 101.678 155.396 101.458C155.758 101.239 156.17 101.129 156.633 101.129C157.102 101.129 157.509 101.242 157.853 101.467C158.204 101.687 158.474 101.978 158.664 102.34C158.86 102.696 158.958 103.082 158.958 103.497C158.958 103.628 158.952 103.729 158.94 103.8H155.084C155.108 104.103 155.191 104.373 155.333 104.61C155.482 104.842 155.672 105.026 155.903 105.163C156.135 105.293 156.384 105.358 156.651 105.358C156.936 105.358 157.203 105.287 157.453 105.145C157.708 105.002 157.883 104.815 157.978 104.584L158.655 104.771C158.506 105.115 158.248 105.397 157.88 105.617C157.512 105.836 157.093 105.946 156.624 105.946ZM155.057 103.257H158.227C158.204 102.954 158.117 102.687 157.969 102.456C157.821 102.224 157.631 102.043 157.399 101.912C157.168 101.782 156.912 101.716 156.633 101.716C156.36 101.716 156.108 101.782 155.876 101.912C155.645 102.043 155.455 102.224 155.307 102.456C155.164 102.687 155.081 102.954 155.057 103.257ZM163.862 105.857H163.079V103.257C163.079 102.764 163.002 102.405 162.847 102.179C162.699 101.948 162.47 101.832 162.162 101.832C161.948 101.832 161.734 101.886 161.52 101.992C161.313 102.099 161.126 102.245 160.959 102.429C160.799 102.607 160.683 102.815 160.612 103.052V105.857H159.829V101.209H160.541V102.206C160.725 101.88 160.989 101.618 161.333 101.423C161.684 101.227 162.064 101.129 162.473 101.129C162.835 101.129 163.114 101.215 163.31 101.387C163.512 101.553 163.655 101.785 163.738 102.082C163.821 102.372 163.862 102.705 163.862 103.079V105.857ZM164.778 103.542C164.778 103.103 164.867 102.702 165.045 102.34C165.229 101.972 165.479 101.678 165.793 101.458C166.114 101.239 166.479 101.129 166.889 101.129C167.263 101.129 167.598 101.227 167.895 101.423C168.192 101.618 168.423 101.856 168.589 102.135V99.3567H169.373V104.967C169.373 105.151 169.456 105.246 169.622 105.252V105.857C169.474 105.881 169.358 105.893 169.275 105.893C169.121 105.893 168.984 105.839 168.866 105.732C168.753 105.626 168.696 105.507 168.696 105.376V104.984C168.512 105.281 168.266 105.516 167.957 105.688C167.649 105.86 167.328 105.946 166.996 105.946C166.568 105.946 166.185 105.836 165.847 105.617C165.514 105.391 165.253 105.097 165.063 104.735C164.873 104.367 164.778 103.969 164.778 103.542ZM168.589 104.228V102.892C168.518 102.69 168.402 102.509 168.242 102.349C168.082 102.182 167.901 102.052 167.699 101.957C167.503 101.856 167.307 101.805 167.111 101.805C166.809 101.805 166.541 101.889 166.31 102.055C166.084 102.221 165.906 102.438 165.776 102.705C165.651 102.972 165.589 103.254 165.589 103.551C165.589 103.86 165.657 104.144 165.793 104.406C165.936 104.667 166.129 104.878 166.372 105.038C166.616 105.192 166.886 105.269 167.183 105.269C167.372 105.269 167.568 105.225 167.77 105.136C167.972 105.041 168.15 104.913 168.305 104.753C168.459 104.593 168.554 104.418 168.589 104.228ZM172.275 105.946C171.889 105.946 171.527 105.884 171.189 105.759C170.85 105.629 170.56 105.436 170.316 105.18L170.619 104.628C170.886 104.878 171.153 105.056 171.42 105.163C171.687 105.269 171.961 105.323 172.24 105.323C172.56 105.323 172.821 105.263 173.023 105.145C173.225 105.02 173.326 104.839 173.326 104.602C173.326 104.429 173.273 104.302 173.166 104.219C173.065 104.136 172.919 104.067 172.729 104.014C172.539 103.954 172.314 103.889 172.053 103.818C171.572 103.681 171.204 103.521 170.948 103.337C170.699 103.147 170.574 102.871 170.574 102.509C170.574 102.07 170.741 101.731 171.073 101.494C171.411 101.25 171.842 101.129 172.364 101.129C173.065 101.129 173.617 101.339 174.021 101.761L173.664 102.304C173.302 101.93 172.854 101.743 172.32 101.743C172.159 101.743 172.002 101.764 171.848 101.805C171.693 101.841 171.566 101.909 171.465 102.01C171.364 102.105 171.313 102.242 171.313 102.42C171.313 102.64 171.403 102.797 171.581 102.892C171.759 102.987 172.02 103.085 172.364 103.186C172.715 103.287 173.017 103.388 173.273 103.488C173.534 103.589 173.736 103.72 173.878 103.88C174.021 104.041 174.092 104.263 174.092 104.548C174.092 104.987 173.926 105.332 173.593 105.581C173.261 105.824 172.821 105.946 172.275 105.946ZM177.282 100.336V99.3567H178.065V100.336H177.282ZM177.282 105.857V101.209H178.065V105.857H177.282ZM183.368 105.857H182.584V103.257C182.584 102.764 182.507 102.405 182.353 102.179C182.204 101.948 181.976 101.832 181.667 101.832C181.453 101.832 181.239 101.886 181.026 101.992C180.818 102.099 180.631 102.245 180.465 102.429C180.304 102.607 180.189 102.815 180.117 103.052V105.857H179.334V101.209H180.046V102.206C180.23 101.88 180.494 101.618 180.839 101.423C181.189 101.227 181.569 101.129 181.979 101.129C182.341 101.129 182.62 101.215 182.816 101.387C183.017 101.553 183.16 101.785 183.243 102.082C183.326 102.372 183.368 102.705 183.368 103.079V105.857ZM186.963 105.857V99.5348H189.154C189.831 99.5348 190.394 99.6772 190.846 99.9622C191.303 100.241 191.644 100.621 191.87 101.102C192.095 101.577 192.208 102.105 192.208 102.687C192.208 103.328 192.083 103.886 191.834 104.361C191.585 104.836 191.232 105.204 190.774 105.465C190.317 105.727 189.777 105.857 189.154 105.857H186.963ZM191.398 102.687C191.398 102.212 191.309 101.791 191.131 101.423C190.958 101.055 190.706 100.767 190.374 100.559C190.041 100.351 189.635 100.247 189.154 100.247H187.765V105.145H189.154C189.641 105.145 190.05 105.038 190.383 104.824C190.715 104.605 190.967 104.311 191.14 103.943C191.312 103.569 191.398 103.15 191.398 102.687ZM192.804 104.513C192.804 104.216 192.887 103.96 193.053 103.747C193.226 103.527 193.46 103.358 193.757 103.239C194.054 103.12 194.398 103.061 194.79 103.061C194.998 103.061 195.217 103.079 195.449 103.114C195.68 103.144 195.885 103.192 196.063 103.257V102.919C196.063 102.562 195.956 102.283 195.743 102.082C195.529 101.874 195.226 101.77 194.834 101.77C194.579 101.77 194.333 101.817 194.095 101.912C193.864 102.001 193.617 102.132 193.356 102.304L193.071 101.752C193.374 101.544 193.677 101.39 193.98 101.289C194.282 101.182 194.597 101.129 194.923 101.129C195.517 101.129 195.986 101.295 196.33 101.627C196.675 101.954 196.847 102.411 196.847 102.999V104.967C196.847 105.151 196.93 105.246 197.096 105.252V105.857C197.019 105.869 196.951 105.878 196.891 105.884C196.838 105.89 196.793 105.893 196.758 105.893C196.574 105.893 196.434 105.842 196.339 105.741C196.25 105.64 196.2 105.534 196.188 105.421L196.17 105.127C195.968 105.388 195.704 105.59 195.378 105.732C195.051 105.875 194.728 105.946 194.407 105.946C194.098 105.946 193.822 105.884 193.579 105.759C193.335 105.629 193.146 105.456 193.009 105.243C192.872 105.023 192.804 104.78 192.804 104.513ZM195.832 104.842C195.903 104.759 195.959 104.676 196.001 104.593C196.043 104.504 196.063 104.429 196.063 104.37V103.791C195.683 103.643 195.292 103.569 194.888 103.569C194.49 103.569 194.167 103.649 193.917 103.809C193.674 103.963 193.552 104.177 193.552 104.45C193.552 104.599 193.591 104.744 193.668 104.887C193.751 105.023 193.87 105.136 194.024 105.225C194.184 105.314 194.38 105.358 194.612 105.358C194.855 105.358 195.087 105.311 195.306 105.216C195.526 105.115 195.701 104.99 195.832 104.842ZM200.558 101.895C200.166 101.9 199.819 102.001 199.516 102.197C199.219 102.387 199.008 102.651 198.884 102.99V105.857H198.1V101.209H198.83V102.286C198.99 101.966 199.201 101.708 199.462 101.512C199.729 101.31 200.009 101.197 200.299 101.173C200.359 101.173 200.409 101.173 200.451 101.173C200.492 101.173 200.528 101.176 200.558 101.182V101.895ZM201.335 100.336V99.3567H202.118V100.336H201.335ZM201.335 105.857V101.209H202.118V105.857H201.335ZM203.449 100.336V99.3567H204.233V100.336H203.449ZM202.791 107.513C202.589 107.513 202.396 107.484 202.212 107.424C202.028 107.365 201.864 107.27 201.722 107.139L202.087 106.614C202.17 106.691 202.268 106.745 202.381 106.774C202.488 106.804 202.595 106.819 202.701 106.819C202.891 106.819 203.064 106.748 203.218 106.605C203.372 106.463 203.449 106.282 203.449 106.062V101.209H204.233V106.009C204.233 106.299 204.165 106.558 204.028 106.783C203.892 107.015 203.714 107.193 203.494 107.318C203.28 107.448 203.046 107.513 202.791 107.513ZM205.135 104.513C205.135 104.216 205.218 103.96 205.385 103.747C205.557 103.527 205.791 103.358 206.088 103.239C206.385 103.12 206.729 103.061 207.121 103.061C207.329 103.061 207.548 103.079 207.78 103.114C208.011 103.144 208.216 103.192 208.394 103.257V102.919C208.394 102.562 208.287 102.283 208.074 102.082C207.86 101.874 207.557 101.77 207.165 101.77C206.91 101.77 206.664 101.817 206.426 101.912C206.195 102.001 205.948 102.132 205.687 102.304L205.402 101.752C205.705 101.544 206.008 101.39 206.311 101.289C206.613 101.182 206.928 101.129 207.255 101.129C207.848 101.129 208.317 101.295 208.661 101.627C209.006 101.954 209.178 102.411 209.178 102.999V104.967C209.178 105.151 209.261 105.246 209.427 105.252V105.857C209.35 105.869 209.282 105.878 209.222 105.884C209.169 105.89 209.125 105.893 209.089 105.893C208.905 105.893 208.765 105.842 208.67 105.741C208.581 105.64 208.531 105.534 208.519 105.421L208.501 105.127C208.299 105.388 208.035 105.59 207.709 105.732C207.382 105.875 207.059 105.946 206.738 105.946C206.429 105.946 206.153 105.884 205.91 105.759C205.666 105.629 205.477 105.456 205.34 105.243C205.203 105.023 205.135 104.78 205.135 104.513ZM208.163 104.842C208.234 104.759 208.29 104.676 208.332 104.593C208.374 104.504 208.394 104.429 208.394 104.37V103.791C208.014 103.643 207.623 103.569 207.219 103.569C206.821 103.569 206.498 103.649 206.248 103.809C206.005 103.963 205.883 104.177 205.883 104.45C205.883 104.599 205.922 104.744 205.999 104.887C206.082 105.023 206.201 105.136 206.355 105.225C206.515 105.314 206.711 105.358 206.943 105.358C207.186 105.358 207.418 105.311 207.637 105.216C207.857 105.115 208.032 104.99 208.163 104.842ZM210.369 105.857V104.86H211.028V105.857H210.369Z" fill="#E3DDFC"/>
<path d="M96.0832 119.143V114.68H97.9312C98.124 114.68 98.3 114.72 98.4592 114.799C98.6227 114.879 98.763 114.988 98.8804 115.126C99.0019 115.26 99.0941 115.411 99.1569 115.579C99.224 115.742 99.2575 115.91 99.2575 116.082C99.2575 116.325 99.203 116.555 99.0941 116.773C98.9851 116.987 98.8343 117.161 98.6415 117.295C98.4488 117.429 98.2246 117.496 97.9689 117.496H96.5232V119.143H96.0832ZM96.5232 117.106H97.9501C98.1261 117.106 98.279 117.058 98.4089 116.962C98.5389 116.865 98.6394 116.74 98.7107 116.585C98.7819 116.43 98.8175 116.262 98.8175 116.082C98.8175 115.897 98.7756 115.73 98.6918 115.579C98.608 115.424 98.4969 115.3 98.3587 115.208C98.2246 115.116 98.0758 115.07 97.9124 115.07H96.5232V117.106ZM101.239 119.206C100.925 119.206 100.644 119.128 100.397 118.973C100.154 118.818 99.9634 118.613 99.8251 118.357C99.6869 118.097 99.6177 117.817 99.6177 117.515C99.6177 117.209 99.6869 116.928 99.8251 116.673C99.9676 116.413 100.16 116.205 100.403 116.05C100.651 115.891 100.929 115.811 101.239 115.811C101.554 115.811 101.832 115.891 102.075 116.05C102.323 116.205 102.515 116.413 102.654 116.673C102.796 116.928 102.867 117.209 102.867 117.515C102.867 117.817 102.798 118.097 102.66 118.357C102.522 118.613 102.329 118.818 102.082 118.973C101.839 119.128 101.558 119.206 101.239 119.206ZM100.051 117.521C100.051 117.764 100.104 117.986 100.209 118.187C100.318 118.384 100.462 118.542 100.642 118.659C100.822 118.772 101.022 118.829 101.239 118.829C101.457 118.829 101.656 118.77 101.837 118.653C102.017 118.535 102.161 118.376 102.27 118.175C102.379 117.974 102.434 117.752 102.434 117.509C102.434 117.266 102.379 117.043 102.27 116.842C102.161 116.641 102.017 116.482 101.837 116.365C101.656 116.247 101.457 116.189 101.239 116.189C101.026 116.189 100.829 116.249 100.649 116.371C100.468 116.488 100.324 116.647 100.215 116.849C100.106 117.05 100.051 117.274 100.051 117.521ZM107.595 115.868H108.016L106.608 119.143H106.238L105.552 117.515L104.874 119.143H104.503L103.095 115.868H103.51L104.704 118.703L105.307 117.226L104.754 115.874H105.138L105.552 116.937L105.974 115.874H106.351L105.804 117.226L106.407 118.703L107.595 115.868ZM109.889 119.206C109.575 119.206 109.294 119.128 109.047 118.973C108.799 118.818 108.604 118.611 108.462 118.351C108.32 118.091 108.248 117.806 108.248 117.496C108.248 117.19 108.317 116.909 108.456 116.654C108.598 116.398 108.793 116.195 109.04 116.044C109.288 115.889 109.568 115.811 109.883 115.811C110.205 115.811 110.488 115.889 110.731 116.044C110.974 116.199 111.163 116.404 111.297 116.66C111.435 116.911 111.504 117.188 111.504 117.49C111.504 117.557 111.502 117.613 111.498 117.659H108.695C108.716 117.894 108.783 118.104 108.896 118.288C109.009 118.468 109.153 118.613 109.329 118.722C109.505 118.826 109.698 118.879 109.908 118.879C110.121 118.879 110.323 118.824 110.511 118.715C110.7 118.606 110.834 118.464 110.913 118.288L111.284 118.389C111.217 118.548 111.112 118.69 110.97 118.816C110.832 118.938 110.67 119.034 110.486 119.105C110.302 119.172 110.103 119.206 109.889 119.206ZM108.682 117.351H111.102C111.085 117.117 111.02 116.909 110.907 116.729C110.794 116.545 110.649 116.402 110.473 116.302C110.297 116.197 110.103 116.145 109.889 116.145C109.675 116.145 109.48 116.197 109.304 116.302C109.128 116.402 108.984 116.545 108.871 116.729C108.762 116.909 108.699 117.117 108.682 117.351ZM113.798 116.245C113.513 116.254 113.262 116.333 113.044 116.484C112.83 116.635 112.679 116.842 112.591 117.106V119.143H112.164V115.868H112.566V116.654C112.679 116.423 112.828 116.237 113.012 116.094C113.201 115.952 113.4 115.872 113.609 115.855C113.651 115.851 113.687 115.849 113.716 115.849C113.746 115.849 113.773 115.851 113.798 115.855V116.245ZM115.684 119.206C115.369 119.206 115.088 119.128 114.841 118.973C114.594 118.818 114.399 118.611 114.257 118.351C114.114 118.091 114.043 117.806 114.043 117.496C114.043 117.19 114.112 116.909 114.25 116.654C114.393 116.398 114.588 116.195 114.835 116.044C115.082 115.889 115.363 115.811 115.677 115.811C116 115.811 116.283 115.889 116.526 116.044C116.769 116.199 116.957 116.404 117.092 116.66C117.23 116.911 117.299 117.188 117.299 117.49C117.299 117.557 117.297 117.613 117.293 117.659H114.489C114.51 117.894 114.577 118.104 114.69 118.288C114.804 118.468 114.948 118.613 115.124 118.722C115.3 118.826 115.493 118.879 115.702 118.879C115.916 118.879 116.117 118.824 116.306 118.715C116.494 118.606 116.628 118.464 116.708 118.288L117.079 118.389C117.012 118.548 116.907 118.69 116.765 118.816C116.626 118.938 116.465 119.034 116.281 119.105C116.096 119.172 115.897 119.206 115.684 119.206ZM114.477 117.351H116.897C116.88 117.117 116.815 116.909 116.702 116.729C116.589 116.545 116.444 116.402 116.268 116.302C116.092 116.197 115.897 116.145 115.684 116.145C115.47 116.145 115.275 116.197 115.099 116.302C114.923 116.402 114.778 116.545 114.665 116.729C114.556 116.909 114.493 117.117 114.477 117.351ZM117.738 117.515C117.738 117.205 117.801 116.922 117.927 116.666C118.057 116.406 118.235 116.199 118.461 116.044C118.688 115.889 118.945 115.811 119.234 115.811C119.507 115.811 119.75 115.885 119.964 116.031C120.181 116.174 120.351 116.348 120.473 116.553V114.554H120.9V118.627C120.9 118.741 120.95 118.799 121.051 118.803V119.143C120.967 119.155 120.902 119.16 120.856 119.155C120.764 119.151 120.684 119.118 120.617 119.055C120.554 118.988 120.523 118.912 120.523 118.829V118.508C120.393 118.722 120.217 118.891 119.995 119.017C119.773 119.143 119.542 119.206 119.304 119.206C119.077 119.206 118.868 119.16 118.675 119.067C118.482 118.975 118.315 118.85 118.172 118.69C118.034 118.531 117.927 118.351 117.852 118.15C117.776 117.944 117.738 117.733 117.738 117.515ZM120.473 118.018V117.006C120.418 116.855 120.33 116.719 120.209 116.597C120.087 116.471 119.949 116.373 119.794 116.302C119.643 116.226 119.492 116.189 119.341 116.189C119.107 116.189 118.901 116.254 118.725 116.383C118.553 116.509 118.419 116.675 118.323 116.88C118.227 117.081 118.178 117.293 118.178 117.515C118.178 117.75 118.231 117.967 118.336 118.169C118.444 118.37 118.591 118.531 118.776 118.653C118.96 118.77 119.167 118.829 119.398 118.829C119.54 118.829 119.689 118.793 119.844 118.722C120.003 118.646 120.142 118.548 120.259 118.426C120.38 118.305 120.452 118.169 120.473 118.018ZM126.676 119.206C126.42 119.206 126.183 119.141 125.965 119.011C125.747 118.877 125.578 118.709 125.456 118.508V119.143H125.073V114.554H125.5V116.553C125.647 116.331 125.823 116.153 126.028 116.019C126.234 115.881 126.472 115.811 126.745 115.811C126.975 115.811 127.181 115.86 127.361 115.956C127.545 116.052 127.702 116.182 127.832 116.346C127.962 116.505 128.061 116.687 128.128 116.893C128.195 117.094 128.228 117.301 128.228 117.515C128.228 117.821 128.159 118.102 128.021 118.357C127.887 118.613 127.702 118.818 127.468 118.973C127.233 119.128 126.969 119.206 126.676 119.206ZM126.575 118.829C126.814 118.829 127.023 118.766 127.204 118.64C127.388 118.514 127.533 118.353 127.637 118.156C127.742 117.955 127.795 117.741 127.795 117.515C127.795 117.284 127.744 117.069 127.644 116.867C127.547 116.666 127.411 116.503 127.235 116.377C127.059 116.251 126.856 116.189 126.625 116.189C126.37 116.189 126.143 116.27 125.947 116.434C125.754 116.597 125.605 116.788 125.5 117.006V118.024C125.521 118.175 125.59 118.311 125.708 118.433C125.825 118.554 125.963 118.65 126.123 118.722C126.282 118.793 126.433 118.829 126.575 118.829ZM129.03 120.149C129.089 120.153 129.146 120.155 129.2 120.155C129.255 120.159 129.294 120.157 129.319 120.149C129.37 120.144 129.416 120.115 129.458 120.061C129.504 120.01 129.558 119.914 129.621 119.771C129.688 119.633 129.778 119.424 129.891 119.143L128.465 115.868H128.917L130.118 118.703L131.224 115.868H131.651L129.954 120.092C129.908 120.214 129.831 120.318 129.722 120.406C129.613 120.494 129.468 120.54 129.288 120.545C129.25 120.549 129.211 120.549 129.169 120.545C129.127 120.545 129.081 120.54 129.03 120.532V120.149ZM99.5592 124.27H98.7484L98.4529 125.502H99.2952V125.842H98.3712L98.0569 127.143H97.6924L98.0129 125.842H96.8249L96.5107 127.143H96.1461L96.4667 125.842H95.7564V125.502H96.5484L96.8438 124.27H96.0267V123.95H96.9255L97.2335 122.68H97.5981L97.2838 123.95H98.4718L98.7798 122.68H99.1444L98.8301 123.95H99.5592V124.27ZM98.0947 125.502L98.3901 124.27H97.2021L96.9067 125.502H98.0947ZM100.356 127.143V122.68H101.87C102.344 122.68 102.738 122.781 103.052 122.982C103.371 123.179 103.609 123.447 103.769 123.786C103.928 124.122 104.008 124.494 104.008 124.905C104.008 125.358 103.92 125.752 103.744 126.087C103.568 126.422 103.32 126.682 103.002 126.866C102.683 127.051 102.306 127.143 101.87 127.143H100.356ZM103.568 124.905C103.568 124.549 103.501 124.233 103.366 123.956C103.237 123.679 103.044 123.464 102.788 123.309C102.537 123.149 102.231 123.07 101.87 123.07H100.796V126.753H101.87C102.239 126.753 102.549 126.671 102.801 126.508C103.052 126.345 103.243 126.125 103.373 125.848C103.503 125.571 103.568 125.257 103.568 124.905ZM106.175 127.206C105.861 127.206 105.58 127.128 105.333 126.973C105.086 126.818 104.891 126.611 104.748 126.351C104.606 126.091 104.535 125.806 104.535 125.496C104.535 125.19 104.604 124.909 104.742 124.654C104.884 124.398 105.079 124.195 105.327 124.044C105.574 123.889 105.855 123.811 106.169 123.811C106.492 123.811 106.774 123.889 107.017 124.044C107.26 124.199 107.449 124.404 107.583 124.66C107.721 124.911 107.791 125.188 107.791 125.49C107.791 125.557 107.788 125.613 107.784 125.659H104.981C105.002 125.894 105.069 126.104 105.182 126.288C105.295 126.468 105.44 126.613 105.616 126.722C105.792 126.826 105.984 126.879 106.194 126.879C106.408 126.879 106.609 126.824 106.797 126.715C106.986 126.606 107.12 126.464 107.2 126.288L107.571 126.389C107.504 126.548 107.399 126.69 107.256 126.816C107.118 126.938 106.957 127.034 106.772 127.105C106.588 127.172 106.389 127.206 106.175 127.206ZM104.968 125.351H107.388C107.372 125.117 107.307 124.909 107.193 124.729C107.08 124.545 106.936 124.402 106.76 124.302C106.584 124.197 106.389 124.145 106.175 124.145C105.961 124.145 105.767 124.197 105.591 124.302C105.415 124.402 105.27 124.545 105.157 124.729C105.048 124.909 104.985 125.117 104.968 125.351ZM109.338 127.143L108.012 123.868H108.458L109.577 126.715L110.702 123.868H111.124L109.797 127.143H109.338ZM111.508 124.88C111.508 124.612 111.554 124.346 111.647 124.082C111.743 123.818 111.881 123.579 112.061 123.365C112.242 123.147 112.464 122.975 112.728 122.85C112.992 122.72 113.291 122.655 113.627 122.655C114.02 122.655 114.36 122.747 114.645 122.931C114.93 123.112 115.139 123.344 115.273 123.629L114.928 123.843C114.831 123.646 114.71 123.491 114.563 123.378C114.416 123.26 114.259 123.177 114.092 123.126C113.928 123.076 113.765 123.051 113.601 123.051C113.333 123.051 113.096 123.105 112.891 123.214C112.686 123.319 112.512 123.462 112.369 123.642C112.231 123.822 112.126 124.021 112.055 124.239C111.984 124.457 111.948 124.679 111.948 124.905C111.948 125.152 111.99 125.389 112.074 125.615C112.158 125.838 112.275 126.037 112.426 126.213C112.577 126.389 112.753 126.529 112.954 126.634C113.159 126.734 113.381 126.785 113.62 126.785C113.788 126.785 113.96 126.755 114.136 126.697C114.312 126.638 114.475 126.548 114.626 126.426C114.777 126.305 114.9 126.148 114.997 125.955L115.361 126.143C115.265 126.366 115.12 126.554 114.928 126.709C114.739 126.864 114.525 126.982 114.287 127.061C114.052 127.141 113.821 127.181 113.595 127.181C113.289 127.181 113.008 127.116 112.753 126.986C112.497 126.852 112.275 126.676 112.087 126.458C111.902 126.236 111.76 125.988 111.659 125.716C111.559 125.439 111.508 125.161 111.508 124.88ZM115.962 127.533V127.143H118.357V127.533H115.962ZM123.277 127.143V123.51L121.661 126.332H121.385L119.763 123.51V127.143H119.323V122.68H119.776L121.517 125.735L123.271 122.68H123.717V127.143H123.277ZM126.094 127.206C125.78 127.206 125.499 127.128 125.252 126.973C125.008 126.818 124.818 126.613 124.68 126.357C124.541 126.097 124.472 125.817 124.472 125.515C124.472 125.209 124.541 124.928 124.68 124.673C124.822 124.413 125.015 124.205 125.258 124.05C125.505 123.891 125.784 123.811 126.094 123.811C126.408 123.811 126.687 123.891 126.93 124.05C127.177 124.205 127.37 124.413 127.508 124.673C127.651 124.928 127.722 125.209 127.722 125.515C127.722 125.817 127.653 126.097 127.514 126.357C127.376 126.613 127.183 126.818 126.936 126.973C126.693 127.128 126.412 127.206 126.094 127.206ZM124.906 125.521C124.906 125.764 124.958 125.986 125.063 126.187C125.172 126.384 125.316 126.542 125.497 126.659C125.677 126.772 125.876 126.829 126.094 126.829C126.312 126.829 126.511 126.77 126.691 126.653C126.871 126.535 127.016 126.376 127.125 126.175C127.234 125.974 127.288 125.752 127.288 125.509C127.288 125.266 127.234 125.043 127.125 124.842C127.016 124.641 126.871 124.482 126.691 124.365C126.511 124.247 126.312 124.189 126.094 124.189C125.88 124.189 125.683 124.249 125.503 124.371C125.323 124.488 125.178 124.647 125.069 124.849C124.96 125.05 124.906 125.274 124.906 125.521ZM130.071 124.245C129.786 124.254 129.535 124.333 129.317 124.484C129.103 124.635 128.952 124.842 128.864 125.106V127.143H128.437V123.868H128.839V124.654C128.952 124.423 129.101 124.237 129.285 124.094C129.474 123.952 129.673 123.872 129.882 123.855C129.924 123.851 129.96 123.849 129.989 123.849C130.019 123.849 130.046 123.851 130.071 123.855V124.245ZM131.938 127.206C131.623 127.206 131.342 127.128 131.095 126.973C130.852 126.818 130.662 126.613 130.523 126.357C130.385 126.097 130.316 125.817 130.316 125.515C130.316 125.209 130.385 124.928 130.523 124.673C130.666 124.413 130.858 124.205 131.102 124.05C131.349 123.891 131.627 123.811 131.938 123.811C132.252 123.811 132.53 123.891 132.774 124.05C133.021 124.205 133.214 124.413 133.352 124.673C133.494 124.928 133.566 125.209 133.566 125.515C133.566 125.817 133.496 126.097 133.358 126.357C133.22 126.613 133.027 126.818 132.78 126.973C132.537 127.128 132.256 127.206 131.938 127.206ZM130.75 125.521C130.75 125.764 130.802 125.986 130.907 126.187C131.016 126.384 131.16 126.542 131.34 126.659C131.521 126.772 131.72 126.829 131.938 126.829C132.155 126.829 132.354 126.77 132.535 126.653C132.715 126.535 132.859 126.376 132.968 126.175C133.077 125.974 133.132 125.752 133.132 125.509C133.132 125.266 133.077 125.043 132.968 124.842C132.859 124.641 132.715 124.482 132.535 124.365C132.354 124.247 132.155 124.189 131.938 124.189C131.724 124.189 131.527 124.249 131.347 124.371C131.166 124.488 131.022 124.647 130.913 124.849C130.804 125.05 130.75 125.274 130.75 125.521ZM135.701 127.206C135.382 127.206 135.1 127.128 134.852 126.973C134.605 126.814 134.41 126.606 134.268 126.351C134.125 126.091 134.054 125.806 134.054 125.496C134.054 125.186 134.123 124.905 134.262 124.654C134.4 124.398 134.593 124.195 134.84 124.044C135.087 123.889 135.372 123.811 135.695 123.811C136.001 123.811 136.269 123.883 136.499 124.025C136.734 124.163 136.91 124.352 137.027 124.591L136.612 124.723C136.52 124.555 136.39 124.425 136.223 124.333C136.059 124.237 135.877 124.189 135.676 124.189C135.454 124.189 135.253 124.245 135.072 124.358C134.896 124.471 134.754 124.629 134.645 124.83C134.54 125.027 134.488 125.249 134.488 125.496C134.488 125.743 134.542 125.967 134.651 126.169C134.76 126.37 134.905 126.531 135.085 126.653C135.265 126.77 135.464 126.829 135.682 126.829C135.825 126.829 135.963 126.803 136.097 126.753C136.231 126.703 136.346 126.636 136.443 126.552C136.539 126.464 136.604 126.37 136.638 126.269L137.059 126.395C137 126.55 136.904 126.69 136.77 126.816C136.635 126.938 136.476 127.034 136.292 127.105C136.107 127.172 135.91 127.206 135.701 127.206ZM139.12 127.206C138.802 127.206 138.519 127.128 138.271 126.973C138.024 126.814 137.829 126.606 137.687 126.351C137.544 126.091 137.473 125.806 137.473 125.496C137.473 125.186 137.542 124.905 137.681 124.654C137.819 124.398 138.012 124.195 138.259 124.044C138.506 123.889 138.791 123.811 139.114 123.811C139.42 123.811 139.688 123.883 139.918 124.025C140.153 124.163 140.329 124.352 140.446 124.591L140.031 124.723C139.939 124.555 139.809 124.425 139.642 124.333C139.478 124.237 139.296 124.189 139.095 124.189C138.873 124.189 138.672 124.245 138.491 124.358C138.315 124.471 138.173 124.629 138.064 124.83C137.959 125.027 137.907 125.249 137.907 125.496C137.907 125.743 137.961 125.967 138.07 126.169C138.179 126.37 138.324 126.531 138.504 126.653C138.684 126.77 138.883 126.829 139.101 126.829C139.244 126.829 139.382 126.803 139.516 126.753C139.65 126.703 139.765 126.636 139.862 126.552C139.958 126.464 140.023 126.37 140.057 126.269L140.478 126.395C140.419 126.55 140.323 126.69 140.189 126.816C140.055 126.938 139.895 127.034 139.711 127.105C139.527 127.172 139.33 127.206 139.12 127.206ZM142.514 127.206C142.2 127.206 141.919 127.128 141.672 126.973C141.429 126.818 141.238 126.613 141.1 126.357C140.961 126.097 140.892 125.817 140.892 125.515C140.892 125.209 140.961 124.928 141.1 124.673C141.242 124.413 141.435 124.205 141.678 124.05C141.925 123.891 142.204 123.811 142.514 123.811C142.828 123.811 143.107 123.891 143.35 124.05C143.597 124.205 143.79 124.413 143.928 124.673C144.071 124.928 144.142 125.209 144.142 125.515C144.142 125.817 144.073 126.097 143.935 126.357C143.796 126.613 143.604 126.818 143.356 126.973C143.113 127.128 142.832 127.206 142.514 127.206ZM141.326 125.521C141.326 125.764 141.378 125.986 141.483 126.187C141.592 126.384 141.737 126.542 141.917 126.659C142.097 126.772 142.296 126.829 142.514 126.829C142.732 126.829 142.931 126.77 143.111 126.653C143.291 126.535 143.436 126.376 143.545 126.175C143.654 125.974 143.708 125.752 143.708 125.509C143.708 125.266 143.654 125.043 143.545 124.842C143.436 124.641 143.291 124.482 143.111 124.365C142.931 124.247 142.732 124.189 142.514 124.189C142.3 124.189 142.103 124.249 141.923 124.371C141.743 124.488 141.598 124.647 141.489 124.849C141.38 125.05 141.326 125.274 141.326 125.521Z" fill="#B2A6EA"/>
<mask id="path-13-inside-1" fill="white">
<path fill-rule="evenodd" clip-rule="evenodd" d="M1.52588e-05 6.36498C3.63582 6.36498 6.58322 3.70526 6.58322 0.424332C6.58322 0.281657 6.57765 0.140158 6.56669 0H301.433C301.422 0.140158 301.417 0.281659 301.417 0.424334C301.417 3.70527 304.364 6.36499 308 6.36499V18.2463C304.364 18.2463 301.417 20.906 301.417 24.1869C301.417 27.4679 304.364 30.1276 308 30.1276V42.0089C304.364 42.0089 301.417 44.6686 301.417 47.9496C301.417 51.2305 304.364 53.8902 308 53.8902V65.7715C304.364 65.7715 301.417 68.4312 301.417 71.7122C301.417 74.9931 304.364 77.6528 308 77.6528V89.5341C304.364 89.5341 301.417 92.1939 301.417 95.4748C301.417 98.7557 304.364 101.415 308 101.415V113.297C304.364 113.297 301.417 115.956 301.417 119.237C301.417 122.518 304.364 125.178 308 125.178V137.059C304.364 137.059 301.417 139.719 301.417 143H6.58322C6.58322 139.719 3.63582 137.059 1.52588e-05 137.059V125.178C3.63582 125.178 6.58322 122.518 6.58322 119.237C6.58322 115.956 3.63582 113.297 1.52588e-05 113.297V101.415C3.63582 101.415 6.58322 98.7557 6.58322 95.4748C6.58322 92.1938 3.63582 89.5341 1.52588e-05 89.5341V77.6528C3.63582 77.6528 6.58322 74.9931 6.58322 71.7122C6.58322 68.4312 3.63582 65.7715 1.52588e-05 65.7715V53.8902C3.63582 53.8902 6.58322 51.2305 6.58322 47.9496C6.58322 44.6686 3.63582 42.0089 1.52588e-05 42.0089L0 30.1276C3.63582 30.1276 6.58322 27.4679 6.58322 24.1869C6.58322 20.906 3.63582 18.2463 1.52588e-05 18.2463H0V6.36498H1.52588e-05Z"/>
</mask>
<path fill-rule="evenodd" clip-rule="evenodd" d="M1.52588e-05 6.36498C3.63582 6.36498 6.58322 3.70526 6.58322 0.424332C6.58322 0.281657 6.57765 0.140158 6.56669 0H301.433C301.422 0.140158 301.417 0.281659 301.417 0.424334C301.417 3.70527 304.364 6.36499 308 6.36499V18.2463C304.364 18.2463 301.417 20.906 301.417 24.1869C301.417 27.4679 304.364 30.1276 308 30.1276V42.0089C304.364 42.0089 301.417 44.6686 301.417 47.9496C301.417 51.2305 304.364 53.8902 308 53.8902V65.7715C304.364 65.7715 301.417 68.4312 301.417 71.7122C301.417 74.9931 304.364 77.6528 308 77.6528V89.5341C304.364 89.5341 301.417 92.1939 301.417 95.4748C301.417 98.7557 304.364 101.415 308 101.415V113.297C304.364 113.297 301.417 115.956 301.417 119.237C301.417 122.518 304.364 125.178 308 125.178V137.059C304.364 137.059 301.417 139.719 301.417 143H6.58322C6.58322 139.719 3.63582 137.059 1.52588e-05 137.059V125.178C3.63582 125.178 6.58322 122.518 6.58322 119.237C6.58322 115.956 3.63582 113.297 1.52588e-05 113.297V101.415C3.63582 101.415 6.58322 98.7557 6.58322 95.4748C6.58322 92.1938 3.63582 89.5341 1.52588e-05 89.5341V77.6528C3.63582 77.6528 6.58322 74.9931 6.58322 71.7122C6.58322 68.4312 3.63582 65.7715 1.52588e-05 65.7715V53.8902C3.63582 53.8902 6.58322 51.2305 6.58322 47.9496C6.58322 44.6686 3.63582 42.0089 1.52588e-05 42.0089L0 30.1276C3.63582 30.1276 6.58322 27.4679 6.58322 24.1869C6.58322 20.906 3.63582 18.2463 1.52588e-05 18.2463H0V6.36498H1.52588e-05Z" fill="url(#paint0_linear)" fill-opacity="0.1"/>
<path d="M6.56669 0V-8H-2.08341L-1.40896 0.623764L6.56669 0ZM301.433 0L309.409 0.623438L310.083 -8H301.433V0ZM308 6.36499H316V-1.63501H308V6.36499ZM308 18.2463V26.2463H316V18.2463H308ZM308 30.1276H316V22.1276H308V30.1276ZM308 42.0089V50.0089H316V42.0089H308ZM308 53.8902H316V45.8902H308V53.8902ZM308 65.7715V73.7715H316V65.7715H308ZM308 77.6528H316V69.6528H308V77.6528ZM308 89.5341V97.5341H316V89.5341H308ZM308 101.415H316V93.4154H308V101.415ZM308 113.297V121.297H316V113.297H308ZM308 125.178H316V117.178H308V125.178ZM308 137.059V145.059H316V137.059H308ZM301.417 143V151H309.417V143H301.417ZM6.58322 143H-1.41678V151H6.58322V143ZM1.52588e-05 137.059H-7.99998V145.059H1.52588e-05V137.059ZM1.52588e-05 125.178V117.178H-7.99998V125.178H1.52588e-05ZM1.52588e-05 113.297H-7.99998V121.297H1.52588e-05V113.297ZM1.52588e-05 101.415V93.4154H-7.99998V101.415H1.52588e-05ZM1.52588e-05 89.5341H-7.99998V97.5341H1.52588e-05V89.5341ZM1.52588e-05 77.6528V69.6528H-7.99998V77.6528H1.52588e-05ZM1.52588e-05 65.7715H-7.99998V73.7715H1.52588e-05V65.7715ZM1.52588e-05 53.8902V45.8902H-7.99998V53.8902H1.52588e-05ZM1.52588e-05 42.0089L-7.99998 42.0089L-7.99997 50.0089H1.52588e-05V42.0089ZM0 30.1276V22.1276H-8.00001L-8 30.1276L0 30.1276ZM0 18.2463H-8V26.2463H0V18.2463ZM0 6.36498V-1.63502H-8V6.36498H0ZM-1.41678 0.424332C-1.41678 -0.427347 -1.01717 -1.03214 -0.704527 -1.31427C-0.405149 -1.58442 -0.133936 -1.63502 1.52588e-05 -1.63502V14.365C7.26135 14.365 14.5832 8.87666 14.5832 0.424332H-1.41678ZM-1.40896 0.623764C-1.4142 0.556702 -1.41678 0.490123 -1.41678 0.424332H14.5832C14.5832 0.0731917 14.5695 -0.276387 14.5423 -0.623764L-1.40896 0.623764ZM301.433 -8H6.56669V8H301.433V-8ZM309.417 0.424334C309.417 0.490537 309.414 0.557006 309.409 0.623438L293.458 -0.623438C293.431 -0.27669 293.417 0.0727806 293.417 0.424334H309.417ZM308 -1.63501C308.134 -1.63501 308.405 -1.58443 308.705 -1.31427C309.017 -1.03213 309.417 -0.427334 309.417 0.424334H293.417C293.417 8.87667 300.739 14.365 308 14.365V-1.63501ZM316 18.2463V6.36499H300V18.2463H316ZM309.417 24.1869C309.417 25.0386 309.017 25.6434 308.705 25.9255C308.405 26.1957 308.134 26.2463 308 26.2463V10.2463C300.739 10.2463 293.417 15.7346 293.417 24.1869H309.417ZM308 22.1276C308.134 22.1276 308.405 22.1782 308.705 22.4483C309.017 22.7305 309.417 23.3353 309.417 24.1869H293.417C293.417 32.6393 300.739 38.1276 308 38.1276V22.1276ZM316 42.0089V30.1276H300V42.0089H316ZM309.417 47.9496C309.417 48.8012 309.017 49.406 308.705 49.6882C308.405 49.9583 308.134 50.0089 308 50.0089V34.0089C300.739 34.0089 293.417 39.4972 293.417 47.9496H309.417ZM308 45.8902C308.134 45.8902 308.405 45.9408 308.705 46.211C309.017 46.4931 309.417 47.0979 309.417 47.9496H293.417C293.417 56.4019 300.739 61.8902 308 61.8902V45.8902ZM316 65.7715V53.8902H300V65.7715H316ZM309.417 71.7122C309.417 72.5638 309.017 73.1686 308.705 73.4508C308.405 73.7209 308.134 73.7715 308 73.7715V57.7715C300.739 57.7715 293.417 63.2598 293.417 71.7122H309.417ZM308 69.6528C308.134 69.6528 308.405 69.7034 308.705 69.9736C309.017 70.2557 309.417 70.8605 309.417 71.7122H293.417C293.417 80.1645 300.739 85.6528 308 85.6528V69.6528ZM316 89.5341V77.6528H300V89.5341H316ZM309.417 95.4748C309.417 96.3265 309.017 96.9313 308.705 97.2134C308.405 97.4836 308.134 97.5341 308 97.5341V81.5341C300.739 81.5341 293.417 87.0225 293.417 95.4748H309.417ZM308 93.4154C308.134 93.4154 308.405 93.466 308.705 93.7362C309.017 94.0183 309.417 94.6231 309.417 95.4748H293.417C293.417 103.927 300.739 109.415 308 109.415V93.4154ZM316 113.297V101.415H300V113.297H316ZM309.417 119.237C309.417 120.089 309.017 120.694 308.705 120.976C308.405 121.246 308.134 121.297 308 121.297V105.297C300.739 105.297 293.417 110.785 293.417 119.237H309.417ZM308 117.178C308.134 117.178 308.405 117.229 308.705 117.499C309.017 117.781 309.417 118.386 309.417 119.237H293.417C293.417 127.69 300.739 133.178 308 133.178V117.178ZM316 137.059V125.178H300V137.059H316ZM309.417 143C309.417 143.852 309.017 144.456 308.705 144.739C308.405 145.009 308.134 145.059 308 145.059V129.059C300.739 129.059 293.417 134.548 293.417 143H309.417ZM6.58322 151H301.417V135H6.58322V151ZM1.52588e-05 145.059C-0.133943 145.059 -0.405157 145.009 -0.704532 144.739C-1.01717 144.456 -1.41678 143.852 -1.41678 143H14.5832C14.5832 134.548 7.26136 129.059 1.52588e-05 129.059V145.059ZM-7.99998 125.178V137.059H8.00002V125.178H-7.99998ZM-1.41678 119.237C-1.41678 118.386 -1.01717 117.781 -0.704527 117.499C-0.405149 117.229 -0.133936 117.178 1.52588e-05 117.178V133.178C7.26134 133.178 14.5832 127.69 14.5832 119.237H-1.41678ZM1.52588e-05 121.297C-0.133936 121.297 -0.405149 121.246 -0.704527 120.976C-1.01717 120.694 -1.41678 120.089 -1.41678 119.237H14.5832C14.5832 110.785 7.26134 105.297 1.52588e-05 105.297V121.297ZM-7.99998 101.415V113.297H8.00002V101.415H-7.99998ZM-1.41678 95.4748C-1.41678 94.6231 -1.01717 94.0183 -0.704527 93.7362C-0.405149 93.466 -0.133936 93.4154 1.52588e-05 93.4154V109.415C7.26134 109.415 14.5832 103.927 14.5832 95.4748H-1.41678ZM1.52588e-05 97.5341C-0.133936 97.5341 -0.405149 97.4835 -0.704527 97.2134C-1.01717 96.9312 -1.41678 96.3265 -1.41678 95.4748H14.5832C14.5832 87.0224 7.26134 81.5341 1.52588e-05 81.5341V97.5341ZM-7.99998 77.6528V89.5341H8.00002V77.6528H-7.99998ZM-1.41678 71.7122C-1.41678 70.8605 -1.01717 70.2557 -0.704527 69.9736C-0.405149 69.7034 -0.133936 69.6528 1.52588e-05 69.6528V85.6528C7.26134 85.6528 14.5832 80.1645 14.5832 71.7122H-1.41678ZM1.52588e-05 73.7715C-0.133936 73.7715 -0.405149 73.7209 -0.704527 73.4508C-1.01717 73.1686 -1.41678 72.5638 -1.41678 71.7122H14.5832C14.5832 63.2598 7.26134 57.7715 1.52588e-05 57.7715V73.7715ZM-7.99998 53.8902V65.7715H8.00002V53.8902H-7.99998ZM-1.41678 47.9496C-1.41678 47.0979 -1.01717 46.4931 -0.704528 46.211C-0.40515 45.9408 -0.133936 45.8902 1.52588e-05 45.8902V61.8902C7.26135 61.8902 14.5832 56.4019 14.5832 47.9496H-1.41678ZM1.52588e-05 50.0089C-0.133936 50.0089 -0.405149 49.9583 -0.704527 49.6882C-1.01717 49.406 -1.41678 48.8012 -1.41678 47.9496H14.5832C14.5832 39.4972 7.26134 34.0089 1.52588e-05 34.0089V50.0089ZM-8 30.1276L-7.99998 42.0089L8.00002 42.0089L8 30.1276L-8 30.1276ZM-1.41678 24.1869C-1.41678 23.3353 -1.01717 22.7305 -0.704525 22.4483C-0.405145 22.1782 -0.133936 22.1276 0 22.1276V38.1276C7.26133 38.1276 14.5832 32.6393 14.5832 24.1869H-1.41678ZM1.52588e-05 26.2463C-0.133936 26.2463 -0.40515 26.1957 -0.704527 25.9255C-1.01717 25.6434 -1.41678 25.0386 -1.41678 24.1869H14.5832C14.5832 15.7346 7.26135 10.2463 1.52588e-05 10.2463V26.2463ZM0 26.2463H1.52588e-05V10.2463H0V26.2463ZM-8 6.36498V18.2463H8V6.36498H-8ZM1.52588e-05 -1.63502H0V14.365H1.52588e-05V-1.63502Z" fill="white" fill-opacity="0.1" mask="url(#path-13-inside-1)"/>
<defs>
<linearGradient id="paint0_linear" x1="301.182" y1="7.85014" x2="12.1809" y2="160.355" gradientUnits="userSpaceOnUse">
<stop stop-color="white"/>
<stop offset="1" stop-color="white" stop-opacity="0.39"/>
</linearGradient>
<clipPath id="clip0">
<rect width="12.5714" height="12.5714" fill="white" transform="translate(44.1905 28.2857)"/>
</clipPath>
<clipPath id="clip1">
<rect width="10.4762" height="10.4762" fill="white" transform="translate(77.7143 40.3333)"/>
</clipPath>
</defs>
</svg>
