<svg width="340" height="170" viewBox="0 0 340 170" fill="none" xmlns="http://www.w3.org/2000/svg">
<g filter="url(#filter0_d_93_4)">
<mask id="path-1-outside-1_93_4" maskUnits="userSpaceOnUse" x="47.4858" y="0" width="250" height="88" fill="black">
<rect fill="white" x="47.4858" width="250" height="88"/>
<path d="M272.34 67.264H280.589C286.92 67.264 290.756 63.7151 290.756 54.9867V21.6078C290.756 19.3058 291.907 18.1548 294.209 18.1548V3H272.34V67.264Z"/>
<path d="M252.582 67.264H264.859V21.6078C264.859 19.3058 266.01 18.1548 268.312 18.1548V3H246.443V44.34C246.443 48.944 247.69 51.246 249.608 53.5479L248.361 54.6989C246.443 52.2051 244.717 50.3828 241.551 50.3828H239.921C239.153 50.3828 238.482 50.9584 238.482 51.8215C238.482 52.5888 239.154 53.2602 239.921 53.2602H241.551V55.4663C241.551 63.5233 245.196 67.264 252.582 67.264Z"/>
<path d="M227.26 67.264H239.921V26.0199H221.505V50.3827H214.599C213.831 50.3827 213.16 50.9584 213.16 51.8215C213.16 52.5888 213.831 53.2602 214.599 53.2602H216.229V55.4663C216.229 63.5233 219.874 67.264 227.26 67.264ZM230.713 81.2678C234.549 81.2678 236.372 79.5413 236.372 75.8965C236.372 72.2517 234.549 70.5251 230.713 70.5251C226.876 70.5251 225.054 72.2517 225.054 75.8965C225.054 79.5413 226.876 81.2678 230.713 81.2678Z"/>
<path d="M165.01 67.264H214.599V42.7094C214.599 29.5689 209.132 25.4445 201.17 25.4445C187.359 25.4445 183.234 45.8747 176.712 45.8747H175.753V21.6078C175.753 19.3058 176.904 18.1548 179.206 18.1548V3H157.337V50.3828H152.157C151.39 50.3828 150.719 50.9584 150.719 51.8215C150.719 52.5888 151.39 53.2602 152.157 53.2602H153.788V55.2744C153.788 63.5233 157.529 67.264 165.01 67.264ZM175.753 50.3828V48.7521H176.808C183.81 48.7521 186.687 42.038 191.579 42.038C194.073 42.038 196.183 43.3809 196.183 47.9849V54.9867H194.552C194.552 51.9174 193.305 50.3828 190.332 50.3828H175.753Z"/>
<path d="M125.3 67.264C128.753 67.264 132.111 64.5782 132.111 59.6866V53.2601H133.741V54.1234L133.645 66.4966C133.645 78.5821 128.178 81.6515 119.162 81.6515V84.5289C140.167 84.5289 152.157 81.2677 152.157 61.8927V45.2032C152.157 33.3095 146.498 25.4444 134.508 25.4444C122.519 25.4444 116.86 33.3095 116.86 41.7502V52.2051C116.86 63.8111 119.546 67.264 125.3 67.264ZM123.478 44.5318C123.478 41.7502 125.588 39.4482 128.658 39.4482C131.823 39.4482 133.837 41.7502 133.837 44.9155L133.741 50.3827H131.151C126.643 50.3827 123.478 48.1766 123.478 44.5318Z"/>
<path d="M98.4441 67.264H110.721V21.6078C110.721 19.3058 111.872 18.1548 114.174 18.1548V3H92.3054V44.34C92.3054 48.944 93.5523 51.246 95.4706 53.5479L94.2237 54.6989C92.3053 52.2051 90.5788 50.3828 87.4136 50.3828H85.7831C85.0158 50.3828 84.3443 50.9584 84.3443 51.8215C84.3443 52.5888 85.0162 53.2602 85.7831 53.2602H87.4136V55.4663C87.4136 63.5233 91.0585 67.264 98.4441 67.264Z"/>
<path d="M58.9264 67.2639C62.3794 67.2639 65.7365 64.5782 65.7365 59.6865V53.2601H67.3671V57.2887C67.3671 63.9069 70.7242 67.2639 77.3425 67.2639H85.783V25.4444H68.1344C56.1449 25.4444 50.4858 33.3095 50.4858 41.7502V52.2051C50.4858 63.811 53.1714 67.2639 58.9264 67.2639ZM64.6814 22.1832C68.5181 22.1832 70.3405 20.4568 70.3405 16.812C70.3405 13.1672 68.5181 11.4407 64.6814 11.4407C60.8447 11.4407 59.0224 13.1672 59.0224 16.812C59.0224 20.4568 60.8447 22.1832 64.6814 22.1832ZM77.1506 22.1832C80.9873 22.1832 82.8096 20.4568 82.8096 16.812C82.8096 13.1672 80.9873 11.4407 77.1506 11.4407C73.314 11.4407 71.4915 13.1672 71.4915 16.812C71.4915 20.4568 73.314 22.1832 77.1506 22.1832ZM57.1041 44.9154C57.1041 42.2298 59.3101 39.8319 63.7223 39.8319H67.463L67.3668 50.3827H63.722C59.3098 50.3827 57.1041 48.3684 57.1041 44.9154Z"/>
</mask>
<path d="M272.34 67.264H280.589C286.92 67.264 290.756 63.7151 290.756 54.9867V21.6078C290.756 19.3058 291.907 18.1548 294.209 18.1548V3H272.34V67.264Z" fill="#FFE83C"/>
<path d="M252.582 67.264H264.859V21.6078C264.859 19.3058 266.01 18.1548 268.312 18.1548V3H246.443V44.34C246.443 48.944 247.69 51.246 249.608 53.5479L248.361 54.6989C246.443 52.2051 244.717 50.3828 241.551 50.3828H239.921C239.153 50.3828 238.482 50.9584 238.482 51.8215C238.482 52.5888 239.154 53.2602 239.921 53.2602H241.551V55.4663C241.551 63.5233 245.196 67.264 252.582 67.264Z" fill="#FFE83C"/>
<path d="M227.26 67.264H239.921V26.0199H221.505V50.3827H214.599C213.831 50.3827 213.16 50.9584 213.16 51.8215C213.16 52.5888 213.831 53.2602 214.599 53.2602H216.229V55.4663C216.229 63.5233 219.874 67.264 227.26 67.264ZM230.713 81.2678C234.549 81.2678 236.372 79.5413 236.372 75.8965C236.372 72.2517 234.549 70.5251 230.713 70.5251C226.876 70.5251 225.054 72.2517 225.054 75.8965C225.054 79.5413 226.876 81.2678 230.713 81.2678Z" fill="#FFE83C"/>
<path d="M165.01 67.264H214.599V42.7094C214.599 29.5689 209.132 25.4445 201.17 25.4445C187.359 25.4445 183.234 45.8747 176.712 45.8747H175.753V21.6078C175.753 19.3058 176.904 18.1548 179.206 18.1548V3H157.337V50.3828H152.157C151.39 50.3828 150.719 50.9584 150.719 51.8215C150.719 52.5888 151.39 53.2602 152.157 53.2602H153.788V55.2744C153.788 63.5233 157.529 67.264 165.01 67.264ZM175.753 50.3828V48.7521H176.808C183.81 48.7521 186.687 42.038 191.579 42.038C194.073 42.038 196.183 43.3809 196.183 47.9849V54.9867H194.552C194.552 51.9174 193.305 50.3828 190.332 50.3828H175.753Z" fill="#FFE83C"/>
<path d="M125.3 67.264C128.753 67.264 132.111 64.5782 132.111 59.6866V53.2601H133.741V54.1234L133.645 66.4966C133.645 78.5821 128.178 81.6515 119.162 81.6515V84.5289C140.167 84.5289 152.157 81.2677 152.157 61.8927V45.2032C152.157 33.3095 146.498 25.4444 134.508 25.4444C122.519 25.4444 116.86 33.3095 116.86 41.7502V52.2051C116.86 63.8111 119.546 67.264 125.3 67.264ZM123.478 44.5318C123.478 41.7502 125.588 39.4482 128.658 39.4482C131.823 39.4482 133.837 41.7502 133.837 44.9155L133.741 50.3827H131.151C126.643 50.3827 123.478 48.1766 123.478 44.5318Z" fill="#FFE83C"/>
<path d="M98.4441 67.264H110.721V21.6078C110.721 19.3058 111.872 18.1548 114.174 18.1548V3H92.3054V44.34C92.3054 48.944 93.5523 51.246 95.4706 53.5479L94.2237 54.6989C92.3053 52.2051 90.5788 50.3828 87.4136 50.3828H85.7831C85.0158 50.3828 84.3443 50.9584 84.3443 51.8215C84.3443 52.5888 85.0162 53.2602 85.7831 53.2602H87.4136V55.4663C87.4136 63.5233 91.0585 67.264 98.4441 67.264Z" fill="#FFE83C"/>
<path d="M58.9264 67.2639C62.3794 67.2639 65.7365 64.5782 65.7365 59.6865V53.2601H67.3671V57.2887C67.3671 63.9069 70.7242 67.2639 77.3425 67.2639H85.783V25.4444H68.1344C56.1449 25.4444 50.4858 33.3095 50.4858 41.7502V52.2051C50.4858 63.811 53.1714 67.2639 58.9264 67.2639ZM64.6814 22.1832C68.5181 22.1832 70.3405 20.4568 70.3405 16.812C70.3405 13.1672 68.5181 11.4407 64.6814 11.4407C60.8447 11.4407 59.0224 13.1672 59.0224 16.812C59.0224 20.4568 60.8447 22.1832 64.6814 22.1832ZM77.1506 22.1832C80.9873 22.1832 82.8096 20.4568 82.8096 16.812C82.8096 13.1672 80.9873 11.4407 77.1506 11.4407C73.314 11.4407 71.4915 13.1672 71.4915 16.812C71.4915 20.4568 73.314 22.1832 77.1506 22.1832ZM57.1041 44.9154C57.1041 42.2298 59.3101 39.8319 63.7223 39.8319H67.463L67.3668 50.3827H63.722C59.3098 50.3827 57.1041 48.3684 57.1041 44.9154Z" fill="#FFE83C"/>
<path d="M272.34 67.264H280.589C286.92 67.264 290.756 63.7151 290.756 54.9867V21.6078C290.756 19.3058 291.907 18.1548 294.209 18.1548V3H272.34V67.264Z" stroke="black" stroke-width="6" mask="url(#path-1-outside-1_93_4)"/>
<path d="M252.582 67.264H264.859V21.6078C264.859 19.3058 266.01 18.1548 268.312 18.1548V3H246.443V44.34C246.443 48.944 247.69 51.246 249.608 53.5479L248.361 54.6989C246.443 52.2051 244.717 50.3828 241.551 50.3828H239.921C239.153 50.3828 238.482 50.9584 238.482 51.8215C238.482 52.5888 239.154 53.2602 239.921 53.2602H241.551V55.4663C241.551 63.5233 245.196 67.264 252.582 67.264Z" stroke="black" stroke-width="6" mask="url(#path-1-outside-1_93_4)"/>
<path d="M227.26 67.264H239.921V26.0199H221.505V50.3827H214.599C213.831 50.3827 213.16 50.9584 213.16 51.8215C213.16 52.5888 213.831 53.2602 214.599 53.2602H216.229V55.4663C216.229 63.5233 219.874 67.264 227.26 67.264ZM230.713 81.2678C234.549 81.2678 236.372 79.5413 236.372 75.8965C236.372 72.2517 234.549 70.5251 230.713 70.5251C226.876 70.5251 225.054 72.2517 225.054 75.8965C225.054 79.5413 226.876 81.2678 230.713 81.2678Z" stroke="black" stroke-width="6" mask="url(#path-1-outside-1_93_4)"/>
<path d="M165.01 67.264H214.599V42.7094C214.599 29.5689 209.132 25.4445 201.17 25.4445C187.359 25.4445 183.234 45.8747 176.712 45.8747H175.753V21.6078C175.753 19.3058 176.904 18.1548 179.206 18.1548V3H157.337V50.3828H152.157C151.39 50.3828 150.719 50.9584 150.719 51.8215C150.719 52.5888 151.39 53.2602 152.157 53.2602H153.788V55.2744C153.788 63.5233 157.529 67.264 165.01 67.264ZM175.753 50.3828V48.7521H176.808C183.81 48.7521 186.687 42.038 191.579 42.038C194.073 42.038 196.183 43.3809 196.183 47.9849V54.9867H194.552C194.552 51.9174 193.305 50.3828 190.332 50.3828H175.753Z" stroke="black" stroke-width="6" mask="url(#path-1-outside-1_93_4)"/>
<path d="M125.3 67.264C128.753 67.264 132.111 64.5782 132.111 59.6866V53.2601H133.741V54.1234L133.645 66.4966C133.645 78.5821 128.178 81.6515 119.162 81.6515V84.5289C140.167 84.5289 152.157 81.2677 152.157 61.8927V45.2032C152.157 33.3095 146.498 25.4444 134.508 25.4444C122.519 25.4444 116.86 33.3095 116.86 41.7502V52.2051C116.86 63.8111 119.546 67.264 125.3 67.264ZM123.478 44.5318C123.478 41.7502 125.588 39.4482 128.658 39.4482C131.823 39.4482 133.837 41.7502 133.837 44.9155L133.741 50.3827H131.151C126.643 50.3827 123.478 48.1766 123.478 44.5318Z" stroke="black" stroke-width="6" mask="url(#path-1-outside-1_93_4)"/>
<path d="M98.4441 67.264H110.721V21.6078C110.721 19.3058 111.872 18.1548 114.174 18.1548V3H92.3054V44.34C92.3054 48.944 93.5523 51.246 95.4706 53.5479L94.2237 54.6989C92.3053 52.2051 90.5788 50.3828 87.4136 50.3828H85.7831C85.0158 50.3828 84.3443 50.9584 84.3443 51.8215C84.3443 52.5888 85.0162 53.2602 85.7831 53.2602H87.4136V55.4663C87.4136 63.5233 91.0585 67.264 98.4441 67.264Z" stroke="black" stroke-width="6" mask="url(#path-1-outside-1_93_4)"/>
<path d="M58.9264 67.2639C62.3794 67.2639 65.7365 64.5782 65.7365 59.6865V53.2601H67.3671V57.2887C67.3671 63.9069 70.7242 67.2639 77.3425 67.2639H85.783V25.4444H68.1344C56.1449 25.4444 50.4858 33.3095 50.4858 41.7502V52.2051C50.4858 63.811 53.1714 67.2639 58.9264 67.2639ZM64.6814 22.1832C68.5181 22.1832 70.3405 20.4568 70.3405 16.812C70.3405 13.1672 68.5181 11.4407 64.6814 11.4407C60.8447 11.4407 59.0224 13.1672 59.0224 16.812C59.0224 20.4568 60.8447 22.1832 64.6814 22.1832ZM77.1506 22.1832C80.9873 22.1832 82.8096 20.4568 82.8096 16.812C82.8096 13.1672 80.9873 11.4407 77.1506 11.4407C73.314 11.4407 71.4915 13.1672 71.4915 16.812C71.4915 20.4568 73.314 22.1832 77.1506 22.1832ZM57.1041 44.9154C57.1041 42.2298 59.3101 39.8319 63.7223 39.8319H67.463L67.3668 50.3827H63.722C59.3098 50.3827 57.1041 48.3684 57.1041 44.9154Z" stroke="black" stroke-width="6" mask="url(#path-1-outside-1_93_4)"/>
<mask id="path-2-outside-2_93_4" maskUnits="userSpaceOnUse" x="7" y="70.3466" width="333" height="93" fill="black">
<rect fill="white" x="7" y="70.3466" width="333" height="93"/>
<path d="M10 137.611H37.3362V120.537C33.9791 120.537 33.8832 119.003 34.1709 117.468L35.9934 111.809H46.0646L47.887 117.468C48.1747 119.003 48.0788 120.537 44.7217 120.537V137.611H72.0579V120.537H70.7151C68.3172 120.537 67.1662 119.003 66.4947 116.989L52.3951 77.1832H18.5366V94.2564H19.6876C22.8528 94.2564 22.7569 96.6543 22.5651 97.4216L15.5632 116.989C14.9877 119.003 13.8367 120.537 11.4387 120.537H10V137.611ZM37.0484 108.548L38.8709 102.985C40.1178 99.4358 40.2137 97.2297 40.2137 94.1604H41.8442C41.8442 97.2297 42.0361 99.4358 43.1871 102.985L45.0095 108.548H37.0484Z"/>
<path d="M97.0921 159.767C112.439 159.767 122.03 152.478 122.03 134.637V111.425C122.03 109.891 123.085 109.028 125.387 109.028V94.4482H104.382V96.942C106.971 101.45 107.835 104.52 107.835 114.687H106.396V111.905C106.396 99.0522 99.6819 93.6809 91.529 93.6809C80.4986 93.6809 75.0313 102.026 75.0313 116.029C75.0313 130.033 80.7863 138.282 91.7208 138.282C97.7635 138.282 102.368 135.884 105.149 132.047L106.3 132.623C104.765 140.2 101.888 144.037 92.2003 144.037C85.1025 144.037 80.4026 142.215 80.4026 139.433H77.5251V142.982C77.5251 154.204 83.8556 159.767 97.0921 159.767ZM93.1595 116.029C93.1595 111.521 94.7901 108.068 98.8186 108.068C102.559 108.068 104.382 110.85 104.382 114.687V120.633C103.135 122.935 101.312 123.991 98.9145 123.991C94.886 123.991 93.1595 120.537 93.1595 116.029Z"/>
<path d="M153.779 138.378C167.974 138.378 175.839 132.911 175.839 121.88V119.77H172.578C172.578 123.031 167.399 124.854 159.054 124.854C150.038 124.854 146.777 122.264 146.297 117.372H175.648V115.07C175.648 100.875 165.672 93.6809 151.477 93.6809C137.473 93.6809 128.073 100.971 128.073 116.029C128.073 131.664 138.72 138.378 153.779 138.378ZM146.201 114.687C146.585 110.562 148.215 107.781 152.052 107.781C156.272 107.781 157.807 110.946 157.807 114.687H146.201Z"/>
<path d="M178.621 137.611H202.408V123.031C200.49 123.031 199.627 122.168 199.627 120.633V114.207C199.627 110.37 202.216 108.356 205.478 108.356C208.835 108.356 211.329 110.37 211.329 114.207V120.633C211.329 122.168 210.465 123.031 208.547 123.031V137.611H232.334V123.031C230.032 123.031 228.977 122.168 228.977 120.633V113.536C228.881 99.1482 224.757 93.6809 213.631 93.6809C203.463 93.6809 197.517 99.8196 197.517 114.207V115.55H196.078C196.078 104.52 197.037 101.45 199.627 96.942V94.4482H178.621V109.028C180.923 109.028 181.978 109.891 181.978 111.425V120.633C181.978 122.168 180.923 123.031 178.621 123.031V137.611Z"/>
<path d="M251.517 138.378C260.054 138.378 266.384 132.527 266.384 120.154V117.372H267.823C267.823 127.923 266.96 130.896 264.37 135.117V137.611H285.376V123.031C283.074 123.031 282.019 122.168 282.019 120.633V73.3466H261.013V87.9259C263.315 87.9259 264.37 88.7892 264.37 90.3238V98.9563C261.493 95.6951 257.176 93.6809 251.709 93.6809C240.775 93.6809 235.02 102.026 235.02 116.029C235.02 130.033 240.487 138.378 251.517 138.378ZM253.148 116.029C253.148 111.521 254.874 108.068 258.903 108.068C261.301 108.068 263.123 109.123 264.37 111.425V117.372C264.37 121.209 262.548 123.99 258.807 123.99C254.779 123.99 253.148 120.537 253.148 116.029Z"/>
<path d="M303.12 138.378C314.055 138.378 318.275 135.021 318.371 124.854V121.113H319.81C319.81 127.827 319.618 131.184 318.371 135.117V137.611H336.595V123.031C334.293 123.031 333.238 122.168 333.238 120.633V107.685C333.238 97.6135 327.579 93.6809 319.618 93.6809C310.698 93.6809 305.326 96.7503 305.326 106.438V109.507H303.888V94.3524L288.733 94.4485V112.289H307.437C307.437 108.452 309.451 107.397 312.52 107.397C315.206 107.397 317.22 108.356 317.22 110.754C317.22 113.44 315.206 114.687 311.273 114.687H305.518C292.953 114.687 288.061 118.044 288.061 126.197C288.061 134.542 294.2 138.378 303.12 138.378ZM304.559 120.921C304.559 118.523 306.286 117.372 310.602 117.372H316.261V119.386C316.261 123.127 314.055 124.47 310.122 124.47C306.861 124.47 304.559 123.415 304.559 120.921Z"/>
</mask>
<path d="M10 137.611H37.3362V120.537C33.9791 120.537 33.8832 119.003 34.1709 117.468L35.9934 111.809H46.0646L47.887 117.468C48.1747 119.003 48.0788 120.537 44.7217 120.537V137.611H72.0579V120.537H70.7151C68.3172 120.537 67.1662 119.003 66.4947 116.989L52.3951 77.1832H18.5366V94.2564H19.6876C22.8528 94.2564 22.7569 96.6543 22.5651 97.4216L15.5632 116.989C14.9877 119.003 13.8367 120.537 11.4387 120.537H10V137.611ZM37.0484 108.548L38.8709 102.985C40.1178 99.4358 40.2137 97.2297 40.2137 94.1604H41.8442C41.8442 97.2297 42.0361 99.4358 43.1871 102.985L45.0095 108.548H37.0484Z" fill="#D02B2B"/>
<path d="M97.0921 159.767C112.439 159.767 122.03 152.478 122.03 134.637V111.425C122.03 109.891 123.085 109.028 125.387 109.028V94.4482H104.382V96.942C106.971 101.45 107.835 104.52 107.835 114.687H106.396V111.905C106.396 99.0522 99.6819 93.6809 91.529 93.6809C80.4986 93.6809 75.0313 102.026 75.0313 116.029C75.0313 130.033 80.7863 138.282 91.7208 138.282C97.7635 138.282 102.368 135.884 105.149 132.047L106.3 132.623C104.765 140.2 101.888 144.037 92.2003 144.037C85.1025 144.037 80.4026 142.215 80.4026 139.433H77.5251V142.982C77.5251 154.204 83.8556 159.767 97.0921 159.767ZM93.1595 116.029C93.1595 111.521 94.7901 108.068 98.8186 108.068C102.559 108.068 104.382 110.85 104.382 114.687V120.633C103.135 122.935 101.312 123.991 98.9145 123.991C94.886 123.991 93.1595 120.537 93.1595 116.029Z" fill="#D02B2B"/>
<path d="M153.779 138.378C167.974 138.378 175.839 132.911 175.839 121.88V119.77H172.578C172.578 123.031 167.399 124.854 159.054 124.854C150.038 124.854 146.777 122.264 146.297 117.372H175.648V115.07C175.648 100.875 165.672 93.6809 151.477 93.6809C137.473 93.6809 128.073 100.971 128.073 116.029C128.073 131.664 138.72 138.378 153.779 138.378ZM146.201 114.687C146.585 110.562 148.215 107.781 152.052 107.781C156.272 107.781 157.807 110.946 157.807 114.687H146.201Z" fill="#D02B2B"/>
<path d="M178.621 137.611H202.408V123.031C200.49 123.031 199.627 122.168 199.627 120.633V114.207C199.627 110.37 202.216 108.356 205.478 108.356C208.835 108.356 211.329 110.37 211.329 114.207V120.633C211.329 122.168 210.465 123.031 208.547 123.031V137.611H232.334V123.031C230.032 123.031 228.977 122.168 228.977 120.633V113.536C228.881 99.1482 224.757 93.6809 213.631 93.6809C203.463 93.6809 197.517 99.8196 197.517 114.207V115.55H196.078C196.078 104.52 197.037 101.45 199.627 96.942V94.4482H178.621V109.028C180.923 109.028 181.978 109.891 181.978 111.425V120.633C181.978 122.168 180.923 123.031 178.621 123.031V137.611Z" fill="#D02B2B"/>
<path d="M251.517 138.378C260.054 138.378 266.384 132.527 266.384 120.154V117.372H267.823C267.823 127.923 266.96 130.896 264.37 135.117V137.611H285.376V123.031C283.074 123.031 282.019 122.168 282.019 120.633V73.3466H261.013V87.9259C263.315 87.9259 264.37 88.7892 264.37 90.3238V98.9563C261.493 95.6951 257.176 93.6809 251.709 93.6809C240.775 93.6809 235.02 102.026 235.02 116.029C235.02 130.033 240.487 138.378 251.517 138.378ZM253.148 116.029C253.148 111.521 254.874 108.068 258.903 108.068C261.301 108.068 263.123 109.123 264.37 111.425V117.372C264.37 121.209 262.548 123.99 258.807 123.99C254.779 123.99 253.148 120.537 253.148 116.029Z" fill="#D02B2B"/>
<path d="M303.12 138.378C314.055 138.378 318.275 135.021 318.371 124.854V121.113H319.81C319.81 127.827 319.618 131.184 318.371 135.117V137.611H336.595V123.031C334.293 123.031 333.238 122.168 333.238 120.633V107.685C333.238 97.6135 327.579 93.6809 319.618 93.6809C310.698 93.6809 305.326 96.7503 305.326 106.438V109.507H303.888V94.3524L288.733 94.4485V112.289H307.437C307.437 108.452 309.451 107.397 312.52 107.397C315.206 107.397 317.22 108.356 317.22 110.754C317.22 113.44 315.206 114.687 311.273 114.687H305.518C292.953 114.687 288.061 118.044 288.061 126.197C288.061 134.542 294.2 138.378 303.12 138.378ZM304.559 120.921C304.559 118.523 306.286 117.372 310.602 117.372H316.261V119.386C316.261 123.127 314.055 124.47 310.122 124.47C306.861 124.47 304.559 123.415 304.559 120.921Z" fill="#D02B2B"/>
<path d="M10 137.611H37.3362V120.537C33.9791 120.537 33.8832 119.003 34.1709 117.468L35.9934 111.809H46.0646L47.887 117.468C48.1747 119.003 48.0788 120.537 44.7217 120.537V137.611H72.0579V120.537H70.7151C68.3172 120.537 67.1662 119.003 66.4947 116.989L52.3951 77.1832H18.5366V94.2564H19.6876C22.8528 94.2564 22.7569 96.6543 22.5651 97.4216L15.5632 116.989C14.9877 119.003 13.8367 120.537 11.4387 120.537H10V137.611ZM37.0484 108.548L38.8709 102.985C40.1178 99.4358 40.2137 97.2297 40.2137 94.1604H41.8442C41.8442 97.2297 42.0361 99.4358 43.1871 102.985L45.0095 108.548H37.0484Z" stroke="black" stroke-width="6" mask="url(#path-2-outside-2_93_4)"/>
<path d="M97.0921 159.767C112.439 159.767 122.03 152.478 122.03 134.637V111.425C122.03 109.891 123.085 109.028 125.387 109.028V94.4482H104.382V96.942C106.971 101.45 107.835 104.52 107.835 114.687H106.396V111.905C106.396 99.0522 99.6819 93.6809 91.529 93.6809C80.4986 93.6809 75.0313 102.026 75.0313 116.029C75.0313 130.033 80.7863 138.282 91.7208 138.282C97.7635 138.282 102.368 135.884 105.149 132.047L106.3 132.623C104.765 140.2 101.888 144.037 92.2003 144.037C85.1025 144.037 80.4026 142.215 80.4026 139.433H77.5251V142.982C77.5251 154.204 83.8556 159.767 97.0921 159.767ZM93.1595 116.029C93.1595 111.521 94.7901 108.068 98.8186 108.068C102.559 108.068 104.382 110.85 104.382 114.687V120.633C103.135 122.935 101.312 123.991 98.9145 123.991C94.886 123.991 93.1595 120.537 93.1595 116.029Z" stroke="black" stroke-width="6" mask="url(#path-2-outside-2_93_4)"/>
<path d="M153.779 138.378C167.974 138.378 175.839 132.911 175.839 121.88V119.77H172.578C172.578 123.031 167.399 124.854 159.054 124.854C150.038 124.854 146.777 122.264 146.297 117.372H175.648V115.07C175.648 100.875 165.672 93.6809 151.477 93.6809C137.473 93.6809 128.073 100.971 128.073 116.029C128.073 131.664 138.72 138.378 153.779 138.378ZM146.201 114.687C146.585 110.562 148.215 107.781 152.052 107.781C156.272 107.781 157.807 110.946 157.807 114.687H146.201Z" stroke="black" stroke-width="6" mask="url(#path-2-outside-2_93_4)"/>
<path d="M178.621 137.611H202.408V123.031C200.49 123.031 199.627 122.168 199.627 120.633V114.207C199.627 110.37 202.216 108.356 205.478 108.356C208.835 108.356 211.329 110.37 211.329 114.207V120.633C211.329 122.168 210.465 123.031 208.547 123.031V137.611H232.334V123.031C230.032 123.031 228.977 122.168 228.977 120.633V113.536C228.881 99.1482 224.757 93.6809 213.631 93.6809C203.463 93.6809 197.517 99.8196 197.517 114.207V115.55H196.078C196.078 104.52 197.037 101.45 199.627 96.942V94.4482H178.621V109.028C180.923 109.028 181.978 109.891 181.978 111.425V120.633C181.978 122.168 180.923 123.031 178.621 123.031V137.611Z" stroke="black" stroke-width="6" mask="url(#path-2-outside-2_93_4)"/>
<path d="M251.517 138.378C260.054 138.378 266.384 132.527 266.384 120.154V117.372H267.823C267.823 127.923 266.96 130.896 264.37 135.117V137.611H285.376V123.031C283.074 123.031 282.019 122.168 282.019 120.633V73.3466H261.013V87.9259C263.315 87.9259 264.37 88.7892 264.37 90.3238V98.9563C261.493 95.6951 257.176 93.6809 251.709 93.6809C240.775 93.6809 235.02 102.026 235.02 116.029C235.02 130.033 240.487 138.378 251.517 138.378ZM253.148 116.029C253.148 111.521 254.874 108.068 258.903 108.068C261.301 108.068 263.123 109.123 264.37 111.425V117.372C264.37 121.209 262.548 123.99 258.807 123.99C254.779 123.99 253.148 120.537 253.148 116.029Z" stroke="black" stroke-width="6" mask="url(#path-2-outside-2_93_4)"/>
<path d="M303.12 138.378C314.055 138.378 318.275 135.021 318.371 124.854V121.113H319.81C319.81 127.827 319.618 131.184 318.371 135.117V137.611H336.595V123.031C334.293 123.031 333.238 122.168 333.238 120.633V107.685C333.238 97.6135 327.579 93.6809 319.618 93.6809C310.698 93.6809 305.326 96.7503 305.326 106.438V109.507H303.888V94.3524L288.733 94.4485V112.289H307.437C307.437 108.452 309.451 107.397 312.52 107.397C315.206 107.397 317.22 108.356 317.22 110.754C317.22 113.44 315.206 114.687 311.273 114.687H305.518C292.953 114.687 288.061 118.044 288.061 126.197C288.061 134.542 294.2 138.378 303.12 138.378ZM304.559 120.921C304.559 118.523 306.286 117.372 310.602 117.372H316.261V119.386C316.261 123.127 314.055 124.47 310.122 124.47C306.861 124.47 304.559 123.415 304.559 120.921Z" stroke="black" stroke-width="6" mask="url(#path-2-outside-2_93_4)"/>
</g>
<defs>
<filter id="filter0_d_93_4" x="0" y="0" width="339.595" height="169.767" filterUnits="userSpaceOnUse" color-interpolation-filters="sRGB">
<feFlood flood-opacity="0" result="BackgroundImageFix"/>
<feColorMatrix in="SourceAlpha" type="matrix" values="0 0 0 0 0 0 0 0 0 0 0 0 0 0 0 0 0 0 127 0" result="hardAlpha"/>
<feOffset dx="-7" dy="7"/>
<feComposite in2="hardAlpha" operator="out"/>
<feColorMatrix type="matrix" values="0 0 0 0 0 0 0 0 0 0 0 0 0 0 0 0 0 0 1 0"/>
<feBlend mode="normal" in2="BackgroundImageFix" result="effect1_dropShadow_93_4"/>
<feBlend mode="normal" in="SourceGraphic" in2="effect1_dropShadow_93_4" result="shape"/>
</filter>
</defs>
</svg>
