<svg width="502" height="176" viewBox="0 0 502 176" fill="none" xmlns="http://www.w3.org/2000/svg">
<g filter="url(#filter0_d_93_2)">
<mask id="path-1-outside-1_93_2" maskUnits="userSpaceOnUse" x="131" y="0" width="247" height="85" fill="black">
<rect fill="white" x="131" width="247" height="85"/>
<path d="M353.719 65.2705H361.746C367.906 65.2705 371.64 61.8317 371.64 53.374V21.0306C371.64 18.7999 372.76 17.6847 375 17.6847V3H353.719V65.2705Z"/>
<path d="M334.491 65.2705H346.438V21.0306C346.438 18.7999 347.558 17.6847 349.799 17.6847V3H328.517V43.0576C328.517 47.5188 329.731 49.7494 331.598 51.9799L330.384 53.0952C328.517 50.6787 326.837 48.9129 323.757 48.9129H322.17C321.424 48.9129 320.77 49.4707 320.77 50.307C320.77 51.0506 321.423 51.7011 322.17 51.7011H323.757V53.8388C323.757 61.6459 327.304 65.2705 334.491 65.2705Z"/>
<path d="M293.236 65.2706H322.171V44.173H319.557C308.823 44.173 311.997 24.3764 297.529 24.3764C288.102 24.3764 285.395 32.1836 285.395 42.2212V45.567H288.195C288.195 42.5 290.342 39.9906 294.449 39.9906C302.569 39.9906 304.25 47.333 317.41 47.333H319.184V48.913H280.915C280.168 48.913 279.515 49.4707 279.515 50.3071C279.515 51.0506 280.168 51.7011 280.915 51.7011H282.502V53.8388C282.502 61.6459 286.048 65.2706 293.236 65.2706ZM302.943 78.4682C306.676 78.4682 308.45 76.7953 308.45 73.2635C308.45 69.7318 306.676 68.0588 302.943 68.0588C299.209 68.0588 297.436 69.7318 297.436 73.2635C297.436 76.7953 299.209 78.4682 302.943 78.4682Z"/>
<path d="M254.22 65.2706H280.915V47.333C280.915 33.8565 275.501 24.7483 263.647 24.7483C251.793 24.7483 246.38 33.8565 246.38 47.333V48.9129H241.899C241.153 48.9129 240.499 49.4707 240.499 50.307C240.499 51.0506 241.153 51.7011 241.899 51.7011H243.486V53.8388C243.486 61.7388 247.033 65.2706 254.22 65.2706ZM249.18 48.9129V47.333C249.18 42.5 251.887 39.6188 255.527 39.6188C259.26 39.6188 261.874 42.5 261.874 47.333V53.56H260.287C260.287 50.493 258.98 48.9129 255.807 48.9129H249.18Z"/>
<path d="M223.512 82C236.299 82 241.899 73.8211 241.899 58.5788V43.8941C241.899 32.3694 236.392 24.7483 224.725 24.7483C213.058 24.7483 207.551 32.3694 207.551 39.8046C207.551 46.0317 210.911 49.2847 215.018 50.7717L214.458 52.1658C210.631 51.5149 209.417 48.9129 204.75 48.9129H202.137C201.39 48.9129 200.737 49.4707 200.737 50.307C200.737 51.0506 201.391 51.7011 202.137 51.7011H203.724V53.653C203.724 61.1812 206.897 64.8059 213.244 65.2706C211.658 66.6647 210.631 68.7094 210.631 71.4047C210.631 76.4235 214.271 82 223.512 82ZM213.991 43.2435C213.991 40.5482 216.045 38.3176 219.031 38.3176C222.112 38.3176 224.072 40.5482 224.072 43.6153V48.9129H221.458C217.071 48.9129 213.991 46.7753 213.991 43.2435ZM214.551 70.2894C214.551 66.9436 217.352 65.2706 221.085 65.2706H224.072V69.36C224.072 72.7058 222.298 74.7505 219.312 74.7505C216.512 74.7505 214.551 72.7988 214.551 70.2894Z"/>
<path d="M176.002 65.2706C179.363 65.2706 182.629 62.6682 182.629 57.9283V51.7011H184.216V52.5376L184.123 64.527C184.123 76.2376 178.802 79.2117 170.028 79.2117V82C190.47 82 202.137 78.8399 202.137 60.0659V43.8941C202.137 32.3694 196.63 24.7483 184.963 24.7483C173.295 24.7483 167.788 32.3693 167.788 40.5482V50.6788C167.788 61.9247 170.402 65.2706 176.002 65.2706ZM174.229 43.2435C174.229 40.5482 176.282 38.3176 179.269 38.3176C182.349 38.3176 184.31 40.5482 184.31 43.6153L184.216 48.9129H181.696C177.309 48.9129 174.229 46.7753 174.229 43.2435Z"/>
<path d="M134 78.84V82C150.708 82 161.068 78.84 161.068 60.8094V43.3365C161.068 41.1059 162.188 39.9906 164.428 39.9906V25.3059H143.147V65.2706C143.147 75.8659 139.04 78.84 134 78.84Z"/>
</mask>
<path d="M353.719 65.2705H361.746C367.906 65.2705 371.64 61.8317 371.64 53.374V21.0306C371.64 18.7999 372.76 17.6847 375 17.6847V3H353.719V65.2705Z" fill="#FFE83C"/>
<path d="M334.491 65.2705H346.438V21.0306C346.438 18.7999 347.558 17.6847 349.799 17.6847V3H328.517V43.0576C328.517 47.5188 329.731 49.7494 331.598 51.9799L330.384 53.0952C328.517 50.6787 326.837 48.9129 323.757 48.9129H322.17C321.424 48.9129 320.77 49.4707 320.77 50.307C320.77 51.0506 321.423 51.7011 322.17 51.7011H323.757V53.8388C323.757 61.6459 327.304 65.2705 334.491 65.2705Z" fill="#FFE83C"/>
<path d="M293.236 65.2706H322.171V44.173H319.557C308.823 44.173 311.997 24.3764 297.529 24.3764C288.102 24.3764 285.395 32.1836 285.395 42.2212V45.567H288.195C288.195 42.5 290.342 39.9906 294.449 39.9906C302.569 39.9906 304.25 47.333 317.41 47.333H319.184V48.913H280.915C280.168 48.913 279.515 49.4707 279.515 50.3071C279.515 51.0506 280.168 51.7011 280.915 51.7011H282.502V53.8388C282.502 61.6459 286.048 65.2706 293.236 65.2706ZM302.943 78.4682C306.676 78.4682 308.45 76.7953 308.45 73.2635C308.45 69.7318 306.676 68.0588 302.943 68.0588C299.209 68.0588 297.436 69.7318 297.436 73.2635C297.436 76.7953 299.209 78.4682 302.943 78.4682Z" fill="#FFE83C"/>
<path d="M254.22 65.2706H280.915V47.333C280.915 33.8565 275.501 24.7483 263.647 24.7483C251.793 24.7483 246.38 33.8565 246.38 47.333V48.9129H241.899C241.153 48.9129 240.499 49.4707 240.499 50.307C240.499 51.0506 241.153 51.7011 241.899 51.7011H243.486V53.8388C243.486 61.7388 247.033 65.2706 254.22 65.2706ZM249.18 48.9129V47.333C249.18 42.5 251.887 39.6188 255.527 39.6188C259.26 39.6188 261.874 42.5 261.874 47.333V53.56H260.287C260.287 50.493 258.98 48.9129 255.807 48.9129H249.18Z" fill="#FFE83C"/>
<path d="M223.512 82C236.299 82 241.899 73.8211 241.899 58.5788V43.8941C241.899 32.3694 236.392 24.7483 224.725 24.7483C213.058 24.7483 207.551 32.3694 207.551 39.8046C207.551 46.0317 210.911 49.2847 215.018 50.7717L214.458 52.1658C210.631 51.5149 209.417 48.9129 204.75 48.9129H202.137C201.39 48.9129 200.737 49.4707 200.737 50.307C200.737 51.0506 201.391 51.7011 202.137 51.7011H203.724V53.653C203.724 61.1812 206.897 64.8059 213.244 65.2706C211.658 66.6647 210.631 68.7094 210.631 71.4047C210.631 76.4235 214.271 82 223.512 82ZM213.991 43.2435C213.991 40.5482 216.045 38.3176 219.031 38.3176C222.112 38.3176 224.072 40.5482 224.072 43.6153V48.9129H221.458C217.071 48.9129 213.991 46.7753 213.991 43.2435ZM214.551 70.2894C214.551 66.9436 217.352 65.2706 221.085 65.2706H224.072V69.36C224.072 72.7058 222.298 74.7505 219.312 74.7505C216.512 74.7505 214.551 72.7988 214.551 70.2894Z" fill="#FFE83C"/>
<path d="M176.002 65.2706C179.363 65.2706 182.629 62.6682 182.629 57.9283V51.7011H184.216V52.5376L184.123 64.527C184.123 76.2376 178.802 79.2117 170.028 79.2117V82C190.47 82 202.137 78.8399 202.137 60.0659V43.8941C202.137 32.3694 196.63 24.7483 184.963 24.7483C173.295 24.7483 167.788 32.3693 167.788 40.5482V50.6788C167.788 61.9247 170.402 65.2706 176.002 65.2706ZM174.229 43.2435C174.229 40.5482 176.282 38.3176 179.269 38.3176C182.349 38.3176 184.31 40.5482 184.31 43.6153L184.216 48.9129H181.696C177.309 48.9129 174.229 46.7753 174.229 43.2435Z" fill="#FFE83C"/>
<path d="M134 78.84V82C150.708 82 161.068 78.84 161.068 60.8094V43.3365C161.068 41.1059 162.188 39.9906 164.428 39.9906V25.3059H143.147V65.2706C143.147 75.8659 139.04 78.84 134 78.84Z" fill="#FFE83C"/>
<path d="M353.719 65.2705H361.746C367.906 65.2705 371.64 61.8317 371.64 53.374V21.0306C371.64 18.7999 372.76 17.6847 375 17.6847V3H353.719V65.2705Z" stroke="black" stroke-width="6" mask="url(#path-1-outside-1_93_2)"/>
<path d="M334.491 65.2705H346.438V21.0306C346.438 18.7999 347.558 17.6847 349.799 17.6847V3H328.517V43.0576C328.517 47.5188 329.731 49.7494 331.598 51.9799L330.384 53.0952C328.517 50.6787 326.837 48.9129 323.757 48.9129H322.17C321.424 48.9129 320.77 49.4707 320.77 50.307C320.77 51.0506 321.423 51.7011 322.17 51.7011H323.757V53.8388C323.757 61.6459 327.304 65.2705 334.491 65.2705Z" stroke="black" stroke-width="6" mask="url(#path-1-outside-1_93_2)"/>
<path d="M293.236 65.2706H322.171V44.173H319.557C308.823 44.173 311.997 24.3764 297.529 24.3764C288.102 24.3764 285.395 32.1836 285.395 42.2212V45.567H288.195C288.195 42.5 290.342 39.9906 294.449 39.9906C302.569 39.9906 304.25 47.333 317.41 47.333H319.184V48.913H280.915C280.168 48.913 279.515 49.4707 279.515 50.3071C279.515 51.0506 280.168 51.7011 280.915 51.7011H282.502V53.8388C282.502 61.6459 286.048 65.2706 293.236 65.2706ZM302.943 78.4682C306.676 78.4682 308.45 76.7953 308.45 73.2635C308.45 69.7318 306.676 68.0588 302.943 68.0588C299.209 68.0588 297.436 69.7318 297.436 73.2635C297.436 76.7953 299.209 78.4682 302.943 78.4682Z" stroke="black" stroke-width="6" mask="url(#path-1-outside-1_93_2)"/>
<path d="M254.22 65.2706H280.915V47.333C280.915 33.8565 275.501 24.7483 263.647 24.7483C251.793 24.7483 246.38 33.8565 246.38 47.333V48.9129H241.899C241.153 48.9129 240.499 49.4707 240.499 50.307C240.499 51.0506 241.153 51.7011 241.899 51.7011H243.486V53.8388C243.486 61.7388 247.033 65.2706 254.22 65.2706ZM249.18 48.9129V47.333C249.18 42.5 251.887 39.6188 255.527 39.6188C259.26 39.6188 261.874 42.5 261.874 47.333V53.56H260.287C260.287 50.493 258.98 48.9129 255.807 48.9129H249.18Z" stroke="black" stroke-width="6" mask="url(#path-1-outside-1_93_2)"/>
<path d="M223.512 82C236.299 82 241.899 73.8211 241.899 58.5788V43.8941C241.899 32.3694 236.392 24.7483 224.725 24.7483C213.058 24.7483 207.551 32.3694 207.551 39.8046C207.551 46.0317 210.911 49.2847 215.018 50.7717L214.458 52.1658C210.631 51.5149 209.417 48.9129 204.75 48.9129H202.137C201.39 48.9129 200.737 49.4707 200.737 50.307C200.737 51.0506 201.391 51.7011 202.137 51.7011H203.724V53.653C203.724 61.1812 206.897 64.8059 213.244 65.2706C211.658 66.6647 210.631 68.7094 210.631 71.4047C210.631 76.4235 214.271 82 223.512 82ZM213.991 43.2435C213.991 40.5482 216.045 38.3176 219.031 38.3176C222.112 38.3176 224.072 40.5482 224.072 43.6153V48.9129H221.458C217.071 48.9129 213.991 46.7753 213.991 43.2435ZM214.551 70.2894C214.551 66.9436 217.352 65.2706 221.085 65.2706H224.072V69.36C224.072 72.7058 222.298 74.7505 219.312 74.7505C216.512 74.7505 214.551 72.7988 214.551 70.2894Z" stroke="black" stroke-width="6" mask="url(#path-1-outside-1_93_2)"/>
<path d="M176.002 65.2706C179.363 65.2706 182.629 62.6682 182.629 57.9283V51.7011H184.216V52.5376L184.123 64.527C184.123 76.2376 178.802 79.2117 170.028 79.2117V82C190.47 82 202.137 78.8399 202.137 60.0659V43.8941C202.137 32.3694 196.63 24.7483 184.963 24.7483C173.295 24.7483 167.788 32.3693 167.788 40.5482V50.6788C167.788 61.9247 170.402 65.2706 176.002 65.2706ZM174.229 43.2435C174.229 40.5482 176.282 38.3176 179.269 38.3176C182.349 38.3176 184.31 40.5482 184.31 43.6153L184.216 48.9129H181.696C177.309 48.9129 174.229 46.7753 174.229 43.2435Z" stroke="black" stroke-width="6" mask="url(#path-1-outside-1_93_2)"/>
<path d="M134 78.84V82C150.708 82 161.068 78.84 161.068 60.8094V43.3365C161.068 41.1059 162.188 39.9906 164.428 39.9906V25.3059H143.147V65.2706C143.147 75.8659 139.04 78.84 134 78.84Z" stroke="black" stroke-width="6" mask="url(#path-1-outside-1_93_2)"/>
<mask id="path-2-outside-2_93_2" maskUnits="userSpaceOnUse" x="7" y="80" width="495" height="89" fill="black">
<rect fill="white" x="7" y="80" width="495" height="89"/>
<path d="M31.9597 145.273C42.2387 145.273 47.3782 140.232 47.3782 129.588V126.414H48.9667V144.34H66.7214V119.412H45.2289C45.2289 126.134 42.6124 128.188 38.4074 128.188C33.2679 128.188 30.2777 123.893 30.2777 115.024C30.2777 106.154 33.2679 101.859 38.4074 101.859C42.4255 101.859 44.8551 103.913 44.8551 110.075H66.3476V85.7075H48.593V103.633H47.0044V100.459C47.0044 89.8155 41.9583 84.7738 31.7728 84.7738C19.438 84.7738 10 93.3634 10 115.024C10 136.684 19.6249 145.273 31.9597 145.273Z"/>
<path d="M92.9796 145.18C106.903 145.18 116.248 138.738 116.248 123.426C116.248 108.115 106.903 101.673 92.9796 101.673C78.9628 101.673 69.6182 108.115 69.6182 123.426C69.6182 138.738 78.9628 145.18 92.9796 145.18ZM92.9796 131.175C88.868 131.175 87.2794 127.628 87.2794 123.426C87.2794 119.225 88.868 115.677 92.9796 115.677C97.0912 115.677 98.5863 119.225 98.5863 123.426C98.5863 127.628 97.0912 131.175 92.9796 131.175Z"/>
<path d="M118.864 144.433H142.039V130.242C140.17 130.242 139.329 129.402 139.329 127.908V122.679C139.329 117.918 141.571 115.957 144.562 115.957C147.552 115.957 149.794 117.918 149.794 121.559V127.908C149.794 129.402 148.953 130.242 147.085 130.242V144.433H169.698V130.242C167.829 130.242 166.988 129.402 166.988 127.908V122.679C166.988 117.918 169.231 115.957 172.221 115.957C175.212 115.957 177.454 117.918 177.454 121.559V127.908C177.454 129.402 176.613 130.242 174.744 130.242V144.433H197.919V130.242C195.676 130.242 194.648 129.402 194.648 127.908V120.345C194.555 106.714 190.63 101.673 180.071 101.673C170.166 101.673 164.933 106.901 164.933 119.225V122.679H163.531V119.225C163.344 107.088 159.7 101.673 151.103 101.673C142.225 101.673 137.273 107.648 137.273 119.598V122.679H135.871C135.871 112.223 136.806 109.235 139.329 104.847V102.42H118.864V116.611C121.107 116.611 122.135 117.451 122.135 118.945V127.908C122.135 129.402 121.107 130.242 118.864 130.242V144.433Z"/>
<path d="M200.535 144.433H223.71V130.242C221.841 130.242 221 129.402 221 127.908V122.679C221 117.918 223.243 115.957 226.233 115.957C229.223 115.957 231.466 117.918 231.466 121.559V127.908C231.466 129.402 230.625 130.242 228.756 130.242V144.433H251.37V130.242C249.501 130.242 248.66 129.402 248.66 127.908V122.679C248.66 117.918 250.902 115.957 253.893 115.957C256.883 115.957 259.126 117.918 259.126 121.559V127.908C259.126 129.402 258.285 130.242 256.416 130.242V144.433H279.59V130.242C277.348 130.242 276.32 129.402 276.32 127.908V120.345C276.226 106.714 272.301 101.673 261.742 101.673C251.837 101.673 246.604 106.901 246.604 119.225V122.679H245.202V119.225C245.015 107.088 241.371 101.673 232.774 101.673C223.897 101.673 218.944 107.648 218.944 119.598V122.679H217.542C217.542 112.223 218.477 109.235 221 104.847V102.42H200.535V116.611C202.778 116.611 203.806 117.451 203.806 118.945V127.908C203.806 129.402 202.778 130.242 200.535 130.242V144.433Z"/>
<path d="M298.56 145.18C308.465 145.18 314.258 139.205 314.258 125.2V123.893H315.66C315.66 134.63 314.726 137.618 312.203 142.006V144.433H332.667V130.242C330.425 130.242 329.397 129.402 329.397 127.908V118.945C329.397 117.451 330.425 116.611 332.667 116.611V102.42H309.493V116.611C311.362 116.611 312.203 117.451 312.203 118.945V125.2C312.203 128.935 309.68 130.895 306.502 130.895C303.232 130.895 300.802 128.935 300.802 125.2V118.945C300.802 117.451 301.643 116.611 303.512 116.611V102.42H280.338V116.611C282.58 116.611 283.608 117.451 283.608 118.945V125.854C283.702 139.858 287.72 145.18 298.56 145.18Z"/>
<path d="M335.284 144.433H358.458V130.242C356.589 130.242 355.748 129.402 355.748 127.908V121.652C355.748 117.918 358.271 115.957 361.448 115.957C364.719 115.957 367.149 117.918 367.149 121.652V127.908C367.149 129.402 366.308 130.242 364.439 130.242V144.433H387.613V130.242C385.37 130.242 384.343 129.402 384.343 127.908V120.999C384.249 106.994 380.231 101.673 369.391 101.673C359.486 101.673 353.692 107.648 353.692 121.652V122.96H352.291C352.291 112.223 353.225 109.235 355.748 104.847V102.42H335.284V116.611C337.526 116.611 338.554 117.451 338.554 118.945V127.908C338.554 129.402 337.526 130.242 335.284 130.242V144.433Z"/>
<path d="M390.229 144.433H413.965V130.242C411.722 130.242 410.694 129.402 410.694 127.908V102.42H390.229V116.611C392.472 116.611 393.5 117.451 393.5 118.945V127.908C393.5 129.402 392.472 130.242 390.229 130.242V144.433ZM400.602 99.2452C406.489 99.2452 409.386 95.1372 409.386 91.1226C409.386 86.9212 406.489 83 400.602 83C394.715 83 391.912 86.9212 391.912 91.1226C391.912 95.1372 394.902 99.2452 400.602 99.2452Z"/>
<path d="M431.065 144.713C440.597 144.713 444.428 139.485 444.428 129.775V127.067H441.718C441.718 130.148 440.223 131.642 438.26 131.642C436.205 131.642 434.709 130.148 434.709 127.067V116.237H443.68V102.42H434.709V93.0832H423.776C423.776 98.3116 421.907 102.42 417.516 102.42H414.338V116.237H417.516V126.507C417.516 139.391 421.44 144.713 431.065 144.713Z"/>
<path d="M471.994 166C486.852 166 495.729 158.904 495.729 141.539V118.945C495.729 117.451 496.757 116.611 499 116.611V102.42H475.826V116.611C477.694 116.611 478.535 117.451 478.535 118.945V125.48C478.535 129.028 476.106 130.895 472.835 130.895C469.565 130.895 467.135 128.935 467.135 125.2V118.945C467.135 117.451 467.976 116.611 469.845 116.611V102.42H446.671V116.611C448.913 116.611 449.941 117.451 449.941 118.945V125.854C450.035 139.858 455.174 145.18 466.107 145.18C476.386 145.18 480.591 139.672 480.591 126.881V124.173H481.993V134.443C481.619 144.9 478.068 150.688 466.481 150.688C460.314 150.688 455.174 148.914 455.174 146.207H452.371V149.661C452.371 160.585 459.099 166 471.994 166Z"/>
</mask>
<path d="M31.9597 145.273C42.2387 145.273 47.3782 140.232 47.3782 129.588V126.414H48.9667V144.34H66.7214V119.412H45.2289C45.2289 126.134 42.6124 128.188 38.4074 128.188C33.2679 128.188 30.2777 123.893 30.2777 115.024C30.2777 106.154 33.2679 101.859 38.4074 101.859C42.4255 101.859 44.8551 103.913 44.8551 110.075H66.3476V85.7075H48.593V103.633H47.0044V100.459C47.0044 89.8155 41.9583 84.7738 31.7728 84.7738C19.438 84.7738 10 93.3634 10 115.024C10 136.684 19.6249 145.273 31.9597 145.273Z" fill="#D02B2B"/>
<path d="M92.9796 145.18C106.903 145.18 116.248 138.738 116.248 123.426C116.248 108.115 106.903 101.673 92.9796 101.673C78.9628 101.673 69.6182 108.115 69.6182 123.426C69.6182 138.738 78.9628 145.18 92.9796 145.18ZM92.9796 131.175C88.868 131.175 87.2794 127.628 87.2794 123.426C87.2794 119.225 88.868 115.677 92.9796 115.677C97.0912 115.677 98.5863 119.225 98.5863 123.426C98.5863 127.628 97.0912 131.175 92.9796 131.175Z" fill="#D02B2B"/>
<path d="M118.864 144.433H142.039V130.242C140.17 130.242 139.329 129.402 139.329 127.908V122.679C139.329 117.918 141.571 115.957 144.562 115.957C147.552 115.957 149.794 117.918 149.794 121.559V127.908C149.794 129.402 148.953 130.242 147.085 130.242V144.433H169.698V130.242C167.829 130.242 166.988 129.402 166.988 127.908V122.679C166.988 117.918 169.231 115.957 172.221 115.957C175.212 115.957 177.454 117.918 177.454 121.559V127.908C177.454 129.402 176.613 130.242 174.744 130.242V144.433H197.919V130.242C195.676 130.242 194.648 129.402 194.648 127.908V120.345C194.555 106.714 190.63 101.673 180.071 101.673C170.166 101.673 164.933 106.901 164.933 119.225V122.679H163.531V119.225C163.344 107.088 159.7 101.673 151.103 101.673C142.225 101.673 137.273 107.648 137.273 119.598V122.679H135.871C135.871 112.223 136.806 109.235 139.329 104.847V102.42H118.864V116.611C121.107 116.611 122.135 117.451 122.135 118.945V127.908C122.135 129.402 121.107 130.242 118.864 130.242V144.433Z" fill="#D02B2B"/>
<path d="M200.535 144.433H223.71V130.242C221.841 130.242 221 129.402 221 127.908V122.679C221 117.918 223.243 115.957 226.233 115.957C229.223 115.957 231.466 117.918 231.466 121.559V127.908C231.466 129.402 230.625 130.242 228.756 130.242V144.433H251.37V130.242C249.501 130.242 248.66 129.402 248.66 127.908V122.679C248.66 117.918 250.902 115.957 253.893 115.957C256.883 115.957 259.126 117.918 259.126 121.559V127.908C259.126 129.402 258.285 130.242 256.416 130.242V144.433H279.59V130.242C277.348 130.242 276.32 129.402 276.32 127.908V120.345C276.226 106.714 272.301 101.673 261.742 101.673C251.837 101.673 246.604 106.901 246.604 119.225V122.679H245.202V119.225C245.015 107.088 241.371 101.673 232.774 101.673C223.897 101.673 218.944 107.648 218.944 119.598V122.679H217.542C217.542 112.223 218.477 109.235 221 104.847V102.42H200.535V116.611C202.778 116.611 203.806 117.451 203.806 118.945V127.908C203.806 129.402 202.778 130.242 200.535 130.242V144.433Z" fill="#D02B2B"/>
<path d="M298.56 145.18C308.465 145.18 314.258 139.205 314.258 125.2V123.893H315.66C315.66 134.63 314.726 137.618 312.203 142.006V144.433H332.667V130.242C330.425 130.242 329.397 129.402 329.397 127.908V118.945C329.397 117.451 330.425 116.611 332.667 116.611V102.42H309.493V116.611C311.362 116.611 312.203 117.451 312.203 118.945V125.2C312.203 128.935 309.68 130.895 306.502 130.895C303.232 130.895 300.802 128.935 300.802 125.2V118.945C300.802 117.451 301.643 116.611 303.512 116.611V102.42H280.338V116.611C282.58 116.611 283.608 117.451 283.608 118.945V125.854C283.702 139.858 287.72 145.18 298.56 145.18Z" fill="#D02B2B"/>
<path d="M335.284 144.433H358.458V130.242C356.589 130.242 355.748 129.402 355.748 127.908V121.652C355.748 117.918 358.271 115.957 361.448 115.957C364.719 115.957 367.149 117.918 367.149 121.652V127.908C367.149 129.402 366.308 130.242 364.439 130.242V144.433H387.613V130.242C385.37 130.242 384.343 129.402 384.343 127.908V120.999C384.249 106.994 380.231 101.673 369.391 101.673C359.486 101.673 353.692 107.648 353.692 121.652V122.96H352.291C352.291 112.223 353.225 109.235 355.748 104.847V102.42H335.284V116.611C337.526 116.611 338.554 117.451 338.554 118.945V127.908C338.554 129.402 337.526 130.242 335.284 130.242V144.433Z" fill="#D02B2B"/>
<path d="M390.229 144.433H413.965V130.242C411.722 130.242 410.694 129.402 410.694 127.908V102.42H390.229V116.611C392.472 116.611 393.5 117.451 393.5 118.945V127.908C393.5 129.402 392.472 130.242 390.229 130.242V144.433ZM400.602 99.2452C406.489 99.2452 409.386 95.1372 409.386 91.1226C409.386 86.9212 406.489 83 400.602 83C394.715 83 391.912 86.9212 391.912 91.1226C391.912 95.1372 394.902 99.2452 400.602 99.2452Z" fill="#D02B2B"/>
<path d="M431.065 144.713C440.597 144.713 444.428 139.485 444.428 129.775V127.067H441.718C441.718 130.148 440.223 131.642 438.26 131.642C436.205 131.642 434.709 130.148 434.709 127.067V116.237H443.68V102.42H434.709V93.0832H423.776C423.776 98.3116 421.907 102.42 417.516 102.42H414.338V116.237H417.516V126.507C417.516 139.391 421.44 144.713 431.065 144.713Z" fill="#D02B2B"/>
<path d="M471.994 166C486.852 166 495.729 158.904 495.729 141.539V118.945C495.729 117.451 496.757 116.611 499 116.611V102.42H475.826V116.611C477.694 116.611 478.535 117.451 478.535 118.945V125.48C478.535 129.028 476.106 130.895 472.835 130.895C469.565 130.895 467.135 128.935 467.135 125.2V118.945C467.135 117.451 467.976 116.611 469.845 116.611V102.42H446.671V116.611C448.913 116.611 449.941 117.451 449.941 118.945V125.854C450.035 139.858 455.174 145.18 466.107 145.18C476.386 145.18 480.591 139.672 480.591 126.881V124.173H481.993V134.443C481.619 144.9 478.068 150.688 466.481 150.688C460.314 150.688 455.174 148.914 455.174 146.207H452.371V149.661C452.371 160.585 459.099 166 471.994 166Z" fill="#D02B2B"/>
<path d="M31.9597 145.273C42.2387 145.273 47.3782 140.232 47.3782 129.588V126.414H48.9667V144.34H66.7214V119.412H45.2289C45.2289 126.134 42.6124 128.188 38.4074 128.188C33.2679 128.188 30.2777 123.893 30.2777 115.024C30.2777 106.154 33.2679 101.859 38.4074 101.859C42.4255 101.859 44.8551 103.913 44.8551 110.075H66.3476V85.7075H48.593V103.633H47.0044V100.459C47.0044 89.8155 41.9583 84.7738 31.7728 84.7738C19.438 84.7738 10 93.3634 10 115.024C10 136.684 19.6249 145.273 31.9597 145.273Z" stroke="black" stroke-width="6" mask="url(#path-2-outside-2_93_2)"/>
<path d="M92.9796 145.18C106.903 145.18 116.248 138.738 116.248 123.426C116.248 108.115 106.903 101.673 92.9796 101.673C78.9628 101.673 69.6182 108.115 69.6182 123.426C69.6182 138.738 78.9628 145.18 92.9796 145.18ZM92.9796 131.175C88.868 131.175 87.2794 127.628 87.2794 123.426C87.2794 119.225 88.868 115.677 92.9796 115.677C97.0912 115.677 98.5863 119.225 98.5863 123.426C98.5863 127.628 97.0912 131.175 92.9796 131.175Z" stroke="black" stroke-width="6" mask="url(#path-2-outside-2_93_2)"/>
<path d="M118.864 144.433H142.039V130.242C140.17 130.242 139.329 129.402 139.329 127.908V122.679C139.329 117.918 141.571 115.957 144.562 115.957C147.552 115.957 149.794 117.918 149.794 121.559V127.908C149.794 129.402 148.953 130.242 147.085 130.242V144.433H169.698V130.242C167.829 130.242 166.988 129.402 166.988 127.908V122.679C166.988 117.918 169.231 115.957 172.221 115.957C175.212 115.957 177.454 117.918 177.454 121.559V127.908C177.454 129.402 176.613 130.242 174.744 130.242V144.433H197.919V130.242C195.676 130.242 194.648 129.402 194.648 127.908V120.345C194.555 106.714 190.63 101.673 180.071 101.673C170.166 101.673 164.933 106.901 164.933 119.225V122.679H163.531V119.225C163.344 107.088 159.7 101.673 151.103 101.673C142.225 101.673 137.273 107.648 137.273 119.598V122.679H135.871C135.871 112.223 136.806 109.235 139.329 104.847V102.42H118.864V116.611C121.107 116.611 122.135 117.451 122.135 118.945V127.908C122.135 129.402 121.107 130.242 118.864 130.242V144.433Z" stroke="black" stroke-width="6" mask="url(#path-2-outside-2_93_2)"/>
<path d="M200.535 144.433H223.71V130.242C221.841 130.242 221 129.402 221 127.908V122.679C221 117.918 223.243 115.957 226.233 115.957C229.223 115.957 231.466 117.918 231.466 121.559V127.908C231.466 129.402 230.625 130.242 228.756 130.242V144.433H251.37V130.242C249.501 130.242 248.66 129.402 248.66 127.908V122.679C248.66 117.918 250.902 115.957 253.893 115.957C256.883 115.957 259.126 117.918 259.126 121.559V127.908C259.126 129.402 258.285 130.242 256.416 130.242V144.433H279.59V130.242C277.348 130.242 276.32 129.402 276.32 127.908V120.345C276.226 106.714 272.301 101.673 261.742 101.673C251.837 101.673 246.604 106.901 246.604 119.225V122.679H245.202V119.225C245.015 107.088 241.371 101.673 232.774 101.673C223.897 101.673 218.944 107.648 218.944 119.598V122.679H217.542C217.542 112.223 218.477 109.235 221 104.847V102.42H200.535V116.611C202.778 116.611 203.806 117.451 203.806 118.945V127.908C203.806 129.402 202.778 130.242 200.535 130.242V144.433Z" stroke="black" stroke-width="6" mask="url(#path-2-outside-2_93_2)"/>
<path d="M298.56 145.18C308.465 145.18 314.258 139.205 314.258 125.2V123.893H315.66C315.66 134.63 314.726 137.618 312.203 142.006V144.433H332.667V130.242C330.425 130.242 329.397 129.402 329.397 127.908V118.945C329.397 117.451 330.425 116.611 332.667 116.611V102.42H309.493V116.611C311.362 116.611 312.203 117.451 312.203 118.945V125.2C312.203 128.935 309.68 130.895 306.502 130.895C303.232 130.895 300.802 128.935 300.802 125.2V118.945C300.802 117.451 301.643 116.611 303.512 116.611V102.42H280.338V116.611C282.58 116.611 283.608 117.451 283.608 118.945V125.854C283.702 139.858 287.72 145.18 298.56 145.18Z" stroke="black" stroke-width="6" mask="url(#path-2-outside-2_93_2)"/>
<path d="M335.284 144.433H358.458V130.242C356.589 130.242 355.748 129.402 355.748 127.908V121.652C355.748 117.918 358.271 115.957 361.448 115.957C364.719 115.957 367.149 117.918 367.149 121.652V127.908C367.149 129.402 366.308 130.242 364.439 130.242V144.433H387.613V130.242C385.37 130.242 384.343 129.402 384.343 127.908V120.999C384.249 106.994 380.231 101.673 369.391 101.673C359.486 101.673 353.692 107.648 353.692 121.652V122.96H352.291C352.291 112.223 353.225 109.235 355.748 104.847V102.42H335.284V116.611C337.526 116.611 338.554 117.451 338.554 118.945V127.908C338.554 129.402 337.526 130.242 335.284 130.242V144.433Z" stroke="black" stroke-width="6" mask="url(#path-2-outside-2_93_2)"/>
<path d="M390.229 144.433H413.965V130.242C411.722 130.242 410.694 129.402 410.694 127.908V102.42H390.229V116.611C392.472 116.611 393.5 117.451 393.5 118.945V127.908C393.5 129.402 392.472 130.242 390.229 130.242V144.433ZM400.602 99.2452C406.489 99.2452 409.386 95.1372 409.386 91.1226C409.386 86.9212 406.489 83 400.602 83C394.715 83 391.912 86.9212 391.912 91.1226C391.912 95.1372 394.902 99.2452 400.602 99.2452Z" stroke="black" stroke-width="6" mask="url(#path-2-outside-2_93_2)"/>
<path d="M431.065 144.713C440.597 144.713 444.428 139.485 444.428 129.775V127.067H441.718C441.718 130.148 440.223 131.642 438.26 131.642C436.205 131.642 434.709 130.148 434.709 127.067V116.237H443.68V102.42H434.709V93.0832H423.776C423.776 98.3116 421.907 102.42 417.516 102.42H414.338V116.237H417.516V126.507C417.516 139.391 421.44 144.713 431.065 144.713Z" stroke="black" stroke-width="6" mask="url(#path-2-outside-2_93_2)"/>
<path d="M471.994 166C486.852 166 495.729 158.904 495.729 141.539V118.945C495.729 117.451 496.757 116.611 499 116.611V102.42H475.826V116.611C477.694 116.611 478.535 117.451 478.535 118.945V125.48C478.535 129.028 476.106 130.895 472.835 130.895C469.565 130.895 467.135 128.935 467.135 125.2V118.945C467.135 117.451 467.976 116.611 469.845 116.611V102.42H446.671V116.611C448.913 116.611 449.941 117.451 449.941 118.945V125.854C450.035 139.858 455.174 145.18 466.107 145.18C476.386 145.18 480.591 139.672 480.591 126.881V124.173H481.993V134.443C481.619 144.9 478.068 150.688 466.481 150.688C460.314 150.688 455.174 148.914 455.174 146.207H452.371V149.661C452.371 160.585 459.099 166 471.994 166Z" stroke="black" stroke-width="6" mask="url(#path-2-outside-2_93_2)"/>
</g>
<defs>
<filter id="filter0_d_93_2" x="0" y="0" width="502" height="176" filterUnits="userSpaceOnUse" color-interpolation-filters="sRGB">
<feFlood flood-opacity="0" result="BackgroundImageFix"/>
<feColorMatrix in="SourceAlpha" type="matrix" values="0 0 0 0 0 0 0 0 0 0 0 0 0 0 0 0 0 0 127 0" result="hardAlpha"/>
<feOffset dx="-7" dy="7"/>
<feComposite in2="hardAlpha" operator="out"/>
<feColorMatrix type="matrix" values="0 0 0 0 0 0 0 0 0 0 0 0 0 0 0 0 0 0 1 0"/>
<feBlend mode="normal" in2="BackgroundImageFix" result="effect1_dropShadow_93_2"/>
<feBlend mode="normal" in="SourceGraphic" in2="effect1_dropShadow_93_2" result="shape"/>
</filter>
</defs>
</svg>
