<svg width="565" height="132" viewBox="0 0 565 132" fill="none" xmlns="http://www.w3.org/2000/svg">
    <g filter="url(#filter0_d_79_8)">
        <mask id="path-1-outside-1_79_8" maskUnits="userSpaceOnUse" x="114" y="0" width="345" height="78" fill="black">
            <rect fill="white" x="114" width="345" height="78" />
            <path
                d="M436.954 59.1367H444.064C449.521 59.1367 452.828 56.0776 452.828 48.5541V19.7832C452.828 17.7989 453.82 16.8068 455.804 16.8068V3.74416H436.954V59.1367Z" />
            <path
                d="M403.884 59.1367H432.986V39.8733C432.986 31.6058 430.671 27.72 421.163 27.72H399.419V26.1491H400.412C411.738 26.1491 416.203 18.9564 424.305 18.9564C428.273 18.9564 429.844 21.6021 429.844 24.5784H432.159V18.791C432.159 8.7873 429.183 4.57088 423.147 4.57088C411.159 4.57088 408.1 23.8343 398.345 23.8343H397.105V32.1845C397.105 38.5505 399.916 41.1961 407.852 41.1961H424.14C429.017 41.1961 430.505 42.6843 430.505 46.2394V48.7196H429.1C429.1 45.3299 428.025 44.5858 424.966 44.5858H393.136C392.475 44.5858 391.896 45.082 391.896 45.8259C391.896 46.4874 392.475 47.0661 393.136 47.0661H394.542V49.1329C394.542 56.0777 397.601 59.1367 403.884 59.1367Z" />
            <path
                d="M382.223 59.1367H393.136V23.5862H377.262V44.5859H371.31C370.648 44.5859 370.07 45.082 370.07 45.826C370.07 46.4874 370.648 47.0661 371.31 47.0661H372.715V48.9676C372.715 55.9124 375.857 59.1367 382.223 59.1367ZM379.825 20.7753C383.132 20.7753 384.703 19.2871 384.703 16.1455C384.703 13.0038 383.132 11.5157 379.825 11.5157C376.518 11.5157 374.948 13.0038 374.948 16.1455C374.948 19.2871 376.518 20.7753 379.825 20.7753ZM390.573 20.7753C393.88 20.7753 395.451 19.2871 395.451 16.1455C395.451 13.0038 393.88 11.5157 390.573 11.5157C387.266 11.5157 385.695 13.0038 385.695 16.1455C385.695 19.2871 387.266 20.7753 390.573 20.7753Z" />
            <path
                d="M364.282 59.1367H371.31V19.7832C371.31 17.7989 372.302 16.8068 374.286 16.8068V3.74416H355.436V48.5541C355.436 56.3256 358.991 59.1367 364.282 59.1367Z" />
            <path
                d="M338.57 59.1366L349.318 59.2195V39.6255C349.318 37.6413 350.31 36.6492 352.294 36.6492V23.5865H333.444V39.3774C333.444 43.3459 334.519 45.3301 336.173 47.3143L335.098 48.3064C333.527 46.2396 332.287 44.8341 330.055 44.5861V26.8935H314.181V44.5861H312.279C311.37 44.5861 310.791 43.9246 310.791 42.8498V26.8935H294.918V44.5861H289.296C288.634 44.5861 288.056 45.0822 288.056 45.8262C288.056 46.4876 288.634 47.0663 289.296 47.0663H290.701V49.1332C290.701 55.7472 293.76 59.1369 300.54 59.1369H308.063V47.0663H309.468V49.1332C309.468 55.7472 312.527 59.1369 318.976 59.1369H327.326V47.0663H328.732V49.1332C328.732 55.7472 331.46 59.1366 338.57 59.1366ZM316.744 24.0823C320.051 24.0823 321.622 22.5941 321.622 19.4524C321.622 16.3108 320.051 14.8226 316.744 14.8226C313.437 14.8226 311.866 16.3108 311.866 19.4524C311.866 22.5941 313.437 24.0823 316.744 24.0823ZM327.492 24.0823C330.799 24.0823 332.37 22.5941 332.37 19.4524C332.37 16.3108 330.799 14.8226 327.492 14.8226C324.185 14.8226 322.614 16.3108 322.614 19.4524C322.614 22.5941 324.185 24.0823 327.492 24.0823ZM322.118 14.8226C325.094 14.8226 326.582 13.4171 326.582 10.5234C326.582 7.62982 325.094 6.30698 322.118 6.30698C319.059 6.30698 317.571 7.62982 317.571 10.5234C317.571 13.4171 319.059 14.8226 322.118 14.8226Z" />
            <path
                d="M245.974 59.1367H289.296V39.6253C289.296 29.8695 284.583 23.0901 274.497 23.0901C263.749 23.0901 258.871 29.8696 258.871 36.4836C258.871 42.0229 261.847 44.9165 265.485 46.2393L264.989 47.4794C261.599 46.9004 260.525 44.5858 256.391 44.5858H236.135C230.017 44.5858 227.289 42.1881 227.289 38.4678C227.289 34.9127 229.769 33.1765 232.249 33.1765C234.978 33.0113 237.045 35.1608 237.045 38.3025V40.204H251.596V38.0544C251.596 27.968 246.966 23.5862 238.946 23.5862C231.505 23.5862 224.809 28.7948 224.809 39.2119C224.809 52.1093 233.242 59.1367 245.974 59.1367ZM274.497 19.7831C277.804 19.7831 279.375 18.295 279.375 15.1533C279.375 12.0117 277.804 10.5235 274.497 10.5235C271.19 10.5235 269.619 12.0117 269.619 15.1533C269.619 18.295 271.19 19.7831 274.497 19.7831ZM264.576 39.708C264.576 37.2277 266.395 35.1608 269.04 35.1608C271.769 35.1608 273.505 37.145 273.505 39.8733V44.5858H271.19C267.304 44.5858 264.576 42.767 264.576 39.708Z" />
            <path
                d="M173.55 59.1367H202.652V39.8733C202.652 31.6058 200.337 27.72 190.829 27.72H169.086V26.1491H170.078C181.404 26.1491 185.869 18.9564 193.971 18.9564C197.939 18.9564 199.51 21.6021 199.51 24.5784H201.825V18.791C201.825 8.7873 198.849 4.57088 192.813 4.57088C180.825 4.57088 177.766 23.8343 168.011 23.8343H166.771V32.1845C166.771 38.5505 169.582 41.1961 177.519 41.1961H193.806C198.683 41.1961 200.172 42.6843 200.172 46.2394V48.7196H198.766C198.766 45.3299 197.691 44.5858 194.632 44.5858H162.802C162.141 44.5858 161.562 45.082 161.562 45.8259C161.562 46.4874 162.141 47.0661 162.802 47.0661H164.208V49.1329C164.208 56.0777 167.267 59.1367 173.55 59.1367Z" />
            <path
                d="M151.889 59.1367H162.802V23.5862H146.929V44.5858H140.976C140.315 44.5858 139.736 45.082 139.736 45.8259C139.736 46.4873 140.315 47.066 140.976 47.066H142.381V48.9676C142.381 55.9123 145.523 59.1367 151.889 59.1367ZM149.492 20.7752C152.799 20.7752 154.369 19.2871 154.369 16.1454C154.369 13.0038 152.799 11.5156 149.492 11.5156C146.184 11.5156 144.614 13.0038 144.614 16.1454C144.614 19.2871 146.184 20.7752 149.492 20.7752ZM160.239 20.7752C163.546 20.7752 165.117 19.2871 165.117 16.1454C165.117 13.0038 163.546 11.5156 160.239 11.5156C156.932 11.5156 155.361 13.0038 155.361 16.1454C155.361 19.2871 156.932 20.7752 160.239 20.7752ZM154.865 11.5156C157.842 11.5156 159.33 10.1102 159.33 7.21646C159.33 4.32284 157.842 3 154.865 3C151.806 3 150.318 4.32284 150.318 7.21646C150.318 10.1102 151.806 11.5156 154.865 11.5156Z" />
            <path
                d="M117 71.2073V74.0182C131.799 74.0182 140.976 71.2072 140.976 55.1682V23.5862H125.102V59.1366C125.102 68.5616 121.465 71.2073 117 71.2073Z" />
        </mask>
        <path
            d="M436.954 59.1367H444.064C449.521 59.1367 452.828 56.0776 452.828 48.5541V19.7832C452.828 17.7989 453.82 16.8068 455.804 16.8068V3.74416H436.954V59.1367Z"
            fill="#FFE83C" />
        <path
            d="M403.884 59.1367H432.986V39.8733C432.986 31.6058 430.671 27.72 421.163 27.72H399.419V26.1491H400.412C411.738 26.1491 416.203 18.9564 424.305 18.9564C428.273 18.9564 429.844 21.6021 429.844 24.5784H432.159V18.791C432.159 8.7873 429.183 4.57088 423.147 4.57088C411.159 4.57088 408.1 23.8343 398.345 23.8343H397.105V32.1845C397.105 38.5505 399.916 41.1961 407.852 41.1961H424.14C429.017 41.1961 430.505 42.6843 430.505 46.2394V48.7196H429.1C429.1 45.3299 428.025 44.5858 424.966 44.5858H393.136C392.475 44.5858 391.896 45.082 391.896 45.8259C391.896 46.4874 392.475 47.0661 393.136 47.0661H394.542V49.1329C394.542 56.0777 397.601 59.1367 403.884 59.1367Z"
            fill="#FFE83C" />
        <path
            d="M382.223 59.1367H393.136V23.5862H377.262V44.5859H371.31C370.648 44.5859 370.07 45.082 370.07 45.826C370.07 46.4874 370.648 47.0661 371.31 47.0661H372.715V48.9676C372.715 55.9124 375.857 59.1367 382.223 59.1367ZM379.825 20.7753C383.132 20.7753 384.703 19.2871 384.703 16.1455C384.703 13.0038 383.132 11.5157 379.825 11.5157C376.518 11.5157 374.948 13.0038 374.948 16.1455C374.948 19.2871 376.518 20.7753 379.825 20.7753ZM390.573 20.7753C393.88 20.7753 395.451 19.2871 395.451 16.1455C395.451 13.0038 393.88 11.5157 390.573 11.5157C387.266 11.5157 385.695 13.0038 385.695 16.1455C385.695 19.2871 387.266 20.7753 390.573 20.7753Z"
            fill="#FFE83C" />
        <path
            d="M364.282 59.1367H371.31V19.7832C371.31 17.7989 372.302 16.8068 374.286 16.8068V3.74416H355.436V48.5541C355.436 56.3256 358.991 59.1367 364.282 59.1367Z"
            fill="#FFE83C" />
        <path
            d="M338.57 59.1366L349.318 59.2195V39.6255C349.318 37.6413 350.31 36.6492 352.294 36.6492V23.5865H333.444V39.3774C333.444 43.3459 334.519 45.3301 336.173 47.3143L335.098 48.3064C333.527 46.2396 332.287 44.8341 330.055 44.5861V26.8935H314.181V44.5861H312.279C311.37 44.5861 310.791 43.9246 310.791 42.8498V26.8935H294.918V44.5861H289.296C288.634 44.5861 288.056 45.0822 288.056 45.8262C288.056 46.4876 288.634 47.0663 289.296 47.0663H290.701V49.1332C290.701 55.7472 293.76 59.1369 300.54 59.1369H308.063V47.0663H309.468V49.1332C309.468 55.7472 312.527 59.1369 318.976 59.1369H327.326V47.0663H328.732V49.1332C328.732 55.7472 331.46 59.1366 338.57 59.1366ZM316.744 24.0823C320.051 24.0823 321.622 22.5941 321.622 19.4524C321.622 16.3108 320.051 14.8226 316.744 14.8226C313.437 14.8226 311.866 16.3108 311.866 19.4524C311.866 22.5941 313.437 24.0823 316.744 24.0823ZM327.492 24.0823C330.799 24.0823 332.37 22.5941 332.37 19.4524C332.37 16.3108 330.799 14.8226 327.492 14.8226C324.185 14.8226 322.614 16.3108 322.614 19.4524C322.614 22.5941 324.185 24.0823 327.492 24.0823ZM322.118 14.8226C325.094 14.8226 326.582 13.4171 326.582 10.5234C326.582 7.62982 325.094 6.30698 322.118 6.30698C319.059 6.30698 317.571 7.62982 317.571 10.5234C317.571 13.4171 319.059 14.8226 322.118 14.8226Z"
            fill="#FFE83C" />
        <path
            d="M245.974 59.1367H289.296V39.6253C289.296 29.8695 284.583 23.0901 274.497 23.0901C263.749 23.0901 258.871 29.8696 258.871 36.4836C258.871 42.0229 261.847 44.9165 265.485 46.2393L264.989 47.4794C261.599 46.9004 260.525 44.5858 256.391 44.5858H236.135C230.017 44.5858 227.289 42.1881 227.289 38.4678C227.289 34.9127 229.769 33.1765 232.249 33.1765C234.978 33.0113 237.045 35.1608 237.045 38.3025V40.204H251.596V38.0544C251.596 27.968 246.966 23.5862 238.946 23.5862C231.505 23.5862 224.809 28.7948 224.809 39.2119C224.809 52.1093 233.242 59.1367 245.974 59.1367ZM274.497 19.7831C277.804 19.7831 279.375 18.295 279.375 15.1533C279.375 12.0117 277.804 10.5235 274.497 10.5235C271.19 10.5235 269.619 12.0117 269.619 15.1533C269.619 18.295 271.19 19.7831 274.497 19.7831ZM264.576 39.708C264.576 37.2277 266.395 35.1608 269.04 35.1608C271.769 35.1608 273.505 37.145 273.505 39.8733V44.5858H271.19C267.304 44.5858 264.576 42.767 264.576 39.708Z"
            fill="#FFE83C" />
        <path
            d="M173.55 59.1367H202.652V39.8733C202.652 31.6058 200.337 27.72 190.829 27.72H169.086V26.1491H170.078C181.404 26.1491 185.869 18.9564 193.971 18.9564C197.939 18.9564 199.51 21.6021 199.51 24.5784H201.825V18.791C201.825 8.7873 198.849 4.57088 192.813 4.57088C180.825 4.57088 177.766 23.8343 168.011 23.8343H166.771V32.1845C166.771 38.5505 169.582 41.1961 177.519 41.1961H193.806C198.683 41.1961 200.172 42.6843 200.172 46.2394V48.7196H198.766C198.766 45.3299 197.691 44.5858 194.632 44.5858H162.802C162.141 44.5858 161.562 45.082 161.562 45.8259C161.562 46.4874 162.141 47.0661 162.802 47.0661H164.208V49.1329C164.208 56.0777 167.267 59.1367 173.55 59.1367Z"
            fill="#FFE83C" />
        <path
            d="M151.889 59.1367H162.802V23.5862H146.929V44.5858H140.976C140.315 44.5858 139.736 45.082 139.736 45.8259C139.736 46.4873 140.315 47.066 140.976 47.066H142.381V48.9676C142.381 55.9123 145.523 59.1367 151.889 59.1367ZM149.492 20.7752C152.799 20.7752 154.369 19.2871 154.369 16.1454C154.369 13.0038 152.799 11.5156 149.492 11.5156C146.184 11.5156 144.614 13.0038 144.614 16.1454C144.614 19.2871 146.184 20.7752 149.492 20.7752ZM160.239 20.7752C163.546 20.7752 165.117 19.2871 165.117 16.1454C165.117 13.0038 163.546 11.5156 160.239 11.5156C156.932 11.5156 155.361 13.0038 155.361 16.1454C155.361 19.2871 156.932 20.7752 160.239 20.7752ZM154.865 11.5156C157.842 11.5156 159.33 10.1102 159.33 7.21646C159.33 4.32284 157.842 3 154.865 3C151.806 3 150.318 4.32284 150.318 7.21646C150.318 10.1102 151.806 11.5156 154.865 11.5156Z"
            fill="#FFE83C" />
        <path
            d="M117 71.2073V74.0182C131.799 74.0182 140.976 71.2072 140.976 55.1682V23.5862H125.102V59.1366C125.102 68.5616 121.465 71.2073 117 71.2073Z"
            fill="#FFE83C" />
        <path
            d="M436.954 59.1367H444.064C449.521 59.1367 452.828 56.0776 452.828 48.5541V19.7832C452.828 17.7989 453.82 16.8068 455.804 16.8068V3.74416H436.954V59.1367Z"
            stroke="black" stroke-width="6" mask="url(#path-1-outside-1_79_8)" />
        <path
            d="M403.884 59.1367H432.986V39.8733C432.986 31.6058 430.671 27.72 421.163 27.72H399.419V26.1491H400.412C411.738 26.1491 416.203 18.9564 424.305 18.9564C428.273 18.9564 429.844 21.6021 429.844 24.5784H432.159V18.791C432.159 8.7873 429.183 4.57088 423.147 4.57088C411.159 4.57088 408.1 23.8343 398.345 23.8343H397.105V32.1845C397.105 38.5505 399.916 41.1961 407.852 41.1961H424.14C429.017 41.1961 430.505 42.6843 430.505 46.2394V48.7196H429.1C429.1 45.3299 428.025 44.5858 424.966 44.5858H393.136C392.475 44.5858 391.896 45.082 391.896 45.8259C391.896 46.4874 392.475 47.0661 393.136 47.0661H394.542V49.1329C394.542 56.0777 397.601 59.1367 403.884 59.1367Z"
            stroke="black" stroke-width="6" mask="url(#path-1-outside-1_79_8)" />
        <path
            d="M382.223 59.1367H393.136V23.5862H377.262V44.5859H371.31C370.648 44.5859 370.07 45.082 370.07 45.826C370.07 46.4874 370.648 47.0661 371.31 47.0661H372.715V48.9676C372.715 55.9124 375.857 59.1367 382.223 59.1367ZM379.825 20.7753C383.132 20.7753 384.703 19.2871 384.703 16.1455C384.703 13.0038 383.132 11.5157 379.825 11.5157C376.518 11.5157 374.948 13.0038 374.948 16.1455C374.948 19.2871 376.518 20.7753 379.825 20.7753ZM390.573 20.7753C393.88 20.7753 395.451 19.2871 395.451 16.1455C395.451 13.0038 393.88 11.5157 390.573 11.5157C387.266 11.5157 385.695 13.0038 385.695 16.1455C385.695 19.2871 387.266 20.7753 390.573 20.7753Z"
            stroke="black" stroke-width="6" mask="url(#path-1-outside-1_79_8)" />
        <path
            d="M364.282 59.1367H371.31V19.7832C371.31 17.7989 372.302 16.8068 374.286 16.8068V3.74416H355.436V48.5541C355.436 56.3256 358.991 59.1367 364.282 59.1367Z"
            stroke="black" stroke-width="6" mask="url(#path-1-outside-1_79_8)" />
        <path
            d="M338.57 59.1366L349.318 59.2195V39.6255C349.318 37.6413 350.31 36.6492 352.294 36.6492V23.5865H333.444V39.3774C333.444 43.3459 334.519 45.3301 336.173 47.3143L335.098 48.3064C333.527 46.2396 332.287 44.8341 330.055 44.5861V26.8935H314.181V44.5861H312.279C311.37 44.5861 310.791 43.9246 310.791 42.8498V26.8935H294.918V44.5861H289.296C288.634 44.5861 288.056 45.0822 288.056 45.8262C288.056 46.4876 288.634 47.0663 289.296 47.0663H290.701V49.1332C290.701 55.7472 293.76 59.1369 300.54 59.1369H308.063V47.0663H309.468V49.1332C309.468 55.7472 312.527 59.1369 318.976 59.1369H327.326V47.0663H328.732V49.1332C328.732 55.7472 331.46 59.1366 338.57 59.1366ZM316.744 24.0823C320.051 24.0823 321.622 22.5941 321.622 19.4524C321.622 16.3108 320.051 14.8226 316.744 14.8226C313.437 14.8226 311.866 16.3108 311.866 19.4524C311.866 22.5941 313.437 24.0823 316.744 24.0823ZM327.492 24.0823C330.799 24.0823 332.37 22.5941 332.37 19.4524C332.37 16.3108 330.799 14.8226 327.492 14.8226C324.185 14.8226 322.614 16.3108 322.614 19.4524C322.614 22.5941 324.185 24.0823 327.492 24.0823ZM322.118 14.8226C325.094 14.8226 326.582 13.4171 326.582 10.5234C326.582 7.62982 325.094 6.30698 322.118 6.30698C319.059 6.30698 317.571 7.62982 317.571 10.5234C317.571 13.4171 319.059 14.8226 322.118 14.8226Z"
            stroke="black" stroke-width="6" mask="url(#path-1-outside-1_79_8)" />
        <path
            d="M245.974 59.1367H289.296V39.6253C289.296 29.8695 284.583 23.0901 274.497 23.0901C263.749 23.0901 258.871 29.8696 258.871 36.4836C258.871 42.0229 261.847 44.9165 265.485 46.2393L264.989 47.4794C261.599 46.9004 260.525 44.5858 256.391 44.5858H236.135C230.017 44.5858 227.289 42.1881 227.289 38.4678C227.289 34.9127 229.769 33.1765 232.249 33.1765C234.978 33.0113 237.045 35.1608 237.045 38.3025V40.204H251.596V38.0544C251.596 27.968 246.966 23.5862 238.946 23.5862C231.505 23.5862 224.809 28.7948 224.809 39.2119C224.809 52.1093 233.242 59.1367 245.974 59.1367ZM274.497 19.7831C277.804 19.7831 279.375 18.295 279.375 15.1533C279.375 12.0117 277.804 10.5235 274.497 10.5235C271.19 10.5235 269.619 12.0117 269.619 15.1533C269.619 18.295 271.19 19.7831 274.497 19.7831ZM264.576 39.708C264.576 37.2277 266.395 35.1608 269.04 35.1608C271.769 35.1608 273.505 37.145 273.505 39.8733V44.5858H271.19C267.304 44.5858 264.576 42.767 264.576 39.708Z"
            stroke="black" stroke-width="6" mask="url(#path-1-outside-1_79_8)" />
        <path
            d="M173.55 59.1367H202.652V39.8733C202.652 31.6058 200.337 27.72 190.829 27.72H169.086V26.1491H170.078C181.404 26.1491 185.869 18.9564 193.971 18.9564C197.939 18.9564 199.51 21.6021 199.51 24.5784H201.825V18.791C201.825 8.7873 198.849 4.57088 192.813 4.57088C180.825 4.57088 177.766 23.8343 168.011 23.8343H166.771V32.1845C166.771 38.5505 169.582 41.1961 177.519 41.1961H193.806C198.683 41.1961 200.172 42.6843 200.172 46.2394V48.7196H198.766C198.766 45.3299 197.691 44.5858 194.632 44.5858H162.802C162.141 44.5858 161.562 45.082 161.562 45.8259C161.562 46.4874 162.141 47.0661 162.802 47.0661H164.208V49.1329C164.208 56.0777 167.267 59.1367 173.55 59.1367Z"
            stroke="black" stroke-width="6" mask="url(#path-1-outside-1_79_8)" />
        <path
            d="M151.889 59.1367H162.802V23.5862H146.929V44.5858H140.976C140.315 44.5858 139.736 45.082 139.736 45.8259C139.736 46.4873 140.315 47.066 140.976 47.066H142.381V48.9676C142.381 55.9123 145.523 59.1367 151.889 59.1367ZM149.492 20.7752C152.799 20.7752 154.369 19.2871 154.369 16.1454C154.369 13.0038 152.799 11.5156 149.492 11.5156C146.184 11.5156 144.614 13.0038 144.614 16.1454C144.614 19.2871 146.184 20.7752 149.492 20.7752ZM160.239 20.7752C163.546 20.7752 165.117 19.2871 165.117 16.1454C165.117 13.0038 163.546 11.5156 160.239 11.5156C156.932 11.5156 155.361 13.0038 155.361 16.1454C155.361 19.2871 156.932 20.7752 160.239 20.7752ZM154.865 11.5156C157.842 11.5156 159.33 10.1102 159.33 7.21646C159.33 4.32284 157.842 3 154.865 3C151.806 3 150.318 4.32284 150.318 7.21646C150.318 10.1102 151.806 11.5156 154.865 11.5156Z"
            stroke="black" stroke-width="6" mask="url(#path-1-outside-1_79_8)" />
        <path
            d="M117 71.2073V74.0182C131.799 74.0182 140.976 71.2072 140.976 55.1682V23.5862H125.102V59.1366C125.102 68.5616 121.465 71.2073 117 71.2073Z"
            stroke="black" stroke-width="6" mask="url(#path-1-outside-1_79_8)" />
        <mask id="path-2-outside-2_79_8" maskUnits="userSpaceOnUse" x="7" y="62.9841" width="558" height="62"
            fill="black">
            <rect fill="white" x="7" y="62.9841" width="558" height="62" />
            <path
                d="M10 120.385H33.8932C49.4362 120.385 59.3573 113.357 59.3573 94.4246C59.3573 75.492 49.4362 68.2991 33.8932 68.2991H10V83.0154C11.9842 83.0154 12.8936 83.7594 12.8936 85.0822V103.602C12.8936 104.924 11.9842 105.668 10 105.668V120.385ZM29.7594 105.751V82.9326H32.4877C38.275 82.9326 41.4167 86.5705 41.4167 94.3419C41.4167 102.113 38.275 105.751 32.4877 105.751H29.7594Z" />
            <path
                d="M61.6722 120.385H82.6718V107.818C80.6875 107.818 79.7781 107.074 79.7781 105.751V83.1806H61.6722V95.7473C63.6564 95.7473 64.5658 96.4914 64.5658 97.8142V105.751C64.5658 107.074 63.6564 107.818 61.6722 107.818V120.385ZM70.8492 80.3697C76.0577 80.3697 78.6207 76.732 78.6207 73.1769C78.6207 69.4565 76.0577 65.9841 70.8492 65.9841C65.6406 65.9841 63.1603 69.4565 63.1603 73.1769C63.1603 76.732 65.806 80.3697 70.8492 80.3697Z" />
            <path
                d="M111.608 121.046C118.884 121.046 123.761 117.574 123.761 110.629C123.761 103.353 118.718 100.46 108.384 100.46H105.159C100.86 100.46 98.8761 99.4677 98.8761 97.1528C98.8761 95.1686 100.778 94.3419 102.845 94.3419C105.325 94.3419 107.061 95.2512 107.061 98.5582H123.183V83.1806H110.12V94.4246H108.88V92.3576C108.88 84.8341 104.746 82.5192 97.3879 82.5192C90.3605 82.5192 85.5653 85.7436 85.5653 92.275C85.5653 99.3024 90.4432 102.609 100.53 102.692L104.002 102.775C107.805 102.858 109.707 103.767 109.707 105.999C109.707 107.984 108.053 109.058 105.821 109.058C103.093 109.058 101.191 108.066 101.191 104.759H84.9866V120.385H98.0493V108.893H99.3722V110.629C99.3722 118.566 103.837 121.046 111.608 121.046Z" />
            <path
                d="M147.903 121.046C162.04 121.046 167.497 115.672 167.497 105.999V104.18H164.686C164.686 106.909 160.717 109.389 153.028 109.389C144.844 109.389 141.454 105.916 141.454 101.039C141.454 97.5662 142.942 94.9206 146.332 94.9206C149.804 94.9206 150.962 97.1528 150.962 101.039H167.083V83.1806H154.021V94.5072H152.78V92.523C152.78 86.0743 148.316 82.5192 141.785 82.5192C133.765 82.5192 125.828 87.9759 125.828 101.121C125.828 115.093 135.419 121.046 147.903 121.046Z" />
            <path
                d="M190.48 121.046C202.799 121.046 211.067 115.341 211.067 101.783C211.067 88.2239 202.799 82.5192 190.48 82.5192C178.079 82.5192 169.812 88.2239 169.812 101.783C169.812 115.341 178.079 121.046 190.48 121.046ZM190.48 108.645C186.843 108.645 185.437 105.503 185.437 101.783C185.437 98.0622 186.843 94.9206 190.48 94.9206C194.118 94.9206 195.441 98.0622 195.441 101.783C195.441 105.503 194.118 108.645 190.48 108.645Z" />
            <path
                d="M217.846 98.3103L227.023 120.385H241.243L250.42 98.3103C251.247 96.4914 252.239 95.7473 254.719 95.7473V83.1806H235.208V95.7473C237.192 95.7473 238.102 96.4915 237.357 98.4757L235.952 103.85C235.125 105.916 234.795 107.157 234.795 108.727H233.554C233.554 107.157 233.224 105.916 232.397 103.85L230.991 98.4757C230.247 96.5741 231.405 95.7473 233.306 95.7473V83.1806H213.382V95.7473C215.862 95.7473 217.019 96.4087 217.846 98.3103Z" />
            <path
                d="M279.191 121.046C291.427 121.046 298.207 116.334 298.207 106.826V105.007H295.396C295.396 107.818 290.931 109.389 283.738 109.389C275.967 109.389 273.156 107.157 272.743 102.94H298.041V100.956C298.041 88.7199 289.443 82.5192 277.207 82.5192C265.136 82.5192 257.034 88.8026 257.034 101.783C257.034 115.259 266.211 121.046 279.191 121.046ZM272.66 100.625C272.991 97.0702 274.396 94.6726 277.703 94.6726C281.341 94.6726 282.664 97.4008 282.664 100.625H272.66Z" />
            <path
                d="M300.604 120.385H321.19V107.818C319.454 107.818 318.71 107.074 318.71 105.751V99.9638C318.71 96.8221 320.364 95.1686 322.927 95.1686C325.242 95.1686 327.06 96.9048 327.06 100.212V101.121H341.281V99.6331C341.281 87.2318 338.222 82.5192 330.202 82.5192C322.017 82.5192 316.891 87.3971 316.891 98.7236V101.121H315.651C315.651 91.8616 316.478 89.216 318.71 85.3302V83.1806H300.604V95.7473C302.588 95.7473 303.498 96.4914 303.498 97.8142V105.751C303.498 107.074 302.588 107.818 300.604 107.818V120.385Z" />
            <path
                d="M361.453 120.385H381.957V107.818C380.303 107.818 379.559 107.074 379.559 105.751V101.121C379.559 96.9048 381.543 95.1686 384.189 95.1686C386.835 95.1686 388.819 96.9048 388.819 100.129V105.751C388.819 107.074 388.075 107.818 386.421 107.818V120.385H406.429V107.818C404.775 107.818 404.031 107.074 404.031 105.751V101.121C404.031 96.9048 406.015 95.1686 408.661 95.1686C411.307 95.1686 413.291 96.9048 413.291 100.129V105.751C413.291 107.074 412.547 107.818 410.893 107.818V120.385H431.397V107.818C429.413 107.818 428.503 107.074 428.503 105.751V99.0543C428.42 86.9837 424.948 82.5192 415.606 82.5192C406.842 82.5192 402.212 87.149 402.212 98.0622V101.121H400.972V98.0622C400.807 87.3144 397.583 82.5192 389.976 82.5192C382.122 82.5192 377.74 87.8105 377.74 98.393V101.121H376.5C376.5 91.8616 377.327 89.216 379.559 85.3302V83.1806H361.453V95.7473C363.438 95.7473 364.347 96.4914 364.347 97.8142V105.751C364.347 107.074 363.438 107.818 361.453 107.818V120.385Z" />
            <path
                d="M454.381 121.046C466.699 121.046 474.967 115.341 474.967 101.783C474.967 88.2239 466.699 82.5192 454.381 82.5192C441.979 82.5192 433.712 88.2239 433.712 101.783C433.712 115.341 441.979 121.046 454.381 121.046ZM454.381 108.645C450.743 108.645 449.337 105.503 449.337 101.783C449.337 98.0622 450.743 94.9206 454.381 94.9206C458.018 94.9206 459.341 98.0622 459.341 101.783C459.341 105.503 458.018 108.645 454.381 108.645Z" />
            <path
                d="M477.282 120.385H497.868V107.818C496.132 107.818 495.388 107.074 495.388 105.751V99.9638C495.388 96.8221 497.041 95.1686 499.604 95.1686C501.919 95.1686 503.738 96.9048 503.738 100.212V101.121H517.958V99.6331C517.958 87.2318 514.899 82.5192 506.88 82.5192C498.695 82.5192 493.569 87.3971 493.569 98.7236V101.121H492.329C492.329 91.8616 493.155 89.216 495.388 85.3302V83.1806H477.282V95.7473C479.266 95.7473 480.175 96.4914 480.175 97.8142V105.751C480.175 107.074 479.266 107.818 477.282 107.818V120.385Z" />
            <path
                d="M542.099 121.046C554.335 121.046 561.115 116.334 561.115 106.826V105.007H558.304C558.304 107.818 553.839 109.389 546.647 109.389C538.875 109.389 536.064 107.157 535.651 102.94H560.949V100.956C560.949 88.7199 552.351 82.5192 540.115 82.5192C528.045 82.5192 519.942 88.8026 519.942 101.783C519.942 115.259 529.119 121.046 542.099 121.046ZM535.568 100.625C535.899 97.0702 537.304 94.6726 540.611 94.6726C544.249 94.6726 545.572 97.4008 545.572 100.625H535.568Z" />
        </mask>
        <path
            d="M10 120.385H33.8932C49.4362 120.385 59.3573 113.357 59.3573 94.4246C59.3573 75.492 49.4362 68.2991 33.8932 68.2991H10V83.0154C11.9842 83.0154 12.8936 83.7594 12.8936 85.0822V103.602C12.8936 104.924 11.9842 105.668 10 105.668V120.385ZM29.7594 105.751V82.9326H32.4877C38.275 82.9326 41.4167 86.5705 41.4167 94.3419C41.4167 102.113 38.275 105.751 32.4877 105.751H29.7594Z"
            fill="#D02B2B" />
        <path
            d="M61.6722 120.385H82.6718V107.818C80.6875 107.818 79.7781 107.074 79.7781 105.751V83.1806H61.6722V95.7473C63.6564 95.7473 64.5658 96.4914 64.5658 97.8142V105.751C64.5658 107.074 63.6564 107.818 61.6722 107.818V120.385ZM70.8492 80.3697C76.0577 80.3697 78.6207 76.732 78.6207 73.1769C78.6207 69.4565 76.0577 65.9841 70.8492 65.9841C65.6406 65.9841 63.1603 69.4565 63.1603 73.1769C63.1603 76.732 65.806 80.3697 70.8492 80.3697Z"
            fill="#D02B2B" />
        <path
            d="M111.608 121.046C118.884 121.046 123.761 117.574 123.761 110.629C123.761 103.353 118.718 100.46 108.384 100.46H105.159C100.86 100.46 98.8761 99.4677 98.8761 97.1528C98.8761 95.1686 100.778 94.3419 102.845 94.3419C105.325 94.3419 107.061 95.2512 107.061 98.5582H123.183V83.1806H110.12V94.4246H108.88V92.3576C108.88 84.8341 104.746 82.5192 97.3879 82.5192C90.3605 82.5192 85.5653 85.7436 85.5653 92.275C85.5653 99.3024 90.4432 102.609 100.53 102.692L104.002 102.775C107.805 102.858 109.707 103.767 109.707 105.999C109.707 107.984 108.053 109.058 105.821 109.058C103.093 109.058 101.191 108.066 101.191 104.759H84.9866V120.385H98.0493V108.893H99.3722V110.629C99.3722 118.566 103.837 121.046 111.608 121.046Z"
            fill="#D02B2B" />
        <path
            d="M147.903 121.046C162.04 121.046 167.497 115.672 167.497 105.999V104.18H164.686C164.686 106.909 160.717 109.389 153.028 109.389C144.844 109.389 141.454 105.916 141.454 101.039C141.454 97.5662 142.942 94.9206 146.332 94.9206C149.804 94.9206 150.962 97.1528 150.962 101.039H167.083V83.1806H154.021V94.5072H152.78V92.523C152.78 86.0743 148.316 82.5192 141.785 82.5192C133.765 82.5192 125.828 87.9759 125.828 101.121C125.828 115.093 135.419 121.046 147.903 121.046Z"
            fill="#D02B2B" />
        <path
            d="M190.48 121.046C202.799 121.046 211.067 115.341 211.067 101.783C211.067 88.2239 202.799 82.5192 190.48 82.5192C178.079 82.5192 169.812 88.2239 169.812 101.783C169.812 115.341 178.079 121.046 190.48 121.046ZM190.48 108.645C186.843 108.645 185.437 105.503 185.437 101.783C185.437 98.0622 186.843 94.9206 190.48 94.9206C194.118 94.9206 195.441 98.0622 195.441 101.783C195.441 105.503 194.118 108.645 190.48 108.645Z"
            fill="#D02B2B" />
        <path
            d="M217.846 98.3103L227.023 120.385H241.243L250.42 98.3103C251.247 96.4914 252.239 95.7473 254.719 95.7473V83.1806H235.208V95.7473C237.192 95.7473 238.102 96.4915 237.357 98.4757L235.952 103.85C235.125 105.916 234.795 107.157 234.795 108.727H233.554C233.554 107.157 233.224 105.916 232.397 103.85L230.991 98.4757C230.247 96.5741 231.405 95.7473 233.306 95.7473V83.1806H213.382V95.7473C215.862 95.7473 217.019 96.4087 217.846 98.3103Z"
            fill="#D02B2B" />
        <path
            d="M279.191 121.046C291.427 121.046 298.207 116.334 298.207 106.826V105.007H295.396C295.396 107.818 290.931 109.389 283.738 109.389C275.967 109.389 273.156 107.157 272.743 102.94H298.041V100.956C298.041 88.7199 289.443 82.5192 277.207 82.5192C265.136 82.5192 257.034 88.8026 257.034 101.783C257.034 115.259 266.211 121.046 279.191 121.046ZM272.66 100.625C272.991 97.0702 274.396 94.6726 277.703 94.6726C281.341 94.6726 282.664 97.4008 282.664 100.625H272.66Z"
            fill="#D02B2B" />
        <path
            d="M300.604 120.385H321.19V107.818C319.454 107.818 318.71 107.074 318.71 105.751V99.9638C318.71 96.8221 320.364 95.1686 322.927 95.1686C325.242 95.1686 327.06 96.9048 327.06 100.212V101.121H341.281V99.6331C341.281 87.2318 338.222 82.5192 330.202 82.5192C322.017 82.5192 316.891 87.3971 316.891 98.7236V101.121H315.651C315.651 91.8616 316.478 89.216 318.71 85.3302V83.1806H300.604V95.7473C302.588 95.7473 303.498 96.4914 303.498 97.8142V105.751C303.498 107.074 302.588 107.818 300.604 107.818V120.385Z"
            fill="#D02B2B" />
        <path
            d="M361.453 120.385H381.957V107.818C380.303 107.818 379.559 107.074 379.559 105.751V101.121C379.559 96.9048 381.543 95.1686 384.189 95.1686C386.835 95.1686 388.819 96.9048 388.819 100.129V105.751C388.819 107.074 388.075 107.818 386.421 107.818V120.385H406.429V107.818C404.775 107.818 404.031 107.074 404.031 105.751V101.121C404.031 96.9048 406.015 95.1686 408.661 95.1686C411.307 95.1686 413.291 96.9048 413.291 100.129V105.751C413.291 107.074 412.547 107.818 410.893 107.818V120.385H431.397V107.818C429.413 107.818 428.503 107.074 428.503 105.751V99.0543C428.42 86.9837 424.948 82.5192 415.606 82.5192C406.842 82.5192 402.212 87.149 402.212 98.0622V101.121H400.972V98.0622C400.807 87.3144 397.583 82.5192 389.976 82.5192C382.122 82.5192 377.74 87.8105 377.74 98.393V101.121H376.5C376.5 91.8616 377.327 89.216 379.559 85.3302V83.1806H361.453V95.7473C363.438 95.7473 364.347 96.4914 364.347 97.8142V105.751C364.347 107.074 363.438 107.818 361.453 107.818V120.385Z"
            fill="#D02B2B" />
        <path
            d="M454.381 121.046C466.699 121.046 474.967 115.341 474.967 101.783C474.967 88.2239 466.699 82.5192 454.381 82.5192C441.979 82.5192 433.712 88.2239 433.712 101.783C433.712 115.341 441.979 121.046 454.381 121.046ZM454.381 108.645C450.743 108.645 449.337 105.503 449.337 101.783C449.337 98.0622 450.743 94.9206 454.381 94.9206C458.018 94.9206 459.341 98.0622 459.341 101.783C459.341 105.503 458.018 108.645 454.381 108.645Z"
            fill="#D02B2B" />
        <path
            d="M477.282 120.385H497.868V107.818C496.132 107.818 495.388 107.074 495.388 105.751V99.9638C495.388 96.8221 497.041 95.1686 499.604 95.1686C501.919 95.1686 503.738 96.9048 503.738 100.212V101.121H517.958V99.6331C517.958 87.2318 514.899 82.5192 506.88 82.5192C498.695 82.5192 493.569 87.3971 493.569 98.7236V101.121H492.329C492.329 91.8616 493.155 89.216 495.388 85.3302V83.1806H477.282V95.7473C479.266 95.7473 480.175 96.4914 480.175 97.8142V105.751C480.175 107.074 479.266 107.818 477.282 107.818V120.385Z"
            fill="#D02B2B" />
        <path
            d="M542.099 121.046C554.335 121.046 561.115 116.334 561.115 106.826V105.007H558.304C558.304 107.818 553.839 109.389 546.647 109.389C538.875 109.389 536.064 107.157 535.651 102.94H560.949V100.956C560.949 88.7199 552.351 82.5192 540.115 82.5192C528.045 82.5192 519.942 88.8026 519.942 101.783C519.942 115.259 529.119 121.046 542.099 121.046ZM535.568 100.625C535.899 97.0702 537.304 94.6726 540.611 94.6726C544.249 94.6726 545.572 97.4008 545.572 100.625H535.568Z"
            fill="#D02B2B" />
        <path
            d="M10 120.385H33.8932C49.4362 120.385 59.3573 113.357 59.3573 94.4246C59.3573 75.492 49.4362 68.2991 33.8932 68.2991H10V83.0154C11.9842 83.0154 12.8936 83.7594 12.8936 85.0822V103.602C12.8936 104.924 11.9842 105.668 10 105.668V120.385ZM29.7594 105.751V82.9326H32.4877C38.275 82.9326 41.4167 86.5705 41.4167 94.3419C41.4167 102.113 38.275 105.751 32.4877 105.751H29.7594Z"
            stroke="black" stroke-width="6" mask="url(#path-2-outside-2_79_8)" />
        <path
            d="M61.6722 120.385H82.6718V107.818C80.6875 107.818 79.7781 107.074 79.7781 105.751V83.1806H61.6722V95.7473C63.6564 95.7473 64.5658 96.4914 64.5658 97.8142V105.751C64.5658 107.074 63.6564 107.818 61.6722 107.818V120.385ZM70.8492 80.3697C76.0577 80.3697 78.6207 76.732 78.6207 73.1769C78.6207 69.4565 76.0577 65.9841 70.8492 65.9841C65.6406 65.9841 63.1603 69.4565 63.1603 73.1769C63.1603 76.732 65.806 80.3697 70.8492 80.3697Z"
            stroke="black" stroke-width="6" mask="url(#path-2-outside-2_79_8)" />
        <path
            d="M111.608 121.046C118.884 121.046 123.761 117.574 123.761 110.629C123.761 103.353 118.718 100.46 108.384 100.46H105.159C100.86 100.46 98.8761 99.4677 98.8761 97.1528C98.8761 95.1686 100.778 94.3419 102.845 94.3419C105.325 94.3419 107.061 95.2512 107.061 98.5582H123.183V83.1806H110.12V94.4246H108.88V92.3576C108.88 84.8341 104.746 82.5192 97.3879 82.5192C90.3605 82.5192 85.5653 85.7436 85.5653 92.275C85.5653 99.3024 90.4432 102.609 100.53 102.692L104.002 102.775C107.805 102.858 109.707 103.767 109.707 105.999C109.707 107.984 108.053 109.058 105.821 109.058C103.093 109.058 101.191 108.066 101.191 104.759H84.9866V120.385H98.0493V108.893H99.3722V110.629C99.3722 118.566 103.837 121.046 111.608 121.046Z"
            stroke="black" stroke-width="6" mask="url(#path-2-outside-2_79_8)" />
        <path
            d="M147.903 121.046C162.04 121.046 167.497 115.672 167.497 105.999V104.18H164.686C164.686 106.909 160.717 109.389 153.028 109.389C144.844 109.389 141.454 105.916 141.454 101.039C141.454 97.5662 142.942 94.9206 146.332 94.9206C149.804 94.9206 150.962 97.1528 150.962 101.039H167.083V83.1806H154.021V94.5072H152.78V92.523C152.78 86.0743 148.316 82.5192 141.785 82.5192C133.765 82.5192 125.828 87.9759 125.828 101.121C125.828 115.093 135.419 121.046 147.903 121.046Z"
            stroke="black" stroke-width="6" mask="url(#path-2-outside-2_79_8)" />
        <path
            d="M190.48 121.046C202.799 121.046 211.067 115.341 211.067 101.783C211.067 88.2239 202.799 82.5192 190.48 82.5192C178.079 82.5192 169.812 88.2239 169.812 101.783C169.812 115.341 178.079 121.046 190.48 121.046ZM190.48 108.645C186.843 108.645 185.437 105.503 185.437 101.783C185.437 98.0622 186.843 94.9206 190.48 94.9206C194.118 94.9206 195.441 98.0622 195.441 101.783C195.441 105.503 194.118 108.645 190.48 108.645Z"
            stroke="black" stroke-width="6" mask="url(#path-2-outside-2_79_8)" />
        <path
            d="M217.846 98.3103L227.023 120.385H241.243L250.42 98.3103C251.247 96.4914 252.239 95.7473 254.719 95.7473V83.1806H235.208V95.7473C237.192 95.7473 238.102 96.4915 237.357 98.4757L235.952 103.85C235.125 105.916 234.795 107.157 234.795 108.727H233.554C233.554 107.157 233.224 105.916 232.397 103.85L230.991 98.4757C230.247 96.5741 231.405 95.7473 233.306 95.7473V83.1806H213.382V95.7473C215.862 95.7473 217.019 96.4087 217.846 98.3103Z"
            stroke="black" stroke-width="6" mask="url(#path-2-outside-2_79_8)" />
        <path
            d="M279.191 121.046C291.427 121.046 298.207 116.334 298.207 106.826V105.007H295.396C295.396 107.818 290.931 109.389 283.738 109.389C275.967 109.389 273.156 107.157 272.743 102.94H298.041V100.956C298.041 88.7199 289.443 82.5192 277.207 82.5192C265.136 82.5192 257.034 88.8026 257.034 101.783C257.034 115.259 266.211 121.046 279.191 121.046ZM272.66 100.625C272.991 97.0702 274.396 94.6726 277.703 94.6726C281.341 94.6726 282.664 97.4008 282.664 100.625H272.66Z"
            stroke="black" stroke-width="6" mask="url(#path-2-outside-2_79_8)" />
        <path
            d="M300.604 120.385H321.19V107.818C319.454 107.818 318.71 107.074 318.71 105.751V99.9638C318.71 96.8221 320.364 95.1686 322.927 95.1686C325.242 95.1686 327.06 96.9048 327.06 100.212V101.121H341.281V99.6331C341.281 87.2318 338.222 82.5192 330.202 82.5192C322.017 82.5192 316.891 87.3971 316.891 98.7236V101.121H315.651C315.651 91.8616 316.478 89.216 318.71 85.3302V83.1806H300.604V95.7473C302.588 95.7473 303.498 96.4914 303.498 97.8142V105.751C303.498 107.074 302.588 107.818 300.604 107.818V120.385Z"
            stroke="black" stroke-width="6" mask="url(#path-2-outside-2_79_8)" />
        <path
            d="M361.453 120.385H381.957V107.818C380.303 107.818 379.559 107.074 379.559 105.751V101.121C379.559 96.9048 381.543 95.1686 384.189 95.1686C386.835 95.1686 388.819 96.9048 388.819 100.129V105.751C388.819 107.074 388.075 107.818 386.421 107.818V120.385H406.429V107.818C404.775 107.818 404.031 107.074 404.031 105.751V101.121C404.031 96.9048 406.015 95.1686 408.661 95.1686C411.307 95.1686 413.291 96.9048 413.291 100.129V105.751C413.291 107.074 412.547 107.818 410.893 107.818V120.385H431.397V107.818C429.413 107.818 428.503 107.074 428.503 105.751V99.0543C428.42 86.9837 424.948 82.5192 415.606 82.5192C406.842 82.5192 402.212 87.149 402.212 98.0622V101.121H400.972V98.0622C400.807 87.3144 397.583 82.5192 389.976 82.5192C382.122 82.5192 377.74 87.8105 377.74 98.393V101.121H376.5C376.5 91.8616 377.327 89.216 379.559 85.3302V83.1806H361.453V95.7473C363.438 95.7473 364.347 96.4914 364.347 97.8142V105.751C364.347 107.074 363.438 107.818 361.453 107.818V120.385Z"
            stroke="black" stroke-width="6" mask="url(#path-2-outside-2_79_8)" />
        <path
            d="M454.381 121.046C466.699 121.046 474.967 115.341 474.967 101.783C474.967 88.2239 466.699 82.5192 454.381 82.5192C441.979 82.5192 433.712 88.2239 433.712 101.783C433.712 115.341 441.979 121.046 454.381 121.046ZM454.381 108.645C450.743 108.645 449.337 105.503 449.337 101.783C449.337 98.0622 450.743 94.9206 454.381 94.9206C458.018 94.9206 459.341 98.0622 459.341 101.783C459.341 105.503 458.018 108.645 454.381 108.645Z"
            stroke="black" stroke-width="6" mask="url(#path-2-outside-2_79_8)" />
        <path
            d="M477.282 120.385H497.868V107.818C496.132 107.818 495.388 107.074 495.388 105.751V99.9638C495.388 96.8221 497.041 95.1686 499.604 95.1686C501.919 95.1686 503.738 96.9048 503.738 100.212V101.121H517.958V99.6331C517.958 87.2318 514.899 82.5192 506.88 82.5192C498.695 82.5192 493.569 87.3971 493.569 98.7236V101.121H492.329C492.329 91.8616 493.155 89.216 495.388 85.3302V83.1806H477.282V95.7473C479.266 95.7473 480.175 96.4914 480.175 97.8142V105.751C480.175 107.074 479.266 107.818 477.282 107.818V120.385Z"
            stroke="black" stroke-width="6" mask="url(#path-2-outside-2_79_8)" />
        <path
            d="M542.099 121.046C554.335 121.046 561.115 116.334 561.115 106.826V105.007H558.304C558.304 107.818 553.839 109.389 546.647 109.389C538.875 109.389 536.064 107.157 535.651 102.94H560.949V100.956C560.949 88.7199 552.351 82.5192 540.115 82.5192C528.045 82.5192 519.942 88.8026 519.942 101.783C519.942 115.259 529.119 121.046 542.099 121.046ZM535.568 100.625C535.899 97.0702 537.304 94.6726 540.611 94.6726C544.249 94.6726 545.572 97.4008 545.572 100.625H535.568Z"
            stroke="black" stroke-width="6" mask="url(#path-2-outside-2_79_8)" />
    </g>
    <defs>
        <filter id="filter0_d_79_8" x="0" y="0" width="564.115" height="131.046" filterUnits="userSpaceOnUse"
            color-interpolation-filters="sRGB">
            <feFlood flood-opacity="0" result="BackgroundImageFix" />
            <feColorMatrix in="SourceAlpha" type="matrix" values="0 0 0 0 0 0 0 0 0 0 0 0 0 0 0 0 0 0 127 0"
                result="hardAlpha" />
            <feOffset dx="-7" dy="7" />
            <feComposite in2="hardAlpha" operator="out" />
            <feColorMatrix type="matrix" values="0 0 0 0 0 0 0 0 0 0 0 0 0 0 0 0 0 0 1 0" />
            <feBlend mode="normal" in2="BackgroundImageFix" result="effect1_dropShadow_79_8" />
            <feBlend mode="normal" in="SourceGraphic" in2="effect1_dropShadow_79_8" result="shape" />
        </filter>
    </defs>
</svg>