<svg width="261" height="188" viewBox="0 0 261 188" fill="none" xmlns="http://www.w3.org/2000/svg">
<g filter="url(#filter0_d_75_5)">
<mask id="path-1-outside-1_75_5" maskUnits="userSpaceOnUse" x="7" y="0" width="254" height="87" fill="black">
<rect fill="white" x="7" width="254" height="87"/>
<path d="M235.2 83.2999H243.8C250.4 83.2999 254.4 79.5999 254.4 70.4999V35.7C254.4 33.3 255.6 32.1 258 32.1V16.3H235.2V83.2999Z"/>
<path d="M189.2 83.2999H227.4V35.7C227.4 33.3 228.6 32.1 231 32.1V16.3H208.2V59.3999C208.2 64.1999 209.6 66.5999 211.5 68.9999L210.2 70.1999C208.2 67.5999 206.6 65.6999 203.3 65.6999H200.4V29H181.2V48.3999C181.2 55.3999 185 57.3999 188.9 58.4999C193.1 59.6999 197.4 59.8 197.4 64.4V65.6999H188.5C184.8 65.6999 181.2 64.7999 181.2 61.6999H178.2V70.2999C178.2 79.2999 182.1 83.2999 189.2 83.2999ZM179.1 25.6H202.5V17.1H189.9C187.3 17.1 185.4 16.1 185.4 13.8C185.4 12.2 186.7 10.6 188.5 10.6C190.6 10.6 191.8 12.1 191.8 13.6V14.5H202.5V13.2C202.5 7.19998 199.3 3 192.4 3C184.8 3 181.5 7.20001 181.5 11.5C181.5 14 182.3 15.9 183.5 17.1H179.1V25.6Z"/>
<path d="M158.8 83.2999L171.8 83.4001V59.7001C171.8 57.3001 173 56.1001 175.4 56.1001V40.3001H152.6V59.4001C152.6 64.2001 153.9 66.6001 155.9 69.0001L154.6 70.2001C152.7 67.7 151.2 66.0001 148.5 65.7001V44.3001H129.3V65.7001H127C125.9 65.7001 125.2 64.9001 125.2 63.6001V44.3001H106V65.7001H99.1999C98.3999 65.7001 97.6999 66.3001 97.6999 67.2001C97.6999 68.0001 98.3999 68.7001 99.1999 68.7001H100.9V71.2001C100.9 79.2001 104.6 83.3001 112.8 83.3001H121.9V68.7001H123.6V71.2001C123.6 79.2001 127.3 83.3001 135.1 83.3001H145.2V68.7001H146.9V71.2001C146.9 79.2001 150.2 83.2999 158.8 83.2999Z"/>
<path d="M86 83.3H99.1999V40.3H79.9999V65.7H72.8C71.9999 65.7 71.3 66.3 71.3 67.2C71.3 68 71.9999 68.7 72.8 68.7H74.4999V71C74.4999 79.4 78.3 83.3 86 83.3ZM77.8999 36.9001H101.3V28.4H88.6999C86.0999 28.4 84.2 27.4 84.2 25.1C84.2 23.5 85.4999 21.9001 87.2999 21.9001C89.4 21.9001 90.5999 23.4001 90.5999 24.9V25.8H101.3V24.5C101.3 18.5 98.0999 14.3 91.2 14.3C83.6 14.3 80.2999 18.5001 80.2999 22.8001C80.2999 25.3 81.0999 27.2 82.2999 28.4H77.8999V36.9001Z"/>
<path d="M59.9999 83.2999H72.7999V35.7C72.7999 33.3 73.9999 32.1 76.3999 32.1V16.3H53.5999V59.4C53.5999 64.2 54.9 66.5999 56.8999 68.9999L55.6 70.2C53.6 67.5999 51.8 65.6999 48.5 65.6999H46.7999C45.9999 65.6999 45.2999 66.3 45.2999 67.2C45.2999 68 45.9999 68.7 46.7999 68.7H48.5V71C48.5 79.3999 52.2999 83.2999 59.9999 83.2999Z"/>
<path d="M18.8 83.2999C22.4 83.2999 25.9 80.4999 25.9 75.3999V68.7H27.6V72.9C27.6 79.8 31.1 83.2999 38 83.2999H46.8V39.7H28.4C15.9 39.7 10 47.9 10 56.7V67.5999C10 79.7 12.8 83.2999 18.8 83.2999ZM24.8 36.3C28.8 36.3 30.6999 34.5 30.6999 30.7C30.6999 26.9 28.8 25.1 24.8 25.1C20.8 25.1 18.9 26.9 18.9 30.7C18.9 34.5 20.8 36.3 24.8 36.3ZM37.7999 36.3C41.7999 36.3 43.6999 34.5 43.6999 30.7C43.6999 26.9 41.7999 25.1 37.7999 25.1C33.8 25.1 31.9 26.9 31.9 30.7C31.9 34.5 33.8 36.3 37.7999 36.3ZM16.9 60C16.9 57.2 19.2 54.7 23.8 54.7H27.7L27.6002 65.7H23.8002C19.2002 65.7 16.9 63.6 16.9 60Z"/>
</mask>
<path d="M235.2 83.2999H243.8C250.4 83.2999 254.4 79.5999 254.4 70.4999V35.7C254.4 33.3 255.6 32.1 258 32.1V16.3H235.2V83.2999Z" fill="#FFE83C"/>
<path d="M189.2 83.2999H227.4V35.7C227.4 33.3 228.6 32.1 231 32.1V16.3H208.2V59.3999C208.2 64.1999 209.6 66.5999 211.5 68.9999L210.2 70.1999C208.2 67.5999 206.6 65.6999 203.3 65.6999H200.4V29H181.2V48.3999C181.2 55.3999 185 57.3999 188.9 58.4999C193.1 59.6999 197.4 59.8 197.4 64.4V65.6999H188.5C184.8 65.6999 181.2 64.7999 181.2 61.6999H178.2V70.2999C178.2 79.2999 182.1 83.2999 189.2 83.2999ZM179.1 25.6H202.5V17.1H189.9C187.3 17.1 185.4 16.1 185.4 13.8C185.4 12.2 186.7 10.6 188.5 10.6C190.6 10.6 191.8 12.1 191.8 13.6V14.5H202.5V13.2C202.5 7.19998 199.3 3 192.4 3C184.8 3 181.5 7.20001 181.5 11.5C181.5 14 182.3 15.9 183.5 17.1H179.1V25.6Z" fill="#FFE83C"/>
<path d="M158.8 83.2999L171.8 83.4001V59.7001C171.8 57.3001 173 56.1001 175.4 56.1001V40.3001H152.6V59.4001C152.6 64.2001 153.9 66.6001 155.9 69.0001L154.6 70.2001C152.7 67.7 151.2 66.0001 148.5 65.7001V44.3001H129.3V65.7001H127C125.9 65.7001 125.2 64.9001 125.2 63.6001V44.3001H106V65.7001H99.1999C98.3999 65.7001 97.6999 66.3001 97.6999 67.2001C97.6999 68.0001 98.3999 68.7001 99.1999 68.7001H100.9V71.2001C100.9 79.2001 104.6 83.3001 112.8 83.3001H121.9V68.7001H123.6V71.2001C123.6 79.2001 127.3 83.3001 135.1 83.3001H145.2V68.7001H146.9V71.2001C146.9 79.2001 150.2 83.2999 158.8 83.2999Z" fill="#FFE83C"/>
<path d="M86 83.3H99.1999V40.3H79.9999V65.7H72.8C71.9999 65.7 71.3 66.3 71.3 67.2C71.3 68 71.9999 68.7 72.8 68.7H74.4999V71C74.4999 79.4 78.3 83.3 86 83.3ZM77.8999 36.9001H101.3V28.4H88.6999C86.0999 28.4 84.2 27.4 84.2 25.1C84.2 23.5 85.4999 21.9001 87.2999 21.9001C89.4 21.9001 90.5999 23.4001 90.5999 24.9V25.8H101.3V24.5C101.3 18.5 98.0999 14.3 91.2 14.3C83.6 14.3 80.2999 18.5001 80.2999 22.8001C80.2999 25.3 81.0999 27.2 82.2999 28.4H77.8999V36.9001Z" fill="#FFE83C"/>
<path d="M59.9999 83.2999H72.7999V35.7C72.7999 33.3 73.9999 32.1 76.3999 32.1V16.3H53.5999V59.4C53.5999 64.2 54.9 66.5999 56.8999 68.9999L55.6 70.2C53.6 67.5999 51.8 65.6999 48.5 65.6999H46.7999C45.9999 65.6999 45.2999 66.3 45.2999 67.2C45.2999 68 45.9999 68.7 46.7999 68.7H48.5V71C48.5 79.3999 52.2999 83.2999 59.9999 83.2999Z" fill="#FFE83C"/>
<path d="M18.8 83.2999C22.4 83.2999 25.9 80.4999 25.9 75.3999V68.7H27.6V72.9C27.6 79.8 31.1 83.2999 38 83.2999H46.8V39.7H28.4C15.9 39.7 10 47.9 10 56.7V67.5999C10 79.7 12.8 83.2999 18.8 83.2999ZM24.8 36.3C28.8 36.3 30.6999 34.5 30.6999 30.7C30.6999 26.9 28.8 25.1 24.8 25.1C20.8 25.1 18.9 26.9 18.9 30.7C18.9 34.5 20.8 36.3 24.8 36.3ZM37.7999 36.3C41.7999 36.3 43.6999 34.5 43.6999 30.7C43.6999 26.9 41.7999 25.1 37.7999 25.1C33.8 25.1 31.9 26.9 31.9 30.7C31.9 34.5 33.8 36.3 37.7999 36.3ZM16.9 60C16.9 57.2 19.2 54.7 23.8 54.7H27.7L27.6002 65.7H23.8002C19.2002 65.7 16.9 63.6 16.9 60Z" fill="#FFE83C"/>
<path d="M235.2 83.2999H243.8C250.4 83.2999 254.4 79.5999 254.4 70.4999V35.7C254.4 33.3 255.6 32.1 258 32.1V16.3H235.2V83.2999Z" stroke="black" stroke-width="6" mask="url(#path-1-outside-1_75_5)"/>
<path d="M189.2 83.2999H227.4V35.7C227.4 33.3 228.6 32.1 231 32.1V16.3H208.2V59.3999C208.2 64.1999 209.6 66.5999 211.5 68.9999L210.2 70.1999C208.2 67.5999 206.6 65.6999 203.3 65.6999H200.4V29H181.2V48.3999C181.2 55.3999 185 57.3999 188.9 58.4999C193.1 59.6999 197.4 59.8 197.4 64.4V65.6999H188.5C184.8 65.6999 181.2 64.7999 181.2 61.6999H178.2V70.2999C178.2 79.2999 182.1 83.2999 189.2 83.2999ZM179.1 25.6H202.5V17.1H189.9C187.3 17.1 185.4 16.1 185.4 13.8C185.4 12.2 186.7 10.6 188.5 10.6C190.6 10.6 191.8 12.1 191.8 13.6V14.5H202.5V13.2C202.5 7.19998 199.3 3 192.4 3C184.8 3 181.5 7.20001 181.5 11.5C181.5 14 182.3 15.9 183.5 17.1H179.1V25.6Z" stroke="black" stroke-width="6" mask="url(#path-1-outside-1_75_5)"/>
<path d="M158.8 83.2999L171.8 83.4001V59.7001C171.8 57.3001 173 56.1001 175.4 56.1001V40.3001H152.6V59.4001C152.6 64.2001 153.9 66.6001 155.9 69.0001L154.6 70.2001C152.7 67.7 151.2 66.0001 148.5 65.7001V44.3001H129.3V65.7001H127C125.9 65.7001 125.2 64.9001 125.2 63.6001V44.3001H106V65.7001H99.1999C98.3999 65.7001 97.6999 66.3001 97.6999 67.2001C97.6999 68.0001 98.3999 68.7001 99.1999 68.7001H100.9V71.2001C100.9 79.2001 104.6 83.3001 112.8 83.3001H121.9V68.7001H123.6V71.2001C123.6 79.2001 127.3 83.3001 135.1 83.3001H145.2V68.7001H146.9V71.2001C146.9 79.2001 150.2 83.2999 158.8 83.2999Z" stroke="black" stroke-width="6" mask="url(#path-1-outside-1_75_5)"/>
<path d="M86 83.3H99.1999V40.3H79.9999V65.7H72.8C71.9999 65.7 71.3 66.3 71.3 67.2C71.3 68 71.9999 68.7 72.8 68.7H74.4999V71C74.4999 79.4 78.3 83.3 86 83.3ZM77.8999 36.9001H101.3V28.4H88.6999C86.0999 28.4 84.2 27.4 84.2 25.1C84.2 23.5 85.4999 21.9001 87.2999 21.9001C89.4 21.9001 90.5999 23.4001 90.5999 24.9V25.8H101.3V24.5C101.3 18.5 98.0999 14.3 91.2 14.3C83.6 14.3 80.2999 18.5001 80.2999 22.8001C80.2999 25.3 81.0999 27.2 82.2999 28.4H77.8999V36.9001Z" stroke="black" stroke-width="6" mask="url(#path-1-outside-1_75_5)"/>
<path d="M59.9999 83.2999H72.7999V35.7C72.7999 33.3 73.9999 32.1 76.3999 32.1V16.3H53.5999V59.4C53.5999 64.2 54.9 66.5999 56.8999 68.9999L55.6 70.2C53.6 67.5999 51.8 65.6999 48.5 65.6999H46.7999C45.9999 65.6999 45.2999 66.3 45.2999 67.2C45.2999 68 45.9999 68.7 46.7999 68.7H48.5V71C48.5 79.3999 52.2999 83.2999 59.9999 83.2999Z" stroke="black" stroke-width="6" mask="url(#path-1-outside-1_75_5)"/>
<path d="M18.8 83.2999C22.4 83.2999 25.9 80.4999 25.9 75.3999V68.7H27.6V72.9C27.6 79.8 31.1 83.2999 38 83.2999H46.8V39.7H28.4C15.9 39.7 10 47.9 10 56.7V67.5999C10 79.7 12.8 83.2999 18.8 83.2999ZM24.8 36.3C28.8 36.3 30.6999 34.5 30.6999 30.7C30.6999 26.9 28.8 25.1 24.8 25.1C20.8 25.1 18.9 26.9 18.9 30.7C18.9 34.5 20.8 36.3 24.8 36.3ZM37.7999 36.3C41.7999 36.3 43.6999 34.5 43.6999 30.7C43.6999 26.9 41.7999 25.1 37.7999 25.1C33.8 25.1 31.9 26.9 31.9 30.7C31.9 34.5 33.8 36.3 37.7999 36.3ZM16.9 60C16.9 57.2 19.2 54.7 23.8 54.7H27.7L27.6002 65.7H23.8002C19.2002 65.7 16.9 63.6 16.9 60Z" stroke="black" stroke-width="6" mask="url(#path-1-outside-1_75_5)"/>
<path d="M193.8 91.0886C203.804 91.0886 212.054 93.4094 217.793 98.9607C223.541 104.521 226.5 113.058 226.5 124.888C226.5 134.174 224.614 141.346 220.868 146.563C217.713 150.957 213.33 153.838 207.944 155.456C208.845 155.608 209.629 155.82 210.324 156.082C211.826 156.646 212.827 157.407 213.625 158.121C214.486 158.891 214.861 159.336 215.474 159.728C215.963 160.042 216.592 160.289 217.7 160.289C219.011 160.289 219.571 160.06 219.857 159.784C220.138 159.513 220.5 158.856 220.5 157.089V155.589H227.1V160.589C227.1 165.302 226.34 169.965 223.938 173.484C221.463 177.111 217.408 179.289 211.399 179.289C206.36 179.289 202.341 177.822 199.595 174.904C196.863 172.001 195.6 167.88 195.6 162.988V161.488H197.1C197.827 161.488 198.414 161.387 198.773 161.188C198.928 161.103 199.014 161.014 199.069 160.92C199.125 160.825 199.2 160.641 199.2 160.289C199.2 160.061 199.146 159.751 198.454 159.405C197.663 159.009 196.214 158.688 193.8 158.688C183.795 158.688 175.639 156.367 169.997 150.806C164.352 145.242 161.5 136.705 161.5 124.888C161.5 113.072 164.352 104.535 169.997 98.9705C175.639 93.4095 183.795 91.0886 193.8 91.0886ZM193.9 112.289C191.349 112.289 189.543 113.23 188.3 115.105C186.987 117.085 186.2 120.261 186.2 124.888C186.2 129.515 186.987 132.692 188.3 134.672C189.543 136.547 191.349 137.489 193.9 137.489C196.514 137.489 198.371 136.537 199.646 134.658C200.989 132.681 201.8 129.509 201.8 124.888C201.8 120.268 200.989 117.096 199.646 115.119C198.371 113.24 196.514 112.289 193.9 112.289ZM128.571 117.891C128.364 118.773 128.089 119.713 127.725 120.755L126.47 124.589H130.63L129.374 120.756L129.373 120.752C129.036 119.711 128.775 118.772 128.571 117.891ZM126.2 157.888H94.7002V137.089H97.7002C98.5946 137.089 99.1363 136.817 99.5215 136.446C99.9464 136.037 100.297 135.39 100.558 134.476L100.571 134.429L100.588 134.384L107.851 114.086C107.895 113.867 107.905 113.479 107.771 113.21C107.717 113.102 107.635 112.998 107.47 112.908C107.29 112.81 106.939 112.688 106.3 112.688H103.6V91.8884H141.46L141.813 92.8875L156.514 134.387L156.519 134.401L156.522 134.414C156.835 135.351 157.21 136.014 157.656 136.436C158.06 136.818 158.608 137.089 159.5 137.089H162.399V157.888H130.899V137.089H132.399C133.173 137.089 133.653 136.999 133.936 136.899C134.072 136.851 134.151 136.805 134.192 136.775C134.232 136.747 134.246 136.728 134.251 136.721C134.28 136.68 134.368 136.476 134.238 135.742L132.707 130.989H124.393L122.859 135.749C122.732 136.476 122.819 136.68 122.849 136.721C122.854 136.728 122.868 136.747 122.907 136.775C122.949 136.805 123.028 136.851 123.164 136.899C123.447 136.999 123.926 137.089 124.7 137.089H126.2V157.888ZM75.7998 157.888H40.5V137.089H42C43.0546 137.089 43.5543 136.883 43.7588 136.732C43.881 136.642 44 136.507 44 136.089V113.688C43.9999 113.27 43.881 113.135 43.7588 113.045C43.5543 112.894 43.0546 112.688 42 112.688H40.5V91.8884H66.4004C70.7322 91.8885 74.6634 92.9735 77.4961 95.864C78.7802 97.1744 79.7849 98.8024 80.5 100.762V91.8884H101.3V121.089H76.5V119.589C76.5 116.545 75.8739 114.888 75.0693 113.988C74.3018 113.13 73.1225 112.688 71.2998 112.688H67.4004V121.888H67.5C68.0245 121.888 68.277 121.822 68.3779 121.781C68.3824 121.779 68.3861 121.777 68.3896 121.775C68.4068 121.732 68.4442 121.622 68.4678 121.385C68.498 121.08 68.5 120.71 68.5 120.188V116.888H75.7002V133.489H68.5V129.589C68.5 129.067 68.498 128.698 68.4678 128.393C68.444 128.154 68.4066 128.043 68.3896 128.001C68.3861 127.999 68.3822 127.998 68.3779 127.996C68.277 127.955 68.0245 127.888 67.5 127.888H67.4004V135.188C67.4004 135.231 67.3445 135.584 68.4492 135.996C69.5697 136.413 71.4539 136.688 74.2998 136.688H75.7998V157.888Z" fill="#D02B2B" stroke="black" stroke-width="3"/>
</g>
<defs>
<filter id="filter0_d_75_5" x="0" y="0" width="261" height="187.789" filterUnits="userSpaceOnUse" color-interpolation-filters="sRGB">
<feFlood flood-opacity="0" result="BackgroundImageFix"/>
<feColorMatrix in="SourceAlpha" type="matrix" values="0 0 0 0 0 0 0 0 0 0 0 0 0 0 0 0 0 0 127 0" result="hardAlpha"/>
<feOffset dx="-7" dy="7"/>
<feComposite in2="hardAlpha" operator="out"/>
<feColorMatrix type="matrix" values="0 0 0 0 0 0 0 0 0 0 0 0 0 0 0 0 0 0 1 0"/>
<feBlend mode="normal" in2="BackgroundImageFix" result="effect1_dropShadow_75_5"/>
<feBlend mode="normal" in="SourceGraphic" in2="effect1_dropShadow_75_5" result="shape"/>
</filter>
</defs>
</svg>
