<svg width="549" height="155" viewBox="0 0 549 155" fill="none" xmlns="http://www.w3.org/2000/svg">
<g filter="url(#filter0_d_81_9)">
<mask id="path-1-outside-1_81_9" maskUnits="userSpaceOnUse" x="7" y="0" width="340" height="86" fill="black">
<rect fill="white" x="7" width="340" height="86"/>
<path d="M328.032 65.5422L340.167 65.6358V43.5126C340.167 41.2723 341.287 40.1521 343.528 40.1521V25.4033H322.244V43.2326C322.244 47.7132 323.458 49.9535 325.325 52.1938L324.111 53.3139C322.338 50.9803 320.938 49.3935 318.417 49.1134V29.1373H300.495V49.1134H298.348C297.321 49.1134 296.668 48.3666 296.668 47.1531V29.1373H278.745V49.1134H272.397C271.651 49.1134 270.997 49.6736 270.997 50.5136C270.997 51.2604 271.65 51.9138 272.397 51.9138H273.984V54.2474C273.984 61.7152 277.438 65.5424 285.093 65.5424H293.587V51.9138H295.174V54.2474C295.174 61.7152 298.628 65.5424 305.909 65.5424H315.337V51.9138H316.924V54.2474C316.924 61.7152 320.004 65.5422 328.032 65.5422ZM303.388 25.9632C307.122 25.9632 308.896 24.283 308.896 20.7358C308.896 17.1886 307.122 15.5084 303.388 15.5084C299.655 15.5084 297.881 17.1886 297.881 20.7358C297.881 24.283 299.655 25.9632 303.388 25.9632ZM315.524 25.9632C319.257 25.9632 321.031 24.283 321.031 20.7358C321.031 17.1886 319.257 15.5084 315.524 15.5084C311.79 15.5084 310.016 17.1886 310.016 20.7358C310.016 24.283 311.79 25.9632 315.524 25.9632ZM309.456 15.5084C312.816 15.5084 314.497 13.9215 314.497 10.6543C314.497 7.3872 312.816 5.89373 309.456 5.89373C306.002 5.89373 304.322 7.3872 304.322 10.6543C304.322 13.9215 306.002 15.5084 309.456 15.5084Z"/>
<path d="M260.076 65.5423H272.397V25.4032H254.475V49.1133H247.754C247.007 49.1133 246.354 49.6735 246.354 50.5134C246.354 51.2602 247.007 51.9136 247.754 51.9136H249.341V54.0606C249.341 61.9018 252.888 65.5423 260.076 65.5423ZM263.436 22.2294C267.17 22.2294 268.944 20.5492 268.944 17.002C268.944 13.4549 267.17 11.7746 263.436 11.7746C259.702 11.7746 257.929 13.4549 257.929 17.002C257.929 20.5492 259.702 22.2294 263.436 22.2294Z"/>
<path d="M221.617 65.5422C224.977 65.5422 228.244 62.9285 228.244 58.1679V51.9136H229.831V52.7537L229.738 64.7954C229.738 76.5572 224.417 79.5443 215.642 79.5443V82.3447C236.085 82.3447 247.754 79.1708 247.754 60.3149V44.0725C247.754 32.4975 242.246 24.8431 230.578 24.8431C218.909 24.8431 213.402 32.4975 213.402 40.712V50.8868C213.402 62.1818 216.016 65.5422 221.617 65.5422ZM219.843 43.4191C219.843 40.712 221.897 38.4717 224.884 38.4717C227.964 38.4717 229.925 40.712 229.925 43.7925L229.831 49.1133H227.311C222.923 49.1133 219.843 46.9663 219.843 43.4191Z"/>
<path d="M155.527 65.5422H188.385V43.7925C188.385 34.4578 185.772 30.0705 175.037 30.0705H150.487V28.297H151.607C164.395 28.297 169.436 20.1758 178.584 20.1758C183.065 20.1758 184.838 23.1628 184.838 26.5233H187.452V19.989C187.452 8.69408 184.091 3.93343 177.277 3.93343C163.742 3.93343 160.288 25.6832 149.273 25.6832H147.873V35.1112C147.873 42.2989 151.047 45.286 160.008 45.286H178.397C183.905 45.286 185.585 46.9663 185.585 50.9802V53.7806H183.998C183.998 49.9534 182.785 49.1133 179.331 49.1133H143.392C142.645 49.1133 141.992 49.6735 141.992 50.5134C141.992 51.2602 142.645 51.9136 143.392 51.9136H144.979V54.2473C144.979 62.0883 148.433 65.5422 155.527 65.5422Z"/>
<path d="M135.458 65.5423H143.392V21.1093C143.392 18.8689 144.513 17.7488 146.753 17.7488V3H125.47V53.5939C125.47 62.3685 129.484 65.5423 135.458 65.5423Z"/>
<path d="M65.7279 59.8481C65.7279 55.5542 67.8748 52.5671 70.7686 52.5671C74.5025 52.6607 75.6226 55.9275 75.6226 59.8481V63.6753H92.0517V60.0349C92.0517 45.7528 87.4777 40.152 78.6098 40.152C70.3019 40.152 62.9275 45.3794 62.9275 59.5681C62.9275 72.3566 72.3555 82.3447 88.5045 82.3447C110.348 82.3447 118.562 69.7429 118.562 50.8869V43.5125C118.562 41.2721 119.682 40.152 121.923 40.152V25.4032H100.64V51.727C100.64 70.3963 92.2383 74.1302 81.5968 74.1302C73.1956 74.1302 65.7279 68.9027 65.7279 59.8481ZM86.8242 36.9782C90.558 36.9782 92.3317 35.298 92.3317 31.7508C92.3317 28.2036 90.558 26.5233 86.8242 26.5233C83.0903 26.5233 81.3168 28.2036 81.3168 31.7508C81.3168 35.298 83.0903 36.9782 86.8242 36.9782Z"/>
<path d="M36.8838 66.289C42.2046 66.289 46.2185 63.6753 46.2185 57.2344C46.2185 50.8868 42.2046 48.3664 36.8838 48.3664C31.6564 48.3664 27.6425 50.8868 27.6425 57.2344C27.6425 63.6753 31.6564 66.289 36.8838 66.289ZM30.3495 42.859H43.418L44.8183 32.2175L37.6306 32.5912L35.9503 32.2175C29.6961 32.2175 26.8024 30.4439 26.8024 26.71C26.8024 23.7229 29.5094 22.2294 32.5899 22.2294C35.577 22.2294 38.284 23.4429 38.284 28.2036H58.447V6.6405H42.0179V22.6028H40.431V19.4289C40.431 9.53419 34.6435 5.8004 25.3088 5.8004C15.7875 5.8004 10 10.4677 10 19.4289C10 29.6037 15.3207 34.7379 29.4161 35.298L30.3495 42.859Z"/>
</mask>
<path d="M328.032 65.5422L340.167 65.6358V43.5126C340.167 41.2723 341.287 40.1521 343.528 40.1521V25.4033H322.244V43.2326C322.244 47.7132 323.458 49.9535 325.325 52.1938L324.111 53.3139C322.338 50.9803 320.938 49.3935 318.417 49.1134V29.1373H300.495V49.1134H298.348C297.321 49.1134 296.668 48.3666 296.668 47.1531V29.1373H278.745V49.1134H272.397C271.651 49.1134 270.997 49.6736 270.997 50.5136C270.997 51.2604 271.65 51.9138 272.397 51.9138H273.984V54.2474C273.984 61.7152 277.438 65.5424 285.093 65.5424H293.587V51.9138H295.174V54.2474C295.174 61.7152 298.628 65.5424 305.909 65.5424H315.337V51.9138H316.924V54.2474C316.924 61.7152 320.004 65.5422 328.032 65.5422ZM303.388 25.9632C307.122 25.9632 308.896 24.283 308.896 20.7358C308.896 17.1886 307.122 15.5084 303.388 15.5084C299.655 15.5084 297.881 17.1886 297.881 20.7358C297.881 24.283 299.655 25.9632 303.388 25.9632ZM315.524 25.9632C319.257 25.9632 321.031 24.283 321.031 20.7358C321.031 17.1886 319.257 15.5084 315.524 15.5084C311.79 15.5084 310.016 17.1886 310.016 20.7358C310.016 24.283 311.79 25.9632 315.524 25.9632ZM309.456 15.5084C312.816 15.5084 314.497 13.9215 314.497 10.6543C314.497 7.3872 312.816 5.89373 309.456 5.89373C306.002 5.89373 304.322 7.3872 304.322 10.6543C304.322 13.9215 306.002 15.5084 309.456 15.5084Z" fill="#FFE83C"/>
<path d="M260.076 65.5423H272.397V25.4032H254.475V49.1133H247.754C247.007 49.1133 246.354 49.6735 246.354 50.5134C246.354 51.2602 247.007 51.9136 247.754 51.9136H249.341V54.0606C249.341 61.9018 252.888 65.5423 260.076 65.5423ZM263.436 22.2294C267.17 22.2294 268.944 20.5492 268.944 17.002C268.944 13.4549 267.17 11.7746 263.436 11.7746C259.702 11.7746 257.929 13.4549 257.929 17.002C257.929 20.5492 259.702 22.2294 263.436 22.2294Z" fill="#FFE83C"/>
<path d="M221.617 65.5422C224.977 65.5422 228.244 62.9285 228.244 58.1679V51.9136H229.831V52.7537L229.738 64.7954C229.738 76.5572 224.417 79.5443 215.642 79.5443V82.3447C236.085 82.3447 247.754 79.1708 247.754 60.3149V44.0725C247.754 32.4975 242.246 24.8431 230.578 24.8431C218.909 24.8431 213.402 32.4975 213.402 40.712V50.8868C213.402 62.1818 216.016 65.5422 221.617 65.5422ZM219.843 43.4191C219.843 40.712 221.897 38.4717 224.884 38.4717C227.964 38.4717 229.925 40.712 229.925 43.7925L229.831 49.1133H227.311C222.923 49.1133 219.843 46.9663 219.843 43.4191Z" fill="#FFE83C"/>
<path d="M155.527 65.5422H188.385V43.7925C188.385 34.4578 185.772 30.0705 175.037 30.0705H150.487V28.297H151.607C164.395 28.297 169.436 20.1758 178.584 20.1758C183.065 20.1758 184.838 23.1628 184.838 26.5233H187.452V19.989C187.452 8.69408 184.091 3.93343 177.277 3.93343C163.742 3.93343 160.288 25.6832 149.273 25.6832H147.873V35.1112C147.873 42.2989 151.047 45.286 160.008 45.286H178.397C183.905 45.286 185.585 46.9663 185.585 50.9802V53.7806H183.998C183.998 49.9534 182.785 49.1133 179.331 49.1133H143.392C142.645 49.1133 141.992 49.6735 141.992 50.5134C141.992 51.2602 142.645 51.9136 143.392 51.9136H144.979V54.2473C144.979 62.0883 148.433 65.5422 155.527 65.5422Z" fill="#FFE83C"/>
<path d="M135.458 65.5423H143.392V21.1093C143.392 18.8689 144.513 17.7488 146.753 17.7488V3H125.47V53.5939C125.47 62.3685 129.484 65.5423 135.458 65.5423Z" fill="#FFE83C"/>
<path d="M65.7279 59.8481C65.7279 55.5542 67.8748 52.5671 70.7686 52.5671C74.5025 52.6607 75.6226 55.9275 75.6226 59.8481V63.6753H92.0517V60.0349C92.0517 45.7528 87.4777 40.152 78.6098 40.152C70.3019 40.152 62.9275 45.3794 62.9275 59.5681C62.9275 72.3566 72.3555 82.3447 88.5045 82.3447C110.348 82.3447 118.562 69.7429 118.562 50.8869V43.5125C118.562 41.2721 119.682 40.152 121.923 40.152V25.4032H100.64V51.727C100.64 70.3963 92.2383 74.1302 81.5968 74.1302C73.1956 74.1302 65.7279 68.9027 65.7279 59.8481ZM86.8242 36.9782C90.558 36.9782 92.3317 35.298 92.3317 31.7508C92.3317 28.2036 90.558 26.5233 86.8242 26.5233C83.0903 26.5233 81.3168 28.2036 81.3168 31.7508C81.3168 35.298 83.0903 36.9782 86.8242 36.9782Z" fill="#FFE83C"/>
<path d="M36.8838 66.289C42.2046 66.289 46.2185 63.6753 46.2185 57.2344C46.2185 50.8868 42.2046 48.3664 36.8838 48.3664C31.6564 48.3664 27.6425 50.8868 27.6425 57.2344C27.6425 63.6753 31.6564 66.289 36.8838 66.289ZM30.3495 42.859H43.418L44.8183 32.2175L37.6306 32.5912L35.9503 32.2175C29.6961 32.2175 26.8024 30.4439 26.8024 26.71C26.8024 23.7229 29.5094 22.2294 32.5899 22.2294C35.577 22.2294 38.284 23.4429 38.284 28.2036H58.447V6.6405H42.0179V22.6028H40.431V19.4289C40.431 9.53419 34.6435 5.8004 25.3088 5.8004C15.7875 5.8004 10 10.4677 10 19.4289C10 29.6037 15.3207 34.7379 29.4161 35.298L30.3495 42.859Z" fill="#FFE83C"/>
<path d="M328.032 65.5422L340.167 65.6358V43.5126C340.167 41.2723 341.287 40.1521 343.528 40.1521V25.4033H322.244V43.2326C322.244 47.7132 323.458 49.9535 325.325 52.1938L324.111 53.3139C322.338 50.9803 320.938 49.3935 318.417 49.1134V29.1373H300.495V49.1134H298.348C297.321 49.1134 296.668 48.3666 296.668 47.1531V29.1373H278.745V49.1134H272.397C271.651 49.1134 270.997 49.6736 270.997 50.5136C270.997 51.2604 271.65 51.9138 272.397 51.9138H273.984V54.2474C273.984 61.7152 277.438 65.5424 285.093 65.5424H293.587V51.9138H295.174V54.2474C295.174 61.7152 298.628 65.5424 305.909 65.5424H315.337V51.9138H316.924V54.2474C316.924 61.7152 320.004 65.5422 328.032 65.5422ZM303.388 25.9632C307.122 25.9632 308.896 24.283 308.896 20.7358C308.896 17.1886 307.122 15.5084 303.388 15.5084C299.655 15.5084 297.881 17.1886 297.881 20.7358C297.881 24.283 299.655 25.9632 303.388 25.9632ZM315.524 25.9632C319.257 25.9632 321.031 24.283 321.031 20.7358C321.031 17.1886 319.257 15.5084 315.524 15.5084C311.79 15.5084 310.016 17.1886 310.016 20.7358C310.016 24.283 311.79 25.9632 315.524 25.9632ZM309.456 15.5084C312.816 15.5084 314.497 13.9215 314.497 10.6543C314.497 7.3872 312.816 5.89373 309.456 5.89373C306.002 5.89373 304.322 7.3872 304.322 10.6543C304.322 13.9215 306.002 15.5084 309.456 15.5084Z" stroke="black" stroke-width="6" mask="url(#path-1-outside-1_81_9)"/>
<path d="M260.076 65.5423H272.397V25.4032H254.475V49.1133H247.754C247.007 49.1133 246.354 49.6735 246.354 50.5134C246.354 51.2602 247.007 51.9136 247.754 51.9136H249.341V54.0606C249.341 61.9018 252.888 65.5423 260.076 65.5423ZM263.436 22.2294C267.17 22.2294 268.944 20.5492 268.944 17.002C268.944 13.4549 267.17 11.7746 263.436 11.7746C259.702 11.7746 257.929 13.4549 257.929 17.002C257.929 20.5492 259.702 22.2294 263.436 22.2294Z" stroke="black" stroke-width="6" mask="url(#path-1-outside-1_81_9)"/>
<path d="M221.617 65.5422C224.977 65.5422 228.244 62.9285 228.244 58.1679V51.9136H229.831V52.7537L229.738 64.7954C229.738 76.5572 224.417 79.5443 215.642 79.5443V82.3447C236.085 82.3447 247.754 79.1708 247.754 60.3149V44.0725C247.754 32.4975 242.246 24.8431 230.578 24.8431C218.909 24.8431 213.402 32.4975 213.402 40.712V50.8868C213.402 62.1818 216.016 65.5422 221.617 65.5422ZM219.843 43.4191C219.843 40.712 221.897 38.4717 224.884 38.4717C227.964 38.4717 229.925 40.712 229.925 43.7925L229.831 49.1133H227.311C222.923 49.1133 219.843 46.9663 219.843 43.4191Z" stroke="black" stroke-width="6" mask="url(#path-1-outside-1_81_9)"/>
<path d="M155.527 65.5422H188.385V43.7925C188.385 34.4578 185.772 30.0705 175.037 30.0705H150.487V28.297H151.607C164.395 28.297 169.436 20.1758 178.584 20.1758C183.065 20.1758 184.838 23.1628 184.838 26.5233H187.452V19.989C187.452 8.69408 184.091 3.93343 177.277 3.93343C163.742 3.93343 160.288 25.6832 149.273 25.6832H147.873V35.1112C147.873 42.2989 151.047 45.286 160.008 45.286H178.397C183.905 45.286 185.585 46.9663 185.585 50.9802V53.7806H183.998C183.998 49.9534 182.785 49.1133 179.331 49.1133H143.392C142.645 49.1133 141.992 49.6735 141.992 50.5134C141.992 51.2602 142.645 51.9136 143.392 51.9136H144.979V54.2473C144.979 62.0883 148.433 65.5422 155.527 65.5422Z" stroke="black" stroke-width="6" mask="url(#path-1-outside-1_81_9)"/>
<path d="M135.458 65.5423H143.392V21.1093C143.392 18.8689 144.513 17.7488 146.753 17.7488V3H125.47V53.5939C125.47 62.3685 129.484 65.5423 135.458 65.5423Z" stroke="black" stroke-width="6" mask="url(#path-1-outside-1_81_9)"/>
<path d="M65.7279 59.8481C65.7279 55.5542 67.8748 52.5671 70.7686 52.5671C74.5025 52.6607 75.6226 55.9275 75.6226 59.8481V63.6753H92.0517V60.0349C92.0517 45.7528 87.4777 40.152 78.6098 40.152C70.3019 40.152 62.9275 45.3794 62.9275 59.5681C62.9275 72.3566 72.3555 82.3447 88.5045 82.3447C110.348 82.3447 118.562 69.7429 118.562 50.8869V43.5125C118.562 41.2721 119.682 40.152 121.923 40.152V25.4032H100.64V51.727C100.64 70.3963 92.2383 74.1302 81.5968 74.1302C73.1956 74.1302 65.7279 68.9027 65.7279 59.8481ZM86.8242 36.9782C90.558 36.9782 92.3317 35.298 92.3317 31.7508C92.3317 28.2036 90.558 26.5233 86.8242 26.5233C83.0903 26.5233 81.3168 28.2036 81.3168 31.7508C81.3168 35.298 83.0903 36.9782 86.8242 36.9782Z" stroke="black" stroke-width="6" mask="url(#path-1-outside-1_81_9)"/>
<path d="M36.8838 66.289C42.2046 66.289 46.2185 63.6753 46.2185 57.2344C46.2185 50.8868 42.2046 48.3664 36.8838 48.3664C31.6564 48.3664 27.6425 50.8868 27.6425 57.2344C27.6425 63.6753 31.6564 66.289 36.8838 66.289ZM30.3495 42.859H43.418L44.8183 32.2175L37.6306 32.5912L35.9503 32.2175C29.6961 32.2175 26.8024 30.4439 26.8024 26.71C26.8024 23.7229 29.5094 22.2294 32.5899 22.2294C35.577 22.2294 38.284 23.4429 38.284 28.2036H58.447V6.6405H42.0179V22.6028H40.431V19.4289C40.431 9.53419 34.6435 5.8004 25.3088 5.8004C15.7875 5.8004 10 10.4677 10 19.4289C10 29.6037 15.3207 34.7379 29.4161 35.298L30.3495 42.859Z" stroke="black" stroke-width="6" mask="url(#path-1-outside-1_81_9)"/>
<mask id="path-2-outside-2_81_9" maskUnits="userSpaceOnUse" x="7" y="78.6604" width="542" height="70" fill="black">
<rect fill="white" x="7" y="78.6604" width="542" height="70"/>
<path d="M27.5492 144.203C39.6842 144.203 43.9782 140.749 43.9782 128.52V125.533H45.5651V144.203H63.3009V113.212H41.6445V119.746C41.6445 125.533 39.0308 127.587 34.4568 127.587H32.3099V105.184C32.3099 103.41 34.4568 102.383 39.3109 102.383V85.3942H10V102.01C12.2403 102.01 13.2671 102.85 13.2671 104.344V125.253C13.2671 126.747 12.2403 127.587 10 127.587V144.203H27.5492Z"/>
<path d="M80.8501 144.95C91.4916 144.95 95.5989 141.682 95.6922 131.788V128.147H97.0924C97.0924 134.681 96.9057 137.948 95.6922 141.776V144.203H113.428V130.014C111.188 130.014 110.161 129.174 110.161 127.68V115.079C110.161 105.277 104.653 101.45 96.9057 101.45C88.2245 101.45 82.9971 104.437 82.9971 113.865V116.852H81.5968V102.103L66.8481 102.197V119.559H85.0507C85.0507 115.826 87.011 114.799 89.9981 114.799C92.6118 114.799 94.572 115.732 94.572 118.066C94.572 120.68 92.6118 121.893 88.7846 121.893H83.1838C70.9553 121.893 66.1946 125.16 66.1946 133.095C66.1946 141.216 72.1688 144.95 80.8501 144.95ZM82.2503 127.96C82.2503 125.627 83.9305 124.507 88.1311 124.507H93.6386V126.467C93.6386 130.107 91.4916 131.414 87.6644 131.414C84.4906 131.414 82.2503 130.387 82.2503 127.96Z"/>
<path d="M146.099 144.95C154.314 144.95 159.821 141.029 159.821 133.188C159.821 124.973 154.127 121.706 142.459 121.706H138.818C133.964 121.706 131.724 120.586 131.724 117.972C131.724 115.732 133.871 114.799 136.205 114.799C139.005 114.799 140.965 115.825 140.965 119.559H159.168V102.197H144.419V114.892H143.019V112.558C143.019 104.064 138.352 101.45 130.044 101.45C122.109 101.45 116.695 105.091 116.695 112.465C116.695 120.399 122.203 124.133 133.591 124.227L137.512 124.32C141.805 124.414 143.952 125.44 143.952 127.961C143.952 130.201 142.086 131.415 139.565 131.415C136.485 131.415 134.338 130.294 134.338 126.561H116.042V144.203H130.791V131.228H132.284V133.188C132.284 142.149 137.325 144.95 146.099 144.95Z"/>
<path d="M178.491 144.483C188.012 144.483 191.839 139.255 191.839 129.547V126.84H189.132C189.132 129.921 187.639 131.414 185.678 131.414C183.625 131.414 182.131 129.921 182.131 126.84V116.012H191.092V102.197H182.131V92.862H171.21C171.21 98.0894 169.343 102.197 164.955 102.197H161.782V116.012H164.955V126.28C164.955 139.162 168.876 144.483 178.491 144.483Z"/>
<path d="M239.633 144.95C253.448 144.95 261.102 139.629 261.102 128.894V126.84H257.929C257.929 130.014 252.888 131.788 244.767 131.788C235.992 131.788 232.818 129.267 232.352 124.507H260.916V122.266C260.916 108.451 251.208 101.45 237.392 101.45C223.764 101.45 214.616 108.544 214.616 123.2C214.616 138.415 224.977 144.95 239.633 144.95ZM232.258 121.893C232.632 117.879 234.219 115.172 237.953 115.172C242.06 115.172 243.553 118.252 243.553 121.893H232.258Z"/>
<path d="M279.865 144.95C288.173 144.95 294.334 139.255 294.334 127.214V124.507H295.734C295.734 134.775 294.894 137.668 292.374 141.776V144.203H312.817V130.014C310.576 130.014 309.549 129.174 309.549 127.68V81.6604H289.107V95.8491C291.347 95.8491 292.374 96.6893 292.374 98.1828V106.584C289.573 103.41 285.373 101.45 280.052 101.45C269.41 101.45 263.81 109.571 263.81 123.2C263.81 136.828 269.13 144.95 279.865 144.95ZM281.452 123.2C281.452 118.812 283.132 115.452 287.053 115.452C289.387 115.452 291.16 116.479 292.374 118.719V124.507C292.374 128.24 290.6 130.947 286.96 130.947C283.039 130.947 281.452 127.587 281.452 123.2Z"/>
<path d="M315.43 144.203H339.14V130.014C336.9 130.014 335.873 129.174 335.873 127.68V102.197H315.43V116.385C317.671 116.385 318.697 117.225 318.697 118.719V127.68C318.697 129.174 317.671 130.014 315.43 130.014V144.203ZM325.792 99.0228C331.673 99.0228 334.566 94.9156 334.566 90.9017C334.566 86.7011 331.673 82.7805 325.792 82.7805C319.911 82.7805 317.11 86.7011 317.11 90.9017C317.11 94.9156 320.098 99.0228 325.792 99.0228Z"/>
<path d="M356.223 144.483C365.744 144.483 369.571 139.255 369.571 129.547V126.84H366.864C366.864 129.921 365.371 131.414 363.41 131.414C361.357 131.414 359.863 129.921 359.863 126.84V116.012H368.824V102.197H359.863V92.862H348.942C348.942 98.0894 347.075 102.197 342.687 102.197H339.514V116.012H342.687V126.28C342.687 139.162 346.608 144.483 356.223 144.483Z"/>
<path d="M371.812 144.203H395.522V130.014C393.281 130.014 392.255 129.174 392.255 127.68V102.197H371.812V116.385C374.052 116.385 375.079 117.225 375.079 118.719V127.68C375.079 129.174 374.052 130.014 371.812 130.014V144.203ZM382.173 99.0228C388.054 99.0228 390.948 94.9156 390.948 90.9017C390.948 86.7011 388.054 82.7805 382.173 82.7805C376.292 82.7805 373.492 86.7011 373.492 90.9017C373.492 94.9156 376.479 99.0228 382.173 99.0228Z"/>
<path d="M421.472 144.95C435.381 144.95 444.715 138.509 444.715 123.2C444.715 107.891 435.381 101.45 421.472 101.45C407.47 101.45 398.135 107.891 398.135 123.2C398.135 138.509 407.47 144.95 421.472 144.95ZM421.472 130.948C417.365 130.948 415.778 127.4 415.778 123.2C415.778 118.999 417.365 115.452 421.472 115.452C425.579 115.452 427.073 118.999 427.073 123.2C427.073 127.4 425.579 130.948 421.472 130.948Z"/>
<path d="M447.329 144.203H470.479V130.014C468.612 130.014 467.772 129.174 467.772 127.68V121.426C467.772 117.692 470.292 115.732 473.466 115.732C476.733 115.732 479.16 117.692 479.16 121.426V127.68C479.16 129.174 478.32 130.014 476.453 130.014V144.203H499.603V130.014C497.363 130.014 496.336 129.174 496.336 127.68V120.773C496.243 106.771 492.229 101.45 481.401 101.45C471.506 101.45 465.718 107.424 465.718 121.426V122.733H464.318C464.318 111.998 465.252 109.011 467.772 104.624V102.197H447.329V116.385C449.569 116.385 450.596 117.226 450.596 118.719V127.68C450.596 129.174 449.569 130.014 447.329 130.014V144.203Z"/>
<path d="M532.274 144.95C540.489 144.95 545.996 141.029 545.996 133.188C545.996 124.973 540.302 121.706 528.634 121.706H524.993C520.139 121.706 517.899 120.586 517.899 117.972C517.899 115.732 520.046 114.799 522.38 114.799C525.18 114.799 527.14 115.825 527.14 119.559H545.343V102.197H530.594V114.892H529.194V112.558C529.194 104.064 524.527 101.45 516.219 101.45C508.284 101.45 502.87 105.091 502.87 112.465C502.87 120.399 508.378 124.133 519.766 124.227L523.687 124.32C527.981 124.414 530.127 125.44 530.127 127.961C530.127 130.201 528.261 131.415 525.74 131.415C522.66 131.415 520.513 130.294 520.513 126.561H502.217V144.203H516.966V131.228H518.459V133.188C518.459 142.149 523.5 144.95 532.274 144.95Z"/>
</mask>
<path d="M27.5492 144.203C39.6842 144.203 43.9782 140.749 43.9782 128.52V125.533H45.5651V144.203H63.3009V113.212H41.6445V119.746C41.6445 125.533 39.0308 127.587 34.4568 127.587H32.3099V105.184C32.3099 103.41 34.4568 102.383 39.3109 102.383V85.3942H10V102.01C12.2403 102.01 13.2671 102.85 13.2671 104.344V125.253C13.2671 126.747 12.2403 127.587 10 127.587V144.203H27.5492Z" fill="#D02B2B"/>
<path d="M80.8501 144.95C91.4916 144.95 95.5989 141.682 95.6922 131.788V128.147H97.0924C97.0924 134.681 96.9057 137.948 95.6922 141.776V144.203H113.428V130.014C111.188 130.014 110.161 129.174 110.161 127.68V115.079C110.161 105.277 104.653 101.45 96.9057 101.45C88.2245 101.45 82.9971 104.437 82.9971 113.865V116.852H81.5968V102.103L66.8481 102.197V119.559H85.0507C85.0507 115.826 87.011 114.799 89.9981 114.799C92.6118 114.799 94.572 115.732 94.572 118.066C94.572 120.68 92.6118 121.893 88.7846 121.893H83.1838C70.9553 121.893 66.1946 125.16 66.1946 133.095C66.1946 141.216 72.1688 144.95 80.8501 144.95ZM82.2503 127.96C82.2503 125.627 83.9305 124.507 88.1311 124.507H93.6386V126.467C93.6386 130.107 91.4916 131.414 87.6644 131.414C84.4906 131.414 82.2503 130.387 82.2503 127.96Z" fill="#D02B2B"/>
<path d="M146.099 144.95C154.314 144.95 159.821 141.029 159.821 133.188C159.821 124.973 154.127 121.706 142.459 121.706H138.818C133.964 121.706 131.724 120.586 131.724 117.972C131.724 115.732 133.871 114.799 136.205 114.799C139.005 114.799 140.965 115.825 140.965 119.559H159.168V102.197H144.419V114.892H143.019V112.558C143.019 104.064 138.352 101.45 130.044 101.45C122.109 101.45 116.695 105.091 116.695 112.465C116.695 120.399 122.203 124.133 133.591 124.227L137.512 124.32C141.805 124.414 143.952 125.44 143.952 127.961C143.952 130.201 142.086 131.415 139.565 131.415C136.485 131.415 134.338 130.294 134.338 126.561H116.042V144.203H130.791V131.228H132.284V133.188C132.284 142.149 137.325 144.95 146.099 144.95Z" fill="#D02B2B"/>
<path d="M178.491 144.483C188.012 144.483 191.839 139.255 191.839 129.547V126.84H189.132C189.132 129.921 187.639 131.414 185.678 131.414C183.625 131.414 182.131 129.921 182.131 126.84V116.012H191.092V102.197H182.131V92.862H171.21C171.21 98.0894 169.343 102.197 164.955 102.197H161.782V116.012H164.955V126.28C164.955 139.162 168.876 144.483 178.491 144.483Z" fill="#D02B2B"/>
<path d="M239.633 144.95C253.448 144.95 261.102 139.629 261.102 128.894V126.84H257.929C257.929 130.014 252.888 131.788 244.767 131.788C235.992 131.788 232.818 129.267 232.352 124.507H260.916V122.266C260.916 108.451 251.208 101.45 237.392 101.45C223.764 101.45 214.616 108.544 214.616 123.2C214.616 138.415 224.977 144.95 239.633 144.95ZM232.258 121.893C232.632 117.879 234.219 115.172 237.953 115.172C242.06 115.172 243.553 118.252 243.553 121.893H232.258Z" fill="#D02B2B"/>
<path d="M279.865 144.95C288.173 144.95 294.334 139.255 294.334 127.214V124.507H295.734C295.734 134.775 294.894 137.668 292.374 141.776V144.203H312.817V130.014C310.576 130.014 309.549 129.174 309.549 127.68V81.6604H289.107V95.8491C291.347 95.8491 292.374 96.6893 292.374 98.1828V106.584C289.573 103.41 285.373 101.45 280.052 101.45C269.41 101.45 263.81 109.571 263.81 123.2C263.81 136.828 269.13 144.95 279.865 144.95ZM281.452 123.2C281.452 118.812 283.132 115.452 287.053 115.452C289.387 115.452 291.16 116.479 292.374 118.719V124.507C292.374 128.24 290.6 130.947 286.96 130.947C283.039 130.947 281.452 127.587 281.452 123.2Z" fill="#D02B2B"/>
<path d="M315.43 144.203H339.14V130.014C336.9 130.014 335.873 129.174 335.873 127.68V102.197H315.43V116.385C317.671 116.385 318.697 117.225 318.697 118.719V127.68C318.697 129.174 317.671 130.014 315.43 130.014V144.203ZM325.792 99.0228C331.673 99.0228 334.566 94.9156 334.566 90.9017C334.566 86.7011 331.673 82.7805 325.792 82.7805C319.911 82.7805 317.11 86.7011 317.11 90.9017C317.11 94.9156 320.098 99.0228 325.792 99.0228Z" fill="#D02B2B"/>
<path d="M356.223 144.483C365.744 144.483 369.571 139.255 369.571 129.547V126.84H366.864C366.864 129.921 365.371 131.414 363.41 131.414C361.357 131.414 359.863 129.921 359.863 126.84V116.012H368.824V102.197H359.863V92.862H348.942C348.942 98.0894 347.075 102.197 342.687 102.197H339.514V116.012H342.687V126.28C342.687 139.162 346.608 144.483 356.223 144.483Z" fill="#D02B2B"/>
<path d="M371.812 144.203H395.522V130.014C393.281 130.014 392.255 129.174 392.255 127.68V102.197H371.812V116.385C374.052 116.385 375.079 117.225 375.079 118.719V127.68C375.079 129.174 374.052 130.014 371.812 130.014V144.203ZM382.173 99.0228C388.054 99.0228 390.948 94.9156 390.948 90.9017C390.948 86.7011 388.054 82.7805 382.173 82.7805C376.292 82.7805 373.492 86.7011 373.492 90.9017C373.492 94.9156 376.479 99.0228 382.173 99.0228Z" fill="#D02B2B"/>
<path d="M421.472 144.95C435.381 144.95 444.715 138.509 444.715 123.2C444.715 107.891 435.381 101.45 421.472 101.45C407.47 101.45 398.135 107.891 398.135 123.2C398.135 138.509 407.47 144.95 421.472 144.95ZM421.472 130.948C417.365 130.948 415.778 127.4 415.778 123.2C415.778 118.999 417.365 115.452 421.472 115.452C425.579 115.452 427.073 118.999 427.073 123.2C427.073 127.4 425.579 130.948 421.472 130.948Z" fill="#D02B2B"/>
<path d="M447.329 144.203H470.479V130.014C468.612 130.014 467.772 129.174 467.772 127.68V121.426C467.772 117.692 470.292 115.732 473.466 115.732C476.733 115.732 479.16 117.692 479.16 121.426V127.68C479.16 129.174 478.32 130.014 476.453 130.014V144.203H499.603V130.014C497.363 130.014 496.336 129.174 496.336 127.68V120.773C496.243 106.771 492.229 101.45 481.401 101.45C471.506 101.45 465.718 107.424 465.718 121.426V122.733H464.318C464.318 111.998 465.252 109.011 467.772 104.624V102.197H447.329V116.385C449.569 116.385 450.596 117.226 450.596 118.719V127.68C450.596 129.174 449.569 130.014 447.329 130.014V144.203Z" fill="#D02B2B"/>
<path d="M532.274 144.95C540.489 144.95 545.996 141.029 545.996 133.188C545.996 124.973 540.302 121.706 528.634 121.706H524.993C520.139 121.706 517.899 120.586 517.899 117.972C517.899 115.732 520.046 114.799 522.38 114.799C525.18 114.799 527.14 115.825 527.14 119.559H545.343V102.197H530.594V114.892H529.194V112.558C529.194 104.064 524.527 101.45 516.219 101.45C508.284 101.45 502.87 105.091 502.87 112.465C502.87 120.399 508.378 124.133 519.766 124.227L523.687 124.32C527.981 124.414 530.127 125.44 530.127 127.961C530.127 130.201 528.261 131.415 525.74 131.415C522.66 131.415 520.513 130.294 520.513 126.561H502.217V144.203H516.966V131.228H518.459V133.188C518.459 142.149 523.5 144.95 532.274 144.95Z" fill="#D02B2B"/>
<path d="M27.5492 144.203C39.6842 144.203 43.9782 140.749 43.9782 128.52V125.533H45.5651V144.203H63.3009V113.212H41.6445V119.746C41.6445 125.533 39.0308 127.587 34.4568 127.587H32.3099V105.184C32.3099 103.41 34.4568 102.383 39.3109 102.383V85.3942H10V102.01C12.2403 102.01 13.2671 102.85 13.2671 104.344V125.253C13.2671 126.747 12.2403 127.587 10 127.587V144.203H27.5492Z" stroke="black" stroke-width="6" mask="url(#path-2-outside-2_81_9)"/>
<path d="M80.8501 144.95C91.4916 144.95 95.5989 141.682 95.6922 131.788V128.147H97.0924C97.0924 134.681 96.9057 137.948 95.6922 141.776V144.203H113.428V130.014C111.188 130.014 110.161 129.174 110.161 127.68V115.079C110.161 105.277 104.653 101.45 96.9057 101.45C88.2245 101.45 82.9971 104.437 82.9971 113.865V116.852H81.5968V102.103L66.8481 102.197V119.559H85.0507C85.0507 115.826 87.011 114.799 89.9981 114.799C92.6118 114.799 94.572 115.732 94.572 118.066C94.572 120.68 92.6118 121.893 88.7846 121.893H83.1838C70.9553 121.893 66.1946 125.16 66.1946 133.095C66.1946 141.216 72.1688 144.95 80.8501 144.95ZM82.2503 127.96C82.2503 125.627 83.9305 124.507 88.1311 124.507H93.6386V126.467C93.6386 130.107 91.4916 131.414 87.6644 131.414C84.4906 131.414 82.2503 130.387 82.2503 127.96Z" stroke="black" stroke-width="6" mask="url(#path-2-outside-2_81_9)"/>
<path d="M146.099 144.95C154.314 144.95 159.821 141.029 159.821 133.188C159.821 124.973 154.127 121.706 142.459 121.706H138.818C133.964 121.706 131.724 120.586 131.724 117.972C131.724 115.732 133.871 114.799 136.205 114.799C139.005 114.799 140.965 115.825 140.965 119.559H159.168V102.197H144.419V114.892H143.019V112.558C143.019 104.064 138.352 101.45 130.044 101.45C122.109 101.45 116.695 105.091 116.695 112.465C116.695 120.399 122.203 124.133 133.591 124.227L137.512 124.32C141.805 124.414 143.952 125.44 143.952 127.961C143.952 130.201 142.086 131.415 139.565 131.415C136.485 131.415 134.338 130.294 134.338 126.561H116.042V144.203H130.791V131.228H132.284V133.188C132.284 142.149 137.325 144.95 146.099 144.95Z" stroke="black" stroke-width="6" mask="url(#path-2-outside-2_81_9)"/>
<path d="M178.491 144.483C188.012 144.483 191.839 139.255 191.839 129.547V126.84H189.132C189.132 129.921 187.639 131.414 185.678 131.414C183.625 131.414 182.131 129.921 182.131 126.84V116.012H191.092V102.197H182.131V92.862H171.21C171.21 98.0894 169.343 102.197 164.955 102.197H161.782V116.012H164.955V126.28C164.955 139.162 168.876 144.483 178.491 144.483Z" stroke="black" stroke-width="6" mask="url(#path-2-outside-2_81_9)"/>
<path d="M239.633 144.95C253.448 144.95 261.102 139.629 261.102 128.894V126.84H257.929C257.929 130.014 252.888 131.788 244.767 131.788C235.992 131.788 232.818 129.267 232.352 124.507H260.916V122.266C260.916 108.451 251.208 101.45 237.392 101.45C223.764 101.45 214.616 108.544 214.616 123.2C214.616 138.415 224.977 144.95 239.633 144.95ZM232.258 121.893C232.632 117.879 234.219 115.172 237.953 115.172C242.06 115.172 243.553 118.252 243.553 121.893H232.258Z" stroke="black" stroke-width="6" mask="url(#path-2-outside-2_81_9)"/>
<path d="M279.865 144.95C288.173 144.95 294.334 139.255 294.334 127.214V124.507H295.734C295.734 134.775 294.894 137.668 292.374 141.776V144.203H312.817V130.014C310.576 130.014 309.549 129.174 309.549 127.68V81.6604H289.107V95.8491C291.347 95.8491 292.374 96.6893 292.374 98.1828V106.584C289.573 103.41 285.373 101.45 280.052 101.45C269.41 101.45 263.81 109.571 263.81 123.2C263.81 136.828 269.13 144.95 279.865 144.95ZM281.452 123.2C281.452 118.812 283.132 115.452 287.053 115.452C289.387 115.452 291.16 116.479 292.374 118.719V124.507C292.374 128.24 290.6 130.947 286.96 130.947C283.039 130.947 281.452 127.587 281.452 123.2Z" stroke="black" stroke-width="6" mask="url(#path-2-outside-2_81_9)"/>
<path d="M315.43 144.203H339.14V130.014C336.9 130.014 335.873 129.174 335.873 127.68V102.197H315.43V116.385C317.671 116.385 318.697 117.225 318.697 118.719V127.68C318.697 129.174 317.671 130.014 315.43 130.014V144.203ZM325.792 99.0228C331.673 99.0228 334.566 94.9156 334.566 90.9017C334.566 86.7011 331.673 82.7805 325.792 82.7805C319.911 82.7805 317.11 86.7011 317.11 90.9017C317.11 94.9156 320.098 99.0228 325.792 99.0228Z" stroke="black" stroke-width="6" mask="url(#path-2-outside-2_81_9)"/>
<path d="M356.223 144.483C365.744 144.483 369.571 139.255 369.571 129.547V126.84H366.864C366.864 129.921 365.371 131.414 363.41 131.414C361.357 131.414 359.863 129.921 359.863 126.84V116.012H368.824V102.197H359.863V92.862H348.942C348.942 98.0894 347.075 102.197 342.687 102.197H339.514V116.012H342.687V126.28C342.687 139.162 346.608 144.483 356.223 144.483Z" stroke="black" stroke-width="6" mask="url(#path-2-outside-2_81_9)"/>
<path d="M371.812 144.203H395.522V130.014C393.281 130.014 392.255 129.174 392.255 127.68V102.197H371.812V116.385C374.052 116.385 375.079 117.225 375.079 118.719V127.68C375.079 129.174 374.052 130.014 371.812 130.014V144.203ZM382.173 99.0228C388.054 99.0228 390.948 94.9156 390.948 90.9017C390.948 86.7011 388.054 82.7805 382.173 82.7805C376.292 82.7805 373.492 86.7011 373.492 90.9017C373.492 94.9156 376.479 99.0228 382.173 99.0228Z" stroke="black" stroke-width="6" mask="url(#path-2-outside-2_81_9)"/>
<path d="M421.472 144.95C435.381 144.95 444.715 138.509 444.715 123.2C444.715 107.891 435.381 101.45 421.472 101.45C407.47 101.45 398.135 107.891 398.135 123.2C398.135 138.509 407.47 144.95 421.472 144.95ZM421.472 130.948C417.365 130.948 415.778 127.4 415.778 123.2C415.778 118.999 417.365 115.452 421.472 115.452C425.579 115.452 427.073 118.999 427.073 123.2C427.073 127.4 425.579 130.948 421.472 130.948Z" stroke="black" stroke-width="6" mask="url(#path-2-outside-2_81_9)"/>
<path d="M447.329 144.203H470.479V130.014C468.612 130.014 467.772 129.174 467.772 127.68V121.426C467.772 117.692 470.292 115.732 473.466 115.732C476.733 115.732 479.16 117.692 479.16 121.426V127.68C479.16 129.174 478.32 130.014 476.453 130.014V144.203H499.603V130.014C497.363 130.014 496.336 129.174 496.336 127.68V120.773C496.243 106.771 492.229 101.45 481.401 101.45C471.506 101.45 465.718 107.424 465.718 121.426V122.733H464.318C464.318 111.998 465.252 109.011 467.772 104.624V102.197H447.329V116.385C449.569 116.385 450.596 117.226 450.596 118.719V127.68C450.596 129.174 449.569 130.014 447.329 130.014V144.203Z" stroke="black" stroke-width="6" mask="url(#path-2-outside-2_81_9)"/>
<path d="M532.274 144.95C540.489 144.95 545.996 141.029 545.996 133.188C545.996 124.973 540.302 121.706 528.634 121.706H524.993C520.139 121.706 517.899 120.586 517.899 117.972C517.899 115.732 520.046 114.799 522.38 114.799C525.18 114.799 527.14 115.825 527.14 119.559H545.343V102.197H530.594V114.892H529.194V112.558C529.194 104.064 524.527 101.45 516.219 101.45C508.284 101.45 502.87 105.091 502.87 112.465C502.87 120.399 508.378 124.133 519.766 124.227L523.687 124.32C527.981 124.414 530.127 125.44 530.127 127.961C530.127 130.201 528.261 131.415 525.74 131.415C522.66 131.415 520.513 130.294 520.513 126.561H502.217V144.203H516.966V131.228H518.459V133.188C518.459 142.149 523.5 144.95 532.274 144.95Z" stroke="black" stroke-width="6" mask="url(#path-2-outside-2_81_9)"/>
</g>
<defs>
<filter id="filter0_d_81_9" x="0" y="0" width="548.996" height="154.949" filterUnits="userSpaceOnUse" color-interpolation-filters="sRGB">
<feFlood flood-opacity="0" result="BackgroundImageFix"/>
<feColorMatrix in="SourceAlpha" type="matrix" values="0 0 0 0 0 0 0 0 0 0 0 0 0 0 0 0 0 0 127 0" result="hardAlpha"/>
<feOffset dx="-7" dy="7"/>
<feComposite in2="hardAlpha" operator="out"/>
<feColorMatrix type="matrix" values="0 0 0 0 0 0 0 0 0 0 0 0 0 0 0 0 0 0 1 0"/>
<feBlend mode="normal" in2="BackgroundImageFix" result="effect1_dropShadow_81_9"/>
<feBlend mode="normal" in="SourceGraphic" in2="effect1_dropShadow_81_9" result="shape"/>
</filter>
</defs>
</svg>
