<svg width="196" height="122" viewBox="0 0 196 122" fill="none" xmlns="http://www.w3.org/2000/svg">
    <g filter="url(#filter0_d_2_9)">
        <path
            d="M195.902 25C195.902 11.1929 184.709 0 170.902 0H29C15.1929 0 4 11.1929 4 25V92.0576C4 105.865 15.1929 117.058 29 117.058H170.902C184.709 117.058 195.902 105.865 195.902 92.0576V25Z"
            fill="#D02B2B" />
        <path
            d="M170.902 1.5H29.0004C16.0217 1.5 5.50043 12.0213 5.50043 25V92.0576C5.50045 105.036 16.0218 115.558 29.0004 115.558H170.902C183.88 115.558 194.402 105.036 194.402 92.0576V25C194.402 12.0213 183.88 1.5 170.902 1.5Z"
            stroke="black" stroke-width="3" />
    </g>
    <path
        d="M90.8274 49.7773H58.9018L84.732 67.3289L75.0472 95.2105L100.403 77.9786L125.76 95.2105L116.075 67.3289L141.902 49.7773H109.978L100.402 22.2105L90.8274 49.7773ZM114.326 80.2307L105.708 74.3746L111.034 70.755L114.326 80.2307ZM95.0995 74.3746L86.4827 80.2307L89.7738 70.755L95.0995 74.3746ZM109.008 64.9224L100.403 70.7697L91.7989 64.9234L94.9742 55.781H105.831L109.008 64.9224ZM114.049 61.4963L112.063 55.781H122.461L114.049 61.4963ZM86.7571 61.4963L78.345 55.781H88.7421L86.7571 61.4963ZM103.746 49.7773H97.0596L100.403 40.1511L103.746 49.7773Z"
        fill="#FFE83C" />
    <defs>
        <filter id="filter0_d_2_9" x="0" y="0" width="195.902" height="121.058" filterUnits="userSpaceOnUse"
            color-interpolation-filters="sRGB">
            <feFlood flood-opacity="0" result="BackgroundImageFix" />
            <feColorMatrix in="SourceAlpha" type="matrix" values="0 0 0 0 0 0 0 0 0 0 0 0 0 0 0 0 0 0 127 0"
                result="hardAlpha" />
            <feOffset dx="-4" dy="4" />
            <feComposite in2="hardAlpha" operator="out" />
            <feColorMatrix type="matrix" values="0 0 0 0 0 0 0 0 0 0 0 0 0 0 0 0 0 0 1 0" />
            <feBlend mode="normal" in2="BackgroundImageFix" result="effect1_dropShadow_2_9" />
            <feBlend mode="normal" in="SourceGraphic" in2="effect1_dropShadow_2_9" result="shape" />
        </filter>
    </defs>
</svg>