<svg width="446" height="167" viewBox="0 0 446 167" fill="none" xmlns="http://www.w3.org/2000/svg">
<g filter="url(#filter0_d_77_6)">
<mask id="path-1-outside-1_77_6" maskUnits="userSpaceOnUse" x="54.4214" y="0" width="391" height="95" fill="black">
<rect fill="white" x="54.4214" width="391" height="95"/>
<path d="M418.321 73.4076H426.921C433.521 73.4076 437.521 69.7076 437.521 60.6077V40.8077C437.521 38.4077 438.721 37.2077 441.121 37.2077V21.4077H418.321V73.4076ZM438.021 10.1077H421.421C418.621 10.1077 417.221 11.6077 417.221 14.4077V18.3077H419.221C419.221 17.1077 419.721 16.3077 421.421 16.3077H437.921C440.821 16.3077 442.221 13.8077 442.221 10.9077V8.10773H440.221C440.221 9.30773 439.721 10.1077 438.021 10.1077Z"/>
<path d="M332.121 91.4076C350.621 91.4076 359.921 83.0076 363.121 69.6077C364.921 72.1076 368.021 73.4076 372.421 73.4076H384.321V58.8077H386.021V61.3077C386.021 69.3076 389.321 73.4076 397.921 73.4076L410.921 73.5078V49.8078C410.921 47.4078 412.121 46.2078 414.521 46.2078V30.4078H391.721V49.5078C391.721 54.3078 393.021 56.7078 395.021 59.1078L393.721 60.3078C391.821 57.8078 390.321 56.1078 387.621 55.8078V34.4078H368.421V55.8078H366.121C365.021 55.8078 364.321 55.0078 364.321 53.7078V34.4078H345.121V58.6078C345.121 78.6078 336.121 82.6077 324.721 82.6077C315.721 82.6077 307.721 77.0078 307.721 67.3078C307.721 62.7078 310.021 59.5078 313.121 59.5078C317.121 59.608 318.321 63.1078 318.321 67.3078V71.4078H335.921V67.5078C335.921 52.2078 331.021 46.2078 321.521 46.2078C312.621 46.2078 304.721 51.8078 304.721 67.0078C304.721 80.7078 314.821 91.4076 332.121 91.4076ZM371.521 31.0077C375.521 31.0077 377.421 29.2077 377.421 25.4077C377.421 21.6077 375.521 19.8077 371.521 19.8077C367.521 19.8077 365.621 21.6077 365.621 25.4077C365.621 29.2077 367.521 31.0077 371.521 31.0077ZM384.521 31.0077C388.521 31.0077 390.421 29.2077 390.421 25.4077C390.421 21.6077 388.521 19.8077 384.521 19.8077C380.521 19.8077 378.621 21.6077 378.621 25.4077C378.621 29.2077 380.521 31.0077 384.521 31.0077ZM378.021 19.8077C381.621 19.8077 383.421 18.1077 383.421 14.6077C383.421 11.1077 381.621 9.50772 378.021 9.50772C374.321 9.50772 372.521 11.1077 372.521 14.6077C372.521 18.1077 374.321 19.8077 378.021 19.8077Z"/>
<path d="M262.121 73.4076H275.321V49.8077C275.321 47.4077 276.521 46.2077 278.921 46.2077V30.4077H256.121V49.5077C256.121 54.3077 257.421 56.7077 259.421 59.1077L258.121 60.3076C256.121 57.7077 254.321 55.8077 251.021 55.8077H248.921C248.121 55.8077 247.421 56.4077 247.421 57.3077C247.421 58.1077 248.121 58.8077 248.921 58.8077H250.621V61.1077C250.621 69.5077 254.421 73.4076 262.121 73.4076ZM261.021 27.0077C265.021 27.0077 266.921 25.2077 266.921 21.4077C266.921 17.6077 265.021 15.8077 261.021 15.8077C257.021 15.8077 255.121 17.6077 255.121 21.4077C255.121 25.2077 257.021 27.0077 261.021 27.0077ZM274.021 27.0077C278.021 27.0077 279.921 25.2077 279.921 21.4077C279.921 17.6077 278.021 15.8077 274.021 15.8077C270.021 15.8077 268.121 17.6077 268.121 21.4077C268.121 25.2077 270.021 27.0077 274.021 27.0077Z"/>
<path d="M213.721 73.4076H248.921V50.1077C248.921 40.1077 246.121 35.4077 234.621 35.4077H208.321V33.5077H209.521C223.221 33.5077 228.621 24.8077 238.421 24.8077C243.221 24.8077 245.121 28.0077 245.121 31.6077H247.921V24.6077C247.921 12.5077 244.321 7.40771 237.021 7.40771C222.521 7.40771 218.821 30.7077 207.021 30.7077H205.521V40.8077C205.521 48.5076 208.921 51.7077 218.521 51.7077H238.221C244.121 51.7077 245.921 53.5076 245.921 57.8077V60.8077H244.221C244.221 56.7076 242.921 55.8077 239.221 55.8077H200.721C199.921 55.8077 199.221 56.4077 199.221 57.3076C199.221 58.1077 199.921 58.8077 200.721 58.8077H202.421V61.3076C202.421 69.7076 206.121 73.4076 213.721 73.4076ZM205.521 26.0077V29.0077C212.021 29.8077 215.321 23.5077 220.721 16.2077C224.621 10.8077 230.021 5.80771 237.021 6.00772V3.00773C227.921 2.80772 222.321 6.50773 217.721 11.8077C211.921 18.8077 209.721 26.0077 205.521 26.0077Z"/>
<path d="M192.221 73.4077H200.721V25.8077C200.721 23.4077 201.921 22.2077 204.321 22.2077V6.40775H181.521V60.6077C181.521 70.0077 185.821 73.4077 192.221 73.4077Z"/>
<path d="M117.121 67.3076C117.121 62.7077 119.421 59.5077 122.521 59.5077C126.521 59.6078 127.721 63.1077 127.721 67.3076V71.4077H145.321V67.5077C145.321 52.2077 140.421 46.2077 130.921 46.2077C122.021 46.2077 114.121 51.8077 114.121 67.0077C114.121 80.7077 124.221 91.4076 141.521 91.4076C164.921 91.4076 173.721 77.9076 173.721 57.7077V25.8077C173.721 23.4077 174.921 22.2077 177.321 22.2077V6.40775H154.521V58.6077C154.521 78.6076 145.521 82.6076 134.121 82.6076C125.121 82.6076 117.121 77.0077 117.121 67.3076Z"/>
<path d="M86.2214 74.2076C91.9214 74.2076 96.2214 71.4077 96.2214 64.5076C96.2214 57.7077 91.9214 55.0076 86.2214 55.0076C80.6214 55.0076 76.3214 57.7077 76.3214 64.5076C76.3214 71.4077 80.6214 74.2076 86.2214 74.2076ZM79.2214 49.1076H93.2214L94.7214 37.7077L87.0214 38.1077L85.2214 37.7077C78.5214 37.7077 75.4214 35.8077 75.4214 31.8077C75.4214 28.6077 78.3214 27.0077 81.6214 27.0077C84.8214 27.0077 87.7214 28.3077 87.7214 33.4077H109.321V10.3077H91.7214V27.4077H90.0214V24.0077C90.0214 13.4077 83.8214 9.40771 73.8214 9.40771C63.6215 9.40771 57.4214 14.4077 57.4214 24.0077C57.4214 34.9077 63.1214 40.4077 78.2214 41.0077L79.2214 49.1076Z"/>
</mask>
<path d="M418.321 73.4076H426.921C433.521 73.4076 437.521 69.7076 437.521 60.6077V40.8077C437.521 38.4077 438.721 37.2077 441.121 37.2077V21.4077H418.321V73.4076ZM438.021 10.1077H421.421C418.621 10.1077 417.221 11.6077 417.221 14.4077V18.3077H419.221C419.221 17.1077 419.721 16.3077 421.421 16.3077H437.921C440.821 16.3077 442.221 13.8077 442.221 10.9077V8.10773H440.221C440.221 9.30773 439.721 10.1077 438.021 10.1077Z" fill="#FFE83C"/>
<path d="M332.121 91.4076C350.621 91.4076 359.921 83.0076 363.121 69.6077C364.921 72.1076 368.021 73.4076 372.421 73.4076H384.321V58.8077H386.021V61.3077C386.021 69.3076 389.321 73.4076 397.921 73.4076L410.921 73.5078V49.8078C410.921 47.4078 412.121 46.2078 414.521 46.2078V30.4078H391.721V49.5078C391.721 54.3078 393.021 56.7078 395.021 59.1078L393.721 60.3078C391.821 57.8078 390.321 56.1078 387.621 55.8078V34.4078H368.421V55.8078H366.121C365.021 55.8078 364.321 55.0078 364.321 53.7078V34.4078H345.121V58.6078C345.121 78.6078 336.121 82.6077 324.721 82.6077C315.721 82.6077 307.721 77.0078 307.721 67.3078C307.721 62.7078 310.021 59.5078 313.121 59.5078C317.121 59.608 318.321 63.1078 318.321 67.3078V71.4078H335.921V67.5078C335.921 52.2078 331.021 46.2078 321.521 46.2078C312.621 46.2078 304.721 51.8078 304.721 67.0078C304.721 80.7078 314.821 91.4076 332.121 91.4076ZM371.521 31.0077C375.521 31.0077 377.421 29.2077 377.421 25.4077C377.421 21.6077 375.521 19.8077 371.521 19.8077C367.521 19.8077 365.621 21.6077 365.621 25.4077C365.621 29.2077 367.521 31.0077 371.521 31.0077ZM384.521 31.0077C388.521 31.0077 390.421 29.2077 390.421 25.4077C390.421 21.6077 388.521 19.8077 384.521 19.8077C380.521 19.8077 378.621 21.6077 378.621 25.4077C378.621 29.2077 380.521 31.0077 384.521 31.0077ZM378.021 19.8077C381.621 19.8077 383.421 18.1077 383.421 14.6077C383.421 11.1077 381.621 9.50772 378.021 9.50772C374.321 9.50772 372.521 11.1077 372.521 14.6077C372.521 18.1077 374.321 19.8077 378.021 19.8077Z" fill="#FFE83C"/>
<path d="M262.121 73.4076H275.321V49.8077C275.321 47.4077 276.521 46.2077 278.921 46.2077V30.4077H256.121V49.5077C256.121 54.3077 257.421 56.7077 259.421 59.1077L258.121 60.3076C256.121 57.7077 254.321 55.8077 251.021 55.8077H248.921C248.121 55.8077 247.421 56.4077 247.421 57.3077C247.421 58.1077 248.121 58.8077 248.921 58.8077H250.621V61.1077C250.621 69.5077 254.421 73.4076 262.121 73.4076ZM261.021 27.0077C265.021 27.0077 266.921 25.2077 266.921 21.4077C266.921 17.6077 265.021 15.8077 261.021 15.8077C257.021 15.8077 255.121 17.6077 255.121 21.4077C255.121 25.2077 257.021 27.0077 261.021 27.0077ZM274.021 27.0077C278.021 27.0077 279.921 25.2077 279.921 21.4077C279.921 17.6077 278.021 15.8077 274.021 15.8077C270.021 15.8077 268.121 17.6077 268.121 21.4077C268.121 25.2077 270.021 27.0077 274.021 27.0077Z" fill="#FFE83C"/>
<path d="M213.721 73.4076H248.921V50.1077C248.921 40.1077 246.121 35.4077 234.621 35.4077H208.321V33.5077H209.521C223.221 33.5077 228.621 24.8077 238.421 24.8077C243.221 24.8077 245.121 28.0077 245.121 31.6077H247.921V24.6077C247.921 12.5077 244.321 7.40771 237.021 7.40771C222.521 7.40771 218.821 30.7077 207.021 30.7077H205.521V40.8077C205.521 48.5076 208.921 51.7077 218.521 51.7077H238.221C244.121 51.7077 245.921 53.5076 245.921 57.8077V60.8077H244.221C244.221 56.7076 242.921 55.8077 239.221 55.8077H200.721C199.921 55.8077 199.221 56.4077 199.221 57.3076C199.221 58.1077 199.921 58.8077 200.721 58.8077H202.421V61.3076C202.421 69.7076 206.121 73.4076 213.721 73.4076ZM205.521 26.0077V29.0077C212.021 29.8077 215.321 23.5077 220.721 16.2077C224.621 10.8077 230.021 5.80771 237.021 6.00772V3.00773C227.921 2.80772 222.321 6.50773 217.721 11.8077C211.921 18.8077 209.721 26.0077 205.521 26.0077Z" fill="#FFE83C"/>
<path d="M192.221 73.4077H200.721V25.8077C200.721 23.4077 201.921 22.2077 204.321 22.2077V6.40775H181.521V60.6077C181.521 70.0077 185.821 73.4077 192.221 73.4077Z" fill="#FFE83C"/>
<path d="M117.121 67.3076C117.121 62.7077 119.421 59.5077 122.521 59.5077C126.521 59.6078 127.721 63.1077 127.721 67.3076V71.4077H145.321V67.5077C145.321 52.2077 140.421 46.2077 130.921 46.2077C122.021 46.2077 114.121 51.8077 114.121 67.0077C114.121 80.7077 124.221 91.4076 141.521 91.4076C164.921 91.4076 173.721 77.9076 173.721 57.7077V25.8077C173.721 23.4077 174.921 22.2077 177.321 22.2077V6.40775H154.521V58.6077C154.521 78.6076 145.521 82.6076 134.121 82.6076C125.121 82.6076 117.121 77.0077 117.121 67.3076Z" fill="#FFE83C"/>
<path d="M86.2214 74.2076C91.9214 74.2076 96.2214 71.4077 96.2214 64.5076C96.2214 57.7077 91.9214 55.0076 86.2214 55.0076C80.6214 55.0076 76.3214 57.7077 76.3214 64.5076C76.3214 71.4077 80.6214 74.2076 86.2214 74.2076ZM79.2214 49.1076H93.2214L94.7214 37.7077L87.0214 38.1077L85.2214 37.7077C78.5214 37.7077 75.4214 35.8077 75.4214 31.8077C75.4214 28.6077 78.3214 27.0077 81.6214 27.0077C84.8214 27.0077 87.7214 28.3077 87.7214 33.4077H109.321V10.3077H91.7214V27.4077H90.0214V24.0077C90.0214 13.4077 83.8214 9.40771 73.8214 9.40771C63.6215 9.40771 57.4214 14.4077 57.4214 24.0077C57.4214 34.9077 63.1214 40.4077 78.2214 41.0077L79.2214 49.1076Z" fill="#FFE83C"/>
<path d="M418.321 73.4076H426.921C433.521 73.4076 437.521 69.7076 437.521 60.6077V40.8077C437.521 38.4077 438.721 37.2077 441.121 37.2077V21.4077H418.321V73.4076ZM438.021 10.1077H421.421C418.621 10.1077 417.221 11.6077 417.221 14.4077V18.3077H419.221C419.221 17.1077 419.721 16.3077 421.421 16.3077H437.921C440.821 16.3077 442.221 13.8077 442.221 10.9077V8.10773H440.221C440.221 9.30773 439.721 10.1077 438.021 10.1077Z" stroke="black" stroke-width="6" mask="url(#path-1-outside-1_77_6)"/>
<path d="M332.121 91.4076C350.621 91.4076 359.921 83.0076 363.121 69.6077C364.921 72.1076 368.021 73.4076 372.421 73.4076H384.321V58.8077H386.021V61.3077C386.021 69.3076 389.321 73.4076 397.921 73.4076L410.921 73.5078V49.8078C410.921 47.4078 412.121 46.2078 414.521 46.2078V30.4078H391.721V49.5078C391.721 54.3078 393.021 56.7078 395.021 59.1078L393.721 60.3078C391.821 57.8078 390.321 56.1078 387.621 55.8078V34.4078H368.421V55.8078H366.121C365.021 55.8078 364.321 55.0078 364.321 53.7078V34.4078H345.121V58.6078C345.121 78.6078 336.121 82.6077 324.721 82.6077C315.721 82.6077 307.721 77.0078 307.721 67.3078C307.721 62.7078 310.021 59.5078 313.121 59.5078C317.121 59.608 318.321 63.1078 318.321 67.3078V71.4078H335.921V67.5078C335.921 52.2078 331.021 46.2078 321.521 46.2078C312.621 46.2078 304.721 51.8078 304.721 67.0078C304.721 80.7078 314.821 91.4076 332.121 91.4076ZM371.521 31.0077C375.521 31.0077 377.421 29.2077 377.421 25.4077C377.421 21.6077 375.521 19.8077 371.521 19.8077C367.521 19.8077 365.621 21.6077 365.621 25.4077C365.621 29.2077 367.521 31.0077 371.521 31.0077ZM384.521 31.0077C388.521 31.0077 390.421 29.2077 390.421 25.4077C390.421 21.6077 388.521 19.8077 384.521 19.8077C380.521 19.8077 378.621 21.6077 378.621 25.4077C378.621 29.2077 380.521 31.0077 384.521 31.0077ZM378.021 19.8077C381.621 19.8077 383.421 18.1077 383.421 14.6077C383.421 11.1077 381.621 9.50772 378.021 9.50772C374.321 9.50772 372.521 11.1077 372.521 14.6077C372.521 18.1077 374.321 19.8077 378.021 19.8077Z" stroke="black" stroke-width="6" mask="url(#path-1-outside-1_77_6)"/>
<path d="M262.121 73.4076H275.321V49.8077C275.321 47.4077 276.521 46.2077 278.921 46.2077V30.4077H256.121V49.5077C256.121 54.3077 257.421 56.7077 259.421 59.1077L258.121 60.3076C256.121 57.7077 254.321 55.8077 251.021 55.8077H248.921C248.121 55.8077 247.421 56.4077 247.421 57.3077C247.421 58.1077 248.121 58.8077 248.921 58.8077H250.621V61.1077C250.621 69.5077 254.421 73.4076 262.121 73.4076ZM261.021 27.0077C265.021 27.0077 266.921 25.2077 266.921 21.4077C266.921 17.6077 265.021 15.8077 261.021 15.8077C257.021 15.8077 255.121 17.6077 255.121 21.4077C255.121 25.2077 257.021 27.0077 261.021 27.0077ZM274.021 27.0077C278.021 27.0077 279.921 25.2077 279.921 21.4077C279.921 17.6077 278.021 15.8077 274.021 15.8077C270.021 15.8077 268.121 17.6077 268.121 21.4077C268.121 25.2077 270.021 27.0077 274.021 27.0077Z" stroke="black" stroke-width="6" mask="url(#path-1-outside-1_77_6)"/>
<path d="M213.721 73.4076H248.921V50.1077C248.921 40.1077 246.121 35.4077 234.621 35.4077H208.321V33.5077H209.521C223.221 33.5077 228.621 24.8077 238.421 24.8077C243.221 24.8077 245.121 28.0077 245.121 31.6077H247.921V24.6077C247.921 12.5077 244.321 7.40771 237.021 7.40771C222.521 7.40771 218.821 30.7077 207.021 30.7077H205.521V40.8077C205.521 48.5076 208.921 51.7077 218.521 51.7077H238.221C244.121 51.7077 245.921 53.5076 245.921 57.8077V60.8077H244.221C244.221 56.7076 242.921 55.8077 239.221 55.8077H200.721C199.921 55.8077 199.221 56.4077 199.221 57.3076C199.221 58.1077 199.921 58.8077 200.721 58.8077H202.421V61.3076C202.421 69.7076 206.121 73.4076 213.721 73.4076ZM205.521 26.0077V29.0077C212.021 29.8077 215.321 23.5077 220.721 16.2077C224.621 10.8077 230.021 5.80771 237.021 6.00772V3.00773C227.921 2.80772 222.321 6.50773 217.721 11.8077C211.921 18.8077 209.721 26.0077 205.521 26.0077Z" stroke="black" stroke-width="6" mask="url(#path-1-outside-1_77_6)"/>
<path d="M192.221 73.4077H200.721V25.8077C200.721 23.4077 201.921 22.2077 204.321 22.2077V6.40775H181.521V60.6077C181.521 70.0077 185.821 73.4077 192.221 73.4077Z" stroke="black" stroke-width="6" mask="url(#path-1-outside-1_77_6)"/>
<path d="M117.121 67.3076C117.121 62.7077 119.421 59.5077 122.521 59.5077C126.521 59.6078 127.721 63.1077 127.721 67.3076V71.4077H145.321V67.5077C145.321 52.2077 140.421 46.2077 130.921 46.2077C122.021 46.2077 114.121 51.8077 114.121 67.0077C114.121 80.7077 124.221 91.4076 141.521 91.4076C164.921 91.4076 173.721 77.9076 173.721 57.7077V25.8077C173.721 23.4077 174.921 22.2077 177.321 22.2077V6.40775H154.521V58.6077C154.521 78.6076 145.521 82.6076 134.121 82.6076C125.121 82.6076 117.121 77.0077 117.121 67.3076Z" stroke="black" stroke-width="6" mask="url(#path-1-outside-1_77_6)"/>
<path d="M86.2214 74.2076C91.9214 74.2076 96.2214 71.4077 96.2214 64.5076C96.2214 57.7077 91.9214 55.0076 86.2214 55.0076C80.6214 55.0076 76.3214 57.7077 76.3214 64.5076C76.3214 71.4077 80.6214 74.2076 86.2214 74.2076ZM79.2214 49.1076H93.2214L94.7214 37.7077L87.0214 38.1077L85.2214 37.7077C78.5214 37.7077 75.4214 35.8077 75.4214 31.8077C75.4214 28.6077 78.3214 27.0077 81.6214 27.0077C84.8214 27.0077 87.7214 28.3077 87.7214 33.4077H109.321V10.3077H91.7214V27.4077H90.0214V24.0077C90.0214 13.4077 83.8214 9.40771 73.8214 9.40771C63.6215 9.40771 57.4214 14.4077 57.4214 24.0077C57.4214 34.9077 63.1214 40.4077 78.2214 41.0077L79.2214 49.1076Z" stroke="black" stroke-width="6" mask="url(#path-1-outside-1_77_6)"/>
<mask id="path-2-outside-2_77_6" maskUnits="userSpaceOnUse" x="7" y="86.5886" width="381" height="73" fill="black">
<rect fill="white" x="7" y="86.5886" width="381" height="73"/>
<path d="M10 155.389H37.4V137.589C35 137.589 33.9 136.689 33.9 135.089V125.589H38.8C44.6 125.589 47.1 127.889 47.1 131.489C47.1 134.389 45.5 135.489 43.8 135.589C44 150.089 48.7 156.189 57.7999 156.189C68.4999 156.189 71.4999 147.289 71.4999 132.489V127.889H68.1999C68.1999 133.789 66.5999 134.989 63.6999 134.989C57.5999 134.989 59.6999 126.589 49.7999 126.589H48.9V124.889C62.6999 124.689 70.0999 119.689 70.0999 108.589C70.0999 97.2886 64.1999 92.3886 47.3 92.3886H10V110.189C12.4 110.189 13.5 111.089 13.5 112.689V135.089C13.5 136.689 12.4 137.589 10 137.589V155.389ZM33.9 122.189V110.189H39.6C44.9 110.189 48.6 111.689 48.6 116.189C48.6 120.489 44.9 122.189 39.6 122.189H33.9Z"/>
<path d="M101.5 156.189C116.3 156.189 124.5 150.489 124.5 138.989V136.789H121.1C121.1 140.189 115.7 142.089 107 142.089C97.5999 142.089 94.1999 139.389 93.6999 134.289H124.3V131.889C124.3 117.089 113.9 109.589 99.0999 109.589C84.4999 109.589 74.6999 117.189 74.6999 132.889C74.6999 149.188 85.7999 156.189 101.5 156.189ZM93.5999 131.489C93.9999 127.189 95.6999 124.289 99.6999 124.289C104.1 124.289 105.7 127.589 105.7 131.489H93.5999Z"/>
<path d="M132.8 128.689L143.9 155.389H161.1L172.2 128.689C173.2 126.489 174.4 125.589 177.4 125.589V110.389H153.8V125.589C156.2 125.589 157.3 126.489 156.4 128.889L154.7 135.389C153.7 137.889 153.3 139.389 153.3 141.289H151.8C151.8 139.389 151.4 137.889 150.4 135.389L148.7 128.889C147.8 126.589 149.2 125.589 151.5 125.589V110.389H127.4V125.589C130.4 125.589 131.8 126.389 132.8 128.689Z"/>
<path d="M180.2 155.389H205.6V140.189C203.2 140.189 202.1 139.289 202.1 137.689V110.389H180.2V125.589C182.6 125.589 183.7 126.489 183.7 128.089V137.689C183.7 139.289 182.6 140.189 180.2 140.189V155.389ZM191.3 106.989C197.6 106.989 200.7 102.589 200.7 98.2886C200.7 93.7886 197.6 89.5886 191.3 89.5886C185 89.5886 182 93.7886 182 98.2886C182 102.589 185.2 106.989 191.3 106.989Z"/>
<path d="M235.2 156.189C250 156.189 258.2 150.489 258.2 138.989V136.789H254.8C254.8 140.189 249.4 142.089 240.7 142.089C231.3 142.089 227.9 139.389 227.4 134.289H258V131.889C258 117.089 247.6 109.589 232.8 109.589C218.2 109.589 208.4 117.189 208.4 132.889C208.4 149.188 219.5 156.189 235.2 156.189ZM227.3 131.489C227.7 127.189 229.4 124.289 233.4 124.289C237.8 124.289 239.4 127.589 239.4 131.489H227.3Z"/>
<path d="M266.5 128.689L277.6 155.389H293.4L296.7 139.089C297.1 137.189 297.1 135.589 297.1 133.589H298.7C298.7 135.589 298.7 137.189 299.2 139.089L302.5 155.389H318.3L329.4 128.689C330.4 126.489 331.6 125.589 334.6 125.589V110.389H311V125.589C313.4 125.589 314.6 126.489 313.6 128.889L311.3 135.989C310.8 137.589 310.5 139.389 310.5 141.289H308.9C308.9 139.389 308.9 137.989 308.4 135.989L304.1 110.389H292L287.6 135.989C287.1 137.989 287.1 139.389 287.1 141.289H285.6C285.6 139.389 285.2 137.589 284.7 135.989L282.4 128.889C281.4 126.489 282.9 125.589 285.2 125.589V110.389H261.1V125.589C264.1 125.589 265.5 126.389 266.5 128.689Z"/>
<path d="M369.6 156.189C378.4 156.189 384.3 151.989 384.3 143.589C384.3 134.789 378.2 131.289 365.7 131.289H361.8C356.6 131.289 354.2 130.089 354.2 127.289C354.2 124.889 356.5 123.889 359 123.889C362 123.889 364.1 124.989 364.1 128.989H383.6V110.389H367.8V123.989H366.3V121.489C366.3 112.389 361.3 109.589 352.4 109.589C343.9 109.589 338.1 113.489 338.1 121.389C338.1 129.889 344 133.889 356.2 133.989L360.4 134.089C365 134.189 367.3 135.289 367.3 137.989C367.3 140.389 365.3 141.689 362.6 141.689C359.3 141.689 357 140.489 357 136.489H337.4V155.389H353.2V141.489H354.8V143.589C354.8 153.189 360.2 156.189 369.6 156.189Z"/>
</mask>
<path d="M10 155.389H37.4V137.589C35 137.589 33.9 136.689 33.9 135.089V125.589H38.8C44.6 125.589 47.1 127.889 47.1 131.489C47.1 134.389 45.5 135.489 43.8 135.589C44 150.089 48.7 156.189 57.7999 156.189C68.4999 156.189 71.4999 147.289 71.4999 132.489V127.889H68.1999C68.1999 133.789 66.5999 134.989 63.6999 134.989C57.5999 134.989 59.6999 126.589 49.7999 126.589H48.9V124.889C62.6999 124.689 70.0999 119.689 70.0999 108.589C70.0999 97.2886 64.1999 92.3886 47.3 92.3886H10V110.189C12.4 110.189 13.5 111.089 13.5 112.689V135.089C13.5 136.689 12.4 137.589 10 137.589V155.389ZM33.9 122.189V110.189H39.6C44.9 110.189 48.6 111.689 48.6 116.189C48.6 120.489 44.9 122.189 39.6 122.189H33.9Z" fill="#D02B2B"/>
<path d="M101.5 156.189C116.3 156.189 124.5 150.489 124.5 138.989V136.789H121.1C121.1 140.189 115.7 142.089 107 142.089C97.5999 142.089 94.1999 139.389 93.6999 134.289H124.3V131.889C124.3 117.089 113.9 109.589 99.0999 109.589C84.4999 109.589 74.6999 117.189 74.6999 132.889C74.6999 149.188 85.7999 156.189 101.5 156.189ZM93.5999 131.489C93.9999 127.189 95.6999 124.289 99.6999 124.289C104.1 124.289 105.7 127.589 105.7 131.489H93.5999Z" fill="#D02B2B"/>
<path d="M132.8 128.689L143.9 155.389H161.1L172.2 128.689C173.2 126.489 174.4 125.589 177.4 125.589V110.389H153.8V125.589C156.2 125.589 157.3 126.489 156.4 128.889L154.7 135.389C153.7 137.889 153.3 139.389 153.3 141.289H151.8C151.8 139.389 151.4 137.889 150.4 135.389L148.7 128.889C147.8 126.589 149.2 125.589 151.5 125.589V110.389H127.4V125.589C130.4 125.589 131.8 126.389 132.8 128.689Z" fill="#D02B2B"/>
<path d="M180.2 155.389H205.6V140.189C203.2 140.189 202.1 139.289 202.1 137.689V110.389H180.2V125.589C182.6 125.589 183.7 126.489 183.7 128.089V137.689C183.7 139.289 182.6 140.189 180.2 140.189V155.389ZM191.3 106.989C197.6 106.989 200.7 102.589 200.7 98.2886C200.7 93.7886 197.6 89.5886 191.3 89.5886C185 89.5886 182 93.7886 182 98.2886C182 102.589 185.2 106.989 191.3 106.989Z" fill="#D02B2B"/>
<path d="M235.2 156.189C250 156.189 258.2 150.489 258.2 138.989V136.789H254.8C254.8 140.189 249.4 142.089 240.7 142.089C231.3 142.089 227.9 139.389 227.4 134.289H258V131.889C258 117.089 247.6 109.589 232.8 109.589C218.2 109.589 208.4 117.189 208.4 132.889C208.4 149.188 219.5 156.189 235.2 156.189ZM227.3 131.489C227.7 127.189 229.4 124.289 233.4 124.289C237.8 124.289 239.4 127.589 239.4 131.489H227.3Z" fill="#D02B2B"/>
<path d="M266.5 128.689L277.6 155.389H293.4L296.7 139.089C297.1 137.189 297.1 135.589 297.1 133.589H298.7C298.7 135.589 298.7 137.189 299.2 139.089L302.5 155.389H318.3L329.4 128.689C330.4 126.489 331.6 125.589 334.6 125.589V110.389H311V125.589C313.4 125.589 314.6 126.489 313.6 128.889L311.3 135.989C310.8 137.589 310.5 139.389 310.5 141.289H308.9C308.9 139.389 308.9 137.989 308.4 135.989L304.1 110.389H292L287.6 135.989C287.1 137.989 287.1 139.389 287.1 141.289H285.6C285.6 139.389 285.2 137.589 284.7 135.989L282.4 128.889C281.4 126.489 282.9 125.589 285.2 125.589V110.389H261.1V125.589C264.1 125.589 265.5 126.389 266.5 128.689Z" fill="#D02B2B"/>
<path d="M369.6 156.189C378.4 156.189 384.3 151.989 384.3 143.589C384.3 134.789 378.2 131.289 365.7 131.289H361.8C356.6 131.289 354.2 130.089 354.2 127.289C354.2 124.889 356.5 123.889 359 123.889C362 123.889 364.1 124.989 364.1 128.989H383.6V110.389H367.8V123.989H366.3V121.489C366.3 112.389 361.3 109.589 352.4 109.589C343.9 109.589 338.1 113.489 338.1 121.389C338.1 129.889 344 133.889 356.2 133.989L360.4 134.089C365 134.189 367.3 135.289 367.3 137.989C367.3 140.389 365.3 141.689 362.6 141.689C359.3 141.689 357 140.489 357 136.489H337.4V155.389H353.2V141.489H354.8V143.589C354.8 153.189 360.2 156.189 369.6 156.189Z" fill="#D02B2B"/>
<path d="M10 155.389H37.4V137.589C35 137.589 33.9 136.689 33.9 135.089V125.589H38.8C44.6 125.589 47.1 127.889 47.1 131.489C47.1 134.389 45.5 135.489 43.8 135.589C44 150.089 48.7 156.189 57.7999 156.189C68.4999 156.189 71.4999 147.289 71.4999 132.489V127.889H68.1999C68.1999 133.789 66.5999 134.989 63.6999 134.989C57.5999 134.989 59.6999 126.589 49.7999 126.589H48.9V124.889C62.6999 124.689 70.0999 119.689 70.0999 108.589C70.0999 97.2886 64.1999 92.3886 47.3 92.3886H10V110.189C12.4 110.189 13.5 111.089 13.5 112.689V135.089C13.5 136.689 12.4 137.589 10 137.589V155.389ZM33.9 122.189V110.189H39.6C44.9 110.189 48.6 111.689 48.6 116.189C48.6 120.489 44.9 122.189 39.6 122.189H33.9Z" stroke="black" stroke-width="6" mask="url(#path-2-outside-2_77_6)"/>
<path d="M101.5 156.189C116.3 156.189 124.5 150.489 124.5 138.989V136.789H121.1C121.1 140.189 115.7 142.089 107 142.089C97.5999 142.089 94.1999 139.389 93.6999 134.289H124.3V131.889C124.3 117.089 113.9 109.589 99.0999 109.589C84.4999 109.589 74.6999 117.189 74.6999 132.889C74.6999 149.188 85.7999 156.189 101.5 156.189ZM93.5999 131.489C93.9999 127.189 95.6999 124.289 99.6999 124.289C104.1 124.289 105.7 127.589 105.7 131.489H93.5999Z" stroke="black" stroke-width="6" mask="url(#path-2-outside-2_77_6)"/>
<path d="M132.8 128.689L143.9 155.389H161.1L172.2 128.689C173.2 126.489 174.4 125.589 177.4 125.589V110.389H153.8V125.589C156.2 125.589 157.3 126.489 156.4 128.889L154.7 135.389C153.7 137.889 153.3 139.389 153.3 141.289H151.8C151.8 139.389 151.4 137.889 150.4 135.389L148.7 128.889C147.8 126.589 149.2 125.589 151.5 125.589V110.389H127.4V125.589C130.4 125.589 131.8 126.389 132.8 128.689Z" stroke="black" stroke-width="6" mask="url(#path-2-outside-2_77_6)"/>
<path d="M180.2 155.389H205.6V140.189C203.2 140.189 202.1 139.289 202.1 137.689V110.389H180.2V125.589C182.6 125.589 183.7 126.489 183.7 128.089V137.689C183.7 139.289 182.6 140.189 180.2 140.189V155.389ZM191.3 106.989C197.6 106.989 200.7 102.589 200.7 98.2886C200.7 93.7886 197.6 89.5886 191.3 89.5886C185 89.5886 182 93.7886 182 98.2886C182 102.589 185.2 106.989 191.3 106.989Z" stroke="black" stroke-width="6" mask="url(#path-2-outside-2_77_6)"/>
<path d="M235.2 156.189C250 156.189 258.2 150.489 258.2 138.989V136.789H254.8C254.8 140.189 249.4 142.089 240.7 142.089C231.3 142.089 227.9 139.389 227.4 134.289H258V131.889C258 117.089 247.6 109.589 232.8 109.589C218.2 109.589 208.4 117.189 208.4 132.889C208.4 149.188 219.5 156.189 235.2 156.189ZM227.3 131.489C227.7 127.189 229.4 124.289 233.4 124.289C237.8 124.289 239.4 127.589 239.4 131.489H227.3Z" stroke="black" stroke-width="6" mask="url(#path-2-outside-2_77_6)"/>
<path d="M266.5 128.689L277.6 155.389H293.4L296.7 139.089C297.1 137.189 297.1 135.589 297.1 133.589H298.7C298.7 135.589 298.7 137.189 299.2 139.089L302.5 155.389H318.3L329.4 128.689C330.4 126.489 331.6 125.589 334.6 125.589V110.389H311V125.589C313.4 125.589 314.6 126.489 313.6 128.889L311.3 135.989C310.8 137.589 310.5 139.389 310.5 141.289H308.9C308.9 139.389 308.9 137.989 308.4 135.989L304.1 110.389H292L287.6 135.989C287.1 137.989 287.1 139.389 287.1 141.289H285.6C285.6 139.389 285.2 137.589 284.7 135.989L282.4 128.889C281.4 126.489 282.9 125.589 285.2 125.589V110.389H261.1V125.589C264.1 125.589 265.5 126.389 266.5 128.689Z" stroke="black" stroke-width="6" mask="url(#path-2-outside-2_77_6)"/>
<path d="M369.6 156.189C378.4 156.189 384.3 151.989 384.3 143.589C384.3 134.789 378.2 131.289 365.7 131.289H361.8C356.6 131.289 354.2 130.089 354.2 127.289C354.2 124.889 356.5 123.889 359 123.889C362 123.889 364.1 124.989 364.1 128.989H383.6V110.389H367.8V123.989H366.3V121.489C366.3 112.389 361.3 109.589 352.4 109.589C343.9 109.589 338.1 113.489 338.1 121.389C338.1 129.889 344 133.889 356.2 133.989L360.4 134.089C365 134.189 367.3 135.289 367.3 137.989C367.3 140.389 365.3 141.689 362.6 141.689C359.3 141.689 357 140.489 357 136.489H337.4V155.389H353.2V141.489H354.8V143.589C354.8 153.189 360.2 156.189 369.6 156.189Z" stroke="black" stroke-width="6" mask="url(#path-2-outside-2_77_6)"/>
</g>
<defs>
<filter id="filter0_d_77_6" x="0" y="0" width="445.221" height="166.188" filterUnits="userSpaceOnUse" color-interpolation-filters="sRGB">
<feFlood flood-opacity="0" result="BackgroundImageFix"/>
<feColorMatrix in="SourceAlpha" type="matrix" values="0 0 0 0 0 0 0 0 0 0 0 0 0 0 0 0 0 0 127 0" result="hardAlpha"/>
<feOffset dx="-7" dy="7"/>
<feComposite in2="hardAlpha" operator="out"/>
<feColorMatrix type="matrix" values="0 0 0 0 0 0 0 0 0 0 0 0 0 0 0 0 0 0 1 0"/>
<feBlend mode="normal" in2="BackgroundImageFix" result="effect1_dropShadow_77_6"/>
<feBlend mode="normal" in="SourceGraphic" in2="effect1_dropShadow_77_6" result="shape"/>
</filter>
</defs>
</svg>
