<svg width="396" height="183" viewBox="0 0 396 183" fill="none" xmlns="http://www.w3.org/2000/svg">
<g filter="url(#filter0_d_14_176)">
<path d="M85.7061 99.9838V133.249H63.4258V115.72C63.4258 113.406 62.8038 112.236 62.0869 111.607C61.588 111.169 60.9098 110.873 60.0371 110.723V146.545C60.0371 148.378 60.5038 149.299 61.0469 149.795C61.6172 150.316 62.5755 150.651 64.1416 150.651H73.376V173.603H20.8301V150.651H30.0645C31.6305 150.651 32.5889 150.316 33.1592 149.795C33.7023 149.299 34.1699 148.378 34.1699 146.545V110.722C33.2968 110.872 32.6182 111.169 32.1191 111.607C31.4023 112.236 30.7803 113.406 30.7803 115.72V133.249H8.5V99.9838H85.7061Z" fill="#D02B2B" stroke="black" stroke-width="3"/>
<path d="M117.092 173.603H86.181V153.565H87.681C88.8808 153.565 89.4861 153.333 89.7601 153.13C89.952 152.988 90.1039 152.777 90.1039 152.262V141.501C90.1039 140.986 89.9519 140.776 89.7601 140.634C89.4861 140.431 88.8808 140.198 87.681 140.198H86.181V120.16H113.73V124.743C117.202 120.942 122.087 119.264 127.811 119.264C133.572 119.264 137.898 120.985 140.658 125.245C143.305 129.334 144.331 135.517 144.331 143.967V147.484H122.051V144.752C122.051 142.779 121.511 141.453 120.798 140.642C120.099 139.845 119.122 139.414 117.947 139.414C116.542 139.414 115.549 139.857 114.894 140.577C114.222 141.315 113.73 142.537 113.73 144.415V152.262C113.73 152.878 113.894 153.101 114.014 153.205C114.175 153.345 114.594 153.565 115.592 153.565H117.092V173.603Z" fill="#D02B2B" stroke="black" stroke-width="3"/>
<path d="M171.863 149.951C169.412 149.951 167.991 150.29 167.218 150.757C166.863 150.972 166.658 151.206 166.529 151.455C166.396 151.715 166.302 152.077 166.302 152.599C166.302 153.489 166.662 154.05 167.381 154.471C168.2 154.95 169.518 155.246 171.303 155.246C173.485 155.246 174.872 154.863 175.698 154.227C176.439 153.657 176.978 152.684 176.978 150.805V149.951H171.863ZM203.741 173.603H179.443V168.956L179.492 168.803C178.99 169.492 178.417 170.12 177.765 170.686C174.489 173.526 169.582 174.499 163.12 174.499C157.724 174.499 152.958 173.344 149.507 170.735C145.991 168.079 144.022 164.051 144.022 158.764C144.022 153.668 145.578 149.749 149.385 147.216C152.11 145.403 155.855 144.402 160.655 144.01H144.806V120.17L146.297 120.161L164.008 120.049L165.517 120.039V127.844C166.348 125.787 167.573 124.112 169.199 122.804C172.473 120.169 177.072 119.264 182.4 119.264C187.278 119.264 191.681 120.468 194.87 123.435C198.079 126.42 199.817 130.966 199.817 137.13V152.262C199.817 152.777 199.97 152.988 200.162 153.13C200.436 153.333 201.042 153.565 202.241 153.565H203.741V173.603ZM169.664 143.813H172.648C174.838 143.813 176.226 143.456 177.028 142.935C177.713 142.489 178.098 141.845 178.098 140.717C178.098 139.816 177.761 139.315 177.218 138.966C176.58 138.556 175.536 138.293 174.106 138.293C172.428 138.293 171.382 138.593 170.753 139.12C170.182 139.599 169.664 140.517 169.664 142.51V143.813Z" fill="#D02B2B" stroke="black" stroke-width="3"/>
<path d="M227.014 119.264C231.701 119.264 235.815 120.54 238.778 123.139C240.201 124.386 241.32 125.907 242.104 127.668V120.16H262.814V147.373H237.956V145.873C237.956 143.327 237.565 141.635 236.851 140.605C236.22 139.695 235.178 139.078 233.179 139.078C231.327 139.078 230.139 139.772 229.362 140.842C228.535 141.98 228.065 143.702 228.065 145.873C228.065 148.804 229.065 151.166 231.181 152.837C233.351 154.552 236.892 155.694 242.259 155.694C247.334 155.694 251.036 154.872 253.408 153.704C255.814 152.52 256.564 151.16 256.564 150.132V148.632H263.375V152.599C263.375 159.443 261.432 165.045 256.728 168.88C252.09 172.66 245.034 174.499 235.309 174.499C226.633 174.499 218.77 172.434 213.048 167.758C207.277 163.042 203.88 155.83 203.88 145.984C203.88 136.763 206.672 130.048 211.056 125.634C215.429 121.231 221.242 119.264 227.014 119.264Z" fill="#D02B2B" stroke="black" stroke-width="3"/>
<path d="M291.063 95.5V122.029L290.891 122.356C289.685 124.659 288.757 126.322 288.081 129.226C288.928 127.493 290.001 125.983 291.315 124.695C295.25 120.838 301.044 119.264 308.395 119.264C314.248 119.264 319.103 120.564 322.515 123.426C325.972 126.326 327.717 130.633 327.717 136.121C327.717 140.568 326.672 144.395 324.241 147.287H330.071V152.486C330.071 158.93 329.267 164.448 326.636 168.371C323.91 172.435 319.438 174.5 312.878 174.5C306.632 174.5 301.82 173.085 298.611 169.652C296.129 166.996 294.786 163.319 294.314 158.678V173.603H263.514V153.564H265.014C266.214 153.564 266.819 153.332 267.093 153.13C267.285 152.988 267.437 152.778 267.437 152.263V116.841C267.437 116.326 267.285 116.115 267.093 115.974C266.819 115.771 266.214 115.538 265.014 115.538H263.514V95.5H291.063ZM324.156 147.389C323.802 147.802 323.418 148.196 323.005 148.569C320.71 150.642 317.623 151.968 313.749 152.58C313.757 152.582 313.765 152.583 313.773 152.585C316.069 153.041 317.875 153.452 320.276 153.452C321.515 153.452 322.41 153.199 323.004 152.655C323.575 152.133 324.156 151.073 324.156 148.787V147.389ZM296.736 139.414C293.255 139.414 291.063 141.93 291.063 145.088V152.263C291.063 152.879 291.228 153.111 291.347 153.218C291.497 153.352 291.887 153.564 292.814 153.564H294.115V150.314H295.615C297.896 150.314 299.278 149.652 300.102 148.78C300.94 147.891 301.401 146.568 301.401 144.864C301.401 143.147 301.018 141.783 300.316 140.881C299.663 140.041 298.591 139.414 296.736 139.414Z" fill="#D02B2B" stroke="black" stroke-width="3"/>
<path d="M348.524 119.264C353.605 119.264 357.923 120.049 360.976 122.424C362.427 123.552 363.524 124.984 364.286 126.727V120.16H384.997V144.01H370.616C374.375 144.507 377.495 145.469 379.92 147.02C383.895 149.562 385.782 153.54 385.782 158.876C385.782 163.966 383.976 167.951 380.69 170.631C377.45 173.273 372.952 174.499 367.804 174.499C362.439 174.499 357.873 173.656 354.641 171.16C352.972 169.871 351.737 168.205 350.921 166.149V173.603H330.21V149.417H348.454C343.539 148.985 339.576 147.837 336.657 145.818C332.816 143.161 330.994 139.152 330.994 133.991C330.994 129.157 332.791 125.391 336.012 122.874C339.18 120.4 343.557 119.264 348.524 119.264ZM355.18 150.917C355.18 152.868 355.729 153.824 356.376 154.348C357.088 154.925 358.241 155.246 359.958 155.246C361.253 155.246 362.223 154.932 362.83 154.48C363.387 154.064 363.726 153.473 363.726 152.599C363.726 152.06 363.614 151.691 363.453 151.42C363.292 151.15 363.028 150.883 362.576 150.638C361.614 150.115 359.981 149.782 357.459 149.727H357.456L355.18 149.672V150.917ZM355.922 138.293C354.687 138.293 353.648 138.546 352.971 138.965C352.367 139.339 352.042 139.836 352.042 140.605C352.042 141.17 352.161 141.562 352.337 141.853C352.512 142.143 352.804 142.431 353.307 142.693C354.375 143.248 356.202 143.588 359.06 143.588H360.138V142.51C360.138 140.516 359.62 139.587 359.062 139.107C358.458 138.586 357.469 138.293 355.922 138.293Z" fill="#D02B2B" stroke="black" stroke-width="3"/>
<path d="M394.466 1.5V24.4824H392.966C391.68 24.4824 390.99 24.8024 390.612 25.1807C390.234 25.559 389.914 26.2488 389.914 27.5352V71.5459C389.914 77.487 388.612 81.9577 385.964 84.9502C383.285 87.9782 379.46 89.2344 375.007 89.2344H362.631V1.5H394.466Z" fill="#FFE83C" stroke="black" stroke-width="3"/>
<path d="M360.32 1.5V24.4824H358.82C357.534 24.4824 356.844 24.8024 356.465 25.1807C356.087 25.559 355.767 26.2487 355.767 27.5352V89.2344H338.079C332.973 89.2344 328.869 87.9384 326.065 84.9697C323.278 82.0184 322.035 77.6851 322.035 72.1787V70.7695H321.385C319.545 70.7695 317.988 69.2131 317.988 67.373C317.988 65.3414 319.612 63.9756 321.385 63.9756H323.535C326.383 63.9756 328.476 64.9586 330.227 66.4248C330.047 66.0492 329.878 65.66 329.722 65.2539C328.915 63.1477 328.485 60.6812 328.485 57.5078V1.5H360.32Z" fill="#FFE83C" stroke="black" stroke-width="3"/>
<path d="M297.988 31.0936C306.461 31.0936 312.784 34.393 316.932 40.2128C321.024 45.9557 322.885 53.9923 322.885 63.326V89.2343H285.215C280.119 89.2342 276.012 87.9751 273.204 85.0204C270.412 82.0818 269.171 77.7436 269.171 72.1786V70.7694H268.521C266.681 70.7694 265.124 69.213 265.124 67.3729C265.124 65.3413 266.748 63.9755 268.521 63.9755H273.092V63.326C273.092 53.9923 274.953 45.9557 279.045 40.2128C283.192 34.393 289.516 31.0936 297.988 31.0936ZM286.985 54.329C284.943 54.329 283.217 55.1279 281.979 56.5829C280.725 58.0558 279.886 60.3097 279.886 63.326V63.9755H287.365C289.746 63.9755 291.743 64.573 293.113 66.0536C293.51 66.4821 293.83 66.9606 294.085 67.4794V63.326C294.085 60.2968 293.271 58.0443 292.035 56.577C290.819 55.1333 289.099 54.329 286.985 54.329Z" fill="#FFE83C" stroke="black" stroke-width="3"/>
<path d="M274.574 1.5V24.4824H273.074C271.788 24.4824 271.099 24.8025 270.72 25.1807C270.342 25.559 270.021 26.2487 270.021 27.5352V89.2344H220.21C215.439 89.2343 211.486 87.8812 208.759 84.7705C206.067 81.6984 204.798 77.1663 204.798 71.293V58.917H211.592V60.417C211.592 61.0845 211.779 61.5689 212.072 61.9541C212.38 62.3589 212.866 62.7327 213.569 63.0488C215.006 63.6946 217.064 63.9756 219.325 63.9756H229.081V63.832C229.081 62.6217 228.802 61.8364 228.416 61.2803C228.021 60.7118 227.422 60.25 226.561 59.8467C225.688 59.4374 224.628 59.1252 223.385 58.8125C222.192 58.5123 220.774 58.1997 219.419 57.8125V57.8115C216.877 57.0943 214.125 56.0237 212.025 53.8145C209.882 51.56 208.592 48.3111 208.592 43.5967V17.5615H235.875V63.9756H238.043C240.463 63.9757 242.328 64.6874 243.924 65.8896C244.122 66.0384 244.315 66.195 244.503 66.3574C244.335 66.0059 244.176 65.642 244.028 65.2637C243.205 63.1622 242.739 60.6948 242.739 57.5078V1.5H274.574Z" fill="#FFE83C" stroke="black" stroke-width="3"/>
<path d="M178.981 30.5879C186.997 30.588 193.08 33.3215 197.128 38.1787C201.14 42.9931 202.992 49.7022 202.992 57.3818V61.5371H175.837V58.2666C175.837 56.9159 175.367 55.7664 174.545 54.9561C173.728 54.1505 172.451 53.5703 170.634 53.5703C167.236 53.5704 165.305 55.9846 165.305 58.7725C165.305 60.4648 166.018 61.6764 167.316 62.5303C168.689 63.4329 170.797 63.9756 173.543 63.9756H202.992V89.2344H165.828C160.733 89.2344 156.625 87.9752 153.817 85.0205C151.025 82.0819 149.784 77.7437 149.784 72.1787V70.7695H149.388C147.548 70.7695 145.99 69.2131 145.99 67.373C145.99 65.3414 147.614 63.9756 149.388 63.9756H151.664C154.617 63.9757 156.829 65.1809 158.923 66.2822C159.315 66.4887 159.711 66.6932 160.113 66.8955C159.156 66.1565 158.28 65.3075 157.509 64.3379C155.244 61.4887 153.958 57.7311 153.958 53.082C153.958 47.4648 155.732 41.815 159.832 37.5605C163.949 33.289 170.252 30.5879 178.981 30.5879Z" fill="#FFE83C" stroke="black" stroke-width="3"/>
<path d="M112.585 90.5342C115.307 90.5342 117.62 91.143 119.245 92.6846C120.886 94.2414 121.547 96.482 121.547 99.1162C121.547 101.75 120.886 103.991 119.245 105.548C117.62 107.089 115.307 107.698 112.585 107.698C109.863 107.698 107.55 107.089 105.925 105.548C104.284 103.991 103.623 101.75 103.623 99.1162C103.623 96.482 104.284 94.2415 105.925 92.6846C107.55 91.1431 109.863 90.5342 112.585 90.5342ZM150.887 31.8525V89.2344H105.376C95.3726 89.2344 86.8805 86.4715 80.874 81.002C74.8477 75.5141 71.5 67.461 71.5 57.2549C71.5001 48.954 74.1769 42.575 78.4844 38.2676C82.7819 33.9701 88.5856 31.8526 94.626 31.8525C101.027 31.8525 106.329 33.6074 110.007 37.6191C113.662 41.6062 115.476 47.5689 115.476 55.4844V60.2725H90.2178V55.8643C90.2178 53.7894 89.5378 52.1506 88.5234 51.0752C87.5194 50.0109 86.1197 49.4207 84.4727 49.5205L84.4277 49.5225H84.3818C82.8257 49.5225 81.3103 50.068 80.1953 51.1211C79.1011 52.1545 78.2939 53.7698 78.2939 56.1172C78.294 58.5526 79.1615 60.4146 80.9395 61.7227C82.7906 63.0845 85.8067 63.9756 90.3262 63.9756H116.885C119.958 63.9756 122.293 64.6295 124.226 65.8076C124.694 66.0934 125.133 66.406 125.547 66.7402C124.325 64.308 123.605 61.4511 123.605 57.7607V31.8525H150.887Z" fill="#FFE83C" stroke="black" stroke-width="3"/>
</g>
<defs>
<filter id="filter0_d_14_176" x="0" y="0" width="395.966" height="183" filterUnits="userSpaceOnUse" color-interpolation-filters="sRGB">
<feFlood flood-opacity="0" result="BackgroundImageFix"/>
<feColorMatrix in="SourceAlpha" type="matrix" values="0 0 0 0 0 0 0 0 0 0 0 0 0 0 0 0 0 0 127 0" result="hardAlpha"/>
<feOffset dx="-7" dy="7"/>
<feComposite in2="hardAlpha" operator="out"/>
<feColorMatrix type="matrix" values="0 0 0 0 0 0 0 0 0 0 0 0 0 0 0 0 0 0 1 0"/>
<feBlend mode="normal" in2="BackgroundImageFix" result="effect1_dropShadow_14_176"/>
<feBlend mode="normal" in="SourceGraphic" in2="effect1_dropShadow_14_176" result="shape"/>
</filter>
</defs>
</svg>
