<svg width="391" height="160" viewBox="0 0 391 160" fill="none" xmlns="http://www.w3.org/2000/svg">
<g filter="url(#filter0_d_93_3)">
<mask id="path-1-outside-1_93_3" maskUnits="userSpaceOnUse" x="56" y="0" width="286" height="78" fill="black">
<rect fill="white" x="56" width="286" height="78"/>
<path d="M318.59 61.7189H326.127C331.912 61.7189 335.417 58.4762 335.417 50.5009V20.0022C335.417 17.8988 336.469 16.8471 338.572 16.8471V3H318.59V61.7189Z"/>
<path d="M300.537 61.7189H311.754V20.0022C311.754 17.8988 312.806 16.8471 314.91 16.8471V3H294.928V40.7729C294.928 44.9796 296.067 47.083 297.82 49.1863L296.68 50.238C294.928 47.9594 293.35 46.2943 290.458 46.2943H288.968C288.267 46.2943 287.653 46.8202 287.653 47.6089C287.653 48.31 288.267 48.9234 288.968 48.9234H290.458V50.9392C290.458 58.301 293.788 61.7189 300.537 61.7189Z"/>
<path d="M277.75 61.7189H288.968V20.0022C288.968 17.8988 290.02 16.8471 292.123 16.8471V3H272.141V40.7729C272.141 44.9796 273.28 47.083 275.033 49.1863L273.894 50.238C272.141 47.9594 270.564 46.2943 267.671 46.2943H266.182C265.48 46.2943 264.867 46.8202 264.867 47.6089C264.867 48.31 265.481 48.9234 266.182 48.9234H267.671V50.9392C267.671 58.301 271.002 61.7189 277.75 61.7189Z"/>
<path d="M254.613 61.7189H266.182V24.0336H249.355V46.2942H243.045C242.343 46.2942 241.73 46.8202 241.73 47.6088C241.73 48.31 242.343 48.9234 243.045 48.9234H244.534V50.9391C244.534 58.301 247.865 61.7189 254.613 61.7189ZM252.072 21.0538C255.577 21.0538 257.242 19.4763 257.242 16.1459C257.242 12.8156 255.577 11.2382 252.072 11.2382C248.566 11.2382 246.901 12.8156 246.901 16.1459C246.901 19.4763 248.566 21.0538 252.072 21.0538ZM263.465 21.0538C266.97 21.0538 268.636 19.4763 268.636 16.1459C268.636 12.8156 266.97 11.2382 263.465 11.2382C259.959 11.2382 258.294 12.8156 258.294 16.1459C258.294 19.4763 259.959 21.0538 263.465 21.0538Z"/>
<path d="M231.651 61.7189L243.045 61.8068V24.0338H226.218V40.7732C226.218 44.9798 227.357 47.0832 229.11 49.1866L227.97 50.2382C226.305 48.0473 224.991 46.5574 222.624 46.2945V27.5395H205.798V46.2945H203.782C202.818 46.2945 202.204 45.5933 202.204 44.454V27.5395H185.377V46.2945H179.418C178.717 46.2945 178.103 46.8204 178.103 47.6091C178.103 48.3102 178.716 48.9236 179.418 48.9236H180.908V51.1146C180.908 58.1259 184.15 61.7191 191.337 61.7191H199.312V48.9236H200.802V51.1146C200.802 58.1259 204.045 61.7191 210.881 61.7191H219.732V48.9236H221.222V51.1146C221.222 58.1259 224.114 61.7189 231.651 61.7189ZM208.514 24.5594C212.02 24.5594 213.685 22.982 213.685 19.6516C213.685 16.3213 212.02 14.7438 208.514 14.7438C205.009 14.7438 203.344 16.3213 203.344 19.6516C203.344 22.982 205.009 24.5594 208.514 24.5594ZM219.908 24.5594C223.413 24.5594 225.078 22.982 225.078 19.6516C225.078 16.3213 223.413 14.7438 219.908 14.7438C216.402 14.7438 214.737 16.3213 214.737 19.6516C214.737 22.982 216.402 24.5594 219.908 24.5594ZM214.211 14.7438C217.366 14.7438 218.944 13.2539 218.944 10.1865C218.944 7.11906 217.366 5.71689 214.211 5.71689C210.968 5.71689 209.391 7.11906 209.391 10.1865C209.391 13.2539 210.968 14.7438 214.211 14.7438Z"/>
<path d="M148.568 61.7189H179.418V41.2988C179.418 32.5348 176.964 28.4156 166.885 28.4156H143.836V26.7505H144.888C156.894 26.7505 161.627 19.1258 170.216 19.1258C174.422 19.1258 176.087 21.9303 176.087 25.0854H178.541V18.9505C178.541 8.34604 175.386 3.87637 168.989 3.87637C156.281 3.87637 153.038 24.2965 142.697 24.2965H141.382V33.1482C141.382 39.8965 144.362 42.701 152.775 42.701H170.04C175.211 42.701 176.789 44.2786 176.789 48.0471V50.6763H175.299C175.299 47.083 174.159 46.2943 170.917 46.2943H137.175C136.474 46.2943 135.861 46.8202 135.861 47.6088C135.861 48.31 136.474 48.9234 137.175 48.9234H138.665V51.1144C138.665 58.4762 141.908 61.7189 148.568 61.7189Z"/>
<path d="M125.607 61.7189H137.175V24.0336H120.348V46.2943H114.038C113.337 46.2943 112.724 46.8202 112.724 47.6088C112.724 48.31 113.337 48.9234 114.038 48.9234H115.528V50.9392C115.528 58.301 118.858 61.7189 125.607 61.7189ZM123.065 74.5144C126.571 74.5144 128.236 72.9369 128.236 69.6066C128.236 66.2762 126.571 64.6987 123.065 64.6987C119.559 64.6987 117.894 66.2762 117.894 69.6066C117.894 72.9369 119.559 74.5144 123.065 74.5144ZM134.458 74.5144C137.964 74.5144 139.629 72.9369 139.629 69.6066C139.629 66.2762 137.964 64.6987 134.458 64.6987C130.953 64.6987 129.288 66.2762 129.288 69.6066C129.288 72.9369 130.953 74.5144 134.458 74.5144Z"/>
<path d="M102.82 61.7189H114.038V20.0022C114.038 17.8988 115.09 16.8471 117.193 16.8471V3H97.2113V40.7729C97.2113 44.9796 98.3506 47.083 100.103 49.1863L98.964 50.238C97.2112 47.9594 95.6337 46.2943 92.7416 46.2943H91.2517C90.5506 46.2943 89.9371 46.8202 89.9371 47.6089C89.9371 48.31 90.5509 48.9234 91.2517 48.9234H92.7416V50.9392C92.7416 58.301 96.072 61.7189 102.82 61.7189Z"/>
<path d="M66.7124 61.7189C69.8675 61.7189 72.9348 59.2649 72.9348 54.7953V48.9234H74.4247V52.6043C74.4247 58.6515 77.4921 61.7189 83.5393 61.7189H91.2516V23.5078H75.1259C64.1708 23.5078 59 30.6942 59 38.4066V47.9594C59 58.5639 61.454 61.7189 66.7124 61.7189ZM71.9708 20.528C75.4764 20.528 77.1416 18.9504 77.1416 15.6201C77.1416 12.2898 75.4764 10.7123 71.9708 10.7123C68.4652 10.7123 66.8 12.2898 66.8 15.6201C66.8 18.9504 68.4652 20.528 71.9708 20.528ZM83.364 20.528C86.8697 20.528 88.5348 18.9504 88.5348 15.6201C88.5348 12.2898 86.8697 10.7123 83.364 10.7123C79.8584 10.7123 78.1932 12.2898 78.1932 15.6201C78.1932 18.9504 79.8584 20.528 83.364 20.528ZM65.0472 41.2988C65.0472 38.8448 67.063 36.6538 71.0944 36.6538H74.5123L74.4245 46.2943H71.0942C67.0627 46.2943 65.0472 44.4538 65.0472 41.2988Z"/>
</mask>
<path d="M318.59 61.7189H326.127C331.912 61.7189 335.417 58.4762 335.417 50.5009V20.0022C335.417 17.8988 336.469 16.8471 338.572 16.8471V3H318.59V61.7189Z" fill="#FFE83C"/>
<path d="M300.537 61.7189H311.754V20.0022C311.754 17.8988 312.806 16.8471 314.91 16.8471V3H294.928V40.7729C294.928 44.9796 296.067 47.083 297.82 49.1863L296.68 50.238C294.928 47.9594 293.35 46.2943 290.458 46.2943H288.968C288.267 46.2943 287.653 46.8202 287.653 47.6089C287.653 48.31 288.267 48.9234 288.968 48.9234H290.458V50.9392C290.458 58.301 293.788 61.7189 300.537 61.7189Z" fill="#FFE83C"/>
<path d="M277.75 61.7189H288.968V20.0022C288.968 17.8988 290.02 16.8471 292.123 16.8471V3H272.141V40.7729C272.141 44.9796 273.28 47.083 275.033 49.1863L273.894 50.238C272.141 47.9594 270.564 46.2943 267.671 46.2943H266.182C265.48 46.2943 264.867 46.8202 264.867 47.6089C264.867 48.31 265.481 48.9234 266.182 48.9234H267.671V50.9392C267.671 58.301 271.002 61.7189 277.75 61.7189Z" fill="#FFE83C"/>
<path d="M254.613 61.7189H266.182V24.0336H249.355V46.2942H243.045C242.343 46.2942 241.73 46.8202 241.73 47.6088C241.73 48.31 242.343 48.9234 243.045 48.9234H244.534V50.9391C244.534 58.301 247.865 61.7189 254.613 61.7189ZM252.072 21.0538C255.577 21.0538 257.242 19.4763 257.242 16.1459C257.242 12.8156 255.577 11.2382 252.072 11.2382C248.566 11.2382 246.901 12.8156 246.901 16.1459C246.901 19.4763 248.566 21.0538 252.072 21.0538ZM263.465 21.0538C266.97 21.0538 268.636 19.4763 268.636 16.1459C268.636 12.8156 266.97 11.2382 263.465 11.2382C259.959 11.2382 258.294 12.8156 258.294 16.1459C258.294 19.4763 259.959 21.0538 263.465 21.0538Z" fill="#FFE83C"/>
<path d="M231.651 61.7189L243.045 61.8068V24.0338H226.218V40.7732C226.218 44.9798 227.357 47.0832 229.11 49.1866L227.97 50.2382C226.305 48.0473 224.991 46.5574 222.624 46.2945V27.5395H205.798V46.2945H203.782C202.818 46.2945 202.204 45.5933 202.204 44.454V27.5395H185.377V46.2945H179.418C178.717 46.2945 178.103 46.8204 178.103 47.6091C178.103 48.3102 178.716 48.9236 179.418 48.9236H180.908V51.1146C180.908 58.1259 184.15 61.7191 191.337 61.7191H199.312V48.9236H200.802V51.1146C200.802 58.1259 204.045 61.7191 210.881 61.7191H219.732V48.9236H221.222V51.1146C221.222 58.1259 224.114 61.7189 231.651 61.7189ZM208.514 24.5594C212.02 24.5594 213.685 22.982 213.685 19.6516C213.685 16.3213 212.02 14.7438 208.514 14.7438C205.009 14.7438 203.344 16.3213 203.344 19.6516C203.344 22.982 205.009 24.5594 208.514 24.5594ZM219.908 24.5594C223.413 24.5594 225.078 22.982 225.078 19.6516C225.078 16.3213 223.413 14.7438 219.908 14.7438C216.402 14.7438 214.737 16.3213 214.737 19.6516C214.737 22.982 216.402 24.5594 219.908 24.5594ZM214.211 14.7438C217.366 14.7438 218.944 13.2539 218.944 10.1865C218.944 7.11906 217.366 5.71689 214.211 5.71689C210.968 5.71689 209.391 7.11906 209.391 10.1865C209.391 13.2539 210.968 14.7438 214.211 14.7438Z" fill="#FFE83C"/>
<path d="M148.568 61.7189H179.418V41.2988C179.418 32.5348 176.964 28.4156 166.885 28.4156H143.836V26.7505H144.888C156.894 26.7505 161.627 19.1258 170.216 19.1258C174.422 19.1258 176.087 21.9303 176.087 25.0854H178.541V18.9505C178.541 8.34604 175.386 3.87637 168.989 3.87637C156.281 3.87637 153.038 24.2965 142.697 24.2965H141.382V33.1482C141.382 39.8965 144.362 42.701 152.775 42.701H170.04C175.211 42.701 176.789 44.2786 176.789 48.0471V50.6763H175.299C175.299 47.083 174.159 46.2943 170.917 46.2943H137.175C136.474 46.2943 135.861 46.8202 135.861 47.6088C135.861 48.31 136.474 48.9234 137.175 48.9234H138.665V51.1144C138.665 58.4762 141.908 61.7189 148.568 61.7189Z" fill="#FFE83C"/>
<path d="M125.607 61.7189H137.175V24.0336H120.348V46.2943H114.038C113.337 46.2943 112.724 46.8202 112.724 47.6088C112.724 48.31 113.337 48.9234 114.038 48.9234H115.528V50.9392C115.528 58.301 118.858 61.7189 125.607 61.7189ZM123.065 74.5144C126.571 74.5144 128.236 72.9369 128.236 69.6066C128.236 66.2762 126.571 64.6987 123.065 64.6987C119.559 64.6987 117.894 66.2762 117.894 69.6066C117.894 72.9369 119.559 74.5144 123.065 74.5144ZM134.458 74.5144C137.964 74.5144 139.629 72.9369 139.629 69.6066C139.629 66.2762 137.964 64.6987 134.458 64.6987C130.953 64.6987 129.288 66.2762 129.288 69.6066C129.288 72.9369 130.953 74.5144 134.458 74.5144Z" fill="#FFE83C"/>
<path d="M102.82 61.7189H114.038V20.0022C114.038 17.8988 115.09 16.8471 117.193 16.8471V3H97.2113V40.7729C97.2113 44.9796 98.3506 47.083 100.103 49.1863L98.964 50.238C97.2112 47.9594 95.6337 46.2943 92.7416 46.2943H91.2517C90.5506 46.2943 89.9371 46.8202 89.9371 47.6089C89.9371 48.31 90.5509 48.9234 91.2517 48.9234H92.7416V50.9392C92.7416 58.301 96.072 61.7189 102.82 61.7189Z" fill="#FFE83C"/>
<path d="M66.7124 61.7189C69.8675 61.7189 72.9348 59.2649 72.9348 54.7953V48.9234H74.4247V52.6043C74.4247 58.6515 77.4921 61.7189 83.5393 61.7189H91.2516V23.5078H75.1259C64.1708 23.5078 59 30.6942 59 38.4066V47.9594C59 58.5639 61.454 61.7189 66.7124 61.7189ZM71.9708 20.528C75.4764 20.528 77.1416 18.9504 77.1416 15.6201C77.1416 12.2898 75.4764 10.7123 71.9708 10.7123C68.4652 10.7123 66.8 12.2898 66.8 15.6201C66.8 18.9504 68.4652 20.528 71.9708 20.528ZM83.364 20.528C86.8697 20.528 88.5348 18.9504 88.5348 15.6201C88.5348 12.2898 86.8697 10.7123 83.364 10.7123C79.8584 10.7123 78.1932 12.2898 78.1932 15.6201C78.1932 18.9504 79.8584 20.528 83.364 20.528ZM65.0472 41.2988C65.0472 38.8448 67.063 36.6538 71.0944 36.6538H74.5123L74.4245 46.2943H71.0942C67.0627 46.2943 65.0472 44.4538 65.0472 41.2988Z" fill="#FFE83C"/>
<path d="M318.59 61.7189H326.127C331.912 61.7189 335.417 58.4762 335.417 50.5009V20.0022C335.417 17.8988 336.469 16.8471 338.572 16.8471V3H318.59V61.7189Z" stroke="black" stroke-width="6" mask="url(#path-1-outside-1_93_3)"/>
<path d="M300.537 61.7189H311.754V20.0022C311.754 17.8988 312.806 16.8471 314.91 16.8471V3H294.928V40.7729C294.928 44.9796 296.067 47.083 297.82 49.1863L296.68 50.238C294.928 47.9594 293.35 46.2943 290.458 46.2943H288.968C288.267 46.2943 287.653 46.8202 287.653 47.6089C287.653 48.31 288.267 48.9234 288.968 48.9234H290.458V50.9392C290.458 58.301 293.788 61.7189 300.537 61.7189Z" stroke="black" stroke-width="6" mask="url(#path-1-outside-1_93_3)"/>
<path d="M277.75 61.7189H288.968V20.0022C288.968 17.8988 290.02 16.8471 292.123 16.8471V3H272.141V40.7729C272.141 44.9796 273.28 47.083 275.033 49.1863L273.894 50.238C272.141 47.9594 270.564 46.2943 267.671 46.2943H266.182C265.48 46.2943 264.867 46.8202 264.867 47.6089C264.867 48.31 265.481 48.9234 266.182 48.9234H267.671V50.9392C267.671 58.301 271.002 61.7189 277.75 61.7189Z" stroke="black" stroke-width="6" mask="url(#path-1-outside-1_93_3)"/>
<path d="M254.613 61.7189H266.182V24.0336H249.355V46.2942H243.045C242.343 46.2942 241.73 46.8202 241.73 47.6088C241.73 48.31 242.343 48.9234 243.045 48.9234H244.534V50.9391C244.534 58.301 247.865 61.7189 254.613 61.7189ZM252.072 21.0538C255.577 21.0538 257.242 19.4763 257.242 16.1459C257.242 12.8156 255.577 11.2382 252.072 11.2382C248.566 11.2382 246.901 12.8156 246.901 16.1459C246.901 19.4763 248.566 21.0538 252.072 21.0538ZM263.465 21.0538C266.97 21.0538 268.636 19.4763 268.636 16.1459C268.636 12.8156 266.97 11.2382 263.465 11.2382C259.959 11.2382 258.294 12.8156 258.294 16.1459C258.294 19.4763 259.959 21.0538 263.465 21.0538Z" stroke="black" stroke-width="6" mask="url(#path-1-outside-1_93_3)"/>
<path d="M231.651 61.7189L243.045 61.8068V24.0338H226.218V40.7732C226.218 44.9798 227.357 47.0832 229.11 49.1866L227.97 50.2382C226.305 48.0473 224.991 46.5574 222.624 46.2945V27.5395H205.798V46.2945H203.782C202.818 46.2945 202.204 45.5933 202.204 44.454V27.5395H185.377V46.2945H179.418C178.717 46.2945 178.103 46.8204 178.103 47.6091C178.103 48.3102 178.716 48.9236 179.418 48.9236H180.908V51.1146C180.908 58.1259 184.15 61.7191 191.337 61.7191H199.312V48.9236H200.802V51.1146C200.802 58.1259 204.045 61.7191 210.881 61.7191H219.732V48.9236H221.222V51.1146C221.222 58.1259 224.114 61.7189 231.651 61.7189ZM208.514 24.5594C212.02 24.5594 213.685 22.982 213.685 19.6516C213.685 16.3213 212.02 14.7438 208.514 14.7438C205.009 14.7438 203.344 16.3213 203.344 19.6516C203.344 22.982 205.009 24.5594 208.514 24.5594ZM219.908 24.5594C223.413 24.5594 225.078 22.982 225.078 19.6516C225.078 16.3213 223.413 14.7438 219.908 14.7438C216.402 14.7438 214.737 16.3213 214.737 19.6516C214.737 22.982 216.402 24.5594 219.908 24.5594ZM214.211 14.7438C217.366 14.7438 218.944 13.2539 218.944 10.1865C218.944 7.11906 217.366 5.71689 214.211 5.71689C210.968 5.71689 209.391 7.11906 209.391 10.1865C209.391 13.2539 210.968 14.7438 214.211 14.7438Z" stroke="black" stroke-width="6" mask="url(#path-1-outside-1_93_3)"/>
<path d="M148.568 61.7189H179.418V41.2988C179.418 32.5348 176.964 28.4156 166.885 28.4156H143.836V26.7505H144.888C156.894 26.7505 161.627 19.1258 170.216 19.1258C174.422 19.1258 176.087 21.9303 176.087 25.0854H178.541V18.9505C178.541 8.34604 175.386 3.87637 168.989 3.87637C156.281 3.87637 153.038 24.2965 142.697 24.2965H141.382V33.1482C141.382 39.8965 144.362 42.701 152.775 42.701H170.04C175.211 42.701 176.789 44.2786 176.789 48.0471V50.6763H175.299C175.299 47.083 174.159 46.2943 170.917 46.2943H137.175C136.474 46.2943 135.861 46.8202 135.861 47.6088C135.861 48.31 136.474 48.9234 137.175 48.9234H138.665V51.1144C138.665 58.4762 141.908 61.7189 148.568 61.7189Z" stroke="black" stroke-width="6" mask="url(#path-1-outside-1_93_3)"/>
<path d="M125.607 61.7189H137.175V24.0336H120.348V46.2943H114.038C113.337 46.2943 112.724 46.8202 112.724 47.6088C112.724 48.31 113.337 48.9234 114.038 48.9234H115.528V50.9392C115.528 58.301 118.858 61.7189 125.607 61.7189ZM123.065 74.5144C126.571 74.5144 128.236 72.9369 128.236 69.6066C128.236 66.2762 126.571 64.6987 123.065 64.6987C119.559 64.6987 117.894 66.2762 117.894 69.6066C117.894 72.9369 119.559 74.5144 123.065 74.5144ZM134.458 74.5144C137.964 74.5144 139.629 72.9369 139.629 69.6066C139.629 66.2762 137.964 64.6987 134.458 64.6987C130.953 64.6987 129.288 66.2762 129.288 69.6066C129.288 72.9369 130.953 74.5144 134.458 74.5144Z" stroke="black" stroke-width="6" mask="url(#path-1-outside-1_93_3)"/>
<path d="M102.82 61.7189H114.038V20.0022C114.038 17.8988 115.09 16.8471 117.193 16.8471V3H97.2113V40.7729C97.2113 44.9796 98.3506 47.083 100.103 49.1863L98.964 50.238C97.2112 47.9594 95.6337 46.2943 92.7416 46.2943H91.2517C90.5506 46.2943 89.9371 46.8202 89.9371 47.6089C89.9371 48.31 90.5509 48.9234 91.2517 48.9234H92.7416V50.9392C92.7416 58.301 96.072 61.7189 102.82 61.7189Z" stroke="black" stroke-width="6" mask="url(#path-1-outside-1_93_3)"/>
<path d="M66.7124 61.7189C69.8675 61.7189 72.9348 59.2649 72.9348 54.7953V48.9234H74.4247V52.6043C74.4247 58.6515 77.4921 61.7189 83.5393 61.7189H91.2516V23.5078H75.1259C64.1708 23.5078 59 30.6942 59 38.4066V47.9594C59 58.5639 61.454 61.7189 66.7124 61.7189ZM71.9708 20.528C75.4764 20.528 77.1416 18.9504 77.1416 15.6201C77.1416 12.2898 75.4764 10.7123 71.9708 10.7123C68.4652 10.7123 66.8 12.2898 66.8 15.6201C66.8 18.9504 68.4652 20.528 71.9708 20.528ZM83.364 20.528C86.8697 20.528 88.5348 18.9504 88.5348 15.6201C88.5348 12.2898 86.8697 10.7123 83.364 10.7123C79.8584 10.7123 78.1932 12.2898 78.1932 15.6201C78.1932 18.9504 79.8584 20.528 83.364 20.528ZM65.0472 41.2988C65.0472 38.8448 67.063 36.6538 71.0944 36.6538H74.5123L74.4245 46.2943H71.0942C67.0627 46.2943 65.0472 44.4538 65.0472 41.2988Z" stroke="black" stroke-width="6" mask="url(#path-1-outside-1_93_3)"/>
<mask id="path-2-outside-2_93_3" maskUnits="userSpaceOnUse" x="7" y="68.2773" width="384" height="85" fill="black">
<rect fill="white" x="7" y="68.2773" width="384" height="85"/>
<path d="M44.355 130.873C53.119 130.873 59.8673 126.053 59.8673 115.098C59.8673 104.756 53.9078 100.462 40.3235 100.462H35.6786C29.8943 100.462 27.7033 98.0077 27.7033 94.6773C27.7033 91.9605 29.6314 90.0323 33.2247 90.0323C36.555 90.0323 39.3595 91.6099 39.3595 97.7448H59.0785V74.783H42.8651V91.7852H41.3752V88.1043C41.3752 77.8503 36.2921 73.9066 26.3011 73.9066C16.8359 73.9066 10.7011 78.9021 10.7011 88.0166C10.7011 97.4818 15.8719 103.178 29.0179 103.354L33.8381 103.442C38.8336 103.617 41.9887 105.545 41.9887 109.489C41.9887 112.994 39.8853 114.747 36.6426 114.747C33.3123 114.747 30.2449 112.644 30.2449 106.509H10V129.997H26.6516V112.293H28.2292V114.922C28.2292 125.264 32.4359 130.873 44.355 130.873Z"/>
<path d="M92.6447 130.697C102.548 130.697 107.894 123.073 107.894 110.277C107.894 97.4818 102.899 89.8571 92.82 89.8571C85.02 89.8571 79.1481 95.2032 79.1481 106.509V109.05H77.8335C77.8335 99.7605 78.7099 96.956 81.0762 92.8368V90.5582H61.883V103.879C63.9863 103.879 64.9504 104.668 64.9504 106.07V134.291C64.9504 135.693 63.9863 136.482 61.883 136.482V149.803H84.1436V136.482C82.0402 136.482 81.0762 135.693 81.0762 134.291V125.877C83.7054 128.857 87.6492 130.697 92.6447 130.697ZM81.0762 114.484V109.05C81.0762 105.545 82.7414 103.003 86.0717 103.003C89.8402 103.003 91.3301 106.158 91.3301 110.277C91.3301 114.396 89.7526 117.551 86.0717 117.551C83.8807 117.551 82.2155 116.587 81.0762 114.484Z"/>
<path d="M133.836 130.697C146.806 130.697 153.993 125.702 153.993 115.623V113.695H151.013C151.013 116.675 146.28 118.34 138.656 118.34C130.418 118.34 127.438 115.974 127 111.504H153.818V109.401C153.818 96.4301 144.703 89.8571 131.732 89.8571C118.937 89.8571 110.348 96.5177 110.348 110.277C110.348 124.563 120.076 130.697 133.836 130.697ZM126.912 109.05C127.262 105.282 128.752 102.74 132.258 102.74C136.114 102.74 137.516 105.632 137.516 109.05H126.912Z"/>
<path d="M170.294 130.697C180.285 130.697 184.141 127.63 184.229 118.34V114.922H185.543C185.543 121.057 185.368 124.124 184.229 127.718V129.996H200.88V116.675C198.777 116.675 197.813 115.886 197.813 114.484V102.653C197.813 93.4503 192.642 89.8571 185.368 89.8571C177.218 89.8571 172.31 92.6616 172.31 101.513V104.318H170.995V90.4706L157.148 90.5585V106.86H174.238C174.238 103.354 176.078 102.39 178.883 102.39C181.337 102.39 183.177 103.266 183.177 105.457C183.177 107.911 181.337 109.051 177.743 109.051H172.485C161.004 109.051 156.534 112.118 156.534 119.567C156.534 127.192 162.143 130.697 170.294 130.697ZM171.609 114.747C171.609 112.556 173.186 111.504 177.13 111.504H182.301V113.345C182.301 116.763 180.285 117.99 176.692 117.99C173.712 117.99 171.609 117.026 171.609 114.747Z"/>
<path d="M240.757 130.697C250.485 130.697 253.026 124.65 253.026 114.659V111.767H250.748C250.748 115.711 248.732 116.587 246.541 116.587C242.509 116.587 240.406 115.185 234.534 115.185H231.029V113.87H237.163C247.067 113.87 251.186 109.488 251.186 101.864C251.186 93.8009 246.103 89.8571 237.251 89.8571C226.033 89.8571 220.599 94.6774 220.599 106.684V108.875H219.285C219.285 96.3424 220.599 94.2391 222.528 90.5582V71.2773H203.334V84.5987C205.438 84.5987 206.402 85.3875 206.402 86.7897V114.484C206.402 115.886 205.438 116.675 203.334 116.675V129.996H225.069V116.675C223.316 116.675 222.528 115.886 222.528 114.484V108.875C222.528 105.808 224.719 103.266 228.136 103.266C231.642 103.266 232.957 105.72 232.957 108.7C232.957 111.767 231.292 114.133 227.26 114.133V116.237C227.26 126.403 231.292 130.697 240.757 130.697Z"/>
<path d="M278.968 130.697C291.938 130.697 299.125 125.702 299.125 115.623V113.695H296.145C296.145 116.675 291.413 118.34 283.788 118.34C275.55 118.34 272.57 115.974 272.132 111.504H298.95V109.401C298.95 96.4301 289.835 89.8571 276.864 89.8571C264.069 89.8571 255.48 96.5177 255.48 110.277C255.48 124.563 265.208 130.697 278.968 130.697ZM272.044 109.05C272.395 105.282 273.885 102.74 277.39 102.74C281.246 102.74 282.649 105.632 282.649 109.05H272.044Z"/>
<path d="M301.667 129.996H323.489V116.675C321.649 116.675 320.86 115.886 320.86 114.484V108.349C320.86 105.019 322.613 103.266 325.33 103.266C327.783 103.266 329.711 105.106 329.711 108.612V109.576H344.786V107.999C344.786 94.8526 341.543 89.8571 333.042 89.8571C324.365 89.8571 318.932 95.0279 318.932 107.035V109.576H317.617C317.617 99.7605 318.494 96.956 320.86 92.8368V90.5582H301.667V103.879C303.77 103.879 304.734 104.668 304.734 106.07V114.484C304.734 115.886 303.77 116.675 301.667 116.675V129.996Z"/>
<path d="M375.109 130.697C382.822 130.697 387.992 127.017 387.992 119.655C387.992 111.942 382.646 108.875 371.691 108.875H368.273C363.716 108.875 361.613 107.823 361.613 105.369C361.613 103.266 363.628 102.39 365.819 102.39C368.449 102.39 370.289 103.354 370.289 106.859H387.379V90.5582H373.532V102.477H372.217V100.286C372.217 92.311 367.835 89.8571 360.035 89.8571C352.586 89.8571 347.502 93.2751 347.502 100.199C347.502 107.648 352.673 111.154 363.365 111.241L367.046 111.329C371.078 111.417 373.093 112.381 373.093 114.747C373.093 116.851 371.341 117.99 368.974 117.99C366.082 117.99 364.067 116.938 364.067 113.433H346.889V129.997H360.736V117.815H362.138V119.655C362.138 128.069 366.871 130.697 375.109 130.697Z"/>
</mask>
<path d="M44.355 130.873C53.119 130.873 59.8673 126.053 59.8673 115.098C59.8673 104.756 53.9078 100.462 40.3235 100.462H35.6786C29.8943 100.462 27.7033 98.0077 27.7033 94.6773C27.7033 91.9605 29.6314 90.0323 33.2247 90.0323C36.555 90.0323 39.3595 91.6099 39.3595 97.7448H59.0785V74.783H42.8651V91.7852H41.3752V88.1043C41.3752 77.8503 36.2921 73.9066 26.3011 73.9066C16.8359 73.9066 10.7011 78.9021 10.7011 88.0166C10.7011 97.4818 15.8719 103.178 29.0179 103.354L33.8381 103.442C38.8336 103.617 41.9887 105.545 41.9887 109.489C41.9887 112.994 39.8853 114.747 36.6426 114.747C33.3123 114.747 30.2449 112.644 30.2449 106.509H10V129.997H26.6516V112.293H28.2292V114.922C28.2292 125.264 32.4359 130.873 44.355 130.873Z" fill="#D02B2B"/>
<path d="M92.6447 130.697C102.548 130.697 107.894 123.073 107.894 110.277C107.894 97.4818 102.899 89.8571 92.82 89.8571C85.02 89.8571 79.1481 95.2032 79.1481 106.509V109.05H77.8335C77.8335 99.7605 78.7099 96.956 81.0762 92.8368V90.5582H61.883V103.879C63.9863 103.879 64.9504 104.668 64.9504 106.07V134.291C64.9504 135.693 63.9863 136.482 61.883 136.482V149.803H84.1436V136.482C82.0402 136.482 81.0762 135.693 81.0762 134.291V125.877C83.7054 128.857 87.6492 130.697 92.6447 130.697ZM81.0762 114.484V109.05C81.0762 105.545 82.7414 103.003 86.0717 103.003C89.8402 103.003 91.3301 106.158 91.3301 110.277C91.3301 114.396 89.7526 117.551 86.0717 117.551C83.8807 117.551 82.2155 116.587 81.0762 114.484Z" fill="#D02B2B"/>
<path d="M133.836 130.697C146.806 130.697 153.993 125.702 153.993 115.623V113.695H151.013C151.013 116.675 146.28 118.34 138.656 118.34C130.418 118.34 127.438 115.974 127 111.504H153.818V109.401C153.818 96.4301 144.703 89.8571 131.732 89.8571C118.937 89.8571 110.348 96.5177 110.348 110.277C110.348 124.563 120.076 130.697 133.836 130.697ZM126.912 109.05C127.262 105.282 128.752 102.74 132.258 102.74C136.114 102.74 137.516 105.632 137.516 109.05H126.912Z" fill="#D02B2B"/>
<path d="M170.294 130.697C180.285 130.697 184.141 127.63 184.229 118.34V114.922H185.543C185.543 121.057 185.368 124.124 184.229 127.718V129.996H200.88V116.675C198.777 116.675 197.813 115.886 197.813 114.484V102.653C197.813 93.4503 192.642 89.8571 185.368 89.8571C177.218 89.8571 172.31 92.6616 172.31 101.513V104.318H170.995V90.4706L157.148 90.5585V106.86H174.238C174.238 103.354 176.078 102.39 178.883 102.39C181.337 102.39 183.177 103.266 183.177 105.457C183.177 107.911 181.337 109.051 177.743 109.051H172.485C161.004 109.051 156.534 112.118 156.534 119.567C156.534 127.192 162.143 130.697 170.294 130.697ZM171.609 114.747C171.609 112.556 173.186 111.504 177.13 111.504H182.301V113.345C182.301 116.763 180.285 117.99 176.692 117.99C173.712 117.99 171.609 117.026 171.609 114.747Z" fill="#D02B2B"/>
<path d="M240.757 130.697C250.485 130.697 253.026 124.65 253.026 114.659V111.767H250.748C250.748 115.711 248.732 116.587 246.541 116.587C242.509 116.587 240.406 115.185 234.534 115.185H231.029V113.87H237.163C247.067 113.87 251.186 109.488 251.186 101.864C251.186 93.8009 246.103 89.8571 237.251 89.8571C226.033 89.8571 220.599 94.6774 220.599 106.684V108.875H219.285C219.285 96.3424 220.599 94.2391 222.528 90.5582V71.2773H203.334V84.5987C205.438 84.5987 206.402 85.3875 206.402 86.7897V114.484C206.402 115.886 205.438 116.675 203.334 116.675V129.996H225.069V116.675C223.316 116.675 222.528 115.886 222.528 114.484V108.875C222.528 105.808 224.719 103.266 228.136 103.266C231.642 103.266 232.957 105.72 232.957 108.7C232.957 111.767 231.292 114.133 227.26 114.133V116.237C227.26 126.403 231.292 130.697 240.757 130.697Z" fill="#D02B2B"/>
<path d="M278.968 130.697C291.938 130.697 299.125 125.702 299.125 115.623V113.695H296.145C296.145 116.675 291.413 118.34 283.788 118.34C275.55 118.34 272.57 115.974 272.132 111.504H298.95V109.401C298.95 96.4301 289.835 89.8571 276.864 89.8571C264.069 89.8571 255.48 96.5177 255.48 110.277C255.48 124.563 265.208 130.697 278.968 130.697ZM272.044 109.05C272.395 105.282 273.885 102.74 277.39 102.74C281.246 102.74 282.649 105.632 282.649 109.05H272.044Z" fill="#D02B2B"/>
<path d="M301.667 129.996H323.489V116.675C321.649 116.675 320.86 115.886 320.86 114.484V108.349C320.86 105.019 322.613 103.266 325.33 103.266C327.783 103.266 329.711 105.106 329.711 108.612V109.576H344.786V107.999C344.786 94.8526 341.543 89.8571 333.042 89.8571C324.365 89.8571 318.932 95.0279 318.932 107.035V109.576H317.617C317.617 99.7605 318.494 96.956 320.86 92.8368V90.5582H301.667V103.879C303.77 103.879 304.734 104.668 304.734 106.07V114.484C304.734 115.886 303.77 116.675 301.667 116.675V129.996Z" fill="#D02B2B"/>
<path d="M375.109 130.697C382.822 130.697 387.992 127.017 387.992 119.655C387.992 111.942 382.646 108.875 371.691 108.875H368.273C363.716 108.875 361.613 107.823 361.613 105.369C361.613 103.266 363.628 102.39 365.819 102.39C368.449 102.39 370.289 103.354 370.289 106.859H387.379V90.5582H373.532V102.477H372.217V100.286C372.217 92.311 367.835 89.8571 360.035 89.8571C352.586 89.8571 347.502 93.2751 347.502 100.199C347.502 107.648 352.673 111.154 363.365 111.241L367.046 111.329C371.078 111.417 373.093 112.381 373.093 114.747C373.093 116.851 371.341 117.99 368.974 117.99C366.082 117.99 364.067 116.938 364.067 113.433H346.889V129.997H360.736V117.815H362.138V119.655C362.138 128.069 366.871 130.697 375.109 130.697Z" fill="#D02B2B"/>
<path d="M44.355 130.873C53.119 130.873 59.8673 126.053 59.8673 115.098C59.8673 104.756 53.9078 100.462 40.3235 100.462H35.6786C29.8943 100.462 27.7033 98.0077 27.7033 94.6773C27.7033 91.9605 29.6314 90.0323 33.2247 90.0323C36.555 90.0323 39.3595 91.6099 39.3595 97.7448H59.0785V74.783H42.8651V91.7852H41.3752V88.1043C41.3752 77.8503 36.2921 73.9066 26.3011 73.9066C16.8359 73.9066 10.7011 78.9021 10.7011 88.0166C10.7011 97.4818 15.8719 103.178 29.0179 103.354L33.8381 103.442C38.8336 103.617 41.9887 105.545 41.9887 109.489C41.9887 112.994 39.8853 114.747 36.6426 114.747C33.3123 114.747 30.2449 112.644 30.2449 106.509H10V129.997H26.6516V112.293H28.2292V114.922C28.2292 125.264 32.4359 130.873 44.355 130.873Z" stroke="black" stroke-width="6" mask="url(#path-2-outside-2_93_3)"/>
<path d="M92.6447 130.697C102.548 130.697 107.894 123.073 107.894 110.277C107.894 97.4818 102.899 89.8571 92.82 89.8571C85.02 89.8571 79.1481 95.2032 79.1481 106.509V109.05H77.8335C77.8335 99.7605 78.7099 96.956 81.0762 92.8368V90.5582H61.883V103.879C63.9863 103.879 64.9504 104.668 64.9504 106.07V134.291C64.9504 135.693 63.9863 136.482 61.883 136.482V149.803H84.1436V136.482C82.0402 136.482 81.0762 135.693 81.0762 134.291V125.877C83.7054 128.857 87.6492 130.697 92.6447 130.697ZM81.0762 114.484V109.05C81.0762 105.545 82.7414 103.003 86.0717 103.003C89.8402 103.003 91.3301 106.158 91.3301 110.277C91.3301 114.396 89.7526 117.551 86.0717 117.551C83.8807 117.551 82.2155 116.587 81.0762 114.484Z" stroke="black" stroke-width="6" mask="url(#path-2-outside-2_93_3)"/>
<path d="M133.836 130.697C146.806 130.697 153.993 125.702 153.993 115.623V113.695H151.013C151.013 116.675 146.28 118.34 138.656 118.34C130.418 118.34 127.438 115.974 127 111.504H153.818V109.401C153.818 96.4301 144.703 89.8571 131.732 89.8571C118.937 89.8571 110.348 96.5177 110.348 110.277C110.348 124.563 120.076 130.697 133.836 130.697ZM126.912 109.05C127.262 105.282 128.752 102.74 132.258 102.74C136.114 102.74 137.516 105.632 137.516 109.05H126.912Z" stroke="black" stroke-width="6" mask="url(#path-2-outside-2_93_3)"/>
<path d="M170.294 130.697C180.285 130.697 184.141 127.63 184.229 118.34V114.922H185.543C185.543 121.057 185.368 124.124 184.229 127.718V129.996H200.88V116.675C198.777 116.675 197.813 115.886 197.813 114.484V102.653C197.813 93.4503 192.642 89.8571 185.368 89.8571C177.218 89.8571 172.31 92.6616 172.31 101.513V104.318H170.995V90.4706L157.148 90.5585V106.86H174.238C174.238 103.354 176.078 102.39 178.883 102.39C181.337 102.39 183.177 103.266 183.177 105.457C183.177 107.911 181.337 109.051 177.743 109.051H172.485C161.004 109.051 156.534 112.118 156.534 119.567C156.534 127.192 162.143 130.697 170.294 130.697ZM171.609 114.747C171.609 112.556 173.186 111.504 177.13 111.504H182.301V113.345C182.301 116.763 180.285 117.99 176.692 117.99C173.712 117.99 171.609 117.026 171.609 114.747Z" stroke="black" stroke-width="6" mask="url(#path-2-outside-2_93_3)"/>
<path d="M240.757 130.697C250.485 130.697 253.026 124.65 253.026 114.659V111.767H250.748C250.748 115.711 248.732 116.587 246.541 116.587C242.509 116.587 240.406 115.185 234.534 115.185H231.029V113.87H237.163C247.067 113.87 251.186 109.488 251.186 101.864C251.186 93.8009 246.103 89.8571 237.251 89.8571C226.033 89.8571 220.599 94.6774 220.599 106.684V108.875H219.285C219.285 96.3424 220.599 94.2391 222.528 90.5582V71.2773H203.334V84.5987C205.438 84.5987 206.402 85.3875 206.402 86.7897V114.484C206.402 115.886 205.438 116.675 203.334 116.675V129.996H225.069V116.675C223.316 116.675 222.528 115.886 222.528 114.484V108.875C222.528 105.808 224.719 103.266 228.136 103.266C231.642 103.266 232.957 105.72 232.957 108.7C232.957 111.767 231.292 114.133 227.26 114.133V116.237C227.26 126.403 231.292 130.697 240.757 130.697Z" stroke="black" stroke-width="6" mask="url(#path-2-outside-2_93_3)"/>
<path d="M278.968 130.697C291.938 130.697 299.125 125.702 299.125 115.623V113.695H296.145C296.145 116.675 291.413 118.34 283.788 118.34C275.55 118.34 272.57 115.974 272.132 111.504H298.95V109.401C298.95 96.4301 289.835 89.8571 276.864 89.8571C264.069 89.8571 255.48 96.5177 255.48 110.277C255.48 124.563 265.208 130.697 278.968 130.697ZM272.044 109.05C272.395 105.282 273.885 102.74 277.39 102.74C281.246 102.74 282.649 105.632 282.649 109.05H272.044Z" stroke="black" stroke-width="6" mask="url(#path-2-outside-2_93_3)"/>
<path d="M301.667 129.996H323.489V116.675C321.649 116.675 320.86 115.886 320.86 114.484V108.349C320.86 105.019 322.613 103.266 325.33 103.266C327.783 103.266 329.711 105.106 329.711 108.612V109.576H344.786V107.999C344.786 94.8526 341.543 89.8571 333.042 89.8571C324.365 89.8571 318.932 95.0279 318.932 107.035V109.576H317.617C317.617 99.7605 318.494 96.956 320.86 92.8368V90.5582H301.667V103.879C303.77 103.879 304.734 104.668 304.734 106.07V114.484C304.734 115.886 303.77 116.675 301.667 116.675V129.996Z" stroke="black" stroke-width="6" mask="url(#path-2-outside-2_93_3)"/>
<path d="M375.109 130.697C382.822 130.697 387.992 127.017 387.992 119.655C387.992 111.942 382.646 108.875 371.691 108.875H368.273C363.716 108.875 361.613 107.823 361.613 105.369C361.613 103.266 363.628 102.39 365.819 102.39C368.449 102.39 370.289 103.354 370.289 106.859H387.379V90.5582H373.532V102.477H372.217V100.286C372.217 92.311 367.835 89.8571 360.035 89.8571C352.586 89.8571 347.502 93.2751 347.502 100.199C347.502 107.648 352.673 111.154 363.365 111.241L367.046 111.329C371.078 111.417 373.093 112.381 373.093 114.747C373.093 116.851 371.341 117.99 368.974 117.99C366.082 117.99 364.067 116.938 364.067 113.433H346.889V129.997H360.736V117.815H362.138V119.655C362.138 128.069 366.871 130.697 375.109 130.697Z" stroke="black" stroke-width="6" mask="url(#path-2-outside-2_93_3)"/>
</g>
<defs>
<filter id="filter0_d_93_3" x="0" y="0" width="390.992" height="159.803" filterUnits="userSpaceOnUse" color-interpolation-filters="sRGB">
<feFlood flood-opacity="0" result="BackgroundImageFix"/>
<feColorMatrix in="SourceAlpha" type="matrix" values="0 0 0 0 0 0 0 0 0 0 0 0 0 0 0 0 0 0 127 0" result="hardAlpha"/>
<feOffset dx="-7" dy="7"/>
<feComposite in2="hardAlpha" operator="out"/>
<feColorMatrix type="matrix" values="0 0 0 0 0 0 0 0 0 0 0 0 0 0 0 0 0 0 1 0"/>
<feBlend mode="normal" in2="BackgroundImageFix" result="effect1_dropShadow_93_3"/>
<feBlend mode="normal" in="SourceGraphic" in2="effect1_dropShadow_93_3" result="shape"/>
</filter>
</defs>
</svg>
